<svg width="24" height="24" fill="none" xmlns="http://www.w3.org/2000/svg">
    <path fill-rule="evenodd" clip-rule="evenodd" d="M14.04 4.876a.392.392 0 1 0 0 .783.392.392 0 0 0 0-.783Zm-1.892.391a1.892 1.892 0 1 1 3.783 0 1.892 1.892 0 0 1-3.783 0ZM5.3 13.684a3.2 3.2 0 0 0-3.2 3.2c0 .842.536 1.994 1.32 2.988.38.482.787.887 1.157 1.163.398.299.645.367.723.367.078 0 .324-.069.723-.367a6.52 6.52 0 0 0 1.157-1.163c.783-.994 1.32-2.146 1.32-2.987a3.2 3.2 0 0 0-3.2-3.2Zm-4.7 3.2a4.7 4.7 0 0 1 9.4 0c0 1.341-.78 2.823-1.642 3.917-.443.561-.941 1.065-1.436 1.435-.465.348-1.042.666-1.622.666-.58 0-1.157-.318-1.622-.666-.495-.37-.993-.874-1.436-1.435C1.38 19.707.6 18.225.6 16.885Zm4.7-.566a.567.567 0 1 0 0 1.133.567.567 0 0 0 0-1.133Zm-2.067.567a2.067 2.067 0 1 1 4.134 0 2.067 2.067 0 0 1-4.134 0Z" fill="#868686"/>
    <path fill-rule="evenodd" clip-rule="evenodd" d="M14.04 2.592a2.676 2.676 0 0 0-2.676 2.675c0 .697.45 1.674 1.123 2.53.326.412.673.756.985.99.155.116.29.196.399.245a.787.787 0 0 0 .125.045c.029.007.043.008.043.008s.015 0 .043-.008a.783.783 0 0 0 .126-.045c.108-.049.243-.129.4-.245.311-.234.658-.578.983-.99.675-.856 1.124-1.833 1.124-2.53a2.676 2.676 0 0 0-2.675-2.675ZM9.864 5.267a4.176 4.176 0 0 1 8.351 0c0 1.196-.692 2.503-1.445 3.458a7.036 7.036 0 0 1-1.264 1.263c-.408.305-.93.597-1.466.597-.537 0-1.059-.292-1.467-.597a7.039 7.039 0 0 1-1.264-1.263c-.752-.955-1.445-2.262-1.445-3.458ZM13.946 11.444a.75.75 0 0 1 .75.75v2.765c0 .852.69 1.542 1.542 1.542h2.257a3.077 3.077 0 1 1 0 6.154h-8.53a.75.75 0 0 1 0-1.5h8.53a1.577 1.577 0 0 0 0-3.154h-2.257a3.042 3.042 0 0 1-3.042-3.042v-2.765a.75.75 0 0 1 .75-.75Z" fill="#868686"/>
</svg>
