<svg width="24" height="24" fill="none" xmlns="http://www.w3.org/2000/svg">
    <path fill-rule="evenodd" clip-rule="evenodd" d="M6 21a4 4 0 0 1-4-4v-1c0-.552.46-.984.982-1.164a3.001 3.001 0 0 0 0-5.672C2.46 8.984 2 8.552 2 8V7a4 4 0 0 1 4-4h12a4 4 0 0 1 4 4v1c0 .552-.46.984-.982 1.164a3.001 3.001 0 0 0 0 5.672c.522.18.982.612.982 1.164v1a4 4 0 0 1-4 4H6Zm4.75-15a.75.75 0 0 0-1.5 0v2a.75.75 0 0 0 1.5 0V6ZM10 15.25a.75.75 0 0 1 .75.75v2a.75.75 0 0 1-1.5 0v-2a.75.75 0 0 1 .75-.75Zm.75-4.25a.75.75 0 0 0-1.5 0v2a.75.75 0 0 0 1.5 0v-2Z" fill="#868686"/>
</svg>
