<svg width="24" height="24" fill="none" xmlns="http://www.w3.org/2000/svg">
    <path d="M17 4a3 3 0 0 1 2.958 2.5H4V5a3 3 0 0 1 3-3h2.569a3 3 0 0 1 1.844.634l.94.732A3 3 0 0 0 14.197 4H17Z" fill="#868686"/>
    <path fill-rule="evenodd" clip-rule="evenodd" d="M20.526 8H3.473a2 2 0 0 0-1.955 2.42l1.804 8.418A4 4 0 0 0 7.233 22h9.533a4 4 0 0 0 3.911-3.162l1.804-8.419A2 2 0 0 0 20.525 8Zm-9.277 5.828a1.257 1.257 0 0 0-.133.117L9.53 15.53a.75.75 0 1 1-1.06-1.06l1.585-1.586a2.75 2.75 0 0 1 3.89 0l1.585 1.586a.75.75 0 0 1-1.06 1.06l-1.587-1.585a1.247 1.247 0 0 0-.133-.117V18a.75.75 0 1 1-1.5 0v-4.172Z" fill="#868686"/>
</svg>
