<svg width="24" height="24" fill="none" xmlns="http://www.w3.org/2000/svg">
    <path fill-rule="evenodd" clip-rule="evenodd" d="M14 2.25a.75.75 0 0 1 .75.75v1.5a.75.75 0 0 1-1.5 0V3a.75.75 0 0 1 .75-.75ZM8.47 4.47a.75.75 0 0 1 1.06 0l1 1a.75.75 0 1 1-1.06 1.06l-1-1a.75.75 0 0 1 0-1.06Zm11.06 0a.75.75 0 0 1 0 1.06l-1 1a.75.75 0 1 1-1.06-1.06l1-1a.75.75 0 0 1 1.06 0ZM8 9.75A5.25 5.25 0 1 0 13.25 15a.75.75 0 0 1 .75-.75h3.789a3.25 3.25 0 0 0 1.803-.546l1.101-.734a1.25 1.25 0 0 0 .557-1.04V11c0-.69-.56-1.25-1.25-1.25h-5.25V11a.75.75 0 0 1-1.5 0V9.75H8Zm0-1.5a6.75 6.75 0 1 0 6.709 7.5h3.08a4.75 4.75 0 0 0 2.635-.798l1.101-.734a2.75 2.75 0 0 0 1.225-2.288V11A2.75 2.75 0 0 0 20 8.25H8Zm0 5.5a1.25 1.25 0 1 0 0 2.5 1.25 1.25 0 0 0 0-2.5ZM5.25 15a2.75 2.75 0 1 1 5.5 0 2.75 2.75 0 0 1-5.5 0Z" fill="#868686"/>
</svg>
