<svg width="24" height="24" fill="none" xmlns="http://www.w3.org/2000/svg">
    <path fill-rule="evenodd" clip-rule="evenodd" d="M7 2.75A3.25 3.25 0 0 0 3.75 6v12A3.25 3.25 0 0 0 7 21.25h4.343c.31 0 .615-.044.907-.13V18A4.75 4.75 0 0 1 17 13.25h3.12c.086-.292.13-.597.13-.907V6A3.25 3.25 0 0 0 17 2.75H7Zm12.19 12H17A3.25 3.25 0 0 0 13.75 18v2.19l5.44-5.44ZM2.25 6A4.75 4.75 0 0 1 7 1.25h10A4.75 4.75 0 0 1 21.75 6v6.343c0 1.26-.5 2.468-1.391 3.359l-5.657 5.657a4.75 4.75 0 0 1-3.359 1.391H7A4.75 4.75 0 0 1 2.25 18V6Zm8.341.75a.841.841 0 0 0-.841.841v.075c0 .208.07.41.2.572l1.855 2.317c.1.126.29.126.39 0l1.854-2.317c.13-.163.201-.364.201-.572V7.59a.841.841 0 0 0-1.436-.595l-.284.284a.75.75 0 0 1-1.06 0l-.284-.284a.841.841 0 0 0-.595-.246Zm-2.341.841A2.341 2.341 0 0 1 12 5.721a2.341 2.341 0 0 1 3.75 1.87v.075c0 .548-.187 1.08-.53 1.509l-1.854 2.317a1.75 1.75 0 0 1-2.732 0L8.778 9.175a2.416 2.416 0 0 1-.529-1.51v-.074Z" fill="#868686"/>
</svg>
