<svg width="24" height="24" fill="none" xmlns="http://www.w3.org/2000/svg">
    <path d="M20.832 9.75a6.5 6.5 0 0 1 .19.143c.614-.83.978-1.859.978-2.972 0-.246-.267-.385-.495-.293a4 4 0 0 1-5.502-3.873c.015-.36-.293-.68-.634-.562a5.014 5.014 0 0 0-3.054 2.978 8.514 8.514 0 0 1 3.925 3.374 6.478 6.478 0 0 1 4.592 1.205ZM12 22.75a.75.75 0 1 0 0-1.5.75.75 0 0 0 0 1.5ZM12.75 19a.75.75 0 1 1-1.5 0 .75.75 0 0 1 1.5 0ZM8.75 20.75a.75.75 0 1 0 0-1.5.75.75 0 0 0 0 1.5ZM16 20a.75.75 0 1 1-1.5 0 .75.75 0 0 1 1.5 0ZM8.75 17.75a.75.75 0 1 0 0-1.5.75.75 0 0 0 0 1.5ZM16 17a.75.75 0 1 1-1.5 0 .75.75 0 0 1 1.5 0Z" fill="#868686"/>
    <path d="M2 13a7.003 7.003 0 0 0 4.544 6.557c.08-.4.266-.763.529-1.056A2.25 2.25 0 1 1 11 16.985c.301-.15.64-.234 1-.234s.699.084 1 .233a2.25 2.25 0 1 1 3.927 1.517c.351.392.567.908.573 1.475a5 5 0 1 0-2.061-9.727 7.027 7.027 0 0 0-3.433-3.572A7 7 0 0 0 2 13Z" fill="#868686"/>
</svg>
