<svg width="24" height="24" fill="none" xmlns="http://www.w3.org/2000/svg">
    <path fill-rule="evenodd" clip-rule="evenodd" d="M22 18V8.403c0-.22-.018-.438-.054-.653H2.054A4 4 0 0 0 2 8.403V18a4 4 0 0 0 4 4h12a4 4 0 0 0 4-4Zm-8.53-4.407-.72-.724v4.418a.752.752 0 0 1-.75.755.752.752 0 0 1-.75-.755v-4.418l-.72.724a.747.747 0 0 1-1.06 0 .758.758 0 0 1 0-1.068l1.293-1.3a1.742 1.742 0 0 1 2.474 0l1.293 1.3a.758.758 0 0 1 0 1.068.747.747 0 0 1-1.06 0Z" fill="#868686"/>
    <path d="M21.123 5.904c.09.112.172.227.248.346H2.63c.076-.12.159-.234.248-.346l1.922-2.403A4 4 0 0 1 7.922 2h8.156A4 4 0 0 1 19.2 3.501l1.922 2.403Z" fill="#868686"/>
</svg>
