<svg width="24" height="24" fill="none" xmlns="http://www.w3.org/2000/svg">
    <path fill-rule="evenodd" clip-rule="evenodd" d="M8 1.25a.75.75 0 0 1 .75.75v.75h6.5V2a.75.75 0 0 1 1.5 0v.75H17a4.75 4.75 0 0 1 4.75 4.75V18A4.75 4.75 0 0 1 17 22.75H7A4.75 4.75 0 0 1 2.25 18V7.5A4.75 4.75 0 0 1 7 2.75h.25V2A.75.75 0 0 1 8 1.25Zm-.75 3H7A3.25 3.25 0 0 0 3.75 7.5V18A3.25 3.25 0 0 0 7 21.25h10A3.25 3.25 0 0 0 20.25 18V7.5A3.25 3.25 0 0 0 17 4.25h-.25V5a.75.75 0 0 1-1.5 0v-.75h-6.5V5a.75.75 0 0 1-1.5 0v-.75Zm3.954 6.954a1.125 1.125 0 0 0-1.59 1.591l1.856 1.857a.75.75 0 0 0 1.06 0l1.856-1.856a1.125 1.125 0 1 0-1.59-1.591l-.266.265a.75.75 0 0 1-1.06 0l-.266-.266ZM12 9.912a2.626 2.626 0 0 0-3.447 3.944l1.856 1.856a2.25 2.25 0 0 0 3.182 0l1.856-1.856A2.625 2.625 0 0 0 12 9.912Z" fill="#868686"/>
</svg>
