<svg width="24" height="24" fill="none" xmlns="http://www.w3.org/2000/svg">
    <path fill-rule="evenodd" clip-rule="evenodd" d="M1.25 6A4.75 4.75 0 0 1 6 1.25h12A4.75 4.75 0 0 1 22.75 6v12A4.75 4.75 0 0 1 18 22.75H6A4.75 4.75 0 0 1 1.25 18V6ZM6 2.75A3.25 3.25 0 0 0 2.75 6v12A3.25 3.25 0 0 0 6 21.25h12A3.25 3.25 0 0 0 21.25 18V6A3.25 3.25 0 0 0 18 2.75H6Zm9.359 5.891a.75.75 0 0 1 0 1.06L13.06 12l2.298 2.298a.75.75 0 0 1-1.06 1.06L12 13.062l-2.298 2.298a.75.75 0 0 1-1.06-1.06L10.938 12 8.641 9.702a.75.75 0 1 1 1.06-1.06L12 10.938l2.298-2.298a.75.75 0 0 1 1.06 0Z" fill="#868686"/>
</svg>
