<svg width="24" height="24" fill="none" xmlns="http://www.w3.org/2000/svg">
    <path fill-rule="evenodd" clip-rule="evenodd" d="M14.031 3.38a3.593 3.593 0 0 0-4.062 0L3.58 7.812c-1.006.698-1.11 2.061-.242 2.89a3.36 3.36 0 0 1 1.051 2.43v4.878c0 1.756 1.503 3.239 3.43 3.239h8.361c1.928 0 3.43-1.483 3.43-3.24v-4.877a3.36 3.36 0 0 1 1.053-2.43c.867-.829.763-2.192-.243-2.89L14.031 3.38ZM9.114 2.146a5.093 5.093 0 0 1 5.772 0l6.39 4.434c1.774 1.232 1.987 3.714.422 5.206a1.86 1.86 0 0 0-.587 1.346v4.878c0 2.65-2.241 4.739-4.93 4.739H7.82c-2.69 0-4.93-2.09-4.93-4.74v-4.877a1.86 1.86 0 0 0-.588-1.346C.738 10.295.95 7.813 2.725 6.581l6.389-4.434Zm3.445 7.971a1.25 1.25 0 0 0-1.118 0l-1.999 1c-.432.216-.686.644-.665 1.083.071 1.466.287 2.454.675 3.24.384.78.97 1.426 1.899 2.157.38.3.92.299 1.298 0 .929-.732 1.51-1.385 1.891-2.166.385-.79.598-1.775.676-3.225.024-.443-.232-.876-.666-1.094l-1.99-.995ZM10.77 8.776a2.75 2.75 0 0 1 2.46 0l1.99.996c.931.465 1.552 1.434 1.493 2.515-.083 1.547-.315 2.758-.825 3.803-.514 1.053-1.277 1.871-2.31 2.686-.925.73-2.231.727-3.154 0-1.028-.807-1.798-1.618-2.318-2.671-.515-1.046-.751-2.264-.827-3.831-.052-1.076.568-2.036 1.492-2.498l2-1Z" fill="#868686"/>
</svg>
