<svg width="24" height="24" fill="none" xmlns="http://www.w3.org/2000/svg">
    <path fill-rule="evenodd" clip-rule="evenodd" d="M12 2.75a9.25 9.25 0 1 0 0 18.5 9.25 9.25 0 0 0 0-18.5ZM1.25 12C1.25 6.063 6.063 1.25 12 1.25S22.75 6.063 22.75 12 17.937 22.75 12 22.75 1.25 17.937 1.25 12Z" fill="#868686"/>
    <path fill-rule="evenodd" clip-rule="evenodd" d="M11.546 9.124c-2.184-.122-4.16.13-5.267.573a.75.75 0 0 1-.557-1.393c1.393-.557 3.616-.805 5.907-.677 2.302.128 4.8.643 6.735 1.718a.75.75 0 1 1-.728 1.311c-1.665-.925-3.916-1.41-6.09-1.532ZM11 12.313c-1.907-.06-3.548.185-4.285.406a.75.75 0 0 1-.431-1.437c.93-.279 2.738-.533 4.764-.469 2.027.065 4.37.451 6.315 1.532a.75.75 0 1 1-.728 1.311c-1.654-.919-3.729-1.283-5.635-1.343Zm4.635 4.343c-3.361-1.867-7.367-1.403-8.92-.937a.75.75 0 0 1-.431-1.437c1.78-.534 6.24-1.07 10.08 1.063a.75.75 0 1 1-.729 1.311Z" fill="#868686"/>
</svg>
