<svg width="24" height="24" fill="none" xmlns="http://www.w3.org/2000/svg">
    <path fill-rule="evenodd" clip-rule="evenodd" d="M22 6.5a4.5 4.5 0 1 1-9 0 4.5 4.5 0 0 1 9 0Zm-6-2.75a.75.75 0 0 1 .75.75v1.25h1.5V4.5a.75.75 0 0 1 1.5 0v4a.75.75 0 0 1-1.5 0V7.25h-1.5V8.5a.75.75 0 0 1-1.5 0v-4a.75.75 0 0 1 .75-.75Z" fill="#868686"/>
    <path d="M2.75 9a.75.75 0 0 0-1.5 0v13a.75.75 0 0 0 1.5 0v-3.25H20.5V22a.75.75 0 0 0 1.5 0v-6a2 2 0 0 0-2-2H10v-2a1 1 0 0 0-1-1H6a1 1 0 0 0-1 1v2H2.75V9Z" fill="#868686"/>
</svg>
