<svg width="24" height="24" fill="none" xmlns="http://www.w3.org/2000/svg">
    <path d="m10.53 4.116.72-.72V5.5a.75.75 0 0 0 1.5 0V3.396l.72.72a.75.75 0 1 0 1.06-1.06l-1.293-1.293a1.75 1.75 0 0 0-2.474 0L9.47 3.055a.75.75 0 0 0 1.06 1.061ZM19 19a1 1 0 1 0-2 0 1 1 0 0 0 2 0ZM6 10a1 1 0 1 1 0 2 1 1 0 0 1 0-2Z" fill="#868686"/>
    <path fill-rule="evenodd" clip-rule="evenodd" d="M9.25 15a2.75 2.75 0 1 0 5.5 0 2.75 2.75 0 0 0-5.5 0ZM12 16.25a1.25 1.25 0 1 1 0-2.5 1.25 1.25 0 0 1 0 2.5Z" fill="#868686"/>
    <path fill-rule="evenodd" clip-rule="evenodd" d="M2.25 11A3.75 3.75 0 0 1 6 7.25h12A3.75 3.75 0 0 1 21.75 11v8A3.75 3.75 0 0 1 18 22.75H6A3.75 3.75 0 0 1 2.25 19v-8ZM6 8.75A2.25 2.25 0 0 0 3.75 11v8A2.25 2.25 0 0 0 6 21.25h12A2.25 2.25 0 0 0 20.25 19v-8A2.25 2.25 0 0 0 18 8.75H6Z" fill="#868686"/>
</svg>
