<svg width="24" height="24" fill="none" xmlns="http://www.w3.org/2000/svg">
    <path fill-rule="evenodd" clip-rule="evenodd" d="M17 2.75a2.25 2.25 0 1 0 0 4.5 2.25 2.25 0 0 0 0-4.5ZM13.25 5a3.75 3.75 0 1 1 7.5 0 3.75 3.75 0 0 1-7.5 0Z" fill="#868686"/>
    <path fill-rule="evenodd" clip-rule="evenodd" d="M17 7.25a.75.75 0 0 1 .75.75v4a.75.75 0 0 1-1.5 0V8a.75.75 0 0 1 .75-.75ZM12 15.25a.75.75 0 0 1 .75.75v1a.75.75 0 0 1-1.5 0v-1a.75.75 0 0 1 .75-.75ZM12 10.75a.75.75 0 0 1 .75.75v1a.75.75 0 0 1-1.5 0v-1a.75.75 0 0 1 .75-.75ZM12 6.25a.75.75 0 0 1 .75.75v1a.75.75 0 0 1-1.5 0V7a.75.75 0 0 1 .75-.75Z" fill="#868686"/>
    <path fill-rule="evenodd" clip-rule="evenodd" d="M5.81 5.034A2.75 2.75 0 0 1 8.385 3.25h2.697a.75.75 0 0 1 0 1.5H8.385a1.25 1.25 0 0 0-1.17.811l-4.5 12a1.25 1.25 0 0 0 1.17 1.689h16.228a1.25 1.25 0 0 0 1.17-1.689L18.73 10.75a.75.75 0 1 1 1.404-.527l2.554 6.811a2.75 2.75 0 0 1-2.575 3.716H3.885a2.75 2.75 0 0 1-2.575-3.716l4.5-12Z" fill="#868686"/>
</svg>
