<svg width="24" height="24" fill="none" xmlns="http://www.w3.org/2000/svg">
    <path fill-rule="evenodd" clip-rule="evenodd" d="M6 4.25a.75.75 0 0 1 .75.75v10.99a1.26 1.26 0 0 0 .184-.17l1.505-1.693a.75.75 0 0 1 1.122.996l-1.506 1.694a2.737 2.737 0 0 1-1.909.919.75.75 0 0 1-.292 0 2.737 2.737 0 0 1-1.91-.92L2.44 15.124a.75.75 0 0 1 1.122-.996l1.505 1.693c.057.064.118.12.184.17V5A.75.75 0 0 1 6 4.25Zm5.25.75a.75.75 0 0 1 .75-.75h3a.75.75 0 0 1 0 1.5h-3a.75.75 0 0 1-.75-.75Zm0 6a.75.75 0 0 1 .75-.75h6a.75.75 0 0 1 0 1.5h-6a.75.75 0 0 1-.75-.75Zm0 6a.75.75 0 0 1 .75-.75h9a.75.75 0 0 1 0 1.5h-9a.75.75 0 0 1-.75-.75Z" fill="#868686"/>
</svg>
