<svg width="24" height="24" fill="none" xmlns="http://www.w3.org/2000/svg">
    <path fill-rule="evenodd" clip-rule="evenodd" d="M3 8a4 4 0 0 1 4-4h10a4 4 0 0 1 4 4v10h-1.667a.833.833 0 0 1-.833-.833c0-.92-.746-1.667-1.667-1.667h-3.666c-.92 0-1.667.746-1.667 1.667 0 .46-.373.833-.833.833H3V8Zm3.25 0A.75.75 0 0 1 7 7.25h5a.75.75 0 0 1 0 1.5H7A.75.75 0 0 1 6.25 8Z" fill="#868686"/>
    <path d="M13 18a1 1 0 0 1 1-1h2a1 1 0 0 1 1 1v1.25h5a.75.75 0 0 1 0 1.5H2a.75.75 0 0 1 0-1.5h11V18Z" fill="#868686"/>
</svg>
