<svg width="24" height="24" fill="none" xmlns="http://www.w3.org/2000/svg">
    <path fill-rule="evenodd" clip-rule="evenodd" d="M9 3.75a6.25 6.25 0 0 0-3.57 11.38.75.75 0 1 1-.86 1.23 7.75 7.75 0 1 1 11.276-9.995 5.75 5.75 0 0 1 4.029 10.614.75.75 0 1 1-.75-1.297 4.25 4.25 0 1 0-5.1-6.717.75.75 0 1 1-1.05-1.071c.42-.412.903-.76 1.434-1.028A6.248 6.248 0 0 0 9 3.75Zm.01 12.7L8.5 17l-.51-.55a.75.75 0 0 1 1.02 0ZM8.5 18.1a6.437 6.437 0 0 0-.156.193c-.169.22-.325.455-.437.681-.114.234-.157.41-.157.526 0 .395.114.54.183.6.087.075.259.15.567.15.308 0 .48-.075.567-.15.069-.06.183-.205.183-.6 0-.116-.043-.292-.157-.526a4.171 4.171 0 0 0-.437-.68 6.437 6.437 0 0 0-.156-.195Zm7.51-1.65-.51.55-.51-.55a.75.75 0 0 1 1.02 0Zm-.51 1.65a6.533 6.533 0 0 0-.156.193 4.17 4.17 0 0 0-.436.681c-.115.234-.158.41-.158.526 0 .395.114.54.182.6.088.075.26.15.568.15.308 0 .48-.075.567-.15.069-.06.183-.205.183-.6 0-.116-.043-.292-.157-.526a4.17 4.17 0 0 0-.437-.68 6.533 6.533 0 0 0-.156-.195Zm-7.51-1.65.51.55.51-.55.004.003.005.005.016.016a6.288 6.288 0 0 1 .243.245c.153.161.359.39.566.66.206.266.425.588.595.934.166.338.311.75.311 1.187 0 .71-.222 1.315-.696 1.73-.456.397-1.034.52-1.554.52s-1.098-.123-1.554-.52c-.474-.415-.696-1.02-.696-1.73 0-.436.145-.849.311-1.187a5.65 5.65 0 0 1 .595-.935 8.537 8.537 0 0 1 .81-.904l.015-.016.005-.005.003-.002Zm7 0 .51.55.51-.55.004.003.005.005.016.016.055.053a8.54 8.54 0 0 1 .754.851c.206.267.425.589.595.935.166.338.311.75.311 1.187 0 .71-.222 1.315-.696 1.73-.456.397-1.034.52-1.554.52s-1.098-.123-1.554-.52c-.474-.415-.696-1.02-.696-1.73 0-.436.145-.849.311-1.187.17-.346.389-.668.595-.935a8.54 8.54 0 0 1 .754-.85c.023-.024.042-.042.055-.054l.016-.016.005-.005.003-.002Z" fill="#868686"/>
</svg>
