<svg width="24" height="24" fill="none" xmlns="http://www.w3.org/2000/svg">
    <path fill-rule="evenodd" clip-rule="evenodd" d="M12 2.75a1.25 1.25 0 1 0 0 2.5 1.25 1.25 0 0 0 0-2.5ZM9.25 4a2.75 2.75 0 1 1 5.5 0 2.75 2.75 0 0 1-5.5 0Zm10.762 3.375a1.25 1.25 0 1 0-2.165 1.25 1.25 1.25 0 0 0 2.165-1.25Zm-2.458-1.757a2.75 2.75 0 1 1 2.75 4.764 2.75 2.75 0 0 1-2.75-4.764Zm-11.856 1.3a1.25 1.25 0 1 0-1.25 2.165 1.25 1.25 0 0 0 1.25-2.166ZM2.69 6.624a2.75 2.75 0 1 1 4.763 2.75 2.75 2.75 0 0 1-4.763-2.75Zm3.464 8.75a1.25 1.25 0 1 0-2.165 1.25 1.25 1.25 0 0 0 2.165-1.25Zm-2.457-1.757a2.75 2.75 0 1 1 2.75 4.764 2.75 2.75 0 0 1-2.75-4.764Zm15.856 1.3a1.25 1.25 0 1 0-1.25 2.164 1.25 1.25 0 0 0 1.25-2.165Zm-3.006-.293a2.75 2.75 0 1 1 4.763 2.75 2.75 2.75 0 0 1-4.764-2.75ZM12 18.75a1.25 1.25 0 1 0 0 2.5 1.25 1.25 0 0 0 0-2.5ZM9.25 20a2.75 2.75 0 1 1 5.5 0 2.75 2.75 0 0 1-5.5 0Z" fill="#868686"/>
</svg>
