<svg width="24" height="24" fill="none" xmlns="http://www.w3.org/2000/svg">
    <path fill-rule="evenodd" clip-rule="evenodd" d="M13.25 9A2.75 2.75 0 0 1 16 6.25h4A2.75 2.75 0 0 1 22.75 9v9A2.75 2.75 0 0 1 20 20.75h-4A2.75 2.75 0 0 1 13.25 18V9ZM16 7.75c-.69 0-1.25.56-1.25 1.25v9c0 .69.56 1.25 1.25 1.25h4c.69 0 1.25-.56 1.25-1.25V9c0-.69-.56-1.25-1.25-1.25h-4Z" fill="#868686"/>
    <path fill-rule="evenodd" clip-rule="evenodd" d="M3.25 6A2.75 2.75 0 0 1 6 3.25h14a.75.75 0 0 1 0 1.5H6c-.69 0-1.25.56-1.25 1.25v10.25H11a.75.75 0 0 1 0 1.5H3.25V6Z" fill="#868686"/>
    <path fill-rule="evenodd" clip-rule="evenodd" d="M1.25 18.5a2.25 2.25 0 0 1 2.25-2.25H11a.75.75 0 0 1 0 1.5H3.5a.75.75 0 0 0 0 1.5H11a.75.75 0 0 1 0 1.5H3.5a2.25 2.25 0 0 1-2.25-2.25Z" fill="#868686"/>
</svg>
