<svg width="24" height="24" fill="none" xmlns="http://www.w3.org/2000/svg">
    <path fill-rule="evenodd" clip-rule="evenodd" d="M5.25 6A3.75 3.75 0 0 1 9 2.25h6a3.75 3.75 0 1 1 0 7.5H9A3.75 3.75 0 0 1 5.25 6ZM9 3.75a2.25 2.25 0 0 0 0 4.5h6a2.25 2.25 0 0 0 0-4.5H9Z" fill="#868686"/>
    <path fill-rule="evenodd" clip-rule="evenodd" d="M5.25 12A3.75 3.75 0 0 1 9 8.25h3.75v7.5H9A3.75 3.75 0 0 1 5.25 12ZM9 9.75a2.25 2.25 0 0 0 0 4.5h2.25v-4.5H9Z" fill="#868686"/>
    <path fill-rule="evenodd" clip-rule="evenodd" d="M5.25 18A3.75 3.75 0 0 1 9 14.25h3.75V18a3.75 3.75 0 1 1-7.5 0ZM9 15.75A2.25 2.25 0 1 0 11.25 18v-2.25H9Z" fill="#868686"/>
    <path fill-rule="evenodd" clip-rule="evenodd" d="M15 9.75a2.25 2.25 0 1 0 0 4.5 2.25 2.25 0 0 0 0-4.5ZM11.25 12a3.75 3.75 0 1 1 7.5 0 3.75 3.75 0 0 1-7.5 0Z" fill="#868686"/>
</svg>
