<svg width="24" height="24" fill="none" xmlns="http://www.w3.org/2000/svg">
    <path fill-rule="evenodd" clip-rule="evenodd" d="M10.282 2.415a2.75 2.75 0 0 1 3.436 0l3.203 2.562c.221.178.497.274.78.274H20a2.75 2.75 0 0 1 2.75 2.75v12a2.75 2.75 0 0 1-2.75 2.75H4a2.75 2.75 0 0 1-2.75-2.75v-12A2.75 2.75 0 0 1 4 5.251h2.298c.284 0 .56-.096.781-.274l3.203-2.562ZM9.75 21.251h4.5v-3.25a2.25 2.25 0 1 0-4.5 0v3.25Zm6 0v-3.25a3.75 3.75 0 1 0-7.5 0v3.25H4c-.69 0-1.25-.56-1.25-1.25v-12c0-.69.56-1.25 1.25-1.25h2.298a2.75 2.75 0 0 0 1.718-.602l3.203-2.563a1.25 1.25 0 0 1 1.562 0l3.203 2.563a2.75 2.75 0 0 0 1.718.602H20c.69 0 1.25.56 1.25 1.25v12c0 .69-.56 1.25-1.25 1.25h-4.25Zm-6.5-11.25a2.75 2.75 0 1 1 5.5 0 2.75 2.75 0 0 1-5.5 0ZM12 8.751a1.25 1.25 0 1 0 0 2.5 1.25 1.25 0 0 0 0-2.5Z" fill="#868686"/>
</svg>
