<svg width="24" height="24" fill="none" xmlns="http://www.w3.org/2000/svg">
    <path fill-rule="evenodd" clip-rule="evenodd" d="M1.256 1.905a.75.75 0 0 1 .84-.649c3.518.45 6.363 1.117 9.345 2.5 2.915 1.352 5.926 3.372 9.81 6.483V9a.75.75 0 0 1 1.5 0v2A1.75 1.75 0 0 1 21 12.75h-2a.75.75 0 0 1 0-1.5h1.112c-3.745-2.986-6.594-4.877-9.303-6.134C8.012 3.82 5.329 3.182 1.905 2.744a.75.75 0 0 1-.649-.839ZM4 8.75c-.69 0-1.25.56-1.25 1.25v10a1.25 1.25 0 0 0 2.5 0V10c0-.69-.56-1.25-1.25-1.25ZM1.25 10a2.75 2.75 0 1 1 5.5 0v10a2.75 2.75 0 1 1-5.5 0V10ZM12 12.75c-.69 0-1.25.56-1.25 1.25v6a1.25 1.25 0 0 0 2.5 0v-6c0-.69-.56-1.25-1.25-1.25ZM9.25 14a2.75 2.75 0 1 1 5.5 0v6a2.75 2.75 0 1 1-5.5 0v-6ZM20 16.75c-.69 0-1.25.56-1.25 1.25v2a1.25 1.25 0 0 0 2.5 0v-2c0-.69-.56-1.25-1.25-1.25ZM17.25 18a2.75 2.75 0 1 1 5.5 0v2a2.75 2.75 0 1 1-5.5 0v-2Z" fill="#868686"/>
</svg>
