<svg width="24" height="24" fill="none" xmlns="http://www.w3.org/2000/svg">
    <path fill-rule="evenodd" clip-rule="evenodd" d="M4.75 12v6A3.25 3.25 0 0 0 8 21.25h8A3.25 3.25 0 0 0 19.25 18v-6h1.5v6A4.75 4.75 0 0 1 16 22.75H8A4.75 4.75 0 0 1 3.25 18v-6h1.5Z" fill="#868686"/>
    <path fill-rule="evenodd" clip-rule="evenodd" d="M2.398 4.892C3.164 2.737 5.053 1.25 7.231 1.25h9.538c2.178 0 4.067 1.487 4.833 3.642l.758 2.132c.242.68.465 1.547.241 2.434-.464 1.843-2.004 3.292-3.934 3.292-1.411 0-2.607-.766-3.334-1.902-.726 1.136-1.922 1.902-3.333 1.902-1.41 0-2.607-.766-3.333-1.902-.726 1.136-1.923 1.902-3.334 1.902-1.93 0-3.47-1.45-3.934-3.292-.224-.887 0-1.754.241-2.434l.758-2.132ZM9.417 8.25c0 1.742 1.237 3 2.583 3s2.584-1.258 2.584-3a.75.75 0 0 1 1.5 0c0 1.742 1.237 3 2.583 3 1.12 0 2.151-.855 2.48-2.158.111-.441.017-.955-.2-1.566l-.758-2.132c-.584-1.642-1.963-2.644-3.42-2.644H7.23c-1.456 0-2.836 1.002-3.42 2.644l-.757 2.132c-.218.61-.312 1.125-.2 1.566.328 1.303 1.36 2.158 2.48 2.158 1.346 0 2.583-1.258 2.583-3a.75.75 0 0 1 1.5 0ZM8.25 19a3.75 3.75 0 1 1 7.5 0v3a.75.75 0 0 1-.75.75H9a.75.75 0 0 1-.75-.75v-3ZM12 16.75A2.25 2.25 0 0 0 9.75 19v2.25h4.5V19A2.25 2.25 0 0 0 12 16.75Z" fill="#868686"/>
</svg>
