<svg width="24" height="24" fill="none" xmlns="http://www.w3.org/2000/svg">
    <path fill-rule="evenodd" clip-rule="evenodd" d="M2.25 12c0-5.385 4.365-9.75 9.75-9.75s9.75 4.365 9.75 9.75-4.365 9.75-9.75 9.75S2.25 17.385 2.25 12Zm1.5 0a8.25 8.25 0 1 0 16.5 0 8.25 8.25 0 0 0-16.5 0Z" fill="#868686"/>
    <path fill-rule="evenodd" clip-rule="evenodd" d="M13 8.75a.75.75 0 0 1 0-1.5h3a.75.75 0 0 1 .75.75v3a.75.75 0 0 1-1.5 0V9.81l-5.44 5.44H11a.75.75 0 0 1 0 1.5H8a.75.75 0 0 1-.75-.75v-3a.75.75 0 0 1 1.5 0v1.19l5.44-5.44H13Z" fill="#868686"/>
</svg>
