<svg width="24" height="24" fill="none" xmlns="http://www.w3.org/2000/svg">
    <path fill-rule="evenodd" clip-rule="evenodd" d="M1.25 6A4.75 4.75 0 0 1 6 1.25h12A4.75 4.75 0 0 1 22.75 6v12A4.75 4.75 0 0 1 18 22.75H6A4.75 4.75 0 0 1 1.25 18V6ZM6 2.75A3.25 3.25 0 0 0 2.75 6v12A3.25 3.25 0 0 0 6 21.25h12A3.25 3.25 0 0 0 21.25 18V6A3.25 3.25 0 0 0 18 2.75H6Zm-.358 5.591a.75.75 0 0 1 1.017.3l2.43 4.47a.25.25 0 0 0 .434.01L11.43 9.97a1.75 1.75 0 0 1 2.96-.053l2.447 3.731.491-.982a.75.75 0 1 1 1.342.67l-.724 1.448a1.75 1.75 0 0 1-1.565.967H14.5a.75.75 0 0 1 0-1.5h.94l-2.303-3.512a.25.25 0 0 0-.423.008l-1.908 3.152c-.7 1.156-2.39 1.117-3.034-.07l-2.43-4.47a.75.75 0 0 1 .3-1.017Z" fill="#868686"/>
</svg>
