<svg width="24" height="24" fill="none" xmlns="http://www.w3.org/2000/svg">
    <path d="M2.75 6A3.25 3.25 0 0 1 6 2.75h9a.75.75 0 0 0 0-1.5H6A4.75 4.75 0 0 0 1.25 6v12A4.75 4.75 0 0 0 6 22.75h12A4.75 4.75 0 0 0 22.75 18V9a.75.75 0 0 0-1.5 0v4.51a2.002 2.002 0 0 0-.14-.104l-2.381-1.587a4 4 0 0 0-5.048.5L10.32 15.68a4 4 0 0 1-5.047.5L2.75 14.5V6Z" fill="#868686"/>
    <path d="M11 8.5a2.5 2.5 0 1 1-5 0 2.5 2.5 0 0 1 5 0ZM19.13 2.44l-3.422 3.42a1 1 0 0 0-.264.468l-.429 1.742a.5.5 0 0 0 .605.605l1.742-.43a1 1 0 0 0 .467-.263L21.25 4.56a1.5 1.5 0 1 0-2.12-2.122Z" fill="#868686"/>
</svg>
