<svg width="24" height="24" fill="none" xmlns="http://www.w3.org/2000/svg">
    <path d="M21 5a3.001 3.001 0 0 1-2.25 2.905V12a.75.75 0 0 1-1.5 0V7.905A3.001 3.001 0 0 1 18 2a3 3 0 0 1 3 3Z" fill="#868686"/>
    <path fill-rule="evenodd" clip-rule="evenodd" d="M15.75 8.898A4.496 4.496 0 0 1 13.613 4H8.387a2 2 0 0 0-1.873 1.298l-4.5 12A2 2 0 0 0 3.887 20h16.228a2 2 0 0 0 1.872-2.702l-1.795-4.787A2.25 2.25 0 0 1 15.751 12V8.898Zm-3 7.102a.75.75 0 0 0-1.5 0v1a.75.75 0 0 0 1.5 0v-1ZM12 10.75a.75.75 0 0 1 .75.75v1a.75.75 0 0 1-1.5 0v-1a.75.75 0 0 1 .75-.75ZM12.75 7a.75.75 0 0 0-1.5 0v1a.75.75 0 0 0 1.5 0V7Z" fill="#868686"/>
</svg>
