<svg width="24" height="24" fill="none" xmlns="http://www.w3.org/2000/svg">
    <path fill-rule="evenodd" clip-rule="evenodd" d="M7.495 6.882a7.15 7.15 0 0 0-1.022.358c-1.27.548-2.532 1.421-3.299 2a1.11 1.11 0 0 0-.424.897v9.67c0 .097.053.197.185.262a.38.38 0 0 0 .383-.013c1.049-.704 2.516-1.561 3.932-1.898v-6.894h1.5v6.757c1.53.107 2.678.981 3.637 1.711l.067.051c.991.754 1.803 1.348 2.796 1.451V12.73h1.5v8.319c.576-.177 1.192-.46 1.8-.795a19.61 19.61 0 0 0 2.276-1.495c.264-.2.424-.526.424-.896v-9.67c0-.097-.053-.197-.185-.262a.38.38 0 0 0-.383.013c-.409.275-.869.564-1.356.835l-.73-1.311c.444-.247.867-.513 1.25-.77 1.152-.774 2.904-.022 2.904 1.496v9.669c0 .8-.35 1.587-1.02 2.093a21.087 21.087 0 0 1-2.455 1.611c-.973.537-2.111 1.033-3.192 1.154-1.959.219-3.345-.836-4.47-1.693l-.067-.05c-1.204-.916-2.143-1.595-3.463-1.448-1.214.136-2.724.962-3.928 1.771-1.153.775-2.905.023-2.905-1.494v-9.67c0-.8.35-1.587 1.02-2.093.798-.603 2.173-1.562 3.61-2.181a8.64 8.64 0 0 1 1.238-.433l.377 1.452Z" fill="#868686"/>
    <path fill-rule="evenodd" clip-rule="evenodd" d="M12.9 2.75a5.25 5.25 0 1 0 0 10.5 5.25 5.25 0 0 0 0-10.5ZM6.15 8a6.75 6.75 0 1 1 13.5 0 6.75 6.75 0 0 1-13.5 0Zm8.305-3.197c1.037-.444 2.086.604 1.641 1.641l-1.99 4.643c-.452 1.056-1.97.993-2.334-.097l-.465-1.397-1.397-.466c-1.09-.363-1.154-1.882-.097-2.334l4.642-1.99Zm.017 1.625-3.464 1.484.892.297c.373.125.666.418.79.791l.297.891 1.485-3.463Z" fill="#868686"/>
</svg>
