<svg width="24" height="24" fill="none" xmlns="http://www.w3.org/2000/svg">
    <path fill-rule="evenodd" clip-rule="evenodd" d="M13.25 7a3.75 3.75 0 1 1 7.5 0 3.75 3.75 0 0 1-7.5 0ZM17 4.75a2.25 2.25 0 1 0 0 4.5 2.25 2.25 0 0 0 0-4.5Zm-10.75.26c-.066.05-.127.106-.184.17L4.56 6.873a.75.75 0 1 1-1.122-.996l1.506-1.694a2.75 2.75 0 0 1 4.11 0l1.506 1.694-1.122.996L7.934 5.18a1.26 1.26 0 0 0-.184-.17v13.98a1.26 1.26 0 0 0 .184-.17l1.505-1.693a.75.75 0 0 1 1.122.996l-1.506 1.694a2.75 2.75 0 0 1-4.11 0l-1.506-1.694a.75.75 0 0 1 1.122-.996l1.505 1.693c.057.064.118.12.184.17V5.01Zm7 11.99a3.75 3.75 0 1 1 7.5 0 3.75 3.75 0 0 1-7.5 0ZM17 14.75a2.25 2.25 0 1 0 0 4.5 2.25 2.25 0 0 0 0-4.5Z" fill="#868686"/>
</svg>
