<svg width="24" height="24" fill="none" xmlns="http://www.w3.org/2000/svg">
    <path fill-rule="evenodd" clip-rule="evenodd" d="M7.874 15.75a3.25 3.25 0 0 0-2.496 1.17L4.31 18.2c-.679.814-.1 2.05.96 2.05h13.46c1.06 0 1.638-1.236.96-2.05l-1.067-1.28a3.25 3.25 0 0 0-2.497-1.17h-1.126a.75.75 0 0 1 0-1.5h1.126a4.75 4.75 0 0 1 3.65 1.71l1.066 1.28c1.493 1.79.22 4.51-2.112 4.51H5.27c-2.332 0-3.605-2.72-2.113-4.51l1.067-1.28a4.75 4.75 0 0 1 3.65-1.71H9a.75.75 0 0 1 0 1.5H7.874Z" fill="#868686"/>
    <path fill-rule="evenodd" clip-rule="evenodd" d="M12 3.75a1.25 1.25 0 1 0 0 2.5 1.25 1.25 0 0 0 0-2.5ZM9.25 5a2.75 2.75 0 1 1 3.5 2.646V17a.75.75 0 0 1-1.5 0V7.646A2.751 2.751 0 0 1 9.25 5Z" fill="#868686"/>
</svg>
