<svg width="24" height="24" fill="none" xmlns="http://www.w3.org/2000/svg">
    <path fill-rule="evenodd" clip-rule="evenodd" d="M7.386 15.696C6.199 16.29 5.75 16.97 5.75 17.5c0 .53.449 1.21 1.636 1.804 1.142.571 2.772.946 4.614.946s3.472-.375 4.614-.946c1.187-.593 1.636-1.275 1.636-1.804 0-.53-.449-1.21-1.636-1.804-1.142-.571-2.772-.946-4.614-.946s-3.472.375-4.614.946Zm-.671-1.342C8.106 13.66 9.975 13.25 12 13.25c2.024 0 3.894.409 5.285 1.104 1.347.674 2.465 1.742 2.465 3.146s-1.118 2.473-2.465 3.146c-1.391.695-3.26 1.104-5.285 1.104-2.024 0-3.894-.409-5.285-1.104-1.347-.674-2.465-1.742-2.465-3.146s1.118-2.473 2.465-3.146ZM12 3.75a3.25 3.25 0 1 0 0 6.5 3.25 3.25 0 0 0 0-6.5ZM7.25 7a4.75 4.75 0 1 1 9.5 0 4.75 4.75 0 0 1-9.5 0Z" fill="#868686"/>
</svg>
