<svg width="24" height="24" fill="none" xmlns="http://www.w3.org/2000/svg">
    <path fill-rule="evenodd" clip-rule="evenodd" d="M3.25 5A.75.75 0 0 1 4 4.25h12a.75.75 0 0 1 0 1.5H4A.75.75 0 0 1 3.25 5ZM13.25 12a.75.75 0 0 1 .75-.75h6a.75.75 0 0 1 0 1.5h-6a.75.75 0 0 1-.75-.75Z" fill="#868686"/>
    <path fill-rule="evenodd" clip-rule="evenodd" d="M10 4.25a.75.75 0 0 1 .75.75v14a.75.75 0 0 1-1.5 0V5a.75.75 0 0 1 .75-.75ZM17 11.25a.75.75 0 0 1 .75.75v7a.75.75 0 0 1-1.5 0v-7a.75.75 0 0 1 .75-.75Z" fill="#868686"/>
</svg>
