<svg width="24" height="24" fill="none" xmlns="http://www.w3.org/2000/svg">
    <path d="M12.75 3a.75.75 0 0 0-1.5 0v1a.75.75 0 0 0 1.5 0V3Z" fill="#868686"/>
    <path fill-rule="evenodd" clip-rule="evenodd" d="M9.852 6.25a2.25 2.25 0 0 0-2.189 1.729l-.952 4c-.106.442-.073.88.066 1.271H4.852a2.25 2.25 0 0 0-2.189 1.729l-.952 4a2.25 2.25 0 0 0 2.188 2.771h6.202c.812 0 1.504-.423 1.9-1.043A2.242 2.242 0 0 0 13.9 21.75H20.1a2.25 2.25 0 0 0 2.19-2.771l-.953-4a2.25 2.25 0 0 0-2.19-1.729h-1.924c.139-.392.171-.829.066-1.271l-.952-4a2.25 2.25 0 0 0-2.19-1.729H9.853Zm2.811 8.729L12 17.762l-.662-2.783a2.245 2.245 0 0 0-.068-.229h1.46a2.27 2.27 0 0 0-.067.229Zm2.438-1.729H8.9a.75.75 0 0 1-.73-.924l.953-4a.75.75 0 0 1 .73-.576h4.297a.75.75 0 0 1 .73.576l.952 4a.75.75 0 0 1-.73.924Zm-.979 2.076a.75.75 0 0 1 .73-.576h4.297a.75.75 0 0 1 .73.576l.952 4a.75.75 0 0 1-.73.924H13.9a.75.75 0 0 1-.73-.924l.952-4ZM9.15 14.75H4.852a.75.75 0 0 0-.73.576l-.952 4a.75.75 0 0 0 .73.924H10.1a.75.75 0 0 0 .73-.924l-.952-4a.75.75 0 0 0-.73-.576Z" fill="#868686"/>
    <path d="m18.53 4.53-1 1a.75.75 0 1 1-1.06-1.06l1-1a.75.75 0 1 1 1.06 1.06ZM6.53 3.47a.75.75 0 0 0-1.06 1.06l1 1a.75.75 0 0 0 1.06-1.06l-1-1Z" fill="#868686"/>
</svg>
