<svg width="24" height="24" fill="none" xmlns="http://www.w3.org/2000/svg">
    <path fill-rule="evenodd" clip-rule="evenodd" d="m16.849 15.801 2.36-2.36a6.117 6.117 0 1 0-8.65-8.65l-2.36 2.36c.03.023.06.048.089.076l8.485 8.485a.746.746 0 0 1 .076.09Zm-.43-9.281a.75.75 0 0 1 1.061 0 3.75 3.75 0 0 1 0 5.303.75.75 0 1 1-1.06-1.06 2.25 2.25 0 0 0 0-3.182.75.75 0 0 1 0-1.061Z" fill="#868686"/>
    <path d="M15.801 16.85a.764.764 0 0 1-.089-.077L7.227 8.288a.755.755 0 0 1-.076-.09l-2.36 2.36a6.117 6.117 0 0 0 8.65 8.65l2.36-2.359Z" fill="#868686"/>
</svg>
