<svg width="24" height="24" fill="none" xmlns="http://www.w3.org/2000/svg">
    <path d="M14.411 6.34V4.405a2.41 2.41 0 1 0-4.822 0V6.34a2 2 0 0 1-.99 1.726l-4.89 2.862c-.88.515-.514 1.863.506 1.863h4.524a1 1 0 0 1 1 1v2.476a3 3 0 0 1-.62 1.827l-1.776 2.312a.994.994 0 0 0 1.159 1.528l2.737-1.123a2 2 0 0 1 1.517 0l2.743 1.123a.994.994 0 0 0 1.158-1.528l-1.775-2.312a3 3 0 0 1-.62-1.827v-2.476a1 1 0 0 1 1-1h4.524c1.02 0 1.385-1.348.505-1.863l-4.89-2.862a2 2 0 0 1-.99-1.726Z" fill="#868686"/>
</svg>
