<svg width="24" height="24" fill="none" xmlns="http://www.w3.org/2000/svg">
    <path fill-rule="evenodd" clip-rule="evenodd" d="M10.644 9.07C9.44 8.155 8.5 7.476 7.18 7.624c-.787.088-1.719.47-2.634.975a19.6 19.6 0 0 0-2.275 1.495 1.11 1.11 0 0 0-.424.897v9.669c0 .097.053.197.185.262a.38.38 0 0 0 .383-.012c1.214-.817 2.99-1.837 4.598-2.017 1.96-.22 3.345.836 4.47 1.693l.068.05c1.203.916 2.142 1.595 3.462 1.447.787-.088 1.72-.47 2.634-.975a19.625 19.625 0 0 0 2.275-1.495c.265-.2.425-.527.425-.897v-9.67c0-.097-.054-.196-.185-.262a.38.38 0 0 0-.383.013c-1.215.816-2.99 1.837-4.599 2.017-1.96.219-3.345-.836-4.47-1.693l-.067-.05Zm.908-1.194c1.203.916 2.142 1.595 3.462 1.447 1.215-.136 2.725-.962 3.93-1.77 1.152-.776 2.904-.024 2.904 1.494v9.67c0 .8-.351 1.587-1.02 2.092a21.099 21.099 0 0 1-2.456 1.612c-.972.537-2.11 1.032-3.19 1.153-1.96.22-3.346-.836-4.472-1.693l-.066-.05C9.44 20.915 8.5 20.236 7.18 20.384c-1.214.136-2.725.962-3.929 1.77C2.1 22.93.348 22.178.348 20.66v-9.67c0-.8.35-1.587 1.02-2.093a21.095 21.095 0 0 1 2.455-1.611c.973-.537 2.11-1.032 3.191-1.153 1.96-.22 3.345.836 4.47 1.692l.068.051Z" fill="#868686"/>
    <path fill-rule="evenodd" clip-rule="evenodd" d="M14.25 2.043a.75.75 0 0 1 .75-.75h6a.75.75 0 0 1 .676 1.075l-.844 1.758.844 1.76A.75.75 0 0 1 21 6.96h-5.25v7a.75.75 0 0 1-1.5 0V2.043Zm1.5 3.417V2.793h4.058l-.484 1.009a.75.75 0 0 0 0 .649l.484 1.009H15.75Z" fill="#868686"/>
</svg>
