<svg width="24" height="24" fill="none" xmlns="http://www.w3.org/2000/svg">
    <path fill-rule="evenodd" clip-rule="evenodd" d="M7 11.75a4.25 4.25 0 1 0 0 8.5 4.25 4.25 0 0 0 0-8.5ZM1.25 16a5.75 5.75 0 1 1 11.5 0 5.75 5.75 0 0 1-11.5 0ZM20.5 18.75a.75.75 0 1 0 0 1.5.75.75 0 0 0 0-1.5Zm-2.25.75a2.25 2.25 0 1 1 4.5 0 2.25 2.25 0 0 1-4.5 0Z" fill="#868686"/>
    <path fill-rule="evenodd" clip-rule="evenodd" d="M11.25 16a.75.75 0 0 1 .75-.75h6.5A2.75 2.75 0 0 1 21.25 18a.75.75 0 0 1-1.5 0c0-.69-.56-1.25-1.25-1.25H12a.75.75 0 0 1-.75-.75ZM3.25 3A.75.75 0 0 1 4 2.25h1A2.75 2.75 0 0 1 7.75 5v6a.75.75 0 0 1-1.5 0V5c0-.69-.56-1.25-1.25-1.25H4A.75.75 0 0 1 3.25 3Z" fill="#868686"/>
    <path fill-rule="evenodd" clip-rule="evenodd" d="M6.25 6A.75.75 0 0 1 7 5.25h10A2.75 2.75 0 0 1 19.75 8v8a.75.75 0 0 1-1.5 0V8c0-.69-.56-1.25-1.25-1.25H7A.75.75 0 0 1 6.25 6Z" fill="#868686"/>
</svg>
