<svg width="24" height="24" fill="none" xmlns="http://www.w3.org/2000/svg">
    <path fill-rule="evenodd" clip-rule="evenodd" d="M11.25 10.6V5.136c0-1.484 1.73-2.294 2.87-1.344l3.332 2.776a1.75 1.75 0 0 1-.15 2.8l-3.95 2.633 3.95 2.633a1.75 1.75 0 0 1 .15 2.8L14.12 20.21c-1.14.95-2.87.14-2.87-1.344v-5.463l-4.835 3.222a.75.75 0 0 1-.832-1.248l5.064-3.376-5.064-3.376a.75.75 0 1 1 .832-1.248L11.25 10.6Zm1.91-5.656a.25.25 0 0 0-.41.192V10.6l3.72-2.48a.25.25 0 0 0 .021-.4l-3.33-2.776Zm-.41 8.459v5.463a.25.25 0 0 0 .41.192l3.331-2.776a.25.25 0 0 0-.021-.4l-3.72-2.48Z" fill="#868686"/>
    <path d="M18.415 10.587 19.829 12l-1.415 1.414L17 12.001l1.415-1.414ZM7 12.001l-1.414-1.414L4.172 12l1.414 1.414L7 12.001Z" fill="#868686"/>
</svg>
