<svg width="24" height="24" fill="none" xmlns="http://www.w3.org/2000/svg">
    <path d="M14 17a2 2 0 1 0-4 0 2 2 0 0 0 4 0Z" fill="#868686"/>
    <path fill-rule="evenodd" clip-rule="evenodd" d="M8.25 5a3.75 3.75 0 1 1 7.5 0v7.641a5.75 5.75 0 1 1-7.5 0V5ZM12 2.75A2.25 2.25 0 0 0 9.75 5v8a.75.75 0 0 1-.3.6 4.25 4.25 0 1 0 5.1 0 .75.75 0 0 1-.3-.6V5A2.25 2.25 0 0 0 12 2.75ZM17.25 4a.75.75 0 0 1 .75-.75h4a.75.75 0 0 1 0 1.5h-4a.75.75 0 0 1-.75-.75ZM12 12.25a.75.75 0 0 1 .75.75v4a.75.75 0 0 1-1.5 0v-4a.75.75 0 0 1 .75-.75Z" fill="#868686"/>
</svg>
