<svg width="24" height="24" fill="none" xmlns="http://www.w3.org/2000/svg">
    <path fill-rule="evenodd" clip-rule="evenodd" d="M12 2.75c-.69 0-1.25.56-1.25 1.25v.284a22.998 22.998 0 0 1 2.5 0V4c0-.69-.56-1.25-1.25-1.25Zm2.75 1.666V4a2.75 2.75 0 1 0-5.5 0v.416c-2.385.29-4.613.952-6.578 1.91a.75.75 0 1 0 .657 1.348C5.82 6.46 8.796 5.75 12 5.75c3.204 0 6.18.71 8.672 1.924a.75.75 0 1 0 .657-1.348c-1.966-.958-4.194-1.62-6.579-1.91ZM4.943 8.252a.75.75 0 0 1 .805.69l.716 9.307a3.25 3.25 0 0 0 3.24 3.001h4.592a3.25 3.25 0 0 0 3.24-3l.716-9.308a.75.75 0 1 1 1.496.116l-.716 9.306a4.75 4.75 0 0 1-4.736 4.386H9.704a4.75 4.75 0 0 1-4.736-4.386l-.716-9.306a.75.75 0 0 1 .69-.806ZM10 10.25a.75.75 0 0 1 .75.75v6a.75.75 0 0 1-1.5 0v-6a.75.75 0 0 1 .75-.75Zm4 0a.75.75 0 0 1 .75.75v6a.75.75 0 0 1-1.5 0v-6a.75.75 0 0 1 .75-.75Z" fill="#868686"/>
</svg>
