<svg width="24" height="24" fill="none" xmlns="http://www.w3.org/2000/svg">
    <path fill-rule="evenodd" clip-rule="evenodd" d="M14.031 3.38a3.593 3.593 0 0 0-4.062 0L3.58 7.812c-1.006.698-1.11 2.061-.242 2.89a3.36 3.36 0 0 1 1.051 2.43v4.878c0 1.756 1.503 3.239 3.43 3.239h8.361c1.928 0 3.43-1.483 3.43-3.24v-4.877a3.36 3.36 0 0 1 1.053-2.43c.867-.829.763-2.192-.243-2.89L14.031 3.38ZM9.114 2.146a5.093 5.093 0 0 1 5.772 0l6.39 4.434c1.774 1.232 1.987 3.714.422 5.206a1.86 1.86 0 0 0-.587 1.346v4.878c0 2.65-2.241 4.739-4.93 4.739H7.82c-2.69 0-4.93-2.09-4.93-4.74v-4.877a1.86 1.86 0 0 0-.588-1.346C.738 10.295.95 7.813 2.725 6.581l6.389-4.434Zm3.366 6.277L12 9l-.48-.576a.75.75 0 0 1 .96 0ZM12 10.009l-.03.029c-.314.299-.731.72-1.146 1.213-.417.495-.819 1.047-1.113 1.606-.298.566-.46 1.09-.46 1.543 0 1.04.377 1.73.874 2.17.514.453 1.205.68 1.875.68.67 0 1.361-.227 1.875-.68.498-.44.875-1.13.875-2.17 0-.453-.162-.977-.46-1.543-.295-.559-.697-1.11-1.114-1.606A15.361 15.361 0 0 0 12 10.009Zm-.48-1.585L12 9l.48-.576.002.001.003.002.009.008.033.029.12.104a16.856 16.856 0 0 1 1.677 1.717c.458.544.931 1.187 1.293 1.873.358.68.633 1.452.633 2.242 0 1.445-.544 2.554-1.382 3.294-.822.726-1.88 1.056-2.868 1.056-.987 0-2.045-.33-2.867-1.056-.839-.74-1.383-1.849-1.383-3.294 0-.79.275-1.562.633-2.242.362-.686.835-1.329 1.293-1.873a16.84 16.84 0 0 1 1.797-1.821l.033-.029.01-.008.003-.002.001-.001Z" fill="#868686"/>
</svg>
