<svg width="24" height="24" fill="none" xmlns="http://www.w3.org/2000/svg">
    <path fill-rule="evenodd" clip-rule="evenodd" d="M16.65 2.484a.75.75 0 0 1 .186.688 3.25 3.25 0 0 0 4.766 3.577.75.75 0 0 1 1.117.575 5.733 5.733 0 0 1-1.628 4.637A5.75 5.75 0 0 1 17 21.75H9.001a7.75 7.75 0 1 1 2.396-15.123 5.757 5.757 0 0 1 4.577-4.366.75.75 0 0 1 .678.222Zm-3.847 4.762a7.783 7.783 0 0 1 3.044 3.12 5.765 5.765 0 0 1 4.049.665 4.24 4.24 0 0 0 1.313-2.516 4.75 4.75 0 0 1-5.957-4.47 4.256 4.256 0 0 0-2.449 3.2Zm1.606 3.62a6.28 6.28 0 0 0-2.726-2.512A6.25 6.25 0 1 0 9 20.25h8a4.25 4.25 0 1 0-2.975-7.285.75.75 0 0 1-1.05-1.071c.42-.412.903-.76 1.434-1.028Z" fill="#868686"/>
</svg>
