<svg width="24" height="24" fill="none" xmlns="http://www.w3.org/2000/svg">
    <path d="M14.401 3.45 16.314 6H7.689L9.6 3.45a.75.75 0 1 0-1.2-.9L5.806 6.01a4.005 4.005 0 0 0-3.634 3.24H21.83a4.005 4.005 0 0 0-3.634-3.24L15.6 2.55a.75.75 0 0 0-1.2.9Z" fill="#868686"/>
    <path fill-rule="evenodd" clip-rule="evenodd" d="M21.828 10.75H2.174c.013.068.028.136.045.205l1.967 8A4 4 0 0 0 8.07 22h7.862a4 4 0 0 0 3.885-3.045l1.966-8a4.08 4.08 0 0 0 .045-.205Zm-9.827 1.5a.75.75 0 0 1 .75.75v2.25h2.25a.75.75 0 0 1 0 1.5h-2.25V19a.75.75 0 0 1-1.5 0v-2.25h-2.25a.75.75 0 0 1 0-1.5h2.25V13a.75.75 0 0 1 .75-.75Z" fill="#868686"/>
</svg>
