<svg width="24" height="24" fill="none" xmlns="http://www.w3.org/2000/svg">
    <path d="M21.021 9.893a6.478 6.478 0 0 0-4.781-1.349 8.53 8.53 0 0 0-3.925-3.373 5.014 5.014 0 0 1 3.054-2.978c.34-.118.65.202.634.562a4 4 0 0 0 5.502 3.873c.228-.092.495.047.495.293a4.978 4.978 0 0 1-.979 2.972ZM3.663 17.53a7 7 0 1 1 11.775-7.281A4.994 4.994 0 0 1 17 10c1.102 0 2.12.357 2.947.96A4.993 4.993 0 0 1 22 15a4.985 4.985 0 0 1-1.5 3.572V18.5c0-.596-.196-1.127-.388-1.519-.2-.405-.45-.77-.674-1.06a9.285 9.285 0 0 0-.822-.929l-.094-.09a1.5 1.5 0 0 0-2.044 0l-.094.09a9.285 9.285 0 0 0-.822.928c-.224.291-.475.656-.674 1.061-.192.392-.388.923-.388 1.519 0 .095.003.191.01.286a6.7 6.7 0 0 0-.572-.866 9.285 9.285 0 0 0-.822-.928l-.094-.09a1.5 1.5 0 0 0-2.044 0l-.094.09a9.285 9.285 0 0 0-.822.928 6.701 6.701 0 0 0-.572.866c.007-.095.01-.19.01-.286 0-.596-.196-1.127-.388-1.519-.2-.405-.45-.77-.674-1.06a9.286 9.286 0 0 0-.822-.929l-.094-.09a1.5 1.5 0 0 0-2.044 0l-.094.09a9.286 9.286 0 0 0-.822.928c-.224.291-.474.656-.674 1.061a4.23 4.23 0 0 0-.225.548Z" fill="#868686"/>
    <path d="M12 22c.828 0 1.5-.395 1.5-1.5 0-1.104-1.5-2.5-1.5-2.5s-1.5 1.396-1.5 2.5c0 1.105.672 1.5 1.5 1.5ZM19 18.5c0 1.105-.672 1.5-1.5 1.5s-1.5-.395-1.5-1.5c0-1.104 1.5-2.5 1.5-2.5s1.5 1.396 1.5 2.5ZM6.5 20c.828 0 1.5-.395 1.5-1.5C8 17.396 6.5 16 6.5 16S5 17.396 5 18.5c0 1.105.672 1.5 1.5 1.5Z" fill="#868686"/>
</svg>
