<svg width="24" height="24" fill="none" xmlns="http://www.w3.org/2000/svg">
    <path d="M18.19 6.003 15.6 2.55a.75.75 0 0 0-1.2.9L16.314 6H7.688l1.913-2.55a.75.75 0 1 0-1.2-.9L5.81 6.003c-1.898.073-3.406 1.478-3.74 3.247h19.86c-.334-1.769-1.842-3.174-3.74-3.247Z" fill="#868686"/>
    <path fill-rule="evenodd" clip-rule="evenodd" d="M20.283 18.808A3.973 3.973 0 0 1 16.4 22h-8.8a3.972 3.972 0 0 1-3.882-3.192l-1.635-8a4.24 4.24 0 0 1-.011-.058h19.856l-.011.058-1.635 8ZM9 13.25a.75.75 0 0 1 .75.75v4a.75.75 0 0 1-1.5 0v-4a.75.75 0 0 1 .75-.75Zm6.75.75a.75.75 0 0 0-1.5 0v4a.75.75 0 0 0 1.5 0v-4Z" fill="#868686"/>
</svg>
