<svg width="24" height="24" fill="none" xmlns="http://www.w3.org/2000/svg">
    <path fill-rule="evenodd" clip-rule="evenodd" d="M14.053 3.488a3.225 3.225 0 0 0-4.106 0l-5 4.117A3.296 3.296 0 0 0 3.75 10.15v7.817c0 1.819 1.46 3.283 3.25 3.283h10c1.79 0 3.25-1.464 3.25-3.283V10.15c0-.988-.44-1.922-1.197-2.545l-5-4.117ZM8.993 2.33a4.725 4.725 0 0 1 6.014 0l5 4.118a4.796 4.796 0 0 1 1.743 3.702v7.817c0 2.636-2.12 4.783-4.75 4.783H7c-2.63 0-4.75-2.147-4.75-4.783V10.15c0-1.433.639-2.793 1.743-3.702l5-4.118Zm-2.328 8a.75.75 0 0 1 1.006.335l2.105 4.21a.25.25 0 0 0 .448 0l1.21-2.422c.646-1.29 2.486-1.29 3.131 0L16 15.323l.33-.658a.75.75 0 1 1 1.34.67l-1 2a.75.75 0 0 1-.67.415h-2a.75.75 0 0 1 0-1.5h.787l-1.563-3.126a.25.25 0 0 0-.448 0l-1.21 2.423c-.646 1.29-2.486 1.29-3.131 0l-2.106-4.212a.75.75 0 0 1 .336-1.006Z" fill="#868686"/>
</svg>
