<svg width="24" height="24" fill="none" xmlns="http://www.w3.org/2000/svg">
    <path fill-rule="evenodd" clip-rule="evenodd" d="M12 8.75a.75.75 0 1 0 0 1.5.75.75 0 0 0 0-1.5Zm-2.25.75a2.25 2.25 0 1 1 4.5 0 2.25 2.25 0 0 1-4.5 0Z" fill="#868686"/>
    <path fill-rule="evenodd" clip-rule="evenodd" d="M12 2.75c-4.565 0-8.25 3.653-8.25 8.139 0 2.204 1.285 4.814 3.057 6.912.877 1.038 1.843 1.915 2.775 2.526.946.622 1.784.923 2.418.923.634 0 1.472-.3 2.418-.923.932-.611 1.899-1.488 2.775-2.526 1.772-2.098 3.057-4.708 3.057-6.912 0-4.486-3.685-8.139-8.25-8.139Zm-9.75 8.139C2.25 5.557 6.624 1.25 12 1.25s9.75 4.307 9.75 9.639c0 2.705-1.528 5.65-3.411 7.88-.952 1.127-2.024 2.108-3.097 2.812-1.058.695-2.188 1.169-3.242 1.169-1.054 0-2.185-.474-3.242-1.169-1.072-.704-2.145-1.685-3.097-2.812-1.883-2.23-3.411-5.175-3.411-7.88Z" fill="#868686"/>
    <path fill-rule="evenodd" clip-rule="evenodd" d="M12 6.75a4.25 4.25 0 0 0-3.107 7.15A3.745 3.745 0 0 1 12 12.25c1.294 0 2.433.655 3.107 1.65A4.25 4.25 0 0 0 12 6.75Zm1.904 8.05a2.25 2.25 0 0 0-3.808 0 4.23 4.23 0 0 0 1.904.45 4.23 4.23 0 0 0 1.904-.45ZM6.25 11a5.75 5.75 0 1 1 11.5 0 5.75 5.75 0 0 1-11.5 0Z" fill="#868686"/>
</svg>
