<svg width="24" height="24" fill="none" xmlns="http://www.w3.org/2000/svg">
    <path d="M13 17a1 1 0 1 1-2 0 1 1 0 0 1 2 0Z" fill="#868686"/>
    <path fill-rule="evenodd" clip-rule="evenodd" d="M1.25 12c0-5.385 4.365-9.75 9.75-9.75h2c5.385 0 9.75 4.365 9.75 9.75s-4.365 9.75-9.75 9.75H6A4.75 4.75 0 0 1 1.25 17v-5ZM11 3.75A8.25 8.25 0 0 0 2.75 12v5A3.25 3.25 0 0 0 6 20.25h7a8.25 8.25 0 1 0 0-16.5h-2Zm1 3A2.25 2.25 0 0 0 9.75 9a.75.75 0 0 1-1.5 0 3.75 3.75 0 1 1 4.977 3.544.92.92 0 0 0-.375.237c-.081.09-.102.163-.102.219v1a.75.75 0 0 1-1.5 0v-1c0-1.002.808-1.638 1.486-1.873A2.251 2.251 0 0 0 12 6.75Z" fill="#868686"/>
</svg>
