<svg width="24" height="24" fill="none" xmlns="http://www.w3.org/2000/svg">
    <path fill-rule="evenodd" clip-rule="evenodd" d="M14.652 3.25a3.402 3.402 0 0 0-3.402 3.402v.124c0 .8.273 1.578.773 2.203l2.83 3.537a2.75 2.75 0 0 0 4.294 0l2.83-3.537c.5-.625.773-1.402.773-2.203v-.124a3.402 3.402 0 0 0-3.402-3.402h-.297c-.712 0-1.394.283-1.898.786a.217.217 0 0 1-.306 0 2.684 2.684 0 0 0-1.898-.786h-.297ZM12.75 6.652c0-1.05.851-1.902 1.902-1.902h.297c.314 0 .615.125.837.347.67.67 1.758.67 2.428 0 .222-.222.523-.347.837-.347h.297c1.05 0 1.902.851 1.902 1.902v.124c0 .46-.157.907-.444 1.266l-2.83 3.537a1.25 1.25 0 0 1-1.952 0l-2.83-3.537a2.026 2.026 0 0 1-.444-1.266v-.124Z" fill="#868686"/>
    <path d="M1.25 8A.75.75 0 0 1 2 7.25h2a.75.75 0 0 1 .3.063l6.263 2.74a2.661 2.661 0 0 1 1.345 3.563l2.16 1.08a5.25 5.25 0 0 0 2.349.554H18a2.75 2.75 0 0 1 0 5.5H9.89a8.75 8.75 0 0 1-3.913-.923L1.665 17.67a.75.75 0 0 1 .67-1.341l4.311 2.155a7.25 7.25 0 0 0 3.243.765H18a1.25 1.25 0 0 0 0-2.5h-1.583a6.75 6.75 0 0 1-3.02-.712l-2.53-1.266a2.657 2.657 0 0 1-2.419.165l-1.743-.748a.75.75 0 0 1 .59-1.378l1.744.747a1.161 1.161 0 0 0 .923-2.131L3.843 8.75H2A.75.75 0 0 1 1.25 8Z" fill="#868686"/>
</svg>
