<svg width="24" height="24" fill="none" xmlns="http://www.w3.org/2000/svg">
    <path fill-rule="evenodd" clip-rule="evenodd" d="M6.25 9A2.75 2.75 0 0 1 9 6.25h6A2.75 2.75 0 0 1 17.75 9v6A2.75 2.75 0 0 1 15 17.75H9A2.75 2.75 0 0 1 6.25 15V9ZM9 7.75c-.69 0-1.25.56-1.25 1.25v6c0 .69.56 1.25 1.25 1.25h6c.69 0 1.25-.56 1.25-1.25V9c0-.69-.56-1.25-1.25-1.25H9Z" fill="#868686"/>
    <path fill-rule="evenodd" clip-rule="evenodd" d="M13.75 10a.75.75 0 0 1-.75.75h-2a.75.75 0 0 1 0-1.5h2a.75.75 0 0 1 .75.75Z" fill="#868686"/>
    <path fill-rule="evenodd" clip-rule="evenodd" d="M12 2.75A9.25 9.25 0 0 0 2.75 12a.75.75 0 0 1-1.5 0C1.25 6.063 6.063 1.25 12 1.25c3.518 0 6.64 1.69 8.6 4.3a.75.75 0 1 1-1.199.9A9.235 9.235 0 0 0 12 2.75Zm10 8.5a.75.75 0 0 1 .75.75c0 5.937-4.813 10.75-10.75 10.75-3.517 0-6.64-1.69-8.6-4.3a.75.75 0 1 1 1.199-.9A9.25 9.25 0 0 0 21.25 12a.75.75 0 0 1 .75-.75Z" fill="#868686"/>
    <path fill-rule="evenodd" clip-rule="evenodd" d="M4.237 17.289a.75.75 0 0 1 .475.948l-1 3a.75.75 0 0 1-1.423-.474l1-3a.75.75 0 0 1 .948-.474ZM21.237 2.289a.75.75 0 0 1 .475.948l-1 3a.75.75 0 1 1-1.423-.474l1-3a.75.75 0 0 1 .948-.474Z" fill="#868686"/>
</svg>
