<svg width="24" height="24" fill="none" xmlns="http://www.w3.org/2000/svg">
    <path fill-rule="evenodd" clip-rule="evenodd" d="M6.25 6A3.75 3.75 0 0 1 10 2.25h4A3.75 3.75 0 0 1 17.75 6v12A3.75 3.75 0 0 1 14 21.75h-4A3.75 3.75 0 0 1 6.25 18V6ZM10 3.75A2.25 2.25 0 0 0 7.75 6v12A2.25 2.25 0 0 0 10 20.25h4A2.25 2.25 0 0 0 16.25 18V6A2.25 2.25 0 0 0 14 3.75h-4Zm-7 .5a.75.75 0 0 1 .75.75v14a.75.75 0 0 1-1.5 0V5A.75.75 0 0 1 3 4.25Zm18 0a.75.75 0 0 1 .75.75v14a.75.75 0 0 1-1.5 0V5a.75.75 0 0 1 .75-.75Z" fill="#868686"/>
</svg>
