<svg width="24" height="24" fill="none" xmlns="http://www.w3.org/2000/svg">
    <path fill-rule="evenodd" clip-rule="evenodd" d="M7 2.75a1.25 1.25 0 1 0 0 2.5h10a1.25 1.25 0 1 0 0-2.5H7Zm10.98 3.82A2.751 2.751 0 0 0 17 1.25H7a2.75 2.75 0 0 0-.98 5.32l-1.449 4.506a4.695 4.695 0 0 0 .57 4.456l.016.021 5.298 6.432c.75 1.02 2.34 1.02 3.09 0l5.298-6.431.015-.022a4.695 4.695 0 0 0 .57-4.456L17.98 6.57Zm-1.518.18H7.539l-1.555 4.831-.009.023a3.194 3.194 0 0 0 .374 3.037l4.901 5.95v-5.945A2.751 2.751 0 0 1 12 9.25a2.75 2.75 0 0 1 .75 5.396v5.945l4.901-5.95c.638-.909.772-2.03.374-3.037l-.01-.023-1.553-4.831Zm-4.462 4a1.25 1.25 0 1 0 0 2.5 1.25 1.25 0 0 0 0-2.5Z" fill="#868686"/>
</svg>
