<svg width="24" height="24" fill="none" xmlns="http://www.w3.org/2000/svg">
    <path fill-rule="evenodd" clip-rule="evenodd" d="M6 2.75A3.25 3.25 0 0 0 2.75 6v7.616l2.627 1.891a3.25 3.25 0 0 0 4.073-.221l4.096-3.687a4.75 4.75 0 0 1 5.953-.324l1.751 1.26V10a.75.75 0 1 1 1.5 0v8A4.75 4.75 0 0 1 18 22.75H6A4.75 4.75 0 0 1 1.25 18V6A4.75 4.75 0 0 1 6 1.25h8a.75.75 0 0 1 0 1.5H6ZM2.75 15.464V18A3.25 3.25 0 0 0 6 21.25h12A3.25 3.25 0 0 0 21.25 18v-3.616l-2.627-1.891a3.25 3.25 0 0 0-4.073.221l-4.096 3.687a4.75 4.75 0 0 1-5.953.324l-1.75-1.26ZM16.47 2.47a.75.75 0 0 1 1.06 0L19 3.94l1.47-1.47a.75.75 0 0 1 1.06 1.06L20.06 5l1.47 1.47a.75.75 0 1 1-1.06 1.06L19 6.06l-1.47 1.47a.75.75 0 0 1-1.06-1.06L17.94 5l-1.47-1.47a.75.75 0 0 1 0-1.06ZM8.5 6.75a1.75 1.75 0 1 0 0 3.5 1.75 1.75 0 0 0 0-3.5ZM5.25 8.5a3.25 3.25 0 1 1 6.5 0 3.25 3.25 0 0 1-6.5 0Z" fill="#868686"/>
</svg>
