<svg width="24" height="24" fill="none" xmlns="http://www.w3.org/2000/svg">
    <path fill-rule="evenodd" clip-rule="evenodd" d="M6.25 6A3.75 3.75 0 0 1 10 2.25h4A3.75 3.75 0 0 1 17.75 6v.25H19A2.75 2.75 0 0 1 21.75 9v6A2.75 2.75 0 0 1 19 17.75h-1.25V18A3.75 3.75 0 0 1 14 21.75h-4A3.75 3.75 0 0 1 6.25 18v-.25H5A2.75 2.75 0 0 1 2.25 15V9A2.75 2.75 0 0 1 5 6.25h1.25V6Zm1.5 1v11A2.25 2.25 0 0 0 10 20.25h4A2.25 2.25 0 0 0 16.25 18V6A2.25 2.25 0 0 0 14 3.75h-4A2.25 2.25 0 0 0 7.75 6v1Zm-1.5.75H5c-.69 0-1.25.56-1.25 1.25v6c0 .69.56 1.25 1.25 1.25h1.25v-8.5Zm11.5 8.5H19c.69 0 1.25-.56 1.25-1.25V9c0-.69-.56-1.25-1.25-1.25h-1.25v8.5Z" fill="#868686"/>
</svg>
