<svg width="24" height="24" fill="none" xmlns="http://www.w3.org/2000/svg">
    <path fill-rule="evenodd" clip-rule="evenodd" d="M7.25 2.753c0-.838.7-1.596 1.63-1.494.481.053 1.11.165 1.736.341.46.13.949.303 1.384.53a7.34 7.34 0 0 1 1.384-.53 11.147 11.147 0 0 1 1.736-.34c.93-.103 1.63.655 1.63 1.493V4.25H19A2.75 2.75 0 0 1 21.75 7v10A2.75 2.75 0 0 1 19 19.75h-6.25v1.5H15a.75.75 0 0 1 0 1.5H9a.75.75 0 0 1 0-1.5h2.25v-1.5H5A2.75 2.75 0 0 1 2.25 17V7A2.75 2.75 0 0 1 5 4.25h2.25V2.753Zm0 2.997H5c-.69 0-1.25.56-1.25 1.25v10c0 .69.56 1.25 1.25 1.25h14c.69 0 1.25-.56 1.25-1.25V7c0-.69-.56-1.25-1.25-1.25h-2.25v1.384c0 .869-.695 1.505-1.466 1.59a9.1 9.1 0 0 0-1.486.305c-.55.161-1.044.365-1.376.591a.75.75 0 0 1-.844 0c-.332-.226-.825-.43-1.376-.591a9.1 9.1 0 0 0-1.486-.305c-.771-.085-1.466-.721-1.466-1.59V5.75Zm8-2.996a9.691 9.691 0 0 0-1.46.29c-.389.11-.747.24-1.04.387v4.366c.21-.079.42-.147.626-.208a10.59 10.59 0 0 1 1.744-.356.174.174 0 0 0 .105-.05c.023-.023.025-.04.025-.05V2.755Zm-4 5.043a10.59 10.59 0 0 0-2.37-.564.175.175 0 0 1-.105-.05c-.022-.023-.025-.04-.025-.05V2.755c.402.046.934.142 1.46.29.389.11.747.24 1.04.387v4.366Z" fill="#868686"/>
</svg>
