<svg width="24" height="24" fill="none" xmlns="http://www.w3.org/2000/svg">
    <path fill-rule="evenodd" clip-rule="evenodd" d="M1.22 1.47a.75.75 0 0 0 0 1.06l20 20a.75.75 0 1 0 1.06-1.06l-20-20a.75.75 0 0 0-1.06 0Z" fill="#868686"/>
    <path fill-rule="evenodd" clip-rule="evenodd" d="M1.22 1.47a.75.75 0 0 1 1.06 0l14.193 14.192-.093.405a4.751 4.751 0 0 1-4.63 3.683h-6A4.75 4.75 0 0 1 1 15V9a4.748 4.748 0 0 1 2.503-4.186L1.22 2.53a.75.75 0 0 1 0-1.06Zm3.415 4.476A3.252 3.252 0 0 0 2.5 9v6a3.25 3.25 0 0 0 3.25 3.25h6c1.403 0 2.6-.89 3.054-2.135L4.635 5.946ZM8 5a.75.75 0 0 1 .75-.75h3a4.752 4.752 0 0 1 4.597 3.55l1.576-1.402c1.774-1.576 4.577-.317 4.577 2.056v7.092c0 .963-.47 1.754-1.145 2.235a.75.75 0 0 1-.87-1.222c.306-.218.515-.566.515-1.013V8.454c0-1.079-1.274-1.651-2.08-.935L16.5 9.67V12a.75.75 0 0 1-1.5 0V9a3.25 3.25 0 0 0-3.25-3.25h-3A.75.75 0 0 1 8 5Z" fill="#868686"/>
</svg>
