<svg width="24" height="24" fill="none" xmlns="http://www.w3.org/2000/svg">
    <path fill-rule="evenodd" clip-rule="evenodd" d="M11.25 2a.75.75 0 0 1 .75-.75c5.937 0 10.75 4.813 10.75 10.75a.75.75 0 0 1-1.5 0A9.25 9.25 0 0 0 12 2.75a.75.75 0 0 1-.75-.75ZM12 11.25a.75.75 0 1 0 0 1.5.75.75 0 0 0 0-1.5ZM9.75 12a2.25 2.25 0 1 1 4.5 0 2.25 2.25 0 0 1-4.5 0Z" fill="#868686"/>
    <path fill-rule="evenodd" clip-rule="evenodd" d="M12 5.25a.75.75 0 0 0-.75.75v4.5a.75.75 0 0 0 1.5 0V6a.75.75 0 0 0-.75-.75ZM16.75 12a.75.75 0 0 0-.75-.75h-2.5a.75.75 0 0 0 0 1.5H16a.75.75 0 0 0 .75-.75Z" fill="#868686"/>
</svg>
