<svg width="24" height="24" fill="none" xmlns="http://www.w3.org/2000/svg">
    <path fill-rule="evenodd" clip-rule="evenodd" d="M8 1.25a.75.75 0 0 1 .75.75v3a.75.75 0 0 1-1.5 0V2A.75.75 0 0 1 8 1.25ZM16 1.25a.75.75 0 0 1 .75.75v3a.75.75 0 0 1-1.5 0V2a.75.75 0 0 1 .75-.75Z" fill="#868686"/>
    <path fill-rule="evenodd" clip-rule="evenodd" d="M2.25 7.5A4.75 4.75 0 0 1 7 2.75h10a4.75 4.75 0 0 1 4.75 4.75V18A4.75 4.75 0 0 1 17 22.75H7A4.75 4.75 0 0 1 2.25 18V7.5ZM7 4.25A3.25 3.25 0 0 0 3.75 7.5V18A3.25 3.25 0 0 0 7 21.25h10A3.25 3.25 0 0 0 20.25 18V7.5A3.25 3.25 0 0 0 17 4.25H7Z" fill="#868686"/>
    <path fill-rule="evenodd" clip-rule="evenodd" d="M15.75 15a.75.75 0 0 1-.75.75H9a.75.75 0 0 1 0-1.5h6a.75.75 0 0 1 .75.75ZM21.75 9a.75.75 0 0 1-.75.75H3a.75.75 0 0 1 0-1.5h18a.75.75 0 0 1 .75.75Z" fill="#868686"/>
</svg>
