<svg width="24" height="24" fill="none" xmlns="http://www.w3.org/2000/svg">
    <path fill-rule="evenodd" clip-rule="evenodd" d="M2.25 7A4.75 4.75 0 0 1 7 2.25h10A4.75 4.75 0 0 1 21.75 7v1.063a.75.75 0 0 1-1.5 0V7A3.25 3.25 0 0 0 17 3.75H7A3.25 3.25 0 0 0 3.75 7v10A3.25 3.25 0 0 0 7 20.25h1.625a.75.75 0 0 1 0 1.5H7A4.75 4.75 0 0 1 2.25 17V7ZM15 9.75a5.25 5.25 0 1 0 0 10.5 5.25 5.25 0 0 0 0-10.5ZM8.25 15a6.75 6.75 0 1 1 12.024 4.213l1.256 1.257a.75.75 0 1 1-1.06 1.06l-1.257-1.256A6.75 6.75 0 0 1 8.25 15Z" fill="#868686"/>
</svg>
