<svg width="24" height="24" fill="none" xmlns="http://www.w3.org/2000/svg">
    <path fill-rule="evenodd" clip-rule="evenodd" d="M6.803 7.25h2.462c.057-1.424.274-2.723.61-3.73.043-.13.089-.257.137-.38a5.256 5.256 0 0 0-3.209 4.11Zm5.197-6a6.75 6.75 0 0 0-.75 13.459v1.669a2.256 2.256 0 0 0-1.372 1.372H4a.75.75 0 0 0 0 1.5h5.878c.226.64.733 1.146 1.372 1.372V22a.75.75 0 0 0 1.5 0v-1.378a2.257 2.257 0 0 0 1.372-1.372H20a.75.75 0 0 0 0-1.5h-5.878a2.257 2.257 0 0 0-1.372-1.372v-1.67A6.751 6.751 0 0 0 12 1.25Zm0 1.505a.646.646 0 0 0-.19.18c-.165.21-.346.56-.513 1.06-.277.832-.475 1.965-.53 3.255h2.467c-.056-1.29-.254-2.423-.531-3.255-.167-.5-.348-.85-.514-1.06a.646.646 0 0 0-.189-.18Zm2.735 4.495c-.057-1.424-.274-2.723-.61-3.73a7.416 7.416 0 0 0-.137-.38 5.256 5.256 0 0 1 3.209 4.11h-2.462Zm-1.501 1.5h-2.468c.056 1.29.254 2.423.531 3.255.167.5.348.85.514 1.06.096.122.16.165.189.18a.644.644 0 0 0 .19-.18c.165-.21.346-.56.513-1.06.277-.832.475-1.965.53-3.255Zm-3.222 4.11a7.505 7.505 0 0 1-.138-.38c-.335-1.007-.552-2.306-.61-3.73h-2.46a5.256 5.256 0 0 0 3.208 4.11Zm3.976 0a7.41 7.41 0 0 0 .138-.38c.335-1.007.552-2.306.61-3.73h2.46a5.256 5.256 0 0 1-3.208 4.11ZM12 17.75a.75.75 0 1 0 0 1.5.75.75 0 0 0 0-1.5Z" fill="#868686"/>
</svg>
