<svg width="24" height="24" fill="none" xmlns="http://www.w3.org/2000/svg">
    <g clip-path="url(#a)" fill-rule="evenodd" clip-rule="evenodd" fill="#868686">
        <path d="M1.75 10.625C1.75 4.903 6.329.25 12 .25s10.25 4.653 10.25 10.375c0 5.168-3.903 9.975-9.62 12.898a.948.948 0 0 1-1.38-.845v-2.165c-5.049-.388-9.5-4.651-9.5-9.888ZM12 1.75c-4.824 0-8.75 3.963-8.75 8.875 0 4.527 4.038 8.314 8.566 8.415a.954.954 0 0 1 .934.952v1.765c4.972-2.795 8-6.967 8-11.132 0-4.912-3.926-8.875-8.75-8.875Z"/>
        <path d="M7.511 8.75v2.192h1.03a.95.95 0 0 1 .95.95v.98c.039-.036.078-.075.116-.117.257-.287.405-.625.405-.947V8.75h-2.5Zm-1.5-.55a.95.95 0 0 1 .95-.95h3.6a.95.95 0 0 1 .95.95v3.608c0 .774-.345 1.456-.789 1.95-.438.487-1.04.866-1.663.966-.645.104-1.068-.437-1.068-.924v-1.358H6.96a.95.95 0 0 1-.95-.95V8.2Zm7.978.55v2.192h1.029a.95.95 0 0 1 .95.95v.98c.04-.036.078-.075.116-.117.257-.287.404-.625.404-.947V8.75h-2.5Zm-1.5-.55a.95.95 0 0 1 .95-.95h3.6a.95.95 0 0 1 .95.95v3.608c0 .774-.346 1.456-.79 1.95-.438.487-1.04.866-1.663.966-.645.104-1.068-.437-1.068-.924v-1.358h-1.03a.95.95 0 0 1-.95-.95V8.2Z"/>
    </g>
    <defs>
        <clipPath id="a">
            <path fill="#fff" d="M0 0h24v24H0z"/>
        </clipPath>
    </defs>
</svg>
