<svg width="24" height="24" fill="none" xmlns="http://www.w3.org/2000/svg">
    <path fill-rule="evenodd" clip-rule="evenodd" d="M6 4h12a4 4 0 0 1 4 4v5a1 1 0 0 1-1 1h-3a4 4 0 0 0-4 4v1a1 1 0 0 1-1 1H6a4 4 0 0 1-4-4V8a4 4 0 0 1 4-4Zm0 3a1 1 0 1 1 0 2 1 1 0 0 1 0-2Zm8 5a2 2 0 1 0-4 0 2 2 0 0 0 4 0Z" fill="#868686"/>
    <path d="m17.53 18.116.72-.72V20a.75.75 0 0 0 1.5 0v-2.604l.72.72a.75.75 0 1 0 1.06-1.06l-1.293-1.293a1.75 1.75 0 0 0-2.474 0l-1.293 1.292a.75.75 0 1 0 1.06 1.061Z" fill="#868686"/>
</svg>
