<svg width="24" height="24" fill="none" xmlns="http://www.w3.org/2000/svg">
    <path fill-rule="evenodd" clip-rule="evenodd" d="M14.053 3.488a3.225 3.225 0 0 0-4.106 0l-5 4.117A3.296 3.296 0 0 0 3.75 10.15v7.817c0 1.819 1.46 3.283 3.25 3.283h10c1.79 0 3.25-1.464 3.25-3.283V10.15c0-.988-.44-1.922-1.197-2.545l-5-4.117ZM8.993 2.33a4.725 4.725 0 0 1 6.014 0l5 4.118a4.796 4.796 0 0 1 1.743 3.702v7.817c0 2.636-2.12 4.783-4.75 4.783H7c-2.63 0-4.75-2.147-4.75-4.783V10.15c0-1.433.639-2.793 1.743-3.702l5-4.118ZM12 11.75c-1.33 0-2.596.872-3.478 1.7a.736.736 0 0 0 0 1.1c.882.828 2.147 1.7 3.478 1.7 1.33 0 2.597-.872 3.478-1.7a.736.736 0 0 0 0-1.1c-.881-.828-2.147-1.7-3.478-1.7Zm-4.505.606C8.44 11.47 10.07 10.25 12 10.25c1.93 0 3.56 1.22 4.505 2.106a2.236 2.236 0 0 1 0 3.288C15.56 16.53 13.93 17.75 12 17.75c-1.93 0-3.56-1.22-4.505-2.106a2.236 2.236 0 0 1 0-3.288Z" fill="#868686"/>
    <path d="M13 14a1 1 0 1 1-2 0 1 1 0 0 1 2 0Z" fill="#868686"/>
</svg>
