<svg width="24" height="24" fill="none" xmlns="http://www.w3.org/2000/svg">
    <path fill-rule="evenodd" clip-rule="evenodd" d="M3.25 5A3.75 3.75 0 0 1 7 1.25h10A3.75 3.75 0 0 1 20.75 5v11A3.75 3.75 0 0 1 17 19.75h-.25V22a.75.75 0 0 1-1.28.53L14 21.06l-1.47 1.47a.75.75 0 0 1-1.28-.53v-2.25H7A3.75 3.75 0 0 1 3.25 16V5Zm1.5 11A2.25 2.25 0 0 0 7 18.25h4.25V16a.75.75 0 0 1 .75-.75h4a.75.75 0 0 1 .75.75v2.25H17A2.25 2.25 0 0 0 19.25 16v-2.25H7A2.25 2.25 0 0 0 4.75 16Zm14.5-3.75H7c-.844 0-1.623.279-2.25.75V5A2.25 2.25 0 0 1 7 2.75h10A2.25 2.25 0 0 1 19.25 5v7.25ZM7.25 6A.75.75 0 0 1 8 5.25h8a.75.75 0 0 1 0 1.5H8A.75.75 0 0 1 7.25 6Zm0 3.5A.75.75 0 0 1 8 8.75h4a.75.75 0 0 1 0 1.5H8a.75.75 0 0 1-.75-.75Zm5.5 7.25v3.44l.72-.72a.75.75 0 0 1 1.06 0l.72.72v-3.44h-2.5Z" fill="#868686"/>
</svg>
