<svg width="24" height="24" fill="none" xmlns="http://www.w3.org/2000/svg">
    <path fill-rule="evenodd" clip-rule="evenodd" d="M12 2.75A9.25 9.25 0 1 0 21.25 12c0-1.14-.206-2.23-.582-3.237a.75.75 0 0 1 1.405-.526c.438 1.173.677 2.44.677 3.763 0 5.937-4.813 10.75-10.75 10.75S1.25 17.937 1.25 12 6.063 1.25 12 1.25c1.957 0 3.794.524 5.375 1.439a.75.75 0 1 1-.75 1.298A9.204 9.204 0 0 0 12 2.75Zm9.502.693a.75.75 0 0 1 .056 1.059l-7.738 8.597a2.75 2.75 0 0 1-3.762.308L6.53 10.586a.75.75 0 0 1 .938-1.172l3.526 2.822a1.25 1.25 0 0 0 1.71-.14l7.737-8.598a.75.75 0 0 1 1.06-.055Z" fill="#868686"/>
</svg>
