<svg width="24" height="24" fill="none" xmlns="http://www.w3.org/2000/svg">
    <path fill-rule="evenodd" clip-rule="evenodd" d="M16.25 6.003c0-1.029-1.176-1.617-2-1l-3.085 2.313a.75.75 0 1 1-.9-1.2l3.085-2.312c1.813-1.359 4.4-.067 4.4 2.199V13a.75.75 0 0 1-1.5 0V6.003ZM3.47 3.47a.75.75 0 0 1 1.06 0l16 16a.75.75 0 0 1-1.06 1.06l-1.812-1.811c-.477 1.8-2.698 2.685-4.308 1.478l-4.267-3.199a1.25 1.25 0 0 0-.75-.25H6A2.75 2.75 0 0 1 3.25 14v-3.998A2.75 2.75 0 0 1 6 7.252h.191L3.47 4.531a.75.75 0 0 1 0-1.061ZM7.69 8.752H6c-.69 0-1.25.56-1.25 1.25v3.997c0 .69.56 1.25 1.25 1.25h2.334a2.75 2.75 0 0 1 1.65.55l4.266 3.198c.824.618 2 .03 2-1v-.686L7.691 8.752Z" fill="#868686"/>
</svg>
