<svg width="24" height="24" fill="none" xmlns="http://www.w3.org/2000/svg">
    <path fill-rule="evenodd" clip-rule="evenodd" d="M7.25 6a4.75 4.75 0 0 1 9.5 0 .75.75 0 0 1-1.5 0 3.25 3.25 0 0 0-6.5 0 .75.75 0 0 1-1.5 0Z" fill="#868686"/>
    <path fill-rule="evenodd" clip-rule="evenodd" d="M3.819 9.41a4.75 4.75 0 0 1 4.713-4.16h6.938a4.75 4.75 0 0 1 4.713 4.16l1 8a4.75 4.75 0 0 1-4.713 5.34H7.532a4.75 4.75 0 0 1-4.713-5.34l1-8Zm4.713-2.66a3.25 3.25 0 0 0-3.225 2.847l-1 8a3.25 3.25 0 0 0 3.225 3.653h8.938a3.25 3.25 0 0 0 3.225-3.653l-1-8A3.25 3.25 0 0 0 15.47 6.75H8.532Z" fill="#868686"/>
    <path fill-rule="evenodd" clip-rule="evenodd" d="M15.653 15.632a.75.75 0 0 1-.285 1.022c-1.215.685-2.261 1.094-3.365 1.096-1.105.002-2.154-.404-3.374-1.098a.75.75 0 1 1 .742-1.304c1.136.647 1.911.903 2.63.902.718-.001 1.494-.262 2.63-.903a.75.75 0 0 1 1.022.285Z" fill="#868686"/>
</svg>
