<svg width="24" height="24" fill="none" xmlns="http://www.w3.org/2000/svg">
    <path fill-rule="evenodd" clip-rule="evenodd" d="M9.75 16H7.873A4 4 0 0 0 4.8 17.44l-1.067 1.28C2.647 20.022 3.573 22 5.269 22h13.46c1.696 0 2.622-1.978 1.537-3.28l-1.067-1.28A4 4 0 0 0 16.126 16h-1.877v1.5a2.25 2.25 0 0 1-4.5 0V16Z" fill="#868686"/>
    <path d="M12.75 17.5a.75.75 0 0 1-1.5 0l.004-14a2 2 0 0 1 2-2h5.382a1 1 0 0 1 .895 1.447l-1.053 2.106a1 1 0 0 0 0 .894l1.052 2.106a1 1 0 0 1-.894 1.447H12.75v8Z" fill="#868686"/>
</svg>
