<svg width="24" height="24" fill="none" xmlns="http://www.w3.org/2000/svg">
    <path d="M16.75 13.925v7.917c1.692-.456 3.539-1.724 4.528-2.472A1.86 1.86 0 0 0 22 17.875V8.206c0-.853-1.028-1.348-1.736-.872-.815.547-1.826 1.144-2.83 1.524v3.663a1.76 1.76 0 0 1-.684 1.403ZM12 20.393c-.986-.75-1.972-1.5-3.25-1.607V6.026c1.278.106 2.264.856 3.25 1.606.668.509 1.337 1.017 2.096 1.325v3.564c0 .773.484 1.428 1.154 1.654V22c-1.278-.107-2.264-.857-3.25-1.607ZM2.722 8.655c.99-.748 2.836-2.016 4.528-2.472v12.76c-1.217.329-2.514 1.076-3.514 1.748C3.028 21.167 2 20.672 2 19.82v-9.67c0-.585.255-1.141.722-1.494Z" fill="#868686"/>
    <path d="M15.188 2.648c0-.32.26-.58.58-.58h4.634a.58.58 0 0 1 .519.839l-.643 1.286.643 1.286a.58.58 0 0 1-.518.838h-4.056v6.245a.58.58 0 0 1-1.159 0V2.648Z" fill="#868686"/>
</svg>
