<svg width="24" height="24" fill="none" xmlns="http://www.w3.org/2000/svg">
    <path fill-rule="evenodd" clip-rule="evenodd" d="M14.053 3.488a3.225 3.225 0 0 0-4.106 0l-5 4.117A3.296 3.296 0 0 0 3.75 10.15v7.817c0 1.819 1.46 3.283 3.25 3.283h10c1.79 0 3.25-1.464 3.25-3.283V10.15c0-.988-.44-1.922-1.197-2.545l-5-4.117ZM8.993 2.33a4.725 4.725 0 0 1 6.014 0l5 4.118a4.796 4.796 0 0 1 1.743 3.702v7.817c0 2.636-2.12 4.783-4.75 4.783H7c-2.63 0-4.75-2.147-4.75-4.783V10.15c0-1.433.639-2.793 1.743-3.702l5-4.118ZM12 9.75c-.69 0-1.25.56-1.25 1.25v.25h2.5V11c0-.69-.56-1.25-1.25-1.25Zm2.75 1.604V11a2.75 2.75 0 1 0-5.5 0v.354a2.751 2.751 0 0 0-2 2.646v2A2.75 2.75 0 0 0 10 18.75h4A2.75 2.75 0 0 0 16.75 16v-2c0-1.259-.846-2.32-2-2.646ZM10 12.75c-.69 0-1.25.56-1.25 1.25v2c0 .69.56 1.25 1.25 1.25h4c.69 0 1.25-.56 1.25-1.25v-2c0-.69-.56-1.25-1.25-1.25h-4Z" fill="#868686"/>
</svg>
