<svg width="24" height="24" fill="none" xmlns="http://www.w3.org/2000/svg">
    <path fill-rule="evenodd" clip-rule="evenodd" d="M13.25 6A2.75 2.75 0 0 1 16 3.25h2A2.75 2.75 0 0 1 20.75 6v2A2.75 2.75 0 0 1 18 10.75h-2A2.75 2.75 0 0 1 13.25 8V6ZM16 4.75c-.69 0-1.25.56-1.25 1.25v2c0 .69.56 1.25 1.25 1.25h2c.69 0 1.25-.56 1.25-1.25V6c0-.69-.56-1.25-1.25-1.25h-2Zm-9.75.26c-.066.05-.127.106-.184.17L4.56 6.873a.75.75 0 1 1-1.122-.996l1.506-1.694a2.75 2.75 0 0 1 4.11 0l1.506 1.694-1.122.996L7.934 5.18a1.26 1.26 0 0 0-.184-.17v13.98a1.26 1.26 0 0 0 .184-.17l1.505-1.693a.75.75 0 0 1 1.122.996l-1.506 1.694a2.75 2.75 0 0 1-4.11 0l-1.506-1.694a.75.75 0 0 1 1.122-.996l1.505 1.693c.057.064.118.12.184.17V5.01Zm7 10.99A2.75 2.75 0 0 1 16 13.25h2A2.75 2.75 0 0 1 20.75 16v2A2.75 2.75 0 0 1 18 20.75h-2A2.75 2.75 0 0 1 13.25 18v-2ZM16 14.75c-.69 0-1.25.56-1.25 1.25v2c0 .69.56 1.25 1.25 1.25h2c.69 0 1.25-.56 1.25-1.25v-2c0-.69-.56-1.25-1.25-1.25h-2Z" fill="#868686"/>
</svg>
