<svg width="24" height="24" fill="none" xmlns="http://www.w3.org/2000/svg">
    <path fill-rule="evenodd" clip-rule="evenodd" d="M18 2a4 4 0 0 1 4 4v6a2 2 0 0 1-2 2h-5a2 2 0 0 0-2 2v4a2 2 0 0 1-2 2H6a4 4 0 0 1-4-4V6a4 4 0 0 1 4-4h12ZM8 7.586V3.5h8v4.086c0 .89-1.077 1.337-1.707.707l-1.586-1.586a1 1 0 0 0-1.414 0L9.707 8.293C9.077 8.923 8 8.477 8 7.586Z" fill="#868686"/>
    <path d="m18 17 .265-.265a1.875 1.875 0 1 1 2.652 2.652l-1.856 1.856a1.5 1.5 0 0 1-2.122 0l-1.856-1.856a1.875 1.875 0 0 1 2.652-2.652L18 17Z" fill="#868686"/>
</svg>
