<svg width="24" height="24" fill="none" xmlns="http://www.w3.org/2000/svg">
    <path d="M7.75 12a2.25 2.25 0 0 1 3.125-2.074A3.734 3.734 0 0 0 10.25 12c0 .767.23 1.48.625 2.074A2.25 2.25 0 0 1 7.75 12ZM12.5 10.323a2.25 2.25 0 1 1 3 3.355 2.25 2.25 0 0 1-3-3.355Z" fill="#868686"/>
    <path fill-rule="evenodd" clip-rule="evenodd" d="M22 7a4 4 0 0 0-4-4H6a4 4 0 0 0-4 4v10a4 4 0 0 0 4 4h12a4 4 0 0 0 4-4V7ZM10 8.25c.735 0 1.421.212 2 .577a3.75 3.75 0 1 1 0 6.345 3.75 3.75 0 1 1-2-6.923Z" fill="#868686"/>
</svg>
