<svg width="24" height="24" fill="none" xmlns="http://www.w3.org/2000/svg">
    <path fill-rule="evenodd" clip-rule="evenodd" d="M2 1.25a.75.75 0 0 1 .75.75v15A3.25 3.25 0 0 0 6 20.25h16a.75.75 0 0 1 0 1.5H6A4.75 4.75 0 0 1 1.25 17V2A.75.75 0 0 1 2 1.25Zm9 6.5c-.69 0-1.25.56-1.25 1.25v1A2.75 2.75 0 0 1 7 12.75H6a.75.75 0 0 1 0-1.5h1c.69 0 1.25-.56 1.25-1.25V9a2.75 2.75 0 0 1 5.5 0v6a1.25 1.25 0 1 0 2.5 0v-1A2.75 2.75 0 0 1 19 11.25h1a.75.75 0 0 1 0 1.5h-1c-.69 0-1.25.56-1.25 1.25v1a2.75 2.75 0 1 1-5.5 0V9c0-.69-.56-1.25-1.25-1.25Z" fill="#868686"/>
</svg>
