<svg width="24" height="24" fill="none" xmlns="http://www.w3.org/2000/svg">
    <path d="M15.494 11.436a.75.75 0 0 1 .07 1.058l-2.87 3.28a1.75 1.75 0 0 1-2.41.214l-1.752-1.402a.75.75 0 0 1 .937-1.172l1.752 1.403a.25.25 0 0 0 .345-.031l2.87-3.28a.75.75 0 0 1 1.058-.07Z" fill="#868686"/>
    <path fill-rule="evenodd" clip-rule="evenodd" d="M4.213 3.033a4.75 4.75 0 0 1 3.71-1.783h8.155a4.75 4.75 0 0 1 3.709 1.783l1.922 2.403a4.75 4.75 0 0 1 1.041 2.967V18A4.75 4.75 0 0 1 18 22.75H6A4.75 4.75 0 0 1 1.25 18V8.403a4.75 4.75 0 0 1 1.04-2.967l1.923-2.403Zm3.71-.283a3.25 3.25 0 0 0-2.538 1.22L3.56 6.25h16.88l-1.825-2.28a3.25 3.25 0 0 0-2.537-1.22H7.923Zm13.256 4.978A.751.751 0 0 1 21 7.75H3a.752.752 0 0 1-.18-.022 3.25 3.25 0 0 0-.07.675V18A3.25 3.25 0 0 0 6 21.25h12A3.25 3.25 0 0 0 21.25 18V8.403c0-.228-.024-.454-.07-.675Z" fill="#868686"/>
</svg>
