<svg width="24" height="24" fill="none" xmlns="http://www.w3.org/2000/svg">
    <path fill-rule="evenodd" clip-rule="evenodd" d="M12 2.75a9.25 9.25 0 1 0 1.388 18.397.75.75 0 0 1 .224 1.483c-.527.079-1.065.12-1.612.12-5.937 0-10.75-4.813-10.75-10.75S6.063 1.25 12 1.25 22.75 6.063 22.75 12c0 .403-.022.801-.066 1.194a.75.75 0 1 1-1.49-.165A9.25 9.25 0 0 0 12 2.75Zm-3.75 7.677c0-1.673 1.76-2.76 3.256-2.012l3.146 1.573c1.659.829 1.659 3.195 0 4.024l-3.146 1.573c-1.496.748-3.256-.34-3.256-2.012v-3.146Zm2.585-.67a.75.75 0 0 0-1.085.67v3.146a.75.75 0 0 0 1.085.67l3.146-1.572a.75.75 0 0 0 0-1.342l-3.146-1.573Zm6.847 7.352a1.045 1.045 0 0 0-1.577 0c-.473.512-.473 1.364 0 1.876l1.875 2.026a.687.687 0 0 0 1.04 0l1.875-2.026c.473-.512.473-1.364 0-1.876a1.045 1.045 0 0 0-1.577 0l-.267.29a.75.75 0 0 1-1.102 0l-.267-.29Zm.818-1.284c-1.043-.847-2.55-.758-3.496.265-1.005 1.087-1.005 2.827 0 3.913l1.874 2.027c.889.96 2.355.96 3.244 0l1.874-2.027c1.005-1.086 1.005-2.826 0-3.913-.947-1.023-2.453-1.112-3.496-.265Z" fill="#868686"/>
</svg>
