<svg width="24" height="24" fill="none" xmlns="http://www.w3.org/2000/svg">
    <path fill-rule="evenodd" clip-rule="evenodd" d="M7.25 15A2.75 2.75 0 0 1 10 12.25h3.076a.75.75 0 0 1 0 1.5H10a1.25 1.25 0 1 0 0 2.5h9a2.75 2.75 0 1 1 0 5.5H3a.75.75 0 0 1 0-1.5h16a1.25 1.25 0 1 0 0-2.5h-9A2.75 2.75 0 0 1 7.25 15ZM15.95 3.14a3.2 3.2 0 0 0-3.2 3.2c0 .842.537 1.994 1.32 2.988.38.483.788.887 1.157 1.163.399.299.645.367.723.367.078 0 .325-.068.724-.367.369-.276.776-.68 1.156-1.163.784-.994 1.32-2.146 1.32-2.987a3.2 3.2 0 0 0-3.2-3.2Zm-4.7 3.2a4.7 4.7 0 1 1 9.4 0c0 1.341-.78 2.823-1.642 3.917-.443.562-.94 1.065-1.436 1.435-.465.348-1.041.666-1.622.666-.58 0-1.156-.318-1.622-.666-.495-.37-.993-.873-1.436-1.435C12.03 9.163 11.25 7.68 11.25 6.34Zm4.7-.566a.567.567 0 1 0 0 1.134.567.567 0 0 0 0-1.134Zm-2.066.567a2.067 2.067 0 1 1 4.133 0 2.067 2.067 0 0 1-4.133 0Z" fill="#868686"/>
</svg>
