<svg width="24" height="24" fill="none" xmlns="http://www.w3.org/2000/svg">
    <path fill-rule="evenodd" clip-rule="evenodd" d="M11.546 4.217C10.342 3.3 9.403 2.622 8.083 2.77c-.786.088-1.718.471-2.633.976A19.604 19.604 0 0 0 3.174 5.24a1.11 1.11 0 0 0-.424.897v9.67c0 .097.053.197.185.262a.38.38 0 0 0 .383-.013c.97-.652 2.262-1.408 3.533-1.79l.433 1.435c-1.055.318-2.2.975-3.13 1.6-1.152.775-2.904.023-2.904-1.495v-9.67c0-.8.35-1.586 1.02-2.092a21.099 21.099 0 0 1 2.455-1.612C5.698 1.896 6.836 1.4 7.917 1.28c1.959-.219 3.345.836 4.47 1.693l.067.05c1.204.916 2.143 1.595 3.463 1.447 1.214-.136 2.724-.961 3.928-1.77 1.153-.775 2.905-.023 2.905 1.494v9.67c0 .8-.35 1.587-1.02 2.093a21.087 21.087 0 0 1-2.455 1.611c-.973.537-2.111 1.032-3.192 1.154l-.166-1.491c.786-.088 1.718-.471 2.633-.976a19.597 19.597 0 0 0 2.276-1.495c.264-.2.424-.527.424-.896v-9.67c0-.097-.053-.197-.185-.262a.38.38 0 0 0-.383.013c-1.215.816-2.99 1.836-4.599 2.016-1.959.22-3.345-.836-4.47-1.692l-.067-.051Z" fill="#868686"/>
    <path fill-rule="evenodd" clip-rule="evenodd" d="M12 10.75c-2.376 0-4.25 1.842-4.25 4.05 0 1.139.557 2.8 1.445 4.19.438.687.933 1.269 1.437 1.672.509.406.973.588 1.368.588.395 0 .86-.182 1.368-.588.504-.403 1-.985 1.437-1.671.888-1.392 1.445-3.052 1.445-4.191 0-2.208-1.874-4.05-4.25-4.05ZM6.25 14.8c0-3.094 2.604-5.55 5.75-5.55s5.75 2.456 5.75 5.55c0 1.512-.693 3.451-1.68 4.998-.5.782-1.098 1.503-1.766 2.036-.663.53-1.45.916-2.304.916-.855 0-1.64-.387-2.304-.916-.668-.533-1.266-1.254-1.766-2.036-.987-1.546-1.68-3.486-1.68-4.998ZM12 13.75a.75.75 0 1 0 0 1.5.75.75 0 0 0 0-1.5Zm-2.25.75a2.25 2.25 0 1 1 4.5 0 2.25 2.25 0 0 1-4.5 0Z" fill="#868686"/>
</svg>
