<svg width="24" height="24" fill="none" xmlns="http://www.w3.org/2000/svg">
    <path fill-rule="evenodd" clip-rule="evenodd" d="M6.25 4A2.75 2.75 0 0 1 9 1.25h6A2.75 2.75 0 0 1 17.75 4v3.25H22a.75.75 0 0 1 0 1.5h-.25V16c0 .854-.39 1.617-1 2.121V22a.75.75 0 0 1-1.5 0v-3.261a2.791 2.791 0 0 1-.25.011h-1.25V20a.75.75 0 0 1-1.5 0v-1.25h-8.5V20a.75.75 0 0 1-1.5 0v-1.25H5c-.084 0-.168-.004-.25-.011V22a.75.75 0 0 1-1.5 0v-3.879c-.61-.504-1-1.267-1-2.121V8.75H2a.75.75 0 0 1 0-1.5h4.25V4Zm1.5 3.25h8.5V4c0-.69-.56-1.25-1.25-1.25H9c-.69 0-1.25.56-1.25 1.25v3.25Zm-4 1.5V16c0 .69.56 1.25 1.25 1.25h14c.69 0 1.25-.56 1.25-1.25V8.75H3.75Z" fill="#868686"/>
</svg>
