<svg width="24" height="24" fill="none" xmlns="http://www.w3.org/2000/svg">
    <path d="M9.25 4.75a2.75 2.75 0 0 1 5.5 0v.166c2.385.29 4.613.952 6.579 1.91a.75.75 0 1 1-.657 1.348C18.18 6.96 15.204 6.25 12 6.25c-3.204 0-6.18.71-8.671 1.924a.75.75 0 1 1-.657-1.348c1.965-.958 4.193-1.62 6.578-1.91V4.75Z" fill="#868686"/>
    <path fill-rule="evenodd" clip-rule="evenodd" d="M18.266 18.283a4 4 0 0 1-3.99 3.715H9.725a4 4 0 0 1-3.99-3.715l-.688-9.635C7.164 7.91 9.519 7.498 12 7.498c2.482 0 4.837.412 6.954 1.15l-.688 9.635Zm-7.516-7.285a.75.75 0 0 0-1.5 0v6a.75.75 0 1 0 1.5 0v-6Zm3.25-.75a.75.75 0 0 1 .75.75v6a.75.75 0 1 1-1.5 0v-6a.75.75 0 0 1 .75-.75Z" fill="#868686"/>
</svg>
