<svg width="24" height="24" fill="none" xmlns="http://www.w3.org/2000/svg">
    <path fill-rule="evenodd" clip-rule="evenodd" d="M15.672 3.507A26.844 26.844 0 0 0 11.729 8.8a14.31 14.31 0 0 1-5.16-4.29A9.205 9.205 0 0 1 12 2.75c1.306 0 2.547.27 3.672.757ZM5.429 5.49a15.816 15.816 0 0 0 5.595 4.635c-.24.485-.468.98-.68 1.48A15.811 15.811 0 0 0 7 11.25a15.76 15.76 0 0 0-4.248.58 9.218 9.218 0 0 1 2.677-6.34Zm-2.58 7.874A14.248 14.248 0 0 1 7 12.75c.956 0 1.89.094 2.793.274a26.639 26.639 0 0 0-1.5 7.453 9.261 9.261 0 0 1-5.443-7.113ZM9.77 20.98c.106-2.654.62-5.203 1.484-7.584a14.276 14.276 0 0 1 7.245 5.186A9.218 9.218 0 0 1 12 21.25a9.27 9.27 0 0 1-2.23-.27Zm9.73-3.564a15.779 15.779 0 0 0-7.692-5.418c.186-.43.384-.855.592-1.273A15.713 15.713 0 0 0 18 11.75c1.107 0 2.188-.114 3.232-.332a9.206 9.206 0 0 1-1.733 5.998Zm1.518-7.486c-.972.21-1.982.32-3.018.32-1.715 0-3.359-.303-4.882-.858a25.345 25.345 0 0 1 3.928-5.146 9.263 9.263 0 0 1 3.972 5.684Zm-3.712-7.281A10.704 10.704 0 0 0 12 1.25a10.71 10.71 0 0 0-6.94 2.54A10.728 10.728 0 0 0 1.25 12c0 4.816 3.167 8.89 7.53 10.26 1.017.318 2.1.49 3.22.49 3.19 0 6.057-1.391 8.025-3.597A10.713 10.713 0 0 0 22.75 12a10.757 10.757 0 0 0-5.444-9.351Z" fill="#868686"/>
</svg>
