<svg width="24" height="24" fill="none" xmlns="http://www.w3.org/2000/svg">
    <path fill-rule="evenodd" clip-rule="evenodd" d="M7.298 2.641a4.75 4.75 0 0 1 3.359-1.391H13c2.386 0 4.36 1.76 4.699 4.051A4.751 4.751 0 0 1 21.75 10v8A4.75 4.75 0 0 1 17 22.75h-6a4.751 4.751 0 0 1-4.699-4.051A4.751 4.751 0 0 1 2.25 14V9.657c0-1.26.5-2.468 1.391-3.359l3.657-3.657Zm.539 16.109A3.251 3.251 0 0 0 11 21.25h6A3.25 3.25 0 0 0 20.25 18v-8a3.251 3.251 0 0 0-2.5-3.163V14A4.75 4.75 0 0 1 13 18.75H7.837ZM9.75 2.88V4A4.75 4.75 0 0 1 5 8.75H3.88c-.086.292-.13.597-.13.907V14A3.25 3.25 0 0 0 7 17.25h6A3.25 3.25 0 0 0 16.25 14V6A3.25 3.25 0 0 0 13 2.75h-2.343c-.31 0-.615.044-.907.13ZM4.81 7.25H5A3.25 3.25 0 0 0 8.25 4v-.19L4.81 7.25Z" fill="#868686"/>
</svg>
