<svg width="24" height="24" fill="none" xmlns="http://www.w3.org/2000/svg">
    <path fill-rule="evenodd" clip-rule="evenodd" d="M6 3.75A3.25 3.25 0 0 0 2.75 7v10A3.25 3.25 0 0 0 6 20.25h12A3.25 3.25 0 0 0 21.25 17v-7A3.25 3.25 0 0 0 18 6.75h-2.667a4.75 4.75 0 0 1-2.85-.95l-1.866-1.4a3.25 3.25 0 0 0-1.95-.65H6ZM1.25 7A4.75 4.75 0 0 1 6 2.25h2.667a4.75 4.75 0 0 1 2.85.95l1.866 1.4a3.25 3.25 0 0 0 1.95.65H18A4.75 4.75 0 0 1 22.75 10v7A4.75 4.75 0 0 1 18 21.75H6A4.75 4.75 0 0 1 1.25 17V7Zm9.341 4.75a.841.841 0 0 0-.841.841v.075c0 .208.07.41.2.572l1.855 2.317c.1.126.29.126.39 0l1.854-2.317c.13-.163.201-.364.201-.572v-.075a.841.841 0 0 0-1.436-.595l-.284.284a.75.75 0 0 1-1.06 0l-.284-.284a.841.841 0 0 0-.595-.246Zm-2.341.841a2.341 2.341 0 0 1 3.75-1.87 2.341 2.341 0 0 1 3.75 1.87v.075c0 .548-.187 1.08-.53 1.509l-1.854 2.317a1.75 1.75 0 0 1-2.732 0l-1.855-2.317a2.416 2.416 0 0 1-.529-1.51v-.074Z" fill="#868686"/>
</svg>
