<svg width="24" height="24" fill="none" xmlns="http://www.w3.org/2000/svg">
    <path fill-rule="evenodd" clip-rule="evenodd" d="M14.25 6.003c0-1.029-1.176-1.617-2-1l-4.267 3.2a2.75 2.75 0 0 1-1.65.55H4c-.69 0-1.25.559-1.25 1.248V14c0 .69.56 1.25 1.25 1.25h2.334a2.75 2.75 0 0 1 1.65.55l4.266 3.198c.824.618 2 .03 2-1V6.004Zm-2.9-2.2c1.813-1.358 4.4-.066 4.4 2.2v11.995c0 2.266-2.588 3.558-4.4 2.199l-4.267-3.199a1.25 1.25 0 0 0-.75-.25H4A2.75 2.75 0 0 1 1.25 14v-3.998A2.75 2.75 0 0 1 4 7.252h2.334c.27 0 .533-.088.75-.25l4.266-3.198Zm6.12 5.667a.75.75 0 0 1 1.06 0L20 10.94l1.47-1.47a.75.75 0 1 1 1.06 1.06L21.06 12l1.47 1.47a.75.75 0 0 1-1.06 1.06L20 13.062l-1.47 1.47a.75.75 0 0 1-1.06-1.061L18.94 12l-1.47-1.47a.75.75 0 0 1 0-1.06Z" fill="#868686"/>
</svg>
