<svg width="24" height="24" fill="none" xmlns="http://www.w3.org/2000/svg">
    <path fill-rule="evenodd" clip-rule="evenodd" d="M3.25 9.486C3.25 4.868 7.24 1.25 12 1.25s8.75 3.618 8.75 8.236c0 4.617-3.99 8.235-8.75 8.235-.313 0-.623-.015-.929-.046L9.88 21.38c-.337 1.047-1.471 1.586-2.5 1.288-1.043-.303-1.687-1.383-1.344-2.448l4.042-12.572c.337-1.047 1.471-1.586 2.5-1.287 1.043.302 1.687 1.382 1.344 2.448l-1.609 5.003c2.524-.15 4.41-2.091 4.41-4.326 0-2.327-2.044-4.336-4.723-4.336-2.68 0-4.724 2.009-4.724 4.336 0 .156.01.31.027.462.09.79-.24 1.744-1.133 2.14-1.097.485-2.615-.001-2.832-1.428a7.813 7.813 0 0 1-.088-1.174Zm2.312 1.23c.135-.06.288-.27.25-.597a5.545 5.545 0 0 1-.036-.633C5.776 6.236 8.59 3.65 12 3.65s6.224 2.586 6.224 5.836c0 3.25-2.814 5.835-6.224 5.835-.269 0-.534-.016-.794-.047l-.904-.107 2.192-6.818c.065-.201-.042-.463-.334-.548-.305-.088-.583.086-.654.306L7.464 20.68c-.065.202.042.463.334.548.305.089.583-.086.654-.306l1.582-4.922.642.11c.43.074.872.112 1.324.112 4.033 0 7.25-3.044 7.25-6.735 0-3.692-3.217-6.736-7.25-6.736-4.033 0-7.25 3.044-7.25 6.736 0 .322.024.639.071.948a.365.365 0 0 0 .225.292.639.639 0 0 0 .516-.01Z" fill="#868686"/>
</svg>
