<svg width="24" height="24" fill="none" xmlns="http://www.w3.org/2000/svg">
    <path d="M8.281 3.5a2 2 0 0 1 2-2h4a2 2 0 1 1 0 4h-4a2 2 0 0 1-2-2Z" fill="#868686"/>
    <path fill-rule="evenodd" clip-rule="evenodd" d="M6.781 3.531a4 4 0 0 0-3.5 3.97v10a4 4 0 0 0 4 4h10a4 4 0 0 0 4-4v-10a4 4 0 0 0-3.5-3.97 3.5 3.5 0 0 1-3.5 3.47h-4a3.5 3.5 0 0 1-3.5-3.47Zm5.5 8.151.265-.265a1.875 1.875 0 1 1 2.652 2.652l-1.856 1.856a1.5 1.5 0 0 1-2.122 0l-1.856-1.857a1.875 1.875 0 1 1 2.652-2.651l.265.265Z" fill="#868686"/>
</svg>
