<svg width="24" height="24" fill="none" xmlns="http://www.w3.org/2000/svg">
    <path d="M3 5.25A1.75 1.75 0 0 0 1.25 7v2c0 .966.784 1.75 1.75 1.75h2A1.75 1.75 0 0 0 6.75 9V7A1.75 1.75 0 0 0 5 5.25H3ZM3 13.25A1.75 1.75 0 0 0 1.25 15v2c0 .966.784 1.75 1.75 1.75h2A1.75 1.75 0 0 0 6.75 17v-2A1.75 1.75 0 0 0 5 13.25H3ZM9.25 6a.75.75 0 0 1 .75-.75h6a.75.75 0 0 1 0 1.5h-6A.75.75 0 0 1 9.25 6ZM10 13.25a.75.75 0 0 0 0 1.5h6a.75.75 0 0 0 0-1.5h-6ZM9.25 10a.75.75 0 0 1 .75-.75h12a.75.75 0 0 1 0 1.5H10a.75.75 0 0 1-.75-.75ZM10 17.25a.75.75 0 0 0 0 1.5h12a.75.75 0 0 0 0-1.5H10Z" fill="#868686"/>
</svg>
