<svg width="24" height="24" fill="none" xmlns="http://www.w3.org/2000/svg">
    <path d="M1.47 2.53a.75.75 0 0 1 1.06-1.06l20 20a.75.75 0 1 1-1.06 1.06l-1.402-1.401A3.75 3.75 0 0 1 14.25 18v-2c0-.217.018-.43.054-.636L5.66 6.721A8.217 8.217 0 0 0 3.75 12v1a3.75 3.75 0 0 1 6 3v2a3.75 3.75 0 1 1-7.5 0v-6c0-2.422.883-4.639 2.346-6.344L1.47 2.53ZM6.807 3.746 7.9 4.84A8.25 8.25 0 0 1 20.25 12v1A3.734 3.734 0 0 0 18 12.25c-.764 0-1.475.229-2.068.621l5.764 5.765c.036-.207.054-.42.054-.636v-6c0-5.385-4.365-9.75-9.75-9.75-1.909 0-3.69.548-5.193 1.496Z" fill="#868686"/>
</svg>
