<svg width="24" height="24" fill="none" xmlns="http://www.w3.org/2000/svg">
    <path fill-rule="evenodd" clip-rule="evenodd" d="M12.25 3.104V6A4.75 4.75 0 0 0 17 10.75h2.896c.069.295.104.6.104.907V17a4 4 0 0 1-4 4H8a4 4 0 0 1-4-4V7a4 4 0 0 1 4-4h3.343a4 4 0 0 1 .907.104Zm1.5.701V6A3.25 3.25 0 0 0 17 9.25h2.195a4.006 4.006 0 0 0-.367-.422l-4.656-4.656a4.008 4.008 0 0 0-.422-.367ZM7.25 12a.75.75 0 0 1 .75-.75h4a.75.75 0 0 1 0 1.5H8a.75.75 0 0 1-.75-.75ZM8 15.25a.75.75 0 0 0 0 1.5h8a.75.75 0 0 0 0-1.5H8Z" fill="#868686"/>
</svg>
