<svg width="24" height="24" fill="none" xmlns="http://www.w3.org/2000/svg">
    <path fill-rule="evenodd" clip-rule="evenodd" d="M4.75 8.657V18A3.25 3.25 0 0 0 8 21.25h8A3.25 3.25 0 0 0 19.25 18V6A3.25 3.25 0 0 0 16 2.75h-5.343a3.25 3.25 0 0 0-2.298.952L5.702 6.359a3.25 3.25 0 0 0-.952 2.298ZM3.25 18V8.657c0-1.26.5-2.468 1.391-3.359l2.657-2.657a4.75 4.75 0 0 1 3.359-1.391H16A4.75 4.75 0 0 1 20.75 6v12A4.75 4.75 0 0 1 16 22.75H8A4.75 4.75 0 0 1 3.25 18Z" fill="#868686"/>
    <path fill-rule="evenodd" clip-rule="evenodd" d="M17 4.25a.75.75 0 0 1 .75.75v2a.75.75 0 0 1-1.5 0V5a.75.75 0 0 1 .75-.75ZM14 4.25a.75.75 0 0 1 .75.75v2a.75.75 0 0 1-1.5 0V5a.75.75 0 0 1 .75-.75ZM11 4.25a.75.75 0 0 1 .75.75v2a.75.75 0 0 1-1.5 0V5a.75.75 0 0 1 .75-.75Z" fill="#868686"/>
</svg>
