<svg width="24" height="24" fill="none" xmlns="http://www.w3.org/2000/svg">
    <path fill-rule="evenodd" clip-rule="evenodd" d="M12 2.75a9.25 9.25 0 1 0 8.111 4.8l-3.63 3.026a.75.75 0 0 1-.961-1.152l3.759-3.133A9.234 9.234 0 0 0 12 2.75Zm8.432 2.58A10.73 10.73 0 0 0 12 1.25C6.063 1.25 1.25 6.063 1.25 12S6.063 22.75 12 22.75 22.75 17.937 22.75 12a10.7 10.7 0 0 0-1.468-5.426l.479-.398a2.75 2.75 0 0 0 .989-2.113V2a.75.75 0 0 0-1.5 0v2.063c0 .371-.165.723-.45.96l-.368.308ZM9.25 12a2.75 2.75 0 1 1 5.5 0 2.75 2.75 0 0 1-5.5 0ZM12 10.75a1.25 1.25 0 1 0 0 2.5 1.25 1.25 0 0 0 0-2.5Zm-6 .5a.75.75 0 0 1 .75.75c0 2.9 2.35 5.25 5.25 5.25a.75.75 0 0 1 0 1.5A6.75 6.75 0 0 1 5.25 12a.75.75 0 0 1 .75-.75Z" fill="#868686"/>
</svg>
