<svg width="24" height="24" fill="none" xmlns="http://www.w3.org/2000/svg">
    <path fill-rule="evenodd" clip-rule="evenodd" d="M4.75 9v8A2.25 2.25 0 0 0 7 19.25h10A2.25 2.25 0 0 0 19.25 17V9h1.5v8A3.75 3.75 0 0 1 17 20.75H7A3.75 3.75 0 0 1 3.25 17V9h1.5Z" fill="#868686"/>
    <path fill-rule="evenodd" clip-rule="evenodd" d="M10.691 3.25h8.572c.615 0 1.177.33 1.485.856l1.759 3c.668 1.14-.116 2.644-1.485 2.644h-4.984a2.695 2.695 0 0 1-2.323-1.342L10.691 3.25Zm2.618 1.5 1.7 2.9c.222.377.614.6 1.029.6h4.984c.08 0 .15-.04.194-.12a.26.26 0 0 0-.003-.265l-1.759-3a.223.223 0 0 0-.19-.115h-5.955Z" fill="#868686"/>
    <path fill-rule="evenodd" clip-rule="evenodd" d="M3.253 4.106c.308-.526.87-.856 1.485-.856h8.572l-3.024 5.158A2.695 2.695 0 0 1 7.963 9.75H2.98C1.61 9.75.826 8.247 1.494 7.106l1.76-3Zm1.485.644a.223.223 0 0 0-.19.115l-1.76 3a.26.26 0 0 0-.003.265c.045.08.114.12.194.12h4.984c.415 0 .808-.223 1.029-.6l1.7-2.9H4.738Z" fill="#868686"/>
</svg>
