<svg width="24" height="24" fill="none" xmlns="http://www.w3.org/2000/svg">
    <path fill-rule="evenodd" clip-rule="evenodd" d="M1.25 6A4.75 4.75 0 0 1 6 1.25h12A4.75 4.75 0 0 1 22.75 6v7a.75.75 0 0 1-1.5 0V6A3.25 3.25 0 0 0 18 2.75H6A3.25 3.25 0 0 0 2.75 6v12A3.25 3.25 0 0 0 6 21.25h7a.75.75 0 0 1 0 1.5H6A4.75 4.75 0 0 1 1.25 18V6Z" fill="#868686"/>
    <path fill-rule="evenodd" clip-rule="evenodd" d="M21.494 16.436a.75.75 0 0 1 .07 1.058l-2.87 3.28a1.75 1.75 0 0 1-2.41.214l-1.752-1.402a.75.75 0 0 1 .937-1.172l1.752 1.403a.25.25 0 0 0 .345-.031l2.87-3.28a.75.75 0 0 1 1.058-.07ZM12 11.25a.75.75 0 1 0 0 1.5.75.75 0 0 0 0-1.5ZM9.75 12a2.25 2.25 0 1 1 4.5 0 2.25 2.25 0 0 1-4.5 0Z" fill="#868686"/>
    <path fill-rule="evenodd" clip-rule="evenodd" d="M12 5.25a.75.75 0 0 1 .75.75v4.5a.75.75 0 0 1-1.5 0V6a.75.75 0 0 1 .75-.75Zm-.97 7.72a.75.75 0 0 1 0 1.06l-1.5 1.5a.75.75 0 0 1-1.06-1.06l1.5-1.5a.75.75 0 0 1 1.06 0Z" fill="#868686"/>
</svg>
