<svg width="24" height="24" fill="none" xmlns="http://www.w3.org/2000/svg">
    <path fill-rule="evenodd" clip-rule="evenodd" d="M9 4.75a6.25 6.25 0 0 0-3.124 11.664.75.75 0 0 1-.752 1.299A7.75 7.75 0 1 1 15.846 7.366a5.75 5.75 0 0 1 2.878 11.12.75.75 0 1 1-.449-1.43 4.252 4.252 0 1 0-2.602-8.095 4.25 4.25 0 0 0-1.648 1.004.75.75 0 0 1-1.05-1.071c.42-.412.903-.76 1.434-1.028A6.248 6.248 0 0 0 9 4.75Z" fill="#868686"/>
    <path d="M12.75 20a.75.75 0 1 1-1.5 0 .75.75 0 0 1 1.5 0ZM12.75 17a.75.75 0 1 1-1.5 0 .75.75 0 0 1 1.5 0ZM9.5 18A.75.75 0 1 1 8 18a.75.75 0 0 1 1.5 0ZM16 18a.75.75 0 1 1-1.5 0 .75.75 0 0 1 1.5 0ZM9.5 15A.75.75 0 1 1 8 15a.75.75 0 0 1 1.5 0ZM16 15a.75.75 0 1 1-1.5 0 .75.75 0 0 1 1.5 0Z" fill="#868686"/>
</svg>
