<svg width="24" height="24" fill="none" xmlns="http://www.w3.org/2000/svg">
    <path fill-rule="evenodd" clip-rule="evenodd" d="M9.316 6.766v11.256c1.53.107 2.679.98 3.638 1.71l.066.052c.992.754 1.803 1.347 2.796 1.45V9.98c-1.53-.107-2.678-.98-3.637-1.71l-.067-.052c-.99-.754-1.803-1.347-2.796-1.45Zm8 3.077v11.206c.576-.177 1.192-.459 1.8-.794a19.623 19.623 0 0 0 2.276-1.495c.264-.2.424-.527.424-.896v-9.67c0-.097-.053-.197-.185-.262a.38.38 0 0 0-.383.012c-1.048.705-2.515 1.562-3.932 1.899Zm-9.5 8.316V6.951c-.575.177-1.191.459-1.8.795A19.604 19.604 0 0 0 3.741 9.24a1.11 1.11 0 0 0-.425.897v9.67c0 .097.054.196.185.262a.38.38 0 0 0 .383-.013c1.05-.705 2.516-1.562 3.932-1.898Zm5.205-11.135c1.203.915 2.142 1.594 3.462 1.446 1.214-.136 2.725-.961 3.929-1.77 1.153-.775 2.904-.023 2.904 1.494v9.67c0 .8-.35 1.587-1.02 2.093a21.099 21.099 0 0 1-2.455 1.611c-.973.537-2.11 1.032-3.191 1.153-1.96.22-3.345-.835-4.47-1.692l-.068-.051c-1.203-.916-2.142-1.595-3.462-1.447-1.214.136-2.725.962-3.929 1.77-1.153.776-2.905.024-2.905-1.494v-9.67c0-.8.351-1.586 1.02-2.092a21.096 21.096 0 0 1 2.456-1.612c.973-.537 2.11-1.032 3.191-1.153 1.96-.22 3.345.836 4.47 1.693l.068.05Z" fill="#868686"/>
    <path fill-rule="evenodd" clip-rule="evenodd" d="M13.322 1.554a.75.75 0 0 1 .53-.22h6a.75.75 0 0 1 .666 1.095l-.809 1.559.79 1.338a.75.75 0 0 1-.647 1.131h-5.25v6.65a.75.75 0 1 1-1.5 0V2.085a.75.75 0 0 1 .22-.53Zm1.28 3.403h3.937l-.333-.565a.75.75 0 0 1-.02-.726l.432-.832h-4.016v2.123Z" fill="#868686"/>
</svg>
