<svg width="24" height="24" fill="none" xmlns="http://www.w3.org/2000/svg">
    <path fill-rule="evenodd" clip-rule="evenodd" d="M11.25 13a.75.75 0 0 1 .75-.75h6a.75.75 0 0 1 0 1.5h-6a.75.75 0 0 1-.75-.75ZM5.47 20.53a.75.75 0 0 0 1.06 0l2-2a.75.75 0 1 0-1.06-1.06l-.72.72V4a.75.75 0 0 0-1.5 0v14.19l-.72-.72a.75.75 0 0 0-1.06 1.06l2 2Z" fill="#868686"/>
    <path fill-rule="evenodd" clip-rule="evenodd" d="M15 4.25a.75.75 0 0 1 .693.462l5 12a.75.75 0 0 1-1.385.576L15 6.95l-4.307 10.338a.75.75 0 0 1-1.385-.576l5-12A.75.75 0 0 1 15 4.25Z" fill="#868686"/>
</svg>
