<svg width="24" height="24" fill="none" xmlns="http://www.w3.org/2000/svg">
    <path fill-rule="evenodd" clip-rule="evenodd" d="M12 2.75a9.25 9.25 0 1 0 0 18.5 9.25 9.25 0 0 0 0-18.5ZM1.25 12C1.25 6.063 6.063 1.25 12 1.25S22.75 6.063 22.75 12 17.937 22.75 12 22.75 1.25 17.937 1.25 12Z" fill="#868686"/>
    <path fill-rule="evenodd" clip-rule="evenodd" d="M13.47 6.47a.75.75 0 0 1 1.06 0l2 2a.75.75 0 0 1 0 1.06l-2 2a.75.75 0 1 1-1.06-1.06l.72-.72H11a2.25 2.25 0 0 0 0 4.5h5a.75.75 0 0 1 0 1.5h-5a3.75 3.75 0 1 1 0-7.5h3.19l-.72-.72a.75.75 0 0 1 0-1.06Z" fill="#868686"/>
</svg>
