<svg width="24" height="24" fill="none" xmlns="http://www.w3.org/2000/svg">
    <path fill-rule="evenodd" clip-rule="evenodd" d="M8.687 2.532a.75.75 0 0 1-.387.987A9.252 9.252 0 0 0 2.75 12a9.25 9.25 0 1 0 18.5 0 9.252 9.252 0 0 0-5.55-8.48.75.75 0 0 1 .6-1.375A10.752 10.752 0 0 1 22.75 12c0 5.937-4.813 10.75-10.75 10.75S1.25 17.937 1.25 12c0-4.41 2.655-8.197 6.45-9.855a.75.75 0 0 1 .987.387Z" fill="#868686"/>
    <path fill-rule="evenodd" clip-rule="evenodd" d="M12 1.25a.75.75 0 0 1 .75.75v4a.75.75 0 0 1-1.5 0V2a.75.75 0 0 1 .75-.75Z" fill="#868686"/>
</svg>
