<svg width="24" height="24" fill="none" xmlns="http://www.w3.org/2000/svg">
    <path fill-rule="evenodd" clip-rule="evenodd" d="M12.75 3a.75.75 0 0 0-1.5 0v1.316a4.251 4.251 0 0 0 0 8.368v5.463a2.751 2.751 0 0 1-2-2.647.75.75 0 0 0-1.5 0c0 2.091 1.51 3.83 3.5 4.184V21a.75.75 0 0 0 1.5 0v-1.316a4.251 4.251 0 0 0 0-8.368V5.854c1.154.326 2 1.387 2 2.646a.75.75 0 0 0 1.5 0c0-2.091-1.51-3.83-3.5-4.184V3Zm-1.5 2.854a2.751 2.751 0 0 0 0 5.292V5.854Zm1.5 7v5.293a2.751 2.751 0 0 0 0-5.293Z" fill="#868686"/>
</svg>
