<svg width="24" height="24" fill="none" xmlns="http://www.w3.org/2000/svg">
    <path fill-rule="evenodd" clip-rule="evenodd" d="M8.51 16.45 8 17l-.51-.55a.75.75 0 0 1 1.02 0ZM8 18.1c.051.06.104.126.156.193.169.22.325.455.437.681.114.234.157.41.157.526 0 .395-.114.54-.183.6-.087.075-.259.15-.567.15-.308 0-.48-.075-.567-.15-.069-.06-.183-.205-.183-.6 0-.116.043-.292.157-.526.112-.226.268-.46.437-.68.052-.068.105-.133.156-.195Zm-.51-1.65L8 17l.51-.55.002.002.002.001.005.005.016.016a6.288 6.288 0 0 1 .243.245c.153.161.359.39.566.66.206.266.425.588.595.934.166.338.311.75.311 1.187 0 .71-.222 1.315-.696 1.73-.456.397-1.034.52-1.554.52s-1.098-.123-1.554-.52c-.474-.415-.696-1.02-.696-1.73 0-.436.145-.849.311-1.187a5.65 5.65 0 0 1 .595-.935 8.537 8.537 0 0 1 .81-.904l.015-.016.005-.005.002-.001.001-.001ZM16.51 16.45 16 17l-.51-.55a.75.75 0 0 1 1.02 0ZM16 18.1c.051.06.104.126.156.193.169.22.325.455.437.681.114.234.157.41.157.526 0 .395-.114.54-.183.6-.087.075-.259.15-.567.15-.308 0-.48-.075-.568-.15-.068-.06-.182-.205-.182-.6 0-.116.043-.292.158-.526.11-.226.267-.46.436-.68.052-.068.105-.133.156-.195Zm-.51-1.65L16 17l.51-.55.002.002.002.001.005.005.016.016.055.053a8.54 8.54 0 0 1 .754.851c.206.267.425.589.595.935.166.338.311.75.311 1.187 0 .71-.222 1.315-.696 1.73-.456.397-1.034.52-1.554.52s-1.098-.123-1.554-.52c-.474-.415-.696-1.02-.696-1.73 0-.436.145-.849.311-1.187a5.64 5.64 0 0 1 .595-.935 8.54 8.54 0 0 1 .754-.85c.023-.024.042-.042.055-.054l.016-.016.005-.005.002-.001.001-.001ZM12.51 10.45 12 11l-.51-.55a.75.75 0 0 1 1.02 0ZM12 12.1c.051.06.104.126.156.193.169.22.325.455.436.681.115.234.158.41.158.526 0 .395-.114.54-.182.6-.088.075-.26.15-.568.15-.308 0-.48-.075-.568-.15-.068-.06-.182-.205-.182-.6 0-.116.043-.292.158-.526.11-.226.267-.46.436-.68.052-.068.105-.133.156-.195Zm-.51-1.65L12 11l.51-.55.002.002.002.002.005.004.016.015.055.054a8.54 8.54 0 0 1 .754.851c.206.267.425.589.595.935.166.338.311.75.311 1.187 0 .71-.222 1.315-.696 1.73-.456.397-1.034.52-1.554.52s-1.098-.123-1.554-.52c-.474-.415-.696-1.02-.696-1.73 0-.436.145-.849.311-1.187a5.64 5.64 0 0 1 .595-.935 8.54 8.54 0 0 1 .754-.85l.055-.055.016-.015.005-.005.002-.001.001-.001ZM6.712 4.53A2.25 2.25 0 1 0 3.53 7.712l2.298 2.298L9.01 6.828 6.712 4.53ZM2.47 3.47a3.75 3.75 0 0 1 5.304 0L10.6 6.297a.75.75 0 0 1 0 1.06L6.36 11.602a.75.75 0 0 1-1.061 0L2.469 8.773a3.75 3.75 0 0 1 0-5.304ZM16.228 3.47a3.75 3.75 0 0 1 5.303 5.303L18.703 11.6a.75.75 0 0 1-1.061 0L13.399 7.36a.75.75 0 0 1 0-1.061l2.829-2.829Zm4.242 1.06a2.25 2.25 0 0 0-3.182 0L14.99 6.828l3.182 3.182 2.298-2.298a2.25 2.25 0 0 0 0-3.182Z" fill="#868686"/>
</svg>
