<svg width="24" height="24" fill="none" xmlns="http://www.w3.org/2000/svg">
    <path fill-rule="evenodd" clip-rule="evenodd" d="M7.25 6V5A3.75 3.75 0 0 1 11 1.25h2A3.75 3.75 0 0 1 16.75 5v1H18a4 4 0 0 1 4 4v8a4 4 0 0 1-4 4H6a4 4 0 0 1-4-4v-8a4 4 0 0 1 4-4h1.25Zm1.5-1A2.25 2.25 0 0 1 11 2.75h2A2.25 2.25 0 0 1 15.25 5v1h-6.5V5Zm-2.5 5A.75.75 0 0 1 7 9.25h10a.75.75 0 0 1 0 1.5H7a.75.75 0 0 1-.75-.75ZM7 13.25a.75.75 0 0 0 0 1.5h10a.75.75 0 0 0 0-1.5H7ZM6.25 18a.75.75 0 0 1 .75-.75h10a.75.75 0 0 1 0 1.5H7a.75.75 0 0 1-.75-.75Z" fill="#868686"/>
</svg>
