<svg width="24" height="24" fill="none" xmlns="http://www.w3.org/2000/svg">
    <path fill-rule="evenodd" clip-rule="evenodd" d="M6 1.25a.75.75 0 0 1 .75.75v5.25h5.5v-4.5H12a.75.75 0 0 1 0-1.5h6a.75.75 0 0 1 0 1.5h-.25v4.5H20a.75.75 0 0 1 0 1.5h-1.787l3.01 6.02c.915 1.829-.415 3.98-2.46 3.98h-7.527c-2.044 0-3.374-2.151-2.46-3.98l3.01-6.02H6.75v12.5H20a.75.75 0 0 1 0 1.5H4a.75.75 0 0 1 0-1.5h1.25V8.75H4a.75.75 0 0 1 0-1.5h1.25V2A.75.75 0 0 1 6 1.25Zm7.75 6h2.5v-4.5h-2.5v4.5Zm2.787 1.5h-3.073l-3.346 6.691a1.25 1.25 0 0 0 1.118 1.809h7.528a1.25 1.25 0 0 0 1.118-1.809L16.536 8.75Z" fill="#868686"/>
</svg>
