<svg width="24" height="24" fill="none" xmlns="http://www.w3.org/2000/svg">
    <path fill-rule="evenodd" clip-rule="evenodd" d="M6 2.75a1.25 1.25 0 1 0 0 2.5 1.25 1.25 0 0 0 0-2.5ZM3.25 4a2.75 2.75 0 1 1 5.5 0 2.75 2.75 0 0 1-5.5 0Z" fill="#868686"/>
    <path fill-rule="evenodd" clip-rule="evenodd" d="M4.295 7.21c-.41.272-.545.567-.545.79 0 .223.136.518.545.79.403.27 1.004.46 1.705.46.701 0 1.302-.19 1.705-.46.41-.272.545-.566.545-.79 0-.223-.136-.518-.545-.79-.403-.27-1.004-.46-1.705-.46-.701 0-1.302.19-1.705.46Zm-.832-1.248C4.145 5.507 5.044 5.25 6 5.25s1.855.257 2.537.712C9.214 6.413 9.75 7.119 9.75 8c0 .881-.536 1.587-1.213 2.038-.682.455-1.581.712-2.537.712s-1.855-.257-2.537-.712C2.786 9.587 2.25 8.881 2.25 8c0-.881.536-1.587 1.213-2.038ZM18 14.75a1.25 1.25 0 1 0 0 2.5 1.25 1.25 0 0 0 0-2.5ZM15.25 16a2.75 2.75 0 1 1 5.5 0 2.75 2.75 0 0 1-5.5 0ZM11.25 2a.75.75 0 0 1 .75-.75c5.937 0 10.75 4.813 10.75 10.75a.75.75 0 0 1-1.5 0A9.25 9.25 0 0 0 12 2.75a.75.75 0 0 1-.75-.75ZM2 11.25a.75.75 0 0 1 .75.75A9.25 9.25 0 0 0 12 21.25a.75.75 0 0 1 0 1.5C6.063 22.75 1.25 17.937 1.25 12a.75.75 0 0 1 .75-.75Z" fill="#868686"/>
    <path fill-rule="evenodd" clip-rule="evenodd" d="M16.295 19.21c-.41.272-.545.566-.545.79 0 .224.136.518.545.79.403.27 1.004.46 1.705.46.701 0 1.302-.19 1.705-.46.41-.272.545-.566.545-.79 0-.224-.136-.518-.545-.79-.403-.27-1.004-.46-1.705-.46-.701 0-1.302.19-1.705.46Zm-.832-1.248c.682-.455 1.581-.712 2.537-.712s1.855.257 2.537.712c.677.451 1.213 1.157 1.213 2.038 0 .881-.536 1.587-1.213 2.038-.682.455-1.581.712-2.537.712s-1.855-.257-2.537-.712c-.677-.451-1.213-1.157-1.213-2.038 0-.881.536-1.587 1.213-2.038Z" fill="#868686"/>
</svg>
