<svg width="24" height="24" fill="none" xmlns="http://www.w3.org/2000/svg">
    <path fill-rule="evenodd" clip-rule="evenodd" d="M3.25 6A4.75 4.75 0 0 1 8 1.25h8A4.75 4.75 0 0 1 20.75 6v12A4.75 4.75 0 0 1 16 22.75H8A4.75 4.75 0 0 1 3.25 18V6ZM8 2.75A3.25 3.25 0 0 0 4.75 6v12A3.25 3.25 0 0 0 8 21.25h8A3.25 3.25 0 0 0 19.25 18V6A3.25 3.25 0 0 0 16 2.75H8Zm4 9a3.25 3.25 0 1 0 0 6.5 3.25 3.25 0 0 0 0-6.5ZM7.25 15a4.75 4.75 0 1 1 9.5 0 4.75 4.75 0 0 1-9.5 0Z" fill="#868686"/>
    <path d="M13 15a1 1 0 1 0-2 0 1 1 0 0 0 2 0ZM13.5 6.5a1.5 1.5 0 1 1-3 0 1.5 1.5 0 0 1 3 0Z" fill="#868686"/>
</svg>
