<svg width="24" height="24" fill="none" xmlns="http://www.w3.org/2000/svg">
    <path d="M17 7.75a.75.75 0 0 0 0-1.5H7a.75.75 0 0 0 0 1.5h10ZM17 11.75a.75.75 0 0 0 0-1.5H7a.75.75 0 0 0 0 1.5h10ZM12.75 15a.75.75 0 0 1-.75.75H7a.75.75 0 0 1 0-1.5h5a.75.75 0 0 1 .75.75Z" fill="#868686"/>
    <path fill-rule="evenodd" clip-rule="evenodd" d="M5 1.25A2.75 2.75 0 0 0 2.25 4v15.154a2.75 2.75 0 0 0 3.681 2.588l1.562-.562c.305-.11.641-.097.937.036l2.441 1.099a2.75 2.75 0 0 0 2.258 0l2.441-1.1a1.25 1.25 0 0 1 .937-.035l1.561.562a2.75 2.75 0 0 0 3.682-2.588V4A2.75 2.75 0 0 0 19 1.25H5ZM3.75 4c0-.69.56-1.25 1.25-1.25h14c.69 0 1.25.56 1.25 1.25v15.154a1.25 1.25 0 0 1-1.673 1.177l-1.562-.563a2.75 2.75 0 0 0-2.06.08l-2.442 1.099a1.25 1.25 0 0 1-1.026 0l-2.442-1.1a2.75 2.75 0 0 0-2.06-.079l-1.562.563a1.25 1.25 0 0 1-1.673-1.177V4Z" fill="#868686"/>
</svg>
