<svg width="24" height="24" fill="none" xmlns="http://www.w3.org/2000/svg">
    <path fill-rule="evenodd" clip-rule="evenodd" d="M8.25 4A2.75 2.75 0 0 1 11 1.25h2A2.75 2.75 0 0 1 15.75 4v.834a6.751 6.751 0 0 1 4 6.166v.325c1.712.348 3 1.86 3 3.675v3A2.75 2.75 0 0 1 20 20.75h-1a.763.763 0 0 1-.12-.01A4.744 4.744 0 0 1 15 22.75H9a4.744 4.744 0 0 1-3.88-2.01.763.763 0 0 1-.12.01H4A2.75 2.75 0 0 1 1.25 18v-3a3.751 3.751 0 0 1 3-3.675V11a6.751 6.751 0 0 1 4-6.166V4Zm1.5.366A6.788 6.788 0 0 1 11 4.25h2c.427 0 .845.04 1.25.116V4c0-.69-.56-1.25-1.25-1.25h-2c-.69 0-1.25.56-1.25 1.25v.366Zm-4 10.464c2.338-1.032 4.277-1.58 6.25-1.58 1.973 0 3.912.548 6.25 1.58V11c0-2.9-2.35-5.25-5.25-5.25h-2A5.25 5.25 0 0 0 5.75 11v3.83Zm14 1.187v-3.139A2.251 2.251 0 0 1 21.25 15v3c0 .69-.56 1.25-1.25 1.25h-.25v-3.233Zm-1.5.46c-2.545-1.179-4.418-1.727-6.25-1.727-1.832 0-3.705.548-6.25 1.726V18A3.25 3.25 0 0 0 9 21.25h6A3.25 3.25 0 0 0 18.25 18v-1.524Zm-14-.493v3.266H4c-.69 0-1.25-.56-1.25-1.25v-3c0-.98.626-1.813 1.5-2.122v3.106Zm6-5.984a.75.75 0 0 1 .75-.75h2a.75.75 0 0 1 0 1.5h-2a.75.75 0 0 1-.75-.75Z" fill="#868686"/>
</svg>
