<svg width="24" height="24" fill="none" xmlns="http://www.w3.org/2000/svg">
    <path d="M11.505 7.928a.25.25 0 0 1 .239-.178H21a.75.75 0 0 0 0-1.5h-9.256a1.75 1.75 0 0 0-1.676 1.247l-2.217 7.39a.25.25 0 0 1-.44.078L5.9 12.95c-.33-.44-.85-.7-1.4-.7H3a.75.75 0 0 0 0 1.5h1.5a.25.25 0 0 1 .2.1l1.511 2.015c.862 1.149 2.664.828 3.077-.547l2.217-7.39Z" fill="#868686"/>
    <path d="M18.652 12.288a.75.75 0 0 0-1.061-1.061L16 12.818l-1.591-1.591a.75.75 0 0 0-1.06 1.06l1.59 1.592-1.59 1.59a.75.75 0 0 0 1.06 1.061L16 14.94l1.591 1.59a.75.75 0 1 0 1.06-1.06l-1.59-1.591 1.59-1.591Z" fill="#868686"/>
</svg>
