<svg width="24" height="24" fill="none" xmlns="http://www.w3.org/2000/svg">
    <path d="M5.25 6A4.75 4.75 0 0 1 10 1.25h4A4.75 4.75 0 0 1 18.75 6v7a.75.75 0 0 1-1.5 0V6A3.25 3.25 0 0 0 14 2.75h-4A3.25 3.25 0 0 0 6.75 6v12A3.25 3.25 0 0 0 10 21.25h8a.75.75 0 0 1 0 1.5h-8A4.75 4.75 0 0 1 5.25 18V6Z" fill="#868686"/>
    <path d="M20.5 19h-7a1.5 1.5 0 0 1 0-3h7a1.5 1.5 0 0 1 0 3ZM12 6.5A.75.75 0 1 0 12 5a.75.75 0 0 0 0 1.5ZM10 5.75a.75.75 0 1 1-1.5 0 .75.75 0 0 1 1.5 0ZM14.75 6.5a.75.75 0 1 0 0-1.5.75.75 0 0 0 0 1.5ZM12.75 8.75a.75.75 0 1 1-1.5 0 .75.75 0 0 1 1.5 0ZM12 12.5a.75.75 0 1 0 0-1.5.75.75 0 0 0 0 1.5ZM10 8.75a.75.75 0 1 1-1.5 0 .75.75 0 0 1 1.5 0ZM9.25 12.5a.75.75 0 1 0 0-1.5.75.75 0 0 0 0 1.5ZM15.5 8.75a.75.75 0 1 1-1.5 0 .75.75 0 0 1 1.5 0ZM14.75 12.5a.75.75 0 1 0 0-1.5.75.75 0 0 0 0 1.5Z" fill="#868686"/>
</svg>
