<svg width="24" height="24" fill="none" xmlns="http://www.w3.org/2000/svg">
    <path fill-rule="evenodd" clip-rule="evenodd" d="M12.25 7a.75.75 0 0 1 1.5 0v2.19l2.72-2.72a.75.75 0 1 1 1.06 1.06l-2.72 2.72H17a.75.75 0 0 1 0 1.5h-4a.75.75 0 0 1-.75-.75V7ZM7 13.75a.75.75 0 0 1 0-1.5h4a.75.75 0 0 1 .75.75v4a.75.75 0 0 1-1.5 0v-2.19l-2.72 2.72a.75.75 0 0 1-1.06-1.06l2.72-2.72H7Z" fill="#868686"/>
    <path fill-rule="evenodd" clip-rule="evenodd" d="M1.25 6A4.75 4.75 0 0 1 6 1.25h12A4.75 4.75 0 0 1 22.75 6v12A4.75 4.75 0 0 1 18 22.75H6A4.75 4.75 0 0 1 1.25 18V6ZM6 2.75A3.25 3.25 0 0 0 2.75 6v12A3.25 3.25 0 0 0 6 21.25h12A3.25 3.25 0 0 0 21.25 18V6A3.25 3.25 0 0 0 18 2.75H6Z" fill="#868686"/>
</svg>
