<svg width="24" height="24" fill="none" xmlns="http://www.w3.org/2000/svg">
    <path d="M1.25 6A4.75 4.75 0 0 1 6 1.25h12A4.75 4.75 0 0 1 22.75 6v7.111a.75.75 0 0 1-1.5 0V6A3.25 3.25 0 0 0 18 2.75H6A3.25 3.25 0 0 0 2.75 6v12A3.25 3.25 0 0 0 6 21.25h7.111a.75.75 0 0 1 0 1.5H6A4.75 4.75 0 0 1 1.25 18V6Z" fill="#868686"/>
    <path d="M22.75 18a.75.75 0 0 1-.75.75h-6a.75.75 0 0 1 0-1.5h6a.75.75 0 0 1 .75.75ZM12 5.25a.75.75 0 0 1 .75.75v4.145a2 2 0 1 1-1.531 3.697L9.53 15.53a.75.75 0 0 1-1.06-1.06l1.688-1.689a2 2 0 0 1 1.092-2.636V6a.75.75 0 0 1 .75-.75Z" fill="#868686"/>
</svg>
