<svg width="24" height="24" fill="none" xmlns="http://www.w3.org/2000/svg">
    <path d="M8.25 11a.75.75 0 0 1 .75-.75h1.5l-2.1-2.8a.75.75 0 0 1 1.2-.9l2.4 3.2 2.4-3.2a.75.75 0 0 1 1.2.9l-2.1 2.8H15a.75.75 0 0 1 0 1.5h-2.25v1.5H15a.75.75 0 0 1 0 1.5h-2.25V17a.75.75 0 0 1-1.5 0v-2.25H9a.75.75 0 0 1 0-1.5h2.25v-1.5H9a.75.75 0 0 1-.75-.75Z" fill="#868686"/>
    <path fill-rule="evenodd" clip-rule="evenodd" d="M1.25 8A4.75 4.75 0 0 1 6 3.25h12A4.75 4.75 0 0 1 22.75 8v8A4.75 4.75 0 0 1 18 20.75H6A4.75 4.75 0 0 1 1.25 16V8ZM6 4.75A3.25 3.25 0 0 0 2.75 8v8A3.25 3.25 0 0 0 6 19.25h12A3.25 3.25 0 0 0 21.25 16V8A3.25 3.25 0 0 0 18 4.75H6Z" fill="#868686"/>
</svg>
