<svg width="24" height="24" fill="none" xmlns="http://www.w3.org/2000/svg">
    <path d="M13.945 4.179a.75.75 0 1 0-1.06-1.06L12 4.001l-.884-.884a.75.75 0 0 0-1.06 1.06l.883.885-.884.884a.75.75 0 0 0 1.06 1.06l.885-.884.884.884a.75.75 0 0 0 1.06-1.06l-.884-.884.884-.884ZM4.016 6.086l7.96 3.992-1.944 2.987-8.003-4.022 1.987-2.957ZM11.976 10.078l8.015-3.966L22.018 9.1l-8.02 3.965-2.022-2.987Z" fill="#868686"/>
    <path d="M4 11.74v5.087a2 2 0 0 0 1.106 1.788l6 3a2 2 0 0 0 1.789 0l6-3a2 2 0 0 0 1.106-1.788V11.74l-5.33 2.664a1.5 1.5 0 0 1-1.918-.51L12 12.768l-.752 1.128a1.5 1.5 0 0 1-1.92.51L4.002 11.74Z" fill="#868686"/>
</svg>
