<svg width="24" height="24" fill="none" xmlns="http://www.w3.org/2000/svg">
    <path d="M8 5.25A2.75 2.75 0 0 0 5.25 8v8A2.75 2.75 0 0 0 8 18.75h8A2.75 2.75 0 0 0 18.75 16v-1a.75.75 0 0 0-1.5 0v1c0 .69-.56 1.25-1.25 1.25H8c-.69 0-1.25-.56-1.25-1.25V8c0-.69.56-1.25 1.25-1.25h8c.69 0 1.25.56 1.25 1.25v1a.75.75 0 0 0 1.5 0V8A2.75 2.75 0 0 0 16 5.25H8Z" fill="#868686"/>
    <path fill-rule="evenodd" clip-rule="evenodd" d="M14.122 11.25a2.251 2.251 0 1 0 0 1.5H18a.75.75 0 0 0 0-1.5h-3.878ZM12 12.75a.75.75 0 1 1 0-1.5.75.75 0 0 1 0 1.5Z" fill="#868686"/>
    <path fill-rule="evenodd" clip-rule="evenodd" d="M6 1.25A4.75 4.75 0 0 0 1.25 6v12A4.75 4.75 0 0 0 6 22.75h12A4.75 4.75 0 0 0 22.75 18V6A4.75 4.75 0 0 0 18 1.25H6ZM2.75 6A3.25 3.25 0 0 1 6 2.75h12A3.25 3.25 0 0 1 21.25 6v12A3.25 3.25 0 0 1 18 21.25H6A3.25 3.25 0 0 1 2.75 18V6Z" fill="#868686"/>
</svg>
