<svg width="24" height="24" fill="none" xmlns="http://www.w3.org/2000/svg">
    <path fill-rule="evenodd" clip-rule="evenodd" d="M7 2.75c-.69 0-1.25.56-1.25 1.25v2.416A4.755 4.755 0 0 1 7 6.25h1.897a4.75 4.75 0 0 1 2.798.912l1.494 1.089a3.25 3.25 0 0 0 1.915.624H17c.433 0 .852.058 1.25.166V4c0-.69-.56-1.25-1.25-1.25H7Zm12.75 7.002V4A2.75 2.75 0 0 0 17 1.25H7A2.75 2.75 0 0 0 4.25 4v3.127c-1.21.86-2 2.275-2 3.873v7A4.75 4.75 0 0 0 7 22.75h10A4.75 4.75 0 0 0 21.75 18v-4.375c0-1.598-.79-3.012-2-3.873ZM7 7.75A3.25 3.25 0 0 0 3.75 11v7A3.25 3.25 0 0 0 7 21.25h10A3.25 3.25 0 0 0 20.25 18v-4.375a3.25 3.25 0 0 0-3.25-3.25h-1.896a4.75 4.75 0 0 1-2.8-.912l-1.493-1.089a3.25 3.25 0 0 0-1.914-.624H7Z" fill="#868686"/>
</svg>
