<svg width="24" height="24" fill="none" xmlns="http://www.w3.org/2000/svg">
    <path d="M22 7.25h-6.543l3.641-5.097A4.002 4.002 0 0 1 22 6v1.25Z" fill="#868686"/>
    <path fill-rule="evenodd" clip-rule="evenodd" d="M2 8.75h20V18a4 4 0 0 1-4 4H6a4 4 0 0 1-4-4V8.75Zm13.565 4.744a.75.75 0 0 0-1.13-.988l-2.87 3.28a.25.25 0 0 1-.344.03L9.47 14.415a.75.75 0 1 0-.937 1.172l1.752 1.402a1.75 1.75 0 0 0 2.41-.214l2.87-3.28Z" fill="#868686"/>
    <path d="M5.614 7.25H2V6a4 4 0 0 1 4-4h3.364l-3.75 5.25ZM7.457 7.25 11.207 2h6.157l-3.75 5.25H7.457Z" fill="#868686"/>
</svg>
