<svg width="24" height="24" fill="none" xmlns="http://www.w3.org/2000/svg">
    <path fill-rule="evenodd" clip-rule="evenodd" d="M9.75 3c0-.966.783-1.75 1.75-1.75h1c.966 0 1.75.784 1.75 1.75v1.639l1.006-.581a1.75 1.75 0 0 1 1.328-.175l2.732.732a1.75 1.75 0 0 1 1.238 2.143l-.732 2.732a1.75 1.75 0 0 1-.816 1.063l-4.757 2.746V21a1.75 1.75 0 0 1-1.75 1.75h-1A1.75 1.75 0 0 1 9.75 21v-5.103l-2.508 1.449a1.75 1.75 0 0 1-2.391-.64l-2-3.465a1.75 1.75 0 0 1 .64-2.39l6.26-3.614V3Zm1.5 3.37 1.5-.865V3a.25.25 0 0 0-.25-.25h-1a.25.25 0 0 0-.25.25v3.37Zm0 8.661V21c0 .138.111.25.25.25h1a.25.25 0 0 0 .25-.25v-6.835l-1.5.866Zm4.946-9.7a.25.25 0 0 0-.19.026L4.241 12.149a.25.25 0 0 0-.092.342l2 3.464a.25.25 0 0 0 .342.092l11.765-6.793a.25.25 0 0 0 .117-.152l.732-2.732a.25.25 0 0 0-.177-.306l-2.732-.732Z" fill="#868686"/>
</svg>
