<svg width="24" height="24" fill="none" xmlns="http://www.w3.org/2000/svg">
    <path fill-rule="evenodd" clip-rule="evenodd" d="M10 3.75c-.69 0-1.25.56-1.25 1.25v3a.75.75 0 0 1-1.5 0V5A2.75 2.75 0 0 1 10 2.25h10A2.75 2.75 0 0 1 22.75 5v8A2.75 2.75 0 0 1 20 15.75h-3.26a.75.75 0 0 1 0-1.5H20c.69 0 1.25-.56 1.25-1.25V5c0-.69-.56-1.25-1.25-1.25H10ZM11.25 7a.75.75 0 0 1 .75-.75h6a.75.75 0 1 1 0 1.5h-6a.75.75 0 0 1-.75-.75ZM8 11.75a1.25 1.25 0 1 0 0 2.5 1.25 1.25 0 0 0 0-2.5ZM5.25 13a2.75 2.75 0 1 1 5.5 0 2.75 2.75 0 0 1-5.5 0Zm9.063 1.318a.75.75 0 0 1 .369.995c-.605 1.32-2.75 3.71-6.682 3.71-3.34 0-4.981 1.681-5.343 2.338a.75.75 0 1 1-1.314-.722c.638-1.161 2.798-3.116 6.657-3.116 3.268 0 4.923-1.974 5.318-2.835a.75.75 0 0 1 .995-.37Z" fill="#868686"/>
    <path fill-rule="evenodd" clip-rule="evenodd" d="M14.25 11a.75.75 0 0 1 .75-.75h3a.75.75 0 0 1 0 1.5h-3a.75.75 0 0 1-.75-.75Z" fill="#868686"/>
</svg>
