<svg width="24" height="24" fill="none" xmlns="http://www.w3.org/2000/svg">
    <path d="M9.406 2.892A2 2 0 0 1 11.07 2h1.86a2 2 0 0 1 1.664.89l.906 1.36h3.75a.75.75 0 0 1 0 1.5H4.75a.75.75 0 0 1 0-1.5H8.5l.906-1.36Z" fill="#868686"/>
    <path fill-rule="evenodd" clip-rule="evenodd" d="M15 22.001H9a4 4 0 0 1-4-4v-11h14v11a4 4 0 0 1-4 4Zm-5-11.75a.75.75 0 0 1 .75.75v7a.75.75 0 0 1-1.5 0v-7a.75.75 0 0 1 .75-.75Zm4 0a.75.75 0 0 1 .75.75v7a.75.75 0 0 1-1.5 0v-7a.75.75 0 0 1 .75-.75Z" fill="#868686"/>
</svg>
