<svg width="24" height="24" fill="none" xmlns="http://www.w3.org/2000/svg">
    <path fill-rule="evenodd" clip-rule="evenodd" d="M12 2.75a9.25 9.25 0 1 0 0 18.5 9.25 9.25 0 0 0 0-18.5ZM1.25 12C1.25 6.063 6.063 1.25 12 1.25S22.75 6.063 22.75 12 17.937 22.75 12 22.75 1.25 17.937 1.25 12Z" fill="#868686"/>
    <path fill-rule="evenodd" clip-rule="evenodd" d="M7.47 12.53a.75.75 0 0 1 0-1.06l3-3a.75.75 0 1 1 1.06 1.06l-1.72 1.72H16a.75.75 0 0 1 0 1.5H9.81l1.72 1.72a.75.75 0 1 1-1.06 1.06l-3-3Z" fill="#868686"/>
</svg>
