<svg width="24" height="24" fill="none" xmlns="http://www.w3.org/2000/svg">
    <path fill-rule="evenodd" clip-rule="evenodd" d="M12 2.75A9.25 9.25 0 1 0 21.25 12a.75.75 0 0 1 1.5 0c0 5.937-4.813 10.75-10.75 10.75S1.25 17.937 1.25 12 6.063 1.25 12 1.25a10.72 10.72 0 0 1 7.707 3.256l.581-1.743a.75.75 0 1 1 1.424.474l-1 3a.75.75 0 0 1-1.312.213 9.235 9.235 0 0 0-7.4-3.7Zm-3.75 7.677c0-1.673 1.76-2.76 3.256-2.012l3.146 1.573c1.659.829 1.659 3.195 0 4.024l-3.146 1.573c-1.496.748-3.256-.34-3.256-2.012v-3.146Zm2.585-.67a.75.75 0 0 0-1.085.67v3.146a.75.75 0 0 0 1.085.67l3.146-1.572a.75.75 0 0 0 0-1.342l-3.146-1.573Z" fill="#868686"/>
</svg>
