<svg width="24" height="24" fill="none" xmlns="http://www.w3.org/2000/svg">
    <path fill-rule="evenodd" clip-rule="evenodd" d="M1.25 6A4.75 4.75 0 0 1 6 1.25h12A4.75 4.75 0 0 1 22.75 6v7a.75.75 0 0 1-1.5 0V6A3.25 3.25 0 0 0 18 2.75h-1.25v6.836c0 1.559-1.885 2.34-2.987 1.237l-1.586-1.586a.25.25 0 0 0-.354 0l-1.586 1.586c-1.102 1.103-2.987.322-2.987-1.237V2.75H6A3.25 3.25 0 0 0 2.75 6v12A3.25 3.25 0 0 0 6 21.25h7a.75.75 0 0 1 0 1.5H6A4.75 4.75 0 0 1 1.25 18V6Zm7.927 3.763a.25.25 0 0 1-.427-.177V2.75h6.5v6.836a.25.25 0 0 1-.427.177l-1.586-1.586a1.75 1.75 0 0 0-2.474 0L9.177 9.763Z" fill="#868686"/>
    <path fill-rule="evenodd" clip-rule="evenodd" d="M14.554 16.204a2.625 2.625 0 0 0 0 3.713l1.856 1.856a2.25 2.25 0 0 0 3.182 0l1.856-1.856a2.625 2.625 0 0 0-3.447-3.945 2.626 2.626 0 0 0-3.447.232Zm1.06 2.652a1.125 1.125 0 1 1 1.592-1.59l.265.264a.75.75 0 0 0 1.06 0l.266-.265a1.125 1.125 0 1 1 1.59 1.591l-1.855 1.856a.75.75 0 0 1-1.061 0l-1.856-1.856Z" fill="#868686"/>
</svg>
