<svg width="24" height="24" fill="none" xmlns="http://www.w3.org/2000/svg">
    <path fill-rule="evenodd" clip-rule="evenodd" d="M17.591 2.75a.841.841 0 0 0-.841.841v.075c0 .208.07.41.2.572l1.855 2.317c.1.125.29.125.39 0l1.854-2.317c.13-.163.201-.364.201-.572V3.59a.841.841 0 0 0-1.436-.595l-.284.284a.75.75 0 0 1-1.06 0l-.284-.284a.841.841 0 0 0-.595-.246Zm-2.341.841A2.341 2.341 0 0 1 19 1.721a2.341 2.341 0 0 1 3.75 1.87v.075c0 .548-.187 1.08-.53 1.509l-1.854 2.317a1.75 1.75 0 0 1-2.732 0l-1.855-2.317a2.416 2.416 0 0 1-.529-1.51v-.074ZM1.25 11A3.75 3.75 0 0 1 5 7.25h10A3.75 3.75 0 0 1 18.75 11v8A3.75 3.75 0 0 1 15 22.75H5A3.75 3.75 0 0 1 1.25 19v-8ZM5 8.75A2.25 2.25 0 0 0 2.75 11v8A2.25 2.25 0 0 0 5 21.25h10A2.25 2.25 0 0 0 17.25 19v-8A2.25 2.25 0 0 0 15 8.75H5Zm.4 3.8a.75.75 0 0 1 1.05-.15l2.2 1.65c.8.6 1.9.6 2.7 0l2.2-1.65a.75.75 0 1 1 .9 1.2l-2.2 1.65a3.75 3.75 0 0 1-4.5 0l-2.2-1.65a.75.75 0 0 1-.15-1.05Z" fill="#868686"/>
</svg>
