<svg width="24" height="24" fill="none" xmlns="http://www.w3.org/2000/svg">
    <path fill-rule="evenodd" clip-rule="evenodd" d="M16 13.75c-.69 0-1.25.56-1.25 1.25v1a.75.75 0 0 1-1.5 0v-1a2.75 2.75 0 1 1 5.5 0v1a.75.75 0 0 1-1.5 0v-1c0-.69-.56-1.25-1.25-1.25Z" fill="#868686"/>
    <path fill-rule="evenodd" clip-rule="evenodd" d="M11.25 18A2.75 2.75 0 0 1 14 15.25h4A2.75 2.75 0 0 1 20.75 18v2A2.75 2.75 0 0 1 18 22.75h-4A2.75 2.75 0 0 1 11.25 20v-2ZM14 16.75c-.69 0-1.25.56-1.25 1.25v2c0 .69.56 1.25 1.25 1.25h4c.69 0 1.25-.56 1.25-1.25v-2c0-.69-.56-1.25-1.25-1.25h-4Z" fill="#868686"/>
    <path fill-rule="evenodd" clip-rule="evenodd" d="M3.25 5A3.75 3.75 0 0 1 7 1.25h8A3.75 3.75 0 0 1 18.75 5v5a.75.75 0 0 1-1.5 0V5A2.25 2.25 0 0 0 15 2.75H7A2.25 2.25 0 0 0 4.75 5v14A2.25 2.25 0 0 0 7 21.25h2a.75.75 0 0 1 0 1.5H7A3.75 3.75 0 0 1 3.25 19V5Z" fill="#868686"/>
</svg>
