<svg width="24" height="24" fill="none" xmlns="http://www.w3.org/2000/svg">
    <path fill-rule="evenodd" clip-rule="evenodd" d="M5.25 4A2.75 2.75 0 0 1 8 1.25h8A2.75 2.75 0 0 1 18.75 4v8A2.75 2.75 0 0 1 16 14.75H8A2.75 2.75 0 0 1 5.25 12V4ZM8 2.75c-.69 0-1.25.56-1.25 1.25v8c0 .69.56 1.25 1.25 1.25h8c.69 0 1.25-.56 1.25-1.25V4c0-.69-.56-1.25-1.25-1.25H8Z" fill="#868686"/>
    <path fill-rule="evenodd" clip-rule="evenodd" d="M13.75 5a.75.75 0 0 1-.75.75h-2a.75.75 0 0 1 0-1.5h2a.75.75 0 0 1 .75.75ZM1.371 15.724c-.469-1.22.464-2.474 1.733-2.474.486 0 .955.188 1.304.529l1.55 1.513c.627.611 1.48.958 2.374.958h8.898c1.28 0 2.51.496 3.421 1.385l1.449 1.414c.414.404.65.957.65 1.537 0 1.212-1.002 2.164-2.199 2.164H7.425c-2.01 0-3.822-1.217-4.537-3.077l-1.517-3.95Zm1.733-.974c-.271 0-.405.248-.333.436l1.518 3.95c.485 1.263 1.73 2.114 3.136 2.114h13.126a.682.682 0 0 0 .7-.664c0-.17-.07-.337-.2-.463l-1.448-1.415a3.399 3.399 0 0 0-2.373-.958H8.332c-1.28 0-2.511-.496-3.422-1.385l-1.55-1.513a.367.367 0 0 0-.256-.102Z" fill="#868686"/>
</svg>
