<svg width="24" height="24" fill="none" xmlns="http://www.w3.org/2000/svg">
    <path fill-rule="evenodd" clip-rule="evenodd" d="M1.25 6A4.75 4.75 0 0 1 6 1.25h12A4.75 4.75 0 0 1 22.75 6v12A4.75 4.75 0 0 1 18 22.75H6A4.75 4.75 0 0 1 1.25 18V6Zm1.5 1.75V18A3.25 3.25 0 0 0 6 21.25h12A3.25 3.25 0 0 0 21.25 18V7.75H2.75Zm18.5-1.5H2.75V6A3.25 3.25 0 0 1 6 2.75h12A3.25 3.25 0 0 1 21.25 6v.25Zm-16 6.368a1.75 1.75 0 0 1 2.533-1.565l2.764 1.382c1.29.645 1.29 2.485 0 3.13l-2.764 1.382a1.75 1.75 0 0 1-2.533-1.565v-2.764Zm1.862-.224a.25.25 0 0 0-.362.224v2.764a.25.25 0 0 0 .362.224l2.764-1.382a.25.25 0 0 0 0-.448l-2.764-1.382ZM13.25 12a.75.75 0 0 1 .75-.75h4a.75.75 0 0 1 0 1.5h-4a.75.75 0 0 1-.75-.75Zm0 4a.75.75 0 0 1 .75-.75h4a.75.75 0 0 1 0 1.5h-4a.75.75 0 0 1-.75-.75Z" fill="#868686"/>
</svg>
