<svg width="24" height="24" fill="none" xmlns="http://www.w3.org/2000/svg">
    <path fill-rule="evenodd" clip-rule="evenodd" d="M4.298 2.641A4.75 4.75 0 0 1 7.657 1.25h8.686c1.26 0 2.468.5 3.359 1.391l1.657 1.657a4.75 4.75 0 0 1 1.391 3.359V18A4.75 4.75 0 0 1 18 22.75H6A4.75 4.75 0 0 1 1.25 18V7.657c0-1.26.5-2.468 1.391-3.359l1.657-1.657Zm3.359.109a3.25 3.25 0 0 0-2.298.952L3.702 5.359a3.25 3.25 0 0 0-.952 2.298V18A3.25 3.25 0 0 0 6 21.25h12A3.25 3.25 0 0 0 21.25 18V7.657a3.25 3.25 0 0 0-.952-2.298l-1.657-1.657a3.25 3.25 0 0 0-2.298-.952H7.657Z" fill="#868686"/>
    <path fill-rule="evenodd" clip-rule="evenodd" d="M1.75 7a.75.75 0 0 1 .75-.75h19a.75.75 0 0 1 0 1.5h-19A.75.75 0 0 1 1.75 7Z" fill="#868686"/>
    <path fill-rule="evenodd" clip-rule="evenodd" d="M8.25 7A.75.75 0 0 1 9 6.25h6a.75.75 0 0 1 .75.75v6a.75.75 0 0 1-1.166.624L12 11.901l-2.584 1.723A.75.75 0 0 1 8.25 13V7Zm1.5.75v3.849l1.834-1.223a.75.75 0 0 1 .832 0l1.834 1.223V7.75h-4.5Z" fill="#868686"/>
</svg>
