<svg width="24" height="24" fill="none" xmlns="http://www.w3.org/2000/svg">
    <path d="M20.645 15.88c.236-.165.45-.322.633-.46A1.86 1.86 0 0 0 22 13.923v-9.67c0-.853-1.028-1.347-1.736-.871-1 .672-2.297 1.42-3.514 1.747V11l1.317-.44c2.017-.671 3.936 1.247 3.263 3.264l-.685 2.057ZM8.75 14.442c.146-.29.348-.555.605-.776.253-.217.548-.384.874-.492L15.25 11.5V5.288c-1.278-.107-2.264-.857-3.25-1.607-.986-.75-1.972-1.5-3.25-1.607v12.368ZM2.722 4.703c.99-.747 2.836-2.015 4.528-2.47v12.76c-1.217.327-2.514 1.075-3.514 1.747-.708.476-1.736-.019-1.736-.872v-9.67c0-.585.255-1.142.722-1.495Z" fill="#868686"/>
    <path d="m13.597 17.61-2.894-.964c-.84-.28-.963-1.334-.371-1.842a1.1 1.1 0 0 1 .371-.208l7.838-2.612a1.08 1.08 0 0 1 1.366 1.366l-2.612 7.838c-.329.985-1.722.985-2.05 0l-.964-2.894a1.08 1.08 0 0 0-.684-.683Z" fill="#868686"/>
</svg>
