<svg width="24" height="24" fill="none" xmlns="http://www.w3.org/2000/svg">
    <path fill-rule="evenodd" clip-rule="evenodd" d="M11.47 2.983a.75.75 0 0 1 1.06 0l7.072 7.071a2.75 2.75 0 0 1 0 3.89l-3.535 3.535a.75.75 0 0 1-1.061-1.06l3.535-3.536a1.25 1.25 0 0 0 0-1.768l-7.07-7.071a.75.75 0 0 1 0-1.06ZM12.53 21.016a.75.75 0 0 1-1.06 0l-7.07-7.07a2.75 2.75 0 0 1 0-3.89l3.535-3.535a.75.75 0 0 1 1.06 1.06L5.46 11.117a1.25 1.25 0 0 0 0 1.768l7.07 7.07a.75.75 0 0 1 0 1.061Z" fill="#868686"/>
    <path fill-rule="evenodd" clip-rule="evenodd" d="M14.829 14.078a.75.75 0 0 1 .75.75v1.829c0 .138.112.25.25.25h1.828a.75.75 0 1 1 0 1.5H15.83a1.75 1.75 0 0 1-1.75-1.75v-1.829a.75.75 0 0 1 .75-.75ZM9.172 9.922a.75.75 0 0 1-.75-.75V7.343a.25.25 0 0 0-.25-.25H6.344a.75.75 0 0 1 0-1.5h1.828c.967 0 1.75.784 1.75 1.75v1.829a.75.75 0 0 1-.75.75Z" fill="#868686"/>
</svg>
