<svg width="24" height="24" fill="none" xmlns="http://www.w3.org/2000/svg">
    <path fill-rule="evenodd" clip-rule="evenodd" d="M7.354 3.25a2.751 2.751 0 0 1 2.646-2h4c1.259 0 2.32.846 2.646 2H17A4.75 4.75 0 0 1 21.75 8v10A4.75 4.75 0 0 1 17 22.75H7A4.75 4.75 0 0 1 2.25 18V8A4.75 4.75 0 0 1 7 3.25h.354Zm0 1.5H7A3.25 3.25 0 0 0 3.75 8v10A3.25 3.25 0 0 0 7 21.25h10A3.25 3.25 0 0 0 20.25 18V8A3.25 3.25 0 0 0 17 4.75h-.354a2.751 2.751 0 0 1-2.646 2h-4a2.751 2.751 0 0 1-2.646-2Zm2.646-2a1.25 1.25 0 1 0 0 2.5h4a1.25 1.25 0 1 0 0-2.5h-4Zm1.204 9.697a1.125 1.125 0 0 0-1.59 1.591l1.856 1.856a.75.75 0 0 0 1.06 0l1.856-1.856a1.125 1.125 0 1 0-1.59-1.59l-.266.264a.75.75 0 0 1-1.06 0l-.266-.265ZM12 11.154A2.625 2.625 0 0 0 8.553 15.1l1.856 1.856a2.25 2.25 0 0 0 3.182 0l1.856-1.856A2.625 2.625 0 0 0 12 11.154Z" fill="#868686"/>
</svg>
