<svg width="24" height="24" fill="none" xmlns="http://www.w3.org/2000/svg">
    <path fill-rule="evenodd" clip-rule="evenodd" d="M21.239 3.96a1.05 1.05 0 0 0-1.2-1.198C13.482 3.684 8.292 8.873 7.37 15.43c-.007.05-.01.1-.01.15l4.177-4.178a.75.75 0 1 1 1.06 1.061L8.42 16.641c.049 0 .1-.004.15-.011a14.825 14.825 0 0 0 6.624-2.668.806.806 0 0 0 .318-.662 2.397 2.397 0 0 1 2.397-2.397c.28 0 .522-.124.662-.318a14.826 14.826 0 0 0 2.668-6.624ZM7.214 17.847c.457.242.996.35 1.565.27a16.325 16.325 0 0 0 7.293-2.938c.617-.446.94-1.158.94-1.878 0-.495.402-.897.897-.897.72 0 1.432-.323 1.878-.94a16.326 16.326 0 0 0 2.937-7.293 2.55 2.55 0 0 0-2.894-2.894C12.61 2.291 6.9 8.002 5.885 15.221c-.08.569.027 1.108.269 1.565L1.47 21.47a.75.75 0 1 0 1.06 1.06l4.684-4.684Z" fill="#868686"/>
</svg>
