<svg width="24" height="24" fill="none" xmlns="http://www.w3.org/2000/svg">
    <path fill-rule="evenodd" clip-rule="evenodd" d="M12 5.75a7.75 7.75 0 1 0 0 15.5.75.75 0 0 1 0 1.5 9.25 9.25 0 1 1 9.107-7.618.75.75 0 0 1-1.477-.264A7.75 7.75 0 0 0 12 5.75Z" fill="#868686"/>
    <path fill-rule="evenodd" clip-rule="evenodd" d="M12 2.75c-.97 0-1.908.135-2.796.386a.75.75 0 1 1-.408-1.444A11.758 11.758 0 0 1 12 1.25c1.11 0 2.185.154 3.204.442a.75.75 0 0 1-.408 1.444A10.258 10.258 0 0 0 12 2.75ZM20.494 17.436a.75.75 0 0 1 .07 1.058l-2.87 3.28a1.75 1.75 0 0 1-2.41.214l-1.753-1.402a.75.75 0 0 1 .938-1.172l1.752 1.403a.25.25 0 0 0 .345-.031l2.87-3.28a.75.75 0 0 1 1.058-.07ZM12 13.25a.75.75 0 1 0 0 1.5.75.75 0 0 0 0-1.5ZM9.75 14a2.25 2.25 0 1 1 4.5 0 2.25 2.25 0 0 1-4.5 0Z" fill="#868686"/>
    <path fill-rule="evenodd" clip-rule="evenodd" d="M12 8.25a.75.75 0 0 1 .75.75v3a.75.75 0 0 1-1.5 0V9a.75.75 0 0 1 .75-.75Z" fill="#868686"/>
</svg>
