<svg width="24" height="24" fill="none" xmlns="http://www.w3.org/2000/svg">
    <path fill-rule="evenodd" clip-rule="evenodd" d="M20 4.25a.75.75 0 0 1 .75.75v5.5a.75.75 0 0 1-1.5 0V5a.75.75 0 0 1 .75-.75Z" fill="#868686"/>
    <path fill-rule="evenodd" clip-rule="evenodd" d="M11.737 1.298a.75.75 0 0 1 .526 0l8 3a.75.75 0 0 1 0 1.404L16.75 7.02V9a4.75 4.75 0 1 1-9.5 0V7.02L3.737 5.702a.75.75 0 0 1 0-1.404l8-3ZM8.75 7.582V9a3.25 3.25 0 0 0 6.5 0V7.582l-2.987 1.12a.75.75 0 0 1-.526 0L8.75 7.582ZM6.136 5 12 7.199 17.864 5 12 2.801 6.136 5Zm2.414 9.425c.621-.183 1.26.019 1.684.447l1.588 1.607a.25.25 0 0 0 .356 0l1.588-1.607a1.698 1.698 0 0 1 1.684-.447c2.937.863 5.3 2.914 5.3 5.575v2a.75.75 0 0 1-1.5 0v-2c0-1.674-1.55-3.35-4.224-4.136-.049-.015-.126-.005-.193.063l-1.589 1.606a1.75 1.75 0 0 1-2.488 0l-1.589-1.606c-.067-.068-.144-.078-.193-.063C6.3 16.65 4.75 18.326 4.75 20v2a.75.75 0 0 1-1.5 0v-2c0-2.66 2.363-4.712 5.3-5.575Z" fill="#868686"/>
</svg>
