<svg width="24" height="24" fill="none" xmlns="http://www.w3.org/2000/svg">
    <path d="M17.59 17.476c.21-.703.34-1.426.34-2.1a5.59 5.59 0 0 0-1.18-3.444V5c1.217-.328 2.514-1.075 3.514-1.747.708-.476 1.736.019 1.736.872v9.67a1.86 1.86 0 0 1-.722 1.494c-.827.626-2.254 1.614-3.689 2.188ZM15.25 10.57A6.054 6.054 0 0 0 12 9.627a6.052 6.052 0 0 0-3.25.94V1.943c1.278.107 2.264.857 3.25 1.607.986.75 1.972 1.5 3.25 1.607v5.412ZM7.25 11.933a5.614 5.614 0 0 0-1.18 3.356c-.836.37-1.653.863-2.334 1.32C3.028 17.085 2 16.59 2 15.737v-9.67c0-.585.255-1.141.722-1.494.99-.748 2.836-2.016 4.528-2.472v9.832Z" fill="#868686"/>
    <path fill-rule="evenodd" clip-rule="evenodd" d="M16.145 17.493c.265-.754.416-1.493.416-2.117 0-2.419-2.042-4.38-4.561-4.38-2.337 0-4.264 1.688-4.53 3.863a4.25 4.25 0 0 0-.032.517c0 2.418 2.281 6.569 4.562 6.569 1.692 0 3.384-2.285 4.145-4.452ZM12 16.47a1.368 1.368 0 1 0 0-2.737 1.368 1.368 0 0 0 0 2.737Z" fill="#868686"/>
</svg>
