<svg width="24" height="24" fill="none" xmlns="http://www.w3.org/2000/svg">
    <path d="M20.015 2.74a.75.75 0 0 1 .53.92l-.366 1.365a.75.75 0 0 1-1.449-.388l.366-1.366a.75.75 0 0 1 .919-.53ZM15.868 4.437a2 2 0 0 0-3.197-.362l-6.448 6.94c.225.205.422.446.582.724l2.5 4.33c.16.277.271.57.335.866l9.235-2.115a2 2 0 0 0 1.286-2.95l-4.293-7.433ZM7.848 16.728l-2.5-4.33a1.5 1.5 0 1 0-2.598 1.5l2.5 4.33a1.5 1.5 0 1 0 2.598-1.5ZM13.71 21.148l-1.904-3.297 3.06-.7 1.441 2.497a1.5 1.5 0 0 1-2.598 1.5ZM21.648 7.57a.75.75 0 1 0-.388 1.45l1.366.366a.75.75 0 0 0 .389-1.45l-1.367-.365Z" fill="#868686"/>
</svg>
