<svg width="24" height="24" fill="none" xmlns="http://www.w3.org/2000/svg">
    <path fill-rule="evenodd" clip-rule="evenodd" d="M7.47 6.53a.75.75 0 0 1 0-1.06l4-4a.75.75 0 0 1 1.06 0l4 4a.75.75 0 0 1-1.06 1.06l-2.72-2.72V16a.75.75 0 0 1-1.5 0V3.81L8.53 6.53a.75.75 0 0 1-1.06 0Z" fill="#868686"/>
    <path fill-rule="evenodd" clip-rule="evenodd" d="M6.224 8.415a.75.75 0 0 1 .116 1.054 7.25 7.25 0 1 0 11.32 0 .75.75 0 1 1 1.17-.938 8.75 8.75 0 1 1-13.661 0 .75.75 0 0 1 1.055-.116Z" fill="#868686"/>
</svg>
