<svg width="24" height="24" fill="none" xmlns="http://www.w3.org/2000/svg">
    <path d="M12 3.75c-.97 0-1.908.135-2.796.386a.75.75 0 1 1-.408-1.444A11.758 11.758 0 0 1 12 2.25c1.11 0 2.185.154 3.204.442a.75.75 0 1 1-.408 1.444A10.258 10.258 0 0 0 12 3.75ZM18 17.25a.75.75 0 0 1 .75.75v1.25H20a.75.75 0 0 1 0 1.5h-1.25V22a.75.75 0 0 1-1.5 0v-1.25H16a.75.75 0 0 1 0-1.5h1.25V18a.75.75 0 0 1 .75-.75Z" fill="#868686"/>
    <path fill-rule="evenodd" clip-rule="evenodd" d="M3.5 13.5A8.5 8.5 0 0 0 14 21.763V20a4 4 0 0 1 4-4h2.126A8.5 8.5 0 1 0 3.5 13.5ZM12.75 9a.75.75 0 0 0-1.5 0v3.7a1.5 1.5 0 1 0 1.5 0V9Z" fill="#868686"/>
</svg>
