<svg width="24" height="24" fill="none" xmlns="http://www.w3.org/2000/svg">
    <path d="M2 6a4 4 0 0 1 4-4h12a4 4 0 0 1 4 4v.25H2V6Z" fill="#868686"/>
    <path fill-rule="evenodd" clip-rule="evenodd" d="M2 7.75h20V18a4 4 0 0 1-4 4H6a4 4 0 0 1-4-4V7.75Zm10 2.5a.75.75 0 0 0-.67.415l-2.423 4.844-1.283-1.925a.75.75 0 1 0-1.248.832l2 3a.75.75 0 0 0 1.295-.08l2.793-5.586H17a.75.75 0 0 0 0-1.5h-5Zm1.47 3.22a.75.75 0 0 1 1.06 0l.97.97.97-.97a.75.75 0 1 1 1.06 1.06l-.97.97.97.97a.75.75 0 1 1-1.06 1.06l-.97-.97-.97.97a.75.75 0 1 1-1.06-1.06l.97-.97-.97-.97a.75.75 0 0 1 0-1.06Z" fill="#868686"/>
</svg>
