<svg width="24" height="24" fill="none" xmlns="http://www.w3.org/2000/svg">
    <path fill-rule="evenodd" clip-rule="evenodd" d="M7 1.25h4.343c1.26 0 2.468.5 3.359 1.391l5.657 5.657a4.75 4.75 0 0 1 1.391 3.359V18A4.75 4.75 0 0 1 17 22.75H7A4.75 4.75 0 0 1 2.25 18V6A4.75 4.75 0 0 1 7 1.25Zm4.343 1.5H7A3.25 3.25 0 0 0 3.75 6v12A3.25 3.25 0 0 0 7 21.25h10A3.25 3.25 0 0 0 20.25 18v-6.343c0-.31-.044-.615-.13-.907H17A4.75 4.75 0 0 1 12.25 6V2.88a3.249 3.249 0 0 0-.907-.13Zm2.407 1.06V6A3.25 3.25 0 0 0 17 9.25h2.19l-5.44-5.44Z" fill="#868686"/>
    <path d="M6 18v-4.295h1.392c.527 0 .87.022 1.03.065.247.064.453.205.619.421.166.215.249.494.249.835 0 .264-.048.486-.144.665-.095.18-.217.322-.366.425a1.255 1.255 0 0 1-.448.202 4.952 4.952 0 0 1-.9.062h-.565V18H6Zm.867-3.568v1.218h.475c.342 0 .57-.022.685-.067a.571.571 0 0 0 .37-.545.555.555 0 0 0-.138-.387.6.6 0 0 0-.349-.19 4.173 4.173 0 0 0-.624-.03h-.419ZM10.01 18v-4.295h.845l1.757 2.868v-2.868h.806V18h-.87l-1.732-2.8V18h-.805ZM16.336 16.42v-.723h1.87v1.711c-.183.176-.446.331-.792.466-.344.133-.692.2-1.046.2-.45 0-.84-.095-1.175-.282a1.808 1.808 0 0 1-.753-.809 2.624 2.624 0 0 1-.252-1.145c0-.447.094-.845.282-1.192.187-.348.462-.615.823-.8.275-.143.618-.214 1.028-.214.534 0 .95.112 1.248.337.301.222.495.531.58.926l-.86.16a.9.9 0 0 0-.344-.497 1.02 1.02 0 0 0-.624-.185c-.379 0-.68.12-.905.36-.223.24-.334.597-.334 1.07 0 .51.113.892.34 1.148.226.254.523.381.89.381a1.5 1.5 0 0 0 .545-.105 1.9 1.9 0 0 0 .472-.261v-.545h-.993Z" fill="#868686"/>
</svg>
