<svg width="24" height="24" fill="none" xmlns="http://www.w3.org/2000/svg">
    <path fill-rule="evenodd" clip-rule="evenodd" d="M8.442 2.724a5.031 5.031 0 0 1 7.116 0l5.718 5.718a5.031 5.031 0 0 1 0 7.116l-5.718 5.718a5.031 5.031 0 0 1-7.116 0l-5.718-5.718a5.031 5.031 0 0 1 0-7.116l5.718-5.718Zm6.055 1.06a3.531 3.531 0 0 0-4.994 0l-5.719 5.72a3.531 3.531 0 0 0 0 4.993l5.72 5.719a3.531 3.531 0 0 0 4.993 0l5.719-5.72a3.531 3.531 0 0 0 0-4.993l-5.72-5.719Z" fill="#868686"/>
    <path fill-rule="evenodd" clip-rule="evenodd" d="M8.25 11a3.75 3.75 0 1 1 7.5 0v1.604l.72-.72a.75.75 0 1 1 1.06 1.06l-1.293 1.293a1.75 1.75 0 0 1-2.474 0l-1.293-1.293a.75.75 0 1 1 1.06-1.06l.72.72V11a2.25 2.25 0 0 0-4.5 0v5a.75.75 0 0 1-1.5 0v-5Z" fill="#868686"/>
</svg>
