<svg width="24" height="24" fill="none" xmlns="http://www.w3.org/2000/svg">
    <path fill-rule="evenodd" clip-rule="evenodd" d="M22.75 12a4.75 4.75 0 1 1-9.5 0 4.75 4.75 0 0 1 9.5 0ZM18 15.25a3.25 3.25 0 1 0 0-6.5 3.25 3.25 0 0 0 0 6.5ZM3.25 12a.75.75 0 0 1 .75-.75h6a.75.75 0 0 1 0 1.5H4a.75.75 0 0 1-.75-.75Z" fill="#868686"/>
    <path fill-rule="evenodd" clip-rule="evenodd" d="M7 3.25a.75.75 0 0 1 .692.462l5 12a.75.75 0 0 1-1.384.576L7 5.95 2.692 16.288a.75.75 0 0 1-1.384-.577l5-12A.75.75 0 0 1 7 3.25ZM22 7.25a.75.75 0 0 1 .75.75v8a.75.75 0 0 1-1.5 0V8a.75.75 0 0 1 .75-.75Z" fill="#868686"/>
</svg>
