<svg width="24" height="24" fill="none" xmlns="http://www.w3.org/2000/svg">
    <path d="M8.397 5.25h7.204c1.163-1.57-.403-3.768-2.349-3.14l-.928.3a1.06 1.06 0 0 1-.65 0l-.928-.3c-1.945-.628-3.511 1.57-2.349 3.14ZM15.493 6.75H8.505a5.997 5.997 0 0 0-2.821 3.46l-1.25 4C3.226 18.074 6.113 22 10.16 22h.966a3.484 3.484 0 0 1-.627-2c0-.744.232-1.433.627-2A3.5 3.5 0 0 1 14 12.5h5.031l-.715-2.29a5.996 5.996 0 0 0-2.822-3.46Z" fill="#868686"/>
    <path d="M13.999 14a2 2 0 0 0 0 4 2 2 0 0 0 0 4h6a2 2 0 1 0 0-4 2 2 0 1 0 0-4h-6Z" fill="#868686"/>
</svg>
