<svg width="24" height="24" fill="none" xmlns="http://www.w3.org/2000/svg">
    <path fill-rule="evenodd" clip-rule="evenodd" d="M16.65 1.484a.75.75 0 0 1 .186.688 3.25 3.25 0 0 0 4.766 3.577.75.75 0 0 1 1.117.575 5.733 5.733 0 0 1-1.628 4.637A5.75 5.75 0 0 1 17 20.75h-.999a.75.75 0 0 1 0-1.501h1a4.25 4.25 0 1 0-2.975-7.285l-1.05-1.071c.42-.412.903-.76 1.434-1.028a6.28 6.28 0 0 0-2.726-2.512 6.25 6.25 0 1 0-3.577 11.833.75.75 0 1 1-.212 1.485 7.752 7.752 0 1 1 3.502-15.044 5.757 5.757 0 0 1 4.577-4.366.75.75 0 0 1 .678.222Zm-3.847 4.762a7.784 7.784 0 0 1 3.044 3.12 5.772 5.772 0 0 1 4.049.665 4.24 4.24 0 0 0 1.313-2.516 4.75 4.75 0 0 1-5.957-4.47 4.256 4.256 0 0 0-2.449 3.2Zm-.292 11.205L12 18l-.51-.55a.75.75 0 0 1 1.02 0ZM12 19.099a6.665 6.665 0 0 0-.156.194 4.17 4.17 0 0 0-.436.681c-.115.234-.158.41-.158.526 0 .395.114.54.182.6.088.075.26.15.568.15.308 0 .48-.075.568-.15.068-.06.182-.205.182-.6 0-.116-.043-.292-.158-.526a4.17 4.17 0 0 0-.436-.68 6.665 6.665 0 0 0-.156-.195Zm-.51-1.648L12 18l.51-.55.004.003.005.005.016.016.055.053a8.558 8.558 0 0 1 .754.851c.206.267.425.589.595.935.166.338.311.75.311 1.187 0 .71-.222 1.315-.696 1.73-.456.397-1.034.52-1.554.52s-1.098-.123-1.554-.52c-.474-.415-.696-1.02-.696-1.73 0-.436.145-.849.311-1.187.17-.346.389-.668.595-.935a8.558 8.558 0 0 1 .754-.85c.023-.024.042-.042.055-.054l.016-.016.005-.005.003-.002Z" fill="#868686"/>
</svg>
