<svg width="24" height="24" fill="none" xmlns="http://www.w3.org/2000/svg">
    <path d="m10.2 3.4 1-1.334a1 1 0 0 1 1.6 0l1 1.333A1 1 0 0 1 13 5h-2a1 1 0 0 1-.8-1.6Z" fill="#868686"/>
    <path fill-rule="evenodd" clip-rule="evenodd" d="M12 4.25a.75.75 0 0 1 .75.75v13a.75.75 0 0 1-1.5 0V5a.75.75 0 0 1 .75-.75Z" fill="#868686"/>
    <path d="M19.5 6a1.5 1.5 0 1 1-3 0 1.5 1.5 0 0 1 3 0Z" fill="#868686"/>
    <path fill-rule="evenodd" clip-rule="evenodd" d="M12 18.75a1.25 1.25 0 1 0 0 2.5 1.25 1.25 0 0 0 0-2.5ZM9.25 20a2.75 2.75 0 1 1 5.5 0 2.75 2.75 0 0 1-5.5 0Z" fill="#868686"/>
    <path d="M4.5 7.5a1 1 0 0 1 1-1h1a1 1 0 0 1 1 1v1a1 1 0 0 1-1 1h-1a1 1 0 0 1-1-1v-1Z" fill="#868686"/>
    <path fill-rule="evenodd" clip-rule="evenodd" d="M18 6.25a.75.75 0 0 1 .75.75v2.28a1.75 1.75 0 0 1-1.196 1.66l-5.317 1.771a.75.75 0 0 1-.474-1.422l5.316-1.773a.25.25 0 0 0 .171-.237V7a.75.75 0 0 1 .75-.75Z" fill="#868686"/>
    <path fill-rule="evenodd" clip-rule="evenodd" d="M6 8.25a.75.75 0 0 0-.75.75v2.28a1.75 1.75 0 0 0 1.196 1.66l5.317 1.771a.75.75 0 0 0 .474-1.422l-5.316-1.773a.25.25 0 0 1-.171-.237V9A.75.75 0 0 0 6 8.25Z" fill="#868686"/>
</svg>
