<svg width="24" height="24" fill="none" xmlns="http://www.w3.org/2000/svg">
    <path fill-rule="evenodd" clip-rule="evenodd" d="M7 4.75a2.25 2.25 0 1 0 0 4.5 2.25 2.25 0 0 0 0-4.5ZM3.25 7a3.75 3.75 0 1 1 7.5 0 3.75 3.75 0 0 1-7.5 0ZM17 4.75a2.25 2.25 0 1 0 0 4.5 2.25 2.25 0 0 0 0-4.5ZM13.25 7a3.75 3.75 0 1 1 7.5 0 3.75 3.75 0 0 1-7.5 0ZM7 14.75a2.25 2.25 0 1 0 0 4.5 2.25 2.25 0 0 0 0-4.5ZM3.25 17a3.75 3.75 0 1 1 7.5 0 3.75 3.75 0 0 1-7.5 0ZM17 14.75a2.25 2.25 0 1 0 0 4.5 2.25 2.25 0 0 0 0-4.5ZM13.25 17a3.75 3.75 0 1 1 7.5 0 3.75 3.75 0 0 1-7.5 0Z" fill="#868686"/>
</svg>
