<svg width="24" height="24" fill="none" xmlns="http://www.w3.org/2000/svg">
    <path fill-rule="evenodd" clip-rule="evenodd" d="M20 3.75c-.69 0-1.25.56-1.25 1.25v14a1.25 1.25 0 1 0 2.5 0V5c0-.69-.56-1.25-1.25-1.25ZM17.25 5a2.75 2.75 0 1 1 5.5 0v14a2.75 2.75 0 1 1-5.5 0V5ZM12 7.75c-.69 0-1.25.56-1.25 1.25v10a1.25 1.25 0 1 0 2.5 0V9c0-.69-.56-1.25-1.25-1.25ZM9.25 9a2.75 2.75 0 1 1 5.5 0v10a2.75 2.75 0 1 1-5.5 0V9ZM4 11.75c-.69 0-1.25.56-1.25 1.25v6a1.25 1.25 0 1 0 2.5 0v-6c0-.69-.56-1.25-1.25-1.25ZM1.25 13a2.75 2.75 0 1 1 5.5 0v6a2.75 2.75 0 1 1-5.5 0v-6Z" fill="#868686"/>
</svg>
