<svg width="24" height="24" fill="none" xmlns="http://www.w3.org/2000/svg">
    <path fill-rule="evenodd" clip-rule="evenodd" d="M12.147 3.916a7.75 7.75 0 0 0-9.86 10.96.75.75 0 1 0 1.299-.752 6.25 6.25 0 0 1 10.823-6.259 5.762 5.762 0 0 0-1.434 1.029l1.05 1.07a4.25 4.25 0 0 1 7.03 4.311.75.75 0 1 0 1.432.45A5.748 5.748 0 0 0 22.75 13a5.727 5.727 0 0 0-.844-3 5.75 5.75 0 0 0-9.76-6.084Zm1.307.74a7.784 7.784 0 0 1 2.393 2.71A5.772 5.772 0 0 1 17 7.25a5.73 5.73 0 0 1 3.874 1.5 4.25 4.25 0 0 0-7.42-4.094ZM7.51 14.452 7 15l-.51-.55a.75.75 0 0 1 1.02 0ZM7 16.099a6.437 6.437 0 0 0-.156.194c-.169.22-.325.455-.437.681-.114.234-.157.41-.157.526 0 .395.114.54.183.6.087.075.259.15.567.15.308 0 .48-.075.567-.15.069-.06.183-.205.183-.6 0-.116-.043-.292-.157-.526a4.171 4.171 0 0 0-.437-.68A6.437 6.437 0 0 0 7 16.098Zm10.51-1.648L17 15l-.51-.55a.75.75 0 0 1 1.02 0ZM17 16.099a6.533 6.533 0 0 0-.156.194 4.17 4.17 0 0 0-.437.681c-.114.234-.157.41-.157.526 0 .395.114.54.183.6.087.075.259.15.567.15.308 0 .48-.075.567-.15.069-.06.183-.205.183-.6 0-.116-.043-.292-.157-.526a4.17 4.17 0 0 0-.437-.68 6.533 6.533 0 0 0-.156-.195ZM6.49 14.451 7 15l.51-.55.004.004.005.004.016.015a6.288 6.288 0 0 1 .243.246c.153.161.359.39.566.66.206.266.425.588.595.934.166.338.311.75.311 1.187 0 .71-.222 1.315-.696 1.73-.456.397-1.034.52-1.554.52s-1.098-.123-1.554-.52c-.474-.415-.696-1.02-.696-1.73 0-.436.145-.849.311-1.187a5.65 5.65 0 0 1 .595-.935 8.537 8.537 0 0 1 .81-.905l.015-.015.005-.005.003-.002Zm10 0L17 15l.51-.55.004.004.005.004.016.015.055.054a8.54 8.54 0 0 1 .754.851c.206.267.425.589.595.935.166.338.311.75.311 1.187 0 .71-.222 1.315-.696 1.73-.456.397-1.034.52-1.554.52s-1.098-.123-1.554-.52c-.474-.415-.696-1.02-.696-1.73 0-.436.145-.849.311-1.187.17-.346.389-.668.595-.935a8.54 8.54 0 0 1 .754-.85l.055-.055.016-.015.005-.005.003-.002Zm-3.98 3L12 18l-.51-.55a.75.75 0 0 1 1.02 0ZM12 19.099a6.533 6.533 0 0 0-.156.194 4.17 4.17 0 0 0-.436.681c-.115.234-.158.41-.158.526 0 .395.114.54.182.6.088.075.26.15.568.15.308 0 .48-.075.568-.15.068-.06.182-.205.182-.6 0-.116-.043-.292-.158-.526a4.17 4.17 0 0 0-.436-.68 6.533 6.533 0 0 0-.156-.195Zm-.51-1.648L12 18l.51-.55.004.003.005.005.016.016.055.053a8.54 8.54 0 0 1 .754.851c.206.267.425.589.595.935.166.338.311.75.311 1.187 0 .71-.222 1.315-.696 1.73-.456.397-1.034.52-1.554.52s-1.098-.123-1.554-.52c-.474-.415-.696-1.02-.696-1.73 0-.436.145-.849.311-1.187.17-.346.389-.668.595-.935a8.54 8.54 0 0 1 .754-.85c.023-.024.042-.042.055-.054l.016-.016.005-.005.003-.002Z" fill="#868686"/>
</svg>
