<svg width="24" height="24" fill="none" xmlns="http://www.w3.org/2000/svg">
    <path fill-rule="evenodd" clip-rule="evenodd" d="M5.25 5A2.75 2.75 0 0 1 8 2.25h8A2.75 2.75 0 0 1 18.75 5v1.354c1.154.326 2 1.387 2 2.646v1.354c1.154.326 2 1.387 2 2.646v4A4.75 4.75 0 0 1 18 21.75H6A4.75 4.75 0 0 1 1.25 17v-4c0-1.259.846-2.32 2-2.646V9c0-1.259.846-2.32 2-2.646V5Zm1.5 1.25h10.5V5c0-.69-.56-1.25-1.25-1.25H8c-.69 0-1.25.56-1.25 1.25v1.25Zm-2 4h14.5V9c0-.69-.56-1.25-1.25-1.25H6c-.69 0-1.25.56-1.25 1.25v1.25ZM4 11.75c-.69 0-1.25.56-1.25 1.25v4A3.25 3.25 0 0 0 6 20.25h12A3.25 3.25 0 0 0 21.25 17v-4c0-.69-.56-1.25-1.25-1.25H4ZM9.25 14a.75.75 0 0 1 .75-.75h4a.75.75 0 0 1 0 1.5h-4a.75.75 0 0 1-.75-.75Z" fill="#868686"/>
</svg>
