<svg width="24" height="24" fill="none" xmlns="http://www.w3.org/2000/svg">
    <path fill-rule="evenodd" clip-rule="evenodd" d="M12 5.75a6.25 6.25 0 1 0 0 12.5 6.25 6.25 0 0 0 0-12.5ZM4.25 12a7.75 7.75 0 1 1 15.5 0 7.75 7.75 0 0 1-15.5 0Z" fill="#868686"/>
    <path fill-rule="evenodd" clip-rule="evenodd" d="M12 8.25a.75.75 0 0 1 .75.75v3a.75.75 0 0 1-.414.67l-2 1a.75.75 0 1 1-.671-1.34l1.585-.793V9a.75.75 0 0 1 .75-.75ZM15 21.25c.69 0 1.25-.56 1.25-1.25v-3a.75.75 0 0 1 1.5 0v3A2.75 2.75 0 0 1 15 22.75H9A2.75 2.75 0 0 1 6.25 20v-3a.75.75 0 0 1 1.5 0v3c0 .69.56 1.25 1.25 1.25h6ZM15 2.75c.69 0 1.25.56 1.25 1.25v3a.75.75 0 0 0 1.5 0V4A2.75 2.75 0 0 0 15 1.25H9A2.75 2.75 0 0 0 6.25 4v3a.75.75 0 0 0 1.5 0V4c0-.69.56-1.25 1.25-1.25h6Z" fill="#868686"/>
</svg>
