<svg width="24" height="24" fill="none" xmlns="http://www.w3.org/2000/svg">
    <path fill-rule="evenodd" clip-rule="evenodd" d="M5.275 20.5C3.48 20.5 2 19.045 2 17.25V5a3 3 0 0 1 3-3h10a3 3 0 0 1 3 3v11.5H9.3a.8.8 0 0 0-.8.8c0 1.767-1.457 3.2-3.225 3.2ZM9.116 8.944a1.26 1.26 0 0 1 .134-.116V13a.75.75 0 1 0 1.5 0V8.828c.047.035.091.074.134.116l1.586 1.586a.75.75 0 1 0 1.06-1.06l-1.585-1.586a2.75 2.75 0 0 0-3.89 0L6.47 9.47a.75.75 0 0 0 1.06 1.06l1.586-1.586Z" fill="#868686"/>
    <path d="M18 22a4.002 4.002 0 0 0 3.877-3.01c.136-.535-.325-.99-.877-.99H11c-.552 0-.987.455-1.123.99A4.002 4.002 0 0 1 6 22h12Z" fill="#868686"/>
</svg>
