<svg width="24" height="24" fill="none" xmlns="http://www.w3.org/2000/svg">
    <path fill-rule="evenodd" clip-rule="evenodd" d="M12.147 5.916A7.75 7.75 0 1 0 9 20.75h8A5.75 5.75 0 0 0 21.906 12a5.75 5.75 0 0 0-9.76-6.084Zm1.307.74a7.784 7.784 0 0 1 2.393 2.71A5.772 5.772 0 0 1 17 9.25a5.73 5.73 0 0 1 3.874 1.5 4.25 4.25 0 0 0-7.42-4.094Zm.955 3.21a5.76 5.76 0 0 0-1.434 1.028.75.75 0 0 0 1.05 1.07A4.25 4.25 0 0 1 21.25 15 4.25 4.25 0 0 1 17 19.25H9a6.25 6.25 0 1 1 5.409-9.384Z" fill="#868686"/>
</svg>
