<svg width="24" height="24" fill="none" xmlns="http://www.w3.org/2000/svg">
    <path fill-rule="evenodd" clip-rule="evenodd" d="M8.25 12a.75.75 0 0 1 .75-.75h6a.75.75 0 0 1 0 1.5H9a.75.75 0 0 1-.75-.75ZM4.25 20a.75.75 0 0 1 .75-.75h14a.75.75 0 0 1 0 1.5H5a.75.75 0 0 1-.75-.75Z" fill="#868686"/>
    <path fill-rule="evenodd" clip-rule="evenodd" d="M12 3.25a.75.75 0 0 1 .693.462l5 12a.75.75 0 0 1-1.385.576L12 5.95 7.692 16.288a.75.75 0 0 1-1.384-.577l5-12A.75.75 0 0 1 12 3.25Z" fill="#868686"/>
</svg>
