<svg width="24" height="24" fill="none" xmlns="http://www.w3.org/2000/svg">
    <path fill-rule="evenodd" clip-rule="evenodd" d="M5 2.25a.75.75 0 0 1 .75.75v6.354a2.751 2.751 0 0 1 0 5.293V21a.75.75 0 0 1-1.5 0v-6.354a2.751 2.751 0 0 1 0-5.292V3A.75.75 0 0 1 5 2.25Zm7 0a.75.75 0 0 1 .75.75v1.354a2.751 2.751 0 1 1-1.5 0V3a.75.75 0 0 1 .75-.75Zm7 0a.75.75 0 0 1 .75.75v9a.75.75 0 0 1-1.5 0V3a.75.75 0 0 1 .75-.75Zm-7 3.5a1.25 1.25 0 1 0 0 2.5 1.25 1.25 0 0 0 0-2.5Zm-7 5a1.25 1.25 0 1 0 0 2.5 1.25 1.25 0 0 0 0-2.5Zm7 .5a.75.75 0 0 1 .75.75v9a.75.75 0 0 1-1.5 0v-9a.75.75 0 0 1 .75-.75Zm7 4.5a1.25 1.25 0 1 0 0 2.5 1.25 1.25 0 0 0 0-2.5ZM16.25 17a2.75 2.75 0 1 1 3.5 2.646V21a.75.75 0 0 1-1.5 0v-1.354a2.751 2.751 0 0 1-2-2.646Z" fill="#868686"/>
</svg>
