<svg width="24" height="24" fill="none" xmlns="http://www.w3.org/2000/svg">
    <path d="M18.82 4.12a.75.75 0 0 1 1.133.976l-.072.084-.72.72a.75.75 0 0 1-1.134-.976l.073-.084.72-.72ZM18.083 13.086a.75.75 0 0 1 .977-.066l.084.073.76.77a.75.75 0 0 1-.984 1.127l-.084-.073-.76-.77a.75.75 0 0 1 .007-1.06ZM9.11 4.12a.75.75 0 0 1 .976-.073l.085.073.72.72a.75.75 0 0 1-.977 1.133L9.83 5.9l-.72-.72a.75.75 0 0 1 0-1.06Z" fill="#868686"/>
    <path fill-rule="evenodd" clip-rule="evenodd" d="m2.263 17.849 9.577-9.581a1.749 1.749 0 0 1 2.475 0l1.412 1.413a1.75 1.75 0 0 1 0 2.475l-9.577 9.58a1.749 1.749 0 0 1-2.475.001l-1.412-1.413a1.75 1.75 0 0 1 0-2.475Z" fill="#868686"/>
    <path d="M14.49 1.75a.75.75 0 0 1 .743.648l.007.102v1.02a.75.75 0 0 1-1.493.102l-.007-.102V2.5a.75.75 0 0 1 .75-.75ZM21.5 8.76a.75.75 0 0 1 .102 1.493l-.102.007h-1.02a.75.75 0 0 1-.102-1.493l.102-.007h1.02Z" fill="#868686"/>
</svg>
