<svg width="24" height="24" fill="none" xmlns="http://www.w3.org/2000/svg">
    <path fill-rule="evenodd" clip-rule="evenodd" d="M11.002 3.125a2.25 2.25 0 0 0-2.25 2.25v1a.75.75 0 0 1-1.5 0v-1a3.75 3.75 0 0 1 3.75-3.75h2a3.75 3.75 0 0 1 3.75 3.75v1a.75.75 0 0 1-1.5 0v-1a2.25 2.25 0 0 0-2.25-2.25h-2Z" fill="#868686"/>
    <path d="M18.002 6.375h-12a4 4 0 0 0-3.994 3.77.418.418 0 0 0 .175.368c.444.314 1.718 1.103 4.063 1.698.16.04.318-.06.388-.208a1.5 1.5 0 0 1 2.857.642.15.15 0 0 0 .134.15c.288.028.585.054.89.075l2.98.062c.282-.01.557-.024.823-.042a.199.199 0 0 0 .185-.198v-.047a1.5 1.5 0 0 1 2.902-.536c.062.165.23.282.4.238 2.355-.605 3.62-1.497 4.038-1.835a.415.415 0 0 0 .153-.347 4 4 0 0 0-3.994-3.79Z" fill="#868686"/>
    <path d="M9.473 14.263c.019-.119.123-.213.243-.198 1.497.18 3.054.241 4.6.144.108-.007.202.073.226.178a1.5 1.5 0 0 0 2.96-.342V14c0-.14.098-.261.234-.294a15.267 15.267 0 0 0 3.648-1.365c.275-.147.618.047.618.359v5.675a4 4 0 0 1-4 4h-12a4 4 0 0 1-4-4l-.004-5.83c0-.298.313-.492.584-.371 1.06.474 2.31.906 3.68 1.251a.302.302 0 0 1 .229.293v.327a1.5 1.5 0 0 0 1.5 1.5c.746 0 1.372-.565 1.482-1.282Z" fill="#868686"/>
    <path d="M7.24 12.698a.75.75 0 0 1 1.5 0v1.294a.75.75 0 0 1-1.5 0v-1.294ZM15.253 12.698a.75.75 0 0 1 1.5 0v1.294a.75.75 0 0 1-1.5 0v-1.294Z" fill="#868686"/>
</svg>
