<svg width="24" height="24" fill="none" xmlns="http://www.w3.org/2000/svg">
    <path d="M12.75 15a.75.75 0 1 1-1.5 0 .75.75 0 0 1 1.5 0Z" fill="#868686"/>
    <path fill-rule="evenodd" clip-rule="evenodd" d="M10 2.75c-.69 0-1.25.56-1.25 1.25v1.256A4.82 4.82 0 0 1 9 5.25h6c.084 0 .167.002.25.006V4c0-.69-.56-1.25-1.25-1.25h-4Zm6.75 2.833V4A2.75 2.75 0 0 0 14 1.25h-4A2.75 2.75 0 0 0 7.25 4v1.583a4.752 4.752 0 0 0-3 4.417v4a4.751 4.751 0 0 0 3 4.417V20A2.75 2.75 0 0 0 10 22.75h4A2.75 2.75 0 0 0 16.75 20v-1.583a4.751 4.751 0 0 0 3-4.417v-4a4.752 4.752 0 0 0-3-4.417Zm-1.5 13.16a4.819 4.819 0 0 1-.25.007H9a4.82 4.82 0 0 1-.25-.006V20c0 .69.56 1.25 1.25 1.25h4c.69 0 1.25-.56 1.25-1.25v-1.256ZM9 6.75A3.25 3.25 0 0 0 5.75 10v4A3.25 3.25 0 0 0 9 17.25h6A3.25 3.25 0 0 0 18.25 14v-4A3.25 3.25 0 0 0 15 6.75H9Zm3 3c-1.45 0-2.761.587-3.712 1.538a.75.75 0 1 1-1.061-1.061A6.731 6.731 0 0 1 12 8.25c1.864 0 3.552.756 4.773 1.977a.75.75 0 0 1-1.06 1.06A5.231 5.231 0 0 0 12 9.75Zm0 3a2.24 2.24 0 0 0-1.591.659.75.75 0 0 1-1.06-1.06A3.74 3.74 0 0 1 12 11.25a3.74 3.74 0 0 1 2.652 1.098.75.75 0 0 1-1.061 1.061A2.24 2.24 0 0 0 12 12.75Z" fill="#868686"/>
</svg>
