<svg width="24" height="24" fill="none" xmlns="http://www.w3.org/2000/svg">
    <path fill-rule="evenodd" clip-rule="evenodd" d="M4.75 10v6.764c0 .473.268.906.691 1.118l6 3a1.25 1.25 0 0 0 1.118 0l6-3a1.25 1.25 0 0 0 .691-1.118V10h1.5v6.764a2.75 2.75 0 0 1-1.52 2.46l-6 3a2.75 2.75 0 0 1-2.46 0l-6-3a2.75 2.75 0 0 1-1.52-2.46V10h1.5Z" fill="#868686"/>
    <path fill-rule="evenodd" clip-rule="evenodd" d="M10.77 1.777a2.75 2.75 0 0 1 2.46 0l7.105 3.552a.75.75 0 0 1 0 1.342l-8 4a.75.75 0 0 1-.67 0l-8-4a.75.75 0 0 1 0-1.342l7.105-3.552Zm1.789 1.341a1.25 1.25 0 0 0-1.118 0L5.677 6 12 9.162 18.323 6l-5.764-2.882Z" fill="#868686"/>
    <path fill-rule="evenodd" clip-rule="evenodd" d="M19.665 5.33a.75.75 0 0 1 .959.254l2 3a.75.75 0 0 1-.289 1.087l-8 4a.75.75 0 0 1-.959-.255l-2-3a.75.75 0 0 1 .289-1.087l8-4Zm-6.57 4.961 1.162 1.742 6.648-3.324-1.162-1.742-6.648 3.324Z" fill="#868686"/>
    <path fill-rule="evenodd" clip-rule="evenodd" d="M4.335 5.33a.75.75 0 0 0-.959.254l-2 3a.75.75 0 0 0 .289 1.087l8 4c.338.17.75.06.959-.255l2-3a.75.75 0 0 0-.289-1.087l-8-4Zm6.57 4.961-1.162 1.742L3.095 8.71l1.162-1.742 6.648 3.324Z" fill="#868686"/>
</svg>
