<svg width="24" height="24" fill="none" xmlns="http://www.w3.org/2000/svg">
    <path d="M12 2a2 2 0 0 0-2 2v1.5h4V4a2 2 0 0 0-2-2Z" fill="#868686"/>
    <path fill-rule="evenodd" clip-rule="evenodd" d="M5 7a3 3 0 0 0-3 3v9a3 3 0 0 0 3 3h14a3 3 0 0 0 3-3v-9a3 3 0 0 0-3-3H5Zm4 7a3 3 0 0 0-3 3 1 1 0 0 0 1 1h4a1 1 0 0 0 1-1 3 3 0 0 0-3-3Zm0 0a2 2 0 1 0 0-4 2 2 0 0 0 0 4Zm9.75-2a.75.75 0 0 1-.75.75h-3a.75.75 0 0 1 0-1.5h3a.75.75 0 0 1 .75.75ZM18 16.75a.75.75 0 0 0 0-1.5h-3a.75.75 0 0 0 0 1.5h3Z" fill="#868686"/>
</svg>
