<svg width="24" height="24" fill="none" xmlns="http://www.w3.org/2000/svg">
    <path fill-rule="evenodd" clip-rule="evenodd" d="M11.3 8.81a1.75 1.75 0 0 1 2.475 0l1.415 1.414a1.75 1.75 0 0 1 0 2.475l-2.491 2.491a1.75 1.75 0 0 1-2.475 0L8.81 13.776a1.75 1.75 0 0 1 0-2.475L11.3 8.81Zm1.415 1.06a.25.25 0 0 0-.354 0l-2.49 2.492a.25.25 0 0 0 0 .353l1.414 1.414a.25.25 0 0 0 .353 0l2.491-2.49a.25.25 0 0 0 0-.354L12.715 9.87Z" fill="#868686"/>
    <path fill-rule="evenodd" clip-rule="evenodd" d="M13.676 3.635a4.73 4.73 0 1 1 6.689 6.69l-10.04 10.04a4.73 4.73 0 1 1-6.69-6.69l10.04-10.04Zm5.628 1.061a3.23 3.23 0 0 0-4.568 0l-10.04 10.04a3.23 3.23 0 1 0 4.568 4.568l10.04-10.04a3.23 3.23 0 0 0 0-4.568Z" fill="#868686"/>
    <path fill-rule="evenodd" clip-rule="evenodd" d="M15.712 5.813a.75.75 0 0 1 1.061 0l1.414 1.414a.75.75 0 0 1-1.06 1.06l-1.415-1.414a.75.75 0 0 1 0-1.06ZM5.813 15.712a.75.75 0 0 1 1.06 0l1.415 1.415a.75.75 0 0 1-1.06 1.06l-1.415-1.414a.75.75 0 0 1 0-1.06Z" fill="#868686"/>
</svg>
