<svg width="24" height="24" fill="none" xmlns="http://www.w3.org/2000/svg">
    <path fill-rule="evenodd" clip-rule="evenodd" d="M18.578 3.16a.761.761 0 0 0-1.06-.302.864.864 0 0 0-.298 1.145l2.573 4.6a.76.76 0 0 0 1.055.291.864.864 0 0 0 .292-1.156L18.578 3.16Zm.866 7.096a2.239 2.239 0 0 0 2.171-.073c1.094-.651 1.451-2.073.834-3.177l-2.562-4.578c-.625-1.117-2.03-1.519-3.137-.859a2.338 2.338 0 0 0-1.132 1.895l-8.56 5.1c-1.338.798-1.779 2.543-1.02 3.9l.156.278-3.147 1.876-.392-.701a.75.75 0 0 0-1.31.732l.769 1.374.768 1.373a.75.75 0 1 0 1.31-.732l-.413-.737 3.148-1.875.136.243c.766 1.37 2.484 1.858 3.837 1.052l.903-.538-3.887 6.82a.75.75 0 1 0 1.303.743l4.471-7.844 4.47 7.844a.75.75 0 0 0 1.304-.743L14.62 13.13l4.824-2.874Zm-3.407-5.295-8.21 4.892c-.622.37-.853 1.212-.48 1.878l1.025 1.832c.365.653 1.153.857 1.76.495l8.246-4.913-2.341-4.184Z" fill="#868686"/>
</svg>
