<svg width="24" height="24" fill="none" xmlns="http://www.w3.org/2000/svg">
    <path fill-rule="evenodd" clip-rule="evenodd" d="M2.25 8.482c0-2.123 2.302-3.445 4.136-2.376l3.866 2.256c.085-2.052 2.335-3.305 4.134-2.256l5.864 3.421V7.5a.75.75 0 0 1 1.5 0v4.086c.041.274.041.553 0 .828V16.5a.75.75 0 0 1-1.5 0v-2.028l-5.864 3.42c-1.799 1.05-4.049-.203-4.133-2.255l-3.867 2.256c-1.834 1.07-4.136-.253-4.136-2.376V8.482Zm18 3.24v.556c-.072.319-.268.614-.59.801l-6.03 3.518a1.25 1.25 0 0 1-1.88-1.08v-1.184a.75.75 0 0 0-1.128-.648L5.63 16.597a1.25 1.25 0 0 1-1.88-1.08V8.482a1.25 1.25 0 0 1 1.88-1.08l4.992 2.912a.75.75 0 0 0 1.128-.648V8.482a1.25 1.25 0 0 1 1.88-1.08l6.03 3.518c.322.187.518.482.59.802Z" fill="#868686"/>
</svg>
