<svg width="24" height="24" fill="none" xmlns="http://www.w3.org/2000/svg">
    <path d="M10.77 2.277a2.75 2.75 0 0 1 2.46 0l7.317 3.658c1.29.645 1.29 2.486 0 3.13l-7.317 3.659a2.75 2.75 0 0 1-2.46 0L3.454 9.066c-1.29-.645-1.29-2.486 0-3.131l7.316-3.658ZM2.315 17.196a.75.75 0 0 1 .99-.381l8.188 3.639a1.25 1.25 0 0 0 1.015 0l8.188-3.64a.75.75 0 0 1 .609 1.372l-8.188 3.639a2.75 2.75 0 0 1-2.234 0l-8.187-3.64a.75.75 0 0 1-.381-.99Z" fill="#868686"/>
    <path d="M3.305 12.315a.75.75 0 0 0-.61 1.37l8.188 3.64a2.75 2.75 0 0 0 2.234 0l8.188-3.64a.75.75 0 1 0-.61-1.37l-8.187 3.639a1.25 1.25 0 0 1-1.015 0l-8.188-3.64Z" fill="#868686"/>
</svg>
