<svg width="24" height="24" fill="none" xmlns="http://www.w3.org/2000/svg">
    <path fill-rule="evenodd" clip-rule="evenodd" d="M12 3.75c-2.831 0-5.243 2.187-5.576 5.128l-.345 3.045a4.567 4.567 0 0 1-1.053 2.443c-.647.762-.083 1.884.803 1.884h12.34c.887 0 1.451-1.122.803-1.884a4.566 4.566 0 0 1-1.053-2.443l-.345-3.045C17.241 5.937 14.83 3.75 12 3.75ZM4.933 8.71c.415-3.665 3.437-6.46 7.065-6.46 3.628 0 6.65 2.795 7.066 6.46l.345 3.044c.069.61.316 1.182.705 1.64 1.42 1.67.306 4.356-1.946 4.356H5.83c-2.251 0-3.365-2.685-1.946-4.356.39-.458.637-1.03.706-1.64l.345-3.044ZM8.737 18.298a.75.75 0 0 1 .966.439c.322.861 1.213 1.513 2.297 1.513 1.085 0 1.975-.652 2.298-1.513a.75.75 0 1 1 1.405.526c-.551 1.47-2.017 2.487-3.703 2.487-1.685 0-3.151-1.017-3.702-2.487a.75.75 0 0 1 .439-.965Z" fill="#868686"/>
</svg>
