<svg width="24" height="24" fill="none" xmlns="http://www.w3.org/2000/svg">
    <path fill-rule="evenodd" clip-rule="evenodd" d="M3.25 6A4.75 4.75 0 0 1 8 1.25h8A4.75 4.75 0 0 1 20.75 6v6.682a3.75 3.75 0 0 1 2 3.318v3A3.75 3.75 0 0 1 19 22.75H5A3.75 3.75 0 0 1 1.25 19v-3a3.75 3.75 0 0 1 2-3.318V6Zm1.5 6.258c.083-.005.166-.008.25-.008h1c.866 0 1.68.408 2.2 1.1l1.2 1.6a3.25 3.25 0 0 0 5.2 0l1.2-1.6a2.75 2.75 0 0 1 2.2-1.1h1c.084 0 .167.003.25.008V6A3.25 3.25 0 0 0 16 2.75H8A3.25 3.25 0 0 0 4.75 6v6.258Zm5.841-5.508a.841.841 0 0 0-.841.841v.075c0 .208.07.41.2.572l1.855 2.317c.1.126.29.126.39 0l1.854-2.317c.13-.163.201-.364.201-.572V7.59a.841.841 0 0 0-1.436-.595l-.284.284a.75.75 0 0 1-1.06 0l-.284-.284a.841.841 0 0 0-.595-.246Zm-2.341.841A2.341 2.341 0 0 1 12 5.721a2.341 2.341 0 0 1 3.75 1.87v.075c0 .548-.187 1.08-.53 1.509l-1.854 2.317a1.75 1.75 0 0 1-2.732 0L8.778 9.175a2.416 2.416 0 0 1-.529-1.51v-.074ZM5 13.75A2.25 2.25 0 0 0 2.75 16v3A2.25 2.25 0 0 0 5 21.25h14A2.25 2.25 0 0 0 21.25 19v-3A2.25 2.25 0 0 0 19 13.75h-1a1.25 1.25 0 0 0-1 .5l-1.2 1.6a4.75 4.75 0 0 1-7.6 0L7 14.25a1.25 1.25 0 0 0-1-.5H5Z" fill="#868686"/>
</svg>
