<svg width="24" height="24" fill="none" xmlns="http://www.w3.org/2000/svg">
    <path fill-rule="evenodd" clip-rule="evenodd" d="M15.712 8.288a1.25 1.25 0 1 0-1.768 1.768 1.25 1.25 0 0 0 1.768-1.768Zm-2.828-1.06a2.75 2.75 0 1 1 3.889 3.888 2.75 2.75 0 0 1-3.89-3.889Z" fill="#868686"/>
    <path fill-rule="evenodd" clip-rule="evenodd" d="M12.523 4.248a3.328 3.328 0 0 0-2.582.971l-6.565 6.566c-1.298 1.297-1.301 3.372-.039 4.634l4.243 4.243c1.262 1.263 3.337 1.259 4.634-.038l6.566-6.566a3.327 3.327 0 0 0 .971-2.581l-.278-3.965a3.21 3.21 0 0 0-2.986-2.985l-3.964-.279Zm-3.643-.09a4.828 4.828 0 0 1 3.748-1.406l3.964.278a4.71 4.71 0 0 1 4.377 4.377l.278 3.965a4.827 4.827 0 0 1-1.407 3.747l-6.565 6.565c-1.87 1.87-4.894 1.9-6.756.039L2.277 17.48c-1.862-1.862-1.831-4.886.038-6.756L8.88 4.16Z" fill="#868686"/>
</svg>
