<svg width="24" height="24" fill="none" xmlns="http://www.w3.org/2000/svg">
    <path fill-rule="evenodd" clip-rule="evenodd" d="M11.25 2H6a4 4 0 0 0-4 4v12a4 4 0 0 0 4 4h5.25V2ZM5.5 5.25a.75.75 0 0 0 0 1.5h3a.75.75 0 0 0 0-1.5h-3Zm0 4a.75.75 0 0 0 0 1.5h3a.75.75 0 0 0 0-1.5h-3ZM7 18.5a1 1 0 1 0 0-2 1 1 0 0 0 0 2ZM12.75 22H18a4 4 0 0 0 4-4V6a4 4 0 0 0-4-4h-5.25v20Zm2-16a.75.75 0 0 1 .75-.75h3a.75.75 0 0 1 0 1.5h-3a.75.75 0 0 1-.75-.75Zm0 4a.75.75 0 0 1 .75-.75h3a.75.75 0 0 1 0 1.5h-3a.75.75 0 0 1-.75-.75ZM18 17.5a1 1 0 1 1-2 0 1 1 0 0 1 2 0Z" fill="#868686"/>
</svg>
