<svg width="24" height="24" fill="none" xmlns="http://www.w3.org/2000/svg">
    <path fill-rule="evenodd" clip-rule="evenodd" d="M4.25 5.29c0-1.169.984-2.162 2.226-2.028 1.592.171 3.824.637 5.462 1.73A.113.113 0 0 0 12 5.01a.113.113 0 0 0 .062-.017c1.638-1.094 3.87-1.56 5.462-1.73 1.242-.135 2.226.858 2.226 2.027v2.035c1.712.348 3 1.861 3 3.675v5A4.75 4.75 0 0 1 18 20.75H6A4.75 4.75 0 0 1 1.25 16v-5a3.751 3.751 0 0 1 3-3.675V5.29Zm0 3.588A2.25 2.25 0 0 0 2.75 11v5A3.25 3.25 0 0 0 6 19.25h12A3.25 3.25 0 0 0 21.25 16v-5a2.25 2.25 0 0 0-1.5-2.122V12.8c0 1.196-.978 2.077-2.066 2.194-1.514.163-3.455.596-4.79 1.487a1.62 1.62 0 0 1-1.789 0c-1.334-.89-3.275-1.324-4.79-1.487-1.087-.117-2.065-.998-2.065-2.194V8.878Zm14-3.588c0-.339-.27-.568-.566-.537-1.514.163-3.455.597-4.79 1.487-.046.032-.095.06-.144.086v8.5c1.537-.806 3.396-1.175 4.774-1.323.449-.049.726-.39.726-.703V5.29Zm-7 9.537c-1.537-.807-3.396-1.176-4.774-1.324-.449-.049-.726-.39-.726-.703V5.29c0-.339.27-.568.566-.537 1.514.163 3.455.597 4.79 1.487.046.032.095.06.144.086v8.5Z" fill="#868686"/>
</svg>
