<svg width="24" height="24" fill="none" xmlns="http://www.w3.org/2000/svg">
    <path fill-rule="evenodd" clip-rule="evenodd" d="M12 2.75a1.25 1.25 0 1 0 0 2.5 1.25 1.25 0 0 0 0-2.5ZM9.25 4a2.75 2.75 0 1 1 5.5 0 2.75 2.75 0 0 1-5.5 0Z" fill="#868686"/>
    <path fill-rule="evenodd" clip-rule="evenodd" d="M12 5.25a.75.75 0 0 1 .75.75v6a.75.75 0 0 1-1.5 0V6a.75.75 0 0 1 .75-.75Z" fill="#868686"/>
    <path fill-rule="evenodd" clip-rule="evenodd" d="M1.25 12A4.75 4.75 0 0 1 6 7.25h12A4.75 4.75 0 0 1 22.75 12v6A4.75 4.75 0 0 1 18 22.75H6A4.75 4.75 0 0 1 1.25 18v-6ZM6 8.75A3.25 3.25 0 0 0 2.75 12v6A3.25 3.25 0 0 0 6 21.25h12A3.25 3.25 0 0 0 21.25 18v-6A3.25 3.25 0 0 0 18 8.75H6Z" fill="#868686"/>
    <path fill-rule="evenodd" clip-rule="evenodd" d="M13.25 15a.75.75 0 0 0-.75-.75h-1a.75.75 0 0 0 0 1.5h1a.75.75 0 0 0 .75-.75ZM17.75 15a.75.75 0 0 0-.75-.75h-1a.75.75 0 0 0 0 1.5h1a.75.75 0 0 0 .75-.75ZM8.75 15a.75.75 0 0 0-.75-.75H7a.75.75 0 0 0 0 1.5h1a.75.75 0 0 0 .75-.75Z" fill="#868686"/>
</svg>
