<svg width="24" height="24" fill="none" xmlns="http://www.w3.org/2000/svg">
    <path fill-rule="evenodd" clip-rule="evenodd" d="M12 1.25a.75.75 0 0 1 .75.75v1a.75.75 0 1 1-1.5 0V2a.75.75 0 0 1 .75-.75Zm0 5.5a5.25 5.25 0 1 0 0 10.5 5.25 5.25 0 0 0 0-10.5ZM5.25 12a6.75 6.75 0 1 1 13.5 0 6.75 6.75 0 0 1-13.5 0ZM2.69 6.625a.75.75 0 0 1 1.025-.275l.866.5a.75.75 0 1 1-.75 1.3l-.866-.5a.75.75 0 0 1-.275-1.025Zm18.62 0a.75.75 0 0 1-.274 1.025l-.867.5a.75.75 0 1 1-.75-1.3l.866-.5a.75.75 0 0 1 1.025.275Zm-16.454 9.5a.75.75 0 0 1-.275 1.024l-.866.5a.75.75 0 0 1-.75-1.299l.866-.5a.75.75 0 0 1 1.025.275Zm14.289 0a.75.75 0 0 1 1.024-.274l.866.5a.75.75 0 0 1-.75 1.299l-.866-.5a.75.75 0 0 1-.274-1.025ZM12 20.25a.75.75 0 0 1 .75.75v1a.75.75 0 1 1-1.5 0v-1a.75.75 0 0 1 .75-.75Z" fill="#868686"/>
</svg>
