<svg width="24" height="24" fill="none" xmlns="http://www.w3.org/2000/svg">
    <path fill-rule="evenodd" clip-rule="evenodd" d="M1.25 12A4.75 4.75 0 0 1 6 7.25h2.008v1.5H6A3.25 3.25 0 0 0 2.75 12v6A3.25 3.25 0 0 0 6 21.25h12A3.25 3.25 0 0 0 21.25 18v-6A3.25 3.25 0 0 0 18 8.75h-1.913v-1.5H18A4.75 4.75 0 0 1 22.75 12v6A4.75 4.75 0 0 1 18 22.75H6A4.75 4.75 0 0 1 1.25 18v-6Z" fill="#868686"/>
    <path fill-rule="evenodd" clip-rule="evenodd" d="M13.25 15a.75.75 0 0 0-.75-.75h-1a.75.75 0 0 0 0 1.5h1a.75.75 0 0 0 .75-.75ZM18.75 15a.75.75 0 0 0-.75-.75h-1a.75.75 0 0 0 0 1.5h1a.75.75 0 0 0 .75-.75ZM7.75 15a.75.75 0 0 0-.75-.75H6a.75.75 0 0 0 0 1.5h1a.75.75 0 0 0 .75-.75ZM12 2.75c-2.075 0-3.704 1.607-3.704 3.526 0 .994.488 2.458 1.274 3.689.387.606.822 1.117 1.263 1.469.444.355.84.506 1.167.506.327 0 .723-.151 1.168-.506.44-.352.875-.863 1.262-1.47.786-1.23 1.274-2.694 1.274-3.688 0-1.919-1.63-3.526-3.704-3.526ZM6.796 6.276c0-2.804 2.36-5.026 5.204-5.026 2.845 0 5.204 2.222 5.204 5.026 0 1.367-.625 3.11-1.51 4.496-.448.702-.987 1.351-1.59 1.834-.6.478-1.317.834-2.104.834-.786 0-1.504-.356-2.103-.834-.604-.482-1.143-1.132-1.591-1.834-.885-1.386-1.51-3.129-1.51-4.496ZM12 5.422a.586.586 0 1 0 0 1.173.586.586 0 0 0 0-1.173Zm-2.086.587a2.086 2.086 0 1 1 4.172 0 2.086 2.086 0 0 1-4.172 0Z" fill="#868686"/>
</svg>
