<svg width="24" height="24" fill="none" xmlns="http://www.w3.org/2000/svg">
    <path fill-rule="evenodd" clip-rule="evenodd" d="M8.642 6.873A1.25 1.25 0 0 0 6.874 8.64l2.828 2.828a.75.75 0 0 1 0 1.06l-2.828 2.83a1.25 1.25 0 0 0 1.768 1.767l2.828-2.828a.75.75 0 0 1 1.06 0l2.83 2.828a1.25 1.25 0 1 0 1.767-1.768l-2.828-2.828a.75.75 0 0 1 0-1.06l2.828-2.83a1.25 1.25 0 0 0-1.768-1.767l-2.828 2.828a.75.75 0 0 1-1.06 0L8.64 6.873Zm-2.829-1.06a2.75 2.75 0 0 1 3.89 0L12 8.11l2.298-2.298a2.75 2.75 0 0 1 3.889 3.89l-2.298 2.297 2.298 2.299a2.75 2.75 0 1 1-3.89 3.889l-2.297-2.298-2.299 2.298a2.75 2.75 0 0 1-3.889-3.89L8.111 12 5.813 9.701a2.75 2.75 0 0 1 0-3.889Z" fill="#868686"/>
</svg>
