<svg width="24" height="24" fill="none" xmlns="http://www.w3.org/2000/svg">
    <path fill-rule="evenodd" clip-rule="evenodd" d="M11.25 2a.75.75 0 0 1 .75-.75c5.937 0 10.75 4.813 10.75 10.75S17.937 22.75 12 22.75a.75.75 0 0 1 0-1.5 9.25 9.25 0 0 0 0-18.5.75.75 0 0 1-.75-.75Z" fill="#868686"/>
    <path fill-rule="evenodd" clip-rule="evenodd" d="M12 11.25a.75.75 0 1 0 0 1.5.75.75 0 0 0 0-1.5ZM9.75 12a2.25 2.25 0 1 1 4.5 0 2.25 2.25 0 0 1-4.5 0Z" fill="#868686"/>
    <path fill-rule="evenodd" clip-rule="evenodd" d="M12 12.75a.75.75 0 0 1 .75.75V16a.75.75 0 0 1-1.5 0v-2.5a.75.75 0 0 1 .75-.75ZM12 5.25a.75.75 0 0 1 .75.75v4.5a.75.75 0 0 1-1.5 0V6a.75.75 0 0 1 .75-.75Z" fill="#868686"/>
</svg>
