<svg width="24" height="24" fill="none" xmlns="http://www.w3.org/2000/svg">
    <path d="M12.5 2h-1a1 1 0 0 0-1 1v1.314l3-.804V3a1 1 0 0 0-1-1ZM11.5 22h1a1 1 0 0 0 1-1v-1h-3v1a1 1 0 0 0 1 1ZM10.5 11.49l3-.804V13h-3v-1.51ZM5.558 6.638a1 1 0 0 0-.707 1.225l.776 2.898a1 1 0 0 0 1.225.707l10.16-2.723a1 1 0 0 0 .658-.564l.77-1.76a1 1 0 0 0-.323-1.207L16.57 4.076a1 1 0 0 0-.851-.16L5.558 6.638ZM6 14a1 1 0 0 0-1 1v3a1 1 0 0 0 1 1h10.52a1 1 0 0 0 .78-.375l1.2-1.5a1 1 0 0 0 0-1.25l-1.2-1.5a1 1 0 0 0-.78-.375H6Z" fill="#868686"/>
</svg>
