<svg width="24" height="24" fill="none" xmlns="http://www.w3.org/2000/svg">
    <path d="m12.336 12.67.335.672-.335-.671Zm-2 1L10 13l.336.67Zm-1.007-.335-.67.336.67-.336Zm.336-1.006L10 13l-.335-.67Zm1.585-.793.336.671a.75.75 0 0 0 .414-.67h-.75ZM17.75 19v-.75h-1.5V19h1.5Zm-10 0v-.75h-1.5V19h1.5Zm8.5-14v.75h1.5V5h-1.5Zm-10 0v.75h1.5V5h-1.5ZM5 9a4 4 0 0 1 4-4V3.5A5.5 5.5 0 0 0 3.5 9H5Zm4-4h6V3.5H9V5Zm6 0a4 4 0 0 1 4 4h1.5A5.5 5.5 0 0 0 15 3.5V5Zm4 4v6h1.5V9H19Zm0 6a4 4 0 0 1-4 4v1.5a5.5 5.5 0 0 0 5.5-5.5H19Zm-4 4H9v1.5h6V19Zm-6 0a4 4 0 0 1-4-4H3.5A5.5 5.5 0 0 0 9 20.5V19Zm-4-4V9H3.5v6H5ZM9 5a4 4 0 0 0-4 4h1.5A2.5 2.5 0 0 1 9 6.5V5ZM5 9v6h1.5V9H5Zm0 6a4 4 0 0 0 4 4v-1.5A2.5 2.5 0 0 1 6.5 15H5Zm4 4h6v-1.5H9V19Zm6 0a4 4 0 0 0 4-4h-1.5a2.5 2.5 0 0 1-2.5 2.5V19Zm4-4V9h-1.5v6H19Zm0-6a4 4 0 0 0-4-4v1.5A2.5 2.5 0 0 1 17.5 9H19Zm-4-4H9v1.5h6V5Zm-3 4h1.5A1.5 1.5 0 0 0 12 7.5V9Zm0 0v3h1.5V9H12Zm0 3 .671 1.342a1.5 1.5 0 0 0 .83-1.342H12Zm0 0-2 1 .671 1.342 2-1-.67-1.342Zm-2 1-1.341.67a1.5 1.5 0 0 0 2.012.672L10.001 13Zm0 0-.67-1.342a1.5 1.5 0 0 0-.671 2.013L10 13Zm0 0 1.586-.793-.671-1.341-1.586.792L10 13Zm2-1.463V9h-1.5v2.537H12ZM12 9V7.5A1.5 1.5 0 0 0 10.5 9H12Zm4.25 10v1h1.5v-1h-1.5ZM15 21.25H9v1.5h6v-1.5ZM7.75 20v-1h-1.5v1h1.5ZM9 21.25c-.69 0-1.25-.56-1.25-1.25h-1.5A2.75 2.75 0 0 0 9 22.75v-1.5ZM16.25 20c0 .69-.56 1.25-1.25 1.25v1.5A2.75 2.75 0 0 0 17.75 20h-1.5Zm1.5-15V4h-1.5v1h1.5ZM15 1.25H9v1.5h6v-1.5ZM6.25 4v1h1.5V4h-1.5ZM9 1.25A2.75 2.75 0 0 0 6.25 4h1.5c0-.69.56-1.25 1.25-1.25v-1.5ZM17.75 4A2.75 2.75 0 0 0 15 1.25v1.5c.69 0 1.25.56 1.25 1.25h1.5Z" fill="#868686"/>
</svg>
