<svg width="24" height="24" fill="none" xmlns="http://www.w3.org/2000/svg">
    <path d="M13.5 3.5a1.5 1.5 0 1 1-3 0 1.5 1.5 0 0 1 3 0ZM13 21a1 1 0 1 1-2 0 1 1 0 0 1 2 0ZM9 21a1 1 0 1 1-2 0 1 1 0 0 1 2 0ZM17 21a1 1 0 1 1-2 0 1 1 0 0 1 2 0Z" fill="#868686"/>
    <path fill-rule="evenodd" clip-rule="evenodd" d="M4.272 5.82a.75.75 0 0 1 .908-.548c2.68.661 4.715.98 6.754.978 2.04 0 4.12-.321 6.893-.98a.75.75 0 0 1 .346 1.46c-2.827.671-5.034 1.02-7.239 1.02-2.206.001-4.37-.345-7.113-1.022a.75.75 0 0 1-.549-.907Z" fill="#868686"/>
    <path d="M10 12V7h4v5h-4Z" fill="#868686"/>
    <path fill-rule="evenodd" clip-rule="evenodd" d="M11.093 9.256a.75.75 0 0 1 .651.837l-1 8a.75.75 0 0 1-1.488-.186l1-8a.75.75 0 0 1 .837-.651ZM12.907 9.256a.75.75 0 0 1 .837.651l1 8a.75.75 0 0 1-1.488.186l-1-8a.75.75 0 0 1 .651-.837Z" fill="#868686"/>
</svg>
