<svg width="24" height="24" fill="none" xmlns="http://www.w3.org/2000/svg">
    <path fill-rule="evenodd" clip-rule="evenodd" d="M9 3.75a6.25 6.25 0 0 0-3.124 11.664.75.75 0 0 1-.752 1.299A7.75 7.75 0 1 1 15.846 6.366a5.75 5.75 0 0 1 4.029 10.614.75.75 0 1 1-.75-1.298 4.25 4.25 0 1 0-5.1-6.717.75.75 0 1 1-1.05-1.071c.42-.412.903-.76 1.434-1.028A6.248 6.248 0 0 0 9 3.75Zm4.255 6.545a.75.75 0 0 1 .495.705v3.25H16a.75.75 0 0 1 .576 1.23l-5 6A.75.75 0 0 1 10.25 21v-3.25H8a.75.75 0 0 1-.576-1.23l5-6a.75.75 0 0 1 .831-.225ZM9.601 16.25H11a.75.75 0 0 1 .75.75v1.928l2.649-3.178H13a.75.75 0 0 1-.75-.75v-1.928L9.601 16.25Z" fill="#868686"/>
</svg>
