<svg width="24" height="24" fill="none" xmlns="http://www.w3.org/2000/svg">
    <path fill-rule="evenodd" clip-rule="evenodd" d="M7.205 11.75c-1.504 0-2.308-1.77-1.317-2.902L9.93 4.226a2.75 2.75 0 0 1 4.14 0l4.043 4.622c.99 1.131.187 2.902-1.317 2.902h-1.046V19A2.75 2.75 0 0 1 13 21.75h-2A2.75 2.75 0 0 1 8.25 19v-7.25H7.205Zm-.189-1.915a.25.25 0 0 0 .189.415H9a.75.75 0 0 1 .75.75v8c0 .69.56 1.25 1.25 1.25h2c.69 0 1.25-.56 1.25-1.25v-8a.75.75 0 0 1 .75-.75h1.796a.25.25 0 0 0 .188-.415l-4.043-4.621a1.25 1.25 0 0 0-1.882 0L7.016 9.835Z" fill="#868686"/>
</svg>
