<svg width="24" height="24" fill="none" xmlns="http://www.w3.org/2000/svg">
    <path fill-rule="evenodd" clip-rule="evenodd" d="M12.582 17.919c0 .66.116 1.292.329 1.878a9 9 0 1 1 6.928-7.092 5.5 5.5 0 0 0-7.257 5.213ZM11 13.75a8.21 8.21 0 0 0-3.995 1.03.75.75 0 0 1-.727-1.312A9.71 9.71 0 0 1 11 12.25c.366 0 .727.02 1.082.06a.75.75 0 1 1-.164 1.49 8.343 8.343 0 0 0-.918-.05ZM11 5a3 3 0 1 1 0 6 3 3 0 0 1 0-6Z" fill="#868686"/>
    <path d="M18 14c.834 0 1.608.255 2.248.691l-5.557 5.557A4 4 0 0 1 18 14ZM15.752 21.309l5.557-5.557a4 4 0 0 1-5.557 5.557Z" fill="#868686"/>
</svg>
