<svg width="24" height="24" fill="none" xmlns="http://www.w3.org/2000/svg">
    <path d="M8.5 17a1.5 1.5 0 1 1-3 0 1.5 1.5 0 0 1 3 0Z" fill="#868686"/>
    <path fill-rule="evenodd" clip-rule="evenodd" d="M1.25 6A4.75 4.75 0 0 1 6 1.25h12A4.75 4.75 0 0 1 22.75 6v12A4.75 4.75 0 0 1 18 22.75H6A4.75 4.75 0 0 1 1.25 18V6ZM6 2.75A3.25 3.25 0 0 0 2.75 6v12A3.25 3.25 0 0 0 6 21.25h12A3.25 3.25 0 0 0 21.25 18V6A3.25 3.25 0 0 0 18 2.75H6ZM5.25 6A.75.75 0 0 1 6 5.25c7.042 0 12.75 5.708 12.75 12.75a.75.75 0 0 1-1.5 0c0-6.213-5.037-11.25-11.25-11.25A.75.75 0 0 1 5.25 6Zm.006 4.907a.75.75 0 0 1 .837-.651 8.825 8.825 0 0 1 7.651 7.651.75.75 0 1 1-1.488.186 7.325 7.325 0 0 0-6.349-6.349.75.75 0 0 1-.651-.837Z" fill="#868686"/>
</svg>
