<svg width="24" height="24" fill="none" xmlns="http://www.w3.org/2000/svg">
    <path fill-rule="evenodd" clip-rule="evenodd" d="M10.5 2.75a7.75 7.75 0 1 0 6.23 12.36.75.75 0 1 1 1.206.893 9.24 9.24 0 0 1-6.686 3.717v1.504c4.577-.315 8.366-3.496 9.586-7.76A3.25 3.25 0 1 1 22.75 10.5c0 6.764-5.485 12.249-12.25 12.249a.75.75 0 0 1-.75-.75v-2.28a9.25 9.25 0 1 1 8.186-14.723.75.75 0 1 1-1.206.893 7.738 7.738 0 0 0-6.23-3.14Zm10.75 7.75a1.75 1.75 0 1 0-3.5 0 1.75 1.75 0 0 0 3.5 0Zm-13 0a2.25 2.25 0 1 1 4.5 0 2.25 2.25 0 0 1-4.5 0Zm2.25-.75a.75.75 0 1 0 0 1.5.75.75 0 0 0 0-1.5Z" fill="#868686"/>
</svg>
