<svg width="24" height="24" fill="none" xmlns="http://www.w3.org/2000/svg">
    <path fill-rule="evenodd" clip-rule="evenodd" d="M5 7.25c-1.853-2.472-.09-6 3-6h8c3.091 0 4.855 3.528 3 6l-2.55 3.4c-.6.8-.6 1.9 0 2.7l2.55 3.4c1.855 2.472.091 6-3 6H8c-3.09 0-4.853-3.528-3-6l2.551-3.4c.6-.8.6-1.9 0-2.7l-2.55-3.4Zm3-4.5c-1.853 0-2.912 2.117-1.8 3.6l2.55 3.4c1 1.333 1 3.167 0 4.5l-2.55 3.4c-1.112 1.483-.053 3.6 1.8 3.6h8c1.855 0 2.913-2.117 1.8-3.6l-2.55-3.4a3.75 3.75 0 0 1 0-4.5l2.55-3.4c1.113-1.483.055-3.6-1.8-3.6H8Z" fill="#868686"/>
</svg>
