<svg width="24" height="24" fill="none" xmlns="http://www.w3.org/2000/svg">
    <path fill-rule="evenodd" clip-rule="evenodd" d="M12.559 6.116a1.25 1.25 0 0 0-1.118 0L3.677 9.998l7.764 3.882a1.25 1.25 0 0 0 1.118 0l7.764-3.882-7.764-3.882ZM10.77 4.775a2.75 2.75 0 0 1 2.46 0l9.105 4.552a.75.75 0 0 1 0 1.342l-3.585 1.793v3.536a3.75 3.75 0 0 1-3.75 3.75H9a3.75 3.75 0 0 1-3.75-3.75v-3.536l-3.585-1.793a.75.75 0 0 1 0-1.342l9.105-4.552Zm-4.02 8.437v2.786A2.25 2.25 0 0 0 9 18.248h6a2.25 2.25 0 0 0 2.25-2.25v-2.786l-4.02 2.01a2.75 2.75 0 0 1-2.46 0l-4.02-2.01Z" fill="#868686"/>
    <path fill-rule="evenodd" clip-rule="evenodd" d="M22 9.25a.75.75 0 0 1 .75.75v6a.75.75 0 0 1-1.5 0v-6a.75.75 0 0 1 .75-.75Z" fill="#868686"/>
</svg>
