<svg width="24" height="24" fill="none" xmlns="http://www.w3.org/2000/svg">
    <path fill-rule="evenodd" clip-rule="evenodd" d="M15.909 3.795c-1.283.384-2.493 1.306-3.462 2.179C11.473 6.85 10.203 7.66 8 7.66a.75.75 0 1 1 0-1.5c1.742 0 2.668-.604 3.443-1.302 1.003-.904 2.42-2.017 4.036-2.5 1.68-.504 3.553-.313 5.3 1.336 1.444 1.363 1.976 3.218 1.971 5.133-.004 1.908-.538 3.938-1.298 5.778-.762 1.843-1.77 3.54-2.767 4.79-.498.624-1.008 1.155-1.5 1.538-.466.362-1.026.679-1.605.679a1.79 1.79 0 0 1-1.3-.534c-.314-.315-.51-.723-.643-1.118-.243-.724-.35-1.649-.448-2.484l-.022-.186c-.11-.94-.22-1.76-.45-2.35-.112-.287-.232-.463-.345-.565a.573.573 0 0 0-.396-.15.75.75 0 0 1 .048-1.5c.537.017.993.21 1.356.538.346.314.575.723.734 1.133.313.803.438 1.824.543 2.72l.014.118c.106.903.197 1.68.388 2.248.098.29.199.452.283.536a.295.295 0 0 0 .238.094c.064 0 .288-.056.684-.363.369-.287.796-.723 1.248-1.29.902-1.13 1.841-2.704 2.553-4.427.714-1.727 1.181-3.558 1.185-5.209.004-1.644-.449-3.045-1.501-4.038-1.32-1.246-2.621-1.355-3.84-.99Z" fill="#868686"/>
    <path fill-rule="evenodd" clip-rule="evenodd" d="M8.056 3.785c1.271.37 2.474 1.273 3.444 2.14a.75.75 0 1 0 1-1.117c-1.008-.901-2.418-1.995-4.024-2.463-1.671-.487-3.524-.283-5.254 1.35C1.777 5.058 1.246 6.913 1.25 8.828c.004 1.908.538 3.938 1.299 5.778.761 1.843 1.77 3.54 2.767 4.79.497.624 1.007 1.155 1.5 1.538.466.362 1.025.679 1.604.679a1.79 1.79 0 0 0 1.3-.534c.314-.315.51-.723.643-1.118.243-.724.35-1.649.448-2.484l.022-.186c.11-.94.221-1.76.451-2.35.111-.287.231-.463.344-.566a.573.573 0 0 1 .396-.15.75.75 0 1 0-.048-1.499 2.07 2.07 0 0 0-1.355.538c-.347.314-.575.723-.735 1.133-.312.803-.438 1.824-.543 2.72l-.014.118c-.106.903-.197 1.68-.388 2.248-.097.29-.199.452-.283.536a.295.295 0 0 1-.238.094c-.064 0-.288-.056-.683-.363-.37-.287-.797-.723-1.249-1.29-.902-1.13-1.84-2.704-2.553-4.427-.714-1.727-1.181-3.558-1.185-5.209-.004-1.644.449-3.045 1.502-4.038C5.56 3.55 6.849 3.433 8.056 3.785Z" fill="#868686"/>
</svg>
