<svg width="24" height="24" fill="none" xmlns="http://www.w3.org/2000/svg">
    <path fill-rule="evenodd" clip-rule="evenodd" d="M6.593 3.54a.75.75 0 0 1-.134 1.053 9.622 9.622 0 0 0-2.71 3.283 9.342 9.342 0 0 0-.998 4.09 9.335 9.335 0 0 0 .903 4.11 9.604 9.604 0 0 0 2.634 3.341.75.75 0 0 1-.945 1.166A11.104 11.104 0 0 1 2.3 16.719a10.834 10.834 0 0 1-1.048-4.77 10.843 10.843 0 0 1 1.157-4.746 11.122 11.122 0 0 1 3.133-3.796.75.75 0 0 1 1.052.134Zm10.814 0a.75.75 0 0 1 1.052-.133 11.122 11.122 0 0 1 3.133 3.796 10.843 10.843 0 0 1 1.157 4.746 10.835 10.835 0 0 1-1.047 4.77 11.105 11.105 0 0 1-3.045 3.864.75.75 0 1 1-.945-1.166 9.604 9.604 0 0 0 2.634-3.34 9.334 9.334 0 0 0 .903-4.111 9.343 9.343 0 0 0-.997-4.09 9.622 9.622 0 0 0-2.711-3.283.75.75 0 0 1-.134-1.052ZM8.591 7.539a.75.75 0 0 1-.13 1.053 4.501 4.501 0 0 0-1.253 1.523 4.278 4.278 0 0 0-.458 1.874c-.007.649.134 1.291.416 1.884a4.487 4.487 0 0 0 1.219 1.547.75.75 0 1 1-.949 1.162 5.988 5.988 0 0 1-1.625-2.066 5.773 5.773 0 0 1-.56-2.543c.01-.879.22-1.743.617-2.532a6.001 6.001 0 0 1 1.67-2.03.75.75 0 0 1 1.053.128Zm6.818 0a.75.75 0 0 1 1.053-.129 6.002 6.002 0 0 1 1.67 2.031 5.77 5.77 0 0 1 .056 5.075 5.987 5.987 0 0 1-1.624 2.066.75.75 0 1 1-.949-1.162 4.487 4.487 0 0 0 1.219-1.547 4.272 4.272 0 0 0-.042-3.758 4.5 4.5 0 0 0-1.254-1.523.75.75 0 0 1-.129-1.053ZM9.25 12a2.75 2.75 0 1 1 3.5 2.646V20a.75.75 0 0 1-1.5 0v-5.354a2.751 2.751 0 0 1-2-2.646ZM12 10.75a1.25 1.25 0 1 0 0 2.5 1.25 1.25 0 0 0 0-2.5Z" fill="#868686"/>
</svg>
