<svg width="24" height="24" fill="none" xmlns="http://www.w3.org/2000/svg">
    <path fill-rule="evenodd" clip-rule="evenodd" d="M7 1.25h4.343c1.26 0 2.468.5 3.359 1.391l5.657 5.657a4.75 4.75 0 0 1 1.391 3.359V18A4.75 4.75 0 0 1 17 22.75H7A4.75 4.75 0 0 1 2.25 18V6A4.75 4.75 0 0 1 7 1.25Zm4.343 1.5H7A3.25 3.25 0 0 0 3.75 6v12A3.25 3.25 0 0 0 7 21.25h10A3.25 3.25 0 0 0 20.25 18v-6.343c0-.31-.044-.615-.13-.907H17A4.75 4.75 0 0 1 12.25 6V2.88a3.249 3.249 0 0 0-.907-.13Zm2.407 1.06V6A3.25 3.25 0 0 0 17 9.25h2.19l-5.44-5.44ZM11.25 13c0-.966.784-1.75 1.75-1.75A2.75 2.75 0 0 1 15.75 14v.05a.75.75 0 0 1-1.5 0V14c0-.69-.56-1.25-1.25-1.25a.25.25 0 0 0-.25.25v3.5a2.25 2.25 0 1 1-1.5-2.122V13Zm0 3.5a.75.75 0 1 0-1.5 0 .75.75 0 0 0 1.5 0Z" fill="#868686"/>
</svg>
