<svg width="24" height="24" fill="none" xmlns="http://www.w3.org/2000/svg">
    <path fill-rule="evenodd" clip-rule="evenodd" d="M6 2.75c-.69 0-1.25.56-1.25 1.25v8.258c.083-.005.166-.008.25-.008h1c.866 0 1.68.408 2.2 1.1l1.2 1.6a3.25 3.25 0 0 0 5.2 0l1.2-1.6a2.75 2.75 0 0 1 2.2-1.1h1c.084 0 .167.003.25.008V8.657c0-.31-.044-.615-.13-.907H17A2.75 2.75 0 0 1 14.25 5V2.88a3.249 3.249 0 0 0-.907-.13H6Zm9.75 1.06V5c0 .69.56 1.25 1.25 1.25h1.19l-2.44-2.44Zm5 8.872a3.75 3.75 0 0 1 2 3.318v3A3.75 3.75 0 0 1 19 22.75H5A3.75 3.75 0 0 1 1.25 19v-3a3.75 3.75 0 0 1 2-3.318V4A2.75 2.75 0 0 1 6 1.25h7.343c1.26 0 2.468.5 3.359 1.391l2.657 2.657a4.75 4.75 0 0 1 1.391 3.359v4.025ZM7.25 6A.75.75 0 0 1 8 5.25h4a.75.75 0 0 1 0 1.5H8A.75.75 0 0 1 7.25 6Zm0 4A.75.75 0 0 1 8 9.25h8a.75.75 0 0 1 0 1.5H8a.75.75 0 0 1-.75-.75ZM5 13.75A2.25 2.25 0 0 0 2.75 16v3A2.25 2.25 0 0 0 5 21.25h14A2.25 2.25 0 0 0 21.25 19v-3A2.25 2.25 0 0 0 19 13.75h-1a1.25 1.25 0 0 0-1 .5l-1.2 1.6a4.75 4.75 0 0 1-7.6 0L7 14.25a1.25 1.25 0 0 0-1-.5H5Z" fill="#868686"/>
</svg>
