<svg width="24" height="24" fill="none" xmlns="http://www.w3.org/2000/svg">
    <path fill-rule="evenodd" clip-rule="evenodd" d="M18 2.063a4 4 0 0 1 4 4v6a2 2 0 0 1-2 2h-5a2 2 0 0 0-2 2v4a2 2 0 0 1-2 2H6a4 4 0 0 1-4-4v-12a4 4 0 0 1 4-4h12ZM8 7.647V3.563h8v4.085c0 .891-1.077 1.337-1.707.707L12.707 6.77a1 1 0 0 0-1.414 0L9.707 8.355C9.077 8.985 8 8.54 8 7.648Z" fill="#868686"/>
    <path d="M18.75 16.063a.75.75 0 0 0-1.5 0v2.25H15a.75.75 0 0 0 0 1.5h2.25v2.25a.75.75 0 0 0 1.5 0v-2.25H21a.75.75 0 0 0 0-1.5h-2.25v-2.25Z" fill="#868686"/>
</svg>
