<svg width="24" height="24" fill="none" xmlns="http://www.w3.org/2000/svg">
    <path fill-rule="evenodd" clip-rule="evenodd" d="M8 19.75a.75.75 0 0 1-.75-.75v-8.19l-.72.72a.75.75 0 0 1-1.06-1.06l2-2a.75.75 0 0 1 1.06 0l2 2a.75.75 0 1 1-1.06 1.06l-.72-.72V19a.75.75 0 0 1-.75.75ZM16 19.75a.75.75 0 0 1-.75-.75v-8.19l-.72.72a.75.75 0 1 1-1.06-1.06l2-2a.75.75 0 0 1 1.06 0l2 2a.75.75 0 1 1-1.06 1.06l-.72-.72V19a.75.75 0 0 1-.75.75ZM4.25 5c0 .414.336.75.75.75h14a.75.75 0 0 0 0-1.5H5a.75.75 0 0 0-.75.75Z" fill="#868686"/>
</svg>
