<svg width="24" height="24" fill="none" xmlns="http://www.w3.org/2000/svg">
    <path d="M2.75 6A3.25 3.25 0 0 1 6 2.75h2a.75.75 0 0 0 0-1.5H6A4.75 4.75 0 0 0 1.25 6v2a.75.75 0 0 0 1.5 0V6ZM16 1.25a.75.75 0 0 0 0 1.5h2A3.25 3.25 0 0 1 21.25 6v2a.75.75 0 0 0 1.5 0V6A4.75 4.75 0 0 0 18 1.25h-2ZM2.75 15.944a.75.75 0 0 0-1.5 0V18A4.75 4.75 0 0 0 6 22.75h2a.75.75 0 0 0 0-1.5H6A3.25 3.25 0 0 1 2.75 18v-2.056ZM22.75 15.944a.75.75 0 0 0-1.5 0V18A3.25 3.25 0 0 1 18 21.25h-2a.75.75 0 0 0 0 1.5h2A4.75 4.75 0 0 0 22.75 18v-2.056ZM7 11.25a.75.75 0 0 0 0 1.5h10a.75.75 0 0 0 0-1.5H7ZM16 6.75a.75.75 0 0 1 .75.75v2a.75.75 0 0 1-1.5 0v-2a.75.75 0 0 1 .75-.75ZM12.75 7.5a.75.75 0 0 0-1.5 0v2a.75.75 0 0 0 1.5 0v-2ZM8 6.75a.75.75 0 0 1 .75.75v2a.75.75 0 0 1-1.5 0v-2A.75.75 0 0 1 8 6.75ZM12.75 14.5a.75.75 0 0 0-1.5 0v2a.75.75 0 0 0 1.5 0v-2ZM16 13.75a.75.75 0 0 1 .75.75v2a.75.75 0 0 1-1.5 0v-2a.75.75 0 0 1 .75-.75ZM8.75 14.5a.75.75 0 0 0-1.5 0v2a.75.75 0 0 0 1.5 0v-2Z" fill="#868686"/>
</svg>
