<svg width="24" height="24" fill="none" xmlns="http://www.w3.org/2000/svg">
    <path fill-rule="evenodd" clip-rule="evenodd" d="M16 4.75c-.69 0-1.25.56-1.25 1.25v12c0 .69.56 1.25 1.25 1.25h2c.69 0 1.25-.56 1.25-1.25V6c0-.69-.56-1.25-1.25-1.25h-2Zm4.75 6.5V6A2.75 2.75 0 0 0 18 3.25h-2A2.75 2.75 0 0 0 13.25 6v5.25h-2.5V9A2.75 2.75 0 0 0 8 6.25H6A2.75 2.75 0 0 0 3.25 9v2.25H2a.75.75 0 0 0 0 1.5h1.25V15A2.75 2.75 0 0 0 6 17.75h2A2.75 2.75 0 0 0 10.75 15v-2.25h2.5V18A2.75 2.75 0 0 0 16 20.75h2A2.75 2.75 0 0 0 20.75 18v-5.25H22a.75.75 0 0 0 0-1.5h-1.25ZM9.25 12v3c0 .69-.56 1.25-1.25 1.25H6c-.69 0-1.25-.56-1.25-1.25V9c0-.69.56-1.25 1.25-1.25h2c.69 0 1.25.56 1.25 1.25v3Z" fill="#868686"/>
</svg>
