<svg width="24" height="24" fill="none" xmlns="http://www.w3.org/2000/svg">
    <path d="M22 7.25h-6.543l3.641-5.097A4.002 4.002 0 0 1 22 6v1.25Z" fill="#868686"/>
    <path fill-rule="evenodd" clip-rule="evenodd" d="M2 8.75h20V18a4 4 0 0 1-4 4H6a4 4 0 0 1-4-4V8.75Zm10 4.139.268-.29c.74-.799 1.938-.799 2.677 0 .74.8.74 2.096 0 2.895l-1.874 2.026c-.591.64-1.55.64-2.142 0l-1.874-2.026c-.74-.8-.74-2.095 0-2.894.739-.8 1.938-.8 2.677 0l.268.289Z" fill="#868686"/>
    <path d="M5.614 7.25H2V6a4 4 0 0 1 4-4h3.364l-3.75 5.25ZM7.457 7.25 11.207 2h6.157l-3.75 5.25H7.457Z" fill="#868686"/>
</svg>
