<svg width="24" height="24" fill="none" xmlns="http://www.w3.org/2000/svg">
    <path fill-rule="evenodd" clip-rule="evenodd" d="M14.031 3.38a3.593 3.593 0 0 0-4.062 0L3.58 7.812c-1.006.698-1.11 2.061-.242 2.89a3.36 3.36 0 0 1 1.051 2.43v4.878c0 1.756 1.503 3.239 3.43 3.239h8.361c1.928 0 3.43-1.483 3.43-3.24v-4.877a3.36 3.36 0 0 1 1.053-2.43c.867-.829.763-2.192-.243-2.89L14.031 3.38ZM9.114 2.146a5.093 5.093 0 0 1 5.772 0l6.39 4.434c1.774 1.232 1.987 3.714.422 5.206a1.86 1.86 0 0 0-.587 1.346v4.878c0 2.65-2.241 4.739-4.93 4.739H7.82c-2.69 0-4.93-2.09-4.93-4.74v-4.877a1.86 1.86 0 0 0-.588-1.346C.738 10.295.95 7.813 2.725 6.581l6.389-4.434ZM12 9.75a2.583 2.583 0 0 0-2.583 2.583v1.234c0 .803-.332 1.57-.918 2.118a.327.327 0 0 0 .224.565h6.555c.296 0 .439-.362.223-.565a2.903 2.903 0 0 1-.917-2.118v-1.234A2.583 2.583 0 0 0 12 9.75Zm-4.083 2.583a4.083 4.083 0 0 1 8.167 0v1.234c0 .388.16.759.443 1.024 1.208 1.132.406 3.159-1.25 3.159H8.724c-1.656 0-2.458-2.027-1.25-3.16.283-.264.444-.635.444-1.023v-1.234ZM10.25 19a.75.75 0 0 1 .75-.75h2a.75.75 0 0 1 0 1.5h-2a.75.75 0 0 1-.75-.75Z" fill="#868686"/>
</svg>
