<svg width="24" height="24" fill="none" xmlns="http://www.w3.org/2000/svg">
    <path fill-rule="evenodd" clip-rule="evenodd" d="M17.5 2.75a3.75 3.75 0 1 0 0 7.5 3.75 3.75 0 0 0 0-7.5ZM12.25 6.5a5.25 5.25 0 1 1 10.5 0 5.25 5.25 0 0 1-10.5 0Z" fill="#868686"/>
    <path fill-rule="evenodd" clip-rule="evenodd" d="M19 3.75a.75.75 0 0 1 .75.75v4a.75.75 0 0 1-1.5 0v-4a.75.75 0 0 1 .75-.75ZM16 3.75a.75.75 0 0 1 .75.75v4a.75.75 0 0 1-1.5 0v-4a.75.75 0 0 1 .75-.75Z" fill="#868686"/>
    <path fill-rule="evenodd" clip-rule="evenodd" d="M19.75 6.5a.75.75 0 0 1-.75.75h-3a.75.75 0 0 1 0-1.5h3a.75.75 0 0 1 .75.75ZM2 8.25a.75.75 0 0 1 .75.75v8.25H22a.75.75 0 0 1 .75.75v4a.75.75 0 0 1-1.5 0v-3.25H2.75V22a.75.75 0 0 1-1.5 0V9A.75.75 0 0 1 2 8.25Z" fill="#868686"/>
    <path fill-rule="evenodd" clip-rule="evenodd" d="M1.25 14a.75.75 0 0 1 .75-.75h18A2.75 2.75 0 0 1 22.75 16v2a.75.75 0 0 1-.75.75H2a.75.75 0 0 1-.75-.75v-4Zm1.5.75v2.5h18.5V16c0-.69-.56-1.25-1.25-1.25H2.75Z" fill="#868686"/>
    <path fill-rule="evenodd" clip-rule="evenodd" d="M6 11.75a.25.25 0 0 0-.25.25v1.25h3.5V12a.25.25 0 0 0-.25-.25H6ZM4.25 12c0-.966.784-1.75 1.75-1.75h3c.966 0 1.75.784 1.75 1.75v2a.75.75 0 0 1-.75.75H5a.75.75 0 0 1-.75-.75v-2Z" fill="#868686"/>
</svg>
