<svg width="24" height="24" fill="none" xmlns="http://www.w3.org/2000/svg">
    <path fill-rule="evenodd" clip-rule="evenodd" d="M2 5v12.25c0 1.795 1.48 3.25 3.275 3.25 1.768 0 3.225-1.433 3.225-3.2a.8.8 0 0 1 .8-.8H18V5a3 3 0 0 0-3-3H5a3 3 0 0 0-3 3Zm9.591 7.652a.75.75 0 0 0 1.06-1.061L11.062 10l1.59-1.591a.75.75 0 0 0-1.06-1.06L10 8.938 8.409 7.35a.75.75 0 0 0-1.06 1.06L8.938 10l-1.59 1.591a.75.75 0 1 0 1.06 1.06L10 11.062l1.591 1.59Z" fill="#868686"/>
    <path d="M21.877 18.99A4.002 4.002 0 0 1 18 22H6a4.002 4.002 0 0 0 3.877-3.01c.136-.535.57-.99 1.123-.99h10c.552 0 1.013.455.877.99Z" fill="#868686"/>
</svg>
