<svg width="24" height="24" fill="none" xmlns="http://www.w3.org/2000/svg">
    <path d="M8.5 11a2.5 2.5 0 1 0 0-5 2.5 2.5 0 0 0 0 5Z" fill="#868686"/>
    <path fill-rule="evenodd" clip-rule="evenodd" d="M1.25 6A4.75 4.75 0 0 1 6 1.25h12A4.75 4.75 0 0 1 22.75 6v12A4.75 4.75 0 0 1 18 22.75H6A4.75 4.75 0 0 1 1.25 18V6ZM6 2.75A3.25 3.25 0 0 0 2.75 6v8.5l2.522 1.681a4 4 0 0 0 5.047-.5l3.362-3.362a4 4 0 0 1 5.048-.5l2.38 1.587c.049.033.096.067.141.103V6A3.25 3.25 0 0 0 18 2.75H6Z" fill="#868686"/>
</svg>
