<svg width="24" height="24" fill="none" xmlns="http://www.w3.org/2000/svg">
    <path d="M8.397 5.25h7.204c1.163-1.57-.403-3.768-2.349-3.14l-.928.3a1.06 1.06 0 0 1-.65 0l-.928-.3c-1.945-.628-3.511 1.57-2.349 3.14Z" fill="#868686"/>
    <path fill-rule="evenodd" clip-rule="evenodd" d="M15.493 6.75H8.505a5.997 5.997 0 0 0-2.821 3.46l-1.25 4C3.226 18.074 6.113 22 10.16 22h3.678c4.048 0 6.934-3.926 5.727-7.79l-1.25-4a5.996 5.996 0 0 0-2.822-3.46Zm-.13 11.906a.75.75 0 0 0-.728-1.312c-1.169.65-1.97.906-2.696.903-.721-.003-1.479-.263-2.562-.895a.75.75 0 0 0-.756 1.296c1.172.683 2.203 1.095 3.312 1.1 1.106.004 2.177-.397 3.43-1.092Z" fill="#868686"/>
</svg>
