<svg width="24" height="24" fill="none" xmlns="http://www.w3.org/2000/svg">
    <path fill-rule="evenodd" clip-rule="evenodd" d="M14.031 3.38a3.593 3.593 0 0 0-4.062 0L3.58 7.812c-1.006.698-1.11 2.061-.242 2.89a3.36 3.36 0 0 1 1.051 2.43v4.878c0 1.756 1.503 3.239 3.43 3.239h8.361c1.928 0 3.43-1.483 3.43-3.24v-4.877a3.36 3.36 0 0 1 1.053-2.43c.867-.829.763-2.192-.243-2.89L14.031 3.38ZM9.114 2.146a5.093 5.093 0 0 1 5.772 0l6.39 4.434c1.774 1.232 1.987 3.714.422 5.206a1.86 1.86 0 0 0-.587 1.346v4.878c0 2.65-2.241 4.739-4.93 4.739H7.82c-2.69 0-4.93-2.09-4.93-4.74v-4.877a1.86 1.86 0 0 0-.588-1.346C.738 10.295.95 7.813 2.725 6.581l6.389-4.434ZM12 9.75c-.69 0-1.25.56-1.25 1.25v.25h2.5V11c0-.69-.56-1.25-1.25-1.25Zm2.75 1.604V11a2.75 2.75 0 1 0-5.5 0v.354a2.751 2.751 0 0 0-2 2.646v2A2.75 2.75 0 0 0 10 18.75h4A2.75 2.75 0 0 0 16.75 16v-2c0-1.259-.846-2.32-2-2.646ZM10 12.75c-.69 0-1.25.56-1.25 1.25v2c0 .69.56 1.25 1.25 1.25h4c.69 0 1.25-.56 1.25-1.25v-2c0-.69-.56-1.25-1.25-1.25h-4Z" fill="#868686"/>
</svg>
