<svg width="24" height="24" fill="none" xmlns="http://www.w3.org/2000/svg">
    <path d="M6.223 18.001h11.554c1.829 0 2.872-1.84 1.775-3.128a3.656 3.656 0 0 1-.865-1.957l-.164-1.445a4.5 4.5 0 0 1-4.192-7.075 6.718 6.718 0 0 0-.061-.021V4.27a2.27 2.27 0 1 0-4.54 0v.104c-2.142.733-3.728 2.477-3.97 4.601l-.447 3.94c-.08.71-.38 1.387-.865 1.957-1.097 1.289-.054 3.128 1.775 3.128Z" fill="#868686"/>
    <path d="M21 7a3 3 0 1 1-6 0 3 3 0 0 1 6 0ZM12 22.001c1.357 0 2.515-.8 2.972-1.928a.423.423 0 0 0-.396-.572H9.424a.423.423 0 0 0-.395.572C9.485 21.2 10.643 22 12 22Z" fill="#868686"/>
</svg>
