<svg width="24" height="24" fill="none" xmlns="http://www.w3.org/2000/svg">
    <path fill-rule="evenodd" clip-rule="evenodd" d="M5.529 7.66c-1.194-2.684 1.634-5.382 4.26-4.07l11.23 5.612c2.308 1.153 2.308 4.444 0 5.598L9.79 20.41c-2.626 1.312-5.454-1.385-4.26-4.07l1.636-3.679a1.628 1.628 0 0 0 0-1.323L5.529 7.66Zm3.59-2.728c-1.37-.684-2.84.723-2.22 2.118l1.636 3.68c.076.17.135.343.18.52H12a.75.75 0 0 1 0 1.5H8.714a3.128 3.128 0 0 1-.179.522L6.9 16.952c-.62 1.394.85 2.802 2.22 2.118l11.23-5.612c1.201-.6 1.201-2.314 0-2.914L9.119 4.932ZM1.25 10.001A.75.75 0 0 1 2 9.25h2a.75.75 0 0 1 0 1.5H2a.75.75 0 0 1-.75-.75Zm0 4a.75.75 0 0 1 .75-.75h2a.75.75 0 0 1 0 1.5H2a.75.75 0 0 1-.75-.75Z" fill="#868686"/>
</svg>
