<svg width="24" height="24" fill="none" xmlns="http://www.w3.org/2000/svg">
    <path d="m12.23 2.562-.23.241-.229-.24a1.568 1.568 0 0 0-2.295 0 1.768 1.768 0 0 0 0 2.411l1.607 1.689a1.254 1.254 0 0 0 1.836 0l1.606-1.689a1.768 1.768 0 0 0 0-2.412 1.568 1.568 0 0 0-2.295 0ZM4 11.74v5.086a2 2 0 0 0 1.106 1.79l6 3a2 2 0 0 0 1.789 0l6-3a2 2 0 0 0 1.106-1.79V11.74l-5.33 2.664a1.5 1.5 0 0 1-1.918-.51L12 12.768l-.752 1.128a1.5 1.5 0 0 1-1.92.51L4.002 11.74Z" fill="#868686"/>
    <path d="m11.976 10.078-7.96-3.992L2.03 9.043l8.003 4.022 1.944-2.987Z" fill="#868686"/>
    <path d="m11.976 10.078 2.022 2.987 8.02-3.965-2.027-2.988-8.015 3.966Z" fill="#868686"/>
</svg>
