<svg width="24" height="24" fill="none" xmlns="http://www.w3.org/2000/svg">
    <g clip-path="url(#a)" fill="#868686">
        <path d="M18.424 12.99a1.674 1.674 0 0 1 2.367 2.367l-5.015 5.015c-.12.12-.27.209-.434.255l-2.196.627a.5.5 0 0 1-.618-.618l.626-2.197c.047-.164.135-.313.255-.434l5.015-5.015Z"/>
        <path fill-rule="evenodd" clip-rule="evenodd" d="M9.031 1.5a.75.75 0 0 0-1.5 0V3h-.25a4 4 0 0 0-4 4v10.5a4 4 0 0 0 4 4h.586a1 1 0 0 0 .707-.293L20.988 8.793a1 1 0 0 0 .293-.707V7a4 4 0 0 0-4-4h-.25V1.5a.75.75 0 1 0-1.5 0V3h-6.5V1.5Zm3.25 6.25a.75.75 0 0 1 .75.75v1.25h1.25a.75.75 0 1 1 0 1.5h-1.25v1.25a.75.75 0 1 1-1.5 0v-1.25h-1.25a.75.75 0 0 1 0-1.5h1.25V8.5a.75.75 0 0 1 .75-.75Z"/>
    </g>
    <defs>
        <clipPath id="a">
            <path fill="#fff" d="M0 0h24v24H0z"/>
        </clipPath>
    </defs>
</svg>
