<svg width="24" height="24" fill="none" xmlns="http://www.w3.org/2000/svg">
    <path fill-rule="evenodd" clip-rule="evenodd" d="M5 18.75a1.25 1.25 0 1 0 0 2.5 1.25 1.25 0 0 0 0-2.5ZM2.25 20a2.75 2.75 0 1 1 5.5 0 2.75 2.75 0 0 1-5.5 0Z" fill="#868686"/>
    <path fill-rule="evenodd" clip-rule="evenodd" d="M1.25 2A.75.75 0 0 1 2 1.25h1A2.75 2.75 0 0 1 5.75 4v14a.75.75 0 0 1-1.5 0V4c0-.69-.56-1.25-1.25-1.25H2A.75.75 0 0 1 1.25 2ZM6.25 20a.75.75 0 0 1 .75-.75h15a.75.75 0 0 1 0 1.5H7a.75.75 0 0 1-.75-.75ZM12.25 8a.75.75 0 0 1 .75-.75h2a.75.75 0 0 1 0 1.5h-2a.75.75 0 0 1-.75-.75Z" fill="#868686"/>
</svg>
