<svg width="24" height="24" fill="none" xmlns="http://www.w3.org/2000/svg">
    <path fill-rule="evenodd" clip-rule="evenodd" d="M6 4a4 4 0 0 0-4 4v8a4 4 0 0 0 4 4h12a4 4 0 0 0 4-4V8a4 4 0 0 0-4-4H6Zm6 10a2 2 0 1 0 0-4 2 2 0 0 0 0 4Zm4.25 3a.75.75 0 0 1 .75-.75h2a.75.75 0 0 1 0 1.5h-2a.75.75 0 0 1-.75-.75ZM17 6.25a.75.75 0 0 0 0 1.5h2a.75.75 0 0 0 0-1.5h-2ZM4.25 7A.75.75 0 0 1 5 6.25h2a.75.75 0 0 1 0 1.5H5A.75.75 0 0 1 4.25 7ZM5 16.25a.75.75 0 0 0 0 1.5h2a.75.75 0 0 0 0-1.5H5Z" fill="#868686"/>
</svg>
