<svg width="24" height="24" fill="none" xmlns="http://www.w3.org/2000/svg">
    <path fill-rule="evenodd" clip-rule="evenodd" d="M3.47 4.47A.75.75 0 0 1 4 4.25h6.5a.75.75 0 0 1 .75.75v4a.75.75 0 0 1-.75.75H4a.75.75 0 0 1-.53-.22l-2-2a.75.75 0 0 1 0-1.06l2-2Zm.84 1.28L3.06 7l1.25 1.25h5.44v-2.5H4.31ZM3.47 12.47a.75.75 0 0 1 .53-.22h6.5a.75.75 0 0 1 .75.75v4a.75.75 0 0 1-.75.75H4a.75.75 0 0 1-.53-.22l-2-2a.75.75 0 0 1 0-1.06l2-2Zm.84 1.28L3.06 15l1.25 1.25h5.44v-2.5H4.31ZM20.53 13.53a.75.75 0 0 1-.53.22h-6.5a.75.75 0 0 1-.75-.75V9a.75.75 0 0 1 .75-.75H20a.75.75 0 0 1 .53.22l2 2a.75.75 0 0 1 0 1.06l-2 2Zm-.84-1.28L20.94 11l-1.25-1.25h-5.44v2.5h5.44Z" fill="#868686"/>
    <path fill-rule="evenodd" clip-rule="evenodd" d="M9.75 3c0-.966.784-1.75 1.75-1.75h1c.966 0 1.75.784 1.75 1.75v18a1.75 1.75 0 0 1-1.75 1.75h-1A1.75 1.75 0 0 1 9.75 21V3Zm1.75-.25a.25.25 0 0 0-.25.25v18c0 .138.112.25.25.25h1a.25.25 0 0 0 .25-.25V3a.25.25 0 0 0-.25-.25h-1Z" fill="#868686"/>
</svg>
