<svg width="24" height="24" fill="none" xmlns="http://www.w3.org/2000/svg">
    <path fill-rule="evenodd" clip-rule="evenodd" d="M1.25 8a2.75 2.75 0 0 1 5.5 0v.786l3.126-1.562a4.75 4.75 0 0 1 4.248 0l3.126 1.562V8a2.75 2.75 0 1 1 5.5 0v4a4.75 4.75 0 0 1-4.278 4.727 4.75 4.75 0 0 1-1.431 2.049l-.72.6a6.75 6.75 0 0 1-8.642 0l-.72-.6a4.75 4.75 0 0 1-1.431-2.05A4.75 4.75 0 0 1 1.25 12V8Zm4 7.163V8a1.25 1.25 0 1 0-2.5 0v4a3.251 3.251 0 0 0 2.5 3.163Zm1.5-.037c0 .965.428 1.88 1.17 2.497l.719.6a5.25 5.25 0 0 0 6.722 0l.72-.6a3.25 3.25 0 0 0 1.169-2.497v-4.662l-3.797-1.899a3.25 3.25 0 0 0-2.906 0L6.75 10.464v4.662Zm12 0v.037A3.251 3.251 0 0 0 21.25 12V8a1.25 1.25 0 1 0-2.5 0v7.127Z" fill="#868686"/>
</svg>
