<svg width="24" height="24" fill="none" xmlns="http://www.w3.org/2000/svg">
    <path fill-rule="evenodd" clip-rule="evenodd" d="M12 8.75a2.25 2.25 0 1 0 0 4.5 2.25 2.25 0 0 0 0-4.5ZM8.25 11a3.75 3.75 0 1 1 7.5 0 3.75 3.75 0 0 1-7.5 0Z" fill="#868686"/>
    <path fill-rule="evenodd" clip-rule="evenodd" d="M7.566 6.388C6.462 7.431 5.75 8.978 5.75 11c0 1.971 1.016 4.055 2.385 5.672.678.801 1.42 1.46 2.123 1.913.718.463 1.324.665 1.742.665.418 0 1.024-.202 1.742-.665.702-.453 1.445-1.112 2.123-1.913 1.37-1.617 2.385-3.7 2.385-5.672 0-2.022-.712-3.569-1.816-4.612C15.325 5.338 13.768 4.75 12 4.75c-1.767 0-3.324.589-4.434 1.638Zm-1.031-1.09C7.958 3.952 9.901 3.25 12 3.25c2.1 0 4.041.702 5.465 2.048C18.895 6.65 19.75 8.604 19.75 11c0 2.447-1.234 4.863-2.74 6.642-.76.896-1.61 1.659-2.455 2.203-.829.535-1.723.905-2.555.905-.832 0-1.726-.37-2.555-.905-.844-.544-1.696-1.307-2.455-2.203C5.484 15.863 4.25 13.447 4.25 11c0-2.396.855-4.35 2.285-5.702ZM3.388 5.332a.75.75 0 0 1 .327 1.01c-.612 1.198-.965 2.63-.965 4.283 0 1.033.204 2.088.567 3.128a.75.75 0 0 1-1.416.495c-.409-1.17-.651-2.394-.651-3.623 0-1.871.4-3.54 1.129-4.966a.75.75 0 0 1 1.009-.327Zm17.224 0a.75.75 0 0 1 1.01.327c.727 1.427 1.128 3.095 1.128 4.966 0 1.23-.242 2.452-.65 3.623a.75.75 0 0 1-1.417-.495c.363-1.04.567-2.095.567-3.128 0-1.654-.353-3.085-.965-4.284a.75.75 0 0 1 .327-1.009Z" fill="#868686"/>
</svg>
