<svg width="24" height="24" fill="none" xmlns="http://www.w3.org/2000/svg">
    <path fill-rule="evenodd" clip-rule="evenodd" d="M12.25 3a.75.75 0 0 1 .75-.75h3a.75.75 0 0 1 .75.75A2.25 2.25 0 0 0 19 5.25h1a.75.75 0 0 1 .75.75v3a.75.75 0 0 1-.75.75h-1a6.74 6.74 0 0 1-2.25-.384V15A6.75 6.75 0 1 1 10 8.25a.75.75 0 0 1 .75.75v3a.75.75 0 0 1-.75.75A2.25 2.25 0 1 0 12.25 15V3Zm1.5.75V15a3.75 3.75 0 1 1-4.5-3.675V9.803a5.251 5.251 0 1 0 6 5.197V8.197a.75.75 0 0 1 1.125-.649A5.223 5.223 0 0 0 19 8.25h.25v-1.5H19a3.751 3.751 0 0 1-3.675-3H13.75Z" fill="#868686"/>
</svg>
