<svg width="24" height="24" fill="none" xmlns="http://www.w3.org/2000/svg">
    <path fill-rule="evenodd" clip-rule="evenodd" d="M11.546 6.217C10.342 5.3 9.403 4.622 8.083 4.77c-.786.088-1.718.471-2.633.976A19.604 19.604 0 0 0 3.174 7.24a1.11 1.11 0 0 0-.424.897v9.67c0 .097.053.197.185.262a.38.38 0 0 0 .383-.013c1.215-.816 2.99-1.836 4.599-2.016 1.959-.22 3.345.835 4.47 1.692l.067.051c1.204.916 2.143 1.595 3.463 1.447.786-.088 1.718-.471 2.633-.976a19.597 19.597 0 0 0 2.276-1.495c.264-.2.424-.527.424-.896v-9.67c0-.097-.053-.197-.185-.262a.38.38 0 0 0-.383.013c-1.215.816-2.99 1.836-4.599 2.016-1.959.22-3.345-.836-4.47-1.692l-.067-.051Zm.908-1.194c1.204.915 2.143 1.594 3.463 1.446 1.214-.136 2.724-.961 3.928-1.77 1.153-.775 2.905-.023 2.905 1.494v9.67c0 .8-.35 1.587-1.02 2.093a21.087 21.087 0 0 1-2.455 1.611c-.973.537-2.111 1.032-3.192 1.154-1.959.219-3.345-.836-4.47-1.693l-.067-.051c-1.204-.916-2.143-1.594-3.463-1.447-1.214.136-2.724.962-3.928 1.771-1.153.775-2.905.023-2.905-1.495v-9.67c0-.8.35-1.586 1.02-2.092a21.099 21.099 0 0 1 2.455-1.612C5.698 3.896 6.836 3.4 7.917 3.28c1.959-.219 3.345.836 4.47 1.693l.067.05Z" fill="#868686"/>
</svg>
