<svg width="24" height="24" fill="none" xmlns="http://www.w3.org/2000/svg">
    <path d="M12 9.75a2.25 2.25 0 1 0 0 4.5 2.25 2.25 0 0 0 0-4.5Z" fill="#868686"/>
    <path fill-rule="evenodd" clip-rule="evenodd" d="M12.75 2a.75.75 0 0 0-1.5 0v2.035a8.002 8.002 0 0 0-7.215 7.216L4 11.25H2a.75.75 0 0 0 0 1.5h2.035a8.002 8.002 0 0 0 7.216 7.215L11.25 20v2a.75.75 0 0 0 1.5 0v-2.035a8.002 8.002 0 0 0 7.215-7.216l.035.001h2a.75.75 0 0 0 0-1.5h-2.035a8.002 8.002 0 0 0-7.216-7.215L12.75 4V2Zm-4.5 10a3.75 3.75 0 1 1 7.5 0 3.75 3.75 0 0 1-7.5 0Z" fill="#868686"/>
</svg>
