<svg width="24" height="24" fill="none" xmlns="http://www.w3.org/2000/svg">
    <path fill-rule="evenodd" clip-rule="evenodd" d="M12 1.25a.75.75 0 0 1 .75.75v2a.75.75 0 0 1-1.5 0V2a.75.75 0 0 1 .75-.75ZM2.47 4.47a.75.75 0 0 1 1.06 0l1.5 1.5a.75.75 0 0 1-1.06 1.06l-1.5-1.5a.75.75 0 0 1 0-1.06Zm19.06 0a.75.75 0 0 1 0 1.06l-1.5 1.5a.75.75 0 0 1-1.06-1.06l1.5-1.5a.75.75 0 0 1 1.06 0ZM12 8.75c-3.3 0-6.325 2.166-8.359 4.113-1.188 1.138-1.188 3.136 0 4.274C5.675 19.084 8.701 21.25 12 21.25c3.3 0 6.325-2.166 8.359-4.113 1.188-1.138 1.188-3.136 0-4.274C18.325 10.916 15.299 8.75 12 8.75Zm-9.396 3.03C4.698 9.774 8.091 7.25 12 7.25c3.909 0 7.302 2.525 9.396 4.53 1.805 1.728 1.805 4.712 0 6.44-2.094 2.005-5.487 4.53-9.396 4.53-3.909 0-7.302-2.525-9.396-4.53-1.805-1.728-1.805-4.712 0-6.44Zm9.396.97a2.25 2.25 0 1 0 0 4.5 2.25 2.25 0 0 0 0-4.5ZM8.25 15a3.75 3.75 0 1 1 7.5 0 3.75 3.75 0 0 1-7.5 0Z" fill="#868686"/>
</svg>
