<svg width="24" height="24" fill="none" xmlns="http://www.w3.org/2000/svg">
    <path d="M6 1.25A4.75 4.75 0 0 0 1.25 6v12A4.75 4.75 0 0 0 6 22.75h16a.75.75 0 0 0 0-1.5H6A3.25 3.25 0 0 1 2.75 18V6A3.25 3.25 0 0 1 6 2.75h12A3.25 3.25 0 0 1 21.25 6v4.19l-.72-.72a.75.75 0 1 0-1.06 1.06l2 2a.75.75 0 0 0 1.28-.53V6A4.75 4.75 0 0 0 18 1.25H6Z" fill="#868686"/>
    <path d="M12 5.25a.75.75 0 0 1 .75.75v4.145a2 2 0 1 1-1.531 3.697L9.53 15.53a.75.75 0 0 1-1.06-1.06l1.688-1.689a2 2 0 0 1 1.092-2.636V6a.75.75 0 0 1 .75-.75Z" fill="#868686"/>
</svg>
