<svg width="24" height="24" fill="none" xmlns="http://www.w3.org/2000/svg">
    <path fill-rule="evenodd" clip-rule="evenodd" d="M6.093 1.293a.75.75 0 0 1 .957.457A5.253 5.253 0 0 0 12 5.25a6.75 6.75 0 0 1 0 13.5 5.252 5.252 0 0 0-4.951 3.5.75.75 0 1 1-1.415-.5 6.753 6.753 0 0 1 6.366-4.5 5.25 5.25 0 1 0 0-10.5c-2.94 0-5.44-1.88-6.366-4.5a.75.75 0 0 1 .458-.957Z" fill="#868686"/>
    <path fill-rule="evenodd" clip-rule="evenodd" d="M18.25 1.293a.75.75 0 0 0-.957.457 5.253 5.253 0 0 1-4.951 3.5 6.75 6.75 0 1 0 0 13.5c2.284 0 4.23 1.46 4.951 3.5a.75.75 0 1 0 1.415-.5 6.752 6.752 0 0 0-6.366-4.5 5.25 5.25 0 1 1 0-10.5c2.94 0 5.44-1.88 6.365-4.5a.75.75 0 0 0-.457-.957Z" fill="#868686"/>
    <path fill-rule="evenodd" clip-rule="evenodd" d="M6.25 10A.75.75 0 0 1 7 9.25h10a.75.75 0 0 1 0 1.5H7a.75.75 0 0 1-.75-.75ZM6.25 14a.75.75 0 0 1 .75-.75h10a.75.75 0 0 1 0 1.5H7a.75.75 0 0 1-.75-.75Z" fill="#868686"/>
</svg>
