<svg width="24" height="24" fill="none" xmlns="http://www.w3.org/2000/svg">
    <path fill-rule="evenodd" clip-rule="evenodd" d="M14.053 3.488a3.225 3.225 0 0 0-4.106 0l-5 4.117A3.296 3.296 0 0 0 3.75 10.15v7.817c0 1.819 1.46 3.283 3.25 3.283h10c1.79 0 3.25-1.464 3.25-3.283V10.15c0-.988-.44-1.922-1.197-2.545l-5-4.117ZM8.993 2.33a4.725 4.725 0 0 1 6.014 0l5 4.118a4.796 4.796 0 0 1 1.743 3.702v7.817c0 2.636-2.12 4.783-4.75 4.783H7c-2.63 0-4.75-2.147-4.75-4.783V10.15c0-1.433.639-2.793 1.743-3.702l5-4.118Zm.99 8.335c.072-.827.795-1.415 1.593-1.415h.848c.798 0 1.521.588 1.593 1.415.729-.35 1.646-.119 2.085.597l.424.693c.436.712.21 1.59-.434 2.045.644.455.87 1.333.434 2.045l-.424.693c-.439.716-1.356.948-2.085.597-.072.827-.795 1.415-1.593 1.415h-.848c-.798 0-1.521-.588-1.593-1.415-.729.35-1.646.119-2.085-.597l-.424-.693c-.436-.712-.21-1.59.434-2.045-.644-.455-.87-1.333-.434-2.045l.424-.693c.439-.716 1.356-.947 2.085-.597Zm.118 6.608Zm1.377-6.477v.004a1.416 1.416 0 0 1-2.094 1.244l-.045-.024a.14.14 0 0 0-.102-.012c-.036.01-.053.027-.06.037l-.424.693a.03.03 0 0 0-.003.006v.004l.007.012a.084.084 0 0 0 .026.02 1.388 1.388 0 0 1 0 2.44.084.084 0 0 0-.026.02.034.034 0 0 0-.007.013v.002l.003.007.425.693c.006.01.023.028.059.037a.14.14 0 0 0 .102-.012l.045-.024a1.416 1.416 0 0 1 2.094 1.248.052.052 0 0 0 .012.016c.016.015.044.03.086.03h.848c.042 0 .07-.015.086-.03a.05.05 0 0 0 .012-.016V17.2a1.416 1.416 0 0 1 2.094-1.244l.045.024a.14.14 0 0 0 .102.012c.036-.01.053-.027.06-.037l.424-.693a.025.025 0 0 0 .003-.006v-.004a.034.034 0 0 0-.007-.012.085.085 0 0 0-.026-.02 1.388 1.388 0 0 1 0-2.44.083.083 0 0 0 .026-.02.033.033 0 0 0 .007-.014v-.002l-.003-.006-.425-.693c-.006-.01-.023-.028-.059-.037a.14.14 0 0 0-.101.012l-.046.024a1.416 1.416 0 0 1-2.093-1.244v-.001l-.001-.003a.05.05 0 0 0-.012-.016.123.123 0 0 0-.086-.03h-.848a.123.123 0 0 0-.086.03.052.052 0 0 0-.012.016Z" fill="#868686"/>
    <path d="M12.75 14a.75.75 0 1 1-1.5 0 .75.75 0 0 1 1.5 0Z" fill="#868686"/>
</svg>
