<svg width="24" height="24" fill="none" xmlns="http://www.w3.org/2000/svg">
    <path d="M6 3h12a4 4 0 0 1 4 4v9a4 4 0 0 1-4 4h-3.535C13.995 13.332 8.842 8.5 2 8.5V7a4 4 0 0 1 4-4Z" fill="#868686"/>
    <path d="M1.25 11a.75.75 0 0 1 .75-.75c5.937 0 10.75 4.813 10.75 10.75a.75.75 0 0 1-1.5 0A9.25 9.25 0 0 0 2 11.75a.75.75 0 0 1-.75-.75Z" fill="#868686"/>
    <path d="M2 14.25a.75.75 0 0 0 0 1.5c2.9 0 5.25 2.35 5.25 5.25a.75.75 0 0 0 1.5 0A6.75 6.75 0 0 0 2 14.25ZM2 18.25a.75.75 0 0 0 0 1.5c.69 0 1.25.56 1.25 1.25a.75.75 0 0 0 1.5 0A2.75 2.75 0 0 0 2 18.25Z" fill="#868686"/>
</svg>
