<svg width="24" height="24" fill="none" xmlns="http://www.w3.org/2000/svg">
    <path fill-rule="evenodd" clip-rule="evenodd" d="M11.636 2.844a.75.75 0 0 1 .728 0l4.5 2.5A.75.75 0 0 1 17.25 6v5a.75.75 0 0 1-.386.656l-4.5 2.5a.75.75 0 0 1-.728 0l-4.5-2.5A.75.75 0 0 1 6.75 11V6a.75.75 0 0 1 .386-.656l4.5-2.5ZM8.25 6.441v4.118L12 12.642l3.75-2.083V6.44L12 4.358 8.25 6.441Z" fill="#868686"/>
    <path fill-rule="evenodd" clip-rule="evenodd" d="M7.136 10.344a.75.75 0 0 1 .728 0l4.5 2.5a.75.75 0 0 1 .386.656v5a.75.75 0 0 1-.386.656l-4.5 2.5a.75.75 0 0 1-.728 0l-4.5-2.5a.75.75 0 0 1-.386-.656v-5a.75.75 0 0 1 .386-.656l4.5-2.5ZM3.75 13.941v4.118l3.75 2.083 3.75-2.083V13.94L7.5 11.858l-3.75 2.083Z" fill="#868686"/>
    <path fill-rule="evenodd" clip-rule="evenodd" d="M16.136 10.344a.75.75 0 0 1 .728 0l4.5 2.5a.75.75 0 0 1 .386.656v5a.75.75 0 0 1-.386.656l-4.5 2.5a.75.75 0 0 1-.728 0l-4.5-2.5a.75.75 0 0 1-.386-.656v-5a.75.75 0 0 1 .386-.656l4.5-2.5Zm-3.386 3.597v4.118l3.75 2.083 3.75-2.083V13.94l-3.75-2.083-3.75 2.083Z" fill="#868686"/>
</svg>
