<svg width="24" height="24" fill="none" xmlns="http://www.w3.org/2000/svg">
    <path fill-rule="evenodd" clip-rule="evenodd" d="M10 8.25c.735 0 1.421.212 2 .577a3.75 3.75 0 1 1 0 6.345 3.75 3.75 0 1 1-2-6.923ZM7.75 12a2.25 2.25 0 0 1 3.125-2.074A3.734 3.734 0 0 0 10.25 12c0 .767.23 1.48.625 2.074A2.25 2.25 0 0 1 7.75 12Zm4.75-1.677a2.25 2.25 0 1 1 3 3.355 2.25 2.25 0 0 1-3-3.355Z" fill="#868686"/>
    <path fill-rule="evenodd" clip-rule="evenodd" d="M22.75 7A4.75 4.75 0 0 0 18 2.25H6A4.75 4.75 0 0 0 1.25 7v10A4.75 4.75 0 0 0 6 21.75h12A4.75 4.75 0 0 0 22.75 17V7ZM18 3.75A3.25 3.25 0 0 1 21.25 7v10A3.25 3.25 0 0 1 18 20.25H6A3.25 3.25 0 0 1 2.75 17V7A3.25 3.25 0 0 1 6 3.75h12Z" fill="#868686"/>
</svg>
