<svg width="24" height="24" fill="none" xmlns="http://www.w3.org/2000/svg">
    <path fill-rule="evenodd" clip-rule="evenodd" d="M4.25 10A4.75 4.75 0 0 1 9 5.25h6A4.75 4.75 0 0 1 19.75 10v8A4.75 4.75 0 0 1 15 22.75H9A4.75 4.75 0 0 1 4.25 18v-8ZM9 6.75A3.25 3.25 0 0 0 5.75 10v8A3.25 3.25 0 0 0 9 21.25h6A3.25 3.25 0 0 0 18.25 18v-8A3.25 3.25 0 0 0 15 6.75H9Z" fill="#868686"/>
    <path fill-rule="evenodd" clip-rule="evenodd" d="M4.25 4A2.75 2.75 0 0 1 7 1.25h10a2.75 2.75 0 1 1 0 5.5H7A2.75 2.75 0 0 1 4.25 4ZM7 2.75a1.25 1.25 0 1 0 0 2.5h10a1.25 1.25 0 1 0 0-2.5H7Zm5 9a2.25 2.25 0 1 0 0 4.5 2.25 2.25 0 0 0 0-4.5ZM8.25 14a3.75 3.75 0 1 1 7.5 0 3.75 3.75 0 0 1-7.5 0Z" fill="#868686"/>
</svg>
