<svg width="24" height="24" fill="none" xmlns="http://www.w3.org/2000/svg">
    <path fill-rule="evenodd" clip-rule="evenodd" d="M6.25 4A2.75 2.75 0 0 1 9 1.25h6A2.75 2.75 0 0 1 17.75 4v6c0 .45-.108.875-.3 1.25H20A2.75 2.75 0 0 1 22.75 14v6A2.75 2.75 0 0 1 20 22.75h-6a2.742 2.742 0 0 1-2-.863 2.742 2.742 0 0 1-2 .863H4A2.75 2.75 0 0 1 1.25 20v-6A2.75 2.75 0 0 1 4 11.25h2.55c-.192-.375-.3-.8-.3-1.25V4ZM9 11.25h6c.69 0 1.25-.56 1.25-1.25V4c0-.69-.56-1.25-1.25-1.25H9c-.69 0-1.25.56-1.25 1.25v6c0 .69.56 1.25 1.25 1.25ZM11.25 14c0-.69-.56-1.25-1.25-1.25H4c-.69 0-1.25.56-1.25 1.25v6c0 .69.56 1.25 1.25 1.25h6c.69 0 1.25-.56 1.25-1.25v-6Zm1.5 6c0 .69.56 1.25 1.25 1.25h6c.69 0 1.25-.56 1.25-1.25v-6c0-.69-.56-1.25-1.25-1.25h-6c-.69 0-1.25.56-1.25 1.25v6Zm-.356-15.638A.75.75 0 0 1 12.75 5v3.25H13a.75.75 0 0 1 0 1.5h-2a.75.75 0 0 1 0-1.5h.25V6.207a.75.75 0 0 1-.585-1.378l1-.5a.75.75 0 0 1 .73.033Z" fill="#868686"/>
</svg>
