<svg width="24" height="24" fill="none" xmlns="http://www.w3.org/2000/svg">
    <path d="M12 15.5a1.5 1.5 0 1 0 0-3 1.5 1.5 0 0 0 0 3Z" fill="#868686"/>
    <path fill-rule="evenodd" clip-rule="evenodd" d="M21 17.967V10.15c0-1.21-.54-2.357-1.47-3.123l-5-4.118a3.975 3.975 0 0 0-5.06 0l-5 4.118A4.046 4.046 0 0 0 3 10.15v7.817C3 20.194 4.79 22 7 22h10c2.21 0 4-1.806 4-4.033ZM12.424 10h-.848c-.469 0-.849.358-.849.8a.666.666 0 0 1-.985.585l-.045-.024c-.406-.221-.925-.09-1.159.293l-.424.692c-.234.383-.095.872.31 1.093a.639.639 0 0 1 0 1.122c-.405.22-.544.71-.31 1.093l.424.692c.234.383.753.514 1.16.293l.044-.024a.666.666 0 0 1 .985.585c0 .442.38.8.849.8h.848c.469 0 .849-.358.849-.8 0-.506.54-.827.985-.585l.045.024c.406.221.925.09 1.159-.293l.424-.692c.235-.383.095-.872-.31-1.093a.639.639 0 0 1 0-1.122c.405-.22.544-.71.31-1.093l-.424-.692c-.234-.383-.753-.514-1.16-.293l-.044.024a.666.666 0 0 1-.985-.585c0-.442-.38-.8-.849-.8Z" fill="#868686"/>
</svg>
