<svg width="24" height="24" fill="none" xmlns="http://www.w3.org/2000/svg">
    <g clip-path="url(#a)">
        <path fill-rule="evenodd" clip-rule="evenodd" d="M8.36 2.922c-.49.708-.55 1.664.153 2.47l.97 1.114a6.745 6.745 0 0 1 1.842-.256h1.351c.634 0 1.252.088 1.841.255l.97-1.113c.704-.806.643-1.762.153-2.47-.496-.718-1.4-1.131-2.387-.813l-.928.3a1.06 1.06 0 0 1-.65 0l-.928-.3c-.986-.318-1.89.095-2.387.813Zm.727 5.329c.243.16.53.248.827.248h4.172a1.5 1.5 0 0 0 .828-.249 5.249 5.249 0 0 1 2.743 3.09l1 3c1.133 3.4-1.397 6.91-4.98 6.91h-3.351c-3.584 0-6.114-3.51-4.981-6.91l1-3a5.248 5.248 0 0 1 2.742-3.09ZM8.023 7.113a6.746 6.746 0 0 0-3.101 3.752l-1 3c-1.457 4.371 1.796 8.885 6.403 8.885h3.351c4.608 0 7.86-4.514 6.404-8.885l-1-3a6.746 6.746 0 0 0-3.102-3.753l.64-.734c1.205-1.383 1.09-3.103.256-4.309C16.048.873 14.483.137 12.793.682L12 .937l-.792-.255C9.518.137 7.953.873 7.126 2.069c-.833 1.206-.949 2.926.257 4.31l.64.734Zm6.25 9.575a1.5 1.5 0 0 1 1.456 2.623c-1.295.72-2.502 1.191-3.797 1.186-1.303-.005-2.471-.492-3.687-1.201a1.5 1.5 0 1 1 1.511-2.592c1.039.606 1.66.791 2.188.793.535.002 1.201-.183 2.329-.809Z" fill="#868686"/>
    </g>
    <defs>
        <clipPath id="a">
            <path fill="#fff" d="M0 0h24v24H0z"/>
        </clipPath>
    </defs>
</svg>
