<svg width="24" height="24" fill="none" xmlns="http://www.w3.org/2000/svg">
    <path fill-rule="evenodd" clip-rule="evenodd" d="M8.53 14.53a.75.75 0 0 0 0-1.06L7.06 12l1.47-1.47a.75.75 0 1 0-1.06-1.06l-2 2a.75.75 0 0 0 0 1.06l2 2a.75.75 0 0 0 1.06 0ZM5.25 6A.75.75 0 0 1 6 5.25h12a.75.75 0 0 1 0 1.5H6A.75.75 0 0 1 5.25 6ZM10.25 10a.75.75 0 0 1 .75-.75h7a.75.75 0 0 1 0 1.5h-7a.75.75 0 0 1-.75-.75ZM10.25 14a.75.75 0 0 1 .75-.75h7a.75.75 0 0 1 0 1.5h-7a.75.75 0 0 1-.75-.75ZM5.25 18a.75.75 0 0 1 .75-.75h12a.75.75 0 0 1 0 1.5H6a.75.75 0 0 1-.75-.75Z" fill="#868686"/>
</svg>
