<svg width="24" height="24" fill="none" xmlns="http://www.w3.org/2000/svg">
    <path fill-rule="evenodd" clip-rule="evenodd" d="M12 3.75a1.25 1.25 0 1 0 0 2.5 1.25 1.25 0 0 0 0-2.5Zm-2.646.5a2.751 2.751 0 0 1 5.293 0H21a.75.75 0 0 1 0 1.5h-6.354a2.751 2.751 0 0 1-5.292 0H3a.75.75 0 0 1 0-1.5h6.354ZM17 10.75a1.25 1.25 0 1 0 0 2.5 1.25 1.25 0 0 0 0-2.5ZM14.25 12a2.75 2.75 0 0 1 5.396-.75H21a.75.75 0 0 1 0 1.5h-1.354A2.751 2.751 0 0 1 14.25 12Zm-12 0a.75.75 0 0 1 .75-.75h9a.75.75 0 0 1 0 1.5H3a.75.75 0 0 1-.75-.75ZM7 17.75a1.25 1.25 0 1 0 0 2.5 1.25 1.25 0 0 0 0-2.5Zm-2.646.5a2.751 2.751 0 1 1 0 1.5H3a.75.75 0 0 1 0-1.5h1.354Zm6.896.75a.75.75 0 0 1 .75-.75h9a.75.75 0 0 1 0 1.5h-9a.75.75 0 0 1-.75-.75Z" fill="#868686"/>
</svg>
