<svg width="24" height="24" fill="none" xmlns="http://www.w3.org/2000/svg">
    <path fill-rule="evenodd" clip-rule="evenodd" d="M1.25 6A4.75 4.75 0 0 1 6 1.25h2a.75.75 0 0 1 0 1.5H6A3.25 3.25 0 0 0 2.75 6v2a.75.75 0 0 1-1.5 0V6Zm14-4a.75.75 0 0 1 .75-.75h2A4.75 4.75 0 0 1 22.75 6v2a.75.75 0 0 1-1.5 0V6A3.25 3.25 0 0 0 18 2.75h-2a.75.75 0 0 1-.75-.75ZM12 7.75a4.25 4.25 0 1 0 0 8.5 4.25 4.25 0 0 0 0-8.5ZM6.25 12a5.75 5.75 0 1 1 11.5 0 5.75 5.75 0 0 1-11.5 0ZM2 15.25a.75.75 0 0 1 .75.75v2A3.25 3.25 0 0 0 6 21.25h2a.75.75 0 0 1 0 1.5H6A4.75 4.75 0 0 1 1.25 18v-2a.75.75 0 0 1 .75-.75Zm20 0a.75.75 0 0 1 .75.75v2A4.75 4.75 0 0 1 18 22.75h-2a.75.75 0 0 1 0-1.5h2A3.25 3.25 0 0 0 21.25 18v-2a.75.75 0 0 1 .75-.75Z" fill="#868686"/>
</svg>
