<svg width="24" height="24" fill="none" xmlns="http://www.w3.org/2000/svg">
    <path d="M18 3a4 4 0 0 1 4 4v7a1 1 0 0 1-1 1h-3a4 4 0 0 0-4 4v1a1 1 0 0 1-1 1H6a4 4 0 0 1-4-4v-1.5h4a3.5 3.5 0 1 0 0-7H2V7a4 4 0 0 1 4-4h12Z" fill="#868686"/>
    <path d="M8 12a2 2 0 0 0-2-2H2v4h4a2 2 0 0 0 2-2ZM20.945 18.116a.75.75 0 1 0-1.061-1.06l-.884.883-.884-.884a.75.75 0 1 0-1.06 1.061l.883.884-.884.884a.75.75 0 0 0 1.061 1.06l.884-.883.884.884a.75.75 0 1 0 1.06-1.061L20.062 19l.884-.884Z" fill="#868686"/>
</svg>
