<svg width="24" height="24" fill="none" xmlns="http://www.w3.org/2000/svg">
    <path fill-rule="evenodd" clip-rule="evenodd" d="M18 2.25A4.75 4.75 0 0 1 22.75 7v7a.75.75 0 0 1-1.5 0V7A3.25 3.25 0 0 0 18 3.75H6A3.25 3.25 0 0 0 2.75 7v1.25H5a3.75 3.75 0 1 1 0 7.5H2.75V17A3.25 3.25 0 0 0 6 20.25h7a.75.75 0 0 1 0 1.5H6A4.75 4.75 0 0 1 1.25 17V7A4.75 4.75 0 0 1 6 2.25h12Zm-15.25 12H5a2.25 2.25 0 0 0 0-4.5H2.75v4.5Z" fill="#868686"/>
    <path d="m17.396 18.25.72-.72a.75.75 0 1 0-1.06-1.06l-1.293 1.293a1.75 1.75 0 0 0 0 2.474l1.292 1.293a.75.75 0 1 0 1.061-1.06l-.72-.72H22a.75.75 0 0 0 0-1.5h-4.604Z" fill="#868686"/>
</svg>
