<svg width="24" height="24" fill="none" xmlns="http://www.w3.org/2000/svg">
    <path fill-rule="evenodd" clip-rule="evenodd" d="M9.54 1.926a4.817 4.817 0 0 1 4.92 0l4.844 2.868c1.52.9 2.446 2.556 2.446 4.338v5.736c0 1.782-.927 3.438-2.446 4.338l-4.843 2.868a4.817 4.817 0 0 1-4.922 0l-4.843-2.868c-1.52-.9-2.446-2.556-2.446-4.338V9.132c0-1.782.927-3.438 2.446-4.338L9.54 1.926Zm4.156 1.29a3.317 3.317 0 0 0-3.392 0L5.46 6.086C4.408 6.708 3.75 7.867 3.75 9.132v5.736c0 1.265.658 2.424 1.71 3.047l4.844 2.868a3.317 3.317 0 0 0 3.392 0l4.843-2.868c1.053-.623 1.711-1.782 1.711-3.047V9.132c0-1.265-.658-2.424-1.71-3.047l-4.844-2.868ZM12 7.75c-.69 0-1.25.56-1.25 1.25a.75.75 0 0 1-1.5 0 2.75 2.75 0 1 1 5.064 1.487 9.008 9.008 0 0 1-.562.757l-.1.124c-.155.192-.297.367-.428.548-.324.444-.474.779-.474 1.084v.5a.75.75 0 0 1-1.5 0V13c0-.8.392-1.46.761-1.967.156-.214.326-.425.482-.617l.09-.113c.186-.23.344-.432.47-.628A1.25 1.25 0 0 0 12 7.75Zm0 7.5a.75.75 0 0 1 .75.75v1a.75.75 0 0 1-1.5 0v-1a.75.75 0 0 1 .75-.75Z" fill="#868686"/>
</svg>
