<svg width="24" height="24" fill="none" xmlns="http://www.w3.org/2000/svg">
    <path fill-rule="evenodd" clip-rule="evenodd" d="M12 1.25a.75.75 0 0 1 .75.75v1.342c1.763.34 3.115 1.858 3.115 3.71a3.7 3.7 0 0 1-.33 1.53l3.363 5.668H21a.75.75 0 0 1 0 1.5h-1.212l1.3 2.193c.534.899.755 1.944.627 2.979l-.145 1.17a.75.75 0 0 1-1.033.6l-1.113-.462a4.868 4.868 0 0 1-2.323-2.006l-2.654-4.474H9.553L6.9 20.224a4.868 4.868 0 0 1-2.322 2.006l-1.114.462a.75.75 0 0 1-1.033-.6l-.144-1.17a4.701 4.701 0 0 1 .625-2.98l1.301-2.192H3a.75.75 0 0 1 0-1.5h2.102l3.363-5.668a3.701 3.701 0 0 1-.33-1.53c0-1.852 1.352-3.37 3.115-3.71V2a.75.75 0 0 1 .75-.75ZM9.437 9.883l-2.59 4.367h1.852l2.132-3.593a3.885 3.885 0 0 1-1.394-.774ZM12 11.626l-1.557 2.624h3.114L12 11.626Zm4.191 4.124 2.2 3.708A3.369 3.369 0 0 0 20 20.844l.203.085.024-.191a3.202 3.202 0 0 0-.427-2.03l-1.755-2.958H16.19Zm.963-1.5H15.3l-2.132-3.593c.52-.162.994-.428 1.394-.774l2.59 4.367Zm-9.345 1.5H5.956l-1.755 2.958a3.202 3.202 0 0 0-.427 2.03l.024.19.203-.084a3.368 3.368 0 0 0 1.608-1.386l2.2-3.708ZM12 4.77c-1.325 0-2.365 1.041-2.365 2.282 0 .424.12.82.328 1.16a2.38 2.38 0 0 0 2.004 1.12l.033.001h.033a2.38 2.38 0 0 0 2.004-1.121c.209-.34.328-.736.328-1.16 0-1.24-1.04-2.281-2.365-2.281Z" fill="#868686"/>
</svg>
