<svg width="24" height="24" fill="none" xmlns="http://www.w3.org/2000/svg">
    <path d="M21.93 6.25A4.001 4.001 0 0 0 18 3H6a4.001 4.001 0 0 0-3.93 3.25h19.86ZM22 7.75v2.5H2v-2.5h20Z" fill="#868686"/>
    <path fill-rule="evenodd" clip-rule="evenodd" d="M2 11.75h20V14a1 1 0 0 1-1 1h-3a4 4 0 0 0-4 4v1a1 1 0 0 1-1 1H6a4 4 0 0 1-4-4v-5.25ZM7 17a1 1 0 1 1-2 0 1 1 0 0 1 2 0Z" fill="#868686"/>
    <path d="M22.564 17.494a.75.75 0 1 0-1.128-.988l-2.87 3.28a.25.25 0 0 1-.345.03l-1.753-1.402a.75.75 0 0 0-.937 1.172l1.753 1.402a1.75 1.75 0 0 0 2.41-.214l2.87-3.28Z" fill="#868686"/>
</svg>
