<svg width="24" height="24" fill="none" xmlns="http://www.w3.org/2000/svg">
    <path d="M12.75 14a.75.75 0 1 1-1.5 0 .75.75 0 0 1 1.5 0Z" fill="#868686"/>
    <path fill-rule="evenodd" clip-rule="evenodd" d="M9 2.75A3.25 3.25 0 0 0 5.75 6v12A3.25 3.25 0 0 0 9 21.25h6A3.25 3.25 0 0 0 18.25 18V6A3.25 3.25 0 0 0 15 2.75H9ZM4.25 6A4.75 4.75 0 0 1 9 1.25h6A4.75 4.75 0 0 1 19.75 6v12A4.75 4.75 0 0 1 15 22.75H9A4.75 4.75 0 0 1 4.25 18V6ZM12 8.75c-1.45 0-2.761.587-3.712 1.538a.75.75 0 1 1-1.061-1.061A6.731 6.731 0 0 1 12 7.25c1.864 0 3.552.756 4.773 1.977a.75.75 0 1 1-1.06 1.06A5.231 5.231 0 0 0 12 8.75Zm0 3a2.24 2.24 0 0 0-1.591.659.75.75 0 0 1-1.06-1.06A3.74 3.74 0 0 1 12 10.25a3.74 3.74 0 0 1 2.652 1.098.75.75 0 0 1-1.061 1.061A2.24 2.24 0 0 0 12 11.75ZM10.25 19a.75.75 0 0 1 .75-.75h2a.75.75 0 0 1 0 1.5h-2a.75.75 0 0 1-.75-.75Z" fill="#868686"/>
</svg>
