<svg width="24" height="24" fill="none" xmlns="http://www.w3.org/2000/svg">
    <path fill-rule="evenodd" clip-rule="evenodd" d="M13 3.75c-.69 0-1.25.56-1.25 1.25v4c0 .69.56 1.25 1.25 1.25h4c.69 0 1.25-.56 1.25-1.25V5c0-.69-.56-1.25-1.25-1.25h-4Zm6.75 2.5V5A2.75 2.75 0 0 0 17 2.25h-4A2.75 2.75 0 0 0 10.25 5v4A2.75 2.75 0 0 0 13 11.75h4A2.75 2.75 0 0 0 19.75 9V7.75H22a.75.75 0 0 0 0-1.5h-2.25ZM2 6.25h6a.75.75 0 0 1 0 1.5H2a.75.75 0 0 1 0-1.5Zm5 9.5c-.69 0-1.25.56-1.25 1.25v2c0-.001 0 0 0 0v2c0 .69.56 1.25 1.25 1.25h4c.69 0 1.25-.56 1.25-1.25v-4c0-.69-.56-1.25-1.25-1.25H7Zm-2.75 4V21A2.75 2.75 0 0 0 7 23.75h4A2.75 2.75 0 0 0 13.75 21v-4A2.75 2.75 0 0 0 11 14.25H7A2.75 2.75 0 0 0 4.25 17v1.25H2a.75.75 0 0 0 0 1.5h2.25Zm11-.75a.75.75 0 0 1 .75-.75h6a.75.75 0 0 1 0 1.5h-6a.75.75 0 0 1-.75-.75Z" fill="#868686"/>
</svg>
