<svg width="24" height="24" fill="none" xmlns="http://www.w3.org/2000/svg">
    <path d="M7.231 2h9.538c1.817 0 3.452 1.245 4.127 3.143l.758 2.132c.229.645.387 1.336.22 2C21.478 10.848 20.192 12 18.667 12c-1.841 0-3.334-1.679-3.334-3.75 0 2.071-1.492 3.75-3.333 3.75-1.84 0-3.333-1.679-3.333-3.75 0 2.071-1.493 3.75-3.333 3.75-1.526 0-2.811-1.152-3.208-2.725-.167-.664-.009-1.355.22-2l.759-2.132C3.78 3.245 5.415 2 7.23 2ZM4 13.3V18a4 4 0 0 0 4 4h1v-2a3 3 0 1 1 6 0v2h1a4 4 0 0 0 4-4v-4.7c-.419.13-.865.2-1.333.2-1.337 0-2.49-.563-3.333-1.444-.844.881-1.997 1.444-3.334 1.444s-2.49-.563-3.333-1.444c-.844.881-1.996 1.444-3.333 1.444A4.51 4.51 0 0 1 4 13.3Z" fill="#868686"/>
</svg>
