<svg width="24" height="24" fill="none" xmlns="http://www.w3.org/2000/svg">
    <path fill-rule="evenodd" clip-rule="evenodd" d="M16.586 2.062a2.773 2.773 0 0 1 3.922 0l1.43 1.43a2.773 2.773 0 0 1 0 3.922l-8.105 8.105c-.424.424-.975.7-1.569.784l-3.003.429a1.761 1.761 0 0 1-1.993-1.993l.43-3.003c.084-.594.36-1.145.783-1.569l8.105-8.105Zm2.86 1.06a1.273 1.273 0 0 0-1.799 0l-1.173 1.174c.02.104.053.235.103.384.146.439.446 1.05 1.07 1.673.623.624 1.234.924 1.674 1.07.148.05.278.082.383.103l1.173-1.173a1.273 1.273 0 0 0 0-1.8l-1.43-1.43Zm-.937 5.599a5.923 5.923 0 0 1-1.923-1.307A5.921 5.921 0 0 1 15.28 5.49l-5.737 5.737a1.273 1.273 0 0 0-.36.72l-.43 3.003a.261.261 0 0 0 .297.296l3.003-.429c.273-.039.526-.165.72-.36l5.737-5.737Zm-2.073-4.7v-.006m0 .006v.001-.001ZM6 2.75A3.25 3.25 0 0 0 2.75 6v12A3.25 3.25 0 0 0 6 21.25h12A3.25 3.25 0 0 0 21.25 18v-6a.75.75 0 0 1 1.5 0v6A4.75 4.75 0 0 1 18 22.75H6A4.75 4.75 0 0 1 1.25 18V6A4.75 4.75 0 0 1 6 1.25h6a.75.75 0 0 1 0 1.5H6Z" fill="#868686"/>
</svg>
