<svg width="24" height="24" fill="none" xmlns="http://www.w3.org/2000/svg">
    <path d="M15.588 3.67a.75.75 0 1 0-1.129-.988l-2.87 3.28a.25.25 0 0 1-.344.03L9.492 4.59a.75.75 0 1 0-.937 1.171l1.753 1.403a1.75 1.75 0 0 0 2.41-.214l2.87-3.28ZM4.016 6.024l7.96 3.992-1.944 2.987L2.029 8.98l1.987-2.956ZM11.976 10.016l8.015-3.966 2.027 2.988-8.02 3.965-2.022-2.987Z" fill="#868686"/>
    <path d="M4.024 11.677v5.087a2 2 0 0 0 1.105 1.789l6 3a2 2 0 0 0 1.789 0l6-3a2 2 0 0 0 1.105-1.789v-5.087l-5.329 2.665a1.5 1.5 0 0 1-1.919-.51l-.752-1.128-.751 1.128a1.5 1.5 0 0 1-1.92.51l-5.329-2.665Z" fill="#868686"/>
</svg>
