<svg width="24" height="24" fill="none" xmlns="http://www.w3.org/2000/svg">
    <path fill-rule="evenodd" clip-rule="evenodd" d="M12.245 1.291A.75.75 0 0 1 12.75 2v7.75H17a.75.75 0 0 1 .59 1.212l-9 11.5A.75.75 0 0 1 7.25 22v-7.75H3a.75.75 0 0 1-.59-1.212l9-11.5a.75.75 0 0 1 .835-.247ZM4.538 12.75H8a.75.75 0 0 1 .75.75v6.325l6.71-8.575H12a.75.75 0 0 1-.75-.75V4.175L4.54 12.75Z" fill="#868686"/>
    <path fill-rule="evenodd" clip-rule="evenodd" d="M18.5 1.25a.75.75 0 0 1 .692.462l2.5 6a.75.75 0 0 1-1.384.576L18.5 3.95l-1.808 4.338a.75.75 0 0 1-1.384-.576l2.5-6a.75.75 0 0 1 .692-.462Z" fill="#868686"/>
    <path fill-rule="evenodd" clip-rule="evenodd" d="M16.25 6a.75.75 0 0 1 .75-.75h3a.75.75 0 0 1 0 1.5h-3a.75.75 0 0 1-.75-.75Z" fill="#868686"/>
</svg>
