<svg width="24" height="24" fill="none" xmlns="http://www.w3.org/2000/svg">
    <path d="M11.247 4.626V2.838c0-.417.332-.756.74-.756.41 0 .741.339.741.756v1.855l.655-.62a.735.735 0 0 1 1.068.057.773.773 0 0 1-.06 1.065l-2.052 1.9a.492.492 0 0 1-.67 0L9.613 5.2a.78.78 0 0 1-.062-1.077.742.742 0 0 1 1.067-.068l.628.57ZM4 11.74v5.086a2 2 0 0 0 1.106 1.79l6 3a2 2 0 0 0 1.789 0l6-3a2 2 0 0 0 1.106-1.79V11.74l-5.33 2.665a1.5 1.5 0 0 1-1.918-.51L12 12.767l-.752 1.127a1.5 1.5 0 0 1-1.92.51l-5.328-2.665Z" fill="#868686"/>
    <path d="m11.976 10.078-7.96-3.992L2.03 9.043l8.003 4.022 1.944-2.987Z" fill="#868686"/>
    <path d="m11.976 10.078 2.022 2.987 8.02-3.965-2.027-2.988-8.015 3.966Z" fill="#868686"/>
</svg>
