<svg width="24" height="24" fill="none" xmlns="http://www.w3.org/2000/svg">
    <path fill-rule="evenodd" clip-rule="evenodd" d="M16.75 5.248v-.25A3.75 3.75 0 0 0 13 1.248h-2a3.75 3.75 0 0 0-3.75 3.75v.25H6a4.75 4.75 0 0 0-4.75 4.75v8A4.75 4.75 0 0 0 6 22.748h12a4.75 4.75 0 0 0 4.75-4.75v-7.642a.8.8 0 0 0 0-.022v-.336A4.75 4.75 0 0 0 18 5.248h-1.25Zm-8-.25A2.25 2.25 0 0 1 11 2.748h2a2.25 2.25 0 0 1 2.25 2.25v.25h-6.5v-.25Zm-6 4.925A3.25 3.25 0 0 1 6 6.748h12a3.25 3.25 0 0 1 3.25 3.175l-.174.097c-.348.191-.866.454-1.532.733A19.668 19.668 0 0 1 14 12.158v1.02c0 .166 0 .327-.008.48.035.002.07 0 .105-.003a21.173 21.173 0 0 0 6.026-1.518c.433-.181.81-.357 1.127-.515v6.376a3.25 3.25 0 0 1-3.25 3.25H6a3.25 3.25 0 0 1-3.25-3.25v-6.376c.317.158.694.334 1.127.515a21.172 21.172 0 0 0 6.026 1.518c.035.004.07.005.105.003a9.844 9.844 0 0 1-.008-.47v-1.03a19.67 19.67 0 0 1-5.544-1.405 16.126 16.126 0 0 1-1.705-.83Z" fill="#868686"/>
    <path d="m10 12.158.052.005a.75.75 0 0 1-.044 1.495c.041.863.307 1.5 1.992 1.5 1.688 0 1.951-.64 1.992-1.5a.75.75 0 0 1-.044-1.495l.052-.005c0-1 0-1-1-1h-2c-1 0-1 0-1 1Z" fill="#868686"/>
    <path d="M13.948 12.163a.75.75 0 0 0 .044 1.495c.008-.153.008-.314.008-.48v-1.02l-.052.005ZM10.724 12.984a.75.75 0 0 0-.672-.821L10 12.158v1.03c0 .162 0 .32.008.47a.75.75 0 0 0 .716-.674Z" fill="#868686"/>
</svg>
