<svg width="24" height="24" fill="none" xmlns="http://www.w3.org/2000/svg">
    <path d="M9.318 6.137a2 2 0 1 1 2-2v2h-2ZM14.63 2.235a2 2 0 0 0-2 2v5a2 2 0 1 0 4 0v-5a2 2 0 0 0-2-2ZM19.841 11.235a2 2 0 1 0-2-2v2h2ZM16.63 19.86a2 2 0 0 0-2-2h-2v2a2 2 0 1 0 4 0ZM2.148 14.635a2 2 0 0 1 2-2h2v2a2 2 0 0 1-4 0ZM9.289 12.635a2 2 0 0 0-2 2v5.225a2 2 0 1 0 4 0v-5.225a2 2 0 0 0-2-2ZM9.419 7.235a2 2 0 1 1 0 4h-5.27a2 2 0 0 1 0-4h5.27ZM21.841 14.635a2 2 0 0 0-2-2H14.63a2 2 0 1 0 0 4h5.211a2 2 0 0 0 2-2Z" fill="#868686"/>
</svg>
