<svg width="24" height="24" fill="none" xmlns="http://www.w3.org/2000/svg">
    <path d="M12 1.25a.75.75 0 0 1 .75.75v2a.75.75 0 1 1-1.5 0V2a.75.75 0 0 1 .75-.75ZM17 12a5 5 0 1 1-10 0 5 5 0 0 1 10 0ZM12.75 20a.75.75 0 1 0-1.5 0v2a.75.75 0 0 0 1.5 0v-2ZM21.31 6.625a.75.75 0 0 1-.275 1.025l-1.732 1a.75.75 0 1 1-.75-1.3l1.732-1a.75.75 0 0 1 1.025.275ZM5.447 16.65a.75.75 0 1 0-.75-1.3l-1.732 1a.75.75 0 1 0 .75 1.3l1.732-1ZM2.69 6.625a.75.75 0 0 1 1.025-.274l1.732 1a.75.75 0 1 1-.75 1.299l-1.732-1a.75.75 0 0 1-.274-1.025ZM19.303 15.35a.75.75 0 0 0-.75 1.3l1.732 1a.75.75 0 0 0 .75-1.3l-1.732-1Z" fill="#868686"/>
</svg>
