<svg width="24" height="24" fill="none" xmlns="http://www.w3.org/2000/svg">
    <path fill-rule="evenodd" clip-rule="evenodd" d="M13.32 3.408a3.25 3.25 0 0 0-2.64 0L5.684 5.629c-1.185.527-1.936 1.69-1.864 2.932.176 3.024.703 5.116 1.705 6.823 1.002 1.71 2.524 3.11 4.833 4.673a2.935 2.935 0 0 0 3.287 0c2.313-1.569 3.823-2.982 4.817-4.694.992-1.711 1.511-3.796 1.703-6.785.08-1.251-.673-2.427-1.865-2.958L13.32 3.408Zm-3.248-1.37a4.75 4.75 0 0 1 3.858 0l4.978 2.212c1.718.764 2.877 2.496 2.753 4.424-.2 3.109-.748 5.451-1.903 7.442-1.154 1.99-2.872 3.555-5.272 5.183a4.436 4.436 0 0 1-4.97 0c-2.39-1.618-4.12-3.168-5.286-5.156-1.168-1.99-1.725-4.345-1.908-7.495-.112-1.917 1.045-3.631 2.752-4.39l4.998-2.22Zm5.423 7.398a.75.75 0 0 1 .07 1.059l-2.87 3.28a1.75 1.75 0 0 1-2.41.214l-1.753-1.403a.75.75 0 1 1 .937-1.171l1.753 1.402a.25.25 0 0 0 .344-.03l2.87-3.28a.75.75 0 0 1 1.059-.07Z" fill="#868686"/>
</svg>
