<svg width="24" height="24" fill="none" xmlns="http://www.w3.org/2000/svg">
    <path d="M13 19a1 1 0 1 1-2 0 1 1 0 0 1 2 0Z" fill="#868686"/>
    <path fill-rule="evenodd" clip-rule="evenodd" d="M12 2.75c-1.45 0-2.761.587-3.712 1.538a.75.75 0 0 1-1.06-1.061A6.731 6.731 0 0 1 12 1.25c1.863 0 3.552.756 4.772 1.977a.75.75 0 0 1-1.06 1.06A5.231 5.231 0 0 0 12 2.75Zm0 3a2.24 2.24 0 0 0-1.59.659.75.75 0 0 1-1.061-1.06A3.74 3.74 0 0 1 12 4.25a3.74 3.74 0 0 1 2.651 1.098.75.75 0 1 1-1.06 1.061A2.24 2.24 0 0 0 12 5.75Zm0 3c-.69 0-1.25.56-1.25 1.25v6.764a.75.75 0 0 1-.25.559 2.25 2.25 0 1 0 3 0 .75.75 0 0 1-.25-.56V10c0-.69-.56-1.25-1.25-1.25ZM9.25 10a2.75 2.75 0 0 1 5.5 0v6.45a3.75 3.75 0 1 1-5.5 0V10Zm7-1a.75.75 0 0 1 .75-.75h1a.75.75 0 0 1 0 1.5h-1a.75.75 0 0 1-.75-.75Zm0 3a.75.75 0 0 1 .75-.75h3a.75.75 0 0 1 0 1.5h-3a.75.75 0 0 1-.75-.75Zm0 3a.75.75 0 0 1 .75-.75h1a.75.75 0 0 1 0 1.5h-1a.75.75 0 0 1-.75-.75Z" fill="#868686"/>
</svg>
