<svg width="24" height="24" fill="none" xmlns="http://www.w3.org/2000/svg">
    <path fill-rule="evenodd" clip-rule="evenodd" d="M11.546 4.217C10.342 3.3 9.403 2.622 8.083 2.77c-.786.088-1.718.471-2.633.976A19.604 19.604 0 0 0 3.174 5.24a1.11 1.11 0 0 0-.424.897v9.67c0 .097.053.197.185.262a.38.38 0 0 0 .383-.013c1.215-.816 2.99-1.836 4.599-2.016.966-.108 1.796.092 2.528.433l-.633 1.36c-.53-.247-1.083-.375-1.729-.303-1.214.136-2.724.962-3.928 1.771-1.153.775-2.905.023-2.905-1.495v-9.67c0-.8.35-1.586 1.02-2.092a21.099 21.099 0 0 1 2.455-1.612C5.698 1.896 6.836 1.4 7.917 1.28c1.959-.219 3.345.836 4.47 1.693l.067.05c1.204.916 2.143 1.595 3.463 1.447 1.214-.136 2.724-.961 3.928-1.77 1.153-.775 2.905-.023 2.905 1.494v9.67c0 .8-.35 1.587-1.02 2.093a21.292 21.292 0 0 1-2.363 1.56l-.734-1.308a19.773 19.773 0 0 0 2.193-1.449c.264-.2.424-.527.424-.896v-9.67c0-.097-.053-.197-.185-.262a.38.38 0 0 0-.383.013c-1.215.816-2.99 1.836-4.599 2.016-1.959.22-3.345-.836-4.47-1.692l-.067-.051Z" fill="#868686"/>
    <path fill-rule="evenodd" clip-rule="evenodd" d="M18.34 11.345c1.43-.477 2.791.884 2.314 2.315l-2.612 7.838c-.557 1.668-2.917 1.668-3.473 0l-.965-2.894a.33.33 0 0 0-.208-.21L10.5 17.43c-1.439-.48-1.619-2.267-.622-3.122a1.85 1.85 0 0 1 .622-.35l7.838-2.613Zm.891 1.84a.33.33 0 0 0-.417-.417l-7.838 2.613a.35.35 0 0 0-.12.065.335.335 0 0 0-.1.311c.018.112.084.205.22.25l2.894.965a1.83 1.83 0 0 1 1.158 1.157l.964 2.895a.33.33 0 0 0 .627 0l2.612-7.838Z" fill="#868686"/>
</svg>
