<svg width="24" height="24" fill="none" xmlns="http://www.w3.org/2000/svg">
    <path d="m10.53 4.134.72.72V2.75a.75.75 0 0 1 1.5 0v2.104l.72-.72a.75.75 0 1 1 1.06 1.06l-1.293 1.293a1.75 1.75 0 0 1-2.474 0L9.47 5.195a.75.75 0 0 1 1.06-1.061Z" fill="#868686"/>
    <path fill-rule="evenodd" clip-rule="evenodd" d="M3 11.75a3 3 0 0 1 3-3h12a3 3 0 0 1 3 3v8a3 3 0 0 1-3 3H6a3 3 0 0 1-3-3v-8Zm16 8a1 1 0 1 0-2 0 1 1 0 0 0 2 0Zm-13-9a1 1 0 1 1 0 2 1 1 0 0 1 0-2Zm8 5a2 2 0 1 0-4 0 2 2 0 0 0 4 0Z" fill="#868686"/>
</svg>
