<svg width="24" height="24" fill="none" xmlns="http://www.w3.org/2000/svg">
    <path d="M21.614 7.644a.75.75 0 0 0 .772-1.287l-2.615-1.569a4.75 4.75 0 0 0-5.411.364l-.33.264a3.25 3.25 0 0 1-4.06 0l-.33-.264a4.75 4.75 0 0 0-5.41-.364l-2.616 1.57a.75.75 0 1 0 .772 1.286l2.615-1.57a3.25 3.25 0 0 1 3.702.25l.33.263a4.75 4.75 0 0 0 5.934 0l.33-.263a3.25 3.25 0 0 1 3.702-.25l2.615 1.57ZM22.643 13.386a.75.75 0 0 1-1.029.258L19 12.073a3.25 3.25 0 0 0-3.702.25l-.33.263a4.75 4.75 0 0 1-5.934 0l-.33-.264a3.25 3.25 0 0 0-3.702-.248l-2.615 1.569a.75.75 0 1 1-.772-1.287l2.615-1.569a4.75 4.75 0 0 1 5.411.364l.33.264a3.25 3.25 0 0 0 4.06 0l.33-.264a4.75 4.75 0 0 1 5.41-.364l2.616 1.57a.75.75 0 0 1 .257 1.028ZM22.643 19.386a.75.75 0 0 1-1.029.258L19 18.073a3.25 3.25 0 0 0-3.702.25l-.33.263a4.75 4.75 0 0 1-5.934 0l-.33-.264a3.25 3.25 0 0 0-3.702-.248l-2.615 1.569a.75.75 0 1 1-.772-1.287l2.615-1.569a4.75 4.75 0 0 1 5.411.364l.33.264a3.25 3.25 0 0 0 4.06 0l.33-.264a4.75 4.75 0 0 1 5.41-.364l2.616 1.57a.75.75 0 0 1 .257 1.028Z" fill="#868686"/>
</svg>
