<svg width="24" height="24" fill="none" xmlns="http://www.w3.org/2000/svg">
    <path fill-rule="evenodd" clip-rule="evenodd" d="M15.25 5a3.75 3.75 0 1 1 7.5 0v6a3.75 3.75 0 1 1-7.5 0V5ZM19 2.75A2.25 2.25 0 0 0 16.75 5v6a2.25 2.25 0 0 0 4.5 0V5A2.25 2.25 0 0 0 19 2.75Z" fill="#868686"/>
    <path fill-rule="evenodd" clip-rule="evenodd" d="M15.25 8a.75.75 0 0 1 .75-.75h6a.75.75 0 0 1 0 1.5h-6a.75.75 0 0 1-.75-.75ZM1.25 10A.75.75 0 0 1 2 9.25h2a.75.75 0 0 1 .3.063l6.263 2.74a2.661 2.661 0 0 1-2.115 4.883l-1.743-.747a.75.75 0 0 1 .59-1.378l1.744.747a1.161 1.161 0 0 0 .923-2.131L3.843 10.75H2a.75.75 0 0 1-.75-.75Z" fill="#868686"/>
    <path fill-rule="evenodd" clip-rule="evenodd" d="m10.665 14.992 3.404 1.702a5.25 5.25 0 0 0 2.348.554H18a2.75 2.75 0 0 1 0 5.5H9.89a8.751 8.751 0 0 1-3.913-.923l-4.311-2.156a.75.75 0 1 1 .67-1.341l4.311 2.155a7.25 7.25 0 0 0 3.243.765H18a1.25 1.25 0 0 0 0-2.5h-1.583a6.75 6.75 0 0 1-3.02-.712l-3.403-1.702.67-1.342Z" fill="#868686"/>
</svg>
