<svg width="24" height="24" fill="none" xmlns="http://www.w3.org/2000/svg">
    <path fill-rule="evenodd" clip-rule="evenodd" d="M10.25 2a.75.75 0 0 1 .75-.75h8a.75.75 0 0 1 0 1.5h-8a.75.75 0 0 1-.75-.75Z" fill="#868686"/>
    <path fill-rule="evenodd" clip-rule="evenodd" d="M6 1.25a.75.75 0 0 1 .75.75v5.25h4.5v-6h7.5v6H20a.75.75 0 0 1 0 1.5h-1.25V15a3.75 3.75 0 1 1-7.5 0V8.75h-4.5v12.5H20a.75.75 0 0 1 0 1.5H4a.75.75 0 0 1 0-1.5h1.25V8.75H4a.75.75 0 0 1 0-1.5h1.25V2A.75.75 0 0 1 6 1.25Zm6.75 7.5V15a2.25 2.25 0 0 0 4.5 0V8.75h-4.5Zm4.5-1.5v-4.5h-4.5v4.5h4.5Z" fill="#868686"/>
</svg>
