<svg width="24" height="24" fill="none" xmlns="http://www.w3.org/2000/svg">
    <path d="M17.47 3.586a.75.75 0 1 0-.938-1.172L12.05 6H5.966C3.995 6 2.414 7.433 2.07 9.25h19.861C21.588 7.433 20.008 6 18.037 6h-3.584l3.018-2.414Z" fill="#868686"/>
    <path fill-rule="evenodd" clip-rule="evenodd" d="M20.283 18.808A3.973 3.973 0 0 1 16.4 22h-8.8a3.972 3.972 0 0 1-3.882-3.192l-1.635-8a4.24 4.24 0 0 1-.011-.058h19.856l-.011.058-1.635 8ZM9 13.25a.75.75 0 0 1 .75.75v4a.75.75 0 0 1-1.5 0v-4a.75.75 0 0 1 .75-.75Zm6.75.75a.75.75 0 0 0-1.5 0v4a.75.75 0 0 0 1.5 0v-4Z" fill="#868686"/>
</svg>
