<svg width="24" height="24" fill="none" xmlns="http://www.w3.org/2000/svg">
    <path fill-rule="evenodd" clip-rule="evenodd" d="M10.146 7.202c-.641-.361-1.288-.561-2.063-.475-.786.088-1.718.471-2.633.976a19.604 19.604 0 0 0-2.276 1.495 1.11 1.11 0 0 0-.424.896v9.67c0 .097.053.197.185.262a.38.38 0 0 0 .383-.013c1.215-.816 2.99-1.836 4.599-2.016 1.959-.22 3.345.835 4.47 1.692l.067.051c1.204.916 2.143 1.595 3.463 1.447.786-.088 1.718-.471 2.633-.976a19.597 19.597 0 0 0 2.276-1.494c.264-.2.424-.527.424-.897V8.15c0-.097-.053-.197-.185-.262a.38.38 0 0 0-.383.013c-.312.21-.653.427-1.014.639l-.76-1.293c.33-.194.646-.396.937-.591 1.153-.775 2.905-.023 2.905 1.495v9.669c0 .8-.35 1.587-1.02 2.093a21.087 21.087 0 0 1-2.455 1.611c-.973.537-2.111 1.033-3.192 1.154-1.959.219-3.345-.836-4.47-1.693l-.067-.05c-1.204-.916-2.143-1.595-3.463-1.447-1.214.136-2.724.961-3.928 1.77-1.153.775-2.905.023-2.905-1.494v-9.67c0-.8.35-1.587 1.02-2.093A21.096 21.096 0 0 1 4.725 6.39c.973-.537 2.111-1.033 3.192-1.153 1.172-.132 2.136.19 2.966.659.566.319 1.117.738 1.617 1.118.192.146.377.287.552.413l-.88 1.215a33.98 33.98 0 0 1-.672-.502c-.463-.353-.882-.672-1.354-.938Z" fill="#868686"/>
    <path fill-rule="evenodd" clip-rule="evenodd" d="M16 2.752a1.25 1.25 0 1 0 0 2.5 1.25 1.25 0 0 0 0-2.5Zm2.122 3a2.75 2.75 0 1 0-4.244 0 4.769 4.769 0 0 0-1.993 1.876 4.731 4.731 0 0 0-.635 2.374c0 .966.784 1.75 1.75 1.75a.25.25 0 0 1 .25.25v2a2.75 2.75 0 0 0 5.5 0v-2a.25.25 0 0 1 .25-.25 1.75 1.75 0 0 0 1.75-1.75c0-.711-.157-1.388-.438-1.996a4.77 4.77 0 0 0-2.19-2.255Zm-2.122 1a3.243 3.243 0 0 0-2.816 1.627 3.232 3.232 0 0 0-.434 1.623c0 .138.112.25.25.25.966 0 1.75.784 1.75 1.75v2a1.25 1.25 0 0 0 2.5 0v-2a1.75 1.75 0 0 1 1.75-1.75.25.25 0 0 0 .25-.25A3.25 3.25 0 0 0 16 6.752Z" fill="#868686"/>
</svg>
