<svg width="24" height="24" fill="none" xmlns="http://www.w3.org/2000/svg">
    <path fill-rule="evenodd" clip-rule="evenodd" d="M1.25 4A2.75 2.75 0 0 1 4 1.25h4A2.75 2.75 0 0 1 10.75 4v16A2.75 2.75 0 0 1 8 22.75H4A2.75 2.75 0 0 1 1.25 20V4ZM4 2.75c-.69 0-1.25.56-1.25 1.25v16c0 .69.56 1.25 1.25 1.25h4c.69 0 1.25-.56 1.25-1.25V4c0-.69-.56-1.25-1.25-1.25H4ZM13.25 4A2.75 2.75 0 0 1 16 1.25h4A2.75 2.75 0 0 1 22.75 4v4A2.75 2.75 0 0 1 20 10.75h-4A2.75 2.75 0 0 1 13.25 8V4ZM16 2.75c-.69 0-1.25.56-1.25 1.25v4c0 .69.56 1.25 1.25 1.25h4c.69 0 1.25-.56 1.25-1.25V4c0-.69-.56-1.25-1.25-1.25h-4ZM13.25 16A2.75 2.75 0 0 1 16 13.25h4A2.75 2.75 0 0 1 22.75 16v4A2.75 2.75 0 0 1 20 22.75h-4A2.75 2.75 0 0 1 13.25 20v-4ZM16 14.75c-.69 0-1.25.56-1.25 1.25v4c0 .69.56 1.25 1.25 1.25h4c.69 0 1.25-.56 1.25-1.25v-4c0-.69-.56-1.25-1.25-1.25h-4Z" fill="#868686"/>
</svg>
