<svg width="24" height="24" fill="none" xmlns="http://www.w3.org/2000/svg">
    <path fill-rule="evenodd" clip-rule="evenodd" d="M1.25 4.5a2.25 2.25 0 0 1 4.5 0v13.039a4.75 4.75 0 0 1-.798 2.635l-.828 1.242a.75.75 0 0 1-1.248 0l-.828-1.242a4.75 4.75 0 0 1-.798-2.635V4.5Zm1.5 3.25v9.789c0 .641.19 1.269.546 1.803l.204.306.204-.306a3.25 3.25 0 0 0 .546-1.803V7.75h-1.5Zm1.5-1.5h-1.5V4.5a.75.75 0 0 1 1.5 0v1.75Zm3-.25A3.75 3.75 0 0 1 11 2.25h8A3.75 3.75 0 0 1 22.75 6v12A3.75 3.75 0 0 1 19 21.75h-8A3.75 3.75 0 0 1 7.25 18V6ZM11 3.75A2.25 2.25 0 0 0 8.75 6v12A2.25 2.25 0 0 0 11 20.25h8A2.25 2.25 0 0 0 21.25 18V6A2.25 2.25 0 0 0 19 3.75h-8ZM11.25 8a.75.75 0 0 1 .75-.75h6a.75.75 0 0 1 0 1.5h-6a.75.75 0 0 1-.75-.75Zm0 4a.75.75 0 0 1 .75-.75h6a.75.75 0 0 1 0 1.5h-6a.75.75 0 0 1-.75-.75Zm0 4a.75.75 0 0 1 .75-.75h3a.75.75 0 0 1 0 1.5h-3a.75.75 0 0 1-.75-.75Z" fill="#868686"/>
</svg>
