<svg width="24" height="24" fill="none" xmlns="http://www.w3.org/2000/svg">
    <path fill-rule="evenodd" clip-rule="evenodd" d="M13.366 9.492a1.75 1.75 0 0 1-2.733 0l-1.92-2.4c-.916-1.145-.1-2.843 1.367-2.843h3.838c1.468 0 2.284 1.698 1.367 2.843l-1.92 2.4Zm-1.562-.937c.1.125.29.125.39 0l1.92-2.4a.25.25 0 0 0-.196-.406H10.08a.25.25 0 0 0-.195.406l1.919 2.4Z" fill="#868686"/>
    <path fill-rule="evenodd" clip-rule="evenodd" d="M18.999 16.75c1.854 2.472.09 6-3 6h-8c-3.09 0-4.854-3.528-3-6l2.55-3.4c.6-.8.6-1.9 0-2.7l-2.55-3.4c-1.854-2.472-.09-6 3-6h8c3.09 0 4.854 3.528 3 6l-2.55 3.4c-.6.8-.6 1.9 0 2.7l2.55 3.4Zm-3 4.5c1.854 0 2.912-2.117 1.8-3.6l-2.55-3.4a3.75 3.75 0 0 1 0-4.5l2.55-3.4c1.113-1.483.054-3.6-1.8-3.6h-8c-1.854 0-2.912 2.117-1.8 3.6l2.55 3.4c1 1.333 1 3.167 0 4.5l-2.55 3.4c-1.112 1.483-.054 3.6 1.8 3.6h8Z" fill="#868686"/>
</svg>
