<svg width="24" height="24" fill="none" xmlns="http://www.w3.org/2000/svg">
    <path d="M13.25 9.25V8a1.25 1.25 0 1 0-2.5 0v1.25h2.5Z" fill="#868686"/>
    <path fill-rule="evenodd" clip-rule="evenodd" d="M5 5a3 3 0 0 1 3-3h8a3 3 0 0 1 3 3v14a3 3 0 0 1-3 3H8a3 3 0 0 1-3-3V5Zm4.25 3a2.75 2.75 0 1 1 5.5 0v4a.75.75 0 0 1-1.5 0v-1.25h-2.5V12a.75.75 0 0 1-1.5 0V8Zm1 11a.75.75 0 0 1 .75-.75h2a.75.75 0 0 1 0 1.5h-2a.75.75 0 0 1-.75-.75ZM9 14.25a.75.75 0 0 0 0 1.5h6a.75.75 0 0 0 0-1.5H9Z" fill="#868686"/>
</svg>
