<svg width="24" height="24" fill="none" xmlns="http://www.w3.org/2000/svg">
    <path d="M18 2c1.953 0 3.579 1.4 3.93 3.25H2.07A4.001 4.001 0 0 1 6 2h12ZM22 9.25v-2.5H2v2.5h20Z" fill="#868686"/>
    <path fill-rule="evenodd" clip-rule="evenodd" d="M22 10.75H2V16a4 4 0 0 0 4 4h7a1 1 0 0 0 1-1v-1a4 4 0 0 1 4-4h3a1 1 0 0 0 1-1v-2.25ZM6 17a1 1 0 1 0 0-2 1 1 0 0 0 0 2Z" fill="#868686"/>
    <path d="M21 17a2 2 0 1 0-2 2c-1.246 0-2.377.641-3.208 1.684-.451.566.024 1.316.748 1.316h4.92c.724 0 1.199-.75.748-1.316C21.378 19.641 20.246 19 19 19a2 2 0 0 0 2-2Z" fill="#868686"/>
</svg>
