<svg width="24" height="24" fill="none" xmlns="http://www.w3.org/2000/svg">
    <path fill-rule="evenodd" clip-rule="evenodd" d="M9.01 3.846a3.02 3.02 0 0 1 5.282-1.543.75.75 0 0 1-1.138.978 1.52 1.52 0 0 0-2.674.99v.103a.75.75 0 0 1-.507.71C8.056 5.74 6.709 7.27 6.506 9.06L6.058 13a4.405 4.405 0 0 1-1.04 2.358c-.331.39-.334.827-.128 1.191.214.377.678.701 1.333.701h11.554c.655 0 1.118-.324 1.332-.7.207-.365.204-.802-.128-1.192A4.405 4.405 0 0 1 17.941 13a.75.75 0 0 1 1.49-.17c.064.555.298 1.093.692 1.556.765.899.79 2.026.29 2.904-.49.864-1.463 1.46-2.636 1.46H6.223c-1.174 0-2.146-.596-2.637-1.46-.498-.878-.475-2.005.29-2.904a2.906 2.906 0 0 0 .692-1.555l.447-3.94c.26-2.293 1.862-4.147 3.994-5.045ZM18 4.75a2.25 2.25 0 1 0 0 4.5 2.25 2.25 0 0 0 0-4.5ZM14.25 7a3.75 3.75 0 1 1 7.5 0 3.75 3.75 0 0 1-7.5 0ZM8.737 19.298a.75.75 0 0 1 .965.439c.323.86 1.213 1.513 2.298 1.513 1.084 0 1.975-.652 2.298-1.513a.75.75 0 1 1 1.404.526c-.55 1.47-2.017 2.487-3.702 2.487-1.686 0-3.152-1.017-3.702-2.487a.75.75 0 0 1 .439-.965Z" fill="#868686"/>
</svg>
