<svg width="24" height="24" fill="none" xmlns="http://www.w3.org/2000/svg">
    <path fill-rule="evenodd" clip-rule="evenodd" d="M6 3.75a3.25 3.25 0 0 0-.75 6.413V7A.75.75 0 0 1 6 6.25h12a.75.75 0 0 1 .75.75v3.163A3.251 3.251 0 0 0 18 3.75H6Zm12.75 7.941A4.751 4.751 0 0 0 18 2.25H6a4.75 4.75 0 0 0-.75 9.441V19A2.75 2.75 0 0 0 8 21.75h8A2.75 2.75 0 0 0 18.75 19v-7.309Zm-12-3.941V19c0 .69.56 1.25 1.25 1.25h8c.69 0 1.25-.56 1.25-1.25V7.75H6.75Z" fill="#868686"/>
    <path fill-rule="evenodd" clip-rule="evenodd" d="M10.763 10.763a1.75 1.75 0 0 1 2.474 0l1.293 1.293a.75.75 0 1 1-1.06 1.06l-.72-.72v4.19a.75.75 0 0 1-1.5 0v-4.19l-.72.72a.75.75 0 1 1-1.06-1.06l1.293-1.293Z" fill="#868686"/>
</svg>
