<svg width="24" height="24" fill="none" xmlns="http://www.w3.org/2000/svg">
    <path fill-rule="evenodd" clip-rule="evenodd" d="M11.25 4c0-.942.782-1.806 1.83-1.69 4.877.537 8.67 4.67 8.67 9.69a.75.75 0 0 1-1.5 0 8.251 8.251 0 0 0-7.334-8.2.118.118 0 0 0-.101.037.226.226 0 0 0-.065.163v.5a.75.75 0 0 1-1.5 0V4ZM3 11.25a.75.75 0 0 1 .75.75 8.251 8.251 0 0 0 7.334 8.2.118.118 0 0 0 .101-.037.226.226 0 0 0 .065-.163v-.5a.75.75 0 0 1 1.5 0v.5c0 .942-.782 1.806-1.83 1.69-4.877-.538-8.67-4.67-8.67-9.69a.75.75 0 0 1 .75-.75Z" fill="#868686"/>
    <path d="M13.5 12.5a1.5 1.5 0 1 0-3 0 1.5 1.5 0 0 0 3 0Z" fill="#868686"/>
    <path fill-rule="evenodd" clip-rule="evenodd" d="M12 8.25c-.71 0-1.273.46-1.428 1.034a.75.75 0 0 1-.724.554h-.07c-1.155 0-2.028.883-2.028 1.897v2.118c0 1.014.873 1.897 2.028 1.897h4.444c1.155 0 2.028-.883 2.028-1.897v-2.118c0-1.014-.873-1.897-2.028-1.897h-.07a.75.75 0 0 1-.724-.554C13.273 8.71 12.71 8.25 12 8.25Zm-2.675.116C9.812 7.397 10.839 6.75 12 6.75c1.161 0 2.188.647 2.675 1.616 1.709.213 3.075 1.612 3.075 3.37v2.117c0 1.91-1.614 3.397-3.528 3.397H9.778c-1.914 0-3.528-1.487-3.528-3.397v-2.118c0-1.757 1.366-3.156 3.075-3.369Z" fill="#868686"/>
</svg>
