<svg width="24" height="24" fill="none" xmlns="http://www.w3.org/2000/svg">
    <path fill-rule="evenodd" clip-rule="evenodd" d="M1.25 6A4.75 4.75 0 0 1 6 1.25h12A4.75 4.75 0 0 1 22.75 6v8a.75.75 0 0 1-1.5 0V6A3.25 3.25 0 0 0 18 2.75h-1.25v6.836c0 1.559-1.885 2.34-2.987 1.237l-1.586-1.586a.25.25 0 0 0-.354 0l-1.586 1.586c-1.102 1.103-2.987.322-2.987-1.237V2.75H6A3.25 3.25 0 0 0 2.75 6v12A3.25 3.25 0 0 0 6 21.25h6a.75.75 0 0 1 0 1.5H6A4.75 4.75 0 0 1 1.25 18V6Zm7.927 3.763a.25.25 0 0 1-.427-.177V2.75h6.5v6.836a.25.25 0 0 1-.427.177l-1.586-1.586a1.75 1.75 0 0 0-2.474 0L9.177 9.763Z" fill="#868686"/>
    <path d="M21.564 18.494a.75.75 0 0 0-1.128-.988l-2.87 3.28a.25.25 0 0 1-.345.03l-1.752-1.402a.75.75 0 1 0-.938 1.172l1.753 1.402a1.75 1.75 0 0 0 2.41-.214l2.87-3.28Z" fill="#868686"/>
</svg>
