<svg width="24" height="24" fill="none" xmlns="http://www.w3.org/2000/svg">
    <path fill-rule="evenodd" clip-rule="evenodd" d="M12 2.75c-1.45 0-2.761.587-3.712 1.538a.75.75 0 0 1-1.061-1.061A6.731 6.731 0 0 1 12 1.25c1.864 0 3.552.756 4.773 1.977a.75.75 0 1 1-1.06 1.06A5.231 5.231 0 0 0 12 2.75Zm0 3a2.24 2.24 0 0 0-1.591.659.75.75 0 1 1-1.06-1.06A3.74 3.74 0 0 1 12 4.25a3.74 3.74 0 0 1 2.652 1.098.75.75 0 0 1-1.061 1.061A2.24 2.24 0 0 0 12 5.75Zm0 1.5a.75.75 0 0 1 .75.75v2a.75.75 0 0 1-1.5 0V8a.75.75 0 0 1 .75-.75ZM9.677 8.352a.75.75 0 0 1-.355.999 6.25 6.25 0 1 0 5.356 0 .75.75 0 1 1 .644-1.355 7.75 7.75 0 1 1-6.644 0 .75.75 0 0 1 1 .356Z" fill="#868686"/>
</svg>
