<svg width="24" height="24" fill="none" xmlns="http://www.w3.org/2000/svg">
    <path fill-rule="evenodd" clip-rule="evenodd" d="M14.053 3.488a3.225 3.225 0 0 0-4.106 0l-5 4.117A3.296 3.296 0 0 0 3.75 10.15v7.817c0 1.819 1.46 3.283 3.25 3.283h10c1.79 0 3.25-1.464 3.25-3.283V10.15c0-.988-.44-1.922-1.197-2.545l-5-4.117ZM8.993 2.33a4.725 4.725 0 0 1 6.014 0l5 4.118a4.796 4.796 0 0 1 1.743 3.702v7.817c0 2.636-2.12 4.783-4.75 4.783H7c-2.63 0-4.75-2.147-4.75-4.783V10.15c0-1.433.639-2.793 1.743-3.702l5-4.118ZM6.25 13A3.75 3.75 0 0 1 10 9.25h4A3.75 3.75 0 0 1 17.75 13v2A3.75 3.75 0 0 1 14 18.75h-4A3.75 3.75 0 0 1 6.25 15v-2ZM10 10.75A2.25 2.25 0 0 0 7.75 13v2A2.25 2.25 0 0 0 10 17.25h4A2.25 2.25 0 0 0 16.25 15v-2A2.25 2.25 0 0 0 14 10.75h-4Zm-.67 1.915a.75.75 0 0 1 1.005-.336l1.106.553a1.25 1.25 0 0 0 1.118 0l1.106-.553a.75.75 0 1 1 .67 1.342l-1.105.553a2.75 2.75 0 0 1-2.46 0l-1.105-.553a.75.75 0 0 1-.336-1.006Z" fill="#868686"/>
</svg>
