<svg width="24" height="24" fill="none" xmlns="http://www.w3.org/2000/svg">
    <path fill-rule="evenodd" clip-rule="evenodd" d="M12.147 3.916A7.75 7.75 0 0 0 4.57 17.36a.75.75 0 0 0 .858-1.23 6.25 6.25 0 1 1 8.98-8.264 5.762 5.762 0 0 0-1.434 1.027.75.75 0 0 0 1.05 1.07A4.25 4.25 0 0 1 21.25 13a4.251 4.251 0 0 1-2.55 3.897.75.75 0 0 0 .6 1.374A5.751 5.751 0 0 0 21.906 10a5.75 5.75 0 0 0-9.76-6.084Zm1.307.74a7.784 7.784 0 0 1 2.393 2.71A5.772 5.772 0 0 1 17 7.25a5.73 5.73 0 0 1 3.874 1.5 4.25 4.25 0 0 0-7.42-4.094Zm-.199 6.639a.75.75 0 0 1 .495.705v3.25H16a.75.75 0 0 1 .576 1.23l-5 6A.75.75 0 0 1 10.25 22v-3.25H8a.75.75 0 0 1-.576-1.23l5-6a.75.75 0 0 1 .831-.225ZM9.601 17.25H11a.75.75 0 0 1 .75.75v1.928l2.649-3.178H13a.75.75 0 0 1-.75-.75v-1.928L9.601 17.25Z" fill="#868686"/>
</svg>
