<svg width="24" height="24" fill="none" xmlns="http://www.w3.org/2000/svg">
    <path d="M18.137 5.864a3.964 3.964 0 0 0-5.606 0l-1.667 1.667a.75.75 0 1 1-1.06-1.06l1.666-1.667a5.464 5.464 0 1 1 7.728 7.727l-1.667 1.667a.75.75 0 0 1-1.06-1.061l1.666-1.667a3.964 3.964 0 0 0 0-5.606Z" fill="#868686"/>
    <path d="M14.652 9.349a.75.75 0 0 1 0 1.06l-4.242 4.243a.75.75 0 1 1-1.06-1.06l4.242-4.243a.75.75 0 0 1 1.06 0Z" fill="#868686"/>
    <path d="M11.47 18.137a3.964 3.964 0 1 1-5.606-5.606l1.667-1.667a.75.75 0 1 0-1.06-1.06L4.803 11.47a5.464 5.464 0 0 0 7.727 7.728l1.667-1.667a.75.75 0 0 0-1.061-1.06l-1.667 1.666Z" fill="#868686"/>
</svg>
