<svg width="24" height="24" fill="none" xmlns="http://www.w3.org/2000/svg">
    <path fill-rule="evenodd" clip-rule="evenodd" d="M18.905 3.944a1.25 1.25 0 0 0-1.767 0l-2.122 2.122a.75.75 0 0 1-1.06-1.061l2.12-2.121a2.75 2.75 0 0 1 3.89 3.889l-2.121 2.121a.75.75 0 0 1-1.061-1.06l2.121-2.122a1.25 1.25 0 0 0 0-1.768Z" fill="#868686"/>
    <path fill-rule="evenodd" clip-rule="evenodd" d="M6.663 16.188h1.922c1.26 0 2.468-.5 3.359-1.391l5.9-5.9a.75.75 0 0 0-1.062-1.06l-5.899 5.9a3.25 3.25 0 0 1-2.298.951h-.422v-.421c0-.862.343-1.689.952-2.298l5.9-5.9a.75.75 0 1 0-1.061-1.06l-5.9 5.899a4.75 4.75 0 0 0-1.39 3.359v1.921Z" fill="#868686"/>
    <path fill-rule="evenodd" clip-rule="evenodd" d="M12.54 3.594a.75.75 0 0 1 1.06 0l5.658 5.657a.75.75 0 1 1-1.061 1.06L12.54 4.656a.75.75 0 0 1 0-1.06ZM6.01 17.452l-.51.55-.51-.55a.75.75 0 0 1 1.02 0Zm-.51 1.649c.051.061.104.126.156.194.169.22.325.454.437.68.114.234.157.41.157.526 0 .395-.114.54-.183.6-.087.076-.259.15-.567.15-.308 0-.48-.074-.567-.15-.069-.06-.183-.205-.183-.6 0-.116.043-.292.157-.525.112-.227.268-.461.437-.681.052-.068.105-.133.156-.194Zm-.51-1.649.51.55.51-.55.002.001.002.002.005.005.016.015a5.294 5.294 0 0 1 .243.245c.153.162.359.39.566.66.206.267.425.588.595.934.166.339.311.751.311 1.188 0 .71-.222 1.315-.696 1.729-.456.397-1.034.52-1.554.52s-1.098-.123-1.554-.52c-.474-.414-.696-1.02-.696-1.73 0-.436.145-.848.311-1.187.17-.346.389-.667.595-.934a8.533 8.533 0 0 1 .81-.905l.015-.015.005-.005.002-.002h.001Z" fill="#868686"/>
</svg>
