<svg width="24" height="24" fill="none" xmlns="http://www.w3.org/2000/svg">
    <path fill-rule="evenodd" clip-rule="evenodd" d="M1.25 8A4.75 4.75 0 0 1 6 3.25h8A4.75 4.75 0 0 1 18.75 8a.75.75 0 0 1-1.5 0A3.25 3.25 0 0 0 14 4.75H9.464A4.733 4.733 0 0 1 10.75 8v8c0 1.257-.488 2.4-1.286 3.25H14A3.25 3.25 0 0 0 17.25 16a.75.75 0 0 1 1.5 0A4.75 4.75 0 0 1 14 20.75H6A4.75 4.75 0 0 1 1.25 16V8ZM6 19.25A3.25 3.25 0 0 0 9.25 16V8a3.25 3.25 0 1 0-6.5 0v8A3.25 3.25 0 0 0 6 19.25Zm9.53-9.78a.75.75 0 0 1 0 1.06l-.72.72H22a.75.75 0 0 1 0 1.5h-7.19l.72.72a.75.75 0 1 1-1.06 1.06l-1.293-1.293a1.75 1.75 0 0 1 0-2.474L14.47 9.47a.75.75 0 0 1 1.06 0Z" fill="#868686"/>
</svg>
