<svg width="24" height="24" fill="none" xmlns="http://www.w3.org/2000/svg">
    <path fill-rule="evenodd" clip-rule="evenodd" d="M6 3.063h3.5a4 4 0 0 1 4 4v12h-3a3.5 3.5 0 0 0-6.907-.805A3.994 3.994 0 0 1 2 15.063v-8a4 4 0 0 1 4-4Zm2 3.75a.75.75 0 0 1 .75.75v2.75h1.75a.75.75 0 0 1 0 1.5H8a.75.75 0 0 1-.75-.75v-3.5a.75.75 0 0 1 .75-.75Z" fill="#868686"/>
    <path d="M21.446 18.445A3.5 3.5 0 0 0 15 17.259V7.062h2.21a2 2 0 0 1 1.367.541l2.79 2.617A2 2 0 0 1 22 11.679v5.383c0 .537-.21 1.023-.554 1.383ZM9 19.063a2 2 0 1 1-4 0 2 2 0 0 1 4 0Z" fill="#868686"/>
    <path d="M20 19.063a2 2 0 1 1-4 0 2 2 0 0 1 4 0Z" fill="#868686"/>
</svg>
