<svg width="24" height="24" fill="none" xmlns="http://www.w3.org/2000/svg">
    <path d="M6.475 2.716c1.688-1.126 3.905-.094 4.234 1.8H14a2.75 2.75 0 0 1 2.75 2.75.75.75 0 0 1-1.5 0c0-.69-.56-1.25-1.25-1.25h-3.25v12.5H14c.69 0 1.25-.559 1.25-1.25a.75.75 0 0 1 1.5 0 2.75 2.75 0 0 1-2.75 2.75h-3.291c-.33 1.895-2.546 2.927-4.234 1.802l-2-1.334a2.75 2.75 0 0 1-1.225-2.288V6.337c0-.92.46-1.778 1.225-2.288l2-1.333Z" fill="#868686"/>
    <path d="M17.47 14.53a.75.75 0 0 1 0-1.06l.72-.72H13a.75.75 0 1 1 0-1.5h5.19l-.72-.72a.75.75 0 0 1 1.06-1.06l1.293 1.293a1.75 1.75 0 0 1 0 2.475L18.53 14.53a.75.75 0 0 1-1.06 0Z" fill="#868686"/>
</svg>
