<svg width="24" height="24" fill="none" xmlns="http://www.w3.org/2000/svg">
    <path d="M17 12a1 1 0 1 1-2 0 1 1 0 0 1 2 0Z" fill="#868686"/>
    <path fill-rule="evenodd" clip-rule="evenodd" d="M11.16 4.942a.25.25 0 0 0-.41.192v5.464l3.72-2.48a.25.25 0 0 0 .021-.4l-3.33-2.776Zm-1.91 5.656V5.134c0-1.484 1.73-2.294 2.87-1.344l3.331 2.776a1.75 1.75 0 0 1-.15 2.8L11.353 12l3.95 2.633a1.75 1.75 0 0 1 .15 2.8L12.12 20.21c-1.14.95-2.87.139-2.87-1.345v-5.463l-4.834 3.222a.75.75 0 1 1-.832-1.248L8.648 12 3.584 8.623a.75.75 0 0 1 .832-1.248l4.834 3.223Zm1.5 2.803v5.463a.25.25 0 0 0 .41.192l3.331-2.776a.25.25 0 0 0-.021-.4l-3.72-2.48ZM18.282 8.155a.75.75 0 0 1 1.058.074 5.73 5.73 0 0 1 1.41 3.77 5.732 5.732 0 0 1-1.465 3.834.75.75 0 0 1-1.117-1A4.232 4.232 0 0 0 19.25 12a4.23 4.23 0 0 0-1.042-2.787.75.75 0 0 1 .074-1.058Z" fill="#868686"/>
</svg>
