<svg width="24" height="24" fill="none" xmlns="http://www.w3.org/2000/svg">
    <path fill-rule="evenodd" clip-rule="evenodd" d="M12 2.75a6.218 6.218 0 0 0-3.57 1.12.75.75 0 0 1-.86-1.23A7.718 7.718 0 0 1 12 1.25c1.646 0 3.174.514 4.43 1.39a.75.75 0 0 1-.86 1.23A6.218 6.218 0 0 0 12 2.75Zm0 3c-.593 0-1.147.158-1.624.434a.75.75 0 1 1-.752-1.298A4.732 4.732 0 0 1 12 4.25c.864 0 1.676.231 2.376.636a.75.75 0 1 1-.752 1.298A3.232 3.232 0 0 0 12 5.75ZM3.25 9.505c0-1.278 1.058-2.392 2.427-2.242 1.815.2 4.347.741 6.199 2.003a.229.229 0 0 0 .248 0c1.852-1.262 4.384-1.803 6.199-2.003 1.369-.15 2.427.964 2.427 2.242v8.762c0 1.309-1.053 2.302-2.264 2.435-1.734.19-3.971.698-5.517 1.751a1.729 1.729 0 0 1-1.938 0c-1.546-1.053-3.783-1.56-5.517-1.751-1.21-.133-2.264-1.126-2.264-2.435V9.505Zm2.264-.75c-.388-.043-.764.269-.764.75v8.762c0 .45.38.884.927.944 1.618.177 3.805.627 5.573 1.616V10.632a1.71 1.71 0 0 1-.219-.127c-1.546-1.053-3.783-1.56-5.517-1.75Zm7.236 1.877v10.195c1.768-.989 3.955-1.439 5.573-1.616.546-.06.927-.494.927-.944V9.505c0-.481-.376-.793-.764-.75-1.734.19-3.971.697-5.517 1.75a1.71 1.71 0 0 1-.219.127Z" fill="#868686"/>
</svg>
