<svg width="24" height="24" fill="none" xmlns="http://www.w3.org/2000/svg">
    <path fill-rule="evenodd" clip-rule="evenodd" d="M9 5.25a.75.75 0 0 1 .75.75v1a2.25 2.25 0 0 0 4.5 0V6a.75.75 0 0 1 1.5 0v1a3.75 3.75 0 1 1-7.5 0V6A.75.75 0 0 1 9 5.25Z" fill="#868686"/>
    <path fill-rule="evenodd" clip-rule="evenodd" d="M3.703 6.22A4.75 4.75 0 0 1 8.39 2.25h7.223a4.75 4.75 0 0 1 4.685 3.97l1.11 6.657a.75.75 0 1 1-1.48.246l-1.11-6.657a3.25 3.25 0 0 0-3.206-2.716H8.39a3.25 3.25 0 0 0-3.206 2.716l-1.667 10a3.25 3.25 0 0 0 3.206 3.784H13a.75.75 0 1 1 0 1.5H6.722a4.75 4.75 0 0 1-4.685-5.53l1.666-10Z" fill="#868686"/>
    <path fill-rule="evenodd" clip-rule="evenodd" d="M15.25 17a.75.75 0 0 1 .75-.75h6a.75.75 0 0 1 0 1.5h-6a.75.75 0 0 1-.75-.75Z" fill="#868686"/>
</svg>
