<svg width="24" height="24" fill="none" xmlns="http://www.w3.org/2000/svg">
    <path fill-rule="evenodd" clip-rule="evenodd" d="M11.47 7.47a.75.75 0 0 1 1.06 0l4 4a.75.75 0 0 1 0 1.06l-4 4a.75.75 0 1 1-1.06-1.06l2.72-2.72H2a.75.75 0 0 1 0-1.5h12.19l-2.72-2.72a.75.75 0 0 1 0-1.06Z" fill="#868686"/>
    <path fill-rule="evenodd" clip-rule="evenodd" d="M8.415 6.224a.75.75 0 0 0 1.054.116 7.25 7.25 0 1 1 0 11.32.75.75 0 1 0-.938 1.17 8.75 8.75 0 1 0 0-13.661.75.75 0 0 0-.116 1.055Z" fill="#868686"/>
</svg>
