<svg width="24" height="24" fill="none" xmlns="http://www.w3.org/2000/svg">
    <path d="M7 17a1 1 0 1 1-2 0 1 1 0 0 1 2 0Z" fill="#868686"/>
    <path fill-rule="evenodd" clip-rule="evenodd" d="M18 2.25A4.75 4.75 0 0 1 22.75 7v10A4.75 4.75 0 0 1 18 21.75H6A4.75 4.75 0 0 1 1.25 17V7A4.75 4.75 0 0 1 6 2.25h12Zm-15.25 9.5V17A3.25 3.25 0 0 0 6 20.25h12A3.25 3.25 0 0 0 21.25 17v-5.25H2.75Zm18.5-1.5v-2.5H2.75v2.5h18.5Zm-.087-4H2.837A3.251 3.251 0 0 1 6 3.75h12a3.251 3.251 0 0 1 3.163 2.5Z" fill="#868686"/>
</svg>
