<svg width="24" height="24" fill="none" xmlns="http://www.w3.org/2000/svg">
    <path fill-rule="evenodd" clip-rule="evenodd" d="M11 2.75A2.25 2.25 0 0 0 8.75 5v.25h6.5V5A2.25 2.25 0 0 0 13 2.75h-2Zm5.75 2.5V5A3.75 3.75 0 0 0 13 1.25h-2A3.75 3.75 0 0 0 7.25 5v.25H6A4.75 4.75 0 0 0 1.25 10v8A4.75 4.75 0 0 0 6 22.75h12A4.75 4.75 0 0 0 22.75 18v-8A4.75 4.75 0 0 0 18 5.25h-1.25ZM6 6.75A3.25 3.25 0 0 0 2.75 10v2.25h4.5v-.75a.75.75 0 0 1 1.5 0v.75h6.5v-.75a.75.75 0 0 1 1.5 0v.75h4.5V10A3.25 3.25 0 0 0 18 6.75H6Zm15.25 7h-4.5v.75a.75.75 0 0 1-1.5 0v-.75h-6.5v.75a.75.75 0 0 1-1.5 0v-.75h-4.5V18A3.25 3.25 0 0 0 6 21.25h12A3.25 3.25 0 0 0 21.25 18v-4.25Z" fill="#868686"/>
</svg>
