<svg width="24" height="24" fill="none" xmlns="http://www.w3.org/2000/svg">
    <path fill-rule="evenodd" clip-rule="evenodd" d="M4.25 3A.75.75 0 0 1 5 2.25h14a.75.75 0 0 1 0 1.5H5A.75.75 0 0 1 4.25 3ZM6 7.75A2.25 2.25 0 0 0 3.75 10v4A2.25 2.25 0 0 0 6 16.25h12A2.25 2.25 0 0 0 20.25 14v-4A2.25 2.25 0 0 0 18 7.75H6ZM2.25 10A3.75 3.75 0 0 1 6 6.25h12A3.75 3.75 0 0 1 21.75 10v4A3.75 3.75 0 0 1 18 17.75H6A3.75 3.75 0 0 1 2.25 14v-4Zm2 11a.75.75 0 0 1 .75-.75h14a.75.75 0 0 1 0 1.5H5a.75.75 0 0 1-.75-.75Z" fill="#868686"/>
</svg>
