<svg width="24" height="24" fill="none" xmlns="http://www.w3.org/2000/svg">
    <path fill-rule="evenodd" clip-rule="evenodd" d="M2 1.25a.75.75 0 0 1 .75.75v16A3.25 3.25 0 0 0 6 21.25h16a.75.75 0 0 1 0 1.5H6A4.75 4.75 0 0 1 1.25 18V2A.75.75 0 0 1 2 1.25Zm19.46 7.158a.75.75 0 0 1 .132 1.052l-3.756 4.83a1.897 1.897 0 0 1-3.006 0l-2.966-3.815a.25.25 0 0 0-.395 0l-3.877 4.986a.75.75 0 0 1-1.184-.921l3.877-4.986c.7-.9 2.062-.9 2.763 0l2.966 3.814a.397.397 0 0 0 .638 0l3.756-4.828a.75.75 0 0 1 1.052-.132Z" fill="#868686"/>
</svg>
