<svg width="24" height="24" fill="none" xmlns="http://www.w3.org/2000/svg">
    <path fill-rule="evenodd" clip-rule="evenodd" d="M12 2.25a.75.75 0 0 1 .75.75v3.25H18A3.75 3.75 0 0 1 21.75 10v4A3.75 3.75 0 0 1 18 17.75h-5.25V21a.75.75 0 0 1-1.5 0v-3.25H6A3.75 3.75 0 0 1 2.25 14v-4A3.75 3.75 0 0 1 6 6.25h5.25V3a.75.75 0 0 1 .75-.75Zm-.001 5.5H6A2.25 2.25 0 0 0 3.75 10v4A2.25 2.25 0 0 0 6 16.25h6c-.001 0 0 0 0 0h6A2.25 2.25 0 0 0 20.25 14v-4A2.25 2.25 0 0 0 18 7.75h-6.001Z" fill="#868686"/>
</svg>
