<svg width="24" height="24" fill="none" xmlns="http://www.w3.org/2000/svg">
    <path fill-rule="evenodd" clip-rule="evenodd" d="M7.25 6a4.75 4.75 0 0 1 9.5 0 .75.75 0 0 1-1.5 0 3.25 3.25 0 0 0-6.5 0 .75.75 0 0 1-1.5 0Z" fill="#868686"/>
    <path fill-rule="evenodd" clip-rule="evenodd" d="M3.819 9.41a4.75 4.75 0 0 1 4.713-4.16h6.938a4.75 4.75 0 0 1 4.713 4.16l1 8a4.75 4.75 0 0 1-4.713 5.34H7.532a4.75 4.75 0 0 1-4.713-5.34l1-8Zm4.713-2.66a3.25 3.25 0 0 0-3.225 2.847l-1 8a3.25 3.25 0 0 0 3.225 3.653h8.938a3.25 3.25 0 0 0 3.225-3.653l-1-8A3.25 3.25 0 0 0 15.47 6.75H8.532Z" fill="#868686"/>
    <path fill-rule="evenodd" clip-rule="evenodd" d="M9.349 11.349a.75.75 0 0 1 1.06 0l4.243 4.242a.75.75 0 0 1-1.06 1.06L9.348 12.41a.75.75 0 0 1 0-1.06Z" fill="#868686"/>
    <path fill-rule="evenodd" clip-rule="evenodd" d="M14.652 11.349a.75.75 0 0 1 0 1.06l-4.243 4.243a.75.75 0 1 1-1.06-1.06l4.242-4.243a.75.75 0 0 1 1.06 0Z" fill="#868686"/>
</svg>
