<svg width="24" height="24" fill="none" xmlns="http://www.w3.org/2000/svg">
    <path fill-rule="evenodd" clip-rule="evenodd" d="M18 2.063a4 4 0 0 1 4 4v6a2 2 0 0 1-2 2h-5a2 2 0 0 0-2 2v4a2 2 0 0 1-2 2H6a4 4 0 0 1-4-4v-12a4 4 0 0 1 4-4h12ZM8 7.647V3.563h8v4.085c0 .891-1.077 1.337-1.707.707L12.707 6.77a1 1 0 0 0-1.414 0L9.707 8.355C9.077 8.985 8 8.54 8 7.648Z" fill="#868686"/>
    <path fill-rule="evenodd" clip-rule="evenodd" d="M20.959 18.583a3.48 3.48 0 1 1-6.959 0 3.48 3.48 0 0 1 6.959 0Zm-3.789-1.549a.5.5 0 0 1 .5.5v1.091h.801a.5.5 0 1 1 0 1h-1.3a.5.5 0 0 1-.5-.5v-1.59a.5.5 0 0 1 .5-.5Z" fill="#868686"/>
</svg>
