<svg width="24" height="24" fill="none" xmlns="http://www.w3.org/2000/svg">
    <path fill-rule="evenodd" clip-rule="evenodd" d="M3.47 3.47a.75.75 0 0 0 0 1.06l16 16a.75.75 0 1 0 1.06-1.06l-16-16a.75.75 0 0 0-1.06 0Z" fill="#868686"/>
    <path fill-rule="evenodd" clip-rule="evenodd" d="M10.264 9.441a.75.75 0 0 0-1.059.059 3.75 3.75 0 0 0 5.295 5.295.75.75 0 0 0-1-1.118 2.25 2.25 0 0 1-3.177-3.177.75.75 0 0 0-.059-1.059Z" fill="#868686"/>
    <path fill-rule="evenodd" clip-rule="evenodd" d="M9.188 4.697A9.382 9.382 0 0 1 12 4.25c4.151 0 7.702 3.012 9.674 5.086a3.835 3.835 0 0 1 0 5.328c-.454.477-.982.994-1.574 1.51a.75.75 0 0 1-.985-1.132c.551-.48 1.045-.963 1.472-1.412.884-.93.884-2.33 0-3.26C18.647 8.329 15.48 5.75 12 5.75c-.805 0-1.596.138-2.363.378a.75.75 0 0 1-.449-1.431ZM7.132 6.4a.75.75 0 0 1-.228 1.036c-1.392.888-2.589 1.985-3.49 2.934a2.335 2.335 0 0 0 0 3.26c1.94 2.041 5.106 4.62 8.586 4.62 1.689 0 3.313-.607 4.778-1.488a.75.75 0 1 1 .774 1.285c-1.612.97-3.504 1.703-5.552 1.703-4.151 0-7.702-3.012-9.674-5.086a3.835 3.835 0 0 1 0-5.328c.954-1.003 2.245-2.19 3.77-3.165a.75.75 0 0 1 1.036.229Z" fill="#868686"/>
</svg>
