<svg width="24" height="24" fill="none" xmlns="http://www.w3.org/2000/svg">
    <path fill-rule="evenodd" clip-rule="evenodd" d="M5 2.75A2.25 2.25 0 0 0 2.75 5v13a3.25 3.25 0 0 0 6.4.805C9.342 18.05 10 17.25 11 17.25h6.25V5A2.25 2.25 0 0 0 15 2.75H5Zm13.75 14.5V5A3.75 3.75 0 0 0 15 1.25H5A3.75 3.75 0 0 0 1.25 5v13A4.75 4.75 0 0 0 6 22.75h12c2.219 0 4.08-1.52 4.603-3.575.29-1.14-.706-1.925-1.603-1.925h-2.25Zm-9.286 4H18a3.252 3.252 0 0 0 3.15-2.443l-.004-.003A.205.205 0 0 0 21 18.75H11c-.06 0-.13.022-.208.094a.691.691 0 0 0-.189.33c-.2.79-.599 1.5-1.139 2.076Zm-.873-13.5a.841.841 0 0 0-.841.841v.075c0 .208.07.41.2.572l1.855 2.317c.1.126.29.126.39 0l1.854-2.317c.13-.163.201-.364.201-.572V8.59a.841.841 0 0 0-1.436-.595l-.284.284a.75.75 0 0 1-1.06 0l-.284-.284a.841.841 0 0 0-.595-.246Zm-2.341.841A2.341 2.341 0 0 1 10 6.721a2.341 2.341 0 0 1 3.75 1.87v.075c0 .548-.187 1.08-.53 1.509l-1.854 2.317a1.75 1.75 0 0 1-2.733 0L6.78 10.175a2.416 2.416 0 0 1-.529-1.51v-.074Z" fill="#868686"/>
</svg>
