<svg width="24" height="24" fill="none" xmlns="http://www.w3.org/2000/svg">
    <path d="M6.81 3.065C5.06 4.749 2 8.195 2 11.687c0 2.838 1.89 5.749 5.05 6.24a8.764 8.764 0 0 1-.55-3.029c0-2.483 1.156-4.81 2.435-6.653a24.429 24.429 0 0 1 2.362-2.869A23.443 23.443 0 0 0 9.19 3.065a1.7 1.7 0 0 0-2.38 0Z" fill="#868686"/>
    <path fill-rule="evenodd" clip-rule="evenodd" d="M8 14.898c0-4.072 3.837-8.089 5.83-9.9a1.724 1.724 0 0 1 2.34 0c1.993 1.811 5.83 5.828 5.83 9.9 0 3.5-2.65 7.1-7 7.1s-7-3.6-7-7.1Zm7.264 4.243a.75.75 0 0 1 .594-.879c1.277-.247 2.15-1.26 2.41-2.427a.75.75 0 0 1 1.464.326c-.369 1.658-1.637 3.196-3.59 3.574a.75.75 0 0 1-.878-.594Z" fill="#868686"/>
</svg>
