<svg width="24" height="24" fill="none" xmlns="http://www.w3.org/2000/svg">
    <path fill-rule="evenodd" clip-rule="evenodd" d="M12 21.25c4.504 0 7.25-3.611 7.25-7.14 0-2.089-1.049-4.239-2.448-6.159-1.388-1.904-3.053-3.49-4.14-4.436a.993.993 0 0 0-1.325 0c-1.086.945-2.751 2.532-4.14 4.436-1.398 1.92-2.447 4.07-2.447 6.16 0 3.528 2.746 7.138 7.25 7.138Zm8.75-7.14c0 4.25-3.313 8.64-8.75 8.64-5.437 0-8.75-4.39-8.75-8.64 0-2.56 1.266-5.026 2.735-7.042 1.48-2.032 3.238-3.702 4.367-4.684a2.493 2.493 0 0 1 3.296 0c1.129.982 2.886 2.652 4.367 4.684 1.47 2.016 2.735 4.483 2.735 7.042Z" fill="#868686"/>
    <path fill-rule="evenodd" clip-rule="evenodd" d="M12.265 19.049a.75.75 0 0 1 .593-.88c1.746-.34 2.934-1.735 3.287-3.33a.75.75 0 1 1 1.464.323c-.46 2.08-2.039 4.007-4.465 4.48a.75.75 0 0 1-.88-.593Z" fill="#868686"/>
</svg>
