<svg width="24" height="24" fill="none" xmlns="http://www.w3.org/2000/svg">
    <path fill-rule="evenodd" clip-rule="evenodd" d="M12 17c2 0 6-4.686 6-8A6 6 0 0 0 6 9c0 3.314 4 8 6 8Zm0-6a2 2 0 1 0 0-4 2 2 0 0 0 0 4Z" fill="#868686"/>
    <path d="M7.01 15.094a4 4 0 0 0-2.21 1.345l-1.067 1.28C2.647 19.023 3.573 21 5.269 21h13.46c1.696 0 2.622-1.978 1.537-3.28l-1.067-1.28a4 4 0 0 0-2.211-1.346l-.06.077c-.688.873-1.467 1.66-2.249 2.246-.722.54-1.677 1.083-2.68 1.083-1.002 0-1.957-.542-2.68-1.083-.781-.585-1.56-1.373-2.248-2.246l-.06-.077Z" fill="#868686"/>
</svg>
