<svg width="24" height="24" fill="none" xmlns="http://www.w3.org/2000/svg">
    <path fill-rule="evenodd" clip-rule="evenodd" d="M2.25 6A4.75 4.75 0 0 1 7 1.25h10A4.75 4.75 0 0 1 21.75 6v12A4.75 4.75 0 0 1 17 22.75H7A4.75 4.75 0 0 1 2.25 18V6ZM7 2.75A3.25 3.25 0 0 0 3.75 6v12A3.25 3.25 0 0 0 7 21.25h10A3.25 3.25 0 0 0 20.25 18V6A3.25 3.25 0 0 0 17 2.75H7ZM9.25 8a2.75 2.75 0 1 1 5.5 0v4a.75.75 0 0 1-1.5 0v-1.25h-2.5V12a.75.75 0 0 1-1.5 0V8Zm1.5 1.25h2.5V8a1.25 1.25 0 1 0-2.5 0v1.25ZM7.25 15a.75.75 0 0 1 .75-.75h8a.75.75 0 0 1 0 1.5H8a.75.75 0 0 1-.75-.75Zm0 3a.75.75 0 0 1 .75-.75h4a.75.75 0 0 1 0 1.5H8a.75.75 0 0 1-.75-.75Z" fill="#868686"/>
</svg>
