<svg width="24" height="24" fill="none" xmlns="http://www.w3.org/2000/svg">
    <path fill-rule="evenodd" clip-rule="evenodd" d="M15 2.25a.75.75 0 0 1 .75.75v1a.75.75 0 0 1-1.5 0V3a.75.75 0 0 1 .75-.75Zm5.48 2.27a.75.75 0 0 1 0 1.06l-.707.708a.75.75 0 0 1-1.06-1.061l.706-.707a.75.75 0 0 1 1.061 0Zm-7.424 2.875a7.783 7.783 0 0 1 2.79 2.97 5.765 5.765 0 0 1 2.382.017 3.25 3.25 0 0 0-5.172-2.987Zm6.608 3.508a4.75 4.75 0 0 0-8.074-4.21A7.75 7.75 0 1 0 9 21.75h8a5.75 5.75 0 0 0 2.664-10.846Zm-5.255-.037a6.278 6.278 0 0 0-2.9-2.592A6.25 6.25 0 1 0 9 20.25h7.999a4.25 4.25 0 1 0-2.975-7.285.75.75 0 0 1-1.05-1.071 5.76 5.76 0 0 1 1.434-1.028ZM20.25 10a.75.75 0 0 1 .75-.75h1a.75.75 0 0 1 0 1.5h-1a.75.75 0 0 1-.75-.75Z" fill="#868686"/>
</svg>
