<svg width="24" height="24" fill="none" xmlns="http://www.w3.org/2000/svg">
    <path fill-rule="evenodd" clip-rule="evenodd" d="M1.25 6A4.75 4.75 0 0 1 6 1.25h12A4.75 4.75 0 0 1 22.75 6v12A4.75 4.75 0 0 1 18 22.75H6A4.75 4.75 0 0 1 1.25 18V6ZM6 2.75A3.25 3.25 0 0 0 2.75 6v12A3.25 3.25 0 0 0 6 21.25h12A3.25 3.25 0 0 0 21.25 18V6A3.25 3.25 0 0 0 18 2.75H6Zm2 7a.25.25 0 1 0 0 .5.25.25 0 0 0 0-.5ZM6.25 10a1.75 1.75 0 1 1 3.5 0 1.75 1.75 0 0 1-3.5 0ZM16 9.75a.25.25 0 1 0 0 .5.25.25 0 0 0 0-.5Zm-1.75.25a1.75 1.75 0 1 1 3.5 0 1.75 1.75 0 0 1-3.5 0Zm-4.78 4.825A5.79 5.79 0 0 1 12 14.25a5.79 5.79 0 0 1 2.53.575 5.16 5.16 0 0 1 .885.545l.055.045.018.015.006.005.002.003h.001s.001.001-.497.562l.498-.56a.75.75 0 0 1-.992 1.124m-5.011 0a.75.75 0 0 1-.993-1.125L9 16l-.498-.56.002-.002.002-.003.006-.005.018-.015.056-.045c.046-.037.11-.085.19-.142.163-.113.396-.258.694-.403" fill="#868686"/>
</svg>
