<svg width="24" height="24" fill="none" xmlns="http://www.w3.org/2000/svg">
    <path d="M7.497 3.687a.75.75 0 1 0-.6-1.374 12.797 12.797 0 0 0-5.521 4.636.75.75 0 0 0 1.249.83 11.297 11.297 0 0 1 4.872-4.092ZM17.104 2.313a.75.75 0 0 0-.601 1.374c1.99.87 3.681 2.301 4.872 4.093a.75.75 0 0 0 1.25-.83 12.797 12.797 0 0 0-5.521-4.637Z" fill="#868686"/>
    <path fill-rule="evenodd" clip-rule="evenodd" d="M18.992 18.668A9 9 0 1 0 3 13c0 2.148.752 4.12 2.008 5.668l-1.663 2.965a.75.75 0 1 0 1.308.734l1.443-2.573A8.965 8.965 0 0 0 12 22a8.966 8.966 0 0 0 5.903-2.206l1.443 2.573a.75.75 0 1 0 1.308-.734l-1.662-2.965ZM12.75 10a.75.75 0 0 0-1.5 0v2.25H9a.75.75 0 0 0 0 1.5h2.25V16a.75.75 0 1 0 1.5 0v-2.25H15a.75.75 0 1 0 0-1.5h-2.25V10Z" fill="#868686"/>
</svg>
