<svg width="24" height="24" fill="none" xmlns="http://www.w3.org/2000/svg">
    <path fill-rule="evenodd" clip-rule="evenodd" d="M11.25 2.78a9.25 9.25 0 0 0-6.3 15.209l2.514-2.514a5.714 5.714 0 0 1 3.786-9.14V2.78Zm1.5 0v3.555a5.714 5.714 0 0 1 4.915 4.915h3.555a9.25 9.25 0 0 0-8.47-8.47Zm9.974 8.47A10.749 10.749 0 0 0 2.069 7.886a10.75 10.75 0 0 0 16.983 12.227l.02.019.525-.526.004-.005a10.75 10.75 0 0 0 3.149-7.582v-.027c0-.247-.009-.495-.026-.742Zm-3.675 6.739a9.249 9.249 0 0 0 2.17-5.239h-3.554a5.713 5.713 0 0 1-1.129 2.725l2.513 2.514Zm-3.574-1.453 2.514 2.513c-.04.035-.08.068-.12.101a9.25 9.25 0 0 1-11.858-.1l2.514-2.514a5.714 5.714 0 0 0 6.95 0Z" fill="#868686"/>
</svg>
