<svg width="24" height="24" fill="none" xmlns="http://www.w3.org/2000/svg">
    <path fill-rule="evenodd" clip-rule="evenodd" d="M8.75 3.012v11.255c1.076.075 1.956.528 2.717 1.04l-.838 1.245c-.815-.55-1.586-.883-2.546-.775-1.214.135-2.724.961-3.928 1.77-1.153.775-2.905.023-2.905-1.495V6.383c0-.8.35-1.587 1.02-2.093a21.096 21.096 0 0 1 2.455-1.611c.973-.537 2.111-1.033 3.192-1.154 1.959-.219 3.345.836 4.47 1.693l.067.05c1.204.916 2.143 1.595 3.463 1.448 1.214-.136 2.724-.962 3.928-1.771 1.153-.775 2.905-.023 2.905 1.495v9.669c0 .8-.35 1.587-1.02 2.093-.443.335-1.056.773-1.753 1.202l-.785-1.278a20.858 20.858 0 0 0 1.634-1.12c.264-.2.424-.528.424-.897v-9.67c0-.097-.053-.197-.185-.262a.38.38 0 0 0-.383.013c-1.049.704-2.516 1.561-3.932 1.898v5.753h-1.5V6.225c-1.53-.107-2.678-.981-3.637-1.711l-.067-.051c-.991-.754-1.803-1.348-2.796-1.451Zm-1.5 11.392V3.197c-.576.177-1.192.46-1.8.795a19.605 19.605 0 0 0-2.276 1.494 1.11 1.11 0 0 0-.424.897v9.67c0 .097.053.197.185.262a.38.38 0 0 0 .383-.013c1.049-.704 2.516-1.561 3.932-1.898Z" fill="#868686"/>
    <path fill-rule="evenodd" clip-rule="evenodd" d="M15.25 12.423c-1.992 0-3.555 1.543-3.555 3.383 0 .954.47 2.365 1.228 3.552.373.584.792 1.075 1.214 1.413.428.34.805.483 1.113.483.308 0 .685-.142 1.113-.483.422-.338.841-.83 1.214-1.413.758-1.188 1.228-2.598 1.228-3.552 0-1.84-1.563-3.383-3.555-3.383Zm-5.055 3.383c0-2.725 2.293-4.883 5.055-4.883 2.762 0 5.055 2.158 5.055 4.883 0 1.328-.607 3.017-1.463 4.359-.434.68-.957 1.31-1.543 1.778-.582.465-1.281.811-2.049.811s-1.467-.346-2.049-.811c-.586-.468-1.109-1.098-1.543-1.778-.856-1.342-1.463-3.031-1.463-4.36Zm5.055-.8a.541.541 0 1 0 0 1.083.541.541 0 0 0 0-1.083Zm-2.041.541a2.041 2.041 0 1 1 4.082 0 2.041 2.041 0 0 1-4.082 0Z" fill="#868686"/>
</svg>
