<svg width="24" height="24" fill="none" xmlns="http://www.w3.org/2000/svg">
    <path fill-rule="evenodd" clip-rule="evenodd" d="M7.048 3.75c-.39 0-.763.169-1.025.467L3.1 7.547a1.41 1.41 0 0 0-.07.086h4.226L8.962 3.75H7.048Zm3.552 0L8.896 7.633h6.254L13.616 3.75H10.6Zm4.629 0 1.534 3.883h4.206a1.443 1.443 0 0 0-.07-.087l-2.922-3.329a1.365 1.365 0 0 0-1.025-.467h-1.723Zm5.864 5.383h-4.305l-3.576 10.41 7.75-10.202a1.41 1.41 0 0 0 .131-.208ZM12 18.455l3.202-9.322H8.798L12 18.455ZM7.212 9.133l3.576 10.41L3.038 9.34a1.41 1.41 0 0 1-.131-.208h4.305ZM4.896 3.228a2.865 2.865 0 0 1 2.152-.978h9.904c.824 0 1.608.357 2.152.978l2.923 3.329a2.924 2.924 0 0 1 .13 3.691l-7.874 10.365a2.86 2.86 0 0 1-4.566 0L1.844 10.248a2.924 2.924 0 0 1 .13-3.691l2.922-3.33Z" fill="#868686"/>
</svg>
