<svg width="24" height="24" fill="none" xmlns="http://www.w3.org/2000/svg">
    <path fill-rule="evenodd" clip-rule="evenodd" d="M4.929 12a2.75 2.75 0 0 1 0-3.89L8.11 4.928a2.75 2.75 0 0 1 3.89 0l7.07 7.071a2.75 2.75 0 0 1 0 3.89L15.89 19.07a2.75 2.75 0 0 1-3.889 0L4.929 12Zm1.06-2.83a1.25 1.25 0 0 0 0 1.769l7.072 7.07a1.25 1.25 0 0 0 1.767 0l3.183-3.182a1.25 1.25 0 0 0 0-1.767L10.94 5.989a1.25 1.25 0 0 0-1.768 0L5.99 9.17ZM13.269 3.057a.75.75 0 0 1 .897-.566 9.768 9.768 0 0 1 6.823 5.725l.371-.607a.75.75 0 1 1 1.28.782l-1.223 2a.75.75 0 0 1-1.371-.225 8.263 8.263 0 0 0-6.212-6.212.75.75 0 0 1-.565-.897ZM3.345 13.26a.75.75 0 0 1 .61.574 8.263 8.263 0 0 0 6.211 6.211.75.75 0 1 1-.332 1.463 9.768 9.768 0 0 1-6.822-5.725l-.372.608a.75.75 0 1 1-1.28-.782l1.223-2a.75.75 0 0 1 .762-.35Z" fill="#868686"/>
</svg>
