<svg width="24" height="24" fill="none" xmlns="http://www.w3.org/2000/svg">
    <path d="M7.497 2.687a.75.75 0 1 0-.6-1.374 12.797 12.797 0 0 0-5.521 4.636.75.75 0 0 0 1.249.83 11.297 11.297 0 0 1 4.872-4.092ZM17.104 1.313a.75.75 0 0 0-.601 1.374c1.99.87 3.681 2.301 4.872 4.093a.75.75 0 0 0 1.25-.83 12.797 12.797 0 0 0-5.521-4.637Z" fill="#868686"/>
    <path fill-rule="evenodd" clip-rule="evenodd" d="M18.992 18.668A8.963 8.963 0 0 0 21 13 9 9 0 1 0 5.01 18.668l-1.663 2.965a.75.75 0 1 0 1.308.734l1.443-2.573A8.965 8.965 0 0 0 12 22a8.965 8.965 0 0 0 5.903-2.206l1.443 2.573a.75.75 0 1 0 1.308-.734l-1.662-2.965Zm-3.498-8.232a.75.75 0 0 1 .07 1.058l-2.87 3.28a1.75 1.75 0 0 1-2.41.214l-1.752-1.402a.75.75 0 0 1 .937-1.171l1.752 1.402a.25.25 0 0 0 .345-.03l2.87-3.28a.75.75 0 0 1 1.058-.071Z" fill="#868686"/>
</svg>
