<svg width="24" height="24" fill="none" xmlns="http://www.w3.org/2000/svg">
    <path fill-rule="evenodd" clip-rule="evenodd" d="M11 1.25a2.75 2.75 0 1 0 1.34 5.152l.63.628a.75.75 0 1 0 1.06-1.06l-.628-.63A2.75 2.75 0 0 0 11 1.25ZM9.75 4a1.25 1.25 0 1 1 2.5 0 1.25 1.25 0 0 1-2.5 0Z" fill="#868686"/>
    <path fill-rule="evenodd" clip-rule="evenodd" d="M4.77 19.224a2.75 2.75 0 0 1-1.52-2.46v-6.3L1.665 9.67a.75.75 0 0 1-.289-1.087l2-3a.747.747 0 0 1 .3-.26l1.989-.995a.75.75 0 0 1 .67 1.342l-.658.33L12 9.16l6.323-3.16-.658-.33a.75.75 0 1 1 .67-1.342l1.988.994a.747.747 0 0 1 .301.261l2 3a.75.75 0 0 1-.289 1.087l-1.585.793v6.3a2.75 2.75 0 0 1-1.52 2.46l-6 3a2.75 2.75 0 0 1-2.46 0l-6-3Zm.671-1.342a1.25 1.25 0 0 1-.691-1.118v-5.55l4.915 2.457c.338.17.75.06.959-.255L12 11.352l1.376 2.064a.75.75 0 0 0 .96.255l4.914-2.457v5.55c0 .473-.267.906-.691 1.118l-6 3a1.25 1.25 0 0 1-1.118 0l-6-3ZM3.095 8.709l1.162-1.742 6.648 3.324-1.162 1.742L3.095 8.71Zm10 1.582 1.162 1.742 6.648-3.324-1.162-1.742-6.648 3.324Z" fill="#868686"/>
</svg>
