<svg width="24" height="24" fill="none" xmlns="http://www.w3.org/2000/svg">
    <path fill-rule="evenodd" clip-rule="evenodd" d="m20.308 9.56-2.312 1.076a1.25 1.25 0 0 1-1.04.007l-2.267-1.02v2.204a2.81 2.81 0 0 0 5.62 0V9.56Zm-2.81 3.577a1.31 1.31 0 0 1-1.304-1.192l.147.066a2.75 2.75 0 0 0 2.288-.015l.176-.082a1.31 1.31 0 0 1-1.307 1.223Z" fill="#868686"/>
    <path fill-rule="evenodd" clip-rule="evenodd" d="M17.17 8.574a.77.77 0 0 1 .626 0l2.4 1.067-2.4 1.067a.77.77 0 0 1-.625 0l-2.4-1.067 2.4-1.067Zm1.235-1.37a2.27 2.27 0 0 0-1.844 0l-3.421 1.52c-.795.353-.795 1.48 0 1.834l3.421 1.52a2.27 2.27 0 0 0 1.844 0l3.422-1.52c.794-.353.794-1.48 0-1.834l-3.422-1.52ZM19.384 14.63a1.258 1.258 0 0 0-1.221.314l-.68.665-.68-.665a1.257 1.257 0 0 0-1.22-.315 6.17 6.17 0 0 0-.361.115.75.75 0 0 0 .498 1.415c.044-.016.089-.03.134-.045l.733.716a1.286 1.286 0 0 0 1.793 0l.732-.716c1.254.396 1.81 1.128 1.81 1.697 0 .122-.11.263-.297.263h-3.962a.75.75 0 1 0 0 1.5h3.962c.97 0 1.797-.766 1.797-1.763 0-1.607-1.452-2.73-3.038-3.182Z" fill="#868686"/>
    <path fill-rule="evenodd" clip-rule="evenodd" d="M13.645 9.641a.75.75 0 0 1 .75.75v1.666a.75.75 0 0 1-1.5 0v-1.666a.75.75 0 0 1 .75-.75ZM12.189 7.121 8.905 8.345a1.25 1.25 0 0 1-.873 0L4.748 7.12v2.716a3.72 3.72 0 0 0 7.44 0V7.121Zm-3.72 4.936a2.22 2.22 0 0 1-2.22-2.22v-.556l1.26.47c.619.23 1.3.23 1.92 0l1.26-.47v.556a2.22 2.22 0 0 1-2.22 2.22Z" fill="#868686"/>
    <path fill-rule="evenodd" clip-rule="evenodd" d="M7.868 4.53c.382-.17.819-.17 1.2 0l4.237 1.883L9.07 8.295c-.382.17-.819.17-1.2 0L3.631 6.413 7.868 4.53Zm1.81-1.371a2.978 2.978 0 0 0-2.419 0L2.244 5.388c-.888.395-.888 1.655 0 2.05l5.015 2.228c.77.342 1.649.342 2.419 0l5.015-2.229c.888-.394.888-1.654 0-2.05L9.678 3.16ZM11.16 14.079a1.494 1.494 0 0 0-1.451.375l-1.22 1.192c-.001.002-.007.007-.02.007-.014 0-.02-.005-.022-.007l-1.219-1.192a1.494 1.494 0 0 0-1.45-.375c-2.27.646-4.2 2.209-4.2 4.327 0 1.258 1.047 2.235 2.285 2.235h9.21c1.24 0 2.286-.977 2.286-2.235 0-2.118-1.93-3.681-4.2-4.327Zm-.4 1.446c2.028.58 3.099 1.783 3.099 2.881 0 .383-.328.735-.785.735h-9.21c-.458 0-.786-.352-.786-.735 0-1.098 1.07-2.301 3.1-2.881h.001l1.22 1.194c.591.579 1.548.579 2.14 0l1.219-1.193.002-.001Z" fill="#868686"/>
    <path fill-rule="evenodd" clip-rule="evenodd" d="M3.2 6.53a.75.75 0 0 1 .75.75v3.024a.75.75 0 0 1-1.5 0V7.28a.75.75 0 0 1 .75-.75Z" fill="#868686"/>
</svg>
