<svg width="24" height="24" fill="none" xmlns="http://www.w3.org/2000/svg">
    <path fill-rule="evenodd" clip-rule="evenodd" d="M16.75 12.75h-4V20a2.75 2.75 0 1 1-5.5 0 .75.75 0 0 1 1.5 0 1.25 1.25 0 1 0 2.5 0v-7.25H4c-1.454 0-2.898-1.242-2.47-2.914.585-2.295 2.043-4.43 3.907-5.992C7.301 2.284 9.631 1.25 12 1.25c.825 0 1.535.421 2.102 1.02.288.305.552.668.792 1.077M4 11.25c-.756 0-1.137-.574-1.017-1.043C3.48 8.26 4.74 6.384 6.4 4.995a10.279 10.279 0 0 1 2.706-1.648 9.654 9.654 0 0 0-.63 1.303c-.7 1.748-1.142 4.06-1.215 6.6H4Zm4.761 0h6.478c-.073-2.385-.49-4.501-1.107-6.043-.34-.852-.728-1.492-1.12-1.906-.39-.412-.732-.551-1.012-.551s-.622.139-1.012.551c-.392.414-.78 1.054-1.12 1.906C9.25 6.75 8.834 8.865 8.76 11.25Z" fill="#868686"/>
</svg>
