<svg width="24" height="24" fill="none" xmlns="http://www.w3.org/2000/svg">
    <path fill-rule="evenodd" clip-rule="evenodd" d="M12.147 4.916a7.75 7.75 0 1 0-4.253 14.756.75.75 0 0 0 .212-1.485 6.252 6.252 0 1 1 3.98-11.624 6.284 6.284 0 0 1 2.323 2.303 5.762 5.762 0 0 0-1.434 1.028.75.75 0 0 0 1.05 1.07A4.25 4.25 0 0 1 21.25 14 4.25 4.25 0 0 1 17 18.25a.75.75 0 0 0 0 1.5A5.75 5.75 0 0 0 21.906 11a5.75 5.75 0 0 0-9.76-6.084Zm1.307.74a7.784 7.784 0 0 1 2.393 2.71A5.772 5.772 0 0 1 17 8.25a5.73 5.73 0 0 1 3.874 1.5 4.25 4.25 0 0 0-7.42-4.094Z" fill="#868686"/>
    <path fill-rule="evenodd" clip-rule="evenodd" d="M12.51 16.45 12 17l-.51-.55a.75.75 0 0 1 1.02 0ZM12 18.1c.051.06.104.126.156.193.169.22.325.455.436.681.115.234.158.41.158.526 0 .395-.114.54-.182.6-.088.075-.26.15-.568.15-.308 0-.48-.075-.568-.15-.068-.06-.182-.205-.182-.6 0-.116.043-.292.158-.526.11-.226.267-.46.436-.68.052-.068.105-.133.156-.195Zm-.51-1.65L12 17l.51-.55.002.002.002.001.005.005.016.016.055.053a8.54 8.54 0 0 1 .754.851c.206.267.425.589.595.935.166.338.311.75.311 1.187 0 .71-.222 1.315-.696 1.73-.456.397-1.034.52-1.554.52s-1.098-.123-1.554-.52c-.474-.415-.696-1.02-.696-1.73 0-.436.145-.849.311-1.187a5.64 5.64 0 0 1 .595-.935 8.54 8.54 0 0 1 .754-.85c.023-.024.042-.042.055-.054l.016-.016.005-.005.002-.001.001-.001Z" fill="#868686"/>
</svg>
