<svg width="24" height="24" fill="none" xmlns="http://www.w3.org/2000/svg">
    <path fill-rule="evenodd" clip-rule="evenodd" d="M18 6a2 2 0 0 1 2 2v8a2 2 0 0 1-2 2H4a2 2 0 0 1-2-2V8a2 2 0 0 1 2-2h14Zm-9.89 6.129 4.093-3.998c.318-.31.904-.023.751.368l-.878 2.25c-.095.245.118.497.419.497h1.063c.379 0 .582.381.332.625L9.797 15.87c-.318.31-.904.023-.751-.368l.878-2.25c.095-.245-.118-.497-.419-.497H8.442c-.379 0-.582-.381-.332-.625Z" fill="#868686"/>
    <path d="M22.75 10a.75.75 0 0 0-1.5 0v4a.75.75 0 0 0 1.5 0v-4Z" fill="#868686"/>
</svg>
