<svg width="24" height="24" fill="none" xmlns="http://www.w3.org/2000/svg">
    <path fill-rule="evenodd" clip-rule="evenodd" d="M6 2.75A3.25 3.25 0 0 0 2.75 6v2.25c0 1.742 1.237 3 2.583 3s2.584-1.258 2.584-3a.75.75 0 1 1 1.5 0c0 1.742 1.237 3 2.583 3s2.583-1.258 2.583-3a.75.75 0 0 1 1.5 0c0 1.742 1.238 3 2.584 3s2.583-1.258 2.583-3V6A3.25 3.25 0 0 0 18 2.75H6Zm9.333 8.098c.726 1.136 1.923 1.902 3.334 1.902 2.335 0 4.083-2.1 4.083-4.5V6A4.75 4.75 0 0 0 18 1.25H6A4.75 4.75 0 0 0 1.25 6v2.25c0 2.4 1.748 4.5 4.083 4.5 1.411 0 2.608-.766 3.334-1.902.726 1.136 1.922 1.902 3.333 1.902 1.41 0 2.607-.766 3.333-1.902ZM15.653 17.632a.75.75 0 0 1-.285 1.021c-1.215.686-2.261 1.095-3.365 1.097-1.105.002-2.154-.404-3.374-1.098a.75.75 0 1 1 .742-1.304c1.136.647 1.911.904 2.63.902.718-.001 1.494-.262 2.63-.903a.75.75 0 0 1 1.022.285Z" fill="#868686"/>
    <path fill-rule="evenodd" clip-rule="evenodd" d="M3.75 11v7A3.25 3.25 0 0 0 7 21.25h10A3.25 3.25 0 0 0 20.25 18v-7h1.5v7A4.75 4.75 0 0 1 17 22.75H7A4.75 4.75 0 0 1 2.25 18v-7h1.5Z" fill="#868686"/>
</svg>
