<svg width="24" height="24" fill="none" xmlns="http://www.w3.org/2000/svg">
    <path d="M6 3.25A4.75 4.75 0 0 0 1.25 8v8A4.75 4.75 0 0 0 6 20.75h9a.75.75 0 0 0 0-1.5H6A3.25 3.25 0 0 1 2.75 16V8A3.25 3.25 0 0 1 6 4.75h12A3.25 3.25 0 0 1 21.25 8v3a.75.75 0 0 0 1.5 0V8A4.75 4.75 0 0 0 18 3.25H6Z" fill="#868686"/>
    <path d="M6 7a1 1 0 1 1 0 2 1 1 0 0 1 0-2Z" fill="#868686"/>
    <path fill-rule="evenodd" clip-rule="evenodd" d="M9.25 12a2.75 2.75 0 1 0 5.5 0 2.75 2.75 0 0 0-5.5 0ZM12 13.25a1.25 1.25 0 1 1 0-2.5 1.25 1.25 0 0 1 0 2.5Z" fill="#868686"/>
    <path d="m18.53 17.884.72.72V14a.75.75 0 0 1 1.5 0v4.604l.72-.72a.75.75 0 1 1 1.06 1.06l-1.293 1.293a1.75 1.75 0 0 1-2.474 0l-1.293-1.292a.75.75 0 1 1 1.06-1.061Z" fill="#868686"/>
</svg>
