<svg width="24" height="24" fill="none" xmlns="http://www.w3.org/2000/svg">
    <path fill-rule="evenodd" clip-rule="evenodd" d="M7.539 6.92c-1.56.389-3.356 1.607-4.365 2.369a1.11 1.11 0 0 0-.424.896v9.67c0 .097.053.197.185.262a.38.38 0 0 0 .383-.012c1.049-.705 2.516-1.562 3.932-1.899V9.378h1.5v8.692c1.53.107 2.678.98 3.637 1.71l.067.052c.991.754 1.803 1.347 2.796 1.45V11.21h1.5v9.887c.576-.177 1.192-.459 1.8-.795a19.61 19.61 0 0 0 2.276-1.494c.264-.2.424-.527.424-.897v-9.67c0-.097-.053-.196-.185-.262a.38.38 0 0 0-.383.013c-1.014.681-2.384 1.48-3.715 1.843l-.395-1.447c1.091-.298 2.297-.985 3.273-1.641 1.153-.775 2.905-.023 2.905 1.495v9.67c0 .8-.35 1.586-1.02 2.092a21.113 21.113 0 0 1-2.455 1.612c-.973.537-2.111 1.032-3.192 1.153-1.959.22-3.345-.836-4.47-1.693a62.4 62.4 0 0 0-.067-.05c-1.204-.916-2.143-1.595-3.463-1.447-1.214.136-2.724.961-3.928 1.77-1.153.775-2.905.023-2.905-1.494v-9.67c0-.8.35-1.587 1.02-2.093 1.011-.765 3.022-2.158 4.905-2.628l.364 1.455Z" fill="#868686"/>
    <path fill-rule="evenodd" clip-rule="evenodd" d="M12.462 2.813c-2.376 0-4.25 1.841-4.25 4.05 0 1.138.557 2.799 1.445 4.19.438.687.933 1.269 1.437 1.671.509.406.973.588 1.368.588.395 0 .86-.182 1.368-.588.504-.402.999-.984 1.437-1.67.888-1.392 1.445-3.053 1.445-4.192 0-2.208-1.874-4.05-4.25-4.05Zm-5.75 4.05c0-3.094 2.603-5.55 5.75-5.55 3.146 0 5.75 2.456 5.75 5.55 0 1.512-.694 3.451-1.68 4.997-.5.782-1.098 1.503-1.766 2.036-.663.53-1.45.916-2.304.916-.855 0-1.64-.386-2.304-.916-.668-.533-1.266-1.254-1.766-2.036-.987-1.546-1.68-3.485-1.68-4.997Zm5.75-1.05a.75.75 0 1 0 0 1.5.75.75 0 0 0 0-1.5Zm-2.25.75a2.25 2.25 0 1 1 4.5 0 2.25 2.25 0 0 1-4.5 0Z" fill="#868686"/>
</svg>
