<svg width="24" height="24" fill="none" xmlns="http://www.w3.org/2000/svg">
    <path fill-rule="evenodd" clip-rule="evenodd" d="M1.25 6A4.75 4.75 0 0 1 6 1.25h12A4.75 4.75 0 0 1 22.75 6v12A4.75 4.75 0 0 1 18 22.75h-4.5a.75.75 0 0 1-.75-.75v-7a.75.75 0 0 1 .75-.75h2.75v-1.5H13.5a.75.75 0 0 1-.75-.75v-2c0-.966.784-1.75 1.75-1.75h1.75v-1.5H14.5A3.25 3.25 0 0 0 11.25 10v2a.75.75 0 0 1-.75.75H7.75v1.5h2.75a.75.75 0 0 1 .75.75v7a.75.75 0 0 1-.75.75H6A4.75 4.75 0 0 1 1.25 18V6ZM6 2.75A3.25 3.25 0 0 0 2.75 6v12A3.25 3.25 0 0 0 6 21.25h3.75v-5.5H7a.75.75 0 0 1-.75-.75v-3a.75.75 0 0 1 .75-.75h2.75V10a4.75 4.75 0 0 1 4.75-4.75H17a.75.75 0 0 1 .75.75v3a.75.75 0 0 1-.75.75h-2.5a.25.25 0 0 0-.25.25v1.25H17a.75.75 0 0 1 .75.75v3a.75.75 0 0 1-.75.75h-2.75v5.5H18A3.25 3.25 0 0 0 21.25 18V6A3.25 3.25 0 0 0 18 2.75H6Z" fill="#868686"/>
</svg>
