<svg width="24" height="24" fill="none" xmlns="http://www.w3.org/2000/svg">
    <path fill-rule="evenodd" clip-rule="evenodd" d="M1.25 10.875c0-4.755 3.81-8.625 8.528-8.625h1.11c3.38 0 6.223 2.283 7.121 5.395a8.635 8.635 0 0 1 4.741 7.73v3.375c0 1.648-1.322 3-2.972 3H13.11c-3.046 0-5.657-1.856-6.8-4.5H4.223c-1.65 0-2.972-1.352-2.972-3v-3.375Zm6.736 6.375c1.024 1.797 2.94 3 5.125 3h6.667c.804 0 1.472-.663 1.472-1.5v-3.375a7.146 7.146 0 0 0-2.947-5.801c.002.058.003.117.003.176 0 4.133-3.312 7.5-7.417 7.5H7.986Zm1.792-13.5c-3.873 0-7.028 3.181-7.028 7.125v3.375c0 .837.668 1.5 1.472 1.5h6.667c3.259 0 5.917-2.678 5.917-6 0-.485-.057-.955-.163-1.405-.625-2.642-2.97-4.595-5.754-4.595H9.778Zm.222 3c-.69 0-1.25.56-1.25 1.25a.75.75 0 0 1-1.5 0A2.75 2.75 0 1 1 10 10.75a.75.75 0 0 1 0-1.5 1.25 1.25 0 1 0 0-2.5Z" fill="#868686"/>
    <path d="M11 13a1 1 0 1 1-2 0 1 1 0 0 1 2 0Z" fill="#868686"/>
</svg>
