<svg width="24" height="24" fill="none" xmlns="http://www.w3.org/2000/svg">
    <path fill-rule="evenodd" clip-rule="evenodd" d="M11.25 5.5a2.25 2.25 0 0 1 4.5 0v5a2.25 2.25 0 0 1-4.5 0v-5Zm2.25-.75a.75.75 0 0 0-.75.75v5a.75.75 0 0 0 1.5 0v-5a.75.75 0 0 0-.75-.75ZM20.75 10.5a2.25 2.25 0 0 1-2.25 2.25H17a.75.75 0 0 1-.75-.75v-1.5a2.25 2.25 0 0 1 4.5 0Zm-2.25.75a.75.75 0 1 0-.75-.75v.75h.75ZM17.75 20.5a2.25 2.25 0 0 0-2.25-2.25H14a.75.75 0 0 0-.75.75v1.5a2.25 2.25 0 0 0 4.5 0Zm-2.25-.75a.75.75 0 1 1-.75.75v-.75h.75ZM6.25 5.5A2.25 2.25 0 0 0 8.5 7.75H10a.75.75 0 0 0 .75-.75V5.5a2.25 2.25 0 0 0-4.5 0Zm2.25.75a.75.75 0 1 1 .75-.75v.75H8.5ZM3.25 15.5a2.25 2.25 0 0 1 2.25-2.25H7a.75.75 0 0 1 .75.75v1.5a2.25 2.25 0 0 1-4.5 0Zm2.25-.75a.75.75 0 1 0 .75.75v-.75H5.5ZM8.25 15.5a2.25 2.25 0 0 1 4.5 0v5a2.25 2.25 0 0 1-4.5 0v-5Zm2.25-.75a.75.75 0 0 0-.75.75v5a.75.75 0 0 0 1.5 0v-5a.75.75 0 0 0-.75-.75ZM8.5 8.25a2.25 2.25 0 0 1 0 4.5h-5a2.25 2.25 0 0 1 0-4.5h5Zm.75 2.25a.75.75 0 0 0-.75-.75h-5a.75.75 0 0 0 0 1.5h5a.75.75 0 0 0 .75-.75ZM20.5 13.25a2.25 2.25 0 0 1 0 4.5h-5a2.25 2.25 0 0 1 0-4.5h5Zm.75 2.25a.75.75 0 0 0-.75-.75h-5a.75.75 0 0 0 0 1.5h5a.75.75 0 0 0 .75-.75Z" fill="#868686"/>
</svg>
