<svg width="24" height="24" fill="none" xmlns="http://www.w3.org/2000/svg">
    <path fill-rule="evenodd" clip-rule="evenodd" d="M3.25 6A4.75 4.75 0 0 1 8 1.25 2.75 2.75 0 0 1 10.75 4v4A2.75 2.75 0 0 1 8 10.75c-.084 0-.167-.002-.25-.007V12.5c0 .98-.626 1.813-1.5 2.122v1.15c0 .58.47 1.05 1.05 1.05h.486a2.964 2.964 0 0 1 0 5.928H3a.75.75 0 0 1 0-1.5h4.786a1.464 1.464 0 0 0 0-2.929H7.3a2.55 2.55 0 0 1-2.55-2.55v-1.149a2.251 2.251 0 0 1-1.5-2.122V6ZM8 2.75A3.25 3.25 0 0 0 4.75 6v6.5a.75.75 0 0 0 1.5 0V9.874a.75.75 0 0 1 .937-.726c.259.066.531.102.813.102.69 0 1.25-.56 1.25-1.25V4c0-.69-.56-1.25-1.25-1.25ZM13.25 4A2.75 2.75 0 0 1 16 1.25 4.75 4.75 0 0 1 20.75 6v6.5c0 .98-.626 1.813-1.5 2.122v1.15a2.55 2.55 0 0 1-2.55 2.55h-.486a1.464 1.464 0 0 0 0 2.928H21a.75.75 0 0 1 0 1.5h-4.786a2.964 2.964 0 0 1 0-5.929h.486c.58 0 1.05-.47 1.05-1.05v-1.149a2.251 2.251 0 0 1-1.5-2.122v-1.757a4.822 4.822 0 0 1-.25.007A2.75 2.75 0 0 1 13.25 8V4ZM16 2.75c-.69 0-1.25.56-1.25 1.25v4c0 .69.56 1.25 1.25 1.25.282 0 .554-.036.813-.102a.75.75 0 0 1 .937.726V12.5a.75.75 0 0 0 1.5 0V6A3.25 3.25 0 0 0 16 2.75Z" fill="#868686"/>
</svg>
