<svg width="24" height="24" fill="none" xmlns="http://www.w3.org/2000/svg">
    <path fill-rule="evenodd" clip-rule="evenodd" d="M13 18.25c1.892 0 3.25-1.322 3.25-2.75s-1.358-2.75-3.25-2.75a.75.75 0 0 1 0-1.5c2.526 0 4.75 1.812 4.75 4.25 0 2.438-2.224 4.25-4.75 4.25s-4.75-1.812-4.75-4.25a.75.75 0 0 1 1.5 0c0 1.428 1.358 2.75 3.25 2.75Z" fill="#868686"/>
    <path fill-rule="evenodd" clip-rule="evenodd" d="M3.25 12a.75.75 0 0 1 .75-.75h16a.75.75 0 0 1 0 1.5H4a.75.75 0 0 1-.75-.75Z" fill="#868686"/>
    <path d="M9.75 8.5c0-1.428 1.358-2.75 3.25-2.75s3.25 1.322 3.25 2.75a.75.75 0 0 0 1.5 0c0-2.438-2.224-4.25-4.75-4.25S8.25 6.062 8.25 8.5c0 .632.15 1.223.415 1.75h1.832c-.473-.488-.747-1.109-.747-1.75ZM13.707 11.75H9.94c.84.63 1.92 1 3.061 1a.75.75 0 0 0 .707-1Z" fill="#868686"/>
</svg>
