<svg width="24" height="24" fill="none" xmlns="http://www.w3.org/2000/svg">
    <path d="M10.678 9.75c.604-.615 1.455-1 2.405-1 .938 0 1.782.377 2.387.981a.75.75 0 1 0 1.06-1.06 4.863 4.863 0 0 0-3.447-1.421 4.85 4.85 0 0 0-4.258 2.5H8a.75.75 0 0 0 0 1.5h.31a4.715 4.715 0 0 0 0 1.5H8a.75.75 0 0 0 0 1.5h.825a4.85 4.85 0 0 0 4.258 2.5c1.348 0 2.57-.543 3.447-1.42a.75.75 0 1 0-1.06-1.061 3.363 3.363 0 0 1-2.387.981c-.95 0-1.8-.385-2.405-1H13a.75.75 0 0 0 0-1.5H9.84a3.173 3.173 0 0 1 0-1.5H13a.75.75 0 0 0 0-1.5h-2.322Z" fill="#868686"/>
    <path fill-rule="evenodd" clip-rule="evenodd" d="M12 1.25C6.063 1.25 1.25 6.063 1.25 12S6.063 22.75 12 22.75 22.75 17.937 22.75 12 17.937 1.25 12 1.25ZM2.75 12a9.25 9.25 0 1 1 18.5 0 9.25 9.25 0 0 1-18.5 0Z" fill="#868686"/>
</svg>
