<svg width="24" height="24" fill="none" xmlns="http://www.w3.org/2000/svg">
    <path fill-rule="evenodd" clip-rule="evenodd" d="M1.25 4A2.75 2.75 0 0 1 4 1.25h4A2.75 2.75 0 0 1 10.75 4v2A2.75 2.75 0 0 1 8 8.75H4A2.75 2.75 0 0 1 1.25 6V4ZM4 2.75c-.69 0-1.25.56-1.25 1.25v2c0 .69.56 1.25 1.25 1.25h4c.69 0 1.25-.56 1.25-1.25V4c0-.69-.56-1.25-1.25-1.25H4ZM13.25 4A2.75 2.75 0 0 1 16 1.25h4A2.75 2.75 0 0 1 22.75 4v6A2.75 2.75 0 0 1 20 12.75h-4A2.75 2.75 0 0 1 13.25 10V4ZM16 2.75c-.69 0-1.25.56-1.25 1.25v6c0 .69.56 1.25 1.25 1.25h4c.69 0 1.25-.56 1.25-1.25V4c0-.69-.56-1.25-1.25-1.25h-4ZM1.25 14A2.75 2.75 0 0 1 4 11.25h4A2.75 2.75 0 0 1 10.75 14v6A2.75 2.75 0 0 1 8 22.75H4A2.75 2.75 0 0 1 1.25 20v-6ZM4 12.75c-.69 0-1.25.56-1.25 1.25v6c0 .69.56 1.25 1.25 1.25h4c.69 0 1.25-.56 1.25-1.25v-6c0-.69-.56-1.25-1.25-1.25H4ZM13.25 18A2.75 2.75 0 0 1 16 15.25h4A2.75 2.75 0 0 1 22.75 18v2A2.75 2.75 0 0 1 20 22.75h-4A2.75 2.75 0 0 1 13.25 20v-2ZM16 16.75c-.69 0-1.25.56-1.25 1.25v2c0 .69.56 1.25 1.25 1.25h4c.69 0 1.25-.56 1.25-1.25v-2c0-.69-.56-1.25-1.25-1.25h-4Z" fill="#868686"/>
</svg>
