<svg width="24" height="24" fill="none" xmlns="http://www.w3.org/2000/svg">
    <path fill-rule="evenodd" clip-rule="evenodd" d="M2.836 9.25h18.328c-.331-1.412-1.587-2.5-3.129-2.5H5.965c-1.542 0-2.797 1.088-3.129 2.5Zm18.327 1.5H2.837l1.616 7.908A3.222 3.222 0 0 0 7.6 21.25h8.8a3.222 3.222 0 0 0 3.147-2.592l1.616-7.908Zm-19.815.208C.748 8.02 2.971 5.25 5.965 5.25h12.07c2.994 0 5.217 2.77 4.617 5.708l-1.635 8c-.45 2.203-2.375 3.792-4.617 3.792H7.6c-2.241 0-4.166-1.589-4.617-3.792l-1.635-8Z" fill="#868686"/>
    <path fill-rule="evenodd" clip-rule="evenodd" d="M17.586 1.532a.75.75 0 0 1-.117 1.054l-5 4a.75.75 0 1 1-.938-1.172l5-4a.75.75 0 0 1 1.055.118ZM9 13.25a.75.75 0 0 1 .75.75v4a.75.75 0 0 1-1.5 0v-4a.75.75 0 0 1 .75-.75ZM15 13.25a.75.75 0 0 1 .75.75v4a.75.75 0 0 1-1.5 0v-4a.75.75 0 0 1 .75-.75Z" fill="#868686"/>
</svg>
