<svg width="24" height="24" fill="none" xmlns="http://www.w3.org/2000/svg">
    <path d="M14 12a2 2 0 1 1-4 0 2 2 0 0 1 4 0Z" fill="#868686"/>
    <path fill-rule="evenodd" clip-rule="evenodd" d="M12 2.75A9.25 9.25 0 1 0 21.25 12a9.213 9.213 0 0 0-2.2-5.989l-1.776 1.776a6.75 6.75 0 1 1-1.06-1.06l1.775-1.777A9.213 9.213 0 0 0 12 2.75Zm7.053 1.137A10.709 10.709 0 0 0 12 1.25C6.063 1.25 1.25 6.063 1.25 12S6.063 22.75 12 22.75 22.75 17.937 22.75 12c0-2.699-.994-5.165-2.637-7.053L22.53 2.53a.75.75 0 0 0-1.06-1.06l-2.417 2.417Zm-3.909 3.908a5.25 5.25 0 1 0 1.06 1.06L12.53 12.53a.75.75 0 1 1-1.06-1.06l3.674-3.675Z" fill="#868686"/>
</svg>
