<svg width="24" height="24" fill="none" xmlns="http://www.w3.org/2000/svg">
    <path fill-rule="evenodd" clip-rule="evenodd" d="M22 18V8.403c0-.22-.018-.438-.054-.653H2.054A4 4 0 0 0 2 8.403V18a4 4 0 0 0 4 4h12a4 4 0 0 0 4-4Zm-10.75-2.249-.72-.724a.747.747 0 0 0-1.06 0 .758.758 0 0 0 0 1.067l1.293 1.301a1.742 1.742 0 0 0 2.474 0l1.293-1.3a.758.758 0 0 0 0-1.068.747.747 0 0 0-1.06 0l-.72.724v-4.418a.752.752 0 0 0-.75-.755.752.752 0 0 0-.75.755v4.418Z" fill="#868686"/>
    <path d="M2.629 6.25H21.37a4.02 4.02 0 0 0-.247-.346L19.2 3.501A4 4 0 0 0 16.078 2H7.923a4 4 0 0 0-3.124 1.501L2.877 5.904a4.003 4.003 0 0 0-.248.346Z" fill="#868686"/>
</svg>
