<svg width="24" height="24" fill="none" xmlns="http://www.w3.org/2000/svg">
    <path d="m10.2 3.401 1-1.333a1 1 0 0 1 1.6 0l1 1.333a1 1 0 0 1-.8 1.6h-.25v5.96l4.329-1.443a.25.25 0 0 0 .171-.238V7.3a1.5 1.5 0 1 1 1.5 0v1.98a1.75 1.75 0 0 1-1.197 1.66l-4.803 1.602v1.44a.81.81 0 0 1 0 .038v3.981a.753.753 0 0 1-.013.14 2 2 0 1 1-1.474 0 .753.753 0 0 1-.013-.14v-3.46l-4.803-1.6a1.75 1.75 0 0 1-1.197-1.66V9.47A1 1 0 0 1 4.5 8.5v-1a1 1 0 0 1 1-1h1a1 1 0 0 1 1 1v1a1 1 0 0 1-.75.969v1.81a.25.25 0 0 0 .171.238l4.329 1.443V5.002H11a1 1 0 0 1-.8-1.6Z" fill="#868686"/>
</svg>
