<svg width="24" height="24" fill="none" xmlns="http://www.w3.org/2000/svg">
    <path fill-rule="evenodd" clip-rule="evenodd" d="M18.188 4.537a1.09 1.09 0 0 0-1.334-.75L9.76 5.657a1.054 1.054 0 0 0-.765 1.292l1.9 6.981a1.09 1.09 0 0 0 1.334.75l7.094-1.87c.586-.155.916-.74.766-1.292l-1.901-6.981Zm-1.716-2.2c1.368-.361 2.79.435 3.163 1.806l1.9 6.981c.375 1.376-.457 2.774-1.83 3.136l-7.093 1.87c-1.369.361-2.79-.435-3.164-1.805l-1.9-6.982c-.375-1.376.457-2.774 1.83-3.136l7.094-1.87ZM2.696 4.099c1.368-.36 2.79.435 3.163 1.806l2.922 10.731a2.598 2.598 0 0 1 2.113 1.202l10.915-2.878a.75.75 0 1 1 .382 1.45l-10.906 2.876a2.566 2.566 0 0 1-1.92 2.377c-1.367.361-2.79-.435-3.163-1.806a2.544 2.544 0 0 1 1.13-2.835L4.411 6.3a1.09 1.09 0 0 0-1.334-.75l-.887.234a.75.75 0 0 1-.382-1.45l.887-.234ZM15.44 6.19a.75.75 0 0 1-.534.917l-1.774.467a.75.75 0 0 1-.382-1.45l1.773-.468a.75.75 0 0 1 .917.534ZM9.749 18.922a1.09 1.09 0 0 0-1.334-.75 1.054 1.054 0 0 0-.765 1.291 1.09 1.09 0 0 0 1.333.75c.587-.155.917-.739.766-1.291Z" fill="#868686"/>
</svg>
