<svg width="24" height="24" fill="none" xmlns="http://www.w3.org/2000/svg">
    <path fill-rule="evenodd" clip-rule="evenodd" d="M18 11.25a.75.75 0 0 1 .75.75v4a.75.75 0 0 1-1.5 0v-4a.75.75 0 0 1 .75-.75ZM18 18.25a.75.75 0 0 1 .75.75v1a.75.75 0 0 1-1.5 0v-1a.75.75 0 0 1 .75-.75Z" fill="#868686"/>
    <path fill-rule="evenodd" clip-rule="evenodd" d="M16.932 3.967c1.822-1.578 4.819-.385 4.819 2.1v6.87a.75.75 0 1 1-1.5 0v-6.87c0-1.087-1.4-1.778-2.337-.967L4.206 16.97c-.887.769-.393 2.28.943 2.28h9.708a.75.75 0 0 1 0 1.5H5.149c-2.594 0-3.96-3.151-1.925-4.913l13.708-11.87Z" fill="#868686"/>
</svg>
