<svg width="24" height="24" fill="none" xmlns="http://www.w3.org/2000/svg">
    <path fill-rule="evenodd" clip-rule="evenodd" d="M10.07 3.75a1.25 1.25 0 0 0-1.04.557l-.629.943H15.6l-.63-.943a1.25 1.25 0 0 0-1.04-.557H10.07Zm7.331 1.5-1.183-1.775A2.75 2.75 0 0 0 13.93 2.25h-3.86c-.92 0-1.778.46-2.288 1.225L6.6 5.25H6A4.75 4.75 0 0 0 1.25 10v7A4.75 4.75 0 0 0 6 21.75h12A4.75 4.75 0 0 0 22.75 17v-7A4.75 4.75 0 0 0 18 5.25h-.599Zm-.411 1.5H18A3.25 3.25 0 0 1 21.25 10v7A3.25 3.25 0 0 1 18 20.25H6A3.25 3.25 0 0 1 2.75 17v-7A3.25 3.25 0 0 1 6 6.75h10.99ZM12 11.25a2.25 2.25 0 1 0 0 4.5 2.25 2.25 0 0 0 0-4.5ZM8.25 13.5a3.75 3.75 0 1 1 7.5 0 3.75 3.75 0 0 1-7.5 0Z" fill="#868686"/>
</svg>
