<svg width="24" height="24" fill="none" xmlns="http://www.w3.org/2000/svg">
    <path fill-rule="evenodd" clip-rule="evenodd" d="M1.25 12c0-5.385 4.365-9.75 9.75-9.75h2c5.385 0 9.75 4.365 9.75 9.75s-4.365 9.75-9.75 9.75H6A4.75 4.75 0 0 1 1.25 17v-5ZM11 3.75A8.25 8.25 0 0 0 2.75 12v5A3.25 3.25 0 0 0 6 20.25h7a8.25 8.25 0 1 0 0-16.5h-2Zm1 5c-.69 0-1.25.56-1.25 1.25v.25h2.5V10c0-.69-.56-1.25-1.25-1.25Zm2.75 1.604V10a2.75 2.75 0 1 0-5.5 0v.354a2.751 2.751 0 0 0-2 2.646v1A2.75 2.75 0 0 0 10 16.75h4A2.75 2.75 0 0 0 16.75 14v-1c0-1.259-.846-2.32-2-2.646ZM10 11.75c-.69 0-1.25.56-1.25 1.25v1c0 .69.56 1.25 1.25 1.25h4c.69 0 1.25-.56 1.25-1.25v-1c0-.69-.56-1.25-1.25-1.25h-4Z" fill="#868686"/>
</svg>
