<svg width="24" height="24" fill="none" xmlns="http://www.w3.org/2000/svg">
    <path fill-rule="evenodd" clip-rule="evenodd" d="M9.99 1.25H6A4.75 4.75 0 0 0 1.25 6v12A4.75 4.75 0 0 0 6 22.75h12A4.75 4.75 0 0 0 22.75 18V6A4.75 4.75 0 0 0 18 1.25H9.99Zm-1.391 1.5H6A3.25 3.25 0 0 0 2.75 6v1.25h2.849l3-4.5ZM7.4 7.25l3-4.5H16.6l-3 4.5H7.4Zm-1.413 1.5H21.25V18A3.25 3.25 0 0 1 18 21.25H6A3.25 3.25 0 0 1 2.75 18V8.75h3.238Zm15.262-1.5V6a3.25 3.25 0 0 0-2.864-3.227L15.401 7.25h5.849ZM11.182 13.11a1.045 1.045 0 0 0-1.577 0c-.473.512-.473 1.364 0 1.876l1.874 2.026a.687.687 0 0 0 1.042 0l1.874-2.026c.473-.512.473-1.364 0-1.876a1.045 1.045 0 0 0-1.577 0l-.267.29a.75.75 0 0 1-1.102 0l-.267-.29ZM12 11.825c-1.043-.847-2.55-.758-3.496.265-1.005 1.087-1.005 2.827 0 3.913l1.874 2.027c.889.96 2.355.96 3.244 0l1.874-2.027c1.005-1.086 1.005-2.826 0-3.913-.947-1.023-2.453-1.112-3.496-.265Z" fill="#868686"/>
</svg>
