<svg width="24" height="24" fill="none" xmlns="http://www.w3.org/2000/svg">
    <path fill-rule="evenodd" clip-rule="evenodd" d="M15 1.25a.75.75 0 0 1 .75.75v1a.75.75 0 0 1-1.5 0V2a.75.75 0 0 1 .75-.75Zm5.48 2.27a.75.75 0 0 1 0 1.06l-.707.708a.75.75 0 0 1-1.06-1.061l.706-.707a.75.75 0 0 1 1.061 0Zm-7.424 2.875a7.783 7.783 0 0 1 2.79 2.97 5.772 5.772 0 0 1 2.382.017 3.25 3.25 0 0 0-5.172-2.987Zm6.608 3.508a4.75 4.75 0 0 0-8.074-4.21 7.75 7.75 0 0 0-5.912 14.31.75.75 0 1 0 .644-1.354 6.25 6.25 0 1 1 8.427-8.105.75.75 0 0 0 .924.417A4.244 4.244 0 0 1 17 10.75c.533 0 1.041.098 1.51.275A4.252 4.252 0 0 1 17 19.25a.75.75 0 0 0 0 1.5 5.75 5.75 0 0 0 2.664-10.847ZM20.25 9a.75.75 0 0 1 .75-.75h1a.75.75 0 0 1 0 1.5h-1a.75.75 0 0 1-.75-.75Zm-6.995 2.295a.75.75 0 0 1 .495.705v3.25H16a.75.75 0 0 1 .576 1.23l-5 6A.75.75 0 0 1 10.25 22v-3.25H8a.75.75 0 0 1-.576-1.23l5-6a.75.75 0 0 1 .831-.225ZM9.601 17.25H11a.75.75 0 0 1 .75.75v1.928l2.649-3.178H13a.75.75 0 0 1-.75-.75v-1.928L9.601 17.25Z" fill="#868686"/>
</svg>
