<svg width="24" height="24" fill="none" xmlns="http://www.w3.org/2000/svg">
    <path fill-rule="evenodd" clip-rule="evenodd" d="M6.924 1.435a.75.75 0 0 1 0 1.06 9.25 9.25 0 1 0 13.082 13.082.75.75 0 0 1 1.06 1.06 10.75 10.75 0 0 1-6.851 3.123v1.526h2.25a.75.75 0 0 1 0 1.5h-6a.75.75 0 0 1 0-1.5h2.25V19.76A10.75 10.75 0 0 1 5.863 1.435a.75.75 0 0 1 1.061 0Zm6.541 1.35a6.25 6.25 0 1 0 0 12.5 6.25 6.25 0 0 0 0-12.5Zm-7.75 6.25a7.75 7.75 0 1 1 15.5 0 7.75 7.75 0 0 1-15.5 0Z" fill="#868686"/>
</svg>
