<svg width="24" height="24" fill="none" xmlns="http://www.w3.org/2000/svg">
    <path fill-rule="evenodd" clip-rule="evenodd" d="M4.177 5.263a1.75 1.75 0 0 1 1.237-.513H17c.966 0 1.75.784 1.75 1.75v4A1.75 1.75 0 0 1 17 12.25H5.414a1.75 1.75 0 0 1-1.237-.513l-2-2a1.75 1.75 0 0 1 0-2.474l2-2Zm1.237.987a.25.25 0 0 0-.177.073l-2 2a.25.25 0 0 0 0 .354l2 2a.25.25 0 0 0 .177.073H17a.25.25 0 0 0 .25-.25v-4a.25.25 0 0 0-.25-.25H5.414ZM19.823 20.737a1.75 1.75 0 0 1-1.237.513H7a1.75 1.75 0 0 1-1.75-1.75v-4c0-.966.784-1.75 1.75-1.75h11.586c.464 0 .91.184 1.237.513l2 2a1.75 1.75 0 0 1 0 2.474l-2 2Zm-1.237-.987a.25.25 0 0 0 .177-.073l2-2a.25.25 0 0 0 0-.354l-2-2a.25.25 0 0 0-.177-.073H7a.25.25 0 0 0-.25.25v4c0 .138.112.25.25.25h11.586Z" fill="#868686"/>
    <path fill-rule="evenodd" clip-rule="evenodd" d="M9.75 4c0-.966.784-1.75 1.75-1.75h1c.966 0 1.75.784 1.75 1.75v1.5h-1.5V4a.25.25 0 0 0-.25-.25h-1a.25.25 0 0 0-.25.25v1.5h-1.5V4Zm1.5 7.5v3h-1.5v-3h1.5Zm1.5 3v-3h1.5v3h-1.5Zm-1.5 6V22c0 .138.112.25.25.25h1a.25.25 0 0 0 .25-.25v-1.5h1.5V22a1.75 1.75 0 0 1-1.75 1.75h-1A1.75 1.75 0 0 1 9.75 22v-1.5h1.5Z" fill="#868686"/>
</svg>
