<svg width="24" height="24" fill="none" xmlns="http://www.w3.org/2000/svg">
    <path fill-rule="evenodd" clip-rule="evenodd" d="M15.712 3.286a3.537 3.537 0 0 1 5.002 5.002L9.26 19.743a4.702 4.702 0 0 1-2.446 1.295l-3.673.699a.75.75 0 0 1-.877-.877l.7-3.673a4.702 4.702 0 0 1 1.294-2.446L15.712 3.286Zm3.941 1.06a2.037 2.037 0 0 0-2.88 0l-1.405 1.406 2.88 2.88 1.405-1.405a2.037 2.037 0 0 0 0-2.88Zm-2.465 5.347-2.881-2.88-8.99 8.99a3.202 3.202 0 0 0-.881 1.665l-.493 2.589 2.59-.493a3.202 3.202 0 0 0 1.665-.881l8.99-8.99Z" fill="#868686"/>
</svg>
