<svg width="24" height="24" fill="none" xmlns="http://www.w3.org/2000/svg">
    <path fill-rule="evenodd" clip-rule="evenodd" d="M5 2.75A2.25 2.25 0 0 0 2.75 5v13a3.25 3.25 0 0 0 6.4.805C9.342 18.05 10 17.25 11 17.25h6.25V5A2.25 2.25 0 0 0 15 2.75H5Zm13.75 14.5V5A3.75 3.75 0 0 0 15 1.25H5A3.75 3.75 0 0 0 1.25 5v13A4.75 4.75 0 0 0 6 22.75h12c2.219 0 4.08-1.52 4.603-3.575.29-1.14-.706-1.925-1.603-1.925h-2.25Zm-9.286 4H18a3.252 3.252 0 0 0 3.15-2.443l-.004-.003A.205.205 0 0 0 21 18.75H11c-.06 0-.13.022-.208.094a.691.691 0 0 0-.189.33c-.2.79-.599 1.5-1.139 2.076Zm.536-15a.75.75 0 0 1 .75.75v4.172a1.27 1.27 0 0 0 .134-.117L12.47 9.47a.75.75 0 1 1 1.06 1.06l-1.585 1.586a2.75 2.75 0 0 1-3.89 0L6.47 10.53a.75.75 0 1 1 1.06-1.06l1.586 1.585c.043.043.087.082.134.117V7a.75.75 0 0 1 .75-.75Z" fill="#868686"/>
</svg>
