<svg width="24" height="24" fill="none" xmlns="http://www.w3.org/2000/svg">
    <path fill-rule="evenodd" clip-rule="evenodd" d="M18 1.25A4.75 4.75 0 0 1 22.75 6v12A4.75 4.75 0 0 1 18 22.75H6A4.75 4.75 0 0 1 1.25 18V6A4.75 4.75 0 0 1 6 1.25h12ZM21.25 6A3.25 3.25 0 0 0 18 2.75H6A3.25 3.25 0 0 0 2.75 6v12A3.25 3.25 0 0 0 6 21.25h12A3.25 3.25 0 0 0 21.25 18V6Z" fill="#868686"/>
    <path fill-rule="evenodd" clip-rule="evenodd" d="M22 12.75H2v-1.5h20v1.5ZM18 5.25a.75.75 0 0 1 .75.75v2a.75.75 0 0 1-1.5 0V6a.75.75 0 0 1 .75-.75ZM14 5.25a.75.75 0 0 1 .75.75v2a.75.75 0 0 1-1.5 0V6a.75.75 0 0 1 .75-.75ZM18 15.25a.75.75 0 0 1 .75.75v2a.75.75 0 0 1-1.5 0v-2a.75.75 0 0 1 .75-.75ZM14 15.25a.75.75 0 0 1 .75.75v2a.75.75 0 0 1-1.5 0v-2a.75.75 0 0 1 .75-.75Z" fill="#868686"/>
</svg>
