<svg width="24" height="24" fill="none" xmlns="http://www.w3.org/2000/svg">
    <path fill-rule="evenodd" clip-rule="evenodd" d="M1.25 6A4.75 4.75 0 0 1 6 1.25h12A4.75 4.75 0 0 1 22.75 6v12A4.75 4.75 0 0 1 18 22.75H6A4.75 4.75 0 0 1 1.25 18V6ZM6 2.75A3.25 3.25 0 0 0 2.75 6v12A3.25 3.25 0 0 0 6 21.25h12A3.25 3.25 0 0 0 21.25 18V6A3.25 3.25 0 0 0 18 2.75H6Zm6 3.5a.75.75 0 0 1 .75.75v10a.75.75 0 0 1-1.5 0V7a.75.75 0 0 1 .75-.75Zm-5 2a.75.75 0 0 1 .75.75v6a.75.75 0 0 1-1.5 0V9A.75.75 0 0 1 7 8.25Zm10 0a.75.75 0 0 1 .75.75v6a.75.75 0 0 1-1.5 0V9a.75.75 0 0 1 .75-.75Z" fill="#868686"/>
</svg>
