<svg width="24" height="24" fill="none" xmlns="http://www.w3.org/2000/svg">
    <path fill-rule="evenodd" clip-rule="evenodd" d="M12 16.75c-1.603 0-3.14.639-4.51 1.819a.75.75 0 0 1-.98-1.138C8.103 16.062 9.976 15.25 12 15.25c2.025 0 3.898.812 5.49 2.181a.75.75 0 0 1-.98 1.138c-1.37-1.18-2.907-1.819-4.51-1.819ZM12 12.25a2.25 2.25 0 1 1 0-4.5 2.25 2.25 0 0 1 0 4.5ZM8.25 10a3.75 3.75 0 1 0 7.5 0 3.75 3.75 0 0 0-7.5 0Z" fill="#868686"/>
    <path fill-rule="evenodd" clip-rule="evenodd" d="M1.25 6A4.75 4.75 0 0 1 6 1.25h12A4.75 4.75 0 0 1 22.75 6v12A4.75 4.75 0 0 1 18 22.75H6A4.75 4.75 0 0 1 1.25 18V6ZM6 2.75A3.25 3.25 0 0 0 2.75 6v12A3.25 3.25 0 0 0 6 21.25h12A3.25 3.25 0 0 0 21.25 18V6A3.25 3.25 0 0 0 18 2.75H6Z" fill="#868686"/>
</svg>
