<svg width="24" height="24" fill="none" xmlns="http://www.w3.org/2000/svg">
    <path fill-rule="evenodd" clip-rule="evenodd" d="M9.45 1.4a.75.75 0 0 1 .15 1.05l-3 4a.75.75 0 1 1-1.2-.9l3-4a.75.75 0 0 1 1.05-.15ZM14.55 1.4a.75.75 0 0 1 1.05.15l3 4a.75.75 0 1 1-1.2.9l-3-4a.75.75 0 0 1 .15-1.05Z" fill="#868686"/>
    <path fill-rule="evenodd" clip-rule="evenodd" d="M2.836 9.25h18.328c-.331-1.412-1.587-2.5-3.129-2.5H5.965c-1.542 0-2.797 1.088-3.129 2.5Zm18.327 1.5H2.837l1.616 7.908A3.222 3.222 0 0 0 7.6 21.25h8.8a3.222 3.222 0 0 0 3.147-2.592l1.616-7.908Zm-19.815.208C.748 8.02 2.971 5.25 5.965 5.25h12.07c2.994 0 5.217 2.77 4.617 5.708l-1.635 8c-.45 2.203-2.375 3.792-4.617 3.792H7.6c-2.241 0-4.166-1.589-4.617-3.792l-1.635-8Z" fill="#868686"/>
    <path fill-rule="evenodd" clip-rule="evenodd" d="M12 12.972a2.626 2.626 0 0 1 3.446 3.945l-1.856 1.856a2.25 2.25 0 0 1-3.182 0l-1.856-1.856A2.625 2.625 0 0 1 12 12.972Zm2.386 1.293a1.125 1.125 0 0 0-1.591 0l-.265.265a.75.75 0 0 1-1.061 0l-.265-.265a1.125 1.125 0 1 0-1.591 1.591l1.856 1.856a.75.75 0 0 0 1.06 0l1.857-1.856c.439-.44.439-1.152 0-1.59Z" fill="#868686"/>
</svg>
