<svg width="24" height="24" fill="none" xmlns="http://www.w3.org/2000/svg">
    <path fill-rule="evenodd" clip-rule="evenodd" d="M17.25 12a.75.75 0 0 1 .75-.75h4a.75.75 0 0 1 0 1.5h-4a.75.75 0 0 1-.75-.75Z" fill="#868686"/>
    <path fill-rule="evenodd" clip-rule="evenodd" d="M20 14.75a.75.75 0 0 1-.75-.75v-4a.75.75 0 0 1 1.5 0v4a.75.75 0 0 1-.75.75ZM8.5 6.25a5.75 5.75 0 1 0 5.701 6.5H8.5a.75.75 0 0 1 0-1.5H15a.75.75 0 0 1 .75.75 7.25 7.25 0 1 1-2.123-5.127.75.75 0 0 1-1.061 1.061A5.73 5.73 0 0 0 8.5 6.25Z" fill="#868686"/>
</svg>
