<svg width="24" height="24" fill="none" xmlns="http://www.w3.org/2000/svg">
    <path fill-rule="evenodd" clip-rule="evenodd" d="M12 3.75c-2.795 0-5.621 1.038-8.23 3.168-.428.35-.513 1.018-.13 1.534l7.356 9.932c.5.675 1.51.675 2.009 0l7.357-9.932c.382-.516.297-1.184-.132-1.534C17.622 4.788 14.796 3.75 12 3.75Zm0-1.5c3.185 0 6.34 1.187 9.18 3.506 1.116.912 1.193 2.501.387 3.589l-7.357 9.932a2.75 2.75 0 0 1-4.42 0L2.435 9.345c-.806-1.088-.729-2.677.388-3.589C5.662 3.436 8.816 2.25 12 2.25Z" fill="#868686"/>
</svg>
