<svg width="24" height="24" fill="none" xmlns="http://www.w3.org/2000/svg">
    <path fill-rule="evenodd" clip-rule="evenodd" d="M1.25 6A4.75 4.75 0 0 1 6 1.25h8c2.386 0 4.36 1.76 4.699 4.051A4.751 4.751 0 0 1 22.75 10v8A4.75 4.75 0 0 1 18 22.75h-8a4.751 4.751 0 0 1-4.699-4.051A4.751 4.751 0 0 1 1.25 14V6Zm5.587 12.75A3.251 3.251 0 0 0 10 21.25h8A3.25 3.25 0 0 0 21.25 18v-8a3.251 3.251 0 0 0-2.5-3.163V14A4.75 4.75 0 0 1 14 18.75H6.837ZM6 2.75A3.25 3.25 0 0 0 2.75 6v8A3.25 3.25 0 0 0 6 17.25h8A3.25 3.25 0 0 0 17.25 14V6A3.25 3.25 0 0 0 14 2.75H6ZM9.25 5a.75.75 0 0 1 .75-.75A5.75 5.75 0 0 1 15.75 10a.75.75 0 0 1-1.5 0c0-2.091-1.51-3.83-3.5-4.184V12.5a3.25 3.25 0 1 1-1.5-2.74V5Zm0 7.5a1.75 1.75 0 1 0-3.5 0 1.75 1.75 0 0 0 3.5 0Z" fill="#868686"/>
</svg>
