<svg width="24" height="24" fill="none" xmlns="http://www.w3.org/2000/svg">
    <path fill-rule="evenodd" clip-rule="evenodd" d="M10.77 1.777a2.75 2.75 0 0 1 2.46 0l7.317 3.658c1.29.645 1.29 2.486 0 3.13l-7.317 3.659a2.75 2.75 0 0 1-2.46 0L3.454 8.566c-1.29-.645-1.29-2.486 0-3.131l7.316-3.658Zm1.79 1.341a1.25 1.25 0 0 0-1.119 0L4.124 6.777a.25.25 0 0 0 0 .447l7.317 3.658a1.25 1.25 0 0 0 1.118 0l7.317-3.658a.25.25 0 0 0 0-.447l-7.317-3.659ZM2.314 12.696a.75.75 0 0 1 .99-.381l8.188 3.639a1.25 1.25 0 0 0 1.015 0l8.188-3.64a.75.75 0 1 1 .609 1.372l-8.188 3.639a2.75 2.75 0 0 1-2.234 0l-8.187-3.64a.75.75 0 0 1-.381-.99Zm0 5a.75.75 0 0 1 .99-.381l8.188 3.639a1.25 1.25 0 0 0 1.015 0l8.188-3.64a.75.75 0 1 1 .609 1.372l-8.188 3.639a2.75 2.75 0 0 1-2.234 0l-8.187-3.64a.75.75 0 0 1-.381-.99Z" fill="#868686"/>
</svg>
