<svg width="24" height="24" fill="none" xmlns="http://www.w3.org/2000/svg">
    <path fill-rule="evenodd" clip-rule="evenodd" d="M20 14.75a1.25 1.25 0 1 0 0 2.5 1.25 1.25 0 0 0 0-2.5ZM17.25 16a2.75 2.75 0 1 1 5.5 0 2.75 2.75 0 0 1-5.5 0ZM1.25 5A2.75 2.75 0 0 1 4 2.25a.75.75 0 0 1 0 1.5c-.69 0-1.25.56-1.25 1.25v3a4.25 4.25 0 0 0 8.5 0V5c0-.69-.56-1.25-1.25-1.25a.75.75 0 0 1 0-1.5A2.75 2.75 0 0 1 12.75 5v3a5.75 5.75 0 0 1-11.5 0V5Z" fill="#868686"/>
    <path fill-rule="evenodd" clip-rule="evenodd" d="M17.25 10.75a2 2 0 0 0-2 2v5.5a4.5 4.5 0 1 1-9 0V13a.75.75 0 0 1 1.5 0v5.25a3 3 0 1 0 6 0v-5.5a3.5 3.5 0 1 1 7 0V14a.75.75 0 0 1-1.5 0v-1.25a2 2 0 0 0-2-2ZM10 1.25a.75.75 0 0 1 .75.75v2a.75.75 0 0 1-1.5 0V2a.75.75 0 0 1 .75-.75ZM4 1.25a.75.75 0 0 1 .75.75v2a.75.75 0 0 1-1.5 0V2A.75.75 0 0 1 4 1.25Z" fill="#868686"/>
</svg>
