<svg width="24" height="24" fill="none" xmlns="http://www.w3.org/2000/svg">
    <path fill-rule="evenodd" clip-rule="evenodd" d="M14.136 1.46c-1.651-.333-2.886 1.07-2.886 2.537v6a2.75 2.75 0 0 0 2.75 2.75h6c1.467 0 2.87-1.235 2.538-2.885a10.762 10.762 0 0 0-8.402-8.402ZM12.75 3.997c0-.742.574-1.17 1.089-1.067a9.262 9.262 0 0 1 7.228 7.228c.104.516-.325 1.09-1.067 1.09h-6c-.69 0-1.25-.56-1.25-1.25v-6Z" fill="#868686"/>
    <path d="M9.166 4.953a.75.75 0 0 0-.332-1.463c-4.342.985-7.584 4.867-7.584 9.508 0 5.385 4.365 9.75 9.75 9.75 4.641 0 8.523-3.242 9.508-7.584a.75.75 0 0 0-1.462-.332 8.25 8.25 0 1 1-9.88-9.88Z" fill="#868686"/>
</svg>
