<svg width="24" height="24" fill="none" xmlns="http://www.w3.org/2000/svg">
    <path fill-rule="evenodd" clip-rule="evenodd" d="M6 15.75a2.25 2.25 0 1 0 0 4.5 2.25 2.25 0 0 0 0-4.5ZM2.25 18a3.75 3.75 0 1 1 7.5 0 3.75 3.75 0 0 1-7.5 0ZM2.47 2.47a.75.75 0 0 1 1.06 0l18 18a.75.75 0 1 1-1.06 1.06l-18-18a.75.75 0 0 1 0-1.06Z" fill="#868686"/>
    <path fill-rule="evenodd" clip-rule="evenodd" d="M15.979 2.45c1.806-.723 3.771.607 3.771 2.553V15a.75.75 0 0 1-1.5 0v-4.998a1.25 1.25 0 0 0-1.714-1.16l-2.938 1.174a.75.75 0 1 1-.557-1.393L15.98 7.45c.785-.314 1.6-.24 2.271.104v-2.55a1.25 1.25 0 0 0-1.714-1.16l-4.743 1.896a3.244 3.244 0 0 0-1.188.82.75.75 0 0 1-1.106-1.013 4.744 4.744 0 0 1 1.737-1.2l4.743-1.897ZM9 8.25a.75.75 0 0 1 .75.75v9.049a.75.75 0 1 1-1.5 0V9A.75.75 0 0 1 9 8.25Zm5.439 5.13a.75.75 0 0 1-.012 1.06 2.25 2.25 0 1 0 3.182 3.182.75.75 0 0 1 1.072 1.048 3.75 3.75 0 1 1-5.303-5.303.75.75 0 0 1 1.061.012Z" fill="#868686"/>
</svg>
