<svg width="24" height="24" fill="none" xmlns="http://www.w3.org/2000/svg">
    <path fill-rule="evenodd" clip-rule="evenodd" d="M22.75 6A4.75 4.75 0 0 0 18 1.25h-6a4.751 4.751 0 0 0-4.691 4H6A4.75 4.75 0 0 0 1.25 10v8A4.75 4.75 0 0 0 6 22.75h12A4.75 4.75 0 0 0 22.75 18V6Zm-20 10.75V18A3.25 3.25 0 0 0 6 21.25h12A3.25 3.25 0 0 0 21.25 18V6.75H6A3.25 3.25 0 0 0 2.75 10v1.25H6a2.75 2.75 0 1 1 0 5.5H2.75Zm0-4v2.5H6a1.25 1.25 0 1 0 0-2.5H2.75Zm18.413-7.5H8.837A3.251 3.251 0 0 1 12 2.75h6a3.251 3.251 0 0 1 3.163 2.5Z" fill="#868686"/>
</svg>
