<svg width="24" height="24" fill="none" xmlns="http://www.w3.org/2000/svg">
    <path fill-rule="evenodd" clip-rule="evenodd" d="M2.25 6A4.75 4.75 0 0 1 7 1.25h10A4.75 4.75 0 0 1 21.75 6v8A4.75 4.75 0 0 1 17 18.75H5a1.25 1.25 0 1 0 0 2.5h16a.75.75 0 0 1 0 1.5H5A2.75 2.75 0 0 1 2.25 20V6Zm1.5 11.55c.375-.192.8-.3 1.25-.3h12A3.25 3.25 0 0 0 20.25 14V6A3.25 3.25 0 0 0 17 2.75H7A3.25 3.25 0 0 0 3.75 6v11.55Zm4.5-9.123c0-1.673 1.76-2.76 3.256-2.012l3.146 1.573c1.659.829 1.659 3.195 0 4.024l-3.146 1.573c-1.496.748-3.256-.34-3.256-2.012V8.427Zm2.585-.67a.75.75 0 0 0-1.085.67v3.146a.75.75 0 0 0 1.085.67l3.146-1.572a.75.75 0 0 0 0-1.342l-3.146-1.573Z" fill="#868686"/>
</svg>
