<svg width="24" height="24" fill="none" xmlns="http://www.w3.org/2000/svg">
    <path fill-rule="evenodd" clip-rule="evenodd" d="M1.25 12c0-5.385 4.365-9.75 9.75-9.75h2c5.385 0 9.75 4.365 9.75 9.75s-4.365 9.75-9.75 9.75H6A4.75 4.75 0 0 1 1.25 17v-5ZM11 3.75A8.25 8.25 0 0 0 2.75 12v5A3.25 3.25 0 0 0 6 20.25h7a8.25 8.25 0 1 0 0-16.5h-2Zm-2.4 12.7a.75.75 0 0 1-1.2-.9L8 16l-.6-.45.002-.002.002-.003.006-.008.02-.025a5.38 5.38 0 0 1 .303-.343c.203-.213.502-.494.888-.776.77-.56 1.922-1.143 3.379-1.143s2.608.583 3.379 1.143a6.698 6.698 0 0 1 1.126 1.039l.066.08.019.025.006.008.002.003.001.001S16.6 15.55 16 16l.6-.45a.75.75 0 0 1-1.198.902" fill="#868686"/>
</svg>
