<svg width="24" height="24" fill="none" xmlns="http://www.w3.org/2000/svg">
    <path fill-rule="evenodd" clip-rule="evenodd" d="M14.053 3.488a3.225 3.225 0 0 0-4.106 0l-5 4.117A3.296 3.296 0 0 0 3.75 10.15v7.817c0 1.819 1.46 3.283 3.25 3.283h10c1.79 0 3.25-1.464 3.25-3.283V10.15c0-.988-.44-1.922-1.197-2.545l-5-4.117ZM8.993 2.33a4.725 4.725 0 0 1 6.014 0l5 4.118a4.796 4.796 0 0 1 1.743 3.702v7.817c0 2.636-2.12 4.783-4.75 4.783H7c-2.63 0-4.75-2.147-4.75-4.783V10.15c0-1.433.639-2.793 1.743-3.702l5-4.118ZM12 9.75a2.583 2.583 0 0 0-2.583 2.583v1.234c0 .803-.332 1.57-.918 2.118a.327.327 0 0 0 .223.565h6.556c.296 0 .439-.362.223-.565a2.904 2.904 0 0 1-.918-2.118v-1.234A2.583 2.583 0 0 0 12 9.75Zm-4.083 2.583a4.083 4.083 0 0 1 8.166 0v1.234c0 .388.16.759.444 1.024 1.208 1.132.406 3.159-1.25 3.159H8.723c-1.655 0-2.457-2.027-1.249-3.16.283-.264.444-.635.444-1.023v-1.234ZM10.25 19a.75.75 0 0 1 .75-.75h2a.75.75 0 0 1 0 1.5h-2a.75.75 0 0 1-.75-.75Z" fill="#868686"/>
</svg>
