<svg width="24" height="24" fill="none" xmlns="http://www.w3.org/2000/svg">
    <path fill-rule="evenodd" clip-rule="evenodd" d="M12 1.25a.75.75 0 0 1 .75.75v1a.75.75 0 0 1-1.5 0V2a.75.75 0 0 1 .75-.75Zm7.601 3.149a.75.75 0 0 1 0 1.06l-.707.707a.75.75 0 0 1-1.06-1.06l.707-.707a.75.75 0 0 1 1.06 0Zm-15.202 0a.75.75 0 0 1 1.06 0l.707.707a.75.75 0 0 1-1.06 1.06l-.707-.707a.75.75 0 0 1 0-1.06ZM12 6.75a5.25 5.25 0 1 0 0 10.5 5.25 5.25 0 0 0 0-10.5ZM5.25 12a6.75 6.75 0 1 1 13.5 0 6.75 6.75 0 0 1-13.5 0Zm-4 0a.75.75 0 0 1 .75-.75h1a.75.75 0 0 1 0 1.5H2a.75.75 0 0 1-.75-.75Zm19 0a.75.75 0 0 1 .75-.75h1a.75.75 0 0 1 0 1.5h-1a.75.75 0 0 1-.75-.75ZM6.166 17.834a.75.75 0 0 1 0 1.06l-.707.707a.75.75 0 1 1-1.06-1.06l.707-.707a.75.75 0 0 1 1.06 0Zm11.668 0a.75.75 0 0 1 1.06 0l.707.707a.75.75 0 0 1-1.06 1.06l-.707-.707a.75.75 0 0 1 0-1.06ZM12 20.25a.75.75 0 0 1 .75.75v1a.75.75 0 0 1-1.5 0v-1a.75.75 0 0 1 .75-.75Z" fill="#868686"/>
</svg>
