<svg width="24" height="24" fill="none" xmlns="http://www.w3.org/2000/svg">
    <path fill-rule="evenodd" clip-rule="evenodd" d="M10.847 5.467A6.365 6.365 0 0 1 16.4 2.25c3.494 0 6.35 2.786 6.35 6.25 0 2.916-2.024 5.352-4.749 6.05.473.726.749 1.591.749 2.521 0 2.597-2.14 4.679-4.75 4.679H7.6c-3.494 0-6.35-2.785-6.35-6.25 0-2.648 1.67-4.9 4.016-5.814.2-2.414 2.254-4.293 4.734-4.293.289 0 .572.025.847.074Zm1.446.506a4.76 4.76 0 0 1 1.027.753.75.75 0 1 1-1.04 1.08A3.263 3.263 0 0 0 10 6.893c-1.53 0-2.798 1.028-3.152 2.4.247-.028.498-.043.752-.043a6.365 6.365 0 0 1 5.553 3.217c.275-.049.558-.074.847-.074a4.78 4.78 0 0 1 2.726.846c2.538-.164 4.524-2.235 4.524-4.739 0-2.61-2.159-4.75-4.85-4.75a4.87 4.87 0 0 0-4.107 2.223Zm-.585 7A4.87 4.87 0 0 0 7.6 10.75c-.483 0-.948.069-1.387.197-2.011.587-3.463 2.41-3.463 4.553 0 2.61 2.159 4.75 4.85 4.75H14c1.808 0 3.25-1.436 3.25-3.179 0-1-.472-1.896-1.22-2.482a3.279 3.279 0 0 0-2.03-.696 3.263 3.263 0 0 0-2.28.913.75.75 0 0 1-1.04-1.08 4.76 4.76 0 0 1 1.027-.753Z" fill="#868686"/>
</svg>
