<svg width="24" height="24" fill="none" xmlns="http://www.w3.org/2000/svg">
    <path d="M4.945 19.817a2.75 2.75 0 0 0 4.11 0l1.506-1.693a.75.75 0 1 0-1.122-.997L7.934 18.82c-.057.064-.118.121-.184.17V5.01c.066.05.127.106.184.17L9.44 6.874a.75.75 0 0 0 1.122-.997L9.055 4.184a2.75 2.75 0 0 0-4.11 0L3.439 5.877a.75.75 0 0 0 1.122.997L6.066 5.18a1.26 1.26 0 0 1 .184-.17v13.98a1.261 1.261 0 0 1-.184-.17L4.56 17.127a.75.75 0 1 0-1.122.997l1.506 1.693ZM14 7a3 3 0 1 1 6 0 3 3 0 0 1-6 0ZM14 17a3 3 0 1 1 6 0 3 3 0 0 1-6 0Z" fill="#868686"/>
</svg>
