<svg width="24" height="24" fill="none" xmlns="http://www.w3.org/2000/svg">
    <path fill-rule="evenodd" clip-rule="evenodd" d="M3 2.75a.25.25 0 0 0-.25.25v3c0 .138.112.25.25.25h3A.25.25 0 0 0 6.25 6V3A.25.25 0 0 0 6 2.75H3ZM1.25 3c0-.966.784-1.75 1.75-1.75h3c.966 0 1.75.784 1.75 1.75v3A1.75 1.75 0 0 1 6 7.75H3A1.75 1.75 0 0 1 1.25 6V3ZM18 2.75a.25.25 0 0 0-.25.25v3c0 .138.112.25.25.25h3a.25.25 0 0 0 .25-.25V3a.25.25 0 0 0-.25-.25h-3ZM16.25 3c0-.966.784-1.75 1.75-1.75h3c.966 0 1.75.784 1.75 1.75v3A1.75 1.75 0 0 1 21 7.75h-3A1.75 1.75 0 0 1 16.25 6V3ZM18 17.75a.25.25 0 0 0-.25.25v3c0 .138.112.25.25.25h3a.25.25 0 0 0 .25-.25v-3a.25.25 0 0 0-.25-.25h-3Zm-1.75.25c0-.966.784-1.75 1.75-1.75h3c.966 0 1.75.784 1.75 1.75v3A1.75 1.75 0 0 1 21 22.75h-3A1.75 1.75 0 0 1 16.25 21v-3ZM3 17.75a.25.25 0 0 0-.25.25v3c0 .138.112.25.25.25h3a.25.25 0 0 0 .25-.25v-3a.25.25 0 0 0-.25-.25H3ZM1.25 18c0-.966.784-1.75 1.75-1.75h3c.966 0 1.75.784 1.75 1.75v3A1.75 1.75 0 0 1 6 22.75H3A1.75 1.75 0 0 1 1.25 21v-3ZM9.25 13a.75.75 0 0 1 .75-.75h4a.75.75 0 0 1 0 1.5h-4a.75.75 0 0 1-.75-.75Z" fill="#868686"/>
    <path fill-rule="evenodd" clip-rule="evenodd" d="M12 7.25c.3 0 .571.179.69.455l3 7a.75.75 0 0 1-1.38.59L12 9.904l-2.31 5.391a.75.75 0 1 1-1.38-.59l3-7A.75.75 0 0 1 12 7.25ZM6.25 4.5A.75.75 0 0 1 7 3.75h10a.75.75 0 0 1 0 1.5H7a.75.75 0 0 1-.75-.75ZM4.5 6.25a.75.75 0 0 1 .75.75v10a.75.75 0 0 1-1.5 0V7a.75.75 0 0 1 .75-.75Zm15 0a.75.75 0 0 1 .75.75v10a.75.75 0 0 1-1.5 0V7a.75.75 0 0 1 .75-.75ZM6.25 19.5a.75.75 0 0 1 .75-.75h10a.75.75 0 0 1 0 1.5H7a.75.75 0 0 1-.75-.75Z" fill="#868686"/>
</svg>
