<svg width="24" height="24" fill="none" xmlns="http://www.w3.org/2000/svg">
    <path fill-rule="evenodd" clip-rule="evenodd" d="M12.148 4.477a6.111 6.111 0 0 1 8.79 0c2.351 2.41 2.423 6.287.165 8.786l-5.727 6.338a4.53 4.53 0 0 1-6.752 0l-5.727-6.338c-2.258-2.5-2.186-6.376.164-8.786a6.111 6.111 0 0 1 8.79 0l.149.152.148-.152Zm7.717 1.047a4.611 4.611 0 0 0-6.643 0l-.685.702a.75.75 0 0 1-1.074 0l-.685-.702a4.611 4.611 0 0 0-6.643 0c-1.797 1.843-1.853 4.82-.125 6.734l5.727 6.338a3.03 3.03 0 0 0 4.526 0l5.727-6.339c1.728-1.912 1.672-4.89-.125-6.733ZM16.25 6.5a.75.75 0 0 1 .75-.75 2.75 2.75 0 0 1 2.75 2.75.75.75 0 0 1-1.5 0c0-.69-.56-1.25-1.25-1.25a.75.75 0 0 1-.75-.75Z" fill="#868686"/>
</svg>
