<svg width="24" height="24" fill="none" xmlns="http://www.w3.org/2000/svg">
    <path d="M15.286 4c-2.104 0-3.809 1.79-3.809 4 0 .334.039.658.112.968-2.023 0-5.07-.409-7.614-2.958-.339-.34-.963-.113-.94.366.378 7.687 3.67 9.929 5.365 10.068-1.094 1.082-2.685 1.935-4.285 2.318-.422.101-.527.564-.114.698 1.145.372 2.784.516 3.667.54 6.24 0 11.313-5.253 11.426-11.778.82-.533 1.344-1.69 1.639-2.51.072-.199-.256-.431-.451-.35-.612.255-1.39.315-2.051.1C17.532 4.569 16.472 4 15.286 4Z" fill="#868686"/>
</svg>
