<svg width="24" height="24" fill="none" xmlns="http://www.w3.org/2000/svg">
    <path fill-rule="evenodd" clip-rule="evenodd" d="M1.25 4A.75.75 0 0 1 2 3.25h18a.75.75 0 0 1 0 1.5H2A.75.75 0 0 1 1.25 4Zm6 4A.75.75 0 0 1 8 7.25h14a.75.75 0 0 1 0 1.5H8A.75.75 0 0 1 7.25 8Zm-3 4a.75.75 0 0 1 .75-.75h10a.75.75 0 0 1 0 1.5H5a.75.75 0 0 1-.75-.75Zm3 4a.75.75 0 0 1 .75-.75h6a.75.75 0 0 1 0 1.5H8a.75.75 0 0 1-.75-.75Zm3 4a.75.75 0 0 1 .75-.75h2a.75.75 0 0 1 0 1.5h-2a.75.75 0 0 1-.75-.75Z" fill="#868686"/>
</svg>
