<svg width="24" height="24" fill="none" xmlns="http://www.w3.org/2000/svg">
    <path fill-rule="evenodd" clip-rule="evenodd" d="M12 4.75a7.25 7.25 0 1 0 0 14.5 7.25 7.25 0 0 0 0-14.5ZM3.25 12a8.75 8.75 0 1 1 17.5 0 8.75 8.75 0 0 1-17.5 0Z" fill="#868686"/>
    <path fill-rule="evenodd" clip-rule="evenodd" d="M12 9.75a2.25 2.25 0 1 0 0 4.5 2.25 2.25 0 0 0 0-4.5ZM8.25 12a3.75 3.75 0 1 1 7.5 0 3.75 3.75 0 0 1-7.5 0ZM12 1.25a.75.75 0 0 1 .75.75v2a.75.75 0 0 1-1.5 0V2a.75.75 0 0 1 .75-.75ZM12 19.25a.75.75 0 0 1 .75.75v2a.75.75 0 0 1-1.5 0v-2a.75.75 0 0 1 .75-.75ZM22.75 12a.75.75 0 0 1-.75.75h-2a.75.75 0 0 1 0-1.5h2a.75.75 0 0 1 .75.75ZM4.75 12a.75.75 0 0 1-.75.75H2a.75.75 0 0 1 0-1.5h2a.75.75 0 0 1 .75.75Z" fill="#868686"/>
</svg>
