<svg width="24" height="24" fill="none" xmlns="http://www.w3.org/2000/svg">
    <path fill-rule="evenodd" clip-rule="evenodd" d="M19.25 8.657V18A3.25 3.25 0 0 1 16 21.25H8A3.25 3.25 0 0 1 4.75 18V6A3.25 3.25 0 0 1 8 2.75h5.343a3.25 3.25 0 0 1 2.298.952l2.657 2.657c.61.61.952 1.436.952 2.298ZM20.75 18V8.657c0-1.26-.5-2.468-1.391-3.359l-2.657-2.657a4.75 4.75 0 0 0-3.359-1.391H8A4.75 4.75 0 0 0 3.25 6v12A4.75 4.75 0 0 0 8 22.75h8A4.75 4.75 0 0 0 20.75 18Z" fill="#868686"/>
    <path fill-rule="evenodd" clip-rule="evenodd" d="M11.25 18a.75.75 0 0 1 .75-.75h4a.75.75 0 0 1 0 1.5h-4a.75.75 0 0 1-.75-.75ZM11.25 14a.75.75 0 0 1 .75-.75h4a.75.75 0 0 1 0 1.5h-4a.75.75 0 0 1-.75-.75Z" fill="#868686"/>
</svg>
