<svg width="24" height="24" fill="none" xmlns="http://www.w3.org/2000/svg">
    <path fill-rule="evenodd" clip-rule="evenodd" d="M15.494 1.436a.75.75 0 0 1 .07 1.058l-2.87 3.28a1.75 1.75 0 0 1-2.41.214L8.532 4.586a.75.75 0 1 1 .937-1.172l1.752 1.403a.25.25 0 0 0 .345-.031l2.87-3.28a.75.75 0 0 1 1.058-.07ZM4.75 10v6.764c0 .473.268.906.691 1.118l6 3a1.25 1.25 0 0 0 1.118 0l6-3a1.25 1.25 0 0 0 .691-1.118V10h1.5v6.764a2.75 2.75 0 0 1-1.52 2.46l-6 3a2.75 2.75 0 0 1-2.46 0l-6-3a2.75 2.75 0 0 1-1.52-2.46V10h1.5Z" fill="#868686"/>
    <path fill-rule="evenodd" clip-rule="evenodd" d="M6.67 4.665a.75.75 0 0 1-.335 1.006l-.658.33L12 9.16l6.323-3.16-.658-.33a.75.75 0 1 1 .67-1.342l2 1a.75.75 0 0 1 0 1.342l-8 4a.75.75 0 0 1-.67 0l-8-4a.75.75 0 0 1 0-1.342l2-1a.75.75 0 0 1 1.006.336Z" fill="#868686"/>
    <path fill-rule="evenodd" clip-rule="evenodd" d="M19.665 5.33a.75.75 0 0 1 .959.254l2 3a.75.75 0 0 1-.289 1.087l-8 4a.75.75 0 0 1-.959-.255l-2-3a.75.75 0 0 1 .289-1.087l8-4Zm-6.57 4.961 1.162 1.742 6.648-3.324-1.162-1.742-6.648 3.324Z" fill="#868686"/>
    <path fill-rule="evenodd" clip-rule="evenodd" d="M4.335 5.33a.75.75 0 0 0-.959.254l-2 3a.75.75 0 0 0 .289 1.087l8 4c.338.17.75.06.959-.255l2-3a.75.75 0 0 0-.289-1.087l-8-4Zm6.57 4.961-1.162 1.742L3.095 8.71l1.162-1.742 6.648 3.324Z" fill="#868686"/>
</svg>
