<svg width="24" height="24" fill="none" xmlns="http://www.w3.org/2000/svg">
    <path d="M12.531 2.985a.75.75 0 0 0-1.06 1.061l7.07 7.071a1.25 1.25 0 0 1 0 1.768l-2.962 2.962V14.83a.75.75 0 0 0-1.5 0v1.829c0 .966.784 1.75 1.75 1.75h1.828a.75.75 0 0 0 0-1.5H16.64l2.962-2.963a2.75 2.75 0 0 0 0-3.889l-7.07-7.07ZM6.344 5.594a.75.75 0 1 0 0 1.5h1.018l-2.963 2.962a2.75 2.75 0 0 0 0 3.89l7.071 7.07a.75.75 0 1 0 1.06-1.06l-7.07-7.071a1.25 1.25 0 0 1 0-1.768l2.962-2.962v1.017a.75.75 0 0 0 1.5 0V7.344a1.75 1.75 0 0 0-1.75-1.75H6.344Z" fill="#868686"/>
</svg>
