<svg width="24" height="24" fill="none" xmlns="http://www.w3.org/2000/svg">
    <path d="M15.5 2.25a4.25 4.25 0 0 0-4.25 4.25v2.069c0 .914-.136 1.817-.397 2.681H7a.75.75 0 0 0 0 1.5h3.25a9.247 9.247 0 0 1-.949 1.498l-2.383 3.064c-1.405 1.806-.117 4.438 2.171 4.438H19a.75.75 0 0 0 0-1.5H9.09c-1.04 0-1.625-1.196-.987-2.017l2.383-3.064c.58-.746 1.056-1.56 1.418-2.419H17a.75.75 0 0 0 0-1.5h-4.59c.224-.87.34-1.77.34-2.681V6.5a2.75 2.75 0 1 1 5.5 0V8a.75.75 0 0 0 1.5 0V6.5a4.25 4.25 0 0 0-4.25-4.25Z" fill="#868686"/>
</svg>
