<svg width="24" height="24" fill="none" xmlns="http://www.w3.org/2000/svg">
    <path fill-rule="evenodd" clip-rule="evenodd" d="M18 5.25A2.75 2.75 0 0 1 20.75 8v8A2.75 2.75 0 0 1 18 18.75H4A2.75 2.75 0 0 1 1.25 16V8A2.75 2.75 0 0 1 4 5.25h14ZM19.25 8c0-.69-.56-1.25-1.25-1.25H4c-.69 0-1.25.56-1.25 1.25v8c0 .69.56 1.25 1.25 1.25h14c.69 0 1.25-.56 1.25-1.25V8Z" fill="#868686"/>
    <path d="m8.11 12.129 4.093-3.998c.318-.31.904-.023.751.368l-.878 2.25c-.095.245.118.497.419.497h1.063c.379 0 .582.381.332.625L9.797 15.87c-.318.31-.904.023-.751-.368l.878-2.25c.095-.245-.118-.497-.419-.497H8.442c-.379 0-.582-.381-.332-.625Z" fill="#868686"/>
    <path fill-rule="evenodd" clip-rule="evenodd" d="M22 9.25a.75.75 0 0 1 .75.75v4a.75.75 0 0 1-1.5 0v-4a.75.75 0 0 1 .75-.75Z" fill="#868686"/>
</svg>
