<svg width="24" height="24" fill="none" xmlns="http://www.w3.org/2000/svg">
    <path d="M2.916 7a.75.75 0 0 1 .75-.75h2.583V3.665a.75.75 0 1 1 1.5 0v3.333a.75.75 0 0 1-.75.75H3.666a.75.75 0 0 1-.75-.75ZM17 21.083a.75.75 0 0 0 .75-.75v-2.584h2.583a.75.75 0 0 0 0-1.5h-3.334a.75.75 0 0 0-.75.75v3.334c0 .414.336.75.75.75ZM15.03 10.03a.75.75 0 0 0-1.06-1.06l-5.001 5a.75.75 0 1 0 1.06 1.06l5-5Z" fill="#868686"/>
    <path d="M18.136 5.863a3.964 3.964 0 0 0-5.606 0L10.863 7.53a.75.75 0 1 1-1.06-1.06l1.666-1.667a5.464 5.464 0 0 1 7.728 7.727l-1.667 1.667a.75.75 0 0 1-1.06-1.061l1.666-1.667a3.964 3.964 0 0 0 0-5.606ZM11.469 18.136a3.964 3.964 0 1 1-5.606-5.606l1.667-1.667a.75.75 0 0 0-1.061-1.06l-1.667 1.666a5.464 5.464 0 0 0 7.728 7.728l1.666-1.667a.75.75 0 0 0-1.06-1.06l-1.667 1.666Z" fill="#868686"/>
</svg>
