<svg width="24" height="24" fill="none" xmlns="http://www.w3.org/2000/svg">
    <path fill-rule="evenodd" clip-rule="evenodd" d="M11.75 7.205c0-1.504-1.77-2.308-2.902-1.317L4.226 9.93a2.75 2.75 0 0 0 0 4.14l4.622 4.043c1.131.99 2.902.187 2.902-1.317v-1.046H19A2.75 2.75 0 0 0 21.75 13v-2A2.75 2.75 0 0 0 19 8.25h-7.25V7.205Zm-1.915-.189a.25.25 0 0 1 .415.189V9c0 .414.336.75.75.75h8c.69 0 1.25.56 1.25 1.25v2c0 .69-.56 1.25-1.25 1.25h-8a.75.75 0 0 0-.75.75v1.796a.25.25 0 0 1-.415.188l-4.621-4.043a1.25 1.25 0 0 1 0-1.882l4.621-4.044Z" fill="#868686"/>
</svg>
