<svg width="24" height="24" fill="none" xmlns="http://www.w3.org/2000/svg">
    <path fill-rule="evenodd" clip-rule="evenodd" d="M7.796 2.742A.75.75 0 0 1 8.5 2.25H13a5.75 5.75 0 0 1 0 11.5H9.508l-1.812 4.529A.75.75 0 0 1 7 18.75H3a.75.75 0 0 1-.704-1.008l5.5-15ZM17.25 8A4.25 4.25 0 0 0 13 3.75H9.024l-4.95 13.5h2.418l1.812-4.528A.75.75 0 0 1 9 12.25h4A4.25 4.25 0 0 0 17.25 8Z" fill="#868686"/>
    <path fill-rule="evenodd" clip-rule="evenodd" d="M17.313 6.114a.75.75 0 0 1 .987-.387A5.751 5.751 0 0 1 16 16.748h-3.492l-1.812 4.529a.75.75 0 0 1-.696.471H5.793a.75.75 0 0 1-.696-1.03l1.207-3a.75.75 0 1 1 1.392.56l-.793 1.97h2.59l1.81-4.528a.75.75 0 0 1 .697-.472h4a4.25 4.25 0 0 0 1.7-8.146.75.75 0 0 1-.387-.988Z" fill="#868686"/>
</svg>
