<svg width="24" height="24" fill="none" xmlns="http://www.w3.org/2000/svg">
    <path fill-rule="evenodd" clip-rule="evenodd" d="M20.75 6A2.75 2.75 0 0 0 18 3.25h-8a2.75 2.75 0 0 0-2.45 4H6a2.75 2.75 0 0 0 0 5.5h1.55c-.192.375-.3.8-.3 1.25 0 .45.108.875.3 1.25H7a2.75 2.75 0 1 0 0 5.5h8a2.75 2.75 0 0 0 2.45-4H18a2.75 2.75 0 1 0 0-5.5h-1.55c.192-.375.3-.8.3-1.25 0-.45-.108-.875-.3-1.25H18A2.75 2.75 0 0 0 20.75 6ZM15 16.75H7a1.25 1.25 0 1 0 0 2.5h8a1.25 1.25 0 1 0 0-2.5Zm3-1.5a1.25 1.25 0 1 0 0-2.5h-8a1.25 1.25 0 1 0 0 2.5h8Zm-8-8a1.25 1.25 0 0 1 0-2.5h8a1.25 1.25 0 1 1 0 2.5h-8Zm-4 1.5h8a1.25 1.25 0 0 1 0 2.5H6a1.25 1.25 0 1 1 0-2.5Z" fill="#868686"/>
</svg>
