<svg width="24" height="24" fill="none" xmlns="http://www.w3.org/2000/svg">
    <path d="M6 3.063h3.5a4 4 0 0 1 4 4v12h-3a3.5 3.5 0 0 0-6.907-.805A3.994 3.994 0 0 1 2 15.063v-8a4 4 0 0 1 4-4Z" fill="#868686"/>
    <path d="M9 19.063a2 2 0 1 1-4 0 2 2 0 0 1 4 0ZM20 19.063a2 2 0 1 1-4 0 2 2 0 0 1 4 0Z" fill="#868686"/>
    <path d="M18 15.563a3.5 3.5 0 0 1 3.446 2.882c.343-.36.554-.846.554-1.383V11.68a2 2 0 0 0-.632-1.46l-2.791-2.616a2 2 0 0 0-1.368-.54H15v10.196a3.498 3.498 0 0 1 3-1.697Z" fill="#868686"/>
</svg>
