<svg width="24" height="24" fill="none" xmlns="http://www.w3.org/2000/svg">
    <path d="M18 2h-6a4.001 4.001 0 0 0-3.71 2.5h13.42A4.001 4.001 0 0 0 18 2ZM2 16v-4h4a2 2 0 1 1 0 4H2Z" fill="#868686"/>
    <path d="M6 6h16v8a1 1 0 0 1-1 1h-3a4 4 0 0 0-4 4v2a1 1 0 0 1-1 1H6a4 4 0 0 1-4-4v-.5h4a3.5 3.5 0 1 0 0-7H2V10a4 4 0 0 1 4-4Z" fill="#868686"/>
    <path d="M18.116 18.055a.75.75 0 1 0-1.06 1.061l.883.884-.884.884a.75.75 0 0 0 1.061 1.06l.884-.883.884.884a.75.75 0 0 0 1.06-1.061L20.062 20l.884-.884a.75.75 0 0 0-1.061-1.06l-.884.883-.884-.884Z" fill="#868686"/>
</svg>
