<svg width="24" height="24" fill="none" xmlns="http://www.w3.org/2000/svg">
    <path fill-rule="evenodd" clip-rule="evenodd" d="M8.75 18.172a1.27 1.27 0 0 0 .134-.116l1.586-1.586a.75.75 0 1 1 1.06 1.06l-1.585 1.586a2.75 2.75 0 0 1-3.89 0L4.47 17.531a.75.75 0 1 1 1.06-1.061l1.586 1.586c.043.042.087.081.134.116V8a.75.75 0 0 1 1.5 0v10.172Z" fill="#868686"/>
    <path fill-rule="evenodd" clip-rule="evenodd" d="M3.47 3.47a.75.75 0 0 1 1.06 0l16 16a.75.75 0 1 1-1.06 1.06l-16-16a.75.75 0 0 1 0-1.06Z" fill="#868686"/>
    <path d="M16.75 13.689V5.828c.047.035.091.074.134.116L18.47 7.53a.75.75 0 1 0 1.06-1.06l-1.585-1.586a2.75 2.75 0 0 0-3.89 0L12.47 6.469a.75.75 0 0 0 1.06 1.061l1.586-1.586a1.26 1.26 0 0 1 .134-.116v6.361l1.5 1.5Z" fill="#868686"/>
</svg>
