<svg width="24" height="24" fill="none" xmlns="http://www.w3.org/2000/svg">
    <path fill-rule="evenodd" clip-rule="evenodd" d="M17.47 15.47a.75.75 0 0 1 1.06 0L20 16.94l1.47-1.47a.75.75 0 1 1 1.06 1.06L21.06 18l1.47 1.47a.75.75 0 1 1-1.06 1.06L20 19.06l-1.47 1.47a.75.75 0 0 1-1.06-1.06L18.94 18l-1.47-1.47a.75.75 0 0 1 0-1.06Z" fill="#868686"/>
    <path fill-rule="evenodd" clip-rule="evenodd" d="M15.932 3.967c1.822-1.578 4.819-.385 4.819 2.1v6.87a.75.75 0 1 1-1.5 0v-6.87c0-1.087-1.4-1.778-2.337-.967L3.206 16.97c-.887.769-.393 2.28.943 2.28h10.708a.75.75 0 0 1 0 1.5H4.149c-2.594 0-3.96-3.151-1.925-4.913l13.708-11.87Z" fill="#868686"/>
</svg>
