<svg width="24" height="24" fill="none" xmlns="http://www.w3.org/2000/svg">
    <path fill-rule="evenodd" clip-rule="evenodd" d="M4.325 4.25c.347-1.712 1.86-3 3.675-3h8a3.751 3.751 0 0 1 3.675 3H20A2.75 2.75 0 0 1 22.75 7v1a.75.75 0 0 1-1.5 0V7c0-.69-.56-1.25-1.25-1.25h-.25v5.604c1.154.326 2 1.387 2 2.646v2A2.75 2.75 0 0 1 19 18.75h-.268c.012.082.018.165.018.25v2A1.75 1.75 0 0 1 17 22.75h-2A1.75 1.75 0 0 1 13.25 21v-2c0-.085.006-.168.018-.25h-2.536c.012.082.018.165.018.25v2A1.75 1.75 0 0 1 9 22.75H7A1.75 1.75 0 0 1 5.25 21v-2c0-.085.006-.168.018-.25H5A2.75 2.75 0 0 1 2.25 16v-2c0-1.259.846-2.32 2-2.646V5.75H4c-.69 0-1.25.56-1.25 1.25v1a.75.75 0 0 1-1.5 0V7A2.75 2.75 0 0 1 4 4.25h.325Zm1.425 1.5v5.5h5.5v-5.5h-5.5Zm.128-1.5A2.25 2.25 0 0 1 8 2.75h8c.98 0 1.813.626 2.122 1.5H5.878Zm6.872 1.5v5.5h5.5v-5.5h-5.5Zm-7.75 7c-.69 0-1.25.56-1.25 1.25v2c0 .69.56 1.25 1.25 1.25h14c.69 0 1.25-.56 1.25-1.25v-2c0-.69-.56-1.25-1.25-1.25H5Zm2 6a.25.25 0 0 0-.25.25v2c0 .138.112.25.25.25h2a.25.25 0 0 0 .25-.25v-2a.25.25 0 0 0-.25-.25H7Zm8 0a.25.25 0 0 0-.25.25v2c0 .138.112.25.25.25h2a.25.25 0 0 0 .25-.25v-2a.25.25 0 0 0-.25-.25h-2Z" fill="#868686"/>
</svg>
