<svg width="24" height="24" fill="none" xmlns="http://www.w3.org/2000/svg">
    <path fill-rule="evenodd" clip-rule="evenodd" d="M12 2.75a9.25 9.25 0 0 0-9.088 10.982l2.465 1.775a3.25 3.25 0 0 0 4.073-.221l4.096-3.687a4.75 4.75 0 0 1 5.953-.324l1.736 1.25A9.25 9.25 0 0 0 12 2.75Zm8.988 11.446-2.365-1.703a3.25 3.25 0 0 0-4.073.221l-4.096 3.687a4.75 4.75 0 0 1-5.953.324l-.754-.543A9.25 9.25 0 0 0 12 21.25c4.352 0 8.003-3.006 8.988-7.054ZM1.25 12C1.25 6.063 6.063 1.25 12 1.25S22.75 6.063 22.75 12a10.8 10.8 0 0 1-.188 2.014C21.619 18.988 17.249 22.75 12 22.75c-5.137 0-9.43-3.602-10.496-8.418A10.786 10.786 0 0 1 1.25 12ZM9 7.75a1.25 1.25 0 1 0 0 2.5 1.25 1.25 0 0 0 0-2.5ZM6.25 9a2.75 2.75 0 1 1 5.5 0 2.75 2.75 0 0 1-5.5 0Z" fill="#868686"/>
</svg>
