<svg width="24" height="24" fill="none" xmlns="http://www.w3.org/2000/svg">
    <path fill-rule="evenodd" clip-rule="evenodd" d="M12 2.75a1.25 1.25 0 1 0 0 2.5 1.25 1.25 0 0 0 0-2.5Zm2.122 3a2.75 2.75 0 1 0-4.244 0A4.75 4.75 0 0 0 7.25 10v2c0 .966.784 1.75 1.75 1.75a.25.25 0 0 1 .25.25v3a2.75 2.75 0 1 0 5.5 0v-3a.25.25 0 0 1 .25-.25A1.75 1.75 0 0 0 16.75 12v-2a4.75 4.75 0 0 0-2.628-4.25ZM12 6.75A3.25 3.25 0 0 0 8.75 10v2c0 .138.112.25.25.25.966 0 1.75.784 1.75 1.75v3a1.25 1.25 0 1 0 2.5 0v-3c0-.966.784-1.75 1.75-1.75a.25.25 0 0 0 .25-.25v-2A3.25 3.25 0 0 0 12 6.75Z" fill="#868686"/>
    <path fill-rule="evenodd" clip-rule="evenodd" d="M10.748 16.018a.75.75 0 0 1-.691.804c-1.955.148-3.621.511-4.774.987-.58.239-.99.49-1.243.725-.254.234-.29.391-.29.466 0 .086.052.287.421.579.362.285.932.574 1.702.83 1.534.512 3.7.841 6.127.841 2.427 0 4.593-.329 6.127-.84.77-.257 1.34-.546 1.701-.831.37-.292.422-.493.422-.579 0-.075-.036-.232-.29-.466-.253-.235-.664-.486-1.243-.725-1.153-.476-2.82-.839-4.774-.987a.75.75 0 1 1 .114-1.495c2.053.155 3.887.54 5.232 1.095.67.276 1.258.61 1.69 1.01.433.401.771.929.771 1.568 0 .742-.452 1.33-.993 1.757-.55.433-1.298.79-2.156 1.076-1.724.575-4.057.917-6.601.917-2.543 0-4.877-.343-6.601-.917-.858-.286-1.607-.643-2.156-1.076-.54-.427-.993-1.015-.993-1.757 0-.64.338-1.167.77-1.567.433-.4 1.021-.735 1.691-1.01 1.345-.555 3.179-.941 5.232-1.096a.75.75 0 0 1 .805.69Z" fill="#868686"/>
</svg>
