<svg width="24" height="24" fill="none" xmlns="http://www.w3.org/2000/svg">
    <path fill-rule="evenodd" clip-rule="evenodd" d="M3.25 5A3.75 3.75 0 0 1 7 1.25h10A3.75 3.75 0 0 1 20.75 5v14A3.75 3.75 0 0 1 17 22.75H7A3.75 3.75 0 0 1 3.25 19V5Zm1.5 14A2.25 2.25 0 0 0 7 21.25h10A2.25 2.25 0 0 0 19.25 19v-2.25H7A2.25 2.25 0 0 0 4.75 19Zm14.5-3.75H7c-.844 0-1.623.279-2.25.75V5A2.25 2.25 0 0 1 7 2.75h10A2.25 2.25 0 0 1 19.25 5v10.25ZM12 6.75c-.69 0-1.25.56-1.25 1.25a.75.75 0 0 1-1.5 0A2.75 2.75 0 1 1 12 10.75a.75.75 0 0 1 0-1.5 1.25 1.25 0 1 0 0-2.5Z" fill="#868686"/>
    <path d="M13 13a1 1 0 1 1-2 0 1 1 0 0 1 2 0Z" fill="#868686"/>
</svg>
