<svg width="24" height="24" fill="none" xmlns="http://www.w3.org/2000/svg">
    <path fill-rule="evenodd" clip-rule="evenodd" d="M1.25 6A4.75 4.75 0 0 1 6 1.25h12A4.75 4.75 0 0 1 22.75 6v12A4.75 4.75 0 0 1 18 22.75H6A4.75 4.75 0 0 1 1.25 18V6Zm1.5 4.5V18A3.25 3.25 0 0 0 6 21.25h12A3.25 3.25 0 0 0 21.25 18v-2.625l-2.312-1.734a1.25 1.25 0 0 0-1.634.116l-.811.811a2.75 2.75 0 0 1-4.405-.714l-1.518-3.037a1.25 1.25 0 0 0-2.002-.325l-.811.812a2.75 2.75 0 0 1-3.595.255L2.75 10.5Zm18.5 3-1.412-1.06a2.75 2.75 0 0 0-3.595.256l-.811.812a1.25 1.25 0 0 1-2.002-.325l-1.518-3.037a2.75 2.75 0 0 0-4.404-.714l-.812.811a1.25 1.25 0 0 1-1.634.116L2.75 8.625V6A3.25 3.25 0 0 1 6 2.75h12A3.25 3.25 0 0 1 21.25 6v7.5Z" fill="#868686"/>
</svg>
