<svg width="24" height="24" fill="none" xmlns="http://www.w3.org/2000/svg">
    <path fill-rule="evenodd" clip-rule="evenodd" d="M2.47 2.47a.75.75 0 0 1 1.06 0l18 18a.75.75 0 1 1-1.06 1.06l-18-18a.75.75 0 0 1 0-1.06Z" fill="#868686"/>
    <path fill-rule="evenodd" clip-rule="evenodd" d="M12 2.75c-.909 0-1.645.737-1.645 1.645v1.21a.75.75 0 0 1-1.5 0v-1.21a3.145 3.145 0 1 1 6.29 0v1.829c0 .454.258.912.745 1.188l4.914 2.783c.829.47 1.102 1.343.862 2.099-.235.742-.939 1.31-1.866 1.31h-2.947a.75.75 0 1 1 0-1.5H19.8c.276 0 .4-.147.436-.263a.253.253 0 0 0-.001-.168c-.016-.042-.056-.108-.17-.173l-4.914-2.783c-.913-.518-1.506-1.45-1.506-2.493V4.395c0-.908-.737-1.645-1.645-1.645ZM8.867 7.845a.75.75 0 0 1-.283 1.022L3.934 11.5c-.113.065-.153.131-.17.173a.253.253 0 0 0 0 .168c.036.116.16.263.436.263h4.207c1.004 0 1.948.754 1.948 1.835v2.599c0 .594-.195 1.167-.549 1.648L7.92 20.751c-.063.085-.066.142-.062.178a.31.31 0 0 0 .094.175c.126.13.346.201.586.092l2.081-.943a3.368 3.368 0 0 1 2.761 0l2.081.943c.241.11.46.038.587-.092a.309.309 0 0 0 .093-.175c.004-.035.001-.093-.061-.178l-1.887-2.565a2.78 2.78 0 0 1-.548-1.648v-2.143a.75.75 0 0 1 1.5 0v2.143c0 .263.085.527.256.76l1.887 2.564c.59.803.38 1.727-.166 2.288a2.006 2.006 0 0 1-2.28.413l-2.08-.943a1.868 1.868 0 0 0-1.524 0l-2.08.942a2.006 2.006 0 0 1-2.28-.412c-.547-.56-.757-1.485-.166-2.288l1.886-2.565a1.28 1.28 0 0 0 .257-.76V13.94c0-.117-.13-.335-.448-.335H4.2c-.928 0-1.632-.568-1.867-1.31-.239-.756.034-1.63.862-2.099l4.65-2.633a.75.75 0 0 1 1.022.283Z" fill="#868686"/>
</svg>
