<svg width="24" height="24" fill="none" xmlns="http://www.w3.org/2000/svg">
    <path fill-rule="evenodd" clip-rule="evenodd" d="M2.25 6.236c0-2.044 2.151-3.374 3.98-2.46L9.758 5.54c2.027 1.014 2.027 3.906 0 4.92L6.23 12.223c-1.829.915-3.98-.415-3.98-2.46V6.237Zm3.309-1.118A1.25 1.25 0 0 0 3.75 6.236v3.528c0 .93.978 1.533 1.809 1.118l3.528-1.764c.921-.46.921-1.775 0-2.236L5.559 5.118ZM13.25 6a.75.75 0 0 1 .75-.75h7a.75.75 0 0 1 0 1.5h-7a.75.75 0 0 1-.75-.75Zm0 5a.75.75 0 0 1 .75-.75h7a.75.75 0 0 1 0 1.5h-7a.75.75 0 0 1-.75-.75Zm-11 5a.75.75 0 0 1 .75-.75h18a.75.75 0 0 1 0 1.5H3a.75.75 0 0 1-.75-.75Zm0 5a.75.75 0 0 1 .75-.75h18a.75.75 0 0 1 0 1.5H3a.75.75 0 0 1-.75-.75Z" fill="#868686"/>
</svg>
