<svg width="24" height="24" fill="none" xmlns="http://www.w3.org/2000/svg">
    <path fill-rule="evenodd" clip-rule="evenodd" d="M12 2.75a3.248 3.248 0 0 0-2.816 1.626.75.75 0 1 1-1.298-.752A4.75 4.75 0 0 1 16.75 6v1.309c2.267.36 4 2.323 4 4.691v6A4.75 4.75 0 0 1 16 22.75H8A4.75 4.75 0 0 1 3.25 18v-6A4.75 4.75 0 0 1 8 7.25h7.25V6A3.25 3.25 0 0 0 12 2.75Zm-4 6A3.25 3.25 0 0 0 4.75 12v6A3.25 3.25 0 0 0 8 21.25h8A3.25 3.25 0 0 0 19.25 18v-6A3.25 3.25 0 0 0 16 8.75H8Zm4 4.5a.75.75 0 0 1 .75.75v2a.75.75 0 0 1-1.5 0v-2a.75.75 0 0 1 .75-.75Z" fill="#868686"/>
</svg>
