<svg width="24" height="24" fill="none" xmlns="http://www.w3.org/2000/svg">
    <path fill-rule="evenodd" clip-rule="evenodd" d="M1.25 7A4.75 4.75 0 0 1 6 2.25h12A4.75 4.75 0 0 1 22.75 7v3.172c0 .729-.29 1.428-.805 1.944l-8.829 8.829a2.75 2.75 0 0 1-1.944.805H6A4.75 4.75 0 0 1 1.25 17V7ZM6 3.75A3.25 3.25 0 0 0 2.75 7v10A3.25 3.25 0 0 0 6 20.25h5.172c.026 0 .052 0 .078-.003V17A6.75 6.75 0 0 1 18 10.25h3.247l.003-.078V7A3.25 3.25 0 0 0 18 3.75H6Zm14.19 8H18A5.25 5.25 0 0 0 12.75 17v2.19l7.44-7.44Z" fill="#868686"/>
</svg>
