<svg width="24" height="24" fill="none" xmlns="http://www.w3.org/2000/svg">
    <path fill-rule="evenodd" clip-rule="evenodd" d="M22 6c0 2.21-2 6-4 6s-4-3.79-4-6a4 4 0 1 1 8 0Zm-2.5 0a1.5 1.5 0 1 1-3 0 1.5 1.5 0 0 1 3 0Z" fill="#868686"/>
    <path fill-rule="evenodd" clip-rule="evenodd" d="M12.5 6c0-.706.133-1.38.375-2H8.387a2 2 0 0 0-1.873 1.298l-4.5 12A2 2 0 0 0 3.887 20h16.228a2 2 0 0 0 1.872-2.702l-1.736-4.63c-.597.455-1.362.832-2.25.832-.98 0-1.809-.458-2.429-.974-.63-.524-1.168-1.208-1.6-1.914a10.856 10.856 0 0 1-1.221-2.845V8a.75.75 0 0 1-1.5 0V7a.75.75 0 0 1 1.269-.541A5.648 5.648 0 0 1 12.5 6Zm.25 10a.75.75 0 0 0-1.5 0v1a.75.75 0 0 0 1.5 0v-1ZM12 10.75a.75.75 0 0 1 .75.75v1a.75.75 0 0 1-1.5 0v-1a.75.75 0 0 1 .75-.75Z" fill="#868686"/>
</svg>
