<svg width="24" height="24" fill="none" xmlns="http://www.w3.org/2000/svg">
    <path d="M12.75 22a.75.75 0 1 1-1.5 0 .75.75 0 0 1 1.5 0ZM12.75 19a.75.75 0 1 1-1.5 0 .75.75 0 0 1 1.5 0ZM9.5 20A.75.75 0 1 1 8 20a.75.75 0 0 1 1.5 0ZM16 20a.75.75 0 1 1-1.5 0 .75.75 0 0 1 1.5 0ZM9.5 17A.75.75 0 1 1 8 17a.75.75 0 0 1 1.5 0ZM16 17a.75.75 0 1 1-1.5 0 .75.75 0 0 1 1.5 0Z" fill="#868686"/>
    <path fill-rule="evenodd" clip-rule="evenodd" d="M15 1.25a.75.75 0 0 1 .75.75v1a.75.75 0 0 1-1.5 0V2a.75.75 0 0 1 .75-.75Zm5.48 2.27a.75.75 0 0 1 0 1.06l-.707.708a.75.75 0 0 1-1.06-1.061l.706-.707a.75.75 0 0 1 1.061 0Zm-7.424 2.875a7.783 7.783 0 0 1 2.79 2.97 5.772 5.772 0 0 1 2.382.017 3.25 3.25 0 0 0-5.172-2.987Zm6.608 3.508a4.75 4.75 0 0 0-8.074-4.21 7.75 7.75 0 0 0-6.465 14.02.75.75 0 1 0 .75-1.299 6.25 6.25 0 1 1 8.533-8.548 5.76 5.76 0 0 0-1.433 1.028.75.75 0 0 0 1.05 1.07A4.25 4.25 0 0 1 21.25 15a4.252 4.252 0 0 1-2.975 4.056.75.75 0 1 0 .45 1.43 5.752 5.752 0 0 0 .94-10.583ZM20.25 9a.75.75 0 0 1 .75-.75h1a.75.75 0 0 1 0 1.5h-1a.75.75 0 0 1-.75-.75Z" fill="#868686"/>
</svg>
