<svg width="24" height="24" fill="none" xmlns="http://www.w3.org/2000/svg">
    <path fill-rule="evenodd" clip-rule="evenodd" d="M3 6v12a4 4 0 0 0 4 4h4.343c.308 0 .612-.035.907-.104V18A4.75 4.75 0 0 1 17 13.25h3.896c.069-.295.104-.6.104-.907V6a4 4 0 0 0-4-4H7a4 4 0 0 0-4 4Zm9-.75a.75.75 0 0 1 .75.75v2.25H15a.75.75 0 0 1 0 1.5h-2.25V12a.75.75 0 0 1-1.5 0V9.75H9a.75.75 0 0 1 0-1.5h2.25V6a.75.75 0 0 1 .75-.75Z" fill="#868686"/>
    <path d="M14.172 20.828a4.013 4.013 0 0 1-.422.367V18A3.25 3.25 0 0 1 17 14.75h3.195a4.013 4.013 0 0 1-.367.422l-5.656 5.656Z" fill="#868686"/>
</svg>
