<svg width="24" height="24" fill="none" xmlns="http://www.w3.org/2000/svg">
    <path fill-rule="evenodd" clip-rule="evenodd" d="M1.47 1.47a.75.75 0 0 1 1.06 0l20 20a.75.75 0 1 1-1.06 1.06l-1.303-1.302A4.732 4.732 0 0 1 18 21.75H6A4.75 4.75 0 0 1 1.25 17V7c0-1.297.52-2.472 1.361-3.328L1.47 2.53a.75.75 0 0 1 0-1.06Zm2.202 3.262A3.238 3.238 0 0 0 2.75 7v10A3.25 3.25 0 0 0 6 20.25h12c.358 0 .703-.058 1.025-.165L3.672 4.732ZM6.25 3A.75.75 0 0 1 7 2.25h11A4.75 4.75 0 0 1 22.75 7v10c0 .366-.041.723-.12 1.067a.75.75 0 1 1-1.462-.336c.053-.234.082-.479.082-.731V7A3.25 3.25 0 0 0 18 3.75H7A.75.75 0 0 1 6.25 3Zm12.374 4.584a.75.75 0 0 1-.208 1.04l-3.6 2.4a.75.75 0 1 1-.832-1.248l3.6-2.4a.75.75 0 0 1 1.04.208Z" fill="#868686"/>
</svg>
