<svg width="24" height="24" fill="none" xmlns="http://www.w3.org/2000/svg">
    <path d="M10.25 9.25V9a1.25 1.25 0 1 0-2.5 0v.25h2.5Z" fill="#868686"/>
    <path fill-rule="evenodd" clip-rule="evenodd" d="M3 5a3 3 0 0 1 3-3h12a3 3 0 0 1 3 3v14a3 3 0 0 1-3 3H6a3 3 0 0 1-3-3V5Zm3.25 4a2.75 2.75 0 0 1 5.5 0v3a.75.75 0 0 1-1.5 0v-1.25h-2.5V12a.75.75 0 0 1-1.5 0V9Zm0 6a.75.75 0 0 1 .75-.75h10a.75.75 0 0 1 0 1.5H7a.75.75 0 0 1-.75-.75ZM7 17.25a.75.75 0 0 0 0 1.5h5a.75.75 0 0 0 0-1.5H7Zm6.25-9.75a.75.75 0 0 1 .75-.75h.75V6a.75.75 0 0 1 1.5 0v.75H17a.75.75 0 0 1 0 1.5h-.75V9a.75.75 0 0 1-1.5 0v-.75H14a.75.75 0 0 1-.75-.75Z" fill="#868686"/>
</svg>
