<svg width="24" height="24" fill="none" xmlns="http://www.w3.org/2000/svg">
    <path fill-rule="evenodd" clip-rule="evenodd" d="M9.25 6a2.75 2.75 0 1 1 5.5 0v3.25H18a2.75 2.75 0 1 1 0 5.5h-3.25V18a2.75 2.75 0 1 1-5.5 0v-3.25H6a2.75 2.75 0 1 1 0-5.5h3.25V6ZM12 4.75c-.69 0-1.25.56-1.25 1.25v4a.75.75 0 0 1-.75.75H6a1.25 1.25 0 1 0 0 2.5h4a.75.75 0 0 1 .75.75v4a1.25 1.25 0 1 0 2.5 0v-4a.75.75 0 0 1 .75-.75h4a1.25 1.25 0 1 0 0-2.5h-4a.75.75 0 0 1-.75-.75V6c0-.69-.56-1.25-1.25-1.25Z" fill="#868686"/>
</svg>
