<svg width="24" height="24" fill="none" xmlns="http://www.w3.org/2000/svg">
    <path fill-rule="evenodd" clip-rule="evenodd" d="M5.816 5.12a10.705 10.705 0 0 1 2.464 6.13h2.97V2.78a9.21 9.21 0 0 0-5.434 2.34Zm6.934-2.34v8.47h2.97a10.706 10.706 0 0 1 2.464-6.13 9.21 9.21 0 0 0-5.434-2.34Zm6.472 3.44a9.203 9.203 0 0 0-1.998 5.03h3.996a9.203 9.203 0 0 0-1.998-5.03Zm1.998 6.53h-3.996a9.203 9.203 0 0 0 1.998 5.03 9.203 9.203 0 0 0 1.998-5.03Zm-3.036 6.13a10.706 10.706 0 0 1-2.464-6.13h-2.97v8.47a9.21 9.21 0 0 0 5.434-2.34Zm-6.934 2.34v-8.47H8.28a10.706 10.706 0 0 1-2.464 6.13 9.21 9.21 0 0 0 5.434 2.34Zm-6.472-3.44a9.203 9.203 0 0 0 1.998-5.03H2.78a9.203 9.203 0 0 0 1.998 5.03ZM2.78 11.25h3.996a9.203 9.203 0 0 0-1.998-5.03 9.202 9.202 0 0 0-1.998 5.03Zm1.456-6.685A10.721 10.721 0 0 1 12 1.25c3.052 0 5.808 1.273 7.764 3.315A10.716 10.716 0 0 1 22.75 12c0 2.885-1.137 5.505-2.986 7.436A10.721 10.721 0 0 1 12 22.75a10.721 10.721 0 0 1-7.764-3.314A10.716 10.716 0 0 1 1.25 12c0-2.885 1.137-5.505 2.986-7.435Z" fill="#868686"/>
</svg>
