<svg width="24" height="24" fill="none" xmlns="http://www.w3.org/2000/svg">
    <path fill-rule="evenodd" clip-rule="evenodd" d="M2.25 5A3.75 3.75 0 0 1 6 1.25h12A3.75 3.75 0 0 1 21.75 5v14A3.75 3.75 0 0 1 18 22.75H6A3.75 3.75 0 0 1 2.25 19V5ZM6 2.75A2.25 2.25 0 0 0 3.75 5v14A2.25 2.25 0 0 0 6 21.25h12A2.25 2.25 0 0 0 20.25 19V5A2.25 2.25 0 0 0 18 2.75H6Zm9.5 2.5a.75.75 0 0 1 .75.75v.75H17a.75.75 0 0 1 0 1.5h-.75V9a.75.75 0 0 1-1.5 0v-.75H14a.75.75 0 0 1 0-1.5h.75V6a.75.75 0 0 1 .75-.75ZM6.25 9a2.75 2.75 0 0 1 5.5 0v3a.75.75 0 0 1-1.5 0v-1.25h-2.5V12a.75.75 0 0 1-1.5 0V9Zm1.5.25h2.5V9a1.25 1.25 0 1 0-2.5 0v.25ZM6.25 15a.75.75 0 0 1 .75-.75h10a.75.75 0 0 1 0 1.5H7a.75.75 0 0 1-.75-.75Zm0 3a.75.75 0 0 1 .75-.75h5a.75.75 0 0 1 0 1.5H7a.75.75 0 0 1-.75-.75Z" fill="#868686"/>
</svg>
