<svg width="24" height="24" fill="none" xmlns="http://www.w3.org/2000/svg">
    <path fill-rule="evenodd" clip-rule="evenodd" d="M2.47 2.47a.75.75 0 0 1 1.06 0l18 18a.75.75 0 1 1-1.06 1.06l-18-18a.75.75 0 0 1 0-1.06Z" fill="#868686"/>
    <path fill-rule="evenodd" clip-rule="evenodd" d="M20.23 8.918C16.841 6.15 13.077 5.22 9.47 6.035a.75.75 0 0 1-.332-1.463c4.113-.93 8.34.162 12.041 3.184 1.117.912 1.194 2.502.388 3.589l-2.58 3.485a.75.75 0 1 1-1.206-.893l2.581-3.485c.382-.516.297-1.184-.132-1.534ZM7.028 6.024a.75.75 0 0 1-.342 1.004 15.275 15.275 0 0 0-2.915 1.89c-.43.35-.514 1.018-.132 1.534l7.357 9.932c.5.675 1.51.675 2.009 0l3.074-4.15a.75.75 0 1 1 1.205.893l-3.074 4.15a2.75 2.75 0 0 1-4.42 0l-7.356-9.932c-.806-1.087-.729-2.677.388-3.589a16.773 16.773 0 0 1 3.202-2.075.75.75 0 0 1 1.004.343Z" fill="#868686"/>
</svg>
