<svg width="24" height="24" fill="none" xmlns="http://www.w3.org/2000/svg">
    <path d="M12.848 9.641c-.62-.308-1.185-.738-1.75-1.168-1.17-.89-2.341-1.78-4-1.595-1.519.17-3.306 1.226-4.532 2.077-.962.667-1.468 1.787-1.468 2.957v8.748c0 .853 1.028 1.348 1.736.872 1.21-.813 2.852-1.736 4.264-1.894 1.659-.185 2.83.705 4 1.595s2.34 1.781 4 1.595c1.518-.17 3.305-1.225 4.531-2.076.962-.668 1.469-1.788 1.469-2.958V9.819c0-.721-.745-1.216-1.422-.966-.698.259-1.587.56-2.507.805v3.195c0 1.243-.967 2.25-2.16 2.25-1.194 0-2.161-1.007-2.161-2.25V9.641Z" fill="#868686"/>
    <path d="M14.25 1.896a.75.75 0 0 1 .75-.75h6a.75.75 0 0 1 .67 1.086l-.832 1.664.832 1.665A.75.75 0 0 1 21 6.646h-5.25v6.486a.75.75 0 1 1-1.5 0V1.896Z" fill="#868686"/>
</svg>
