<svg width="24" height="24" fill="none" xmlns="http://www.w3.org/2000/svg">
    <path d="M12 11a3 3 0 1 0 0-6 3 3 0 0 0 0 6ZM12 19c3.314 0 6-1.343 6-3s-2.686-3-6-3-6 1.343-6 3 2.686 3 6 3ZM6.382 13.019C3.912 13.171 2 14.224 2 15.5c0 1.052 1.3 1.952 3.14 2.321-.412-.556-.64-1.173-.64-1.82 0-1.144.71-2.188 1.882-2.982ZM19.5 16c0 .648-.228 1.265-.64 1.821 1.84-.369 3.14-1.269 3.14-2.32 0-1.277-1.912-2.33-4.382-2.482C18.79 13.813 19.5 14.857 19.5 16ZM15.718 10.535a4.518 4.518 0 0 0 .69-3.446 2 2 0 1 1-.69 3.446ZM7 7a2 2 0 0 1 .592.09 4.52 4.52 0 0 0 .69 3.445A2 2 0 1 1 7 7Z" fill="#868686"/>
</svg>
