<svg width="24" height="24" fill="none" xmlns="http://www.w3.org/2000/svg">
    <path fill-rule="evenodd" clip-rule="evenodd" d="M6.25 18a2.75 2.75 0 1 1 5.5 0v4a.75.75 0 0 1-.75.75H7a.75.75 0 0 1-.75-.75v-4ZM9 16.75c-.69 0-1.25.56-1.25 1.25v3.25h2.5V18c0-.69-.56-1.25-1.25-1.25ZM6 2.75A3.25 3.25 0 0 0 2.75 6v2.25c0 1.742 1.237 3 2.583 3s2.584-1.258 2.584-3a.75.75 0 1 1 1.5 0c0 1.742 1.237 3 2.583 3s2.583-1.258 2.583-3a.75.75 0 0 1 1.5 0c0 1.742 1.238 3 2.584 3s2.583-1.258 2.583-3V6A3.25 3.25 0 0 0 18 2.75H6Zm9.333 8.098c.726 1.136 1.923 1.902 3.334 1.902 2.335 0 4.083-2.1 4.083-4.5V6A4.75 4.75 0 0 0 18 1.25H6A4.75 4.75 0 0 0 1.25 6v2.25c0 2.4 1.748 4.5 4.083 4.5 1.411 0 2.608-.766 3.334-1.902.726 1.136 1.922 1.902 3.333 1.902 1.41 0 2.607-.766 3.333-1.902Z" fill="#868686"/>
    <path fill-rule="evenodd" clip-rule="evenodd" d="M3.75 11v7A3.25 3.25 0 0 0 7 21.25h10A3.25 3.25 0 0 0 20.25 18v-7h1.5v7A4.75 4.75 0 0 1 17 22.75H7A4.75 4.75 0 0 1 2.25 18v-7h1.5Z" fill="#868686"/>
</svg>
