<svg width="24" height="24" fill="none" xmlns="http://www.w3.org/2000/svg">
    <path fill-rule="evenodd" clip-rule="evenodd" d="M21.75 12c0-5.385-4.365-9.75-9.75-9.75S2.25 6.615 2.25 12s4.365 9.75 9.75 9.75 9.75-4.365 9.75-9.75Zm-1.5 0a8.25 8.25 0 1 1-16.5 0 8.25 8.25 0 0 1 16.5 0Z" fill="#868686"/>
    <path fill-rule="evenodd" clip-rule="evenodd" d="M12.53 18.53a.75.75 0 0 1-1.06 0l-2-2a.75.75 0 1 1 1.06-1.06l.72.72V7.81l-.72.72a.75.75 0 1 1-1.06-1.06l2-2a.75.75 0 0 1 1.06 0l2 2a.75.75 0 0 1-1.06 1.06l-.72-.72v8.38l.72-.72a.75.75 0 1 1 1.06 1.06l-2 2Z" fill="#868686"/>
    <path fill-rule="evenodd" clip-rule="evenodd" d="M5.47 12.53a.75.75 0 0 1 0-1.06l2-2a.75.75 0 0 1 1.06 1.06l-.72.72h8.38l-.72-.72a.75.75 0 1 1 1.06-1.06l2 2a.75.75 0 0 1 0 1.06l-2 2a.75.75 0 1 1-1.06-1.06l.72-.72H7.81l.72.72a.75.75 0 1 1-1.06 1.06l-2-2Z" fill="#868686"/>
</svg>
