<svg width="24" height="24" fill="none" xmlns="http://www.w3.org/2000/svg">
    <path fill-rule="evenodd" clip-rule="evenodd" d="M3.33 6.665a.75.75 0 0 1 1.006-.336L12 10.162l7.665-3.833a.75.75 0 0 1 .67 1.342l-8 4a.75.75 0 0 1-.67 0l-8-4a.75.75 0 0 1-.336-1.006Z" fill="#868686"/>
    <path fill-rule="evenodd" clip-rule="evenodd" d="M10.061 1.677a4.612 4.612 0 0 1 3.878 0l5 2.31c1.721.795 2.811 2.556 2.811 4.48v7.067c0 1.923-1.09 3.684-2.811 4.48l-5 2.309a4.612 4.612 0 0 1-3.878 0l-5-2.31c-1.721-.795-2.811-2.556-2.811-4.48V8.467c0-1.923 1.09-3.684 2.811-4.48l5-2.309Zm3.25 1.362a3.113 3.113 0 0 0-2.621 0l-5 2.31c-1.168.539-1.94 1.755-1.94 3.117v7.068c0 1.362.772 2.578 1.94 3.117l5 2.31a3.112 3.112 0 0 0 2.62 0l5-2.31c1.168-.539 1.94-1.755 1.94-3.117V8.466c0-1.362-.772-2.578-1.94-3.117l-5-2.31Z" fill="#868686"/>
    <path fill-rule="evenodd" clip-rule="evenodd" d="M12 10.25a.75.75 0 0 1 .75.75v11a.75.75 0 0 1-1.5 0V11a.75.75 0 0 1 .75-.75Z" fill="#868686"/>
</svg>
