<svg width="24" height="24" fill="none" xmlns="http://www.w3.org/2000/svg">
    <path fill-rule="evenodd" clip-rule="evenodd" d="M7.354 3.25a2.751 2.751 0 0 1 2.646-2h4c1.259 0 2.32.846 2.646 2H17A4.75 4.75 0 0 1 21.75 8v10A4.75 4.75 0 0 1 17 22.75H7A4.75 4.75 0 0 1 2.25 18V8A4.75 4.75 0 0 1 7 3.25h.354Zm0 1.5H7A3.25 3.25 0 0 0 3.75 8v10A3.25 3.25 0 0 0 7 21.25h10A3.25 3.25 0 0 0 20.25 18V8A3.25 3.25 0 0 0 17 4.75h-.354a2.751 2.751 0 0 1-2.646 2h-4a2.751 2.751 0 0 1-2.646-2Zm2.646-2a1.25 1.25 0 1 0 0 2.5h4a1.25 1.25 0 1 0 0-2.5h-4Zm4.652 8.598a.75.75 0 0 1 0 1.061L13.06 14l1.59 1.591a.75.75 0 0 1-1.06 1.06L12 15.062l-1.591 1.59a.75.75 0 1 1-1.06-1.06L10.938 14l-1.59-1.591a.75.75 0 1 1 1.06-1.06L12 12.938l1.591-1.59a.75.75 0 0 1 1.06 0Z" fill="#868686"/>
</svg>
