<svg width="24" height="24" fill="none" xmlns="http://www.w3.org/2000/svg">
    <path d="M13 12a1 1 0 1 1-2 0 1 1 0 0 1 2 0ZM18 12a1 1 0 1 1-2 0 1 1 0 0 1 2 0ZM18 17a1 1 0 1 1-2 0 1 1 0 0 1 2 0ZM13 17a1 1 0 1 1-2 0 1 1 0 0 1 2 0ZM8 17a1 1 0 1 1-2 0 1 1 0 0 1 2 0ZM8 12a1 1 0 1 1-2 0 1 1 0 0 1 2 0ZM8 7a1 1 0 1 1-2 0 1 1 0 0 1 2 0ZM13 7a1 1 0 1 1-2 0 1 1 0 0 1 2 0ZM18 7a1 1 0 1 1-2 0 1 1 0 0 1 2 0Z" fill="#868686"/>
    <path fill-rule="evenodd" clip-rule="evenodd" d="M1.25 6A4.75 4.75 0 0 1 6 1.25h2a.75.75 0 0 1 0 1.5H6A3.25 3.25 0 0 0 2.75 6v12A3.25 3.25 0 0 0 6 21.25h2a.75.75 0 0 1 0 1.5H6A4.75 4.75 0 0 1 1.25 18V6Zm14-4a.75.75 0 0 1 .75-.75h2A4.75 4.75 0 0 1 22.75 6v12A4.75 4.75 0 0 1 18 22.75h-2a.75.75 0 0 1 0-1.5h2A3.25 3.25 0 0 0 21.25 18V6A3.25 3.25 0 0 0 18 2.75h-2a.75.75 0 0 1-.75-.75Z" fill="#868686"/>
</svg>
