<svg width="24" height="24" fill="none" xmlns="http://www.w3.org/2000/svg">
    <path fill-rule="evenodd" clip-rule="evenodd" d="M17.25 4a.75.75 0 0 1 .75-.75h4a.75.75 0 0 1 0 1.5h-4a.75.75 0 0 1-.75-.75Zm-16 5A3.75 3.75 0 0 1 5 5.25h10A3.75 3.75 0 0 1 18.75 9v8A3.75 3.75 0 0 1 15 20.75H5A3.75 3.75 0 0 1 1.25 17V9ZM5 6.75A2.25 2.25 0 0 0 2.75 9v8A2.25 2.25 0 0 0 5 19.25h10A2.25 2.25 0 0 0 17.25 17V9A2.25 2.25 0 0 0 15 6.75H5Zm.4 3.8a.75.75 0 0 1 1.05-.15l2.2 1.65c.8.6 1.9.6 2.7 0l2.2-1.65a.75.75 0 1 1 .9 1.2l-2.2 1.65a3.75 3.75 0 0 1-4.5 0l-2.2-1.65a.75.75 0 0 1-.15-1.05Z" fill="#868686"/>
</svg>
