<svg width="24" height="24" fill="none" xmlns="http://www.w3.org/2000/svg">
    <path fill-rule="evenodd" clip-rule="evenodd" d="M7.75 16v4.523a.25.25 0 0 0 .343.232l3.257-1.303a1.75 1.75 0 0 1 1.3 0l3.257 1.303a.25.25 0 0 0 .343-.232V16h1.5v4.523a1.75 1.75 0 0 1-2.4 1.625l-3.257-1.303a.25.25 0 0 0-.186 0L8.65 22.148a1.75 1.75 0 0 1-2.4-1.625V16h1.5Z" fill="#868686"/>
    <path fill-rule="evenodd" clip-rule="evenodd" d="M10.106 1.948a2.92 2.92 0 0 1 3.788 0l.716.61c.227.193.51.31.808.334l.937.075a2.92 2.92 0 0 1 2.678 2.678l.075.937c.024.298.141.581.335.809l.61.715a2.92 2.92 0 0 1 0 3.788l-.61.716a1.42 1.42 0 0 0-.335.808l-.075.937a2.92 2.92 0 0 1-2.678 2.678l-.937.075a1.42 1.42 0 0 0-.808.335l-.716.61a2.92 2.92 0 0 1-3.788 0l-.715-.61a1.42 1.42 0 0 0-.809-.335l-.937-.075a2.92 2.92 0 0 1-2.678-2.679l-.075-.936a1.42 1.42 0 0 0-.335-.808l-.61-.716a2.92 2.92 0 0 1 0-3.788l.61-.715a1.42 1.42 0 0 0 .335-.809l.075-.937a2.92 2.92 0 0 1 2.678-2.678l.937-.075c.298-.024.581-.14.809-.335l.715-.61Zm2.815 1.141a1.42 1.42 0 0 0-1.842 0l-.716.61a2.92 2.92 0 0 1-1.661.688l-.937.075a1.42 1.42 0 0 0-1.303 1.303l-.075.937A2.92 2.92 0 0 1 5.7 8.363l-.61.716a1.42 1.42 0 0 0 0 1.842l.61.716c.398.467.64 1.049.688 1.661l.075.937a1.42 1.42 0 0 0 1.303 1.303l.937.075a2.92 2.92 0 0 1 1.662.688l.715.61a1.42 1.42 0 0 0 1.842 0l.716-.61a2.92 2.92 0 0 1 1.661-.688l.937-.075a1.42 1.42 0 0 0 1.303-1.303l.075-.937a2.92 2.92 0 0 1 .688-1.662l.61-.715a1.42 1.42 0 0 0 0-1.842l-.61-.716a2.92 2.92 0 0 1-.688-1.661l-.075-.937a1.42 1.42 0 0 0-1.303-1.303l-.937-.075a2.92 2.92 0 0 1-1.662-.688l-.715-.61Z" fill="#868686"/>
</svg>
