<svg width="24" height="24" fill="none" xmlns="http://www.w3.org/2000/svg">
    <path fill-rule="evenodd" clip-rule="evenodd" d="M6 2.75A3.25 3.25 0 0 0 2.75 6v2a.75.75 0 0 1-1.5 0V6A4.75 4.75 0 0 1 6 1.25h2a.75.75 0 0 1 0 1.5H6ZM15.25 2a.75.75 0 0 1 .75-.75h2A4.75 4.75 0 0 1 22.75 6v2a.75.75 0 0 1-1.5 0V6A3.25 3.25 0 0 0 18 2.75h-2a.75.75 0 0 1-.75-.75ZM8.212 9.027c-1.147.743-2.1 1.668-2.745 2.376a.87.87 0 0 0 0 1.194c.644.708 1.598 1.633 2.745 2.376 1.15.746 2.445 1.277 3.788 1.277s2.638-.531 3.789-1.277c1.146-.743 2.1-1.668 2.744-2.376a.87.87 0 0 0 0-1.194c-.644-.708-1.598-1.633-2.745-2.376C14.639 8.28 13.344 7.75 12 7.75s-2.638.531-3.788 1.277Zm-.816-1.26C8.686 6.933 10.265 6.25 12 6.25c1.735 0 3.315.682 4.604 1.518 1.293.838 2.345 1.863 3.039 2.626a2.37 2.37 0 0 1 0 3.212c-.694.764-1.746 1.788-3.039 2.626-1.29.836-2.869 1.518-4.604 1.518-1.735 0-3.315-.682-4.604-1.518-1.293-.838-2.345-1.862-3.039-2.626a2.37 2.37 0 0 1 0-3.212c.694-.763 1.746-1.788 3.039-2.626ZM12 10.75a1.25 1.25 0 1 0 0 2.5 1.25 1.25 0 0 0 0-2.5ZM9.25 12a2.75 2.75 0 1 1 5.5 0 2.75 2.75 0 0 1-5.5 0ZM22 15.25a.75.75 0 0 1 .75.75v2A4.75 4.75 0 0 1 18 22.75h-2a.75.75 0 0 1 0-1.5h2A3.25 3.25 0 0 0 21.25 18v-2a.75.75 0 0 1 .75-.75Zm-20 .556a.75.75 0 0 1 .75.75V18A3.25 3.25 0 0 0 6 21.25h2a.75.75 0 0 1 0 1.5H6A4.75 4.75 0 0 1 1.25 18v-1.444a.75.75 0 0 1 .75-.75Z" fill="#868686"/>
</svg>
