<svg width="24" height="24" fill="none" xmlns="http://www.w3.org/2000/svg">
    <path fill-rule="evenodd" clip-rule="evenodd" d="M15 1.25a.75.75 0 0 1 .75.75v1a.75.75 0 0 1-1.5 0V2a.75.75 0 0 1 .75-.75Zm5.48 2.27a.75.75 0 0 1 0 1.06l-.707.708a.75.75 0 0 1-1.06-1.061l.706-.707a.75.75 0 0 1 1.061 0Zm-7.424 2.875a7.783 7.783 0 0 1 2.79 2.97 5.772 5.772 0 0 1 2.382.017 3.25 3.25 0 0 0-5.172-2.987Zm6.608 3.508a4.75 4.75 0 0 0-8.074-4.21 7.75 7.75 0 0 0-7.572 13.243.75.75 0 0 0 .964-1.148 6.25 6.25 0 1 1 9.426-7.922 5.76 5.76 0 0 0-1.433 1.028.75.75 0 0 0 1.05 1.07A4.25 4.25 0 0 1 21.25 15a4.252 4.252 0 0 1-3.4 4.165.75.75 0 1 0 .3 1.47 5.752 5.752 0 0 0 1.514-10.732ZM20.25 9a.75.75 0 0 1 .75-.75h1a.75.75 0 0 1 0 1.5h-1a.75.75 0 0 1-.75-.75Zm-7.972 7.304a.75.75 0 0 1 .418.975l-2 5a.75.75 0 0 1-1.392-.558l2-5a.75.75 0 0 1 .974-.417Zm-3.943.025a.75.75 0 0 1 .336 1.006l-1 2a.75.75 0 1 1-1.342-.67l1-2a.75.75 0 0 1 1.006-.336Zm8 0a.75.75 0 0 1 .336 1.006l-1 2a.75.75 0 1 1-1.342-.67l1-2a.75.75 0 0 1 1.006-.336Z" fill="#868686"/>
</svg>
