<svg width="24" height="24" fill="none" xmlns="http://www.w3.org/2000/svg">
    <path fill-rule="evenodd" clip-rule="evenodd" d="M6 2.75A3.25 3.25 0 0 0 2.75 6v2a.75.75 0 0 1-1.5 0V6A4.75 4.75 0 0 1 6 1.25h2a.75.75 0 0 1 0 1.5H6ZM15.25 2a.75.75 0 0 1 .75-.75h2A4.75 4.75 0 0 1 22.75 6v2a.75.75 0 0 1-1.5 0V6A3.25 3.25 0 0 0 18 2.75h-2a.75.75 0 0 1-.75-.75ZM8 6.75a.75.75 0 0 1 .75.75v2a.75.75 0 0 1-1.5 0v-2A.75.75 0 0 1 8 6.75Zm4 0a.75.75 0 0 1 .75.75v2a.75.75 0 0 1-1.5 0v-2a.75.75 0 0 1 .75-.75Zm4 0a.75.75 0 0 1 .75.75v2a.75.75 0 0 1-1.5 0v-2a.75.75 0 0 1 .75-.75ZM6.25 12a.75.75 0 0 1 .75-.75h10a.75.75 0 0 1 0 1.5H7a.75.75 0 0 1-.75-.75ZM8 13.75a.75.75 0 0 1 .75.75v2a.75.75 0 0 1-1.5 0v-2a.75.75 0 0 1 .75-.75Zm4 0a.75.75 0 0 1 .75.75v2a.75.75 0 0 1-1.5 0v-2a.75.75 0 0 1 .75-.75Zm4 0a.75.75 0 0 1 .75.75v2a.75.75 0 0 1-1.5 0v-2a.75.75 0 0 1 .75-.75ZM2 15.194a.75.75 0 0 1 .75.75V18A3.25 3.25 0 0 0 6 21.25h2a.75.75 0 0 1 0 1.5H6A4.75 4.75 0 0 1 1.25 18v-2.056a.75.75 0 0 1 .75-.75Zm20 0a.75.75 0 0 1 .75.75V18A4.75 4.75 0 0 1 18 22.75h-2a.75.75 0 0 1 0-1.5h2A3.25 3.25 0 0 0 21.25 18v-2.056a.75.75 0 0 1 .75-.75Z" fill="#868686"/>
</svg>
