<svg width="24" height="24" fill="none" xmlns="http://www.w3.org/2000/svg">
    <path fill-rule="evenodd" clip-rule="evenodd" d="M9 2.75a6.25 6.25 0 1 0 0 12.5h2.5a.75.75 0 0 0 0-1.5H11a.75.75 0 0 1 0-1.5h.5a2.25 2.25 0 0 1 0 4.5H9a7.75 7.75 0 1 1 6.847-11.384A5.75 5.75 0 1 1 17 16.75a.75.75 0 0 1 0-1.5 4.25 4.25 0 1 0-2.975-7.285.75.75 0 1 1-1.05-1.071c.42-.412.903-.76 1.434-1.028A6.248 6.248 0 0 0 9 2.75ZM6.25 19a.75.75 0 0 1 .75-.75h2a.75.75 0 0 1 0 1.5H7a.75.75 0 0 1-.75-.75Zm5 0a.75.75 0 0 1 .75-.75h6.5a2.25 2.25 0 0 1 0 4.5H18a.75.75 0 0 1 0-1.5h.5a.75.75 0 0 0 0-1.5H12a.75.75 0 0 1-.75-.75Z" fill="#868686"/>
</svg>
