<svg width="24" height="24" fill="none" xmlns="http://www.w3.org/2000/svg">
    <path fill-rule="evenodd" clip-rule="evenodd" d="M8.75 4.766c.659.07 1.243.354 1.851.76.314.21.613.438.932.681l.315.239c.43.323.898.66 1.41.933l.706-1.324c-.404-.216-.796-.493-1.215-.808a57.09 57.09 0 0 1-.283-.215 21.153 21.153 0 0 0-1.03-.752c-.944-.63-2.068-1.163-3.52-1-1.08.12-2.218.616-3.19 1.153-.987.544-1.871 1.169-2.456 1.611a2.61 2.61 0 0 0-1.02 2.093v9.67c0 1.517 1.752 2.269 2.905 1.494 1.204-.809 2.714-1.635 3.928-1.77 1.32-.148 2.26.53 3.463 1.446l.067.051c1.125.857 2.511 1.912 4.47 1.693 1.08-.121 2.219-.617 3.192-1.154.986-.544 1.87-1.169 2.455-1.611a2.61 2.61 0 0 0 1.02-2.093v-9.67c0-1.517-1.752-2.269-2.905-1.494-.61.41-1.322.84-2.046 1.178l.634 1.36c.817-.382 1.6-.857 2.25-1.293a.38.38 0 0 1 .382-.013c.132.065.185.165.185.263v9.669c0 .37-.16.697-.424.896a19.61 19.61 0 0 1-2.276 1.495c-.608.336-1.224.617-1.8.795v-2.99h-1.5v3.175c-.993-.103-1.805-.697-2.796-1.45a62.4 62.4 0 0 1-.067-.052c-.959-.73-2.107-1.604-3.637-1.71V4.765Zm-1.5 11.392V4.95c-.576.177-1.192.46-1.8.795A19.605 19.605 0 0 0 3.174 7.24a1.11 1.11 0 0 0-.424.897v9.67c0 .097.053.197.185.262a.38.38 0 0 0 .383-.013c1.049-.704 2.516-1.561 3.932-1.898Z" fill="#868686"/>
    <path fill-rule="evenodd" clip-rule="evenodd" d="M16 2.75a1.25 1.25 0 1 0 0 2.5 1.25 1.25 0 0 0 0-2.5Zm2.122 3a2.75 2.75 0 1 0-4.244 0 4.769 4.769 0 0 0-1.993 1.876A4.731 4.731 0 0 0 11.25 10c0 .966.784 1.75 1.75 1.75a.25.25 0 0 1 .25.25v2a2.75 2.75 0 1 0 5.5 0v-2a.25.25 0 0 1 .25-.25A1.75 1.75 0 0 0 20.75 10c0-.711-.157-1.388-.438-1.996a4.77 4.77 0 0 0-2.19-2.255ZM16 6.75a3.243 3.243 0 0 0-2.816 1.627A3.232 3.232 0 0 0 12.75 10c0 .138.112.25.25.25.966 0 1.75.784 1.75 1.75v2a1.25 1.25 0 1 0 2.5 0v-2A1.75 1.75 0 0 1 19 10.25a.25.25 0 0 0 .25-.25A3.25 3.25 0 0 0 16 6.75Z" fill="#868686"/>
</svg>
