<svg width="24" height="24" fill="none" xmlns="http://www.w3.org/2000/svg">
    <path d="M17 4a3 3 0 0 1 2.958 2.5H4V5a3 3 0 0 1 3-3h2.569a3 3 0 0 1 1.844.634l.94.732A3 3 0 0 0 14.197 4H17Z" fill="#868686"/>
    <path fill-rule="evenodd" clip-rule="evenodd" d="M20.526 8H3.473a2 2 0 0 0-1.955 2.42l1.804 8.418A4 4 0 0 0 7.233 22h9.533a4 4 0 0 0 3.911-3.162l1.804-8.419A2 2 0 0 0 20.525 8ZM9.364 14.706l1.855 2.318a1 1 0 0 0 1.561 0l1.854-2.318c.237-.295.365-.662.365-1.04v-.075a1.591 1.591 0 0 0-2.716-1.125L12 12.75l-.284-.284A1.59 1.59 0 0 0 9 13.591v.075c0 .378.13.745.365 1.04Z" fill="#868686"/>
</svg>
