<svg width="24" height="24" fill="none" xmlns="http://www.w3.org/2000/svg">
    <path fill-rule="evenodd" clip-rule="evenodd" d="M15.494 10.436a.75.75 0 0 1 .07 1.058l-2.87 3.28a1.75 1.75 0 0 1-2.41.214l-1.752-1.402a.75.75 0 0 1 .937-1.172l1.752 1.403a.25.25 0 0 0 .345-.031l2.87-3.28a.75.75 0 0 1 1.058-.07Z" fill="#868686"/>
    <path fill-rule="evenodd" clip-rule="evenodd" d="M5.25 6A2.75 2.75 0 0 1 8 3.25h8A2.75 2.75 0 0 1 18.75 6v14A2.75 2.75 0 0 1 16 22.75H8A2.75 2.75 0 0 1 5.25 20V6ZM8 4.75c-.69 0-1.25.56-1.25 1.25v14c0 .69.56 1.25 1.25 1.25h8c.69 0 1.25-.56 1.25-1.25V6c0-.69-.56-1.25-1.25-1.25H8ZM9.25 2a.75.75 0 0 1 .75-.75h4a.75.75 0 0 1 0 1.5h-4A.75.75 0 0 1 9.25 2Z" fill="#868686"/>
</svg>
