<svg width="24" height="24" fill="none" xmlns="http://www.w3.org/2000/svg">
    <path fill-rule="evenodd" clip-rule="evenodd" d="M22.75 6A4.75 4.75 0 0 0 18 1.25H6A4.75 4.75 0 0 0 1.25 6v12A4.75 4.75 0 0 0 6 22.75h12A4.75 4.75 0 0 0 22.75 18V6ZM18 2.75A3.25 3.25 0 0 1 21.25 6v12A3.25 3.25 0 0 1 18 21.25H6A3.25 3.25 0 0 1 2.75 18V6A3.25 3.25 0 0 1 6 2.75h12Z" fill="#868686"/>
    <path fill-rule="evenodd" clip-rule="evenodd" d="M10.287 7.307A.75.75 0 0 1 10.75 8v8a.75.75 0 0 1-1.5 0V9.81l-.72.72a.75.75 0 0 1-1.06-1.06l2-2a.75.75 0 0 1 .817-.163ZM13.713 16.693A.75.75 0 0 1 13.25 16V8a.75.75 0 0 1 1.5 0v6.19l.72-.72a.75.75 0 0 1 1.06 1.06l-2 2a.75.75 0 0 1-.817.163Z" fill="#868686"/>
</svg>
