<svg width="24" height="24" fill="none" xmlns="http://www.w3.org/2000/svg">
    <path d="M20.832 9.75a6.5 6.5 0 0 1 .189.143c.615-.83.979-1.859.979-2.972 0-.246-.268-.385-.495-.293a4 4 0 0 1-5.502-3.873c.015-.36-.293-.68-.634-.562a5.014 5.014 0 0 0-3.054 2.978 8.53 8.53 0 0 1 3.925 3.373 6.478 6.478 0 0 1 4.592 1.205ZM6.643 19.593a7 7 0 1 1 8.796-9.345A4.994 4.994 0 0 1 17 10c1.102 0 2.12.357 2.947.96a5.002 5.002 0 0 1-1.534 8.837 3.985 3.985 0 0 0-.301-.815c-.2-.406-.45-.77-.674-1.061a9.285 9.285 0 0 0-.822-.928l-.094-.091a1.5 1.5 0 0 0-2.044 0l-.094.09a9.285 9.285 0 0 0-.822.928c-.224.292-.475.656-.674 1.062A3.823 3.823 0 0 0 12.544 20h-.088a3.823 3.823 0 0 0-.344-1.018c-.2-.406-.45-.77-.674-1.061a9.285 9.285 0 0 0-.822-.928l-.094-.091a1.5 1.5 0 0 0-2.044 0l-.094.09a9.286 9.286 0 0 0-.823.928 6.4 6.4 0 0 0-.673 1.062 4.173 4.173 0 0 0-.245.611Z" fill="#868686"/>
    <path d="M11 20.5c0 1.105-.672 1.5-1.5 1.5S8 21.605 8 20.5C8 19.396 9.5 18 9.5 18s1.5 1.396 1.5 2.5ZM15.5 22c.828 0 1.5-.395 1.5-1.5 0-1.104-1.5-2.5-1.5-2.5S14 19.396 14 20.5c0 1.105.672 1.5 1.5 1.5Z" fill="#868686"/>
</svg>
