<svg width="24" height="24" fill="none" xmlns="http://www.w3.org/2000/svg">
    <path fill-rule="evenodd" clip-rule="evenodd" d="M12 1.705a2.315 2.315 0 0 0-3.068.278c-.91.955-.91 2.49 0 3.446l1.607 1.688c.802.844 2.12.844 2.922 0l1.607-1.688c.91-.956.91-2.49 0-3.446A2.315 2.315 0 0 0 12 1.705Zm-.773 1.312a.818.818 0 0 0-1.208 0 1.018 1.018 0 0 0 0 1.378l1.606 1.688a.505.505 0 0 0 .75 0l1.606-1.688a1.018 1.018 0 0 0 0-1.378.818.818 0 0 0-1.208 0l-.23.24a.75.75 0 0 1-1.086 0l-.23-.24Z" fill="#868686"/>
    <path fill-rule="evenodd" clip-rule="evenodd" d="m1.665 9.67 1.585.794v6.3a2.75 2.75 0 0 0 1.52 2.46l6 3a2.75 2.75 0 0 0 2.46 0l6-3a2.75 2.75 0 0 0 1.52-2.46v-6.3l1.585-.793a.75.75 0 0 0 .289-1.087l-2-3a.747.747 0 0 0-.3-.26l-1.989-.995a.75.75 0 1 0-.67 1.342l.658.33L12 9.16l-6.323-3.16.658-.33a.75.75 0 0 0-.67-1.342l-1.988.994a.747.747 0 0 0-.301.261l-2 3a.75.75 0 0 0 .289 1.087Zm8 4L4.75 11.215v5.55c0 .473.268.906.691 1.118l6 3a1.25 1.25 0 0 0 1.118 0l6-3a1.25 1.25 0 0 0 .691-1.118v-5.55l-4.915 2.457a.75.75 0 0 1-.959-.255L12 11.352l-1.376 2.064a.75.75 0 0 1-.96.255ZM4.257 6.968 3.095 8.71l6.648 3.324 1.162-1.742-6.648-3.324Zm10 5.066-1.162-1.742 6.648-3.324 1.162 1.742-6.648 3.324Z" fill="#868686"/>
</svg>
