<svg width="24" height="24" fill="none" xmlns="http://www.w3.org/2000/svg">
    <path fill-rule="evenodd" clip-rule="evenodd" d="M1.47 1.47a.75.75 0 0 1 1.06 0l20 20a.75.75 0 1 1-1.06 1.06l-4.284-4.283A4.748 4.748 0 0 1 13 20.75H6A4.75 4.75 0 0 1 1.25 16V8c0-1.552.744-2.93 1.894-3.796L1.47 2.53a.75.75 0 0 1 0-1.06Zm2.75 3.81A3.247 3.247 0 0 0 2.75 8v8A3.25 3.25 0 0 0 6 19.25h7c1.403 0 2.6-.89 3.054-2.135L4.22 5.28ZM7.25 4A.75.75 0 0 1 8 3.25h5a4.75 4.75 0 0 1 4.72 4.218l.274-.291c1.705-1.819 4.756-.612 4.756 1.88v5.885a2.718 2.718 0 0 1-1.674 2.531.75.75 0 1 1-.586-1.38c.438-.186.76-.594.76-1.15V9.057c0-1.134-1.387-1.682-2.162-.855L17.75 9.63V13a.75.75 0 0 1-1.5 0V8A3.25 3.25 0 0 0 13 4.75H8A.75.75 0 0 1 7.25 4Z" fill="#868686"/>
</svg>
