<svg width="24" height="24" fill="none" xmlns="http://www.w3.org/2000/svg">
    <path fill-rule="evenodd" clip-rule="evenodd" d="M2.75 1.25a.75.75 0 0 0 0 1.5h2C5.44 2.75 6 3.31 6 4v9a4 4 0 0 0 4 4h8a4 4 0 0 0 4-4V8a4 4 0 0 0-4-4H7.5a2.75 2.75 0 0 0-2.75-2.75h-2Zm10.5 8.146-.72.72a.75.75 0 1 1-1.06-1.06l1.293-1.293a1.75 1.75 0 0 1 2.474 0l1.293 1.292a.75.75 0 1 1-1.06 1.061l-.72-.72v4.19a.75.75 0 0 1-1.5 0v-4.19Z" fill="#868686"/>
    <path d="M9.5 22a1.5 1.5 0 1 0 0-3 1.5 1.5 0 0 0 0 3ZM20 20.5a1.5 1.5 0 1 1-3 0 1.5 1.5 0 0 1 3 0Z" fill="#868686"/>
</svg>
