<svg width="24" height="24" fill="none" xmlns="http://www.w3.org/2000/svg">
    <path fill-rule="evenodd" clip-rule="evenodd" d="M16.69 2.856a3.02 3.02 0 0 1 4.228 4.229c.873 2.143.695 4.586-.742 6.391l-2.47 3.102a2.905 2.905 0 0 0-.61 1.59c-.096 1.176-.875 1.99-1.848 2.258-.96.264-2.068-.002-2.898-.832l-8.17-8.17c-.83-.83-1.096-1.939-.832-2.897.269-.974 1.082-1.753 2.259-1.848a2.906 2.906 0 0 0 1.589-.61l3.102-2.47c1.805-1.438 4.248-1.616 6.391-.743Zm2.889 1.34a1.52 1.52 0 0 0-2.15 0l-.073.073a.75.75 0 0 1-.86.143c-1.82-.892-3.855-.761-5.264.36L8.13 7.242a4.405 4.405 0 0 1-2.403.932c-.51.041-.821.348-.933.752-.115.417-.016.974.447 1.437l8.17 8.17c.463.463 1.02.562 1.438.447.403-.111.71-.423.75-.933.072-.888.391-1.721.933-2.403l2.47-3.102c1.122-1.409 1.252-3.444.36-5.264a.75.75 0 0 1 .144-.86l.073-.073a1.52 1.52 0 0 0 0-2.15ZM7.692 15.71a.75.75 0 0 1 .372.993c-.38.837-.212 1.928.555 2.695.767.767 1.857.935 2.694.555a.75.75 0 1 1 .621 1.365c-1.428.65-3.184.332-4.376-.86-1.192-1.191-1.509-2.947-.86-4.376a.75.75 0 0 1 .994-.372Z" fill="#868686"/>
</svg>
