<svg width="24" height="24" fill="none" xmlns="http://www.w3.org/2000/svg">
    <path fill-rule="evenodd" clip-rule="evenodd" d="M6.25 5A.75.75 0 0 1 7 4.25h10a.75.75 0 0 1 0 1.5H7A.75.75 0 0 1 6.25 5Z" fill="#868686"/>
    <path fill-rule="evenodd" clip-rule="evenodd" d="M12 4.25a.75.75 0 0 1 .75.75v8a.75.75 0 0 1-1.5 0V5a.75.75 0 0 1 .75-.75ZM4.25 17c0 .199.079.39.22.53l2 2a.75.75 0 0 0 1.06-1.06l-.72-.72h10.38l-.72.72a.75.75 0 1 0 1.06 1.06l2-2a.75.75 0 0 0 0-1.06l-2-2a.75.75 0 1 0-1.06 1.06l.72.72H6.81l.72-.72a.75.75 0 1 0-1.06-1.06l-2 2a.75.75 0 0 0-.22.53Z" fill="#868686"/>
</svg>
