<svg width="24" height="24" fill="none" xmlns="http://www.w3.org/2000/svg">
    <path d="M1.75 1a.75.75 0 0 1 .75.75v16A3.25 3.25 0 0 0 5.75 21h16a.75.75 0 0 1 0 1.5h-16A4.75 4.75 0 0 1 1 17.75v-16A.75.75 0 0 1 1.75 1Z" fill="#868686"/>
    <path d="M11.5 11.75a.75.75 0 0 0-1.5 0v5a.75.75 0 0 0 1.5 0v-5ZM7.5 13.75a.75.75 0 0 0-1.5 0v3a.75.75 0 0 0 1.5 0v-3ZM14.75 13a.75.75 0 0 1 .75.75v3a.75.75 0 0 1-1.5 0v-3a.75.75 0 0 1 .75-.75ZM19.5 16.75v-5a.75.75 0 0 0-1.5 0v5a.75.75 0 0 0 1.5 0ZM19.28 6.28a.75.75 0 0 0-1.06-1.06l-2.586 2.585a1.25 1.25 0 0 1-1.768 0l-1.171-1.171a2.75 2.75 0 0 0-3.89 0L6.22 9.22a.75.75 0 1 0 1.06 1.06l2.586-2.585a1.25 1.25 0 0 1 1.768 0l1.171 1.171a2.75 2.75 0 0 0 3.89 0L19.28 6.28Z" fill="#868686"/>
</svg>
