<svg width="24" height="24" fill="none" xmlns="http://www.w3.org/2000/svg">
    <path fill-rule="evenodd" clip-rule="evenodd" d="M4.177 5.763a1.75 1.75 0 0 1 1.237-.513H9.5c.966 0 1.75.784 1.75 1.75v4a1.75 1.75 0 0 1-1.75 1.75H5.414a1.75 1.75 0 0 1-1.237-.513l-2-2a1.75 1.75 0 0 1 0-2.474l2-2Zm1.237.987a.25.25 0 0 0-.177.073l-2 2a.25.25 0 0 0 0 .354l2 2a.25.25 0 0 0 .177.073H9.5a.25.25 0 0 0 .25-.25V7a.25.25 0 0 0-.25-.25H5.414ZM19.823 18.237a1.75 1.75 0 0 1-1.237.513H14.5A1.75 1.75 0 0 1 12.75 17v-4c0-.966.784-1.75 1.75-1.75h4.086c.464 0 .91.184 1.237.513l2 2a1.75 1.75 0 0 1 0 2.474l-2 2Zm-1.237-.987a.25.25 0 0 0 .177-.073l2-2a.25.25 0 0 0 0-.354l-2-2a.25.25 0 0 0-.177-.073H14.5a.25.25 0 0 0-.25.25v4c0 .138.112.25.25.25h4.086Z" fill="#868686"/>
    <path fill-rule="evenodd" clip-rule="evenodd" d="M9.75 3c0-.966.784-1.75 1.75-1.75h1c.966 0 1.75.784 1.75 1.75v18a1.75 1.75 0 0 1-1.75 1.75h-1A1.75 1.75 0 0 1 9.75 21V3Zm1.75-.25a.25.25 0 0 0-.25.25v18c0 .138.112.25.25.25h1a.25.25 0 0 0 .25-.25V3a.25.25 0 0 0-.25-.25h-1Z" fill="#868686"/>
</svg>
