<svg width="24" height="24" fill="none" xmlns="http://www.w3.org/2000/svg">
    <path fill-rule="evenodd" clip-rule="evenodd" d="M8 8.779V5a2 2 0 0 1 2-2h10a2 2 0 0 1 2 2v8a2 2 0 0 1-2 2h-1.777a2 2 0 0 1-.913-.22l-8.223-4.222A2 2 0 0 1 8 8.778Zm4-2.529a.75.75 0 0 0 0 1.5h6a.75.75 0 1 0 0-1.5h-6ZM14.25 11a.75.75 0 0 1 .75-.75h3a.75.75 0 1 1 0 1.5h-3a.75.75 0 0 1-.75-.75Z" fill="#868686"/>
    <path d="M10 14a2 2 0 1 1-4 0 2 2 0 0 1 4 0ZM14.313 14.318a.75.75 0 0 1 .369.995c-.605 1.32-2.75 3.71-6.682 3.71-3.34 0-4.981 1.681-5.343 2.338a.75.75 0 0 1-1.314-.722c.638-1.161 2.798-3.116 6.657-3.116 3.268 0 4.923-1.974 5.318-2.835a.75.75 0 0 1 .995-.37Z" fill="#868686"/>
</svg>
