<svg width="24" height="24" fill="none" xmlns="http://www.w3.org/2000/svg">
    <path fill-rule="evenodd" clip-rule="evenodd" d="M2.75 1.25a.75.75 0 0 0 0 1.5h2C5.44 2.75 6 3.31 6 4v9a4 4 0 0 0 4 4h8a4 4 0 0 0 4-4V8a4 4 0 0 0-4-4H7.5a2.75 2.75 0 0 0-2.75-2.75h-2Zm8.952 6.952a.75.75 0 0 1 1.06 0L14 9.439l1.237-1.237a.75.75 0 1 1 1.061 1.06L15.061 10.5l1.237 1.237a.75.75 0 1 1-1.06 1.061L14 11.561l-1.238 1.237a.75.75 0 0 1-1.06-1.06l1.237-1.238-1.237-1.237a.75.75 0 0 1 0-1.061Z" fill="#868686"/>
    <path d="M9.5 22a1.5 1.5 0 1 0 0-3 1.5 1.5 0 0 0 0 3ZM20 20.5a1.5 1.5 0 1 1-3 0 1.5 1.5 0 0 1 3 0Z" fill="#868686"/>
</svg>
