<svg width="24" height="24" fill="none" xmlns="http://www.w3.org/2000/svg">
    <path fill-rule="evenodd" clip-rule="evenodd" d="M17.25 6a2.75 2.75 0 1 1 1.083 2.187l-3.766 2.825a2.75 2.75 0 0 1-4.234 3.175l-3.766 2.825a2.75 2.75 0 1 1-.9-1.2l3.766-2.824a2.75 2.75 0 0 1 4.234-3.175l3.766-2.825A2.743 2.743 0 0 1 17.25 6ZM20 4.75a1.25 1.25 0 1 0 0 2.5 1.25 1.25 0 0 0 0-2.5Zm-8 6a1.25 1.25 0 1 0 0 2.5 1.25 1.25 0 0 0 0-2.5Zm-8 6a1.25 1.25 0 1 0 0 2.5 1.25 1.25 0 0 0 0-2.5Z" fill="#868686"/>
</svg>
