<svg width="24" height="24" fill="none" xmlns="http://www.w3.org/2000/svg">
    <path fill-rule="evenodd" clip-rule="evenodd" d="M15 2.25h6a.75.75 0 0 1 .75.75v6a.75.75 0 0 1-1.5 0V4.81l-9.72 9.72a.75.75 0 1 1-1.06-1.06l9.72-9.72H15a.75.75 0 0 1 0-1.5Z" fill="#868686"/>
    <path fill-rule="evenodd" clip-rule="evenodd" d="M2.25 9A4.75 4.75 0 0 1 7 4.25h5a.75.75 0 0 1 0 1.5H7A3.25 3.25 0 0 0 3.75 9v8A3.25 3.25 0 0 0 7 20.25h8A3.25 3.25 0 0 0 18.25 17v-5a.75.75 0 0 1 1.5 0v5A4.75 4.75 0 0 1 15 21.75H7A4.75 4.75 0 0 1 2.25 17V9Z" fill="#868686"/>
</svg>
