<svg width="24" height="24" fill="none" xmlns="http://www.w3.org/2000/svg">
    <path fill-rule="evenodd" clip-rule="evenodd" d="M5.25 4A2.75 2.75 0 0 1 8 1.25c1.68 0 3.155.872 4 2.187a4.746 4.746 0 0 1 4-2.187 2.75 2.75 0 0 1 2.45 4H20A2.75 2.75 0 0 1 22.75 8v1c0 1.259-.846 2.32-2 2.646V20A2.75 2.75 0 0 1 18 22.75H6A2.75 2.75 0 0 1 3.25 20v-8.354A2.751 2.751 0 0 1 1.25 9V8A2.75 2.75 0 0 1 4 5.25h1.55c-.192-.375-.3-.8-.3-1.25ZM8 5.25h3.163A3.251 3.251 0 0 0 8 2.75a1.25 1.25 0 1 0 0 2.5Zm3.25 1.5H4c-.69 0-1.25.56-1.25 1.25v1c0 .69.56 1.25 1.25 1.25h7.25v-3.5Zm0 5h-6.5V20c0 .69.56 1.25 1.25 1.25h5.25v-9.5Zm1.5 9.5v-9.5h6.5V20c0 .69-.56 1.25-1.25 1.25h-5.25Zm0-11v-3.5H20c.69 0 1.25.56 1.25 1.25v1c0 .69-.56 1.25-1.25 1.25h-7.25Zm.087-5H16a1.25 1.25 0 1 0 0-2.5 3.251 3.251 0 0 0-3.163 2.5Z" fill="#868686"/>
</svg>
