<svg width="24" height="24" fill="none" xmlns="http://www.w3.org/2000/svg">
    <path fill-rule="evenodd" clip-rule="evenodd" d="M9.54 1.926a4.817 4.817 0 0 1 4.92 0l4.844 2.868c1.52.9 2.446 2.556 2.446 4.338v5.736c0 1.782-.927 3.438-2.446 4.338l-4.843 2.868a4.817 4.817 0 0 1-4.922 0l-4.843-2.868c-1.52-.9-2.446-2.556-2.446-4.338V9.132c0-1.782.927-3.438 2.446-4.338L9.54 1.926Zm4.156 1.29a3.317 3.317 0 0 0-3.392 0L5.46 6.086C4.408 6.708 3.75 7.867 3.75 9.132v5.736c0 1.261.654 2.418 1.703 3.043 1.45-2.09 3.838-3.463 6.547-3.463 2.709 0 5.097 1.373 6.547 3.463 1.049-.625 1.703-1.782 1.703-3.043V9.132c0-1.265-.658-2.424-1.71-3.047l-4.844-2.868Zm3.557 15.461c-1.192-1.66-3.105-2.73-5.253-2.73s-4.06 1.07-5.253 2.73l3.557 2.106a3.317 3.317 0 0 0 3.392 0l3.557-2.106Z" fill="#868686"/>
    <path fill-rule="evenodd" clip-rule="evenodd" d="M12 11.25a2.25 2.25 0 1 1 0-4.5 2.25 2.25 0 0 1 0 4.5ZM8.25 9a3.75 3.75 0 1 0 7.5 0 3.75 3.75 0 0 0-7.5 0Z" fill="#868686"/>
</svg>
