<svg width="24" height="24" fill="none" xmlns="http://www.w3.org/2000/svg">
    <path fill-rule="evenodd" clip-rule="evenodd" d="M8.75 3.037v8.734h-1.5V3.223c-.576.177-1.192.459-1.8.794a19.604 19.604 0 0 0-2.276 1.495 1.11 1.11 0 0 0-.424.896v9.67c0 .097.053.197.185.262a.38.38 0 0 0 .383-.012c.948-.637 2.2-1.372 3.44-1.762l.45 1.43c-1.035.326-2.147.967-3.053 1.577-1.153.774-2.905.022-2.905-1.495v-9.67c0-.8.35-1.587 1.02-2.093a21.096 21.096 0 0 1 2.455-1.611c.973-.537 2.111-1.032 3.192-1.153 1.959-.22 3.345.835 4.47 1.692l.067.051c1.204.916 2.143 1.595 3.463 1.447 1.214-.136 2.724-.962 3.928-1.77 1.153-.776 2.905-.024 2.905 1.494v9.67c0 .8-.35 1.586-1.02 2.092a21.087 21.087 0 0 1-2.455 1.612c-.973.537-2.111 1.032-3.192 1.153l-.166-1.49c.786-.089 1.718-.472 2.633-.977a19.597 19.597 0 0 0 2.276-1.494c.264-.2.424-.527.424-.897v-9.67c0-.097-.053-.196-.185-.262a.38.38 0 0 0-.383.013c-1.049.705-2.516 1.562-3.932 1.898v5.753h-1.5V6.25c-1.53-.107-2.678-.98-3.637-1.711l-.067-.05c-.991-.755-1.803-1.348-2.796-1.452Z" fill="#868686"/>
    <path fill-rule="evenodd" clip-rule="evenodd" d="M12 10.695c-2.376 0-4.25 1.841-4.25 4.05 0 1.138.557 2.799 1.445 4.19.438.687.933 1.269 1.437 1.671.509.406.973.589 1.368.589.395 0 .86-.183 1.368-.589.504-.402 1-.984 1.437-1.67.888-1.392 1.445-3.053 1.445-4.191 0-2.209-1.874-4.05-4.25-4.05Zm-5.75 4.05c0-3.094 2.604-5.55 5.75-5.55s5.75 2.456 5.75 5.55c0 1.512-.693 3.451-1.68 4.997-.5.782-1.098 1.503-1.766 2.037-.663.53-1.45.916-2.304.916-.855 0-1.64-.387-2.304-.916-.668-.534-1.266-1.255-1.766-2.037-.987-1.546-1.68-3.485-1.68-4.997Zm5.75-1.05a.75.75 0 1 0 0 1.5.75.75 0 0 0 0-1.5Zm-2.25.75a2.25 2.25 0 1 1 4.5 0 2.25 2.25 0 0 1-4.5 0Z" fill="#868686"/>
</svg>
