<svg width="24" height="24" fill="none" xmlns="http://www.w3.org/2000/svg">
    <path d="M12.752 4.644V6.43a.749.749 0 0 1-.74.756.749.749 0 0 1-.74-.756V4.577l-.655.62a.735.735 0 0 1-1.07-.057.773.773 0 0 1 .062-1.066l2.051-1.899a.492.492 0 0 1 .67 0l2.055 1.895a.78.78 0 0 1 .063 1.076.742.742 0 0 1-1.068.069l-.628-.571ZM2.214 10.613l1.549-1.994a1 1 0 0 1 .79-.387h7.443L9.3 11.826a1 1 0 0 1-.8.4H3.004a1 1 0 0 1-.79-1.613ZM11.996 8.232h7.447a1 1 0 0 1 .79.386l1.55 1.994a1 1 0 0 1-.79 1.614h-5.41a1 1 0 0 1-.79-.387l-2.797-3.607Z" fill="#868686"/>
    <path d="M8.123 13.646H4v5.411c0 1.626 1.343 2.943 3 2.943h10c1.657 0 3-1.317 3-2.943v-5.41h-4.11a3.518 3.518 0 0 1-2.917-1.536l-.966-1.428-.966 1.428a3.518 3.518 0 0 1-2.917 1.535Z" fill="#868686"/>
</svg>
