<svg width="24" height="24" fill="none" xmlns="http://www.w3.org/2000/svg">
    <path fill-rule="evenodd" clip-rule="evenodd" d="M2.47 2.47a.75.75 0 0 1 1.06 0l18 18a.75.75 0 1 1-1.06 1.06l-18-18a.75.75 0 0 1 0-1.06Z" fill="#868686"/>
    <path fill-rule="evenodd" clip-rule="evenodd" d="M16.932 2.967c1.822-1.578 4.819-.385 4.819 2.1v11.87a.75.75 0 1 1-1.5 0V5.067c0-1.087-1.4-1.778-2.337-.967l-5.3 4.59a.75.75 0 0 1-.982-1.134l5.3-4.59Zm-6.385 6.52a.75.75 0 0 1-.077 1.059L4.206 15.97c-.887.768-.393 2.279.943 2.279h13.708l.093-.003a.75.75 0 0 1 .093 1.497 3.014 3.014 0 0 1-.186.006H5.149c-2.594 0-3.96-3.151-1.925-4.913l6.265-5.425a.75.75 0 0 1 1.057.076Z" fill="#868686"/>
</svg>
