<svg width="24" height="24" fill="none" xmlns="http://www.w3.org/2000/svg">
    <path fill-rule="evenodd" clip-rule="evenodd" d="M18.25 2a.75.75 0 0 1 .75-.75h2c.967 0 1.75.784 1.75 1.75v2a.75.75 0 0 1-1.5 0V3.761c-3.883 3.11-6.894 5.131-9.81 6.483-2.98 1.383-5.826 2.05-9.345 2.5a.75.75 0 0 1-.19-1.488c3.424-.437 6.107-1.075 8.905-2.372 2.709-1.257 5.558-3.148 9.303-6.134H19a.75.75 0 0 1-.75-.75ZM20 8.75c-.69 0-1.25.56-1.25 1.25v10a1.25 1.25 0 1 0 2.5 0V10c0-.69-.56-1.25-1.25-1.25ZM17.25 10a2.75 2.75 0 1 1 5.5 0v10a2.75 2.75 0 1 1-5.5 0V10ZM12 12.75c-.69 0-1.25.56-1.25 1.25v6a1.25 1.25 0 1 0 2.5 0v-6c0-.69-.56-1.25-1.25-1.25ZM9.25 14a2.75 2.75 0 1 1 5.5 0v6a2.75 2.75 0 1 1-5.5 0v-6ZM4 16.75c-.69 0-1.25.56-1.25 1.25v2a1.25 1.25 0 1 0 2.5 0v-2c0-.69-.56-1.25-1.25-1.25ZM1.25 18a2.75 2.75 0 1 1 5.5 0v2a2.75 2.75 0 1 1-5.5 0v-2Z" fill="#868686"/>
</svg>
