<svg width="24" height="24" fill="none" xmlns="http://www.w3.org/2000/svg">
    <path fill-rule="evenodd" clip-rule="evenodd" d="M1.47 1.47a.75.75 0 0 1 1.06 0l20 20a.75.75 0 1 1-1.06 1.06l-20-20a.75.75 0 0 1 0-1.06Z" fill="#868686"/>
    <path fill-rule="evenodd" clip-rule="evenodd" d="M12 4.75a9.231 9.231 0 0 0-3.15.55.75.75 0 0 1-.51-1.41A10.732 10.732 0 0 1 12 3.25c5.937 0 10.75 4.813 10.75 10.75 0 1.284-.226 2.517-.64 3.66a.75.75 0 1 1-1.41-.51c.356-.982.55-2.043.55-3.15A9.25 9.25 0 0 0 12 4.75Zm-5.4.8a.75.75 0 0 1-.15 1.05 9.235 9.235 0 0 0-3.7 7.4 9.219 9.219 0 0 0 2.71 6.54.75.75 0 0 1-1.061 1.061A10.719 10.719 0 0 1 1.25 14c0-3.517 1.69-6.64 4.3-8.6a.75.75 0 0 1 1.05.15ZM11.25 8a.75.75 0 0 1 .75-.75A6.75 6.75 0 0 1 18.75 14a.75.75 0 0 1-1.5 0c0-2.9-2.35-5.25-5.25-5.25a.75.75 0 0 1-.75-.75Zm-1.734.485a.75.75 0 0 1-.249 1.031A5.247 5.247 0 0 0 6.75 14c0 1.45.587 2.761 1.538 3.712a.75.75 0 0 1-1.061 1.061A6.731 6.731 0 0 1 5.25 14a6.747 6.747 0 0 1 3.235-5.764.75.75 0 0 1 1.031.25ZM12 12.75A1.25 1.25 0 1 0 13.25 14a.75.75 0 0 1 1.5 0A2.75 2.75 0 1 1 12 11.25a.75.75 0 0 1 0 1.5Z" fill="#868686"/>
</svg>
