<svg width="24" height="24" fill="none" xmlns="http://www.w3.org/2000/svg">
    <path fill-rule="evenodd" clip-rule="evenodd" d="M9 3.75a6.25 6.25 0 0 0-3.57 11.38.75.75 0 1 1-.86 1.23 7.75 7.75 0 1 1 11.276-9.995A5.75 5.75 0 0 1 19.3 17.27a.75.75 0 1 1-.6-1.373 4.251 4.251 0 1 0-4.675-6.932.75.75 0 1 1-1.05-1.071c.42-.412.903-.76 1.434-1.028A6.248 6.248 0 0 0 9 3.75Zm3.278 11.554a.75.75 0 0 1 .418.975l-2 5a.75.75 0 0 1-1.392-.558l2-5a.75.75 0 0 1 .974-.417Zm-3.943.025a.75.75 0 0 1 .336 1.006l-1 2a.75.75 0 1 1-1.342-.67l1-2a.75.75 0 0 1 1.006-.336Zm8 0a.75.75 0 0 1 .336 1.006l-1 2a.75.75 0 1 1-1.342-.67l1-2a.75.75 0 0 1 1.006-.336Z" fill="#868686"/>
</svg>
