<svg width="24" height="24" fill="none" xmlns="http://www.w3.org/2000/svg">
    <path fill-rule="evenodd" clip-rule="evenodd" d="M12 21.25c4.565 0 8.25-3.653 8.25-8.139 0-2.204-1.285-4.814-3.057-6.912-.877-1.038-1.843-1.915-2.775-2.526-.946-.622-1.784-.923-2.418-.923-.634 0-1.472.3-2.418.923-.932.611-1.898 1.488-2.775 2.526C5.035 8.297 3.75 10.907 3.75 13.11c0 4.486 3.685 8.139 8.25 8.139Zm9.75-8.139c0 5.332-4.374 9.639-9.75 9.639s-9.75-4.307-9.75-9.639c0-2.705 1.528-5.65 3.411-7.88.952-1.127 2.025-2.108 3.097-2.812C9.815 1.724 10.946 1.25 12 1.25c1.054 0 2.184.474 3.242 1.169 1.072.704 2.145 1.685 3.097 2.812 1.883 2.23 3.411 5.175 3.411 7.88Z" fill="#868686"/>
    <path fill-rule="evenodd" clip-rule="evenodd" d="M12 1.25a.75.75 0 0 1 .75.75v20a.75.75 0 0 1-1.5 0V2a.75.75 0 0 1 .75-.75Z" fill="#868686"/>
</svg>
