<svg width="24" height="24" fill="none" xmlns="http://www.w3.org/2000/svg">
    <path fill-rule="evenodd" clip-rule="evenodd" d="M3.515 5.848A4.75 4.75 0 0 1 8.123 2.25h3.666a4.75 4.75 0 0 1 2.635.798l1.547 1.031.037.025A2.742 2.742 0 0 1 18 3.25h2A2.75 2.75 0 0 1 22.75 6v7A2.75 2.75 0 0 1 20 15.75h-2c-.673 0-1.29-.242-1.768-.644l-3.58 6.266a.75.75 0 0 1-.652.378h-1.328c-2.596 0-4.144-2.893-2.705-5.053l.632-.947H4.562a2.75 2.75 0 0 1-2.668-3.417l1.621-6.485ZM16.75 13c0 .69.56 1.25 1.25 1.25h2c.69 0 1.25-.56 1.25-1.25V6c0-.69-.56-1.25-1.25-1.25h-2c-.69 0-1.25.56-1.25 1.25v7Zm-1.5-7.465a.25.25 0 0 0-.111-.208l-1.547-1.031a3.25 3.25 0 0 0-1.803-.546H8.123A3.25 3.25 0 0 0 4.97 6.212l-1.62 6.485a1.25 1.25 0 0 0 1.212 1.553H10a.75.75 0 0 1 .624 1.166l-1.408 2.113c-.776 1.163.058 2.721 1.456 2.721h.893l3.652-6.392a.25.25 0 0 0 .033-.124V5.535Z" fill="#868686"/>
</svg>
