<svg width="24" height="24" fill="none" xmlns="http://www.w3.org/2000/svg">
    <path d="M18 2h-6a4.001 4.001 0 0 0-3.71 2.5h13.42A4.001 4.001 0 0 0 18 2ZM2 16v-4h4a2 2 0 1 1 0 4H2Z" fill="#868686"/>
    <path d="M6 6h16v8a1 1 0 0 1-1 1h-3a4 4 0 0 0-4 4v2a1 1 0 0 1-1 1H6a4 4 0 0 1-4-4v-.5h4a3.5 3.5 0 1 0 0-7H2V10a4 4 0 0 1 4-4Z" fill="#868686"/>
    <path d="m19.116 18.53-.72.72H22a.75.75 0 0 1 0 1.5h-3.604l.72.72a.75.75 0 1 1-1.06 1.06l-1.293-1.293a1.75 1.75 0 0 1 0-2.474l1.292-1.293a.75.75 0 1 1 1.061 1.06Z" fill="#868686"/>
</svg>
