<svg width="24" height="24" fill="none" xmlns="http://www.w3.org/2000/svg">
    <path d="m13.47 4.116-.72-.72V5.5a.75.75 0 0 1-1.5 0V3.396l-.72.72a.75.75 0 1 1-1.06-1.06l1.293-1.293a1.75 1.75 0 0 1 2.474 0l1.293 1.292a.75.75 0 0 1-1.06 1.061Z" fill="#868686"/>
    <path fill-rule="evenodd" clip-rule="evenodd" d="M20.9 7.95c-.33-.44-.85-.7-1.4-.7h-15c-.552 0-1.07.26-1.4.7l-1.5 2c-.866 1.154-.043 2.8 1.4 2.8h.25V19A3.75 3.75 0 0 0 7 22.75h10A3.75 3.75 0 0 0 20.75 19v-6.25H21c1.442 0 2.265-1.646 1.4-2.8l-1.5-2ZM7 21.25A2.25 2.25 0 0 1 4.75 19v-6.25H8.5c.55 0 1.069-.26 1.4-.7l2.1-2.8 2.1 2.8c.33.44.85.7 1.4.7h3.75V19A2.25 2.25 0 0 1 17 21.25H7Zm3.5-12.5-1.8 2.4a.25.25 0 0 1-.2.1H3a.25.25 0 0 1-.2-.4l1.5-2a.25.25 0 0 1 .2-.1h6Zm4.8 2.4-1.8-2.4h6a.25.25 0 0 1 .2.1l1.5 2a.25.25 0 0 1-.2.4h-5.5a.25.25 0 0 1-.2-.1Z" fill="#868686"/>
</svg>
