<svg width="24" height="24" fill="none" xmlns="http://www.w3.org/2000/svg">
    <path d="M21.75 8.564a6.485 6.485 0 0 0-5.51-2.02 8.535 8.535 0 0 0-2.957-2.888 5 5 0 0 1 8.468 4.907Z" fill="#868686"/>
    <path d="M5.463 17.042a7 7 0 1 1 9.975-8.793A4.995 4.995 0 0 1 17 8c1.636 0 3.088.786 4 2a5.002 5.002 0 0 1-2.932 7.886A2.25 2.25 0 0 0 14 15.969a2.25 2.25 0 0 0-4 0 2.25 2.25 0 0 0-4.012.025l-.525 1.048Z" fill="#868686"/>
    <path d="M12.696 17.279a.75.75 0 1 0-1.392-.558l-2 5a.75.75 0 1 0 1.392.558l2-5ZM8.67 17.335a.75.75 0 0 0-1.34-.67l-1 2a.75.75 0 0 0 1.34.67l1-2ZM16.67 17.335a.75.75 0 0 0-1.34-.67l-1 2a.75.75 0 0 0 1.34.67l1-2Z" fill="#868686"/>
</svg>
