<svg width="24" height="24" fill="none" xmlns="http://www.w3.org/2000/svg">
    <path fill-rule="evenodd" clip-rule="evenodd" d="M1.25 6A4.75 4.75 0 0 1 6 1.25h12A4.75 4.75 0 0 1 22.75 6v12A4.75 4.75 0 0 1 18 22.75H6A4.75 4.75 0 0 1 1.25 18V6ZM6 2.75A3.25 3.25 0 0 0 2.75 6v12A3.25 3.25 0 0 0 6 21.25h12A3.25 3.25 0 0 0 21.25 18V6A3.25 3.25 0 0 0 18 2.75H6ZM13.75 9a.75.75 0 0 1 .75-.75h1.882a1.75 1.75 0 0 1 1.565.967l.724 1.448a.75.75 0 1 1-1.342.67l-.491-.982-2.446 3.731a1.75 1.75 0 0 1-2.961-.053l-1.908-3.153a.25.25 0 0 0-.434.01l-2.43 4.47a.75.75 0 1 1-1.318-.716l2.43-4.47c.646-1.187 2.336-1.226 3.035-.07l1.908 3.152a.25.25 0 0 0 .423.008L15.44 9.75H14.5a.75.75 0 0 1-.75-.75Z" fill="#868686"/>
</svg>
