<svg width="24" height="24" fill="none" xmlns="http://www.w3.org/2000/svg">
    <path fill-rule="evenodd" clip-rule="evenodd" d="M12.75 2a.75.75 0 0 0-1.5 0v1.649L6.028 8H6a4 4 0 0 0-4 4v6a4 4 0 0 0 4 4h12a4 4 0 0 0 4-4v-6a4 4 0 0 0-4-4h-.028L12.75 3.649V2Zm2.879 6L12 4.976 8.372 8h7.257ZM12 11.25a.75.75 0 0 1 .75.75v6a.75.75 0 0 1-1.5 0v-6a.75.75 0 0 1 .75-.75ZM7.75 12a.75.75 0 0 0-1.5 0v6a.75.75 0 0 0 1.5 0v-6Zm9.25-.75a.75.75 0 0 1 .75.75v6a.75.75 0 0 1-1.5 0v-6a.75.75 0 0 1 .75-.75Z" fill="#868686"/>
</svg>
