<svg width="24" height="24" fill="none" xmlns="http://www.w3.org/2000/svg">
    <path fill-rule="evenodd" clip-rule="evenodd" d="M22 6a4 4 0 0 0-4-4H6a4 4 0 0 0-4 4v5.25h20V6Zm-4-1.75a.75.75 0 0 1 .75.75v2a.75.75 0 0 1-1.5 0V5a.75.75 0 0 1 .75-.75ZM14.75 5a.75.75 0 0 0-1.5 0v2a.75.75 0 0 0 1.5 0V5ZM22 12.75H2V18a4 4 0 0 0 4 4h12a4 4 0 0 0 4-4v-5.25Zm-4 2.5a.75.75 0 0 1 .75.75v2a.75.75 0 0 1-1.5 0v-2a.75.75 0 0 1 .75-.75Zm-3.25.75a.75.75 0 0 0-1.5 0v2a.75.75 0 0 0 1.5 0v-2Z" fill="#868686"/>
</svg>
