<svg width="24" height="24" fill="none" xmlns="http://www.w3.org/2000/svg">
    <path d="M4.53 3.47a.75.75 0 0 0-1.06 1.06l3.78 3.78v9.862a1.27 1.27 0 0 1-.134-.117L5.53 16.47a.75.75 0 0 0-1.06 1.06l1.585 1.586a2.75 2.75 0 0 0 3.89 0l1.585-1.586a.75.75 0 1 0-1.06-1.06l-1.586 1.585a1.27 1.27 0 0 1-.134.117V9.81l10.72 10.72a.75.75 0 1 0 1.06-1.061l-16-16ZM16.75 5.828v7.861l-1.5-1.5V5.83a1.26 1.26 0 0 0-.134.115L13.53 7.53a.75.75 0 1 1-1.06-1.06l1.585-1.586a2.75 2.75 0 0 1 3.89 0L19.53 6.47a.75.75 0 0 1-1.06 1.06l-1.586-1.586a1.26 1.26 0 0 0-.134-.116Z" fill="#868686"/>
</svg>
