<svg width="24" height="24" fill="none" xmlns="http://www.w3.org/2000/svg">
    <path d="M10.281 1.5a2 2 0 0 0 0 4h4a2 2 0 1 0 0-4h-4Z" fill="#868686"/>
    <path fill-rule="evenodd" clip-rule="evenodd" d="M3.281 7.5a4 4 0 0 1 3.5-3.969 3.5 3.5 0 0 0 3.5 3.47h4a3.5 3.5 0 0 0 3.5-3.47 4 4 0 0 1 3.5 3.97v10a4 4 0 0 1-4 4h-10a4 4 0 0 1-4-4v-10Zm8.25 2a.75.75 0 0 1 .75-.75h4a.75.75 0 1 1 0 1.5h-4a.75.75 0 0 1-.75-.75Zm.75 3.25a.75.75 0 0 0 0 1.5h4a.75.75 0 1 0 0-1.5h-4Zm-.75 4.75a.75.75 0 0 1 .75-.75h4a.75.75 0 1 1 0 1.5h-4a.75.75 0 0 1-.75-.75Zm-1.75-8a1 1 0 1 1-2 0 1 1 0 0 1 2 0Zm-1 5a1 1 0 1 0 0-2 1 1 0 0 0 0 2Zm1 3a1 1 0 1 1-2 0 1 1 0 0 1 2 0Z" fill="#868686"/>
</svg>
