<svg width="24" height="24" fill="none" xmlns="http://www.w3.org/2000/svg">
    <path fill-rule="evenodd" clip-rule="evenodd" d="M2.47 2.47a.75.75 0 0 1 1.06 0l18 18a.75.75 0 1 1-1.06 1.06l-1.683-1.682A9.71 9.71 0 0 1 13 21.75H6A4.75 4.75 0 0 1 1.25 17v-5a9.721 9.721 0 0 1 2.825-6.864L2.47 3.53a.75.75 0 0 1 0-1.06Zm2.666 3.727A8.222 8.222 0 0 0 2.75 12v5A3.25 3.25 0 0 0 6 20.25h7a8.21 8.21 0 0 0 4.712-1.477L13.69 14.75H7a.75.75 0 0 1 0-1.5h5.19l-2.5-2.5H7a.75.75 0 0 1 0-1.5h1.19L5.135 6.197Zm2.23-3.247A9.725 9.725 0 0 1 11 2.25h2c5.385 0 9.75 4.365 9.75 9.75 0 1.858-.52 3.597-1.424 5.077a.75.75 0 1 1-1.28-.782A8.25 8.25 0 0 0 13 3.75h-2c-1.088 0-2.125.21-3.075.592a.75.75 0 1 1-.559-1.392Z" fill="#868686"/>
</svg>
