<svg width="24" height="24" fill="none" xmlns="http://www.w3.org/2000/svg">
    <path fill-rule="evenodd" clip-rule="evenodd" d="M1.25 4.936c0-1.506 1.217-2.852 2.829-2.67 2.26.256 5.39.949 7.668 2.545.15.105.356.105.506 0 2.277-1.596 5.408-2.289 7.669-2.544 1.611-.183 2.828 1.163 2.828 2.669V16.2c0 1.543-1.214 2.754-2.66 2.917-2.177.246-5.007.902-6.976 2.282a1.945 1.945 0 0 1-2.228 0c-1.97-1.38-4.8-2.036-6.976-2.282-1.446-.163-2.66-1.374-2.66-2.917V4.936Zm2.66-1.179c-.584-.066-1.16.422-1.16 1.179V16.2c0 .719.579 1.342 1.329 1.427 2.1.237 4.95.852 7.171 2.218V6.24a1.93 1.93 0 0 1-.364-.2c-1.97-1.381-4.8-2.037-6.976-2.283Zm8.84 2.483v13.606c2.22-1.366 5.072-1.981 7.172-2.218.75-.085 1.328-.708 1.328-1.427V4.936c0-.757-.576-1.245-1.16-1.179-2.177.246-5.007.902-6.976 2.282a1.93 1.93 0 0 1-.364.2Zm-8.491 1.9a.75.75 0 0 1 .856-.626c1.303.202 2.77.539 4.156 1.075a.75.75 0 0 1-.542 1.399c-1.258-.487-2.615-.801-3.844-.992a.75.75 0 0 1-.626-.856Zm0 4a.75.75 0 0 1 .856-.626c.66.102 1.36.239 2.068.418a.75.75 0 0 1-.366 1.454 21.192 21.192 0 0 0-1.932-.39.75.75 0 0 1-.626-.856Z" fill="#868686"/>
</svg>
