<svg width="24" height="24" fill="none" xmlns="http://www.w3.org/2000/svg">
    <path fill-rule="evenodd" clip-rule="evenodd" d="M1.25 12c0-5.385 4.365-9.75 9.75-9.75h2c5.385 0 9.75 4.365 9.75 9.75s-4.365 9.75-9.75 9.75H6A4.75 4.75 0 0 1 1.25 17v-5ZM11 3.75A8.25 8.25 0 0 0 2.75 12v5A3.25 3.25 0 0 0 6 20.25h7a8.25 8.25 0 1 0 0-16.5h-2Zm-1.767 6.544a3.25 3.25 0 0 0 4.473 4.473l-4.473-4.473Zm1.06-1.06 4.474 4.472a3.25 3.25 0 0 0-4.473-4.473ZM7.25 12a4.75 4.75 0 1 1 9.5 0 4.75 4.75 0 0 1-9.5 0Z" fill="#868686"/>
</svg>
