<svg width="24" height="24" fill="none" xmlns="http://www.w3.org/2000/svg">
    <path d="M12.75 2.75a.75.75 0 0 0-1.5 0v2.5a.75.75 0 0 0 1.5 0v-2.5ZM12.75 19a.75.75 0 0 0-1.5 0v2.25a.75.75 0 0 0 1.5 0V19ZM19.071 4.929a.75.75 0 0 1 0 1.06l-1.768 1.768a.75.75 0 1 1-1.06-1.06l1.767-1.768a.75.75 0 0 1 1.061 0ZM7.58 17.48a.75.75 0 0 0-1.06-1.06l-1.591 1.59a.75.75 0 1 0 1.06 1.061l1.592-1.59ZM22 12a.75.75 0 0 1-.75.75h-2.5a.75.75 0 0 1 0-1.5h2.5A.75.75 0 0 1 22 12ZM5 12.75a.75.75 0 0 0 0-1.5H2.75a.75.75 0 0 0 0 1.5H5ZM19.071 19.071a.75.75 0 0 1-1.06 0l-1.768-1.768a.75.75 0 1 1 1.06-1.06l1.768 1.767a.75.75 0 0 1 0 1.061ZM6.52 7.58a.75.75 0 1 0 1.06-1.06L5.99 4.929a.75.75 0 0 0-1.061 1.06l1.59 1.592Z" fill="#868686"/>
</svg>
