<svg width="24" height="24" fill="none" xmlns="http://www.w3.org/2000/svg">
    <path fill-rule="evenodd" clip-rule="evenodd" d="M15.611 3H8.388a4 4 0 0 0-3.945 3.342l-1.667 10A4 4 0 0 0 6.722 21H12a1 1 0 0 0 1-1v-3a4 4 0 0 1 4-4h2.486a1 1 0 0 0 .986-1.164l-.915-5.494A4 4 0 0 0 15.61 3Zm.139 4a3.75 3.75 0 0 1-7.5 0V6a.75.75 0 1 1 1.5 0v1a2.25 2.25 0 1 0 4.5 0V6a.75.75 0 1 1 1.5 0v1Z" fill="#868686"/>
    <path d="M20.651 16.409a.75.75 0 0 0-1.06-1.06L18 16.938l-1.591-1.59a.75.75 0 1 0-1.06 1.06L16.938 18l-1.59 1.591a.75.75 0 1 0 1.06 1.06l1.59-1.59 1.592 1.59a.75.75 0 0 0 1.06-1.06L19.061 18l1.59-1.591Z" fill="#868686"/>
</svg>
