<svg width="24" height="24" fill="none" xmlns="http://www.w3.org/2000/svg">
    <path fill-rule="evenodd" clip-rule="evenodd" d="M3.25 4a2.75 2.75 0 0 1 5.5 0v13.789a4.75 4.75 0 0 1-.798 2.635l-1.328 1.992a.75.75 0 0 1-1.248 0l-1.328-1.992a4.75 4.75 0 0 1-.798-2.635V4Zm1.5 2.75v11.039c0 .641.19 1.269.546 1.803L6 20.648l.704-1.056a3.25 3.25 0 0 0 .546-1.803V6.75h-2.5Zm2.5-1.5h-2.5V4a1.25 1.25 0 1 1 2.5 0v1.25Zm3-1.25A2.75 2.75 0 0 1 13 1.25h4A2.75 2.75 0 0 1 19.75 4v16A2.75 2.75 0 0 1 17 22.75h-4A2.75 2.75 0 0 1 10.25 20V4Zm8 13.25H17a.75.75 0 0 0 0 1.5h1.25V20c0 .69-.56 1.25-1.25 1.25h-4c-.69 0-1.25-.56-1.25-1.25V4c0-.69.56-1.25 1.25-1.25h4c.69 0 1.25.56 1.25 1.25v1.25H17a.75.75 0 0 0 0 1.5h1.25v2.5H17a.75.75 0 0 0 0 1.5h1.25v2.5H17a.75.75 0 0 0 0 1.5h1.25v2.5Z" fill="#868686"/>
</svg>
