<svg width="24" height="24" fill="none" xmlns="http://www.w3.org/2000/svg">
    <path d="M9.202 8.141a.75.75 0 0 0-1.06 1.061l2.297 2.298-2.298 2.298a.75.75 0 1 0 1.061 1.06l2.298-2.297 2.298 2.298a.75.75 0 1 0 1.06-1.06L12.562 11.5l2.298-2.298a.75.75 0 0 0-1.06-1.06L11.5 10.438 9.202 8.141Z" fill="#868686"/>
    <path fill-rule="evenodd" clip-rule="evenodd" d="M1.25 11.5c0-5.66 4.59-10.25 10.25-10.25S21.75 5.84 21.75 11.5c0 2.56-.939 4.902-2.491 6.698l3.271 3.272a.75.75 0 1 1-1.06 1.06l-3.272-3.271A10.21 10.21 0 0 1 11.5 21.75c-5.66 0-10.25-4.59-10.25-10.25ZM11.5 2.75a8.75 8.75 0 1 0 0 17.5 8.75 8.75 0 0 0 0-17.5Z" fill="#868686"/>
</svg>
