<svg width="24" height="24" fill="none" xmlns="http://www.w3.org/2000/svg">
    <path fill-rule="evenodd" clip-rule="evenodd" d="M22 18.063V8.466c0-.22-.018-.439-.054-.653H2.054A4 4 0 0 0 2 8.466v9.597a4 4 0 0 0 4 4h12a4 4 0 0 0 4-4Zm-6.436-5.507a.75.75 0 1 0-1.128-.987l-2.87 3.28a.25.25 0 0 1-.345.03L9.47 13.477a.75.75 0 0 0-.938 1.171l1.753 1.402a1.75 1.75 0 0 0 2.41-.214l2.87-3.28Z" fill="#868686"/>
    <path d="M21.123 5.967c.09.111.172.226.248.346H2.63c.076-.12.159-.235.248-.346l1.922-2.403a4 4 0 0 1 3.123-1.502h8.156A4 4 0 0 1 19.2 3.564l1.922 2.403Z" fill="#868686"/>
</svg>
