<svg width="24" height="24" fill="none" xmlns="http://www.w3.org/2000/svg">
    <path fill-rule="evenodd" clip-rule="evenodd" d="M1.25 7A4.75 4.75 0 0 1 6 2.25h12A4.75 4.75 0 0 1 22.75 7v1c0 1.002-.808 1.638-1.486 1.873a2.251 2.251 0 0 0 0 4.254c.678.235 1.486.87 1.486 1.873v1A4.75 4.75 0 0 1 18 21.75H6A4.75 4.75 0 0 1 1.25 17v-1c0-1.002.808-1.638 1.487-1.873a2.251 2.251 0 0 0 0-4.254C2.057 9.638 1.25 9.003 1.25 8V7ZM6 3.75A3.25 3.25 0 0 0 2.75 7v1c0 .056.02.13.102.219a.921.921 0 0 0 .375.237 3.751 3.751 0 0 1 0 7.088.92.92 0 0 0-.375.237c-.081.09-.102.163-.102.219v1A3.25 3.25 0 0 0 6 20.25h12A3.25 3.25 0 0 0 21.25 17v-1c0-.056-.02-.13-.102-.219a.92.92 0 0 0-.375-.237 3.751 3.751 0 0 1 0-7.088.921.921 0 0 0 .375-.237c.081-.09.102-.163.102-.219V7A3.25 3.25 0 0 0 18 3.75H6Zm4 1.5a.75.75 0 0 1 .75.75v2a.75.75 0 0 1-1.5 0V6a.75.75 0 0 1 .75-.75Zm0 5a.75.75 0 0 1 .75.75v2a.75.75 0 0 1-1.5 0v-2a.75.75 0 0 1 .75-.75Zm0 5a.75.75 0 0 1 .75.75v2a.75.75 0 0 1-1.5 0v-2a.75.75 0 0 1 .75-.75Z" fill="#868686"/>
</svg>
