<svg width="24" height="24" fill="none" xmlns="http://www.w3.org/2000/svg">
    <path fill-rule="evenodd" clip-rule="evenodd" d="M5.582 3.751c-.694-.019-1.137.157-1.406.425-.268.269-.444.712-.425 1.406.02.696.237 1.572.668 2.578.345.804.816 1.668 1.401 2.56a29.398 29.398 0 0 1 2.308-2.592A29.392 29.392 0 0 1 10.72 5.82a16.76 16.76 0 0 0-2.56-1.4c-1.006-.432-1.882-.65-2.578-.669ZM12 4.874c-1.118-.772-2.217-1.391-3.249-1.833-1.11-.476-2.178-.763-3.127-.789-.951-.027-1.854.21-2.508.864-.655.654-.89 1.557-.864 2.508.026.949.313 2.017.789 3.127.442 1.032 1.061 2.131 1.833 3.249-.772 1.118-1.391 2.217-1.833 3.249-.476 1.11-.762 2.178-.789 3.127-.026.951.21 1.854.864 2.508.654.655 1.557.89 2.508.864.949-.027 2.017-.313 3.127-.789 1.032-.442 2.131-1.061 3.249-1.833 1.118.772 2.217 1.391 3.249 1.833 1.11.476 2.178.762 3.127.789.95.026 1.854-.21 2.508-.864.654-.654.89-1.557.864-2.508-.027-.949-.313-2.017-.789-3.127-.442-1.032-1.061-2.131-1.834-3.249.773-1.118 1.392-2.217 1.834-3.249.476-1.11.762-2.178.789-3.127.026-.951-.21-1.854-.864-2.508-.654-.655-1.557-.89-2.508-.864-.949.026-2.017.313-3.127.789-1.032.442-2.131 1.061-3.249 1.833Zm0 1.853a27.58 27.58 0 0 0-2.811 2.462A27.574 27.574 0 0 0 6.727 12c.71.935 1.535 1.884 2.462 2.811A27.586 27.586 0 0 0 12 17.273a27.59 27.59 0 0 0 2.811-2.462A27.58 27.58 0 0 0 17.273 12a27.571 27.571 0 0 0-2.462-2.811A27.583 27.583 0 0 0 12 6.727Zm6.18 3.993a29.415 29.415 0 0 0-2.308-2.592A29.404 29.404 0 0 0 13.28 5.82a16.757 16.757 0 0 1 2.56-1.4c1.006-.432 1.882-.65 2.578-.669.694-.019 1.137.157 1.406.425.268.269.444.712.424 1.406-.019.696-.236 1.572-.667 2.578a16.756 16.756 0 0 1-1.401 2.56Zm0 2.56a29.405 29.405 0 0 1-2.308 2.592 29.39 29.39 0 0 1-2.592 2.308 16.755 16.755 0 0 0 2.56 1.4c1.006.432 1.881.65 2.578.669.694.019 1.137-.157 1.406-.425.268-.269.444-.712.424-1.406-.019-.696-.236-1.572-.667-2.578a16.758 16.758 0 0 0-1.401-2.56Zm-7.46 4.9a29.388 29.388 0 0 1-2.592-2.308A29.39 29.39 0 0 1 5.82 13.28a16.762 16.762 0 0 0-1.4 2.56c-.432 1.006-.65 1.882-.668 2.578-.02.694.156 1.137.424 1.406.269.268.712.444 1.406.424.696-.019 1.572-.236 2.578-.667a16.744 16.744 0 0 0 2.56-1.401ZM12 10.75a1.25 1.25 0 1 0 0 2.5 1.25 1.25 0 0 0 0-2.5ZM9.25 12a2.75 2.75 0 1 1 5.5 0 2.75 2.75 0 0 1-5.5 0Z" fill="#868686"/>
</svg>
