<svg width="24" height="24" fill="none" xmlns="http://www.w3.org/2000/svg">
    <path fill-rule="evenodd" clip-rule="evenodd" d="M7 2.75a4.25 4.25 0 0 0-2.501 7.686.75.75 0 0 1 .302.695 7.25 7.25 0 0 0 8.067 8.067.75.75 0 0 1 .696.303 4.25 4.25 0 1 0 5.938-5.938.75.75 0 0 1-.303-.694 7.25 7.25 0 0 0-8.067-8.067.75.75 0 0 1-.696-.303A4.243 4.243 0 0 0 7 2.75ZM1.25 7a5.75 5.75 0 0 1 10.128-3.728 8.75 8.75 0 0 1 9.35 9.35 5.75 5.75 0 1 1-8.106 8.106 8.75 8.75 0 0 1-9.35-9.35A5.739 5.739 0 0 1 1.25 7Z" fill="#868686"/>
    <path fill-rule="evenodd" clip-rule="evenodd" d="M8.75 10a2.75 2.75 0 0 1 2.75-2.75h1A2.75 2.75 0 0 1 15.25 10a.75.75 0 0 1-1.5 0c0-.69-.56-1.25-1.25-1.25h-1a1.25 1.25 0 1 0 0 2.5h1a2.75 2.75 0 1 1 0 5.5h-1A2.75 2.75 0 0 1 8.75 14a.75.75 0 0 1 1.5 0c0 .69.56 1.25 1.25 1.25h1a1.25 1.25 0 1 0 0-2.5h-1A2.75 2.75 0 0 1 8.75 10Z" fill="#868686"/>
</svg>
