<svg width="24" height="24" fill="none" xmlns="http://www.w3.org/2000/svg">
    <path fill-rule="evenodd" clip-rule="evenodd" d="M2 1.25a.75.75 0 0 1 .75.75v16A3.25 3.25 0 0 0 6 21.25h16a.75.75 0 0 1 0 1.5H6A4.75 4.75 0 0 1 1.25 18V2A.75.75 0 0 1 2 1.25Zm4.642 7.091a.75.75 0 0 1 1.017.3l2.43 4.47a.25.25 0 0 0 .434.01L12.43 9.97a1.75 1.75 0 0 1 2.96-.053l2.447 3.731.491-.982a.75.75 0 1 1 1.342.67l-.724 1.448a1.75 1.75 0 0 1-1.565.967H15.5a.75.75 0 0 1 0-1.5h.94l-2.303-3.512a.25.25 0 0 0-.423.008l-1.908 3.152c-.7 1.156-2.39 1.117-3.034-.07l-2.43-4.47a.75.75 0 0 1 .3-1.017Z" fill="#868686"/>
</svg>
