<svg width="24" height="24" fill="none" xmlns="http://www.w3.org/2000/svg">
    <path fill-rule="evenodd" clip-rule="evenodd" d="M7.5 4.75a1.75 1.75 0 1 0 0 3.5 1.75 1.75 0 0 0 0-3.5ZM4.25 6.5a3.25 3.25 0 1 1 6.5 0 3.25 3.25 0 0 1-6.5 0Zm8.9 3.288a4.75 4.75 0 0 1 5.995-.593l2.38 1.587a2.75 2.75 0 0 1 1.225 2.288V16A4.75 4.75 0 0 1 18 20.75H6A4.75 4.75 0 0 1 1.25 16v-2.132c0-1.397 1.558-2.23 2.72-1.456l1.718 1.145a3.25 3.25 0 0 0 4.1-.406l3.363-3.363Zm5.162.655a3.25 3.25 0 0 0-4.1.406l-3.363 3.363a4.75 4.75 0 0 1-5.994.593L3.14 13.661a.25.25 0 0 0-.389.207V16A3.25 3.25 0 0 0 6 19.25h12A3.25 3.25 0 0 0 21.25 16v-2.93a1.25 1.25 0 0 0-.557-1.04l-2.38-1.587Z" fill="#868686"/>
</svg>
