<svg width="24" height="24" fill="none" xmlns="http://www.w3.org/2000/svg">
    <path fill-rule="evenodd" clip-rule="evenodd" d="M20 14c0-4.164-4.546-8.87-6.784-10.934a1.779 1.779 0 0 0-2.431 0C8.546 5.13 4 9.836 4 14c0 5.523 4.213 8 8 8s8-2.477 8-8Zm-8 4.75a.75.75 0 1 0 0-1.5.75.75 0 0 0 0 1.5Zm-3.712-4.463A5.231 5.231 0 0 1 12 12.75c1.45 0 2.761.587 3.712 1.538a.75.75 0 1 0 1.06-1.06A6.731 6.731 0 0 0 12 11.249a6.731 6.731 0 0 0-4.773 1.978.75.75 0 1 0 1.06 1.06Zm2.121 2.121A2.24 2.24 0 0 1 12 15.75a2.24 2.24 0 0 1 1.591.66.75.75 0 1 0 1.06-1.061A3.74 3.74 0 0 0 12 14.249a3.74 3.74 0 0 0-2.652 1.099.75.75 0 1 0 1.061 1.06Z" fill="#868686"/>
</svg>
