<svg width="24" height="24" fill="none" xmlns="http://www.w3.org/2000/svg">
    <path d="M12.754 6.472V4.685l.628.57a.742.742 0 0 0 1.068-.068.78.78 0 0 0-.063-1.076l-2.054-1.895a.492.492 0 0 0-.671 0l-2.051 1.9A.773.773 0 0 0 9.55 5.18c.277.323.76.35 1.069.057l.654-.62v1.854c0 .418.332.756.74.756.41 0 .741-.338.741-.756ZM4.016 6.085l7.96 3.993-1.944 2.987-8.003-4.023 1.987-2.957ZM11.976 10.078l8.015-3.967L22.018 9.1l-8.02 3.965-2.022-2.987Z" fill="#868686"/>
    <path d="M4 11.739v5.195a2 2 0 0 0 1.095 1.784l6 3.047a2 2 0 0 0 1.811 0l6-3.047a2 2 0 0 0 1.095-1.784V11.74l-5.33 2.707c-.676.343-1.499.122-1.918-.518L12 12.782l-.752 1.146c-.42.64-1.243.861-1.92.518l-5.328-2.707Z" fill="#868686"/>
</svg>
