<svg width="24" height="24" fill="none" xmlns="http://www.w3.org/2000/svg">
    <path fill-rule="evenodd" clip-rule="evenodd" d="M3.25 7A2.75 2.75 0 0 1 6 4.25h2A2.75 2.75 0 0 1 10.75 7v10A2.75 2.75 0 0 1 8 19.75H6A2.75 2.75 0 0 1 3.25 17V7ZM6 5.75c-.69 0-1.25.56-1.25 1.25v10c0 .69.56 1.25 1.25 1.25h2c.69 0 1.25-.56 1.25-1.25V7c0-.69-.56-1.25-1.25-1.25H6ZM13.25 7A2.75 2.75 0 0 1 16 4.25h2A2.75 2.75 0 0 1 20.75 7v10A2.75 2.75 0 0 1 18 19.75h-2A2.75 2.75 0 0 1 13.25 17V7ZM16 5.75c-.69 0-1.25.56-1.25 1.25v10c0 .69.56 1.25 1.25 1.25h2c.69 0 1.25-.56 1.25-1.25V7c0-.69-.56-1.25-1.25-1.25h-2Z" fill="#868686"/>
</svg>
