<svg width="24" height="24" fill="none" xmlns="http://www.w3.org/2000/svg">
    <path fill-rule="evenodd" clip-rule="evenodd" d="M8.25 10A2.75 2.75 0 0 1 11 7.25h2A2.75 2.75 0 0 1 15.75 10v3.55c.375-.192.8-.3 1.25-.3h2A2.75 2.75 0 0 1 21.75 16v4A2.75 2.75 0 0 1 19 22.75h-2a2.742 2.742 0 0 1-2-.863 2.742 2.742 0 0 1-2 .863h-2a2.742 2.742 0 0 1-2-.863 2.742 2.742 0 0 1-2 .863H5A2.75 2.75 0 0 1 2.25 20v-6A2.75 2.75 0 0 1 5 11.25h2c.45 0 .875.108 1.25.3V10Zm1.5 10c0 .69.56 1.25 1.25 1.25h2c.69 0 1.25-.56 1.25-1.25V10c0-.69-.56-1.25-1.25-1.25h-2c-.69 0-1.25.56-1.25 1.25v10Zm-1.5-6c0-.69-.56-1.25-1.25-1.25H5c-.69 0-1.25.56-1.25 1.25v6c0 .69.56 1.25 1.25 1.25h2c.69 0 1.25-.56 1.25-1.25v-6Zm7.5 6c0 .69.56 1.25 1.25 1.25h2c.69 0 1.25-.56 1.25-1.25v-4c0-.69-.56-1.25-1.25-1.25h-2c-.69 0-1.25.56-1.25 1.25v4Z" fill="#868686"/>
    <path d="M11.524 1.963a.5.5 0 0 1 .95 0l.158.482a.5.5 0 0 0 .475.346h.508a.5.5 0 0 1 .294.904l-.41.299a.5.5 0 0 0-.183.559l.157.483a.5.5 0 0 1-.77.559l-.41-.299a.5.5 0 0 0-.588 0l-.41.299a.5.5 0 0 1-.77-.56l.157-.482a.5.5 0 0 0-.181-.56l-.411-.298a.5.5 0 0 1 .294-.904h.507a.5.5 0 0 0 .476-.346l.157-.482Z" fill="#868686"/>
</svg>
