<svg width="24" height="24" fill="none" xmlns="http://www.w3.org/2000/svg">
    <path fill-rule="evenodd" clip-rule="evenodd" d="M5.25 5A2.75 2.75 0 0 1 8 2.25h8A2.75 2.75 0 0 1 18.75 5v8A2.75 2.75 0 0 1 16 15.75H8A2.75 2.75 0 0 1 5.25 13V5ZM8 3.75c-.69 0-1.25.56-1.25 1.25v8c0 .69.56 1.25 1.25 1.25h8c.69 0 1.25-.56 1.25-1.25V5c0-.69-.56-1.25-1.25-1.25H8Z" fill="#868686"/>
    <path fill-rule="evenodd" clip-rule="evenodd" d="M1.25 18A3.75 3.75 0 0 1 5 14.25h14a3.75 3.75 0 1 1 0 7.5H5A3.75 3.75 0 0 1 1.25 18ZM5 15.75a2.25 2.25 0 0 0 0 4.5h14a2.25 2.25 0 0 0 0-4.5H5Z" fill="#868686"/>
    <path d="M18 18a1 1 0 1 1-2 0 1 1 0 0 1 2 0ZM13 18a1 1 0 1 1-2 0 1 1 0 0 1 2 0ZM8 18a1 1 0 1 1-2 0 1 1 0 0 1 2 0Z" fill="#868686"/>
    <path fill-rule="evenodd" clip-rule="evenodd" d="M13.75 6a.75.75 0 0 1-.75.75h-2a.75.75 0 0 1 0-1.5h2a.75.75 0 0 1 .75.75Z" fill="#868686"/>
</svg>
