<svg width="24" height="24" fill="none" xmlns="http://www.w3.org/2000/svg">
    <path fill-rule="evenodd" clip-rule="evenodd" d="M1.25 7A4.75 4.75 0 0 1 6 2.25h12A4.75 4.75 0 0 1 22.75 7v10A4.75 4.75 0 0 1 18 21.75H8a.75.75 0 0 1 0-1.5h10A3.25 3.25 0 0 0 21.25 17V7A3.25 3.25 0 0 0 18 3.75H6A3.25 3.25 0 0 0 2.75 7v5a.75.75 0 0 1-1.5 0V7Zm4.126.584a.75.75 0 0 1 1.04-.208l3.781 2.52a3.25 3.25 0 0 0 3.606 0l3.781-2.52a.75.75 0 1 1 .832 1.248l-3.781 2.52a4.75 4.75 0 0 1-5.27 0l-3.781-2.52a.75.75 0 0 1-.208-1.04ZM1.25 15a.75.75 0 0 1 .75-.75h6a.75.75 0 0 1 0 1.5H2a.75.75 0 0 1-.75-.75Zm0 3a.75.75 0 0 1 .75-.75h6a.75.75 0 0 1 0 1.5H2a.75.75 0 0 1-.75-.75Z" fill="#868686"/>
</svg>
