<svg width="24" height="24" fill="none" xmlns="http://www.w3.org/2000/svg">
    <path fill-rule="evenodd" clip-rule="evenodd" d="M1.25 6A4.75 4.75 0 0 1 6 1.25h12A4.75 4.75 0 0 1 22.75 6v12A4.75 4.75 0 0 1 18 22.75H6A4.75 4.75 0 0 1 1.25 18V6ZM6 2.75A3.25 3.25 0 0 0 2.75 6v12A3.25 3.25 0 0 0 6 21.25h12A3.25 3.25 0 0 0 21.25 18V6A3.25 3.25 0 0 0 18 2.75H6Zm7.693 5.213a1.25 1.25 0 0 0-1.943 1.04v3.263a2.75 2.75 0 1 1-1.5-2.45v-.813c0-2.196 2.448-3.506 4.275-2.288l2 1.334a2.75 2.75 0 0 1 1.225 2.288v4.93a2.75 2.75 0 1 1-1.5-2.45v-2.48a1.25 1.25 0 0 0-.557-1.04l-2-1.334Zm2.557 7.303a1.25 1.25 0 1 0-2.5 0 1.25 1.25 0 0 0 2.5 0Zm-6-3a1.25 1.25 0 1 0-2.5 0 1.25 1.25 0 0 0 2.5 0Z" fill="#868686"/>
</svg>
