<svg width="24" height="24" fill="none" xmlns="http://www.w3.org/2000/svg">
    <path d="M10 2h4a2 2 0 1 1 0 4h-4a2 2 0 1 1 0-4Z" fill="#868686"/>
    <path fill-rule="evenodd" clip-rule="evenodd" d="M6.507 4.03A3.25 3.25 0 0 0 9.75 7.5h4.5a3.25 3.25 0 0 0 3.243-3.47A4 4 0 0 1 21 8v10a4 4 0 0 1-4 4H7a4 4 0 0 1-4-4V8a4 4 0 0 1 3.507-3.97ZM7.25 10A.75.75 0 0 1 8 9.25h8a.75.75 0 0 1 0 1.5H8a.75.75 0 0 1-.75-.75ZM8 13.25a.75.75 0 0 0 0 1.5h8a.75.75 0 0 0 0-1.5H8ZM7.25 18a.75.75 0 0 1 .75-.75h4a.75.75 0 0 1 0 1.5H8a.75.75 0 0 1-.75-.75Z" fill="#868686"/>
</svg>
