<svg width="24" height="24" fill="none" xmlns="http://www.w3.org/2000/svg">
    <path fill-rule="evenodd" clip-rule="evenodd" d="M11 2.75A2.25 2.25 0 0 0 8.75 5v.25h6.5V5A2.25 2.25 0 0 0 13 2.75h-2Zm5.75 2.5V5A3.75 3.75 0 0 0 13 1.25h-2A3.75 3.75 0 0 0 7.25 5v.25H6A4.75 4.75 0 0 0 1.25 10v8A4.75 4.75 0 0 0 6 22.75h12A4.75 4.75 0 0 0 22.75 18v-8A4.75 4.75 0 0 0 18 5.25h-1.25ZM6 6.75a3.25 3.25 0 0 0-3.227 2.86 12.632 12.632 0 0 0 1.928.91c.686.26 1.534.526 2.549.75v-.593a.75.75 0 0 1 1.5 0v.872c.972.146 2.06.25 3.27.282 1.195.032 2.27-.028 3.23-.149v-1.005a.75.75 0 0 1 1.5 0v.753c1.01-.214 1.852-.49 2.532-.765a10.748 10.748 0 0 0 1.715-.869c.09-.057.167-.109.233-.155A3.25 3.25 0 0 0 18 6.75H6Zm15.25 4.638c-.38.21-.846.44-1.404.666-.831.338-1.861.667-3.096.907v.716a.75.75 0 0 1-1.5 0v-.484c-.985.115-2.075.17-3.27.138a28.326 28.326 0 0 1-3.23-.266v.612a.75.75 0 0 1-1.5 0v-.873a20.299 20.299 0 0 1-3.08-.88 15.202 15.202 0 0 1-1.42-.619V18A3.25 3.25 0 0 0 6 21.25h12A3.25 3.25 0 0 0 21.25 18v-6.612Z" fill="#868686"/>
</svg>
