<svg width="24" height="24" fill="none" xmlns="http://www.w3.org/2000/svg">
    <path fill-rule="evenodd" clip-rule="evenodd" d="M4 1.25A2.75 2.75 0 0 0 1.25 4v4A2.75 2.75 0 0 0 4 10.75h6A2.75 2.75 0 0 0 12.75 8V4A2.75 2.75 0 0 0 10 1.25H4ZM2.75 4c0-.69.56-1.25 1.25-1.25h6c.69 0 1.25.56 1.25 1.25v4c0 .69-.56 1.25-1.25 1.25H4c-.69 0-1.25-.56-1.25-1.25V4ZM14 13.25A2.75 2.75 0 0 0 11.25 16v4A2.75 2.75 0 0 0 14 22.75h6A2.75 2.75 0 0 0 22.75 20v-4A2.75 2.75 0 0 0 20 13.25h-6ZM12.75 16c0-.69.56-1.25 1.25-1.25h6c.69 0 1.25.56 1.25 1.25v4c0 .69-.56 1.25-1.25 1.25h-6c-.69 0-1.25-.56-1.25-1.25v-4Z" fill="#868686"/>
    <path d="m20.604 6.75-.72.72a.75.75 0 0 0 1.06 1.06l1.293-1.293a1.75 1.75 0 0 0 0-2.474L20.945 3.47a.75.75 0 1 0-1.061 1.06l.72.72H16a.75.75 0 0 0 0 1.5h4.604ZM4.116 19.47l-.72-.72H8a.75.75 0 0 0 0-1.5H3.396l.72-.72a.75.75 0 1 0-1.06-1.06l-1.293 1.293a1.75 1.75 0 0 0 0 2.474l1.292 1.293a.75.75 0 0 0 1.061-1.06Z" fill="#868686"/>
</svg>
