<svg width="24" height="24" fill="none" xmlns="http://www.w3.org/2000/svg">
    <path d="M16.75 11.941v9.868c1.692-.456 3.539-1.724 4.528-2.472A1.86 1.86 0 0 0 22 17.843v-9.67c0-.853-1.028-1.348-1.736-.872-.508.34-1.091.701-1.702 1.016a6.597 6.597 0 0 1-1.812 3.624ZM8.75 13.094v5.659c1.278.107 2.264.857 3.25 1.607.986.75 1.972 1.5 3.25 1.607v-8.874c-.96.54-2.069.85-3.25.85-1.18 0-2.29-.309-3.25-.85ZM5.372 6.916c-1.056.552-2.024 1.233-2.65 1.706A1.86 1.86 0 0 0 2 10.117v9.669c0 .853 1.028 1.348 1.736.872 1-.672 2.297-1.42 3.514-1.747v-6.97a6.622 6.622 0 0 1-1.878-5.025Z" fill="#868686"/>
    <path fill-rule="evenodd" clip-rule="evenodd" d="M17.283 7.856A5.311 5.311 0 1 0 6.718 6.75a5.311 5.311 0 0 0 10.565 1.106Zm-7.72-.185 1.342.447a.442.442 0 0 1 .28.28l.447 1.342a.443.443 0 0 0 .827.034l1.76-4.11a.443.443 0 0 0-.58-.58l-4.11 1.76a.443.443 0 0 0 .035.827Z" fill="#868686"/>
</svg>
