<svg width="24" height="24" fill="none" xmlns="http://www.w3.org/2000/svg">
    <path fill-rule="evenodd" clip-rule="evenodd" d="M9.01 3.846a3.02 3.02 0 0 1 5.98 0c2.133.898 3.735 2.752 3.995 5.045l.447 3.94c.063.554.298 1.092.692 1.555.388.457.595.986.623 1.524a.75.75 0 1 1-1.498.078 1.046 1.046 0 0 0-.268-.63A4.405 4.405 0 0 1 17.941 13l-.447-3.94c-.203-1.789-1.55-3.32-3.467-3.977a.75.75 0 0 1-.507-.71V4.27a1.52 1.52 0 1 0-3.04 0v.104a.75.75 0 0 1-.507.71 5.9 5.9 0 0 0-.812.347.75.75 0 0 1-.693-1.33c.176-.092.357-.177.542-.255ZM2.518 2.47a.75.75 0 0 1 1.061 0l18 18a.75.75 0 1 1-1.06 1.06l-2.78-2.78H6.222c-1.173 0-2.146-.596-2.637-1.46-.498-.878-.474-2.005.29-2.904a2.906 2.906 0 0 0 .692-1.555l.447-3.94a5.775 5.775 0 0 1 .7-2.165L2.518 3.53a.75.75 0 0 1 0-1.06Zm4.314 5.374a4.238 4.238 0 0 0-.326 1.216L6.059 13a4.405 4.405 0 0 1-1.04 2.358c-.332.39-.335.827-.128 1.191.214.377.677.701 1.332.701h10.015L6.833 7.844Zm1.905 11.454a.75.75 0 0 1 .965.439c.323.86 1.214 1.513 2.298 1.513 1.085 0 1.975-.652 2.298-1.513a.75.75 0 1 1 1.405.526c-.551 1.47-2.017 2.487-3.703 2.487-1.685 0-3.151-1.017-3.702-2.487a.75.75 0 0 1 .439-.965Z" fill="#868686"/>
</svg>
