<svg width="24" height="24" fill="none" xmlns="http://www.w3.org/2000/svg">
    <path fill-rule="evenodd" clip-rule="evenodd" d="M6 1.25a.75.75 0 0 1 .75.75v2.25H8A2.75 2.75 0 0 1 10.75 7v4A2.75 2.75 0 0 1 8 13.75H4A2.75 2.75 0 0 1 1.25 11V7A2.75 2.75 0 0 1 4 4.25h1.25V2A.75.75 0 0 1 6 1.25Zm-2 4.5c-.69 0-1.25.56-1.25 1.25v4c0 .69.56 1.25 1.25 1.25h4c.69 0 1.25-.56 1.25-1.25V7c0-.69-.56-1.25-1.25-1.25H4Zm14-4.5a.75.75 0 0 1 .75.75v6a.75.75 0 0 1-1.5 0V2a.75.75 0 0 1 .75-.75Zm-2 10.5c-.69 0-1.25.56-1.25 1.25v4c0 .69.56 1.25 1.25 1.25h4c.69 0 1.25-.56 1.25-1.25v-4c0-.69-.56-1.25-1.25-1.25h-4Zm2.75 8H20A2.75 2.75 0 0 0 22.75 17v-4A2.75 2.75 0 0 0 20 10.25h-4A2.75 2.75 0 0 0 13.25 13v4A2.75 2.75 0 0 0 16 19.75h1.25V22a.75.75 0 0 0 1.5 0v-2.25ZM6 15.25a.75.75 0 0 1 .75.75v6a.75.75 0 0 1-1.5 0v-6a.75.75 0 0 1 .75-.75Z" fill="#868686"/>
</svg>
