<svg width="24" height="24" fill="none" xmlns="http://www.w3.org/2000/svg">
    <path d="M17 4a3.001 3.001 0 0 1 2.958 2.5H3.999V5a3 3 0 0 1 3-3h2.57a3 3 0 0 1 1.844.634l.94.732A3 3 0 0 0 14.197 4h2.802Z" fill="#868686"/>
    <path fill-rule="evenodd" clip-rule="evenodd" d="M20.526 8H3.473a2 2 0 0 0-1.955 2.42l1.804 8.418A4 4 0 0 0 7.233 22h9.533a4 4 0 0 0 3.911-3.162l1.804-8.419A2 2 0 0 0 20.525 8Zm-5.033 4.436a.75.75 0 0 1 .07 1.058l-2.869 3.28a1.75 1.75 0 0 1-2.41.214L8.53 15.586a.75.75 0 0 1 .937-1.172l1.753 1.403a.25.25 0 0 0 .344-.031l2.87-3.28a.75.75 0 0 1 1.058-.07Z" fill="#868686"/>
</svg>
