<svg width="24" height="24" fill="none" xmlns="http://www.w3.org/2000/svg">
    <path d="M21.75 4.776a2.75 2.75 0 0 0-3.62-2.61l-6.632 2.211a4.744 4.744 0 0 0-2.343 1.718l4.233 4.234 5.217-1.74a1.25 1.25 0 0 1 1.645 1.187V14a3.734 3.734 0 0 0-2.25-.75c-.5 0-.977.099-1.414.276l4.888 4.888a3.74 3.74 0 0 0 .276-1.413V4.776ZM3.53 2.47a.75.75 0 0 0-1.06 1.061l5.78 5.78v6.69a3.75 3.75 0 1 0 1.5 3v-5.117a3.248 3.248 0 0 1 2.222-3.084L3.53 2.47ZM21.53 21.531a.75.75 0 0 0 0-1.06l-6.151-6.152a3.75 3.75 0 0 0 4.035 6.156l1.056 1.056a.75.75 0 0 0 1.06 0Z" fill="#868686"/>
</svg>
