<svg width="24" height="24" fill="none" xmlns="http://www.w3.org/2000/svg">
    <path fill-rule="evenodd" clip-rule="evenodd" d="M17.25 18a2.75 2.75 0 1 0 1.906-2.618l-5.064-7.597a2.75 2.75 0 1 0-4.659-.798L5.667 9.814a2.75 2.75 0 1 0 .9 1.2l3.766-2.826a2.74 2.74 0 0 0 2.51.43l5.065 7.598A2.74 2.74 0 0 0 17.25 18ZM20 19.25a1.25 1.25 0 1 1 0-2.5 1.25 1.25 0 0 1 0 2.5Zm-16-6a1.25 1.25 0 1 1 0-2.5 1.25 1.25 0 0 1 0 2.5Zm8-6A1.247 1.247 0 0 1 10.75 6 1.25 1.25 0 1 1 12 7.25Z" fill="#868686"/>
</svg>
