<svg width="24" height="24" fill="none" xmlns="http://www.w3.org/2000/svg">
    <path fill-rule="evenodd" clip-rule="evenodd" d="M6.25 8A5.75 5.75 0 0 1 12 2.25h4a.75.75 0 0 1 .75.75v4a.75.75 0 0 1-.75.75h-4a.25.25 0 0 0-.25.25v1.25H20a.75.75 0 0 1 .75.75v11a.75.75 0 0 1-.75.75h-4a.75.75 0 0 1-.75-.75v-6.25h-3.5V21a.75.75 0 0 1-.75.75H7a.75.75 0 0 1-.75-.75v-6.25H4a.75.75 0 0 1-.75-.75v-4A.75.75 0 0 1 4 9.25h2.25V8ZM12 3.75A4.25 4.25 0 0 0 7.75 8v2a.75.75 0 0 1-.75.75H4.75v2.5H7a.75.75 0 0 1 .75.75v6.25h2.5V14a.75.75 0 0 1 .75-.75h5a.75.75 0 0 1 .75.75v6.25h2.5v-9.5H11a.75.75 0 0 1-.75-.75V8c0-.966.784-1.75 1.75-1.75h3.25v-2.5H12Z" fill="#868686"/>
</svg>
