<svg width="24" height="24" fill="none" xmlns="http://www.w3.org/2000/svg">
    <path d="M12.75 18a.75.75 0 1 1-1.5 0 .75.75 0 0 1 1.5 0Z" fill="#868686"/>
    <path fill-rule="evenodd" clip-rule="evenodd" d="M10.276 2.515a2.529 2.529 0 0 1 3.448 0c1.137 1.048 2.873 2.779 4.33 4.79 1.44 1.988 2.696 4.368 2.696 6.694 0 2.972-1.142 5.183-2.841 6.64-1.682 1.443-3.862 2.11-5.909 2.11-2.047 0-4.227-.667-5.908-2.11-1.7-1.457-2.842-3.668-2.842-6.64 0-2.326 1.255-4.706 2.696-6.693 1.457-2.012 3.193-3.743 4.33-4.791Zm2.431 1.102a1.029 1.029 0 0 0-1.414 0c-1.101 1.016-2.758 2.67-4.133 4.569-1.392 1.922-2.41 3.977-2.41 5.813 0 2.552.964 4.34 2.318 5.502C8.44 20.678 10.26 21.25 12 21.25c1.74 0 3.56-.57 4.932-1.748 1.354-1.161 2.318-2.95 2.318-5.502 0-1.836-1.018-3.891-2.41-5.813-1.376-1.898-3.032-3.553-4.133-4.569ZM12 12.75c-1.45 0-2.761.586-3.712 1.537a.75.75 0 0 1-1.061-1.06A6.731 6.731 0 0 1 12 11.249c1.864 0 3.552.757 4.773 1.978a.75.75 0 1 1-1.06 1.06A5.231 5.231 0 0 0 12 12.75Zm0 3a2.24 2.24 0 0 0-1.591.659.75.75 0 0 1-1.06-1.061A3.74 3.74 0 0 1 12 14.249a3.74 3.74 0 0 1 2.652 1.099.75.75 0 1 1-1.061 1.06A2.24 2.24 0 0 0 12 15.75Z" fill="#868686"/>
</svg>
