<svg width="24" height="24" fill="none" xmlns="http://www.w3.org/2000/svg">
    <path fill-rule="evenodd" clip-rule="evenodd" d="M17 13.799a2.25 2.25 0 1 0 0 4.5 2.25 2.25 0 0 0 0-4.5Zm-3.75 2.25a3.75 3.75 0 1 1 7.5 0 3.75 3.75 0 0 1-7.5 0ZM7 15.75a2.25 2.25 0 1 0 0 4.5 2.25 2.25 0 0 0 0-4.5ZM3.25 18a3.75 3.75 0 1 1 7.5 0 3.75 3.75 0 0 1-7.5 0Z" fill="#868686"/>
    <path fill-rule="evenodd" clip-rule="evenodd" d="M17.536 8.842a1.25 1.25 0 0 1 1.714 1.16v6.047a.75.75 0 0 0 1.5 0v-6.046c0-1.946-1.965-3.276-3.771-2.554l-4.743 1.898a4.75 4.75 0 0 0-2.986 4.41v4.292a.75.75 0 1 0 1.5 0v-4.292a3.25 3.25 0 0 1 2.043-3.018l4.743-1.897Z" fill="#868686"/>
    <path fill-rule="evenodd" clip-rule="evenodd" d="M17.536 3.842a1.25 1.25 0 0 1 1.714 1.16v7.047a.75.75 0 1 0 1.5 0V5.003c0-1.946-1.965-3.276-3.771-2.554l-4.743 1.898a4.75 4.75 0 0 0-2.986 4.41v7.292a.75.75 0 1 0 1.5 0V8.757a3.25 3.25 0 0 1 2.043-3.018l4.743-1.897Z" fill="#868686"/>
</svg>
