<svg width="24" height="24" fill="none" xmlns="http://www.w3.org/2000/svg">
    <path fill-rule="evenodd" clip-rule="evenodd" d="M18.258 5.355c-2.001-2.001-5.253-2.16-7.568-.316L8.293 6.95c-.71.565-1.572.909-2.472.982-.997.081-1.392 1.273-.764 1.9l8.725 8.726c.627.627 1.82.233 1.9-.765.073-.9.417-1.761.983-2.472l1.909-2.396c1.844-2.316 1.685-5.567-.316-7.569ZM9.755 3.866c2.885-2.298 6.998-2.137 9.564.429 2.565 2.565 2.726 6.678.428 9.563l-1.909 2.397a3.066 3.066 0 0 0-.66 1.659c-.178 2.184-2.864 3.296-4.457 1.704l-8.725-8.726C2.404 9.3 3.516 6.614 5.7 6.436a3.067 3.067 0 0 0 1.658-.66l2.397-1.91Zm-1.97 11.59a.75.75 0 0 1 .372.993c-.38.837-.212 1.928.555 2.695.767.767 1.858.935 2.695.555a.75.75 0 0 1 .62 1.365c-1.427.65-3.184.332-4.375-.86-1.192-1.191-1.51-2.948-.86-4.376a.75.75 0 0 1 .993-.372Z" fill="#868686"/>
</svg>
