<svg width="24" height="24" fill="none" xmlns="http://www.w3.org/2000/svg">
    <path fill-rule="evenodd" clip-rule="evenodd" d="M12 2.75c-3.466 0-6.25 2.749-6.25 6.107 0 .972.367 2.132.994 3.313a14.4 14.4 0 0 0 2.35 3.21c.582.595 1.164 1.077 1.692 1.405.545.338.956.465 1.214.465s.67-.127 1.214-.465c.528-.328 1.11-.81 1.692-1.406a14.398 14.398 0 0 0 2.35-3.209c.627-1.18.994-2.34.994-3.313C18.25 5.5 15.466 2.75 12 2.75ZM4.25 8.857C4.25 4.641 7.734 1.25 12 1.25s7.75 3.391 7.75 7.607c0 1.312-.482 2.722-1.169 4.016a15.895 15.895 0 0 1-2.602 3.554c-.642.658-1.317 1.224-1.974 1.632-.64.397-1.337.691-2.005.691-.668 0-1.366-.294-2.005-.691-.657-.408-1.332-.974-1.974-1.633a15.896 15.896 0 0 1-2.602-3.553C4.732 11.58 4.25 10.17 4.25 8.857ZM12 7.75a1.25 1.25 0 1 0 0 2.5 1.25 1.25 0 0 0 0-2.5ZM9.25 9a2.75 2.75 0 1 1 5.5 0 2.75 2.75 0 0 1-5.5 0Z" fill="#868686"/>
    <path fill-rule="evenodd" clip-rule="evenodd" d="M9.59 16.096a.75.75 0 0 1-.651.838c-1.662.207-3.038.573-3.976 1.016-.47.222-.795.447-.99.65-.194.199-.223.332-.223.4 0 .086.052.287.421.579.362.284.932.574 1.702.83 1.534.512 3.7.841 6.127.841 2.427 0 4.593-.329 6.127-.84.77-.257 1.34-.547 1.701-.831.37-.292.422-.493.422-.579 0-.068-.029-.201-.222-.4-.196-.203-.52-.428-.99-.65-.939-.443-2.315-.81-3.977-1.016a.75.75 0 0 1 .186-1.489c1.753.219 3.3.614 4.43 1.149.565.266 1.063.584 1.429.962.37.382.644.869.644 1.444 0 .742-.452 1.33-.993 1.757-.55.433-1.298.79-2.156 1.076-1.724.574-4.057.917-6.601.917-2.543 0-4.877-.343-6.601-.917-.858-.286-1.607-.643-2.156-1.076-.54-.427-.993-1.015-.993-1.757 0-.575.275-1.062.644-1.444.367-.378.864-.696 1.428-.962 1.131-.535 2.678-.93 4.431-1.149a.75.75 0 0 1 .837.651Z" fill="#868686"/>
</svg>
