<svg width="24" height="24" fill="none" xmlns="http://www.w3.org/2000/svg">
    <path fill-rule="evenodd" clip-rule="evenodd" d="M7.874 16.75a3.25 3.25 0 0 0-2.496 1.17L4.31 19.2c-.679.814-.1 2.05.96 2.05h13.46c1.06 0 1.638-1.236.96-2.05l-1.067-1.28a3.25 3.25 0 0 0-2.497-1.17h-2.126a.75.75 0 0 1 0-1.5h2.126a4.75 4.75 0 0 1 3.65 1.71l1.066 1.28c1.493 1.79.22 4.51-2.112 4.51H5.27c-2.332 0-3.605-2.72-2.113-4.51l1.067-1.28a4.75 4.75 0 0 1 3.65-1.71H10a.75.75 0 0 1 0 1.5H7.874Z" fill="#868686"/>
    <path fill-rule="evenodd" clip-rule="evenodd" d="M12 2.75a1.25 1.25 0 1 0 0 2.5 1.25 1.25 0 0 0 0-2.5Zm2.123 3a2.75 2.75 0 1 0-4.244 0A4.75 4.75 0 0 0 7.25 10v2c0 .966.783 1.75 1.75 1.75a.25.25 0 0 1 .25.25v3a2.75 2.75 0 1 0 5.5 0v-3a.25.25 0 0 1 .25-.25A1.75 1.75 0 0 0 16.75 12v-2a4.75 4.75 0 0 0-2.628-4.25ZM12 6.75A3.25 3.25 0 0 0 8.75 10v2c0 .138.112.25.25.25.966 0 1.75.784 1.75 1.75v3a1.25 1.25 0 0 0 2.5 0v-3c0-.966.783-1.75 1.75-1.75a.25.25 0 0 0 .25-.25v-2A3.25 3.25 0 0 0 12 6.75Z" fill="#868686"/>
</svg>
