<svg width="24" height="24" fill="none" xmlns="http://www.w3.org/2000/svg">
    <path fill-rule="evenodd" clip-rule="evenodd" d="M2.75 8.6A5.85 5.85 0 0 1 8.6 2.75h6.8a5.85 5.85 0 0 1 5.85 5.85v6.8a5.85 5.85 0 0 1-5.85 5.85H8.6a5.85 5.85 0 0 1-5.85-5.85V8.6Zm2.29-2.5a4.33 4.33 0 0 0-.79 2.5v6.8c0 .93.292 1.792.79 2.5l3.543-3.544A4.13 4.13 0 0 1 7.85 12c0-.875.27-1.687.733-2.356L5.04 6.1ZM6.1 5.04l3.544 3.543A4.131 4.131 0 0 1 12 7.85c.875 0 1.687.27 2.356.733L17.9 5.04a4.33 4.33 0 0 0-2.5-.79H8.6a4.33 4.33 0 0 0-2.5.79ZM18.96 6.1l-3.543 3.544c.462.67.733 1.481.733 2.356a4.13 4.13 0 0 1-.733 2.356L18.96 17.9a4.33 4.33 0 0 0 .79-2.5V8.6a4.33 4.33 0 0 0-.79-2.5ZM17.9 18.96l-3.544-3.543A4.13 4.13 0 0 1 12 16.15c-.875 0-1.687-.27-2.356-.733L6.1 18.96a4.33 4.33 0 0 0 2.5.79h6.8a4.33 4.33 0 0 0 2.5-.79Zm-4.028-8.836a2.65 2.65 0 1 0 0 3.752" fill="#868686"/>
</svg>
