<svg width="24" height="24" fill="none" xmlns="http://www.w3.org/2000/svg">
    <path fill-rule="evenodd" clip-rule="evenodd" d="M22 9.25a.75.75 0 0 1 .75.75v4a.75.75 0 0 1-1.5 0v-4a.75.75 0 0 1 .75-.75ZM2.47 2.47a.75.75 0 0 1 1.06 0l18 18a.75.75 0 1 1-1.06 1.06l-18-18a.75.75 0 0 1 0-1.06Z" fill="#868686"/>
    <path d="M6.19 5.25H4A2.75 2.75 0 0 0 1.25 8v8A2.75 2.75 0 0 0 4 18.75h14c.487 0 .944-.127 1.34-.349l-1.163-1.163a1.258 1.258 0 0 1-.177.012H4c-.69 0-1.25-.56-1.25-1.25V8c0-.69.56-1.25 1.25-1.25h3.69l-1.5-1.5ZM19.238 16.177c.008-.058.012-.117.012-.177V8c0-.69-.56-1.25-1.25-1.25H9.81l-1.5-1.5H18A2.75 2.75 0 0 1 20.75 8v8c0 .487-.127.944-.349 1.34l-1.163-1.163Z" fill="#868686"/>
</svg>
