<svg width="24" height="24" fill="none" xmlns="http://www.w3.org/2000/svg">
    <path d="M12.75 1.75a.75.75 0 1 0-1.5 0v1a.75.75 0 0 0 1.5 0v-1ZM9.851 5.75a1.5 1.5 0 0 0-1.459 1.153l-.952 4A1.5 1.5 0 0 0 8.9 12.75H4.85a1.5 1.5 0 0 0-1.459 1.153l-.952 4A1.5 1.5 0 0 0 3.9 19.75H10.1a1.5 1.5 0 0 0 1.46-1.847l-.953-4a1.5 1.5 0 0 0-1.46-1.153h5.704a1.5 1.5 0 0 0-1.46 1.153l-.952 4a1.5 1.5 0 0 0 1.46 1.847H20.1a1.5 1.5 0 0 0 1.46-1.847l-.953-4a1.5 1.5 0 0 0-1.46-1.153h-4.047a1.5 1.5 0 0 0 1.46-1.847l-.953-4a1.5 1.5 0 0 0-1.46-1.153H9.853ZM18.53 3.28l-1 1a.75.75 0 0 1-1.06-1.06l1-1a.75.75 0 0 1 1.06 1.06ZM6.53 2.22a.75.75 0 0 0-1.06 1.06l1 1a.75.75 0 0 0 1.06-1.06l-1-1Z" fill="#868686"/>
</svg>
