<svg width="24" height="24" fill="none" xmlns="http://www.w3.org/2000/svg">
    <path fill-rule="evenodd" clip-rule="evenodd" d="M1.25 12c0-5.385 4.365-9.75 9.75-9.75h2c5.385 0 9.75 4.365 9.75 9.75s-4.365 9.75-9.75 9.75H6A4.75 4.75 0 0 1 1.25 17v-5ZM11 3.75A8.25 8.25 0 0 0 2.75 12v5A3.25 3.25 0 0 0 6 20.25h7a8.25 8.25 0 1 0 0-16.5h-2ZM8 14l-.6.45.002.002.002.003.006.008.02.025.065.08a6.695 6.695 0 0 0 1.127 1.039c.77.56 1.921 1.143 3.378 1.143s2.608-.583 3.379-1.143a6.698 6.698 0 0 0 1.126-1.039l.066-.08.019-.025.006-.008.002-.003.001-.001S16.6 14.45 16 14l.6.45a.75.75 0 0 0-1.198-.902l-.007.009a3.967 3.967 0 0 1-.21.237 5.199 5.199 0 0 1-.689.6c-.604.44-1.453.856-2.496.856s-1.892-.417-2.496-.857a5.199 5.199 0 0 1-.86-.79 2.054 2.054 0 0 1-.039-.046l-.006-.008a.75.75 0 0 0-1.199.902L8 14Z" fill="#868686"/>
</svg>
