<svg width="24" height="24" fill="none" xmlns="http://www.w3.org/2000/svg">
    <path fill-rule="evenodd" clip-rule="evenodd" d="M6.999 1.25H6A4.75 4.75 0 0 0 1.25 6v12A4.75 4.75 0 0 0 6 22.75h12A4.75 4.75 0 0 0 22.75 18V6A4.75 4.75 0 0 0 18 1.25H6.999Zm9.251 1.5h-8.5v8.5h8.5v-8.5Zm1.5 0v3.5h3.5V6A3.25 3.25 0 0 0 18 2.75h-.25Zm3.5 5h-3.5v3.5h3.5v-3.5Zm0 5h-3.5v3.5h3.5v-3.5Zm0 5h-3.5v3.5H18A3.25 3.25 0 0 0 21.25 18v-.25Zm-5 3.5v-8.5h-8.5v8.5h8.5Zm-10 0v-3.5h-3.5V18A3.25 3.25 0 0 0 6 21.25h.25Zm-3.5-5h3.5v-3.5h-3.5v3.5Zm0-5h3.5v-3.5h-3.5v3.5Zm0-5h3.5v-3.5H6A3.25 3.25 0 0 0 2.75 6v.25Z" fill="#868686"/>
</svg>
