<svg width="24" height="24" fill="none" xmlns="http://www.w3.org/2000/svg">
    <path fill-rule="evenodd" clip-rule="evenodd" d="M18.763 2.177a1.75 1.75 0 0 1 2.474 0L22.53 3.47a.75.75 0 0 1-1.06 1.06l-.72-.72V8a.75.75 0 0 1-1.5 0V3.81l-.72.72a.75.75 0 1 1-1.06-1.06l1.293-1.293ZM1.25 11A3.75 3.75 0 0 1 5 7.25h10A3.75 3.75 0 0 1 18.75 11v8A3.75 3.75 0 0 1 15 22.75H5A3.75 3.75 0 0 1 1.25 19v-8ZM5 8.75A2.25 2.25 0 0 0 2.75 11v8A2.25 2.25 0 0 0 5 21.25h10A2.25 2.25 0 0 0 17.25 19v-8A2.25 2.25 0 0 0 15 8.75H5Zm.4 3.8a.75.75 0 0 1 1.05-.15l2.2 1.65c.8.6 1.9.6 2.7 0l2.2-1.65a.75.75 0 0 1 .9 1.2l-2.2 1.65a3.75 3.75 0 0 1-4.5 0l-2.2-1.65a.75.75 0 0 1-.15-1.05Z" fill="#868686"/>
</svg>
