<svg width="24" height="24" fill="none" xmlns="http://www.w3.org/2000/svg">
    <path d="M6 18.75c.05 0 .099-.005.146-.014a2.737 2.737 0 0 0 1.91-.92l1.505-1.693a.75.75 0 1 0-1.122-.996L6.934 16.82a1.26 1.26 0 0 1-.184.17V6a.75.75 0 0 0-1.5 0v10.99a1.26 1.26 0 0 1-.184-.17L3.56 15.127a.75.75 0 0 0-1.122.996l1.506 1.694a2.736 2.736 0 0 0 1.909.919.75.75 0 0 0 .146.014ZM12 5.25a.75.75 0 0 0 0 1.5h9a.75.75 0 0 0 0-1.5h-9ZM12 11.25a.75.75 0 0 0 0 1.5h6a.75.75 0 0 0 0-1.5h-6ZM11.25 18a.75.75 0 0 1 .75-.75h3a.75.75 0 0 1 0 1.5h-3a.75.75 0 0 1-.75-.75Z" fill="#868686"/>
</svg>
