<svg width="24" height="24" fill="none" xmlns="http://www.w3.org/2000/svg">
    <g clip-path="url(#a)" fill="#868686">
        <path d="M9.031 1.5a.75.75 0 0 0-1.5 0V3h-.25a4 4 0 0 0-4 4v10.5a4 4 0 0 0 4 4h.586a1 1 0 0 0 .707-.293L20.988 8.793a1 1 0 0 0 .293-.707V7a4 4 0 0 0-4-4h-.25V1.5a.75.75 0 1 0-1.5 0V3h-6.5V1.5ZM20.791 12.99a1.674 1.674 0 0 0-2.367 0l-5.015 5.015c-.12.12-.208.27-.255.434l-.626 2.197a.5.5 0 0 0 .618.618l2.196-.627c.164-.046.314-.134.434-.255l5.015-5.015a1.674 1.674 0 0 0 0-2.367Z"/>
    </g>
    <defs>
        <clipPath id="a">
            <path fill="#fff" d="M0 0h24v24H0z"/>
        </clipPath>
    </defs>
</svg>
