<svg width="24" height="24" fill="none" xmlns="http://www.w3.org/2000/svg">
    <path fill-rule="evenodd" clip-rule="evenodd" d="M1.25 4A2.75 2.75 0 0 1 4 1.25h2A2.75 2.75 0 0 1 8.75 4v.25h6.5V4A2.75 2.75 0 0 1 18 1.25h2A2.75 2.75 0 0 1 22.75 4v2A2.75 2.75 0 0 1 20 8.75h-.25v6.5H20A2.75 2.75 0 0 1 22.75 18v2A2.75 2.75 0 0 1 20 22.75h-2A2.75 2.75 0 0 1 15.25 20v-.25h-6.5V20A2.75 2.75 0 0 1 6 22.75H4A2.75 2.75 0 0 1 1.25 20v-2A2.75 2.75 0 0 1 4 15.25h.25v-6.5H4A2.75 2.75 0 0 1 1.25 6V4Zm4.5 4.75v6.5H6A2.75 2.75 0 0 1 8.75 18v.25h6.5V18A2.75 2.75 0 0 1 18 15.25h.25v-6.5H18A2.75 2.75 0 0 1 15.25 6v-.25h-6.5V6A2.75 2.75 0 0 1 6 8.75h-.25ZM7.25 6c0 .69-.56 1.25-1.25 1.25H4c-.69 0-1.25-.56-1.25-1.25V4c0-.69.56-1.25 1.25-1.25h2c.69 0 1.25.56 1.25 1.25v2Zm9.5 0c0 .69.56 1.25 1.25 1.25h2c.69 0 1.25-.56 1.25-1.25V4c0-.69-.56-1.25-1.25-1.25h-2c-.69 0-1.25.56-1.25 1.25v2ZM18 16.75c-.69 0-1.25.56-1.25 1.25v2c0 .69.56 1.25 1.25 1.25h2c.69 0 1.25-.56 1.25-1.25v-2c0-.69-.56-1.25-1.25-1.25h-2ZM7.25 18c0-.69-.56-1.25-1.25-1.25H4c-.69 0-1.25.56-1.25 1.25v2c0 .69.56 1.25 1.25 1.25h2c.69 0 1.25-.56 1.25-1.25v-2Z" fill="#868686"/>
</svg>
