<svg width="24" height="24" fill="none" xmlns="http://www.w3.org/2000/svg">
    <path fill-rule="evenodd" clip-rule="evenodd" d="M7.25 11a.75.75 0 0 1 .75-.75h4a.75.75 0 0 1 0 1.5H8a.75.75 0 0 1-.75-.75ZM7.25 16a.75.75 0 0 1 .75-.75h8a.75.75 0 0 1 0 1.5H8a.75.75 0 0 1-.75-.75Z" fill="#868686"/>
    <path fill-rule="evenodd" clip-rule="evenodd" d="M7 2.75A3.25 3.25 0 0 0 3.75 6v12A3.25 3.25 0 0 0 7 21.25h10A3.25 3.25 0 0 0 20.25 18V9.75H18A4.75 4.75 0 0 1 13.25 5V2.75H7Zm7.75 1.06 4.44 4.44H18A3.25 3.25 0 0 1 14.75 5V3.81ZM2.25 6A4.75 4.75 0 0 1 7 1.25h7a.75.75 0 0 1 .53.22l7 7c.141.14.22.331.22.53v9A4.75 4.75 0 0 1 17 22.75H7A4.75 4.75 0 0 1 2.25 18V6Z" fill="#868686"/>
</svg>
