<svg width="24" height="24" fill="none" xmlns="http://www.w3.org/2000/svg">
    <path fill-rule="evenodd" clip-rule="evenodd" d="M1.25 6A4.75 4.75 0 0 1 6 1.25h12A4.75 4.75 0 0 1 22.75 6v12A4.75 4.75 0 0 1 18 22.75H6A4.75 4.75 0 0 1 1.25 18V6ZM6 2.75A3.25 3.25 0 0 0 2.75 6v12A3.25 3.25 0 0 0 6 21.25h12A3.25 3.25 0 0 0 21.25 18V6A3.25 3.25 0 0 0 18 2.75H6Zm6.376 4.834a.75.75 0 0 1 1.04-.208l3 2a.75.75 0 0 1 .208 1.04l-2 3a.75.75 0 1 1-1.248-.832l1.158-1.737c-1.355.18-2.622.613-3.618 1.277C9.589 13.009 8.75 14.291 8.75 16a.75.75 0 0 1-1.5 0c0-2.29 1.161-4.009 2.834-5.124 1.078-.719 2.371-1.192 3.726-1.434l-1.226-.818a.75.75 0 0 1-.208-1.04Z" fill="#868686"/>
</svg>
