<svg width="24" height="24" fill="none" xmlns="http://www.w3.org/2000/svg">
    <path fill-rule="evenodd" clip-rule="evenodd" d="M18.5 11.498v-5.5H20v5.5a.75.75 0 0 1-1.5 0Z" fill="#868686"/>
    <path d="M16 9.998v-3H8v3a4 4 0 0 0 8 0Z" fill="#868686"/>
    <path d="m4.027 5.541 6.754-3.001a3 3 0 0 1 2.437 0L19.97 5.54a.5.5 0 0 1 0 .914l-6.753 3.002a3 3 0 0 1-2.437 0L4.027 6.455a.5.5 0 0 1 0-.914ZM14.299 15.398l-1.589 1.606a1 1 0 0 1-1.422 0L9.7 15.398a.948.948 0 0 0-.939-.256C5.956 15.967 4 17.832 4 19.998a2 2 0 0 0 2 2h12a2 2 0 0 0 2-2c0-2.167-1.956-4.03-4.762-4.856a.948.948 0 0 0-.938.256Z" fill="#868686"/>
</svg>
