<svg width="24" height="24" fill="none" xmlns="http://www.w3.org/2000/svg">
    <path d="M20.677 3.25a.75.75 0 0 1 .75.75v16a.75.75 0 0 1-1.5 0V4a.75.75 0 0 1 .75-.75ZM16.677 6.25a.75.75 0 0 1 .75.75v13a.75.75 0 0 1-1.5 0V7a.75.75 0 0 1 .75-.75ZM13.428 10a.75.75 0 0 0-1.5 0v10a.75.75 0 0 0 1.5 0V10ZM8.677 12.25a.75.75 0 0 1 .75.75v7a.75.75 0 0 1-1.5 0v-7a.75.75 0 0 1 .75-.75ZM2.59 11.592l1.338 1.671V20a.75.75 0 0 0 1.5 0v-6.737l1.336-1.671c1.4-1.75.154-4.342-2.086-4.342-2.241 0-3.487 2.592-2.087 4.342Z" fill="#868686"/>
</svg>
