<svg width="24" height="24" fill="none" xmlns="http://www.w3.org/2000/svg">
    <path d="M3.886 8.719a8.753 8.753 0 0 1 16.75 1.867l.914-.686a.75.75 0 0 1 .9 1.2l-1.011.758a2.75 2.75 0 0 1-2.88.26l-.894-.447a.75.75 0 0 1 .67-1.342l.804.402a7.252 7.252 0 0 0-13.862-1.45.75.75 0 1 1-1.39-.562ZM4.936 13.64l.614.46a.75.75 0 0 0 .9-1.2l-1.011-.758a2.75 2.75 0 0 0-2.88-.26l-.894.447a.75.75 0 0 0 .67 1.342l.895-.447c.032-.017.065-.031.099-.045a8.752 8.752 0 0 0 16.785 2.102.75.75 0 0 0-1.39-.562 7.253 7.253 0 0 1-13.788-1.08Z" fill="#868686"/>
    <path d="M12 11.25A1.25 1.25 0 1 1 13.25 10a.75.75 0 0 0 1.5 0c0-1.259-.846-2.32-2-2.646V6.5a.75.75 0 0 0-1.5 0v.854A2.751 2.751 0 0 0 12 12.75 1.25 1.25 0 1 1 10.75 14a.75.75 0 0 0-1.5 0c0 1.259.846 2.32 2 2.646v.854a.75.75 0 0 0 1.5 0v-.854A2.751 2.751 0 0 0 12 11.25Z" fill="#868686"/>
</svg>
