<svg width="24" height="24" fill="none" xmlns="http://www.w3.org/2000/svg">
    <path d="M1.25 8A4.75 4.75 0 0 1 6 3.25h12A4.75 4.75 0 0 1 22.75 8v5a.75.75 0 0 1-1.5 0V8A3.25 3.25 0 0 0 18 4.75H6A3.25 3.25 0 0 0 2.75 8v8A3.25 3.25 0 0 0 6 19.25h7a.75.75 0 0 1 0 1.5H6A4.75 4.75 0 0 1 1.25 16V8Z" fill="#868686"/>
    <path d="M7 8a1 1 0 1 0-2 0 1 1 0 0 0 2 0Z" fill="#868686"/>
    <path fill-rule="evenodd" clip-rule="evenodd" d="M12 14.75a2.75 2.75 0 1 1 0-5.5 2.75 2.75 0 0 1 0 5.5ZM10.75 12a1.25 1.25 0 1 0 2.5 0 1.25 1.25 0 0 0-2.5 0Z" fill="#868686"/>
    <path d="M19 13.25a.75.75 0 0 1 .75.75v2.25H22a.75.75 0 0 1 0 1.5h-2.25V20a.75.75 0 0 1-1.5 0v-2.25H16a.75.75 0 0 1 0-1.5h2.25V14a.75.75 0 0 1 .75-.75Z" fill="#868686"/>
</svg>
