<svg width="24" height="24" fill="none" xmlns="http://www.w3.org/2000/svg">
    <path fill-rule="evenodd" clip-rule="evenodd" d="M1.25 6A2.75 2.75 0 0 1 4 3.25h14A2.75 2.75 0 0 1 20.75 6v5.354A2.751 2.751 0 0 1 21.887 16 2.75 2.75 0 0 1 20 20.75h-6a2.751 2.751 0 0 1-2.646-2H4A2.75 2.75 0 0 1 1.25 16V6ZM20 16.75h-6a1.25 1.25 0 1 0 0 2.5h6a1.25 1.25 0 1 0 0-2.5Zm-6-1.5h6a1.25 1.25 0 1 0 0-2.5h-6a1.25 1.25 0 1 0 0 2.5Zm-1.887.75a2.75 2.75 0 0 0-.76 1.25H4c-.69 0-1.25-.56-1.25-1.25V6c0-.69.56-1.25 1.25-1.25h14c.69 0 1.25.56 1.25 1.25v5.25H14A2.75 2.75 0 0 0 12.113 16Z" fill="#868686"/>
</svg>
