<svg width="24" height="24" fill="none" xmlns="http://www.w3.org/2000/svg">
    <path fill-rule="evenodd" clip-rule="evenodd" d="M10.07 2.034a4.75 4.75 0 0 1 3.86 0l5 2.223a4.75 4.75 0 0 1 2.82 4.34v6.801a4.75 4.75 0 0 1-2.82 4.34l-5 2.223a4.75 4.75 0 0 1-3.86 0l-5-2.222a4.75 4.75 0 0 1-2.82-4.34V8.596a4.75 4.75 0 0 1 2.82-4.34l5-2.223Zm3.25 1.371a3.25 3.25 0 0 0-2.64 0l-5 2.222a3.248 3.248 0 0 0-.704.427L12 9.176l7.024-3.121a3.248 3.248 0 0 0-.704-.428l-5-2.222ZM3.75 8.597c0-.464.099-.913.28-1.321l7.22 3.209v10.298a3.252 3.252 0 0 1-.57-.193l-5-2.222a3.25 3.25 0 0 1-1.93-2.97v-6.8Zm9 12.186c.194-.046.385-.11.57-.193l5-2.222a3.25 3.25 0 0 0 1.93-2.97v-6.8c0-.465-.099-.914-.28-1.322l-7.22 3.209v10.298Z" fill="#868686"/>
</svg>
