<svg width="24" height="24" fill="none" xmlns="http://www.w3.org/2000/svg">
    <path fill-rule="evenodd" clip-rule="evenodd" d="M6 1.25A4.75 4.75 0 0 0 1.25 6v12A4.75 4.75 0 0 0 6 22.75h6a.75.75 0 0 0 0-1.5H6A3.25 3.25 0 0 1 2.75 18V6A3.25 3.25 0 0 1 6 2.75h1.25v6.836c0 1.559 1.885 2.34 2.987 1.237l1.586-1.586a.25.25 0 0 1 .354 0l1.586 1.586c1.102 1.103 2.987.322 2.987-1.237V2.75H18A3.25 3.25 0 0 1 21.25 6v6a.75.75 0 0 0 1.5 0V6A4.75 4.75 0 0 0 18 1.25H6Zm8.823 8.513a.25.25 0 0 0 .427-.177V2.75h-6.5v6.836c0 .223.27.334.427.177l1.586-1.586a1.75 1.75 0 0 1 2.474 0l1.586 1.586Z" fill="#868686"/>
    <path d="M18.75 16.5a.75.75 0 0 0-1.5 0V18c0 .414.336.75.75.75h1a.75.75 0 0 0 0-1.5h-.25v-.75Z" fill="#868686"/>
    <path fill-rule="evenodd" clip-rule="evenodd" d="M13.25 18a4.75 4.75 0 1 1 9.5 0 4.75 4.75 0 0 1-9.5 0ZM18 14.75a3.25 3.25 0 1 0 0 6.5 3.25 3.25 0 0 0 0-6.5Z" fill="#868686"/>
</svg>
