<svg width="24" height="24" fill="none" xmlns="http://www.w3.org/2000/svg">
    <path fill-rule="evenodd" clip-rule="evenodd" d="M22.75 6A4.75 4.75 0 0 0 18 1.25h-6a4.751 4.751 0 0 0-4.691 4H6A4.75 4.75 0 0 0 1.25 10v8A4.75 4.75 0 0 0 6 22.75h7a.75.75 0 0 0 0-1.5H6A3.25 3.25 0 0 1 2.75 18v-1.25H6a2.75 2.75 0 1 0 0-5.5H2.75V10A3.25 3.25 0 0 1 6 6.75h15.25V15a.75.75 0 0 0 1.5 0V6Zm-20 6.75v2.5H6a1.25 1.25 0 1 0 0-2.5H2.75Zm18.413-7.5H8.837A3.251 3.251 0 0 1 12 2.75h6a3.251 3.251 0 0 1 3.163 2.5Z" fill="#868686"/>
    <path d="m19.884 18.53.72.72H16a.75.75 0 0 0 0 1.5h4.604l-.72.72a.75.75 0 1 0 1.06 1.06l1.293-1.293a1.75 1.75 0 0 0 0-2.474l-1.292-1.293a.75.75 0 1 0-1.061 1.06Z" fill="#868686"/>
</svg>
