<svg width="24" height="24" fill="none" xmlns="http://www.w3.org/2000/svg">
    <path fill-rule="evenodd" clip-rule="evenodd" d="M12.884 2.944a1.25 1.25 0 0 0-1.768 0L8.811 5.25h6.378l-2.305-2.306ZM17.31 5.25l-3.367-3.366a2.75 2.75 0 0 0-3.889 0L6.69 5.25H6A4.75 4.75 0 0 0 1.25 10v8A4.75 4.75 0 0 0 6 22.75h12A4.75 4.75 0 0 0 22.75 18v-8A4.75 4.75 0 0 0 18 5.25h-.69ZM6 6.75A3.25 3.25 0 0 0 2.75 10v8A3.25 3.25 0 0 0 6 21.25h12A3.25 3.25 0 0 0 21.25 18v-8A3.25 3.25 0 0 0 18 6.75H6Zm1 4a.75.75 0 0 1 0-1.5h10a.75.75 0 0 1 0 1.5H7ZM6.25 14a.75.75 0 0 1 .75-.75h10a.75.75 0 0 1 0 1.5H7a.75.75 0 0 1-.75-.75Zm0 4a.75.75 0 0 1 .75-.75h5a.75.75 0 0 1 0 1.5H7a.75.75 0 0 1-.75-.75Z" fill="#868686"/>
</svg>
