<svg width="24" height="24" fill="none" xmlns="http://www.w3.org/2000/svg">
    <path d="M15.75 2a.75.75 0 0 0-1.5 0v1a.75.75 0 0 0 1.5 0V2ZM12.696 17.279a.75.75 0 1 0-1.392-.558l-2 5a.75.75 0 1 0 1.392.558l2-5ZM8.67 17.335a.75.75 0 0 0-1.34-.67l-1 2a.75.75 0 0 0 1.34.67l1-2ZM16.67 17.335a.75.75 0 0 0-1.34-.67l-1 2a.75.75 0 0 0 1.34.67l1-2ZM20.48 3.52a.75.75 0 0 1 0 1.06l-.707.708a.75.75 0 1 1-1.06-1.061l.706-.707a.75.75 0 0 1 1.061 0ZM22 9.75a.75.75 0 0 0 0-1.5h-1a.75.75 0 0 0 0 1.5h1ZM18.996 8.813a4 4 0 0 0-5.963-3.297 8.534 8.534 0 0 1 3.207 3.028 6.554 6.554 0 0 1 2.756.269Z" fill="#868686"/>
    <path d="M2 13a6.99 6.99 0 0 0 2.787 5.59c.037-.202.104-.403.2-.596l1-2A2.25 2.25 0 0 1 10 15.969a2.25 2.25 0 0 1 4 0 2.25 2.25 0 0 1 4.012 2.037L17.015 20a5 5 0 1 0-1.576-9.751 7.026 7.026 0 0 0-3.63-3.662A7 7 0 0 0 2 13Z" fill="#868686"/>
</svg>
