<svg width="24" height="24" fill="none" xmlns="http://www.w3.org/2000/svg">
    <path fill-rule="evenodd" clip-rule="evenodd" d="M1.47 1.47a.75.75 0 0 0 0 1.06l20 20a.75.75 0 1 0 1.06-1.06l-20-20a.75.75 0 0 0-1.06 0ZM2.25 16a3.75 3.75 0 1 1 7.5 0v2a3.75 3.75 0 1 1-7.5 0v-2ZM6 13.75A2.25 2.25 0 0 0 3.75 16v2a2.25 2.25 0 0 0 4.5 0v-2A2.25 2.25 0 0 0 6 13.75Z" fill="#868686"/>
    <path d="M21.687 18.687c.041-.223.063-.452.063-.687v-2a3.75 3.75 0 0 0-5.854-3.104l1.093 1.093A2.25 2.25 0 0 1 20.25 16v1.251l1.438 1.437ZM17.031 20.031l1.656 1.656A3.75 3.75 0 0 1 14.25 18v-.75l1.719 1.719c.221.464.598.84 1.062 1.062Z" fill="#868686"/>
    <path d="M7.862 4.862A8.25 8.25 0 0 1 20.25 12v4.75h1.5V12c0-5.385-4.365-9.75-9.75-9.75a9.704 9.704 0 0 0-5.23 1.52l1.092 1.092ZM4.624 5.624l1.064 1.064A8.217 8.217 0 0 0 3.75 12v4.75h-1.5V12c0-2.438.895-4.667 2.374-6.376Z" fill="#868686"/>
</svg>
