<svg width="24" height="24" fill="none" xmlns="http://www.w3.org/2000/svg">
    <path fill-rule="evenodd" clip-rule="evenodd" d="M12 5.508c-1.45 0-2.761.587-3.712 1.537a.75.75 0 1 1-1.061-1.06A6.731 6.731 0 0 1 12 4.008c1.864 0 3.552.756 4.773 1.977a.75.75 0 1 1-1.06 1.06A5.231 5.231 0 0 0 12 5.508Zm0 3a2.24 2.24 0 0 0-1.591.659.75.75 0 1 1-1.06-1.06A3.74 3.74 0 0 1 12 7.006a3.74 3.74 0 0 1 2.652 1.1.75.75 0 0 1-1.061 1.06A2.24 2.24 0 0 0 12 8.507ZM7 12.75c-.69 0-1.25.56-1.25 1.25v2c0 .69.56 1.25 1.25 1.25h4.55c-.192-.376-.3-.8-.3-1.25v-2c0-.45.108-.875.3-1.25H7Zm0-1.5A2.75 2.75 0 0 0 4.25 14v2A2.75 2.75 0 0 0 7 18.75h10A2.75 2.75 0 0 0 19.75 16v-2A2.75 2.75 0 0 0 17 11.25H7Zm10 1.5h-3c-.69 0-1.25.56-1.25 1.25v2c0 .69.56 1.25 1.25 1.25h3c.69 0 1.25-.56 1.25-1.25v-2c0-.69-.56-1.25-1.25-1.25Z" fill="#868686"/>
</svg>
