<svg width="24" height="24" fill="none" xmlns="http://www.w3.org/2000/svg">
    <path d="M15.601 5.25H8.397c-1.162-1.57.404-3.768 2.35-3.14l.927.3c.211.067.44.067.65 0l.928-.3c1.946-.628 3.512 1.57 2.35 3.14Z" fill="#868686"/>
    <path fill-rule="evenodd" clip-rule="evenodd" d="M8.505 6.75h6.988c1.32.73 2.35 1.95 2.822 3.46l1.25 4c1.207 3.864-1.679 7.79-5.727 7.79H10.16c-4.047 0-6.934-3.926-5.726-7.79l1.25-4a5.997 5.997 0 0 1 2.821-3.46ZM9.75 14.5c0-.084.004-.168.011-.25H12a.75.75 0 0 0 0-1.5h-1.622c.504-.61 1.267-1 2.121-1 .77 0 1.465.315 1.965.825a.75.75 0 1 0 1.07-1.05 4.25 4.25 0 0 0-6.91 1.224H8a.75.75 0 0 0 0 1.501h.258a4.315 4.315 0 0 0 0 .5h-.258a.75.75 0 0 0 0 1.5h.626a4.25 4.25 0 0 0 6.91 1.224.75.75 0 1 0-1.071-1.05 2.74 2.74 0 0 1-1.965.826c-.854 0-1.617-.39-2.121-1h1.621a.75.75 0 0 0 0-1.5H9.76a2.784 2.784 0 0 1-.01-.25Z" fill="#868686"/>
</svg>
