<svg width="24" height="24" fill="none" xmlns="http://www.w3.org/2000/svg">
    <path fill-rule="evenodd" clip-rule="evenodd" d="M13.485 3.109a2.98 2.98 0 0 0-4.186 0l-7.043 6.97a2.922 2.922 0 0 0 0 4.165l4.695 4.647a2.98 2.98 0 0 0 4.186 0l6.174-6.11 3.022-1.496a.75.75 0 0 0 .195-1.205l-7.043-6.971Zm5.241 7.298-2.031 1.005H3.098c.059-.095.13-.184.213-.266l7.043-6.971a1.48 1.48 0 0 1 2.075 0l6.297 6.232Z" fill="#868686"/>
    <path d="M19.986 20.985c1 0 2-.593 2-2.25s-2-3.75-2-3.75-2 2.093-2 3.75 1 2.25 2 2.25Z" fill="#868686"/>
</svg>
