<svg width="24" height="24" fill="none" xmlns="http://www.w3.org/2000/svg">
    <path fill-rule="evenodd" clip-rule="evenodd" d="M15 12.563h1.582c.264-.839.418-1.68.418-2.5 0-5.523-3.134-8-7-8s-7 2.477-7 8c0 3.28 2.47 6.898 4.476 9.295 1.043 1.246 2.708 1.523 4.026.83a3.473 3.473 0 0 1-.002-.125v-4a3.5 3.5 0 0 1 3.5-3.5Zm-5-2.5a2 2 0 1 0 0-4 2 2 0 0 0 0 4Z" fill="#868686"/>
    <path fill-rule="evenodd" clip-rule="evenodd" d="M13 16.063a2 2 0 0 1 2-2h4a2 2 0 0 1 2 2v4a2 2 0 0 1-2 2h-4a2 2 0 0 1-2-2v-4Zm5.75 0a.75.75 0 0 1-.75.75h-2a.75.75 0 0 1 0-1.5h2a.75.75 0 0 1 .75.75Z" fill="#868686"/>
</svg>
