<svg width="24" height="24" fill="none" xmlns="http://www.w3.org/2000/svg">
    <path d="m18.324 5.162-5.429-2.715a2 2 0 0 0-1.789 0L5.678 5.162 12 8.323l6.323-3.161ZM4 11.677v5.087a2 2 0 0 0 1.106 1.79l6 3a2 2 0 0 0 1.789 0l6-3a2 2 0 0 0 1.106-1.79v-5.087l-5.33 2.665a1.5 1.5 0 0 1-1.918-.51L12 12.704l-.752 1.128a1.5 1.5 0 0 1-1.92.51l-5.328-2.665Z" fill="#868686"/>
    <path d="m11.976 10.016-7.96-3.992L2.03 8.98l8.003 4.023 1.944-2.987Z" fill="#868686"/>
    <path d="m11.976 10.016 2.022 2.987 8.02-3.965L19.99 6.05l-8.015 3.966Z" fill="#868686"/>
</svg>
