<svg width="24" height="24" fill="none" xmlns="http://www.w3.org/2000/svg">
    <path fill-rule="evenodd" clip-rule="evenodd" d="M8.75 7.262v11.255c1.53.108 2.678.981 3.637 1.711l.067.051c.991.754 1.803 1.348 2.796 1.451V10.475a4.47 4.47 0 0 1-.363-.04c-1.363-.208-2.447-1.038-3.351-1.729-.123-.094-.243-.186-.36-.273-.83-.62-1.564-1.08-2.426-1.17Zm8 3.076v11.207c.576-.177 1.192-.46 1.8-.795a19.597 19.597 0 0 0 2.276-1.494c.264-.2.424-.527.424-.897v-9.67c0-.097-.053-.197-.185-.262a.38.38 0 0 0-.383.013c-.945.635-2.191 1.366-3.426 1.758-.167.053-.336.1-.506.14Zm-9.5 8.316V7.447c-.576.178-1.192.46-1.8.795a19.604 19.604 0 0 0-2.276 1.495 1.11 1.11 0 0 0-.424.896v9.67c0 .097.053.197.185.262a.38.38 0 0 0 .383-.013c1.049-.704 2.516-1.561 3.932-1.898ZM12.456 7.52c.942.712 1.7 1.286 2.657 1.432.25.038.515.046.804.014.274-.031.57-.098.886-.198 1.032-.327 2.14-.966 3.042-1.573 1.153-.775 2.905-.023 2.905 1.495v9.669c0 .8-.35 1.587-1.02 2.093a21.087 21.087 0 0 1-2.455 1.611c-.973.537-2.111 1.033-3.192 1.154-1.959.219-3.345-.836-4.47-1.693l-.067-.05c-1.204-.916-2.143-1.595-3.463-1.447-1.214.136-2.724.961-3.928 1.77-1.153.775-2.905.023-2.905-1.494v-9.67c0-.8.35-1.587 1.02-2.093A21.099 21.099 0 0 1 4.725 6.93c.973-.537 2.111-1.033 3.192-1.153 1.791-.201 3.091.66 4.156 1.455.132.098.26.195.383.289Z" fill="#868686"/>
    <path fill-rule="evenodd" clip-rule="evenodd" d="M18.383 3.246a1.25 1.25 0 1 0 0 2.5 1.25 1.25 0 0 0 0-2.5Zm-2.75 1.25a2.75 2.75 0 1 1 3.5 2.647v7.353a.75.75 0 1 1-1.5 0V7.143a2.751 2.751 0 0 1-2-2.647Z" fill="#868686"/>
</svg>
