<svg width="24" height="24" fill="none" xmlns="http://www.w3.org/2000/svg">
    <path fill-rule="evenodd" clip-rule="evenodd" d="M17 2H7a3 3 0 0 0-3 3v7.646A4.484 4.484 0 0 1 7 11.5h13V5a3 3 0 0 0-3-3ZM8 4.25a.75.75 0 0 0 0 1.5h8a.75.75 0 0 0 0-1.5H8ZM7.25 8.5A.75.75 0 0 1 8 7.75h4a.75.75 0 0 1 0 1.5H8a.75.75 0 0 1-.75-.75Z" fill="#868686"/>
    <path d="M7 13h13v3a3 3 0 0 1-2.5 2.959V16a1.5 1.5 0 0 0-1.5-1.5h-4a1.5 1.5 0 0 0-1.5 1.5v3H7a3 3 0 1 1 0-6Z" fill="#868686"/>
    <path d="M12 16h4v6l-2-2-2 2v-6Z" fill="#868686"/>
</svg>
