<svg width="24" height="24" fill="none" xmlns="http://www.w3.org/2000/svg">
    <path fill-rule="evenodd" clip-rule="evenodd" d="M1.25 8A4.75 4.75 0 0 1 6 3.25h12A4.75 4.75 0 0 1 22.75 8v8A4.75 4.75 0 0 1 18 20.75H6A4.75 4.75 0 0 1 1.25 16V8ZM6 4.75A3.25 3.25 0 0 0 2.75 8v8A3.25 3.25 0 0 0 6 19.25h12A3.25 3.25 0 0 0 21.25 16V8A3.25 3.25 0 0 0 18 4.75H6ZM4.25 7A.75.75 0 0 1 5 6.25h2a.75.75 0 0 1 0 1.5H5A.75.75 0 0 1 4.25 7Zm12 0a.75.75 0 0 1 .75-.75h2a.75.75 0 0 1 0 1.5h-2a.75.75 0 0 1-.75-.75ZM12 10.75a1.25 1.25 0 1 0 0 2.5 1.25 1.25 0 0 0 0-2.5ZM9.25 12a2.75 2.75 0 1 1 5.5 0 2.75 2.75 0 0 1-5.5 0Zm-5 5a.75.75 0 0 1 .75-.75h2a.75.75 0 0 1 0 1.5H5a.75.75 0 0 1-.75-.75Zm12 0a.75.75 0 0 1 .75-.75h2a.75.75 0 0 1 0 1.5h-2a.75.75 0 0 1-.75-.75Z" fill="#868686"/>
</svg>
