<svg width="24" height="24" fill="none" xmlns="http://www.w3.org/2000/svg">
    <path d="M13.08 2.311c-1.048-.115-1.83.75-1.83 1.69v.5a.75.75 0 0 0 1.5 0v-.5c0-.07.03-.128.065-.162a.118.118 0 0 1 .101-.037 8.251 8.251 0 0 1 7.334 8.2.75.75 0 0 0 1.5 0c0-5.02-3.793-9.153-8.67-9.69ZM3.75 12.002a.75.75 0 0 0-1.5 0c0 5.02 3.793 9.152 8.67 9.69 1.048.116 1.83-.748 1.83-1.69v-.5a.75.75 0 0 0-1.5 0v.5c0 .072-.03.129-.065.163a.118.118 0 0 1-.101.037 8.251 8.251 0 0 1-7.334-8.2Z" fill="#868686"/>
    <path fill-rule="evenodd" clip-rule="evenodd" d="M17 13.855v-2.118c0-1.462-1.244-2.647-2.778-2.647h-.07c-.246-.913-1.116-1.588-2.152-1.588s-1.905.675-2.152 1.588h-.07C8.244 9.09 7 10.275 7 11.737v2.118c0 1.462 1.244 2.647 2.778 2.647h4.444c1.534 0 2.778-1.185 2.778-2.647Zm-3.5-1.353a1.5 1.5 0 1 0-3 0 1.5 1.5 0 0 0 3 0Z" fill="#868686"/>
</svg>
