<svg width="24" height="24" fill="none" xmlns="http://www.w3.org/2000/svg">
    <path fill-rule="evenodd" clip-rule="evenodd" d="M18 2.75c-.69 0-1.25.56-1.25 1.25v.298c2.821.368 5 2.78 5 5.702v5a4.751 4.751 0 0 1-4 4.691V22a.75.75 0 0 1-1.5 0v-2.25h-1.5V22a.75.75 0 0 1-1.5 0v-2.25H7A4.75 4.75 0 0 1 2.25 15v-5A5.75 5.75 0 0 1 8 4.25h7.25V4A2.75 2.75 0 0 1 18 1.25h1a.75.75 0 0 1 0 1.5h-1Zm-2.75 3h-3.377A5.735 5.735 0 0 1 13.75 10v5c0 1.257-.488 2.4-1.286 3.25H17A3.25 3.25 0 0 0 20.25 15v-5c0-2.091-1.51-3.83-3.5-4.184V7a.75.75 0 0 1-1.5 0V5.75ZM8 5.75A4.25 4.25 0 0 0 3.75 10v5A3.25 3.25 0 0 0 7 18.25h2A3.25 3.25 0 0 0 12.25 15v-5A4.25 4.25 0 0 0 8 5.75Z" fill="#868686"/>
</svg>
