<svg width="24" height="24" fill="none" xmlns="http://www.w3.org/2000/svg">
    <path fill-rule="evenodd" clip-rule="evenodd" d="M3.816 9.951A3.75 3.75 0 0 1 9.75 13v2a3.75 3.75 0 1 1-7.5 0v-4c0-5.385 4.365-9.75 9.75-9.75s9.75 4.365 9.75 9.75v5A6.75 6.75 0 0 1 15 22.75h-3a.75.75 0 0 1 0-1.5h3a5.25 5.25 0 0 0 4.699-2.906A3.75 3.75 0 0 1 14.25 15v-2a3.75 3.75 0 0 1 5.934-3.049 8.252 8.252 0 0 0-16.368 0ZM20.25 13a2.25 2.25 0 0 0-4.5 0v2a2.25 2.25 0 0 0 4.5 0v-2Zm-16.5 0a2.25 2.25 0 0 1 4.5 0v2a2.25 2.25 0 0 1-4.5 0v-2Z" fill="#868686"/>
</svg>
