<svg width="24" height="24" fill="none" xmlns="http://www.w3.org/2000/svg">
    <path fill-rule="evenodd" clip-rule="evenodd" d="M12 2.75a9.25 9.25 0 1 0 0 18.5 9.25 9.25 0 0 0 0-18.5ZM1.25 12C1.25 6.063 6.063 1.25 12 1.25S22.75 6.063 22.75 12 17.937 22.75 12 22.75 1.25 17.937 1.25 12ZM12 6.25a.75.75 0 0 1 .75.75v2a.75.75 0 0 1-1.5 0V7a.75.75 0 0 1 .75-.75Zm-2.4 1.3a.75.75 0 0 1-.15 1.05 4.25 4.25 0 1 0 5.1 0 .75.75 0 0 1 .9-1.2 5.75 5.75 0 1 1-6.9 0 .75.75 0 0 1 1.05.15Z" fill="#868686"/>
</svg>
