<svg width="24" height="24" fill="none" xmlns="http://www.w3.org/2000/svg">
    <path d="M2.097 13.4c.49 3.5 2.792 6.42 5.927 7.779.138-2.82.72-5.53 1.682-8.07a16.917 16.917 0 0 0-3.176-.299c-1.54 0-3.027.207-4.433.59ZM9.505 21.686c.797.205 1.633.314 2.494.314 2.87 0 5.458-1.21 7.282-3.146-1.99-2.529-4.818-4.448-8.103-5.393a24.856 24.856 0 0 0-1.673 8.225ZM20.245 17.66a9.953 9.953 0 0 0 1.74-6.185 18.436 18.436 0 0 1-3.286.294c-2.199 0-4.304-.387-6.243-1.093a25.51 25.51 0 0 0-.69 1.394c3.395 1.013 6.342 2.987 8.479 5.59ZM21.796 9.985a10.006 10.006 0 0 0-4.051-6.17 26.702 26.702 0 0 0-4.53 5.539c1.707.591 3.555.915 5.484.915 1.06 0 2.096-.098 3.097-.284ZM16.403 3.02A9.96 9.96 0 0 0 12 2a9.957 9.957 0 0 0-6.142 2.108 15.715 15.715 0 0 0 5.945 4.682 28.139 28.139 0 0 1 4.601-5.77ZM4.743 5.12A9.965 9.965 0 0 0 2 11.874a18.339 18.339 0 0 1 4.53-.565c1.29 0 2.548.133 3.759.386.24-.54.5-1.072.775-1.595A17.214 17.214 0 0 1 4.743 5.12Z" fill="#868686"/>
</svg>
