<svg width="24" height="24" fill="none" xmlns="http://www.w3.org/2000/svg">
    <path fill-rule="evenodd" clip-rule="evenodd" d="M1.25 16A2.75 2.75 0 0 1 4 13.25h4A2.75 2.75 0 0 1 10.75 16v4A2.75 2.75 0 0 1 8 22.75H4A2.75 2.75 0 0 1 1.25 20v-4ZM4 14.75c-.69 0-1.25.56-1.25 1.25v4c0 .69.56 1.25 1.25 1.25h4c.69 0 1.25-.56 1.25-1.25v-4c0-.69-.56-1.25-1.25-1.25H4ZM1.25 4A2.75 2.75 0 0 1 4 1.25h4A2.75 2.75 0 0 1 10.75 4v4A2.75 2.75 0 0 1 8 10.75H4A2.75 2.75 0 0 1 1.25 8V4ZM4 2.75c-.69 0-1.25.56-1.25 1.25v4c0 .69.56 1.25 1.25 1.25h4c.69 0 1.25-.56 1.25-1.25V4c0-.69-.56-1.25-1.25-1.25H4ZM13.25 16A2.75 2.75 0 0 1 16 13.25h4A2.75 2.75 0 0 1 22.75 16v4A2.75 2.75 0 0 1 20 22.75h-4A2.75 2.75 0 0 1 13.25 20v-4ZM16 14.75c-.69 0-1.25.56-1.25 1.25v4c0 .69.56 1.25 1.25 1.25h4c.69 0 1.25-.56 1.25-1.25v-4c0-.69-.56-1.25-1.25-1.25h-4ZM12.57 8.601a2.75 2.75 0 0 1 0-3.889l2.828-2.828a2.75 2.75 0 0 1 3.89 0l2.828 2.828a2.75 2.75 0 0 1 0 3.89l-2.829 2.828a2.75 2.75 0 0 1-3.889 0L12.569 8.6Zm1.06-2.828a1.25 1.25 0 0 0 0 1.767l2.829 2.829a1.25 1.25 0 0 0 1.767 0l2.829-2.829a1.25 1.25 0 0 0 0-1.767l-2.829-2.829a1.25 1.25 0 0 0-1.767 0L13.63 5.773Z" fill="#868686"/>
</svg>
