<svg width="24" height="24" fill="none" xmlns="http://www.w3.org/2000/svg">
    <path d="M12.75 13a.75.75 0 1 1-1.5 0 .75.75 0 0 1 1.5 0Z" fill="#868686"/>
    <path fill-rule="evenodd" clip-rule="evenodd" d="M6 3.75A3.25 3.25 0 0 0 2.75 7v6A3.25 3.25 0 0 0 6 16.25h6c-.001 0 0 0 0 0h6A3.25 3.25 0 0 0 21.25 13V7A3.25 3.25 0 0 0 18 3.75H6Zm6.75 14H18A4.75 4.75 0 0 0 22.75 13V7A4.75 4.75 0 0 0 18 2.25H6A4.75 4.75 0 0 0 1.25 7v6A4.75 4.75 0 0 0 6 17.75h5.25v1.52c-1.417.082-2.824.434-4.499 1.023a.75.75 0 1 0 .498 1.415c1.843-.649 3.236-.956 4.638-.958 1.406-.002 2.878.303 4.878.962a.75.75 0 1 0 .47-1.424c-1.707-.563-3.124-.905-4.485-1.006V17.75Zm-.75-10c-1.45 0-2.761.587-3.712 1.538a.75.75 0 0 1-1.061-1.061A6.731 6.731 0 0 1 12 6.25c1.864 0 3.552.756 4.773 1.977a.75.75 0 0 1-1.06 1.06A5.231 5.231 0 0 0 12 7.75Zm0 3a2.24 2.24 0 0 0-1.591.659.75.75 0 0 1-1.06-1.06A3.74 3.74 0 0 1 12 9.25a3.74 3.74 0 0 1 2.652 1.098.75.75 0 1 1-1.061 1.061A2.24 2.24 0 0 0 12 10.75Z" fill="#868686"/>
</svg>
