<svg width="24" height="24" fill="none" xmlns="http://www.w3.org/2000/svg">
    <path d="M5.383 4.501a9.959 9.959 0 0 1 5.867-2.474v9.223H7.805A12.566 12.566 0 0 0 5.383 4.5ZM6.302 11.25a11.072 11.072 0 0 0-1.981-5.657 9.955 9.955 0 0 0-2.294 5.657h4.275ZM2.027 12.75h4.275a11.072 11.072 0 0 1-1.981 5.656 9.955 9.955 0 0 1-2.294-5.656ZM7.805 12.75h3.445v9.222a9.959 9.959 0 0 1-5.867-2.474 12.566 12.566 0 0 0 2.422-6.748ZM12.75 12.75v9.222a9.958 9.958 0 0 0 5.866-2.474 12.567 12.567 0 0 1-2.422-6.748H12.75ZM17.697 12.75a11.072 11.072 0 0 0 1.981 5.656 9.955 9.955 0 0 0 2.294-5.656h-4.275ZM21.972 11.25h-4.275a11.072 11.072 0 0 1 1.981-5.657 9.955 9.955 0 0 1 2.294 5.657ZM16.194 11.25H12.75V2.027a9.959 9.959 0 0 1 5.866 2.474 12.567 12.567 0 0 0-2.422 6.749Z" fill="#868686"/>
</svg>
