<svg width="25" height="25" fill="none" xmlns="http://www.w3.org/2000/svg">
    <path fill-rule="evenodd" clip-rule="evenodd" d="M12.587 1.389a.775.775 0 0 1 .769.781l-.016 2.067a.775.775 0 1 1-1.55-.012l.016-2.067a.775.775 0 0 1 .78-.77ZM12.441 19.994a.775.775 0 0 1 .77.78l-.017 2.068a.775.775 0 0 1-1.55-.012l.016-2.067a.775.775 0 0 1 .781-.77ZM23.609 12.587a.775.775 0 0 1-.781.769l-2.067-.016a.775.775 0 0 1 .012-1.55l2.067.016a.775.775 0 0 1 .769.78ZM5.006 12.441a.775.775 0 0 1-.78.77l-2.068-.017a.775.775 0 1 1 .012-1.55l2.067.016a.775.775 0 0 1 .77.781ZM2.726 2.573a.775.775 0 0 1 1.097.008l18.458 18.75a.775.775 0 1 1-1.105 1.088L2.718 3.669a.775.775 0 0 1 .008-1.096Z" fill="#868686"/>
    <path fill-rule="evenodd" clip-rule="evenodd" d="M12.558 5.006a7.465 7.465 0 0 0-3.09.638.775.775 0 1 1-.627-1.417 9.044 9.044 0 0 1 11.873 12.06.775.775 0 0 1-1.407-.65 7.494 7.494 0 0 0-6.748-10.631ZM7.251 6.064c.3.305.296.796-.009 1.096a7.494 7.494 0 0 0 10.514 10.68.775.775 0 1 1 1.088 1.105 9.044 9.044 0 1 1-12.69-12.89.775.775 0 0 1 1.097.009Z" fill="#868686"/>
    <path fill-rule="evenodd" clip-rule="evenodd" d="M10.871 10.839a2.326 2.326 0 1 0 3.255 3.322l1.086 1.107a3.876 3.876 0 1 1-5.425-5.537l1.084 1.108Z" fill="#868686"/>
</svg>
