<svg width="24" height="24" fill="none" xmlns="http://www.w3.org/2000/svg">
    <path fill-rule="evenodd" clip-rule="evenodd" d="M9.75 3c0-.966.784-1.75 1.75-1.75h1c.967 0 1.75.784 1.75 1.75v.532l1.275-.34a1.75 1.75 0 0 1 1.49.28l1.547 1.138a1.75 1.75 0 0 1 .566 2.112l-.77 1.76a1.75 1.75 0 0 1-1.15.988l-2.957.792v2.988h2.269a1.75 1.75 0 0 1 1.367.657l1.2 1.5a1.75 1.75 0 0 1 0 2.186l-1.2 1.5a1.75 1.75 0 0 1-1.367.657h-2.27V21a1.75 1.75 0 0 1-1.75 1.75h-1A1.75 1.75 0 0 1 9.75 21v-1.25H6A1.75 1.75 0 0 1 4.25 18v-3c0-.966.784-1.75 1.75-1.75h3.75v-1.783l-2.704.725a1.75 1.75 0 0 1-2.143-1.237l-.777-2.898a1.75 1.75 0 0 1 1.238-2.143L9.75 4.738V3Zm1.5 1.336 1.5-.402V3a.25.25 0 0 0-.25-.25h-1a.25.25 0 0 0-.25.25v1.336Zm0 6.73v2.184h1.5v-2.586l-1.5.402Zm0 8.684V21c0 .138.113.25.25.25h1a.25.25 0 0 0 .25-.25v-1.25h-1.5Zm4.876-15.07a.25.25 0 0 0-.213-.04L5.753 7.363a.25.25 0 0 0-.178.306l.777 2.897a.25.25 0 0 0 .306.177l10.16-2.722a.25.25 0 0 0 .165-.141l.771-1.76a.25.25 0 0 0-.08-.302L16.125 4.68ZM6 14.75a.25.25 0 0 0-.25.25v3c0 .138.112.25.25.25H16.52a.25.25 0 0 0 .195-.094l1.2-1.5a.25.25 0 0 0 0-.312l-1.2-1.5a.25.25 0 0 0-.195-.094H6Z" fill="#868686"/>
</svg>
