<svg width="24" height="24" fill="none" xmlns="http://www.w3.org/2000/svg">
    <path fill-rule="evenodd" clip-rule="evenodd" d="M7.5 4a2 2 0 0 1 2-2h5a2 2 0 0 1 2 2v5a2 2 0 0 1-2 2h-5a2 2 0 0 1-2-2V4Zm4.894.033a.75.75 0 0 1 .356.638v3.25H13a.75.75 0 0 1 0 1.5h-2a.75.75 0 0 1 0-1.5h.25V5.878a.75.75 0 0 1-.585-1.378l1-.5a.75.75 0 0 1 .73.033Z" fill="#868686"/>
    <path d="M2 15a2 2 0 0 1 2-2h5a2 2 0 0 1 2 2v5a2 2 0 0 1-2 2H4a2 2 0 0 1-2-2v-5ZM13 15a2 2 0 0 1 2-2h5a2 2 0 0 1 2 2v5a2 2 0 0 1-2 2h-5a2 2 0 0 1-2-2v-5Z" fill="#868686"/>
</svg>
