<svg width="24" height="24" fill="none" xmlns="http://www.w3.org/2000/svg">
    <path fill-rule="evenodd" clip-rule="evenodd" d="M9 3.75c-.69 0-1.25.56-1.25 1.25v1.25h8.5V5c0-.69-.56-1.25-1.25-1.25H9Zm8.75 2.5V5A2.75 2.75 0 0 0 15 2.25H9A2.75 2.75 0 0 0 6.25 5v1.25H6A3.75 3.75 0 0 0 2.25 10v4A3.75 3.75 0 0 0 6 17.75h.25V19A2.75 2.75 0 0 0 9 21.75h6A2.75 2.75 0 0 0 17.75 19v-1.25H18A3.75 3.75 0 0 0 21.75 14v-4A3.75 3.75 0 0 0 18 6.25h-.25ZM17 7.75H6A2.25 2.25 0 0 0 3.75 10v4A2.25 2.25 0 0 0 6 16.25h12A2.25 2.25 0 0 0 20.25 14v-4A2.25 2.25 0 0 0 18 7.75h-1Zm-.75 10h-8.5V19c0 .69.56 1.25 1.25 1.25h6c.69 0 1.25-.56 1.25-1.25v-1.25Z" fill="#868686"/>
</svg>
