<svg width="24" height="24" fill="none" xmlns="http://www.w3.org/2000/svg">
    <path d="M3.765 4.944 2.216 6.938a1 1 0 0 0 .79 1.614H8.5a1 1 0 0 0 .8-.4l2.697-3.594 2.796 3.606a1 1 0 0 0 .79.388h5.412a1 1 0 0 0 .79-1.614l-1.551-1.994a1 1 0 0 0-.79-.386H4.555a1 1 0 0 0-.79.386Z" fill="#868686"/>
    <path d="M8.125 10.32H4.001v5.908c0 1.775 1.343 3.214 3 3.214h10c1.657 0 3-1.439 3-3.214V10.32h-4.11c-1.174 0-2.269-.63-2.917-1.676l-.966-1.56-.966 1.56c-.65 1.047-1.744 1.676-2.917 1.676Z" fill="#868686"/>
</svg>
