<svg width="24" height="24" fill="none" xmlns="http://www.w3.org/2000/svg">
    <path fill-rule="evenodd" clip-rule="evenodd" d="M8.25 4.063a2.75 2.75 0 1 1 5.152 1.34l.629.63a.75.75 0 0 1-1.06 1.06l-.63-.629a2.75 2.75 0 0 1-4.09-2.402ZM11 2.813a1.25 1.25 0 1 0 0 2.5 1.25 1.25 0 0 0 0-2.5Z" fill="#868686"/>
    <path d="M4 11.74v5.086a2 2 0 0 0 1.106 1.79l6 3a2 2 0 0 0 1.789 0l6-3a2 2 0 0 0 1.106-1.79V11.74l-5.33 2.664a1.5 1.5 0 0 1-1.918-.51L12 12.768l-.752 1.128a1.5 1.5 0 0 1-1.92.51L4.002 11.74Z" fill="#868686"/>
    <path d="m11.976 10.078-7.96-3.992L2.03 9.043l8.003 4.022 1.944-2.987Z" fill="#868686"/>
    <path d="m11.976 10.078 2.022 2.987 8.02-3.965-2.027-2.988-8.015 3.966Z" fill="#868686"/>
</svg>
