<svg width="24" height="24" fill="none" xmlns="http://www.w3.org/2000/svg">
    <path d="M13 2a4.001 4.001 0 0 1 3.71 2.5H11A5.5 5.5 0 0 0 5.5 10v7.71A4.001 4.001 0 0 1 3 14V6a4 4 0 0 1 4-4h6Z" fill="#868686"/>
    <path d="M7 10v8a4 4 0 0 0 4 4h2.343c.308 0 .612-.035.907-.104V20A4.75 4.75 0 0 1 19 15.25h1.896c.069-.295.104-.6.104-.907V10a4 4 0 0 0-4-4h-6a4 4 0 0 0-4 4Z" fill="#868686"/>
    <path d="M16.172 20.828a4.003 4.003 0 0 1-.422.367V20A3.25 3.25 0 0 1 19 16.75h1.195a4.003 4.003 0 0 1-.367.422l-3.656 3.656Z" fill="#868686"/>
</svg>
