<svg width="24" height="24" fill="none" xmlns="http://www.w3.org/2000/svg">
    <path fill-rule="evenodd" clip-rule="evenodd" d="M18.5 2.75a2.75 2.75 0 1 0 0 5.5 2.75 2.75 0 0 0 0-5.5ZM14.25 5.5a4.25 4.25 0 1 1 .844 2.542L9.578 10.8a4.25 4.25 0 0 1 0 2.4l5.516 2.758a4.25 4.25 0 1 1-.671 1.341l-5.517-2.757a4.25 4.25 0 1 1 0-5.083L14.422 6.7a4.25 4.25 0 0 1-.172-1.2ZM5.5 9.25a2.75 2.75 0 1 0 0 5.5 2.75 2.75 0 0 0 0-5.5Zm13 6.5a2.75 2.75 0 1 0-.002 5.5 2.75 2.75 0 0 0 .002-5.5Z" fill="#868686"/>
</svg>
