<svg width="24" height="24" fill="none" xmlns="http://www.w3.org/2000/svg">
    <path d="M12 2.75c-1.45 0-2.761.587-3.712 1.538a.75.75 0 0 1-1.06-1.061A6.731 6.731 0 0 1 12 1.25c1.863 0 3.552.756 4.772 1.977a.75.75 0 0 1-1.06 1.06A5.231 5.231 0 0 0 12 2.75Z" fill="#868686"/>
    <path d="M12 5.75a2.24 2.24 0 0 0-1.59.659.75.75 0 0 1-1.061-1.06A3.74 3.74 0 0 1 12 4.25a3.74 3.74 0 0 1 2.651 1.098.75.75 0 1 1-1.06 1.061A2.24 2.24 0 0 0 12 5.75Z" fill="#868686"/>
    <path fill-rule="evenodd" clip-rule="evenodd" d="M10 10a2 2 0 1 1 4 0v6.764a3 3 0 1 1-4 0V10Zm2 10a1 1 0 1 0 0-2 1 1 0 0 0 0 2Z" fill="#868686"/>
    <path d="M17 8.25a.75.75 0 1 0 0 1.5h1a.75.75 0 0 0 0-1.5h-1ZM16.25 12a.75.75 0 0 1 .75-.75h3a.75.75 0 0 1 0 1.5h-3a.75.75 0 0 1-.75-.75ZM17 14.25a.75.75 0 1 0 0 1.5h1a.75.75 0 0 0 0-1.5h-1Z" fill="#868686"/>
</svg>
