<svg width="24" height="24" fill="none" xmlns="http://www.w3.org/2000/svg">
    <path fill-rule="evenodd" clip-rule="evenodd" d="M16.858 3.405c2.31-.77 4.506 1.427 3.737 3.737l-3.863 11.587c-.898 2.694-4.708 2.694-5.605 0l-1.235-3.702a1.455 1.455 0 0 0-.92-.92L5.27 12.873c-2.693-.898-2.693-4.708 0-5.606l11.588-3.862Zm2.314 3.262c.378-1.137-.703-2.218-1.84-1.84L5.744 8.69c-1.325.442-1.325 2.318 0 2.76l3.703 1.234a2.954 2.954 0 0 1 1.868 1.868l1.235 3.703c.442 1.326 2.317 1.326 2.76 0l3.862-11.588Z" fill="#868686"/>
</svg>
