<svg width="24" height="24" fill="none" xmlns="http://www.w3.org/2000/svg">
    <path fill-rule="evenodd" clip-rule="evenodd" d="M12 8.75a2.25 2.25 0 1 0 0 4.5 2.25 2.25 0 0 0 0-4.5ZM8.25 11a3.75 3.75 0 1 1 7.5 0 3.75 3.75 0 0 1-7.5 0ZM18.5 12.75a.75.75 0 0 0-.75.75V15a.75.75 0 0 1-1.5 0v-1.5a2.25 2.25 0 0 1 4.5 0V15a.75.75 0 0 1-1.5 0v-1.5a.75.75 0 0 0-.75-.75Z" fill="#868686"/>
    <path fill-rule="evenodd" clip-rule="evenodd" d="M14.25 17A2.75 2.75 0 0 1 17 14.25h3A2.75 2.75 0 0 1 22.75 17v1A2.75 2.75 0 0 1 20 20.75h-3A2.75 2.75 0 0 1 14.25 18v-1ZM17 15.75c-.69 0-1.25.56-1.25 1.25v1c0 .69.56 1.25 1.25 1.25h3c.69 0 1.25-.56 1.25-1.25v-1c0-.69-.56-1.25-1.25-1.25h-3Z" fill="#868686"/>
    <path fill-rule="evenodd" clip-rule="evenodd" d="M12 4.75c-3.48 0-6.647 2.579-8.587 4.62a2.335 2.335 0 0 0 0 3.26c1.94 2.041 5.107 4.62 8.587 4.62a.75.75 0 0 1 0 1.5c-4.151 0-7.702-3.012-9.674-5.086a3.835 3.835 0 0 1 0-5.328C4.298 6.262 7.85 3.25 12 3.25s7.702 3.012 9.674 5.086a3.857 3.857 0 0 1 1.076 2.662.75.75 0 1 1-1.5 0c0-.577-.217-1.159-.663-1.628C18.647 7.329 15.48 4.75 12 4.75Z" fill="#868686"/>
</svg>
