<svg width="24" height="24" fill="none" xmlns="http://www.w3.org/2000/svg">
    <path fill-rule="evenodd" clip-rule="evenodd" d="M9 2.75a6.25 6.25 0 0 0-4.788 10.268.75.75 0 0 1-1.148.964 7.75 7.75 0 1 1 12.783-8.617A5.75 5.75 0 0 1 21.6 14.45a.75.75 0 0 1-1.2-.9 4.25 4.25 0 0 0-6.375-5.585.75.75 0 1 1-1.05-1.071c.42-.412.903-.76 1.434-1.028A6.248 6.248 0 0 0 9 2.75Z" fill="#868686"/>
    <path fill-rule="evenodd" clip-rule="evenodd" d="M7.51 14.45 7 15l-.51-.55a.75.75 0 0 1 1.02 0ZM7 16.1c.051.06.104.126.156.193.169.22.325.455.437.681.114.234.157.41.157.526 0 .395-.114.54-.183.6-.087.075-.259.15-.567.15-.308 0-.48-.075-.567-.15-.069-.06-.183-.205-.183-.6 0-.116.043-.292.157-.526.112-.226.268-.46.437-.68.052-.068.105-.133.156-.195Zm10.51-1.65L17 15l-.51-.55a.75.75 0 0 1 1.02 0ZM17 16.1a6.533 6.533 0 0 0-.156.193 4.17 4.17 0 0 0-.437.681c-.114.234-.157.41-.157.526 0 .395.114.54.183.6.087.075.259.15.567.15.308 0 .48-.075.567-.15.069-.06.183-.205.183-.6 0-.116-.043-.292-.157-.526a4.17 4.17 0 0 0-.437-.68 6.533 6.533 0 0 0-.156-.195ZM6.49 14.45 7 15l.51-.55.002.002.002.002.005.004.016.015a6.288 6.288 0 0 1 .243.246c.153.161.359.39.566.66.206.266.425.588.595.934.166.338.311.75.311 1.187 0 .71-.222 1.315-.696 1.73-.456.397-1.034.52-1.554.52s-1.098-.123-1.554-.52c-.474-.415-.696-1.02-.696-1.73 0-.436.145-.849.311-1.187a5.65 5.65 0 0 1 .595-.935 8.537 8.537 0 0 1 .81-.905l.015-.015.005-.005.002-.001.001-.001Zm10 0L17 15l.51-.55.004.004.005.004.016.015.055.054a8.54 8.54 0 0 1 .754.851c.206.267.425.589.595.935.166.338.311.75.311 1.187 0 .71-.222 1.315-.696 1.73-.456.397-1.034.52-1.554.52s-1.098-.123-1.554-.52c-.474-.415-.696-1.02-.696-1.73 0-.436.145-.849.311-1.187.17-.346.389-.668.595-.935a8.54 8.54 0 0 1 .754-.85l.055-.055.016-.015.005-.005.003-.002Zm-3.98 3L12 18l-.51-.55a.75.75 0 0 1 1.02 0ZM12 19.1a6.533 6.533 0 0 0-.156.193c-.169.22-.325.455-.436.681-.115.234-.158.41-.158.526 0 .395.114.54.182.6.088.075.26.15.568.15.308 0 .48-.075.568-.15.068-.06.182-.205.182-.6 0-.116-.043-.292-.158-.526a4.177 4.177 0 0 0-.436-.68 6.533 6.533 0 0 0-.156-.195Zm-.51-1.65L12 18l.51-.55.002.002.002.001.005.005.016.016.055.053a8.54 8.54 0 0 1 .754.851c.206.267.425.589.595.935.166.338.311.75.311 1.187 0 .71-.222 1.315-.696 1.73-.456.397-1.034.52-1.554.52s-1.098-.123-1.554-.52c-.474-.415-.696-1.02-.696-1.73 0-.436.145-.849.311-1.187a5.64 5.64 0 0 1 .595-.935 8.54 8.54 0 0 1 .754-.85c.023-.024.042-.042.055-.054l.016-.016.005-.005.002-.001.001-.001Z" fill="#868686"/>
</svg>
