<svg width="24" height="24" fill="none" xmlns="http://www.w3.org/2000/svg">
    <path fill-rule="evenodd" clip-rule="evenodd" d="M17 2.75a4.25 4.25 0 1 0 0 8.5 4.25 4.25 0 0 0 0-8.5ZM11.25 7a5.75 5.75 0 1 1 11.5 0 5.75 5.75 0 0 1-11.5 0Z" fill="#868686"/>
    <path fill-rule="evenodd" clip-rule="evenodd" d="M19 4.25a.75.75 0 0 1 .75.75v4a.75.75 0 0 1-1.5 0V5a.75.75 0 0 1 .75-.75ZM15 4.25a.75.75 0 0 1 .75.75v4a.75.75 0 0 1-1.5 0V5a.75.75 0 0 1 .75-.75Z" fill="#868686"/>
    <path fill-rule="evenodd" clip-rule="evenodd" d="M19.75 7a.75.75 0 0 1-.75.75h-4a.75.75 0 0 1 0-1.5h4a.75.75 0 0 1 .75.75ZM3.778 6.75c-.568 0-1.028.46-1.028 1.028 0 7.44 6.032 13.472 13.472 13.472.568 0 1.028-.46 1.028-1.028V18.91c0-.512-.311-.971-.786-1.161l-1.478-.591a1.25 1.25 0 0 0-1.583.601l-.066.132a.75.75 0 0 1-.817.4l.147-.735-.147.735h-.003l-.003-.001-.008-.002-.026-.006a6.81 6.81 0 0 1-.4-.105 9.445 9.445 0 0 1-1.042-.377c-.837-.358-1.926-.961-2.902-1.936-.975-.976-1.578-2.065-1.936-2.902a9.41 9.41 0 0 1-.462-1.352 4.373 4.373 0 0 1-.02-.09l-.006-.026-.002-.008v-.005l.734-.148-.735.147a.75.75 0 0 1 .4-.818l.132-.065a1.25 1.25 0 0 0 .601-1.583l-.591-1.478a1.25 1.25 0 0 0-1.16-.786H3.777Zm3.542 4.938a2.75 2.75 0 0 0 .915-3.23l-.591-1.48A2.75 2.75 0 0 0 5.09 5.25H3.778A2.528 2.528 0 0 0 1.25 7.778c0 8.269 6.703 14.972 14.972 14.972a2.528 2.528 0 0 0 2.528-2.528V18.91a2.75 2.75 0 0 0-1.729-2.554l-1.478-.591a2.75 2.75 0 0 0-3.23.915 8.143 8.143 0 0 1-.684-.258c-.719-.308-1.63-.817-2.432-1.619-.802-.803-1.31-1.713-1.619-2.432a8.133 8.133 0 0 1-.258-.683Z" fill="#868686"/>
</svg>
