<svg width="24" height="24" fill="none" xmlns="http://www.w3.org/2000/svg">
    <path fill-rule="evenodd" clip-rule="evenodd" d="M12 2.75c-4.504 0-7.25 3.61-7.25 7.139 0 2.09 1.049 4.24 2.448 6.159 1.388 1.905 3.053 3.491 4.14 4.436a.993.993 0 0 0 1.325 0c1.086-.945 2.751-2.531 4.14-4.436 1.398-1.92 2.447-4.07 2.447-6.16 0-3.528-2.746-7.138-7.25-7.138ZM3.25 9.889c0-4.25 3.313-8.639 8.75-8.639 5.437 0 8.75 4.39 8.75 8.639 0 2.56-1.266 5.026-2.735 7.042-1.48 2.032-3.238 3.702-4.367 4.685-.953.829-2.343.829-3.296 0-1.129-.983-2.886-2.653-4.367-4.685-1.47-2.016-2.735-4.483-2.735-7.042Z" fill="#868686"/>
    <path fill-rule="evenodd" clip-rule="evenodd" d="M12 5.75a4.25 4.25 0 1 0 0 8.5 4.25 4.25 0 0 0 0-8.5ZM6.25 10a5.75 5.75 0 1 1 11.5 0 5.75 5.75 0 0 1-11.5 0Z" fill="#868686"/>
    <path fill-rule="evenodd" clip-rule="evenodd" d="M14 7.25a.75.75 0 0 1 .75.75v4a.75.75 0 0 1-1.5 0V8a.75.75 0 0 1 .75-.75ZM10 7.25a.75.75 0 0 1 .75.75v4a.75.75 0 0 1-1.5 0V8a.75.75 0 0 1 .75-.75Z" fill="#868686"/>
    <path fill-rule="evenodd" clip-rule="evenodd" d="M14.75 10a.75.75 0 0 1-.75.75h-4a.75.75 0 0 1 0-1.5h4a.75.75 0 0 1 .75.75Z" fill="#868686"/>
</svg>
