<svg width="24" height="24" fill="none" xmlns="http://www.w3.org/2000/svg">
    <path fill-rule="evenodd" clip-rule="evenodd" d="M19 3.756c1.266-.547 2.639.518 2.423 1.88l-2.104 13.276c-.228 1.435-2.004 1.984-3.001.928l-.002-.002-3.332-3.553v-.001a2.75 2.75 0 0 1-.182-3.562l.55-.768-2.328 1.561a4.75 4.75 0 0 1-3.326.757l-3.643-.527c-1.747-.253-2.064-2.638-.444-3.338L19 3.755ZM19.94 5.4a.25.25 0 0 0-.346-.268l-15.389 6.65a.233.233 0 0 0-.124.107.265.265 0 0 0-.024.156.265.265 0 0 0 .064.145.234.234 0 0 0 .148.07l3.643.526a3.25 3.25 0 0 0 2.275-.517l4.848-3.252c.89-.598 1.93.507 1.29 1.357l-2.312 3.231a1.25 1.25 0 0 0 .06 1.649l.002.002 3.332 3.553a.25.25 0 0 0 .429-.133l2.104-13.276Z" fill="#868686"/>
</svg>
