<svg width="24" height="24" fill="none" xmlns="http://www.w3.org/2000/svg">
    <path fill-rule="evenodd" clip-rule="evenodd" d="M12.75 16.691a4.74 4.74 0 0 0 2.691-1.417l1.515.875a.75.75 0 1 0 .75-1.3l-1.412-.815A4.73 4.73 0 0 0 16.75 12c0-.729-.164-1.419-.457-2.036l1.413-.815a.75.75 0 1 0-.75-1.3l-1.516.876a4.74 4.74 0 0 0-2.69-1.416V6a.75.75 0 0 0-1.5 0v1.309a4.74 4.74 0 0 0-2.69 1.416L7.044 7.85a.75.75 0 1 0-.75 1.299l1.413.815A4.731 4.731 0 0 0 7.25 12c0 .728.164 1.418.456 2.034l-1.412.816a.75.75 0 1 0 .75 1.299l1.515-.875a4.74 4.74 0 0 0 2.691 1.417V18a.75.75 0 0 0 1.5 0v-1.309ZM8.75 12a3.25 3.25 0 1 0 6.5 0 3.25 3.25 0 0 0-6.5 0Z" fill="#868686"/>
    <path fill-rule="evenodd" clip-rule="evenodd" d="M6 1.25A4.75 4.75 0 0 0 1.25 6v12A4.75 4.75 0 0 0 6 22.75h12A4.75 4.75 0 0 0 22.75 18V6A4.75 4.75 0 0 0 18 1.25H6ZM2.75 6A3.25 3.25 0 0 1 6 2.75h12A3.25 3.25 0 0 1 21.25 6v12A3.25 3.25 0 0 1 18 21.25H6A3.25 3.25 0 0 1 2.75 18V6Z" fill="#868686"/>
</svg>
