<svg width="24" height="24" fill="none" xmlns="http://www.w3.org/2000/svg">
    <path fill-rule="evenodd" clip-rule="evenodd" d="M8.34 2.644A.75.75 0 0 1 9 2.25h6a.75.75 0 0 1 .66.394l7 13a.75.75 0 0 1-.017.742l-3 5a.75.75 0 0 1-.643.364H5a.75.75 0 0 1-.643-.364l-3-5a.75.75 0 0 1-.017-.742l7-13Zm1.935 1.106 6.388 11.5h4.081l-6.192-11.5h-4.277Zm10.4 13H8.22l-1.944 3.5h12.3l2.1-3.5Zm-15.7 2.75-2.112-3.52L9.01 4.563 11.142 8.4 4.975 19.5ZM12 9.945 9.052 15.25h5.896L12 9.944Z" fill="#868686"/>
</svg>
