<svg width="24" height="24" fill="none" xmlns="http://www.w3.org/2000/svg">
    <path fill-rule="evenodd" clip-rule="evenodd" d="M12 2.75a9.25 9.25 0 0 0-5.55 16.651.75.75 0 1 1-.9 1.2A10.735 10.735 0 0 1 1.25 12C1.25 6.063 6.063 1.25 12 1.25S22.75 6.063 22.75 12 17.937 22.75 12 22.75a10.74 10.74 0 0 1-3.366-.538.75.75 0 0 1-.49-.903l2.63-10a.75.75 0 0 1 1.451.382l-2.444 9.291A9.25 9.25 0 1 0 12 2.75Z" fill="#868686"/>
    <path fill-rule="evenodd" clip-rule="evenodd" d="M12 7.75a4.25 4.25 0 0 0-3.682 6.374.75.75 0 1 1-1.298.752 5.75 5.75 0 1 1 2.879 2.478.75.75 0 0 1 .548-1.397A4.25 4.25 0 1 0 12 7.75Z" fill="#868686"/>
</svg>
