<svg width="24" height="24" fill="none" xmlns="http://www.w3.org/2000/svg">
    <path fill-rule="evenodd" clip-rule="evenodd" d="M11.25 4.378C9.131 2.922 6.19 2.26 3.994 2.011 2.896 1.887 2 2.804 2 3.935V15.2c0 1.131.896 2.048 1.994 2.172 2.196.248 5.137.911 7.256 2.367V4.38ZM4.259 7.14a.75.75 0 0 1 .856-.627c1.303.202 2.77.54 4.156 1.075a.75.75 0 1 1-.542 1.4c-1.258-.487-2.615-.802-3.844-.992a.75.75 0 0 1-.626-.856Zm.856 3.374a.75.75 0 1 0-.23 1.482c.62.096 1.273.223 1.932.39a.75.75 0 0 0 .366-1.455 22.689 22.689 0 0 0-2.068-.417Z" fill="#868686"/>
    <path d="M12.75 19.74c.69-.475 1.47-.866 2.28-1.185A5 5 0 0 1 22 13.416v-9.48c0-1.132-.896-2.049-1.994-1.925-2.195.248-5.137.911-7.256 2.367V19.74Z" fill="#868686"/>
    <path fill-rule="evenodd" clip-rule="evenodd" d="M19 14.25a2.75 2.75 0 1 0 1.34 5.151l.63.63a.75.75 0 1 0 1.06-1.061l-.629-.63A2.75 2.75 0 0 0 19 14.25ZM17.75 17a1.25 1.25 0 1 1 2.5 0 1.25 1.25 0 0 1-2.5 0Z" fill="#868686"/>
</svg>
