<svg width="24" height="24" fill="none" xmlns="http://www.w3.org/2000/svg">
    <path d="M12 1.25a.75.75 0 0 1 .75.75v1a.75.75 0 0 1-1.5 0V2a.75.75 0 0 1 .75-.75ZM18 12a6 6 0 1 1-12 0 6 6 0 0 1 12 0ZM12.75 21a.75.75 0 0 0-1.5 0v1a.75.75 0 0 0 1.5 0v-1ZM19.601 4.398a.75.75 0 0 1 0 1.061l-.707.707a.75.75 0 0 1-1.06-1.06l.707-.708a.75.75 0 0 1 1.06 0ZM6.166 18.894a.75.75 0 1 0-1.06-1.06l-.707.707a.75.75 0 1 0 1.06 1.06l.707-.707ZM22.75 12a.75.75 0 0 1-.75.75h-1a.75.75 0 0 1 0-1.5h1a.75.75 0 0 1 .75.75ZM3 12.75a.75.75 0 0 0 0-1.5H2a.75.75 0 0 0 0 1.5h1ZM19.601 19.601a.75.75 0 0 1-1.06 0l-.707-.707a.75.75 0 0 1 1.06-1.06l.707.707a.75.75 0 0 1 0 1.06ZM5.106 6.166a.75.75 0 0 0 1.06-1.06l-.707-.707a.75.75 0 0 0-1.06 1.06l.707.707Z" fill="#868686"/>
</svg>
