<svg width="24" height="24" fill="none" xmlns="http://www.w3.org/2000/svg">
    <path fill-rule="evenodd" clip-rule="evenodd" d="M1.25 6A4.75 4.75 0 0 1 6 1.25h12A4.75 4.75 0 0 1 22.75 6v9A4.75 4.75 0 0 1 18 19.75h-5.25v1.5H15a.75.75 0 0 1 0 1.5H9a.75.75 0 0 1 0-1.5h2.25v-1.5H6A4.75 4.75 0 0 1 1.25 15V6ZM18 18.25A3.25 3.25 0 0 0 21.25 15V6A3.25 3.25 0 0 0 18 2.75H6A3.25 3.25 0 0 0 2.75 6v9A3.25 3.25 0 0 0 6 18.25h12ZM9.25 8a2.75 2.75 0 1 1 5.5 0 2.75 2.75 0 0 1-5.5 0ZM12 6.75a1.25 1.25 0 1 0 0 2.5 1.25 1.25 0 0 0 0-2.5ZM7.25 13.5a2.25 2.25 0 0 1 2.25-2.25h5a2.25 2.25 0 0 1 0 4.5h-5a2.25 2.25 0 0 1-2.25-2.25Zm2.25-.75a.75.75 0 0 0 0 1.5h5a.75.75 0 0 0 0-1.5h-5Z" fill="#868686"/>
</svg>
