<svg width="24" height="24" fill="none" xmlns="http://www.w3.org/2000/svg">
    <path fill-rule="evenodd" clip-rule="evenodd" d="M12 2.75c-1.45 0-2.761.587-3.712 1.538a.75.75 0 0 1-1.061-1.061A6.731 6.731 0 0 1 12 1.25c1.864 0 3.552.756 4.773 1.977a.75.75 0 1 1-1.06 1.06A5.231 5.231 0 0 0 12 2.75Zm0 3a2.24 2.24 0 0 0-1.591.659.75.75 0 1 1-1.06-1.06A3.74 3.74 0 0 1 12 4.25a3.74 3.74 0 0 1 2.652 1.098.75.75 0 0 1-1.061 1.061A2.24 2.24 0 0 0 12 5.75Zm-2 3A3.25 3.25 0 0 0 6.75 12v6A3.25 3.25 0 0 0 10 21.25h4A3.25 3.25 0 0 0 17.25 18v-6A3.25 3.25 0 0 0 14 8.75h-4ZM5.25 12A4.75 4.75 0 0 1 10 7.25h4A4.75 4.75 0 0 1 18.75 12v6A4.75 4.75 0 0 1 14 22.75h-4A4.75 4.75 0 0 1 5.25 18v-6Zm3.75.75a.75.75 0 0 1 .75.75v3a.75.75 0 0 1-1.5 0v-3a.75.75 0 0 1 .75-.75Z" fill="#868686"/>
</svg>
