<svg width="24" height="24" fill="none" xmlns="http://www.w3.org/2000/svg">
    <path fill-rule="evenodd" clip-rule="evenodd" d="M12 1.25a.75.75 0 0 1 .75.75v3.69l.72-.72a.75.75 0 1 1 1.06 1.06l-1.293 1.293a1.75 1.75 0 0 1-2.474 0L9.47 6.03a.75.75 0 0 1 1.06-1.06l.72.72V2a.75.75 0 0 1 .75-.75Zm8.308 6.441a.75.75 0 0 1 0 1.061l-1.414 1.414a.75.75 0 0 1-1.06-1.06l1.414-1.415a.75.75 0 0 1 1.06 0Zm-16.616 0a.75.75 0 0 1 1.06 0l1.414 1.415a.75.75 0 0 1-1.06 1.06L3.692 8.752a.75.75 0 0 1 0-1.06Zm1.6 7.559H3a.75.75 0 0 0 0 1.5h18a.75.75 0 0 0 0-1.5h-2.291a6.751 6.751 0 0 0-13.418 0Zm1.511 0h10.394a5.251 5.251 0 0 0-10.394 0ZM5.25 19a.75.75 0 0 1 .75-.75h12a.75.75 0 0 1 0 1.5H6a.75.75 0 0 1-.75-.75Zm3 3a.75.75 0 0 1 .75-.75h6a.75.75 0 0 1 0 1.5H9a.75.75 0 0 1-.75-.75Z" fill="#868686"/>
</svg>
