<svg width="24" height="24" fill="none" xmlns="http://www.w3.org/2000/svg">
    <path fill-rule="evenodd" clip-rule="evenodd" d="M5.25 9A3.75 3.75 0 0 1 9 5.25h6A3.75 3.75 0 0 1 18.75 9v6A3.75 3.75 0 0 1 15 18.75H9A3.75 3.75 0 0 1 5.25 15V9ZM9 6.75A2.25 2.25 0 0 0 6.75 9v6A2.25 2.25 0 0 0 9 17.25h6A2.25 2.25 0 0 0 17.25 15V9A2.25 2.25 0 0 0 15 6.75H9ZM12 1.25a.75.75 0 0 1 .75.75v1a.75.75 0 0 1-1.5 0V2a.75.75 0 0 1 .75-.75ZM12 20.25a.75.75 0 0 1 .75.75v1a.75.75 0 0 1-1.5 0v-1a.75.75 0 0 1 .75-.75ZM20.6 3.398a.75.75 0 0 1 0 1.061l-.706.707a.75.75 0 1 1-1.061-1.06l.707-.708a.75.75 0 0 1 1.06 0ZM5.167 18.834a.75.75 0 0 1 0 1.06l-.707.708A.75.75 0 1 1 3.4 19.54l.706-.707a.75.75 0 0 1 1.061 0ZM22.75 12a.75.75 0 0 1-.75.75h-1a.75.75 0 0 1 0-1.5h1a.75.75 0 0 1 .75.75Z" fill="#868686"/>
    <path fill-rule="evenodd" clip-rule="evenodd" d="M13.75 9a.75.75 0 0 1-.75.75h-2a.75.75 0 0 1 0-1.5h2a.75.75 0 0 1 .75.75ZM3.75 12a.75.75 0 0 1-.75.75H2a.75.75 0 0 1 0-1.5h1a.75.75 0 0 1 .75.75ZM20.6 20.602a.75.75 0 0 1-1.06 0l-.707-.707a.75.75 0 0 1 1.06-1.061l.708.707a.75.75 0 0 1 0 1.06ZM5.167 5.166a.75.75 0 0 1-1.06 0l-.708-.707a.75.75 0 1 1 1.061-1.06l.707.706a.75.75 0 0 1 0 1.061Z" fill="#868686"/>
</svg>
