<svg width="24" height="24" fill="none" xmlns="http://www.w3.org/2000/svg">
    <path fill-rule="evenodd" clip-rule="evenodd" d="M1.25 7.5A2.25 2.25 0 0 1 3.5 5.25h17a2.25 2.25 0 0 1 1.243 4.126c-.198 5.21-4.484 9.374-9.743 9.374s-9.545-4.164-9.743-9.374A2.248 2.248 0 0 1 1.25 7.5Zm2.534 2.25a8.244 8.244 0 0 0 3.472 6 4.75 4.75 0 0 1 9.488 0 8.244 8.244 0 0 0 3.472-6H3.784Zm11.466 6.835V16a3.25 3.25 0 0 0-6.5 0v.585a8.223 8.223 0 0 0 3.25.665 8.223 8.223 0 0 0 3.25-.665ZM3.5 6.75a.75.75 0 0 0 0 1.5h17a.75.75 0 0 0 0-1.5h-17Z" fill="#868686"/>
    <path d="M13 15a1 1 0 1 0-2 0 1 1 0 0 0 2 0Z" fill="#868686"/>
</svg>
