<svg width="24" height="24" fill="none" xmlns="http://www.w3.org/2000/svg">
    <path fill-rule="evenodd" clip-rule="evenodd" d="M13.864 3.22a3.25 3.25 0 0 0-3.728 0l-6 4.2a3.25 3.25 0 0 0-1.386 2.663V20c0 .69.56 1.25 1.25 1.25h16c.69 0 1.25-.56 1.25-1.25v-9.917a3.25 3.25 0 0 0-1.386-2.663l-6-4.2ZM9.276 1.991a4.75 4.75 0 0 1 5.448 0l6 4.2a4.75 4.75 0 0 1 2.026 3.892V20A2.75 2.75 0 0 1 20 22.75H4A2.75 2.75 0 0 1 1.25 20v-9.917A4.75 4.75 0 0 1 3.276 6.19l6-4.2Z" fill="#868686"/>
    <path fill-rule="evenodd" clip-rule="evenodd" d="M5.25 12A2.75 2.75 0 0 1 8 9.25h8A2.75 2.75 0 0 1 18.75 12v10h-1.5V12c0-.69-.56-1.25-1.25-1.25H8c-.69 0-1.25.56-1.25 1.25v10h-1.5V12Z" fill="#868686"/>
    <path fill-rule="evenodd" clip-rule="evenodd" d="M18.75 14a.75.75 0 0 1-.75.75H6a.75.75 0 0 1 0-1.5h12a.75.75 0 0 1 .75.75ZM18.75 18a.75.75 0 0 1-.75.75H6a.75.75 0 0 1 0-1.5h12a.75.75 0 0 1 .75.75Z" fill="#868686"/>
</svg>
