<svg width="24" height="24" fill="none" xmlns="http://www.w3.org/2000/svg">
    <path fill-rule="evenodd" clip-rule="evenodd" d="M1.25 4.5a2.25 2.25 0 0 1 4.5 0v13.167a4.75 4.75 0 0 1-.95 2.85l-.7.933a.75.75 0 0 1-1.2 0l-.7-.933a4.75 4.75 0 0 1-.95-2.85V4.5Zm1.5 3.25v9.917c0 .703.228 1.387.65 1.95l.1.133.1-.133a3.25 3.25 0 0 0 .65-1.95V7.75h-1.5Zm1.5-1.5h-1.5V4.5a.75.75 0 0 1 1.5 0v1.75Zm3-.25A3.75 3.75 0 0 1 11 2.25h8A3.75 3.75 0 0 1 22.75 6v12A3.75 3.75 0 0 1 19 21.75h-8A3.75 3.75 0 0 1 7.25 18V6Zm1.5 12A2.25 2.25 0 0 0 11 20.25h8A2.25 2.25 0 0 0 21.25 18v-2.25H11A2.25 2.25 0 0 0 8.75 18Zm12.5-3.75H11c-.844 0-1.623.279-2.25.75V6A2.25 2.25 0 0 1 11 3.75h8A2.25 2.25 0 0 1 21.25 6v8.25ZM11.25 7a.75.75 0 0 1 .75-.75h6a.75.75 0 0 1 0 1.5h-6a.75.75 0 0 1-.75-.75Zm0 4a.75.75 0 0 1 .75-.75h3a.75.75 0 0 1 0 1.5h-3a.75.75 0 0 1-.75-.75Z" fill="#868686"/>
</svg>
