<svg width="24" height="24" fill="none" xmlns="http://www.w3.org/2000/svg">
    <path fill-rule="evenodd" clip-rule="evenodd" d="M6.998 16.061c-.21.207-.248.355-.248.439 0 .084.038.232.248.439.213.21.56.433 1.048.637.974.405 2.371.674 3.954.674 1.583 0 2.98-.269 3.954-.674.489-.204.835-.428 1.048-.637.21-.207.248-.355.248-.439 0-.084-.038-.232-.248-.439-.213-.21-.56-.433-1.048-.636-.974-.406-2.371-.675-3.954-.675-1.583 0-2.98.269-3.954.675-.489.203-.835.426-1.048.636Zm.47-2.021c1.198-.5 2.8-.79 4.532-.79 1.731 0 3.334.29 4.531.79.597.249 1.13.564 1.524.953.397.39.695.9.695 1.507 0 .606-.298 1.116-.695 1.507-.395.389-.927.704-1.524.953-1.197.5-2.8.79-4.531.79-1.731 0-3.334-.29-4.531-.79-.597-.249-1.13-.564-1.524-.953-.397-.39-.695-.9-.695-1.507 0-.606.298-1.116.695-1.507.395-.389.927-.704 1.524-.953ZM12 5.75a2.25 2.25 0 1 0 0 4.5 2.25 2.25 0 0 0 0-4.5ZM8.25 8a3.75 3.75 0 1 1 7.5 0 3.75 3.75 0 0 1-7.5 0Z" fill="#868686"/>
    <path d="M6.445 13.262c-1.238.051-2.376.274-3.26.628-.504.201-.963.46-1.307.787-.347.328-.628.774-.628 1.323 0 .55.281.996.628 1.324.344.326.803.585 1.308.787.5.2 1.081.358 1.716.467-.494-.532-.803-1.127-.882-1.758a5.336 5.336 0 0 1-.277-.102c-.4-.16-.674-.332-.835-.484-.158-.15-.158-.23-.158-.234 0-.004 0-.084.158-.233.161-.153.435-.325.835-.485.203-.08.429-.155.675-.22.414-.69 1.116-1.306 2.027-1.8ZM19.98 16.82c-.078.63-.388 1.226-.882 1.758a8.564 8.564 0 0 0 1.716-.467c.505-.202.964-.461 1.309-.787.346-.328.627-.775.627-1.324s-.281-.995-.627-1.323c-.345-.326-.804-.585-1.309-.787-.883-.354-2.02-.577-3.26-.628.912.494 1.615 1.11 2.028 1.8.246.065.472.14.675.22.4.16.674.332.835.485.158.15.158.229.158.233 0 .005 0 .084-.158.234-.161.152-.435.324-.835.484-.088.035-.18.07-.277.102ZM16.514 10.152a5.01 5.01 0 0 1-.852 1.252 2.75 2.75 0 1 0 1.029-5.136c.172.465.277.963.302 1.482H17a1.25 1.25 0 1 1-.485 2.402ZM7.308 6.267a2.75 2.75 0 1 0 1.029 5.136 5.01 5.01 0 0 1-.851-1.25 1.25 1.25 0 1 1-.48-2.402 4.98 4.98 0 0 1 .302-1.484Z" fill="#868686"/>
</svg>
