<svg width="24" height="24" fill="none" xmlns="http://www.w3.org/2000/svg">
    <path fill-rule="evenodd" clip-rule="evenodd" d="M12 2.75a9.25 9.25 0 1 0 9.22 8.5h-8.47v1.5h6.089a.75.75 0 0 1 .733.91 7.75 7.75 0 1 1-2.648-7.645L17.99 4.95A9.21 9.21 0 0 0 12 2.75ZM1.25 12C1.25 6.063 6.063 1.25 12 1.25c2.968 0 5.657 1.204 7.601 3.149a.75.75 0 0 1 0 1.06l-2.12 2.122a.75.75 0 0 1-1.062 0 6.25 6.25 0 1 0 1.414 6.67H12a.75.75 0 0 1-.75-.751v-3a.75.75 0 0 1 .75-.75h9.888a.75.75 0 0 1 .742.638c.079.527.12 1.065.12 1.612 0 5.937-4.813 10.75-10.75 10.75S1.25 17.937 1.25 12Z" fill="#868686"/>
</svg>
