<svg width="24" height="24" fill="none" xmlns="http://www.w3.org/2000/svg">
    <path fill-rule="evenodd" clip-rule="evenodd" d="M12 6.25a.75.75 0 0 1 .75.75v7.25H15a.75.75 0 0 1 .648.372l3.283 5.628H20a.75.75 0 0 1 0 1.5h-1.5a.75.75 0 0 1-.648-.372L14.57 15.75H12a.75.75 0 0 1-.75-.75V7a.75.75 0 0 1 .75-.75ZM12 2.75a.75.75 0 1 0 0 1.5.75.75 0 0 0 0-1.5Zm-2.25.75a2.25 2.25 0 1 1 4.5 0 2.25 2.25 0 0 1-4.5 0Z" fill="#868686"/>
    <path fill-rule="evenodd" clip-rule="evenodd" d="M12 8.75a6.25 6.25 0 1 0 4.788 10.268.75.75 0 1 1 1.148.964A7.75 7.75 0 1 1 12 7.25h3a.75.75 0 0 1 0 1.5h-3Z" fill="#868686"/>
</svg>
