<svg width="24" height="24" fill="none" xmlns="http://www.w3.org/2000/svg">
    <path fill-rule="evenodd" clip-rule="evenodd" d="M7 1.25h4.343c1.26 0 2.468.5 3.359 1.391l5.657 5.657a4.75 4.75 0 0 1 1.391 3.359V18A4.75 4.75 0 0 1 17 22.75H7A4.75 4.75 0 0 1 2.25 18V6A4.75 4.75 0 0 1 7 1.25Zm4.343 1.5H7A3.25 3.25 0 0 0 3.75 6v12A3.25 3.25 0 0 0 7 21.25h10A3.25 3.25 0 0 0 20.25 18v-6.343c0-.31-.044-.615-.13-.907H17A4.75 4.75 0 0 1 12.25 6V2.88a3.249 3.249 0 0 0-.907-.13Zm2.407 1.06V6A3.25 3.25 0 0 0 17 9.25h2.19l-5.44-5.44Z" fill="#868686"/>
    <path d="M5.902 13.632h1.585c.358 0 .63.027.818.082.252.074.467.206.647.395.18.19.317.422.41.698.094.273.14.611.14 1.013 0 .354-.043.659-.13.914-.108.313-.262.566-.46.76-.151.146-.354.26-.61.342-.192.06-.448.09-.768.09H5.902v-4.294Zm.868.726v2.845h.647c.242 0 .417-.014.524-.04a.789.789 0 0 0 .349-.18c.094-.084.17-.221.229-.413.058-.193.087-.456.087-.788s-.029-.587-.087-.764a.982.982 0 0 0-.247-.416.826.826 0 0 0-.4-.203c-.122-.027-.36-.04-.713-.04h-.39ZM10.065 15.806c0-.438.066-.805.197-1.102.097-.219.23-.415.398-.589.17-.174.356-.303.557-.386.267-.114.576-.17.926-.17.632 0 1.138.196 1.517.589.381.392.571.938.571 1.637 0 .694-.188 1.236-.565 1.63-.377.39-.88.585-1.512.585-.638 0-1.146-.194-1.523-.583-.377-.39-.566-.928-.566-1.611Zm.894-.03c0 .487.112.856.337 1.108.225.25.51.375.855.375.346 0 .63-.124.85-.372.223-.25.334-.624.334-1.122 0-.492-.108-.86-.325-1.102-.215-.242-.501-.363-.859-.363-.357 0-.645.123-.864.369-.219.244-.328.613-.328 1.107ZM17.66 16.348l.84.266c-.129.469-.344.818-.645 1.046-.298.227-.678.34-1.14.34-.57 0-1.038-.194-1.405-.583-.368-.39-.551-.924-.551-1.6 0-.715.184-1.27.553-1.664.37-.396.855-.594 1.457-.594.525 0 .952.155 1.28.465.195.184.342.448.44.791l-.86.206a.907.907 0 0 0-.319-.528.905.905 0 0 0-.585-.193.982.982 0 0 0-.777.343c-.197.228-.296.598-.296 1.11 0 .543.098.93.293 1.16.196.23.45.346.762.346a.87.87 0 0 0 .595-.22c.166-.146.285-.377.357-.691Z" fill="#868686"/>
</svg>
