<svg width="24" height="24" fill="none" xmlns="http://www.w3.org/2000/svg">
    <path fill-rule="evenodd" clip-rule="evenodd" d="M16 2.75H8A3.25 3.25 0 0 0 4.75 6v12A3.25 3.25 0 0 0 8 21.25h8A3.25 3.25 0 0 0 19.25 18V6A3.25 3.25 0 0 0 16 2.75Zm-8-1.5h8A4.75 4.75 0 0 1 20.75 6v12A4.75 4.75 0 0 1 16 22.75H8A4.75 4.75 0 0 1 3.25 18V6A4.75 4.75 0 0 1 8 1.25ZM7.25 6A.75.75 0 0 1 8 5.25h8a.75.75 0 0 1 0 1.5H8A.75.75 0 0 1 7.25 6Z" fill="#868686"/>
    <path d="M8.75 10a.75.75 0 1 1-1.5 0 .75.75 0 0 1 1.5 0ZM12.75 10a.75.75 0 1 1-1.5 0 .75.75 0 0 1 1.5 0ZM16.75 10a.75.75 0 1 1-1.5 0 .75.75 0 0 1 1.5 0ZM8.75 14a.75.75 0 1 1-1.5 0 .75.75 0 0 1 1.5 0ZM12.75 14a.75.75 0 1 1-1.5 0 .75.75 0 0 1 1.5 0ZM16.75 14a.75.75 0 1 1-1.5 0 .75.75 0 0 1 1.5 0ZM8.75 18a.75.75 0 1 1-1.5 0 .75.75 0 0 1 1.5 0ZM12.75 18a.75.75 0 1 1-1.5 0 .75.75 0 0 1 1.5 0ZM16.75 18a.75.75 0 1 1-1.5 0 .75.75 0 0 1 1.5 0Z" fill="#868686"/>
</svg>
