<svg width="24" height="24" fill="none" xmlns="http://www.w3.org/2000/svg">
    <path fill-rule="evenodd" clip-rule="evenodd" d="M10.017 7.25c.29.007.55.18.668.445l3.279 7.377 1.34-3.35A.75.75 0 0 1 16 11.25h2a.75.75 0 0 1 0 1.5h-1.492l-1.812 4.529a.75.75 0 0 1-1.381.026L9.96 9.757l-1.29 2.578a.75.75 0 0 1-.67.415H6a.75.75 0 0 1 0-1.5h1.536L9.33 7.665a.75.75 0 0 1 .688-.415Z" fill="#868686"/>
    <path fill-rule="evenodd" clip-rule="evenodd" d="M1.25 6A4.75 4.75 0 0 1 6 1.25h12A4.75 4.75 0 0 1 22.75 6v12A4.75 4.75 0 0 1 18 22.75H6A4.75 4.75 0 0 1 1.25 18V6ZM6 2.75A3.25 3.25 0 0 0 2.75 6v12A3.25 3.25 0 0 0 6 21.25h12A3.25 3.25 0 0 0 21.25 18V6A3.25 3.25 0 0 0 18 2.75H6Z" fill="#868686"/>
</svg>
