<svg width="24" height="24" fill="none" xmlns="http://www.w3.org/2000/svg">
    <path fill-rule="evenodd" clip-rule="evenodd" d="M8.25 5a3.75 3.75 0 1 1 7.5 0v1.01a4 4 0 0 1 3.689 3.494l1 8A4 4 0 0 1 16.469 22H7.533a4 4 0 0 1-3.97-4.496l1-8A4 4 0 0 1 8.252 6.01V5Zm6 0v1h-4.5V5a2.25 2.25 0 0 1 4.5 0Zm1.12 11.653a.75.75 0 1 0-.738-1.306c-1.137.64-1.912.902-2.631.903-.718.001-1.493-.255-2.63-.902a.75.75 0 1 0-.741 1.304c1.22.694 2.268 1.1 3.374 1.098 1.103-.002 2.15-.412 3.365-1.097Z" fill="#868686"/>
</svg>
