<svg width="24" height="24" fill="none" xmlns="http://www.w3.org/2000/svg">
    <path fill-rule="evenodd" clip-rule="evenodd" d="M1.25 7A4.75 4.75 0 0 1 6 2.25h12A4.75 4.75 0 0 1 22.75 7v10A4.75 4.75 0 0 1 18 21.75H6A4.75 4.75 0 0 1 1.25 17V7ZM6 3.75A3.25 3.25 0 0 0 2.75 7v10A3.25 3.25 0 0 0 6 20.25h12A3.25 3.25 0 0 0 21.25 17V7A3.25 3.25 0 0 0 18 3.75H6ZM5.25 9A2.75 2.75 0 0 1 8 6.25h2a2.75 2.75 0 1 1 0 5.5H8A2.75 2.75 0 0 1 5.25 9ZM8 7.75a1.25 1.25 0 1 0 0 2.5h2a1.25 1.25 0 1 0 0-2.5H8ZM14.25 14a.75.75 0 0 1 .75-.75h3a.75.75 0 0 1 0 1.5h-3a.75.75 0 0 1-.75-.75Zm0 3a.75.75 0 0 1 .75-.75h3a.75.75 0 0 1 0 1.5h-3a.75.75 0 0 1-.75-.75Z" fill="#868686"/>
</svg>
