<svg width="24" height="24" fill="none" xmlns="http://www.w3.org/2000/svg">
    <path fill-rule="evenodd" clip-rule="evenodd" d="M12 12.75a1.25 1.25 0 1 0 0 2.5 1.25 1.25 0 0 0 0-2.5ZM9.25 14a2.75 2.75 0 1 1 5.5 0 2.75 2.75 0 0 1-5.5 0Z" fill="#868686"/>
    <path fill-rule="evenodd" clip-rule="evenodd" d="M12 4.75A9.25 9.25 0 0 0 2.75 14a9.219 9.219 0 0 0 2.71 6.54.75.75 0 0 1-1.061 1.061A10.719 10.719 0 0 1 1.25 14C1.25 8.063 6.063 3.25 12 3.25S22.75 8.063 22.75 14c0 2.968-1.204 5.657-3.149 7.601a.75.75 0 0 1-1.06-1.06A9.218 9.218 0 0 0 21.25 14 9.25 9.25 0 0 0 12 4.75Zm0 4a5.25 5.25 0 0 0-3.712 8.962.75.75 0 0 1-1.061 1.061 6.75 6.75 0 1 1 9.546 0 .75.75 0 0 1-1.06-1.06A5.25 5.25 0 0 0 12 8.75Z" fill="#868686"/>
</svg>
