<svg width="24" height="24" fill="none" xmlns="http://www.w3.org/2000/svg">
    <path fill-rule="evenodd" clip-rule="evenodd" d="M15 21.25c3.864 0 6.25-3.19 6.25-6.35 0-1.812-.86-3.682-2.033-5.37-1.164-1.675-2.576-3.09-3.55-3.976a.974.974 0 0 0-1.333 0c-.974.886-2.387 2.3-3.55 3.976C9.61 11.218 8.75 13.088 8.75 14.9c0 3.16 2.386 6.35 6.25 6.35Zm7.75-6.35c0 3.84-2.916 7.85-7.75 7.85s-7.75-4.01-7.75-7.85c0-2.26 1.057-4.435 2.301-6.226 1.253-1.804 2.756-3.304 3.774-4.23a2.473 2.473 0 0 1 3.35 0c1.018.926 2.52 2.426 3.774 4.23 1.243 1.791 2.301 3.967 2.301 6.226Z" fill="#868686"/>
    <path fill-rule="evenodd" clip-rule="evenodd" d="M8.67 3.605a.95.95 0 0 0-1.34 0c-.853.82-2.012 2.06-2.953 3.503-.948 1.454-1.627 3.042-1.627 4.58 0 2.681 1.865 5.33 4.854 5.546a7.986 7.986 0 0 1-.354-2.336c0-1.733.623-3.413 1.464-4.898.73-1.29 1.645-2.467 2.525-3.454-.86-1.202-1.83-2.229-2.569-2.94Zm-2.38-1.08a2.45 2.45 0 0 1 3.42 0c.88.847 2.095 2.14 3.11 3.672l.325.493-.403.433c-.95 1.018-1.957 2.263-2.723 3.616-.769 1.357-1.269 2.777-1.269 4.16 0 .933.211 1.879.614 2.747l.44.947-1.039.114a7.03 7.03 0 0 1-.765.041c-4.237 0-6.75-3.637-6.75-7.06 0-1.956.851-3.836 1.87-5.4 1.027-1.573 2.273-2.9 3.17-3.764ZM15.264 19.142a.75.75 0 0 1 .594-.878c1.277-.247 2.15-1.26 2.41-2.427a.75.75 0 1 1 1.464.326c-.369 1.657-1.638 3.196-3.59 3.573a.75.75 0 0 1-.878-.594Z" fill="#868686"/>
</svg>
