<svg width="24" height="24" fill="none" xmlns="http://www.w3.org/2000/svg">
    <path fill-rule="evenodd" clip-rule="evenodd" d="M12 2.75A9.25 9.25 0 0 0 2.75 12c0 2.421.93 4.625 2.453 6.274A7.748 7.748 0 0 1 12 14.25c2.93 0 5.48 1.626 6.797 4.024A9.215 9.215 0 0 0 21.25 12 9.25 9.25 0 0 0 12 2.75Zm5.65 16.574a6.251 6.251 0 0 0-11.3 0A9.207 9.207 0 0 0 12 21.25a9.207 9.207 0 0 0 5.65-1.926ZM1.25 12C1.25 6.063 6.063 1.25 12 1.25S22.75 6.063 22.75 12c0 3.24-1.434 6.145-3.699 8.115A10.712 10.712 0 0 1 12 22.75c-2.697 0-5.164-.994-7.051-2.635A10.727 10.727 0 0 1 1.25 12Z" fill="#868686"/>
    <path fill-rule="evenodd" clip-rule="evenodd" d="M12 11.25a2.25 2.25 0 1 1 0-4.5 2.25 2.25 0 0 1 0 4.5ZM8.25 9a3.75 3.75 0 1 0 7.5 0 3.75 3.75 0 0 0-7.5 0Z" fill="#868686"/>
</svg>
