<svg width="24" height="24" fill="none" xmlns="http://www.w3.org/2000/svg">
    <path fill-rule="evenodd" clip-rule="evenodd" d="M7 5.75a2.25 2.25 0 1 0 0 4.5 2.25 2.25 0 0 0 0-4.5ZM3.25 8a3.75 3.75 0 1 1 7.5 0 3.75 3.75 0 0 1-7.5 0Zm10-1a.75.75 0 0 1 .75-.75h8a.75.75 0 0 1 0 1.5h-8a.75.75 0 0 1-.75-.75Zm0 5a.75.75 0 0 1 .75-.75h8a.75.75 0 0 1 0 1.5h-8a.75.75 0 0 1-.75-.75Zm-9.4 2.522c-.784.47-1.1 1.017-1.1 1.478 0 .462.316 1.007 1.1 1.478.77.462 1.882.772 3.15.772s2.38-.31 3.15-.772c.784-.47 1.1-1.017 1.1-1.478 0-.461-.316-1.007-1.1-1.478-.77-.462-1.882-.772-3.15-.772s-2.38.31-3.15.772Zm-.771-1.286c1.04-.624 2.428-.986 3.921-.986 1.493 0 2.881.362 3.921.986 1.025.615 1.829 1.569 1.829 2.764 0 1.195-.804 2.15-1.829 2.764-1.04.624-2.428.986-3.921.986-1.493 0-2.881-.362-3.921-.986C2.054 18.15 1.25 17.195 1.25 16c0-1.195.804-2.15 1.829-2.764ZM15.25 17a.75.75 0 0 1 .75-.75h6a.75.75 0 0 1 0 1.5h-6a.75.75 0 0 1-.75-.75Z" fill="#868686"/>
</svg>
