<svg width="24" height="24" fill="none" xmlns="http://www.w3.org/2000/svg">
    <path fill-rule="evenodd" clip-rule="evenodd" d="M5.63 7.403a1.25 1.25 0 0 0-1.88 1.08v7.035a1.25 1.25 0 0 0 1.88 1.08l4.62-2.695v-3.805L5.63 7.403Zm4.622.96L6.386 6.107C4.552 5.037 2.25 6.36 2.25 8.483v7.035c0 2.123 2.302 3.445 4.136 2.376l3.866-2.256c.085 2.052 2.335 3.305 4.134 2.256l6.03-3.518c1.82-1.061 1.82-3.69 0-4.75l-6.03-3.519c-1.799-1.049-4.049.204-4.133 2.256Zm3.378-.96a1.25 1.25 0 0 0-1.88 1.08v7.035a1.25 1.25 0 0 0 1.88 1.08l6.03-3.518a1.25 1.25 0 0 0 0-2.16l-6.03-3.517Z" fill="#868686"/>
</svg>
