<svg width="24" height="24" fill="none" xmlns="http://www.w3.org/2000/svg">
    <path d="m11.25 5.604-.72-.72a.75.75 0 1 0-1.06 1.06l1.293 1.293a1.75 1.75 0 0 0 2.474 0l1.293-1.292a.75.75 0 0 0-1.06-1.061l-.72.72V2a.75.75 0 0 0-1.5 0v3.604Z" fill="#868686"/>
    <path fill-rule="evenodd" clip-rule="evenodd" d="m1.665 9.67 1.585.794v6.3a2.75 2.75 0 0 0 1.52 2.46l6 3a2.75 2.75 0 0 0 2.46 0l6-3a2.75 2.75 0 0 0 1.52-2.46v-6.3l1.585-.793a.75.75 0 0 0 .289-1.087l-2-3a.747.747 0 0 0-.3-.26l-1.989-.995a.75.75 0 1 0-.67 1.342l.658.33L12 9.16l-6.323-3.16.658-.33a.75.75 0 0 0-.67-1.342l-1.988.994a.747.747 0 0 0-.301.261l-2 3a.75.75 0 0 0 .289 1.087Zm8 4L4.75 11.215v5.55c0 .473.268.906.691 1.118l6 3a1.25 1.25 0 0 0 1.118 0l6-3a1.25 1.25 0 0 0 .691-1.118v-5.55l-4.915 2.457a.75.75 0 0 1-.959-.255L12 11.352l-1.376 2.064a.75.75 0 0 1-.96.255ZM4.257 6.968 3.095 8.71l6.648 3.324 1.162-1.742-6.648-3.324Zm10 5.066-1.162-1.742 6.648-3.324 1.162 1.742-6.648 3.324Z" fill="#868686"/>
</svg>
