<svg width="24" height="24" fill="none" xmlns="http://www.w3.org/2000/svg">
    <path fill-rule="evenodd" clip-rule="evenodd" d="M13.509 5.303a.75.75 0 0 1 .974.42l.795 2.003a.75.75 0 0 1-1.066.93A4.497 4.497 0 0 0 12 8.084c-2.397 0-4.25 1.801-4.25 3.916 0 .345.048.678.138.995a.75.75 0 1 1-1.443.41A5.13 5.13 0 0 1 6.25 12c0-3.04 2.624-5.416 5.75-5.416.433 0 .856.045 1.262.13l-.173-.437a.75.75 0 0 1 .42-.974Zm3.12 4.776a.75.75 0 0 1 .926.516c.127.449.195.92.195 1.405 0 3.04-2.624 5.417-5.75 5.417-.433 0-.856-.045-1.262-.131l.173.437a.75.75 0 0 1-1.394.554l-.795-2.002a.75.75 0 0 1 1.066-.93 4.496 4.496 0 0 0 2.212.572c2.397 0 4.25-1.802 4.25-3.917 0-.344-.048-.678-.138-.995a.75.75 0 0 1 .516-.926Z" fill="#868686"/>
    <path fill-rule="evenodd" clip-rule="evenodd" d="M1.25 6A4.75 4.75 0 0 1 6 1.25h12A4.75 4.75 0 0 1 22.75 6v12A4.75 4.75 0 0 1 18 22.75H6A4.75 4.75 0 0 1 1.25 18V6ZM6 2.75A3.25 3.25 0 0 0 2.75 6v12A3.25 3.25 0 0 0 6 21.25h12A3.25 3.25 0 0 0 21.25 18V6A3.25 3.25 0 0 0 18 2.75H6Z" fill="#868686"/>
</svg>
