<svg width="24" height="24" fill="none" xmlns="http://www.w3.org/2000/svg">
    <path fill-rule="evenodd" clip-rule="evenodd" d="M1.25 6A4.75 4.75 0 0 1 6 1.25h12A4.75 4.75 0 0 1 22.75 6v8A4.75 4.75 0 0 1 18 18.75h-5.25V22a.75.75 0 0 1-1.5 0v-3.25H6A4.75 4.75 0 0 1 1.25 14V6ZM18 17.25A3.25 3.25 0 0 0 21.25 14V6A3.25 3.25 0 0 0 18 2.75H6A3.25 3.25 0 0 0 2.75 6v8A3.25 3.25 0 0 0 6 17.25h12Zm-7.5-10.5a.75.75 0 0 0-.75.75V8A2.75 2.75 0 0 1 7 10.75H6a.75.75 0 0 1 0-1.5h1c.69 0 1.25-.56 1.25-1.25v-.5a2.25 2.25 0 0 1 4.5 0v5a.75.75 0 0 0 1.5 0V12A2.75 2.75 0 0 1 17 9.25h1a.75.75 0 0 1 0 1.5h-1c-.69 0-1.25.56-1.25 1.25v.5a2.25 2.25 0 0 1-4.5 0v-5a.75.75 0 0 0-.75-.75Z" fill="#868686"/>
    <path fill-rule="evenodd" clip-rule="evenodd" d="M14.75 22a.75.75 0 0 1-.75.75h-4a.75.75 0 0 1 0-1.5h4a.75.75 0 0 1 .75.75Z" fill="#868686"/>
</svg>
