<svg width="24" height="24" fill="none" xmlns="http://www.w3.org/2000/svg">
    <path fill-rule="evenodd" clip-rule="evenodd" d="M8.25 2A.75.75 0 0 1 9 1.25h4a.75.75 0 0 1 .75.75v4.25H17a.75.75 0 0 1 .75.75v4a.75.75 0 0 1-.75.75h-3.25V16c0 .69.56 1.25 1.25 1.25h4a.75.75 0 0 1 .75.75v4a.75.75 0 0 1-.75.75h-4A6.75 6.75 0 0 1 8.25 16v-4.25H5a.75.75 0 0 1-.75-.75V7A.75.75 0 0 1 5 6.25h.5A2.75 2.75 0 0 0 8.25 3.5V2Zm1.5.75v.75a4.25 4.25 0 0 1-4 4.243v2.507H9a.75.75 0 0 1 .75.75v5c0 2.9 2.35 5.25 5.25 5.25h3.25v-2.5H15A2.75 2.75 0 0 1 12.25 16v-5a.75.75 0 0 1 .75-.75h3.25v-2.5H13a.75.75 0 0 1-.75-.75V2.75h-2.5Z" fill="#868686"/>
</svg>
