<svg width="24" height="24" fill="none" xmlns="http://www.w3.org/2000/svg">
    <path d="m10.53 13.116.72-.72v4.19a.75.75 0 0 0 1.5 0v-4.19l.72.72a.75.75 0 1 0 1.06-1.06l-1.293-1.293a1.75 1.75 0 0 0-2.474 0L9.47 12.056a.75.75 0 1 0 1.06 1.06Z" fill="#868686"/>
    <path fill-rule="evenodd" clip-rule="evenodd" d="M22.75 7a4.751 4.751 0 0 1-4 4.691V19A2.75 2.75 0 0 1 16 21.75H8A2.75 2.75 0 0 1 5.25 19v-7.309A4.751 4.751 0 0 1 6 2.25h12A4.75 4.75 0 0 1 22.75 7Zm-20 0A3.25 3.25 0 0 1 6 3.75h12a3.25 3.25 0 0 1 .75 6.413V7a.75.75 0 0 0-.75-.75H6a.75.75 0 0 0-.75.75v3.163A3.251 3.251 0 0 1 2.75 7Zm4 12V7.75h10.5V19c0 .69-.56 1.25-1.25 1.25H8c-.69 0-1.25-.56-1.25-1.25Z" fill="#868686"/>
</svg>
