<svg width="24" height="24" fill="none" xmlns="http://www.w3.org/2000/svg">
    <path d="M10.25 2a.75.75 0 0 1 .75-.75h2a.75.75 0 0 1 0 1.5h-.25v4H13a.75.75 0 0 1 0 1.5h-.25v3h3V11a.75.75 0 0 1 1.5 0v.25h4V11a.75.75 0 0 1 1.5 0v2a.75.75 0 0 1-1.5 0v-.25h-4V13a.75.75 0 0 1-1.5 0v-.25h-3v3H13a.75.75 0 0 1 0 1.5h-.25v4H13a.75.75 0 0 1 0 1.5h-2a.75.75 0 0 1 0-1.5h.25v-4H11a.75.75 0 0 1 0-1.5h.25v-3h-3V13a.75.75 0 0 1-1.5 0v-.25h-4V13a.75.75 0 0 1-1.5 0v-2a.75.75 0 0 1 1.5 0v.25h4V11a.75.75 0 0 1 1.5 0v.25h3v-3H11a.75.75 0 0 1 0-1.5h.25v-4H11a.75.75 0 0 1-.75-.75Z" fill="#868686"/>
    <path d="M5.47 1.47a.75.75 0 0 1 1.06 0l.47.47.47-.47a.75.75 0 0 1 1.06 1.06l-.78.78V4a.75.75 0 0 1-1.5 0v-.69l-.78-.78a.75.75 0 0 1 0-1.06ZM20.53 15.47a.75.75 0 1 0-1.06 1.06l.47.47-.47.47a.75.75 0 1 0 1.06 1.06l.47-.47.47.47a.75.75 0 1 0 1.06-1.06l-.47-.47.47-.47a.75.75 0 1 0-1.06-1.06l-.47.47-.47-.47Z" fill="#868686"/>
</svg>
