<svg width="24" height="24" fill="none" xmlns="http://www.w3.org/2000/svg">
    <path fill-rule="evenodd" clip-rule="evenodd" d="M3.25 6A4.75 4.75 0 0 1 8 1.25h8A4.75 4.75 0 0 1 20.75 6v6.682a3.75 3.75 0 0 1 2 3.318v3A3.75 3.75 0 0 1 19 22.75H5A3.75 3.75 0 0 1 1.25 19v-3a3.75 3.75 0 0 1 2-3.318V6Zm1.5 6.258c.083-.005.166-.008.25-.008h1c.866 0 1.68.408 2.2 1.1l1.2 1.6a3.25 3.25 0 0 0 5.2 0l1.2-1.6a2.75 2.75 0 0 1 2.2-1.1h1c.084 0 .167.003.25.008V6A3.25 3.25 0 0 0 16 2.75H8A3.25 3.25 0 0 0 4.75 6v6.258ZM8.25 6A.75.75 0 0 1 9 5.25h6a.75.75 0 0 1 0 1.5H9A.75.75 0 0 1 8.25 6Zm0 4A.75.75 0 0 1 9 9.25h3a.75.75 0 0 1 0 1.5H9a.75.75 0 0 1-.75-.75ZM5 13.75A2.25 2.25 0 0 0 2.75 16v3A2.25 2.25 0 0 0 5 21.25h14A2.25 2.25 0 0 0 21.25 19v-3A2.25 2.25 0 0 0 19 13.75h-1a1.25 1.25 0 0 0-1 .5l-1.2 1.6a4.75 4.75 0 0 1-7.6 0L7 14.25a1.25 1.25 0 0 0-1-.5H5Z" fill="#868686"/>
</svg>
