<svg width="24" height="24" fill="none" xmlns="http://www.w3.org/2000/svg">
    <path fill-rule="evenodd" clip-rule="evenodd" d="M6 2.75A2.25 2.25 0 0 0 3.75 5v13a3.25 3.25 0 0 0 6.4.805c.192-.755.851-1.555 1.85-1.555h6.25V5A2.25 2.25 0 0 0 16 2.75H6Zm13.75 14.5V5A3.75 3.75 0 0 0 16 1.25H6A3.75 3.75 0 0 0 2.25 5v13A4.75 4.75 0 0 0 7 22.75h12c2.219 0 4.08-1.52 4.603-3.575.29-1.14-.706-1.925-1.603-1.925h-2.25Zm-9.286 4H19a3.252 3.252 0 0 0 3.15-2.443l-.004-.003A.205.205 0 0 0 22 18.75H12c-.06 0-.13.022-.208.094a.691.691 0 0 0-.189.33c-.2.79-.599 1.5-1.139 2.076ZM6.25 7A.75.75 0 0 1 7 6.25h8a.75.75 0 0 1 0 1.5H7A.75.75 0 0 1 6.25 7Zm0 5a.75.75 0 0 1 .75-.75h4a.75.75 0 0 1 0 1.5H7a.75.75 0 0 1-.75-.75Z" fill="#868686"/>
</svg>
