<svg width="24" height="24" fill="none" xmlns="http://www.w3.org/2000/svg">
    <path d="M12 8.75a.75.75 0 0 1 .75.75v.846c1.106.288 2 1.197 2 2.404a.75.75 0 0 1-1.5 0c0-.461-.462-1-1.25-1s-1.25.539-1.25 1c0 .461.462 1 1.25 1 1.422 0 2.75 1.028 2.75 2.5 0 1.207-.894 2.116-2 2.404v.846a.75.75 0 0 1-1.5 0v-.846c-1.106-.288-2-1.197-2-2.404a.75.75 0 0 1 1.5 0c0 .461.462 1 1.25 1s1.25-.539 1.25-1c0-.461-.462-1-1.25-1-1.422 0-2.75-1.028-2.75-2.5 0-1.207.894-2.116 2-2.404V9.5a.75.75 0 0 1 .75-.75Z" fill="#868686"/>
</svg>
