<svg width="24" height="24" fill="none" xmlns="http://www.w3.org/2000/svg">
    <path fill-rule="evenodd" clip-rule="evenodd" d="M10 1.25a.75.75 0 0 1 .75.75v2a.75.75 0 0 1-1.5 0V2a.75.75 0 0 1 .75-.75Zm4 3a.75.75 0 0 1 .75.75v2a.75.75 0 0 1-1.5 0V5a.75.75 0 0 1 .75-.75ZM7.719 5.785a.75.75 0 0 1-.504.934c-.867.258-1.524.572-1.947.893-.434.33-.518.58-.518.714 0 .118.062.322.374.597.312.275.806.556 1.48.807 1.345.501 3.253.826 5.396.826s4.05-.325 5.395-.826c.675-.251 1.169-.532 1.48-.807.314-.275.375-.479.375-.597 0-.134-.084-.384-.517-.714-.424-.321-1.081-.635-1.948-.893a.75.75 0 1 1 .43-1.438c.962.288 1.805.667 2.424 1.137.61.462 1.111 1.102 1.111 1.908 0 3.834-2.017 7.19-5 8.758v1.934c0 1.039-.591 1.986-1.522 2.448l-2 .993c-1.82.905-3.978-.406-3.978-2.448v-2.927c-2.983-1.568-5-4.924-5-8.758 0-.806.502-1.446 1.11-1.908.62-.47 1.463-.85 2.425-1.137a.75.75 0 0 1 .934.504Zm-2.666 4.89c.639 2.416 2.237 4.344 4.256 5.257a.75.75 0 0 1 .441.684v3.395c0 .912.972 1.521 1.81 1.105l2-.993c.425-.211.69-.64.69-1.105v-2.402a.75.75 0 0 1 .44-.684c2.02-.913 3.618-2.841 4.258-5.257-.316.17-.662.324-1.03.461-1.55.578-3.643.92-5.918.92-2.275 0-4.367-.342-5.919-.92a8.185 8.185 0 0 1-1.028-.46ZM10 6.25a.75.75 0 0 1 .75.75v1a.75.75 0 0 1-1.5 0V7a.75.75 0 0 1 .75-.75Z" fill="#868686"/>
</svg>
