<svg width="24" height="24" fill="none" xmlns="http://www.w3.org/2000/svg">
    <path d="M14.166 2.491a.75.75 0 0 0-.332 1.463 8.263 8.263 0 0 1 6.212 6.212.75.75 0 0 0 1.371.225l1.223-2a.75.75 0 1 0-1.28-.782l-.371.607a9.768 9.768 0 0 0-6.823-5.725ZM3.955 13.834a.75.75 0 0 0-1.372-.226l-1.223 2a.75.75 0 1 0 1.28.783l.372-.608a9.768 9.768 0 0 0 6.822 5.725.75.75 0 1 0 .332-1.463 8.263 8.263 0 0 1-6.211-6.211ZM5.46 8.641a2 2 0 0 0 0 2.829l7.07 7.07a2 2 0 0 0 2.829 0l3.182-3.181a2 2 0 0 0 0-2.829L11.47 5.459a2 2 0 0 0-2.829 0L5.46 8.641Z" fill="#868686"/>
</svg>
