<svg width="24" height="24" fill="none" xmlns="http://www.w3.org/2000/svg">
    <path d="M13.5 12a1.5 1.5 0 1 1-3 0 1.5 1.5 0 0 1 3 0Z" fill="#868686"/>
    <path fill-rule="evenodd" clip-rule="evenodd" d="M12 1.25a.75.75 0 0 1 .75.75v2a.75.75 0 0 1-1.5 0V2a.75.75 0 0 1 .75-.75ZM4.47 3.47a.75.75 0 0 1 1.06 0l1.5 1.5a.75.75 0 0 1-1.06 1.06l-1.5-1.5a.75.75 0 0 1 0-1.06Zm14 0a.75.75 0 1 1 1.06 1.06l-1.5 1.5a.75.75 0 1 1-1.06-1.06l1.5-1.5ZM12 7.75a4.25 4.25 0 1 0 0 8.5 4.25 4.25 0 0 0 0-8.5Zm-5.702 3.5a5.751 5.751 0 0 1 11.403 0H19A2.75 2.75 0 0 1 21.75 14v4c0 1.259-.846 2.32-2 2.646V22a.75.75 0 0 1-1.5 0v-1.25H5.75V22a.75.75 0 0 1-1.5 0v-1.354a2.751 2.751 0 0 1-2-2.646v-4A2.75 2.75 0 0 1 5 11.25h1.298Zm0 1.5H5c-.69 0-1.25.56-1.25 1.25v4c0 .69.56 1.25 1.25 1.25h14c.69 0 1.25-.56 1.25-1.25v-4c0-.69-.56-1.25-1.25-1.25h-1.299a5.751 5.751 0 0 1-11.403 0Z" fill="#868686"/>
</svg>
