<svg width="24" height="24" fill="none" xmlns="http://www.w3.org/2000/svg">
    <path fill-rule="evenodd" clip-rule="evenodd" d="M5.254 7.763a6.75 6.75 0 0 1 13.492 0 2.25 2.25 0 0 1 .013 4.472A3.25 3.25 0 0 0 20.05 14.6l2.4 1.8a.75.75 0 0 1-.45 1.35c-.574 0-.956.003-1.26.06-.269.051-.419.135-.543.275-.3.339-.666.749-1.096 1.069-.44.328-.992.596-1.662.596h-.772c-.27 0-.534.088-.75.25l-1.067.8a4.75 4.75 0 0 1-5.7 0L8.083 20a1.25 1.25 0 0 0-.75-.25h-.771c-.671 0-1.222-.268-1.663-.596-.43-.32-.797-.73-1.096-1.069-.124-.14-.274-.224-.542-.274-.304-.058-.687-.061-1.261-.061a.75.75 0 0 1-.45-1.35l2.4-1.8a3.25 3.25 0 0 0 1.292-2.365 2.25 2.25 0 0 1 .012-4.472ZM12 2.75A5.25 5.25 0 0 0 6.75 8v.5a.75.75 0 0 1-.75.75h-.5a.75.75 0 0 0 0 1.5H6a.75.75 0 0 1 .75.75v.5a4.75 4.75 0 0 1-1.9 3.8l-.872.654c.345.123.668.32.949.638.308.349.58.645.868.859.276.205.52.299.767.299h.771a2.75 2.75 0 0 1 1.65.55l1.067.8a3.25 3.25 0 0 0 3.9 0l1.067-.8a2.75 2.75 0 0 1 1.65-.55h.771c.248 0 .49-.094.767-.3.288-.213.56-.51.869-.858.28-.317.603-.515.948-.638l-.872-.654a4.75 4.75 0 0 1-1.9-3.8v-.5a.75.75 0 0 1 .75-.75h.5a.75.75 0 1 0 0-1.5H18a.75.75 0 0 1-.75-.75V8c0-2.9-2.35-5.25-5.25-5.25Z" fill="#868686"/>
</svg>
