<svg width="24" height="24" fill="none" xmlns="http://www.w3.org/2000/svg">
    <path fill-rule="evenodd" clip-rule="evenodd" d="M6.849 4.573a5.152 5.152 0 0 1 3.44-1.323h7.248c2.896 0 5.213 2.4 5.213 5.321v6.858c0 2.921-2.317 5.321-5.213 5.321h-7.249a5.152 5.152 0 0 1-3.44-1.323L3.024 16C.66 13.879.66 10.12 3.023 8L6.85 4.573Zm3.44.177c-.895 0-1.761.332-2.439.94L4.025 9.118c-1.7 1.523-1.7 4.24 0 5.764L7.85 18.31c.678.608 1.544.94 2.438.94h7.25c2.033 0 3.712-1.694 3.712-3.821V8.57c0-2.127-1.68-3.821-3.713-3.821h-7.249Zm.18 3.72a.75.75 0 0 1 1.061 0L14 10.94l2.47-2.47a.75.75 0 1 1 1.06 1.06L15.06 12l2.47 2.47a.75.75 0 1 1-1.06 1.06L14 13.06l-2.47 2.47a.75.75 0 1 1-1.06-1.06L12.94 12l-2.47-2.47a.75.75 0 0 1 0-1.06Z" fill="#868686"/>
</svg>
