<svg width="24" height="24" fill="none" xmlns="http://www.w3.org/2000/svg">
    <path fill-rule="evenodd" clip-rule="evenodd" d="M12 1.25a.75.75 0 0 1 .75.75v1.25H17A3.75 3.75 0 0 1 20.75 7v8c0 2-1.566 3.635-3.54 3.744l1.46 2.92a.75.75 0 1 1-1.34.671l-1.793-3.585H12.75V21a.75.75 0 0 1-1.5 0v-2.25H8.464L6.67 22.335a.75.75 0 1 1-1.342-.67l1.46-2.92A3.75 3.75 0 0 1 3.25 15V7A3.75 3.75 0 0 1 7 3.25h4.25V2a.75.75 0 0 1 .75-.75Zm-5 3.5A2.25 2.25 0 0 0 4.75 7v8A2.25 2.25 0 0 0 7 17.25h10A2.25 2.25 0 0 0 19.25 15V7A2.25 2.25 0 0 0 17 4.75H7Z" fill="#868686"/>
</svg>
