<svg width="24" height="24" fill="none" xmlns="http://www.w3.org/2000/svg">
    <path fill-rule="evenodd" clip-rule="evenodd" d="M12 7.75c-2.61 0-5.003 1.53-6.614 2.907-.848.724-.848 1.962 0 2.686C6.996 14.72 9.39 16.25 12 16.25c2.61 0 5.003-1.53 6.614-2.907a1.738 1.738 0 0 0 0-2.686C17.005 9.28 14.61 7.75 12 7.75ZM4.411 9.516C6.101 8.071 8.843 6.25 12 6.25s5.898 1.821 7.589 3.266a3.237 3.237 0 0 1 0 4.968c-1.69 1.445-4.432 3.266-7.589 3.266s-5.898-1.821-7.589-3.266a3.237 3.237 0 0 1 0-4.968Z" fill="#868686"/>
    <path fill-rule="evenodd" clip-rule="evenodd" d="M12 10.75a1.25 1.25 0 1 0 0 2.5 1.25 1.25 0 0 0 0-2.5ZM9.25 12a2.75 2.75 0 1 1 5.5 0 2.75 2.75 0 0 1-5.5 0ZM12 1.25a.75.75 0 0 1 .75.75v2a.75.75 0 0 1-1.5 0V2a.75.75 0 0 1 .75-.75ZM12 19.25a.75.75 0 0 1 .75.75v2a.75.75 0 0 1-1.5 0v-2a.75.75 0 0 1 .75-.75ZM2.47 4.47a.75.75 0 0 1 1.06 0l1.5 1.5a.75.75 0 0 1-1.06 1.06l-1.5-1.5a.75.75 0 0 1 0-1.06Zm19.06 0a.75.75 0 0 1 0 1.06l-1.5 1.5a.75.75 0 1 1-1.06-1.06l1.5-1.5a.75.75 0 0 1 1.06 0ZM2.47 19.53a.75.75 0 0 0 1.06 0l1.5-1.5a.75.75 0 1 0-1.06-1.06l-1.5 1.5a.75.75 0 0 0 0 1.06Zm19.06 0a.75.75 0 0 0 0-1.06l-1.5-1.5a.75.75 0 1 0-1.06 1.06l1.5 1.5a.75.75 0 0 0 1.06 0Z" fill="#868686"/>
</svg>
