<svg width="24" height="24" fill="none" xmlns="http://www.w3.org/2000/svg">
    <path fill-rule="evenodd" clip-rule="evenodd" d="M16.65 1.484a.75.75 0 0 1 .186.688 3.25 3.25 0 0 0 4.766 3.577.75.75 0 0 1 1.117.575 5.733 5.733 0 0 1-1.628 4.637A5.75 5.75 0 0 1 17 20.75a.75.75 0 0 1 .001-1.501 4.25 4.25 0 1 0-1.327-8.289.75.75 0 0 1-.924-.417 6.276 6.276 0 0 0-3.066-3.19 6.25 6.25 0 1 0-5.362 11.295.75.75 0 0 1-.643 1.355 7.75 7.75 0 0 1 5.718-14.376 5.757 5.757 0 0 1 4.577-4.366.75.75 0 0 1 .678.222Zm-3.847 4.762a7.784 7.784 0 0 1 3.044 3.12 5.772 5.772 0 0 1 4.049.665 4.24 4.24 0 0 0 1.313-2.516 4.75 4.75 0 0 1-5.957-4.47 4.256 4.256 0 0 0-2.449 3.2Zm.452 5.049a.75.75 0 0 1 .495.705v3.25H16a.75.75 0 0 1 .576 1.23l-5 6A.75.75 0 0 1 10.25 22v-3.25H8a.75.75 0 0 1-.576-1.23l5-6a.75.75 0 0 1 .831-.225ZM9.601 17.25H11a.75.75 0 0 1 .75.75v1.928l2.649-3.178H13a.75.75 0 0 1-.75-.75v-1.928L9.601 17.25Z" fill="#868686"/>
</svg>
