<svg width="24" height="24" fill="none" xmlns="http://www.w3.org/2000/svg">
    <path fill-rule="evenodd" clip-rule="evenodd" d="M8.528 2.056a2.75 2.75 0 0 1 2.991-.599l4.007 1.65c1.815.747 2.285 3.1.898 4.488l-2.829 2.828c-1.387 1.388-3.74.917-4.487-.898L8.088 7.05l-4.312 5.032a1.25 1.25 0 0 0 .065 1.697l7.47 7.471h3.69a.75.75 0 0 1 0 1.5H7a.75.75 0 0 1 0-1.5h2.19l-6.41-6.41a2.75 2.75 0 0 1-.144-3.734L7.43 5.512a.77.77 0 0 1 .017-.019 2.75 2.75 0 0 1 .608-2.966l.472-.471Zm2.42.788a1.25 1.25 0 0 0-1.36.272l-.471.472a1.25 1.25 0 0 0-.272 1.36l1.65 4.006a1.25 1.25 0 0 0 2.04.408l2.828-2.828c.63-.63.417-1.7-.408-2.04l-4.007-1.65Zm7.906 5.37a.75.75 0 0 1 .75-.75h1.414a.75.75 0 0 1 0 1.5h-1.414a.75.75 0 0 1-.75-.75Zm-1.902 1.591a.75.75 0 0 1 1.061 0l1.414 1.414a.75.75 0 1 1-1.06 1.061l-1.415-1.414a.75.75 0 0 1 0-1.06Zm-1.59 1.902a.75.75 0 0 1 .75.75v1.414a.75.75 0 0 1-1.5 0v-1.414a.75.75 0 0 1 .75-.75Z" fill="#868686"/>
</svg>
