<svg width="24" height="24" fill="none" xmlns="http://www.w3.org/2000/svg">
    <path fill-rule="evenodd" clip-rule="evenodd" d="M16.795 12.25c1.504 0 2.307 1.77 1.317 2.902l-4.044 4.622a2.75 2.75 0 0 1-4.139 0l-4.043-4.622c-.99-1.131-.187-2.902 1.317-2.902h1.046V5a2.75 2.75 0 0 1 2.75-2.75h2A2.75 2.75 0 0 1 15.749 5v7.25h1.046Zm.188 1.915a.25.25 0 0 0-.188-.415H15a.75.75 0 0 1-.75-.75V5c0-.69-.56-1.25-1.25-1.25h-2c-.69 0-1.25.56-1.25 1.25v8a.75.75 0 0 1-.75.75H7.203a.25.25 0 0 0-.189.415l4.044 4.62a1.25 1.25 0 0 0 1.882 0l4.043-4.62Z" fill="#868686"/>
</svg>
