<svg width="24" height="24" fill="none" xmlns="http://www.w3.org/2000/svg">
    <path fill-rule="evenodd" clip-rule="evenodd" d="M7 2.75A2.25 2.25 0 0 0 4.75 5v2.25h14.5V7A2.25 2.25 0 0 0 17 4.75h-2.803a3.75 3.75 0 0 1-2.305-.792l-.94-.733a2.25 2.25 0 0 0-1.383-.475h-2.57Zm13.75 4.509V7A3.75 3.75 0 0 0 17 3.25h-2.803a2.25 2.25 0 0 1-1.383-.475l-.94-.733a3.75 3.75 0 0 0-2.305-.792h-2.57A3.75 3.75 0 0 0 3.25 5v2.259a2.75 2.75 0 0 0-2.464 3.317l1.804 8.42a4.75 4.75 0 0 0 4.644 3.754h9.533a4.75 4.75 0 0 0 4.645-3.755l1.804-8.419A2.75 2.75 0 0 0 20.75 7.26ZM3.474 8.75a1.25 1.25 0 0 0-1.223 1.512l1.805 8.419a3.25 3.25 0 0 0 3.177 2.569h9.533a3.25 3.25 0 0 0 3.178-2.569l1.804-8.42a1.25 1.25 0 0 0-1.222-1.511H3.474Zm12.02 3.686a.75.75 0 0 1 .07 1.058l-2.87 3.28a1.75 1.75 0 0 1-2.41.214l-1.753-1.402a.75.75 0 0 1 .937-1.172l1.753 1.403a.25.25 0 0 0 .344-.031l2.87-3.28a.75.75 0 0 1 1.059-.07Z" fill="#868686"/>
</svg>
