<svg width="24" height="24" fill="none" xmlns="http://www.w3.org/2000/svg">
    <path d="M9.057 2.586a2 2 0 0 1 2.176-.435L15.24 3.8a2 2 0 0 1 .652 3.263l-2.828 2.829A2 2 0 0 1 9.8 9.24l-.869-2.11-4.987 4.986a1.25 1.25 0 0 0 0 1.768l7.366 7.366H15a.75.75 0 0 1 0 1.5H7a.75.75 0 0 1 0-1.5h2.189l-6.305-6.306a2.75 2.75 0 0 1 0-3.889l5.429-5.428-.163-.394a2 2 0 0 1 .436-2.176l.471-.471ZM21.767 8.214a.75.75 0 0 1-.75.75h-1.414a.75.75 0 1 1 0-1.5h1.414a.75.75 0 0 1 .75.75ZM18.012 9.805a.75.75 0 1 0-1.06 1.06l1.414 1.415a.75.75 0 1 0 1.06-1.06l-1.414-1.415Z" fill="#868686"/>
    <path d="M16.11 12.457a.75.75 0 0 0-1.5 0v1.414a.75.75 0 1 0 1.5 0v-1.414Z" fill="#868686"/>
</svg>
