<svg width="24" height="24" fill="none" xmlns="http://www.w3.org/2000/svg">
    <path fill-rule="evenodd" clip-rule="evenodd" d="M9.25 4a.75.75 0 0 1 .75-.75 5.75 5.75 0 0 1 4.6 9.2.75.75 0 0 1-1.2-.9 4.251 4.251 0 0 0-2.65-6.734V16a4.75 4.75 0 1 1-1.5-3.464V4Zm0 12a3.25 3.25 0 1 0-6.5 0 3.25 3.25 0 0 0 6.5 0Zm8-5a.75.75 0 0 1 .75-.75h4a.75.75 0 0 1 0 1.5h-4a.75.75 0 0 1-.75-.75Zm-4 4.5a.75.75 0 0 1 .75-.75h8a.75.75 0 0 1 0 1.5h-8a.75.75 0 0 1-.75-.75Zm0 4.5a.75.75 0 0 1 .75-.75h8a.75.75 0 0 1 0 1.5h-8a.75.75 0 0 1-.75-.75Z" fill="#868686"/>
</svg>
