<svg width="24" height="24" fill="none" xmlns="http://www.w3.org/2000/svg">
    <path fill-rule="evenodd" clip-rule="evenodd" d="M6.25 9A2.75 2.75 0 0 1 9 6.25h6A2.75 2.75 0 0 1 17.75 9v6A2.75 2.75 0 0 1 15 17.75H9A2.75 2.75 0 0 1 6.25 15V9ZM9 7.75c-.69 0-1.25.56-1.25 1.25v6c0 .69.56 1.25 1.25 1.25h6c.69 0 1.25-.56 1.25-1.25V9c0-.69-.56-1.25-1.25-1.25H9ZM2.25 5A2.75 2.75 0 0 1 5 2.25h4a.75.75 0 0 1 0 1.5H5c-.69 0-1.25.56-1.25 1.25v4a.75.75 0 0 1-1.5 0V5ZM21.75 19A2.75 2.75 0 0 1 19 21.75h-4a.75.75 0 0 1 0-1.5h4c.69 0 1.25-.56 1.25-1.25v-4a.75.75 0 0 1 1.5 0v4Z" fill="#868686"/>
</svg>
