<svg width="24" height="24" fill="none" xmlns="http://www.w3.org/2000/svg">
    <path d="M5.46 5.46A.75.75 0 1 0 4.398 4.4 10.719 10.719 0 0 0 1.25 12c0 2.97 1.204 5.658 3.149 7.602a.75.75 0 0 0 1.06-1.06A9.219 9.219 0 0 1 2.75 12 9.219 9.219 0 0 1 5.46 5.46ZM19.601 4.4a.75.75 0 0 0-1.06 1.06A9.219 9.219 0 0 1 21.25 12a9.218 9.218 0 0 1-2.71 6.541.75.75 0 0 0 1.061 1.061 10.719 10.719 0 0 0 3.149-7.601c0-2.969-1.204-5.657-3.149-7.602Z" fill="#868686"/>
    <path d="M8.288 8.288a.75.75 0 0 0-1.061-1.06A6.731 6.731 0 0 0 5.25 12c0 1.864.756 3.552 1.977 4.773a.75.75 0 0 0 1.06-1.06A5.231 5.231 0 0 1 6.75 12c0-1.45.587-2.762 1.538-3.713ZM16.773 7.228a.75.75 0 0 0-1.06 1.06 5.231 5.231 0 0 1 1.537 3.713c0 1.45-.587 2.761-1.538 3.712a.75.75 0 1 0 1.061 1.06 6.731 6.731 0 0 0 1.977-4.772 6.731 6.731 0 0 0-1.977-4.773ZM12 14.5a2.5 2.5 0 1 0 0-5 2.5 2.5 0 0 0 0 5Z" fill="#868686"/>
</svg>
