<svg width="24" height="24" fill="none" xmlns="http://www.w3.org/2000/svg">
    <path d="M12 11.25A1.25 1.25 0 1 1 13.25 10a.75.75 0 0 0 1.5 0c0-1.259-.846-2.32-2-2.646V6.5a.75.75 0 0 0-1.5 0v.854A2.751 2.751 0 0 0 12 12.75 1.25 1.25 0 1 1 10.75 14a.75.75 0 0 0-1.5 0c0 1.259.846 2.32 2 2.646v.854a.75.75 0 0 0 1.5 0v-.854A2.751 2.751 0 0 0 12 11.25Z" fill="#868686"/>
    <path fill-rule="evenodd" clip-rule="evenodd" d="M1.25 12C1.25 6.063 6.063 1.25 12 1.25S22.75 6.063 22.75 12 17.937 22.75 12 22.75 1.25 17.937 1.25 12ZM12 2.75a9.25 9.25 0 1 0 0 18.5 9.25 9.25 0 0 0 0-18.5Z" fill="#868686"/>
</svg>
