<svg width="24" height="24" fill="none" xmlns="http://www.w3.org/2000/svg">
    <path fill-rule="evenodd" clip-rule="evenodd" d="M14.053 3.488a3.225 3.225 0 0 0-4.106 0l-5 4.117A3.296 3.296 0 0 0 3.75 10.15v7.817c0 1.819 1.46 3.283 3.25 3.283h10c1.79 0 3.25-1.464 3.25-3.283V10.15c0-.988-.44-1.922-1.197-2.545l-5-4.117ZM8.993 2.33a4.725 4.725 0 0 1 6.014 0l5 4.118a4.796 4.796 0 0 1 1.743 3.702v7.817c0 2.636-2.12 4.783-4.75 4.783H7c-2.63 0-4.75-2.147-4.75-4.783V10.15c0-1.433.639-2.793 1.743-3.702l5-4.118Zm3.566 7.788a1.25 1.25 0 0 0-1.118 0l-2 1c-.431.216-.685.644-.664 1.083.071 1.466.287 2.454.674 3.24.385.78.97 1.426 1.9 2.157.38.3.92.299 1.297 0 .93-.732 1.51-1.385 1.892-2.166.385-.79.598-1.775.676-3.225.023-.443-.232-.876-.666-1.094l-1.991-.995ZM10.77 8.776a2.75 2.75 0 0 1 2.46 0l1.99.996c.93.465 1.551 1.434 1.493 2.515-.083 1.547-.315 2.758-.825 3.803-.514 1.053-1.277 1.871-2.31 2.686-.925.73-2.231.727-3.154 0-1.028-.807-1.799-1.618-2.318-2.671-.516-1.046-.751-2.264-.827-3.831-.052-1.076.568-2.036 1.492-2.498l2-1Z" fill="#868686"/>
</svg>
