<svg width="24" height="24" fill="none" xmlns="http://www.w3.org/2000/svg">
    <path d="M19 13a1 1 0 1 0-2 0 1 1 0 0 0 2 0ZM6 4a1 1 0 1 1 0 2 1 1 0 0 1 0-2Z" fill="#868686"/>
    <path fill-rule="evenodd" clip-rule="evenodd" d="M9.25 9a2.75 2.75 0 1 0 5.5 0 2.75 2.75 0 0 0-5.5 0ZM12 10.25a1.25 1.25 0 1 1 0-2.5 1.25 1.25 0 0 1 0 2.5Z" fill="#868686"/>
    <path fill-rule="evenodd" clip-rule="evenodd" d="M2.25 5A3.75 3.75 0 0 1 6 1.25h12A3.75 3.75 0 0 1 21.75 5v8A3.75 3.75 0 0 1 18 16.75H6A3.75 3.75 0 0 1 2.25 13V5ZM6 2.75A2.25 2.25 0 0 0 3.75 5v8A2.25 2.25 0 0 0 6 15.25h12A2.25 2.25 0 0 0 20.25 13V5A2.25 2.25 0 0 0 18 2.75H6Z" fill="#868686"/>
    <path d="m10.53 19.884.72.72V18.5a.75.75 0 0 1 1.5 0v2.104l.72-.72a.75.75 0 1 1 1.06 1.06l-1.293 1.293a1.75 1.75 0 0 1-2.474 0L9.47 20.945a.75.75 0 1 1 1.06-1.061Z" fill="#868686"/>
</svg>
