<svg width="24" height="24" fill="none" xmlns="http://www.w3.org/2000/svg">
    <path fill-rule="evenodd" clip-rule="evenodd" d="M21.25 11.75H2.75V17A3.25 3.25 0 0 0 6 20.25h7a.75.75 0 0 1 0 1.5H6A4.75 4.75 0 0 1 1.25 17V7A4.75 4.75 0 0 1 6 2.25h12A4.75 4.75 0 0 1 22.75 7v6a.75.75 0 0 1-1.5 0v-1.25Zm-.087-5.5A3.251 3.251 0 0 0 18 3.75H6a3.251 3.251 0 0 0-3.163 2.5h18.326Zm.087 1.5H2.75v2.5h18.5v-2.5Z" fill="#868686"/>
    <path d="M7 17a1 1 0 1 1-2 0 1 1 0 0 1 2 0Z" fill="#868686"/>
    <path fill-rule="evenodd" clip-rule="evenodd" d="M16.25 17c0 .709.268 1.355.708 1.842a4.539 4.539 0 0 0-1.628 1.822.75.75 0 1 0 1.34.672c.493-.983 1.37-1.578 2.31-1.586h.04c.94.008 1.817.603 2.31 1.586a.75.75 0 1 0 1.34-.672 4.54 4.54 0 0 0-1.628-1.822A2.75 2.75 0 1 0 16.25 17Zm1.5 0c0 .684.55 1.24 1.232 1.25h.036A1.25 1.25 0 1 0 17.75 17Z" fill="#868686"/>
</svg>
