<svg width="24" height="24" fill="none" xmlns="http://www.w3.org/2000/svg">
    <path fill-rule="evenodd" clip-rule="evenodd" d="M2.053 10.289a3.75 3.75 0 0 1 3.75-3.75h6.685a.75.75 0 0 1 0 1.5H5.803a2.25 2.25 0 0 0-2.25 2.25v8a2.25 2.25 0 0 0 2.25 2.25h10a2.25 2.25 0 0 0 2.25-2.25V9.855a.75.75 0 0 1 1.5 0v8.434a3.75 3.75 0 0 1-3.75 3.75h-10a3.75 3.75 0 0 1-3.75-3.75v-8Zm4.15 1.55a.75.75 0 0 1 1.05-.15l2.2 1.65c.8.6 1.9.6 2.7 0l2.2-1.65a.75.75 0 0 1 .9 1.2l-2.2 1.65a3.75 3.75 0 0 1-4.5 0l-2.2-1.65a.75.75 0 0 1-.15-1.05Z" fill="#868686"/>
    <path fill-rule="evenodd" clip-rule="evenodd" d="M16.46 3.258a3.25 3.25 0 1 0 0 6.5 3.25 3.25 0 0 0 0-6.5Zm-4.75 3.25a4.75 4.75 0 1 1 9.5 0 4.75 4.75 0 0 1-9.5 0Zm4.75-2.25a.75.75 0 0 1 .75.75v.75h.75a.75.75 0 0 1 0 1.5h-1.5a.75.75 0 0 1-.75-.75v-1.5a.75.75 0 0 1 .75-.75Z" fill="#868686"/>
</svg>
