<svg width="24" height="24" fill="none" xmlns="http://www.w3.org/2000/svg">
    <path fill-rule="evenodd" clip-rule="evenodd" d="M22 12c0 5.523-4.477 10-10 10S2 17.523 2 12 6.477 2 12 2s10 4.477 10 10Zm-6.55-4.6a.75.75 0 0 1 .15 1.05l-2.1 2.8a1.25 1.25 0 0 0 0 1.5l2.1 2.8a.75.75 0 0 1-1.2.9l-2.1-2.8a2.75 2.75 0 0 1 0-3.3l2.1-2.8a.75.75 0 0 1 1.05-.15ZM10.6 8.45a.75.75 0 0 0-1.2-.9l-2.1 2.8a2.75 2.75 0 0 0 0 3.3l2.1 2.8a.75.75 0 1 0 1.2-.9l-2.1-2.8a1.25 1.25 0 0 1 0-1.5l2.1-2.8Z" fill="#868686"/>
</svg>
