<svg width="24" height="24" fill="none" xmlns="http://www.w3.org/2000/svg">
    <path d="M18 15a1 1 0 1 1 0 2 1 1 0 0 1 0-2ZM7 8a1 1 0 1 0-2 0 1 1 0 0 0 2 0Z" fill="#868686"/>
    <path fill-rule="evenodd" clip-rule="evenodd" d="M12 14.75a2.75 2.75 0 1 1 0-5.5 2.75 2.75 0 0 1 0 5.5ZM10.75 12a1.25 1.25 0 1 0 2.5 0 1.25 1.25 0 0 0-2.5 0Z" fill="#868686"/>
    <path fill-rule="evenodd" clip-rule="evenodd" d="M6 3.25A4.75 4.75 0 0 0 1.25 8v8A4.75 4.75 0 0 0 6 20.75h12A4.75 4.75 0 0 0 22.75 16V8A4.75 4.75 0 0 0 18 3.25H6ZM2.75 8A3.25 3.25 0 0 1 6 4.75h12A3.25 3.25 0 0 1 21.25 8v8A3.25 3.25 0 0 1 18 19.25H6A3.25 3.25 0 0 1 2.75 16V8Z" fill="#868686"/>
</svg>
