<svg width="24" height="24" fill="none" xmlns="http://www.w3.org/2000/svg">
    <path d="M8.25 12a.75.75 0 0 1 .75-.75h1.324c.104-.42.157-.856.157-1.295v-.57a2.135 2.135 0 0 1 4.27 0v.497a.75.75 0 1 1-1.5 0v-.497a.635.635 0 1 0-1.27 0v.57c0 .437-.041.87-.122 1.295H13a.75.75 0 0 1 0 1.5h-1.61a6.908 6.908 0 0 1-1.075 1.704.482.482 0 0 0 .366.796h3.32a.75.75 0 0 1 0 1.5h-3.32c-1.694 0-2.607-1.987-1.504-3.273a5.41 5.41 0 0 0 .526-.727H9a.75.75 0 0 1-.75-.75Z" fill="#868686"/>
    <path fill-rule="evenodd" clip-rule="evenodd" d="M1.25 12C1.25 6.063 6.063 1.25 12 1.25S22.75 6.063 22.75 12 17.937 22.75 12 22.75 1.25 17.937 1.25 12ZM12 2.75a9.25 9.25 0 1 0 0 18.5 9.25 9.25 0 0 0 0-18.5Z" fill="#868686"/>
</svg>
