<svg width="24" height="24" fill="none" xmlns="http://www.w3.org/2000/svg">
    <g clip-path="url(#a)" fill="#868686">
        <path d="M18.424 12.99a1.674 1.674 0 0 1 2.367 2.367l-5.015 5.015c-.12.12-.27.209-.434.255l-2.196.627a.5.5 0 0 1-.618-.618l.626-2.197c.047-.164.135-.313.255-.434l5.015-5.015Z"/>
        <path fill-rule="evenodd" clip-rule="evenodd" d="M9.031 1.5a.75.75 0 0 0-1.5 0V3h-.25a4 4 0 0 0-4 4v10.5a4 4 0 0 0 4 4h.586a1 1 0 0 0 .707-.293L20.988 8.793a1 1 0 0 0 .293-.707V7a4 4 0 0 0-4-4h-.25V1.5a.75.75 0 1 0-1.5 0V3h-6.5V1.5Zm5.842 8.46a.75.75 0 1 0-1.184-.92l-1.673 2.151a.25.25 0 0 1-.365.033l-.868-.781a.75.75 0 1 0-1.003 1.114l.868.782a1.75 1.75 0 0 0 2.552-.227l1.673-2.152Z"/>
    </g>
    <defs>
        <clipPath id="a">
            <path fill="#fff" d="M0 0h24v24H0z"/>
        </clipPath>
    </defs>
</svg>
