<svg width="24" height="24" fill="none" xmlns="http://www.w3.org/2000/svg">
    <path fill-rule="evenodd" clip-rule="evenodd" d="M1.25 6A4.75 4.75 0 0 1 6 1.25h12A4.75 4.75 0 0 1 22.75 6v12A4.75 4.75 0 0 1 18 22.75H6A4.75 4.75 0 0 1 1.25 18V6ZM6 2.75A3.25 3.25 0 0 0 2.75 6v12A3.25 3.25 0 0 0 6 21.25h12A3.25 3.25 0 0 0 21.25 18V6A3.25 3.25 0 0 0 18 2.75H6Zm5.624 4.834a.75.75 0 0 1-.208 1.04l-1.226.818c1.355.242 2.648.715 3.726 1.434 1.673 1.115 2.834 2.833 2.834 5.124a.75.75 0 0 1-1.5 0c0-1.71-.839-2.991-2.166-3.876-.996-.664-2.263-1.097-3.618-1.277l1.158 1.737a.75.75 0 1 1-1.248.832l-2-3a.75.75 0 0 1 .208-1.04l3-2a.75.75 0 0 1 1.04.208Z" fill="#868686"/>
</svg>
