<svg width="24" height="24" fill="none" xmlns="http://www.w3.org/2000/svg">
    <path fill-rule="evenodd" clip-rule="evenodd" d="M11.964 3.472a2.75 2.75 0 0 1 4.396.497l4.292 7.434a2.75 2.75 0 0 1-1.768 4.056l-3.646.835 1.719 2.977a2.25 2.25 0 1 1-3.897 2.25l-2.412-4.177-1.868.428a2.25 2.25 0 0 1-4.18.829l-2.5-4.33a2.25 2.25 0 0 1 2.808-3.205l7.056-7.594ZM8.47 16.304l10.078-2.307a1.25 1.25 0 0 0 .804-1.844L15.061 4.72a1.25 1.25 0 0 0-1.998-.226l-7.038 7.575 2.446 4.236Zm-3.776-3.54a.75.75 0 0 0-1.295.757l2.5 4.33a.75.75 0 0 0 1.302-.743l-2.507-4.344Zm7.483 4.23 2.18 3.777a.75.75 0 0 0 1.3-.75l-1.95-3.377-1.53.35Zm7.837-14.256a.75.75 0 0 1 .53.919l-.366 1.366a.75.75 0 0 1-1.449-.388l.366-1.366a.75.75 0 0 1 .919-.53ZM20.73 8.1a.75.75 0 0 1 .919-.53l1.366.366a.75.75 0 0 1-.389 1.449l-1.366-.366a.75.75 0 0 1-.53-.92Z" fill="#868686"/>
</svg>
