<svg width="24" height="24" fill="none" xmlns="http://www.w3.org/2000/svg">
    <path fill-rule="evenodd" clip-rule="evenodd" d="M16.65 1.484a.75.75 0 0 1 .186.688 3.25 3.25 0 0 0 4.766 3.577.75.75 0 0 1 1.117.575 5.733 5.733 0 0 1-1.628 4.637A5.733 5.733 0 0 1 22.75 15c0 .393-.04.777-.115 1.15a.75.75 0 0 1-1.47-.3 4.243 4.243 0 0 0-1.66-4.285A4.228 4.228 0 0 0 17 10.75a4.244 4.244 0 0 0-2.975 1.215.75.75 0 0 1-1.05-1.071c.42-.412.903-.76 1.434-1.028a6.28 6.28 0 0 0-2.726-2.512 6.25 6.25 0 0 0-8.332 8.325.75.75 0 0 1-1.355.643 7.75 7.75 0 0 1 9.4-10.694 5.757 5.757 0 0 1 4.577-4.366.75.75 0 0 1 .678.222Zm-3.847 4.762a7.784 7.784 0 0 1 3.044 3.12 5.772 5.772 0 0 1 4.049.665 4.24 4.24 0 0 0 1.313-2.516 4.75 4.75 0 0 1-5.957-4.47 4.256 4.256 0 0 0-2.449 3.2Z" fill="#868686"/>
    <path fill-rule="evenodd" clip-rule="evenodd" d="M7.01 15.45 6.5 16l-.51-.55a.75.75 0 0 1 1.02 0ZM6.5 17.1c.051.06.104.126.156.193.169.22.325.455.437.681.114.234.157.41.157.526 0 .395-.114.54-.183.6-.087.075-.259.15-.567.15-.308 0-.48-.075-.567-.15-.069-.06-.183-.205-.183-.6 0-.116.043-.292.157-.526.112-.226.268-.46.437-.68.052-.068.105-.133.156-.195Zm11.51-1.65-.51.55-.51-.55a.75.75 0 0 1 1.02 0Zm-.51 1.65a6.533 6.533 0 0 0-.156.193 4.17 4.17 0 0 0-.437.681c-.114.234-.157.41-.157.526 0 .395.114.54.183.6.087.075.259.15.567.15.308 0 .48-.075.567-.15.069-.06.183-.205.183-.6 0-.116-.043-.292-.157-.526a4.17 4.17 0 0 0-.437-.68 6.533 6.533 0 0 0-.156-.195ZM5.99 15.45l.51.55.51-.55.002.002.002.002.005.004.016.015a6.288 6.288 0 0 1 .243.246c.153.161.359.39.566.66.206.266.425.588.595.934.166.338.311.75.311 1.187 0 .71-.222 1.315-.696 1.73-.456.397-1.034.52-1.554.52s-1.098-.123-1.554-.52c-.474-.415-.696-1.02-.696-1.73 0-.436.145-.849.311-1.187a5.65 5.65 0 0 1 .595-.935 8.537 8.537 0 0 1 .81-.905l.015-.015.005-.005.002-.001.001-.001Zm11 0 .51.55.51-.55.004.004.005.004.016.015.055.054a8.54 8.54 0 0 1 .754.851c.206.267.425.589.595.935.166.338.311.75.311 1.187 0 .71-.222 1.315-.696 1.73-.456.397-1.034.52-1.554.52s-1.098-.123-1.554-.52c-.474-.415-.696-1.02-.696-1.73 0-.436.145-.849.311-1.187.17-.346.389-.668.595-.935a8.54 8.54 0 0 1 .754-.85l.055-.055.016-.015.005-.005.003-.002Zm-4.48 2L12 18l-.51-.55a.75.75 0 0 1 1.02 0ZM12 19.1a6.533 6.533 0 0 0-.156.193c-.169.22-.325.455-.436.681-.115.234-.158.41-.158.526 0 .395.114.54.182.6.088.075.26.15.568.15.308 0 .48-.075.568-.15.068-.06.182-.205.182-.6 0-.116-.043-.292-.158-.526a4.177 4.177 0 0 0-.436-.68 6.533 6.533 0 0 0-.156-.195Zm-.51-1.65L12 18l.51-.55.002.002.002.001.005.005.016.016.055.053a8.54 8.54 0 0 1 .754.851c.206.267.425.589.595.935.166.338.311.75.311 1.187 0 .71-.222 1.315-.696 1.73-.456.397-1.034.52-1.554.52s-1.098-.123-1.554-.52c-.474-.415-.696-1.02-.696-1.73 0-.436.145-.849.311-1.187a5.64 5.64 0 0 1 .595-.935 8.54 8.54 0 0 1 .754-.85c.023-.024.042-.042.055-.054l.016-.016.005-.005.002-.001.001-.001Z" fill="#868686"/>
</svg>
