<svg width="24" height="24" fill="none" xmlns="http://www.w3.org/2000/svg">
    <path d="M21.53 2.47a.75.75 0 0 1 0 1.06l-1.619 1.62a2.477 2.477 0 0 1-.448 2.89l-.794.793-3.502-3.502.794-.793a2.477 2.477 0 0 1 2.89-.45L20.47 2.47a.75.75 0 0 1 1.06 0ZM17.608 9.894l-3.502-3.502-8.482 8.483 3.501 3.502 8.483-8.483ZM8.043 19.416l-3.458-3.459a4.349 4.349 0 0 0-.82 1.714l-.586 2.551a.5.5 0 0 0 .6.6l2.55-.587a4.349 4.349 0 0 0 1.714-.82ZM19.224 9.389l-.554-.555-1.06 1.06.554.555a1.425 1.425 0 0 1 0 2.015L16.626 14a.75.75 0 0 0 1.06 1.06l1.538-1.537a2.924 2.924 0 0 0 0-4.135Z" fill="#868686"/>
</svg>
