<svg width="24" height="24" fill="none" xmlns="http://www.w3.org/2000/svg">
    <path fill-rule="evenodd" clip-rule="evenodd" d="M5.386 15.696C4.199 16.29 3.75 16.97 3.75 17.5c0 .53.449 1.21 1.636 1.804 1.142.571 2.772.946 4.614.946s3.472-.375 4.614-.946c1.187-.593 1.636-1.275 1.636-1.804 0-.53-.449-1.21-1.636-1.804-1.142-.571-2.772-.946-4.614-.946s-3.472.375-4.614.946Zm-.671-1.342C6.106 13.66 7.975 13.25 10 13.25c2.024 0 3.894.409 5.285 1.104 1.347.674 2.465 1.742 2.465 3.146s-1.118 2.473-2.465 3.146c-1.391.695-3.26 1.104-5.285 1.104-2.024 0-3.894-.409-5.285-1.104-1.347-.674-2.465-1.742-2.465-3.146s1.118-2.473 2.465-3.146ZM10 3.75a3.25 3.25 0 1 0 0 6.5 3.25 3.25 0 0 0 0-6.5ZM5.25 7a4.75 4.75 0 1 1 9.5 0 4.75 4.75 0 0 1-9.5 0Z" fill="#868686"/>
    <path d="M15.044 10.25a6.03 6.03 0 0 1-1.167 1.33 3.75 3.75 0 1 0 1.465-7.314c.266.519.459 1.081.564 1.674a2.25 2.25 0 0 1-.862 4.31ZM19 17.554a3.64 3.64 0 0 1-.499 1.754 8.644 8.644 0 0 0 1.03-.35c.598-.25 1.13-.565 1.524-.953.398-.391.696-.901.696-1.508 0-.606-.299-1.116-.696-1.507-.394-.389-.926-.704-1.523-.953-1.023-.426-2.34-.7-3.782-.771 1.002.509 1.82 1.148 2.386 1.876.297.083.572.177.819.28.488.203.835.427 1.048.636.21.207.248.355.248.44 0 .083-.038.231-.248.438-.206.203-.538.42-1.003.618Z" fill="#868686"/>
</svg>
