<svg width="24" height="24" fill="none" xmlns="http://www.w3.org/2000/svg">
    <path fill-rule="evenodd" clip-rule="evenodd" d="M3.47 3.47a.75.75 0 0 1 1.06 0l16 16a.75.75 0 1 1-1.06 1.06l-16-16a.75.75 0 0 1 0-1.06Z" fill="#868686"/>
    <path d="M11.25 10.31v1.288l-5.666 3.777a.75.75 0 0 0 .832 1.248L11.25 13.4v5.464c0 1.484 1.73 2.294 2.87 1.345l3.834-3.195-1.065-1.065-3.729 3.107a.25.25 0 0 1-.41-.192V12.4l.354-.236-1.854-1.854ZM18.524 15.462l.012.012-.012-.012ZM14.377 11.316l-1.081-1.082 3.174-2.116a.25.25 0 0 0 .021-.4l-3.33-2.776a.25.25 0 0 0-.41.192v4.554l-1.5-1.5V5.134c0-1.484 1.73-2.294 2.87-1.344l3.33 2.776a1.75 1.75 0 0 1-.15 2.8l-2.924 1.95Z" fill="#868686"/>
</svg>
