<svg width="24" height="24" fill="none" xmlns="http://www.w3.org/2000/svg">
    <path d="M22 7.25h-6.543l3.641-5.097A4.002 4.002 0 0 1 22 6v1.25Z" fill="#868686"/>
    <path fill-rule="evenodd" clip-rule="evenodd" d="M2 8.75h20V18a4 4 0 0 1-4 4H6a4 4 0 0 1-4-4V8.75Zm8 5.053v2.394c0 1.198 1.335 1.913 2.332 1.248l1.796-1.197a1.5 1.5 0 0 0 0-2.496l-1.796-1.197c-.997-.665-2.332.05-2.332 1.248Z" fill="#868686"/>
    <path d="M5.614 7.25H2V6a4 4 0 0 1 4-4h3.364l-3.75 5.25ZM7.457 7.25 11.207 2h6.157l-3.75 5.25H7.457Z" fill="#868686"/>
</svg>
