<svg width="24" height="24" fill="none" xmlns="http://www.w3.org/2000/svg">
    <path fill-rule="evenodd" clip-rule="evenodd" d="M12 10.25a3.75 3.75 0 1 0 2.068 6.879l.902.901a.75.75 0 1 0 1.06-1.06l-.901-.902A3.75 3.75 0 0 0 12 10.25ZM9.75 14a2.25 2.25 0 1 1 4.5 0 2.25 2.25 0 0 1-4.5 0Z" fill="#868686"/>
    <path fill-rule="evenodd" clip-rule="evenodd" d="M7.923 1.25a4.75 4.75 0 0 0-3.71 1.783L2.291 5.436A4.75 4.75 0 0 0 1.25 8.403V18A4.75 4.75 0 0 0 6 22.75h12A4.75 4.75 0 0 0 22.75 18V8.403a4.75 4.75 0 0 0-1.04-2.967l-1.923-2.403a4.75 4.75 0 0 0-3.71-1.783H7.923ZM5.385 3.97a3.25 3.25 0 0 1 2.538-1.22h8.155a3.25 3.25 0 0 1 2.537 1.22l1.825 2.28H3.56l1.825-2.28ZM21 7.75a.751.751 0 0 0 .18-.022c.046.22.07.447.07.675V18A3.25 3.25 0 0 1 18 21.25H6A3.25 3.25 0 0 1 2.75 18V8.403c0-.228.024-.454.07-.675A.752.752 0 0 0 3 7.75h18Z" fill="#868686"/>
</svg>
