<svg width="24" height="24" fill="none" xmlns="http://www.w3.org/2000/svg">
    <path d="M13 14a1 1 0 1 1-2 0 1 1 0 0 1 2 0Z" fill="#868686"/>
    <path fill-rule="evenodd" clip-rule="evenodd" d="M21 10.15v7.817C21 20.194 19.21 22 17 22H7c-2.21 0-4-1.806-4-4.033V10.15c0-1.21.54-2.357 1.47-3.123l5-4.118a3.975 3.975 0 0 1 5.06 0l5 4.118A4.046 4.046 0 0 1 21 10.15Zm-5.009 2.753a1.486 1.486 0 0 1 0 2.194C15.08 15.954 13.631 17 12 17c-1.63 0-3.079-1.046-3.991-1.903a1.486 1.486 0 0 1 0-2.194c.912-.857 2.36-1.903 3.99-1.903 1.631 0 3.08 1.046 3.992 1.903Z" fill="#868686"/>
</svg>
