<svg width="24" height="24" fill="none" xmlns="http://www.w3.org/2000/svg">
    <path fill-rule="evenodd" clip-rule="evenodd" d="M1.25 6A4.75 4.75 0 0 1 6 1.25h12A4.75 4.75 0 0 1 22.75 6v9A4.75 4.75 0 0 1 18 19.75h-5.25v1.5H15a.75.75 0 0 1 0 1.5H9a.75.75 0 0 1 0-1.5h2.25v-1.5H6A4.75 4.75 0 0 1 1.25 15V6ZM18 18.25a3.251 3.251 0 0 0 3.163-2.5H2.837A3.251 3.251 0 0 0 6 18.25h12Zm-15.25-4h18.5V6A3.25 3.25 0 0 0 18 2.75H6A3.25 3.25 0 0 0 2.75 6v8.25ZM6.25 7A.75.75 0 0 1 7 6.25h5a.75.75 0 0 1 0 1.5H7A.75.75 0 0 1 6.25 7Zm0 4a.75.75 0 0 1 .75-.75h10a.75.75 0 0 1 0 1.5H7a.75.75 0 0 1-.75-.75Z" fill="#868686"/>
</svg>
