<svg width="24" height="24" fill="none" xmlns="http://www.w3.org/2000/svg">
    <path fill-rule="evenodd" clip-rule="evenodd" d="M9 4.75a2.25 2.25 0 1 0 0 4.5 2.25 2.25 0 0 0 0-4.5Zm-3.675 1.5A3.751 3.751 0 0 1 12.75 7a3.75 3.75 0 0 1-7.425.75H3a.75.75 0 0 1 0-1.5h2.325ZM14.25 7a.75.75 0 0 1 .75-.75h6a.75.75 0 0 1 0 1.5h-6a.75.75 0 0 1-.75-.75Zm.75 7.75a2.25 2.25 0 1 0 0 4.5 2.25 2.25 0 0 0 0-4.5ZM11.25 17a3.75 3.75 0 0 1 7.425-.75H21a.75.75 0 0 1 0 1.5h-2.325A3.751 3.751 0 0 1 11.25 17Zm-9 0a.75.75 0 0 1 .75-.75h6a.75.75 0 0 1 0 1.5H3a.75.75 0 0 1-.75-.75Z" fill="#868686"/>
</svg>
