<svg width="24" height="24" fill="none" xmlns="http://www.w3.org/2000/svg">
    <path d="m21.098 15.567.18-.134A1.86 1.86 0 0 0 22 13.938v-9.67c0-.853-1.028-1.348-1.736-.872-1 .672-2.297 1.42-3.514 1.748v4.903c2.475.638 4.348 2.815 4.348 5.48v.04ZM9.43 14.97a3.768 3.768 0 0 0-.68-.122V2.088c1.278.107 2.264.857 3.25 1.607.986.75 1.972 1.5 3.25 1.607v4.556c-2.952 0-5.457 2.138-5.807 4.994-.005.04-.01.078-.013.117ZM2.722 4.717c.99-.748 2.836-2.015 4.528-2.471v12.76c-1.217.328-2.514 1.076-3.514 1.748C3.028 17.23 2 16.734 2 15.88v-9.67c0-.584.255-1.141.722-1.494Z" fill="#868686"/>
    <path fill-rule="evenodd" clip-rule="evenodd" d="M19.338 17.614c.26-.743.41-1.472.41-2.088 0-2.385-2.014-4.318-4.498-4.318-2.305 0-4.205 1.663-4.468 3.808-.02.168-.03.338-.03.51 0 2.386 2.249 6.478 4.498 6.478 1.669 0 3.338-2.253 4.088-4.39Zm-4.088-1.008a1.35 1.35 0 1 0 0-2.7 1.35 1.35 0 0 0 0 2.7Z" fill="#868686"/>
</svg>
