<svg width="24" height="24" fill="none" xmlns="http://www.w3.org/2000/svg">
    <path fill-rule="evenodd" clip-rule="evenodd" d="M5.333 2.75a2.583 2.583 0 1 0 0 5.167 2.583 2.583 0 0 0 0-5.167ZM1.25 5.333a4.083 4.083 0 0 1 6.569-3.24c1.286-.543 2.7-.843 4.181-.843 1.482 0 2.895.3 4.181.844a4.083 4.083 0 0 1 5.725 5.725c.544 1.286.844 2.7.844 4.181 0 1.482-.3 2.895-.844 4.181a4.083 4.083 0 0 1-5.725 5.725c-1.286.544-2.7.844-4.181.844-1.482 0-2.895-.3-4.181-.844a4.083 4.083 0 0 1-5.725-5.725A10.719 10.719 0 0 1 1.25 12c0-1.482.3-2.895.844-4.181a4.068 4.068 0 0 1-.844-2.486Zm2.043 3.538A9.232 9.232 0 0 0 2.75 12c0 1.1.191 2.153.543 3.13a4.083 4.083 0 0 1 5.578 5.578c.976.35 2.03.542 3.129.542 1.1 0 2.153-.192 3.13-.543a4.083 4.083 0 0 1 5.578-5.578c.35-.976.542-2.03.542-3.129 0-1.1-.192-2.153-.543-3.13a4.083 4.083 0 0 1-5.578-5.578A9.232 9.232 0 0 0 12 2.75c-1.1 0-2.153.191-3.13.543A4.083 4.083 0 0 1 3.293 8.87ZM18.667 2.75c-.713 0-1.358.288-1.826.755a2.583 2.583 0 1 0 1.825-.755ZM5.333 16.083c-.714 0-1.36.29-1.828.758a2.583 2.583 0 1 0 1.828-.758Zm13.334 0a2.583 2.583 0 1 0 0 5.167 2.583 2.583 0 0 0 0-5.167Z" fill="#868686"/>
</svg>
