<svg width="24" height="24" fill="none" xmlns="http://www.w3.org/2000/svg">
    <path fill-rule="evenodd" clip-rule="evenodd" d="M7.25 3.5A2.25 2.25 0 0 1 9.5 1.25h5a2.25 2.25 0 0 1 1.25 4.121V6.93c0 .418.209.808.557 1.04l.328.218a4.75 4.75 0 0 1 2.115 3.953V18A4.75 4.75 0 0 1 14 22.75h-4A4.75 4.75 0 0 1 5.25 18v-5.86a4.75 4.75 0 0 1 2.115-3.952l.328-.218a1.25 1.25 0 0 0 .557-1.04V5.37a2.248 2.248 0 0 1-1-1.871Zm2.25.75h5a.75.75 0 0 0 0-1.5h-5a.75.75 0 0 0 0 1.5Zm.25 1.5h4.5v1.18c0 .92.46 1.778 1.225 2.288l.328.219a3.25 3.25 0 0 1 1.447 2.704V18A3.25 3.25 0 0 1 14 21.25h-4A3.25 3.25 0 0 1 6.75 18v-5.86a3.25 3.25 0 0 1 1.447-2.703l.328-.22A2.75 2.75 0 0 0 9.75 6.93V5.75Z" fill="#868686"/>
    <path fill-rule="evenodd" clip-rule="evenodd" d="M12 12.75a2.25 2.25 0 1 0 0 4.5 2.25 2.25 0 0 0 0-4.5ZM8.25 15a3.75 3.75 0 1 1 7.5 0 3.75 3.75 0 0 1-7.5 0Z" fill="#868686"/>
</svg>
