<svg width="24" height="24" fill="none" xmlns="http://www.w3.org/2000/svg">
    <path fill-rule="evenodd" clip-rule="evenodd" d="M14.55 1.4a.75.75 0 0 1 1.05.15l2.785 3.713c2.815.205 4.844 2.872 4.267 5.695l-1.635 8c-.45 2.203-2.375 3.792-4.617 3.792H7.6c-2.241 0-4.166-1.589-4.617-3.792l-1.635-8c-.576-2.823 1.453-5.49 4.268-5.695L8.4 1.55a.75.75 0 0 1 1.2.9l-2.1 2.8h9l-2.1-2.8a.75.75 0 0 1 .15-1.05Zm3.443 5.35H5.965c-1.542 0-2.797 1.088-3.129 2.5h18.328c-.331-1.412-1.587-2.5-3.129-2.5H17.993Zm3.17 4H2.837l1.616 7.908A3.222 3.222 0 0 0 7.6 21.25h8.8a3.222 3.222 0 0 0 3.147-2.592l1.616-7.908ZM7.25 14a.75.75 0 0 1 .75-.75h8a.75.75 0 0 1 0 1.5H8a.75.75 0 0 1-.75-.75Zm1 4a.75.75 0 0 1 .75-.75h6a.75.75 0 0 1 0 1.5H9a.75.75 0 0 1-.75-.75Z" fill="#868686"/>
</svg>
