<svg width="24" height="24" fill="none" xmlns="http://www.w3.org/2000/svg">
    <path fill-rule="evenodd" clip-rule="evenodd" d="M3.25 5A3.75 3.75 0 0 1 7 1.25h10A3.75 3.75 0 0 1 20.75 5v14A3.75 3.75 0 0 1 17 22.75H7A3.75 3.75 0 0 1 3.25 19V5Zm1.5 14A2.25 2.25 0 0 0 7 21.25h10A2.25 2.25 0 0 0 19.25 19v-2.25H7A2.25 2.25 0 0 0 4.75 19Zm14.5-3.75H7c-.844 0-1.623.279-2.25.75V5A2.25 2.25 0 0 1 7 2.75h10A2.25 2.25 0 0 1 19.25 5v10.25ZM8.25 9A.75.75 0 0 1 9 8.25h6a.75.75 0 0 1 0 1.5H9A.75.75 0 0 1 8.25 9Z" fill="#868686"/>
</svg>
