<svg width="24" height="24" fill="none" xmlns="http://www.w3.org/2000/svg">
    <path fill-rule="evenodd" clip-rule="evenodd" d="M22 6a4 4 0 1 1-8 0 4 4 0 0 1 8 0Zm-4-2.25a.75.75 0 0 1 .75.75v.75h.75a.75.75 0 0 1 0 1.5H18a.75.75 0 0 1-.75-.75V4.5a.75.75 0 0 1 .75-.75ZM18 11.5V19a3 3 0 0 1-3 3H5a3 3 0 0 1-3-3v-8a3 3 0 0 1 3-3h7.875A5.502 5.502 0 0 0 18 11.5ZM5.4 12.55a.75.75 0 0 1 1.05-.15l2.2 1.65c.8.6 1.9.6 2.7 0l2.2-1.65a.75.75 0 0 1 .9 1.2l-2.2 1.65a3.75 3.75 0 0 1-4.5 0l-2.2-1.65a.75.75 0 0 1-.15-1.05Z" fill="#868686"/>
</svg>
