<svg width="24" height="24" fill="none" xmlns="http://www.w3.org/2000/svg">
    <path d="M15.601 5.25H8.397c-1.162-1.57.404-3.768 2.35-3.14l.927.3c.211.067.44.067.65 0l.928-.3c1.946-.628 3.512 1.57 2.35 3.14Z" fill="#868686"/>
    <path fill-rule="evenodd" clip-rule="evenodd" d="M8.505 6.75h6.988c1.32.73 2.35 1.95 2.822 3.46l1.25 4c1.207 3.864-1.679 7.79-5.727 7.79H10.16c-4.047 0-6.934-3.926-5.726-7.79l1.25-4a5.997 5.997 0 0 1 2.821-3.46Zm4.11 3a2.135 2.135 0 0 0-2.135 2.135v.57c0 .44-.053.874-.157 1.295H8.999a.75.75 0 0 0 0 1.5h.703c-.154.255-.33.499-.526.727-1.103 1.286-.19 3.273 1.504 3.273H14a.75.75 0 0 0 0-1.5h-3.32a.482.482 0 0 1-.366-.796 6.91 6.91 0 0 0 1.075-1.704H13a.75.75 0 0 0 0-1.5h-1.141c.08-.424.122-.858.122-1.295v-.57a.635.635 0 0 1 1.27 0v.497a.75.75 0 0 0 1.5 0v-.497a2.135 2.135 0 0 0-2.135-2.135Z" fill="#868686"/>
</svg>
