<svg width="24" height="24" fill="none" xmlns="http://www.w3.org/2000/svg">
    <path fill-rule="evenodd" clip-rule="evenodd" d="M22 3.25a.75.75 0 0 1 .75.75v16a.75.75 0 0 1-1.5 0V4a.75.75 0 0 1 .75-.75Zm-4 3a.75.75 0 0 1 .75.75v13a.75.75 0 0 1-1.5 0V7a.75.75 0 0 1 .75-.75ZM6 8.75c-.983 0-1.53 1.137-.916 1.905L6 11.799l.915-1.144C7.53 9.887 6.983 8.75 6 8.75Zm-.75 4.513-1.337-1.671C2.513 9.842 3.759 7.25 6 7.25c2.24 0 3.487 2.592 2.087 4.342L6.75 13.263V20a.75.75 0 0 1-1.5 0v-6.737ZM14 9.25a.75.75 0 0 1 .75.75v10a.75.75 0 0 1-1.5 0V10a.75.75 0 0 1 .75-.75Zm-4 3a.75.75 0 0 1 .75.75v7a.75.75 0 0 1-1.5 0v-7a.75.75 0 0 1 .75-.75Z" fill="#868686"/>
</svg>
