<svg width="24" height="24" fill="none" xmlns="http://www.w3.org/2000/svg">
    <path fill-rule="evenodd" clip-rule="evenodd" d="M1.25 4a2.75 2.75 0 0 1 5.5 0v3.25h4.5V6.5a.75.75 0 0 1 1.5 0v.75h1.5V6.5a.75.75 0 0 1 1.5 0v.75h1.5V4a2.75 2.75 0 1 1 5.5 0v16a2.75 2.75 0 1 1-5.5 0v-3.25h-4.5v.75a.75.75 0 0 1-1.5 0v-.75h-1.5v.75a.75.75 0 0 1-1.5 0v-.75h-1.5V20a2.75 2.75 0 1 1-5.5 0V4Zm5.5 11.25h1.5v-.75a.75.75 0 0 1 1.5 0v.75h1.5v-.75a.75.75 0 0 1 1.5 0v.75h4.5v-6.5h-1.5v.75a.75.75 0 0 1-1.5 0v-.75h-1.5v.75a.75.75 0 0 1-1.5 0v-.75h-4.5v6.5ZM5.25 20a1.25 1.25 0 1 1-2.5 0V4a1.25 1.25 0 1 1 2.5 0v16Zm13.5 0a1.25 1.25 0 1 0 2.5 0V4a1.25 1.25 0 1 0-2.5 0v16Z" fill="#868686"/>
</svg>
