<svg width="24" height="24" fill="none" xmlns="http://www.w3.org/2000/svg">
    <path fill-rule="evenodd" clip-rule="evenodd" d="M12 9.25a.75.75 0 0 1 .75.75v6a.75.75 0 0 1-1.5 0v-6a.75.75 0 0 1 .75-.75Z" fill="#868686"/>
    <path fill-rule="evenodd" clip-rule="evenodd" d="M15.75 13a.75.75 0 0 1-.75.75H9a.75.75 0 0 1 0-1.5h6a.75.75 0 0 1 .75.75Z" fill="#868686"/>
    <path fill-rule="evenodd" clip-rule="evenodd" d="M12 4.75a8.25 8.25 0 1 0 0 16.5 8.25 8.25 0 0 0 0-16.5ZM2.25 13c0-5.385 4.365-9.75 9.75-9.75s9.75 4.365 9.75 9.75-4.365 9.75-9.75 9.75S2.25 18.385 2.25 13ZM7.884 1.7a.75.75 0 0 1-.387.987c-1.99.87-3.681 2.301-4.872 4.093a.75.75 0 0 1-1.25-.83 12.797 12.797 0 0 1 5.521-4.637.75.75 0 0 1 .988.387Zm8.232 0a.75.75 0 0 1 .988-.387 12.797 12.797 0 0 1 5.52 4.636.75.75 0 1 1-1.248.83 11.296 11.296 0 0 0-4.873-4.092.75.75 0 0 1-.387-.987Z" fill="#868686"/>
    <path fill-rule="evenodd" clip-rule="evenodd" d="M5.692 18.4a.75.75 0 0 1 .151 1.05l-2.242 3a.75.75 0 1 1-1.202-.899l2.243-3a.75.75 0 0 1 1.05-.152Zm12.616 0a.75.75 0 0 1 1.05.151l2.243 3a.75.75 0 1 1-1.202.898l-2.242-3a.75.75 0 0 1 .151-1.05Z" fill="#868686"/>
</svg>
