<svg width="24" height="24" fill="none" xmlns="http://www.w3.org/2000/svg">
    <path fill-rule="evenodd" clip-rule="evenodd" d="M7.25 8a2.75 2.75 0 1 1 5.5 0 2.75 2.75 0 0 1-5.5 0ZM10 6.75a1.25 1.25 0 1 0 0 2.5 1.25 1.25 0 0 0 0-2.5Z" fill="#868686"/>
    <path d="M18 16.75a.75.75 0 0 0 0-1.5h-2a.75.75 0 0 0 0 1.5h2Z" fill="#868686"/>
    <path fill-rule="evenodd" clip-rule="evenodd" d="M17.12 13.25c.386-1.061.63-2.16.63-3.25 0-2.903-.826-5.109-2.261-6.592C14.054 1.924 12.094 1.25 10 1.25s-4.054.674-5.489 2.158C3.076 4.89 2.25 7.098 2.25 10c0 1.817.68 3.67 1.576 5.335.9 1.674 2.054 3.221 3.075 4.442 1.399 1.67 3.725 1.917 5.397.739A2.75 2.75 0 0 0 15 22.75h4A2.75 2.75 0 0 0 21.75 20v-4A2.75 2.75 0 0 0 19 13.25h-1.88ZM5.59 4.45C4.49 5.586 3.75 7.38 3.75 10c0 1.464.556 3.061 1.396 4.624.836 1.554 1.921 3.014 2.905 4.19 1.041 1.244 2.857 1.244 3.898 0 .099-.119.2-.24.301-.365V16A2.75 2.75 0 0 1 15 13.25h.51c.463-1.115.74-2.217.74-3.25 0-2.62-.74-4.414-1.84-5.55-1.098-1.135-2.638-1.7-4.41-1.7-1.772 0-3.312.565-4.41 1.7ZM15 14.75c-.69 0-1.25.56-1.25 1.25v4c0 .69.56 1.25 1.25 1.25h4c.69 0 1.25-.56 1.25-1.25v-4c0-.69-.56-1.25-1.25-1.25h-4Z" fill="#868686"/>
</svg>
