<svg width="24" height="24" fill="none" xmlns="http://www.w3.org/2000/svg">
    <path fill-rule="evenodd" clip-rule="evenodd" d="M3.25 6A2.75 2.75 0 0 1 6 3.25h12A2.75 2.75 0 0 1 20.75 6v10.75H3.25V6ZM6 4.75c-.69 0-1.25.56-1.25 1.25v9.25h14.5V6c0-.69-.56-1.25-1.25-1.25H6Z" fill="#868686"/>
    <path fill-rule="evenodd" clip-rule="evenodd" d="M1.25 17c0-.966.784-1.75 1.75-1.75h18c.966 0 1.75.784 1.75 1.75A3.75 3.75 0 0 1 19 20.75H5A3.75 3.75 0 0 1 1.25 17ZM3 16.75a.25.25 0 0 0-.25.25A2.25 2.25 0 0 0 5 19.25h14A2.25 2.25 0 0 0 21.25 17a.25.25 0 0 0-.25-.25H3Z" fill="#868686"/>
</svg>
