<svg width="24" height="24" fill="none" xmlns="http://www.w3.org/2000/svg">
    <path fill-rule="evenodd" clip-rule="evenodd" d="M9 4a2 2 0 1 1-4 0 2 2 0 0 1 4 0ZM7 6c-1.657 0-3 .895-3 2s1.343 2 3 2 3-.895 3-2-1.343-2-3-2ZM18 18a2 2 0 1 0 0-4 2 2 0 0 0 0 4Zm0 0c1.657 0 3 .895 3 2s-1.343 2-3 2-3-.895-3-2 1.343-2 3-2Z" fill="#868686"/>
    <path d="M11.25 3a.75.75 0 0 1 .75-.75c5.385 0 9.75 4.365 9.75 9.75a.75.75 0 0 1-1.5 0A8.25 8.25 0 0 0 12 3.75a.75.75 0 0 1-.75-.75ZM3 11.25a.75.75 0 0 1 .75.75A8.25 8.25 0 0 0 12 20.25a.75.75 0 0 1 0 1.5c-5.385 0-9.75-4.365-9.75-9.75a.75.75 0 0 1 .75-.75Z" fill="#868686"/>
</svg>
