<svg width="24" height="24" fill="none" xmlns="http://www.w3.org/2000/svg">
    <path fill-rule="evenodd" clip-rule="evenodd" d="M18 1.25A4.75 4.75 0 0 1 22.75 6v8a.75.75 0 0 1-1.5 0V6.75H6A3.25 3.25 0 0 0 2.75 10v1.25H6a2.75 2.75 0 1 1 0 5.5H2.75V18A3.25 3.25 0 0 0 6 21.25h8a.75.75 0 0 1 0 1.5H6A4.75 4.75 0 0 1 1.25 18v-8A4.75 4.75 0 0 1 6 5.25h1.309c.36-2.267 2.323-4 4.691-4h6Zm-15.25 14v-2.5H6a1.25 1.25 0 1 1 0 2.5H2.75Zm6.087-10h12.326A3.251 3.251 0 0 0 18 2.75h-6a3.251 3.251 0 0 0-3.163 2.5Z" fill="#868686"/>
    <path d="M19 15.25a.75.75 0 0 1 .75.75v2.25H22a.75.75 0 0 1 0 1.5h-2.25V22a.75.75 0 0 1-1.5 0v-2.25H16a.75.75 0 0 1 0-1.5h2.25V16a.75.75 0 0 1 .75-.75Z" fill="#868686"/>
</svg>
