<svg width="24" height="24" fill="none" xmlns="http://www.w3.org/2000/svg">
    <path fill-rule="evenodd" clip-rule="evenodd" d="M6.448 5.5a5.752 5.752 0 0 1 11.104 0c.55-.104 1.08-.18 1.57-.235 1.492-.167 2.628 1.065 2.628 2.455v10.013c0 1.425-1.133 2.528-2.462 2.677-1.955.218-4.489.8-6.246 2.016a1.837 1.837 0 0 1-2.084 0c-1.757-1.216-4.29-1.798-6.246-2.016-1.33-.149-2.462-1.252-2.462-2.677V7.72c0-1.39 1.136-2.622 2.628-2.455.49.054 1.02.13 1.57.234ZM6.25 6.987a19.877 19.877 0 0 0-1.538-.233c-.485-.054-.962.345-.962.965v10.013c0 .586.481 1.114 1.128 1.186 1.858.207 4.377.739 6.372 1.915V14.34a28.838 28.838 0 0 1-2.31-2.306c-.642-.72-1.3-1.55-1.803-2.391C6.645 8.818 6.25 7.893 6.25 7v-.012Zm6.5 7.352v6.494c1.995-1.176 4.514-1.708 6.372-1.915.647-.072 1.128-.6 1.128-1.186V7.72c0-.62-.477-1.019-.962-.965-.48.054-1 .13-1.538.233V7c0 .894-.395 1.818-.887 2.643-.503.842-1.161 1.67-1.803 2.391a28.836 28.836 0 0 1-2.31 2.306ZM12 12.996l.268-.248c.458-.43 1.066-1.03 1.672-1.711.608-.684 1.2-1.433 1.635-2.163.445-.746.675-1.387.675-1.874a4.25 4.25 0 0 0-8.5 0c0 .487.23 1.128.675 1.874.436.73 1.027 1.48 1.635 2.163a27.297 27.297 0 0 0 1.94 1.96Zm0-6.746a.75.75 0 1 0 0 1.5.75.75 0 0 0 0-1.5ZM9.75 7a2.25 2.25 0 1 1 4.5 0 2.25 2.25 0 0 1-4.5 0Z" fill="#868686"/>
</svg>
