<svg width="24" height="24" fill="none" xmlns="http://www.w3.org/2000/svg">
    <path fill-rule="evenodd" clip-rule="evenodd" d="M4.47 4.47a.75.75 0 0 1 1.06 0l14 14a.75.75 0 1 1-1.06 1.06l-14-14a.75.75 0 0 1 0-1.06Z" fill="#868686"/>
    <path d="m10.58 9.64-1.322 9.254a.75.75 0 0 0 1.485.212l1.162-8.14L10.58 9.64ZM12.17 9.11l.573-4.004a.75.75 0 0 0-1.485-.212l-.413 2.89L12.17 9.11ZM5.44 4.5A.75.75 0 0 0 6 5.75h.69L5.44 4.5Z" fill="#868686"/>
    <path d="M8.81 5.75H18a.75.75 0 0 0 0-1.5H7.31l1.5 1.5Z" fill="#868686"/>
</svg>
