<svg width="24" height="24" fill="none" xmlns="http://www.w3.org/2000/svg">
    <path fill-rule="evenodd" clip-rule="evenodd" d="M18 2.75H6a4 4 0 0 0-4 4v8a4 4 0 0 0 4 4h7a1 1 0 0 0 1-1v-1a4 4 0 0 1 4-4h3a1 1 0 0 0 1-1v-5a4 4 0 0 0-4-4Zm-11 4a1 1 0 1 0-2 0 1 1 0 0 0 2 0Zm5 2a2 2 0 1 1 0 4 2 2 0 0 1 0-4Z" fill="#868686"/>
    <path d="M21 15.75a2 2 0 1 0-2 2c-1.246 0-2.377.641-3.208 1.684-.451.566.024 1.316.748 1.316h4.92c.724 0 1.199-.75.748-1.316-.83-1.043-1.962-1.684-3.208-1.684a2 2 0 0 0 2-2Z" fill="#868686"/>
</svg>
