<svg width="24" height="24" fill="none" xmlns="http://www.w3.org/2000/svg">
    <path fill-rule="evenodd" clip-rule="evenodd" d="M6 1.25A4.75 4.75 0 0 0 1.25 6v12A4.75 4.75 0 0 0 6 22.75h8a.75.75 0 0 0 0-1.5H6A3.25 3.25 0 0 1 2.75 18V6A3.25 3.25 0 0 1 6 2.75h1.25v6.836c0 1.559 1.885 2.34 2.987 1.237l1.586-1.586a.25.25 0 0 1 .354 0l1.586 1.586c1.102 1.103 2.987.322 2.987-1.237V2.75H18A3.25 3.25 0 0 1 21.25 6v8a.75.75 0 0 0 1.5 0V6A4.75 4.75 0 0 0 18 1.25H6Zm8.823 8.513a.25.25 0 0 0 .427-.177V2.75h-6.5v6.836c0 .223.27.334.427.177l1.586-1.586a1.75 1.75 0 0 1 2.474 0l1.586 1.586Z" fill="#868686"/>
    <path d="M22.75 19a.75.75 0 0 1-.75.75h-2.25V22a.75.75 0 0 1-1.5 0v-2.25H16a.75.75 0 0 1 0-1.5h2.25V16a.75.75 0 0 1 1.5 0v2.25H22a.75.75 0 0 1 .75.75Z" fill="#868686"/>
</svg>
