<svg width="24" height="24" fill="none" xmlns="http://www.w3.org/2000/svg">
    <path fill-rule="evenodd" clip-rule="evenodd" d="M6 2.75A3.25 3.25 0 0 0 2.75 6v12A3.25 3.25 0 0 0 6 21.25h12A3.25 3.25 0 0 0 21.25 18v-8a.75.75 0 0 1 1.5 0v8A4.75 4.75 0 0 1 18 22.75H6A4.75 4.75 0 0 1 1.25 18V6A4.75 4.75 0 0 1 6 1.25h8a.75.75 0 0 1 0 1.5H6Zm13.5 0a1.75 1.75 0 1 0 0 3.5 1.75 1.75 0 0 0 0-3.5ZM16.25 4.5a3.25 3.25 0 1 1 6.5 0 3.25 3.25 0 0 1-6.5 0ZM10 7.75c-.69 0-1.25.56-1.25 1.25v1A2.75 2.75 0 0 1 6 12.75H5a.75.75 0 0 1 0-1.5h1c.69 0 1.25-.56 1.25-1.25V9a2.75 2.75 0 0 1 5.5 0v6a1.25 1.25 0 1 0 2.5 0v-1A2.75 2.75 0 0 1 18 11.25h1a.75.75 0 0 1 0 1.5h-1c-.69 0-1.25.56-1.25 1.25v1a2.75 2.75 0 1 1-5.5 0V9c0-.69-.56-1.25-1.25-1.25Z" fill="#868686"/>
</svg>
