<svg width="24" height="24" fill="none" xmlns="http://www.w3.org/2000/svg">
    <path fill-rule="evenodd" clip-rule="evenodd" d="M14.031 3.38a3.593 3.593 0 0 0-4.062 0L3.58 7.812c-1.006.698-1.11 2.061-.242 2.89a3.36 3.36 0 0 1 1.051 2.43v4.878c0 1.756 1.503 3.239 3.43 3.239h8.361c1.928 0 3.43-1.483 3.43-3.24v-4.877a3.36 3.36 0 0 1 1.053-2.43c.867-.829.763-2.192-.243-2.89L14.031 3.38ZM9.114 2.146a5.093 5.093 0 0 1 5.772 0l6.39 4.434c1.774 1.232 1.987 3.714.422 5.206a1.86 1.86 0 0 0-.587 1.346v4.878c0 2.65-2.241 4.739-4.93 4.739H7.82c-2.69 0-4.93-2.09-4.93-4.74v-4.877a1.86 1.86 0 0 0-.588-1.346C.738 10.295.95 7.813 2.725 6.581l6.389-4.434Zm2.895 10.103c-1.25 0-2.259 1.01-2.259 2.25s1.01 2.25 2.26 2.25c.574 0 1.096-.212 1.495-.563a.75.75 0 0 1 .99 1.126 3.753 3.753 0 0 1-2.486.937A3.755 3.755 0 0 1 8.25 14.5a3.755 3.755 0 0 1 3.76-3.75c.952 0 1.823.354 2.486.937a.75.75 0 0 1-.991 1.126 2.253 2.253 0 0 0-1.496-.563Z" fill="#868686"/>
    <path d="M16.5 10a1 1 0 1 1-2 0 1 1 0 0 1 2 0Z" fill="#868686"/>
</svg>
