<svg width="24" height="24" fill="none" xmlns="http://www.w3.org/2000/svg">
    <path d="M13.445 19a1 1 0 1 1-2 0 1 1 0 0 1 2 0Z" fill="#868686"/>
    <path fill-rule="evenodd" clip-rule="evenodd" d="M2.47 2.47a.75.75 0 0 1 1.06 0l18 18a.75.75 0 1 1-1.06 1.06l-18-18a.75.75 0 0 1 0-1.06Z" fill="#868686"/>
    <path fill-rule="evenodd" clip-rule="evenodd" d="M12.445 4.75c-1.28 0-2.518.181-3.687.52a.75.75 0 0 1-.417-1.441 14.756 14.756 0 0 1 4.104-.579 14.7 14.7 0 0 1 9.951 3.862.75.75 0 0 1-1.012 1.107 13.2 13.2 0 0 0-8.939-3.469Zm-6.069.608a.75.75 0 0 1-.296 1.018A13.29 13.29 0 0 0 3.506 8.22a.75.75 0 1 1-1.012-1.107 14.79 14.79 0 0 1 2.864-2.05.75.75 0 0 1 1.018.296ZM12.27 8.97a.75.75 0 0 1 .795-.702 9.718 9.718 0 0 1 6.139 2.704.75.75 0 1 1-1.04 1.08 8.219 8.219 0 0 0-5.193-2.286.75.75 0 0 1-.701-.796Zm-2.067.278a.75.75 0 0 1-.463.954 8.251 8.251 0 0 0-3.014 1.85.75.75 0 0 1-1.04-1.08A9.75 9.75 0 0 1 9.25 8.786a.75.75 0 0 1 .954.463Zm2.242 5.501a3.24 3.24 0 0 0-2.454 1.119.75.75 0 1 1-1.131-.985 4.74 4.74 0 0 1 3.585-1.634c.985 0 1.903.3 2.662.816a.75.75 0 1 1-.841 1.241 3.23 3.23 0 0 0-1.82-.557Z" fill="#868686"/>
</svg>
