<svg width="24" height="24" fill="none" xmlns="http://www.w3.org/2000/svg">
    <path fill-rule="evenodd" clip-rule="evenodd" d="M11 14.75a8.21 8.21 0 0 0-3.996 1.03.75.75 0 0 1-.727-1.312 9.71 9.71 0 0 1 4.722-1.218c.366 0 .727.02 1.082.06a.75.75 0 1 1-.164 1.49 8.341 8.341 0 0 0-.918-.05ZM11 10.25a2.25 2.25 0 1 1 0-4.5 2.25 2.25 0 0 1 0 4.5ZM7.25 8a3.75 3.75 0 1 0 7.5 0 3.75 3.75 0 0 0-7.5 0Z" fill="#868686"/>
    <path fill-rule="evenodd" clip-rule="evenodd" d="M1.25 11c0-5.385 4.365-9.75 9.75-9.75s9.75 4.365 9.75 9.75c0 .993-.149 1.953-.425 2.857a4.75 4.75 0 1 1-6.468 6.468A9.746 9.746 0 0 1 11 20.75c-5.385 0-9.75-4.365-9.75-9.75Zm12.088 7.914a4.75 4.75 0 0 1 5.576-5.576 8.25 8.25 0 1 0-5.576 5.576ZM18 14.75a3.25 3.25 0 1 0 0 6.5 3.25 3.25 0 0 0 0-6.5Z" fill="#868686"/>
    <path fill-rule="evenodd" clip-rule="evenodd" d="M21.03 14.97a.75.75 0 0 1 0 1.06l-5 5a.75.75 0 1 1-1.06-1.06l5-5a.75.75 0 0 1 1.06 0Z" fill="#868686"/>
</svg>
