<svg width="24" height="24" fill="none" xmlns="http://www.w3.org/2000/svg">
    <path fill-rule="evenodd" clip-rule="evenodd" d="M11.157 7.923C10.129 7.157 9.248 6.64 8.083 6.77c-.786.088-1.718.471-2.633.976A19.605 19.605 0 0 0 3.174 9.24a1.11 1.11 0 0 0-.424.897v9.67c0 .097.053.197.185.262a.38.38 0 0 0 .383-.013c1.215-.816 2.99-1.836 4.599-2.016 1.959-.22 3.345.835 4.47 1.692l.067.051c1.204.916 2.143 1.595 3.463 1.447.786-.088 1.718-.471 2.633-.976a19.61 19.61 0 0 0 2.276-1.495c.264-.2.424-.527.424-.896v-9.67c0-.09-.043-.174-.145-.24l.806-1.264c.475.302.839.835.839 1.505v9.669c0 .8-.35 1.587-1.02 2.093a21.087 21.087 0 0 1-2.455 1.611c-.973.537-2.111 1.033-3.192 1.154-1.959.219-3.345-.836-4.47-1.693l-.067-.05c-1.204-.916-2.143-1.595-3.463-1.448-1.214.136-2.724.962-3.928 1.771-1.153.775-2.905.023-2.905-1.494v-9.67c0-.8.35-1.587 1.02-2.093a21.097 21.097 0 0 1 2.455-1.611c.973-.537 2.111-1.033 3.192-1.154 1.78-.199 3.075.65 4.136 1.44l-.896 1.204Z" fill="#868686"/>
    <path fill-rule="evenodd" clip-rule="evenodd" d="M16.58 2.75c-2.375 0-4.25 1.842-4.25 4.05 0 1.139.557 2.8 1.445 4.19.439.687.934 1.27 1.438 1.672.509.406.973.588 1.368.588.395 0 .86-.182 1.368-.588.504-.403.999-.985 1.437-1.671.888-1.392 1.445-3.052 1.445-4.191 0-2.208-1.874-4.05-4.25-4.05ZM10.83 6.8c0-3.094 2.604-5.55 5.75-5.55 3.147 0 5.75 2.456 5.75 5.55 0 1.512-.693 3.452-1.68 4.998-.499.782-1.098 1.503-1.765 2.036-.664.53-1.45.916-2.304.916-.855 0-1.64-.386-2.304-.916-.668-.533-1.267-1.254-1.766-2.036-.987-1.546-1.68-3.486-1.68-4.998Zm5.75-1.05a.75.75 0 1 0 0 1.5.75.75 0 0 0 0-1.5Zm-2.25.75a2.25 2.25 0 1 1 4.5 0 2.25 2.25 0 0 1-4.5 0Z" fill="#868686"/>
</svg>
