<svg width="24" height="24" fill="none" xmlns="http://www.w3.org/2000/svg">
    <path fill-rule="evenodd" clip-rule="evenodd" d="M9.25 4a2.75 2.75 0 1 1 5.5 0v1.25H19A3.75 3.75 0 0 1 22.75 9v10A3.75 3.75 0 0 1 19 22.75H5A3.75 3.75 0 0 1 1.25 19V9A3.75 3.75 0 0 1 5 5.25h4.25V4Zm1.5 1.25h2.5V4a1.25 1.25 0 1 0-2.5 0v1.25ZM5 6.75A2.25 2.25 0 0 0 2.75 9v10A2.25 2.25 0 0 0 5 21.25h14A2.25 2.25 0 0 0 21.25 19V9A2.25 2.25 0 0 0 19 6.75H5Zm4 4a1.25 1.25 0 1 0 0 2.5 1.25 1.25 0 0 0 0-2.5Zm2.035 3.1a2.75 2.75 0 1 0-4.07 0A3.747 3.747 0 0 0 5.25 17c0 .966.784 1.75 1.75 1.75h4A1.75 1.75 0 0 0 12.75 17c0-1.32-.683-2.482-1.715-3.15ZM9 14.75A2.25 2.25 0 0 0 6.75 17c0 .138.112.25.25.25h4a.25.25 0 0 0 .25-.25A2.25 2.25 0 0 0 9 14.75ZM14.25 12a.75.75 0 0 1 .75-.75h3a.75.75 0 0 1 0 1.5h-3a.75.75 0 0 1-.75-.75Zm0 4a.75.75 0 0 1 .75-.75h3a.75.75 0 0 1 0 1.5h-3a.75.75 0 0 1-.75-.75Z" fill="#868686"/>
</svg>
