<svg width="24" height="24" fill="none" xmlns="http://www.w3.org/2000/svg">
    <g clip-path="url(#a)">
        <path fill-rule="evenodd" clip-rule="evenodd" d="M17.031 1.5a.75.75 0 1 0-1.5 0V3h-6.5V1.5a.75.75 0 0 0-1.5 0V3h-.25a4 4 0 0 0-4 4v10.5a4 4 0 0 0 4 4h10a4 4 0 0 0 4-4V7a4 4 0 0 0-4-4h-.25V1.5Zm-3.28 10.53-.72-.72v4.19a.75.75 0 1 1-1.5 0v-4.19l-.72.72a.75.75 0 1 1-1.06-1.06l1.293-1.293a1.75 1.75 0 0 1 2.475 0l1.293 1.293a.75.75 0 0 1-1.061 1.06Z" fill="#868686"/>
    </g>
    <defs>
        <clipPath id="a">
            <path fill="#fff" d="M0 0h24v24H0z"/>
        </clipPath>
    </defs>
</svg>
