<svg width="24" height="24" fill="none" xmlns="http://www.w3.org/2000/svg">
    <path d="M12 2.313a.75.75 0 0 1 .75.75v1.25H14a.75.75 0 0 1 0 1.5h-1.25v1.25a.75.75 0 0 1-1.5 0v-1.25H10a.75.75 0 0 1 0-1.5h1.25v-1.25a.75.75 0 0 1 .75-.75ZM4 11.74v5.086a2 2 0 0 0 1.106 1.79l6 3a2 2 0 0 0 1.789 0l6-3a2 2 0 0 0 1.106-1.79V11.74l-5.33 2.664a1.5 1.5 0 0 1-1.918-.51L12 12.768l-.752 1.128a1.5 1.5 0 0 1-1.92.51L4.002 11.74Z" fill="#868686"/>
    <path d="m11.976 10.078-7.96-3.992L2.03 9.043l8.003 4.022 1.944-2.987Z" fill="#868686"/>
    <path d="m11.976 10.078 2.022 2.987 8.02-3.965-2.027-2.988-8.015 3.966Z" fill="#868686"/>
</svg>
