<svg width="24" height="24" fill="none" xmlns="http://www.w3.org/2000/svg">
    <path fill-rule="evenodd" clip-rule="evenodd" d="M11.999 7.75a4.25 4.25 0 1 0 0 8.5 4.25 4.25 0 0 0 0-8.5ZM6.249 12a5.75 5.75 0 1 1 11.5 0 5.75 5.75 0 0 1-11.5 0ZM11.999 1.25a.75.75 0 0 1 .75.75v2a.75.75 0 1 1-1.5 0V2a.75.75 0 0 1 .75-.75ZM11.999 19.25a.75.75 0 0 1 .75.75v2a.75.75 0 1 1-1.5 0v-2a.75.75 0 0 1 .75-.75ZM21.31 6.624a.75.75 0 0 1-.275 1.025l-1.732 1a.75.75 0 0 1-.75-1.3l1.732-1a.75.75 0 0 1 1.025.275ZM5.72 15.624a.75.75 0 0 1-.275 1.025l-1.732 1a.75.75 0 1 1-.75-1.3l1.732-1a.75.75 0 0 1 1.025.275ZM2.688 6.626a.75.75 0 0 1 1.025-.275l1.732 1a.75.75 0 0 1-.75 1.3l-1.732-1a.75.75 0 0 1-.275-1.025ZM18.278 15.626a.75.75 0 0 1 1.025-.275l1.732 1a.75.75 0 0 1-.75 1.3l-1.732-1a.75.75 0 0 1-.275-1.025Z" fill="#868686"/>
</svg>
