<svg width="24" height="24" fill="none" xmlns="http://www.w3.org/2000/svg">
    <path d="M12.75 21a.75.75 0 1 1-1.5 0 .75.75 0 0 1 1.5 0ZM12.75 18a.75.75 0 1 1-1.5 0 .75.75 0 0 1 1.5 0Z" fill="#868686"/>
    <path fill-rule="evenodd" clip-rule="evenodd" d="M12.147 4.916a7.75 7.75 0 0 0-7.022 13.797.75.75 0 1 0 .75-1.299 6.25 6.25 0 1 1 8.533-8.548 5.762 5.762 0 0 0-1.433 1.028.75.75 0 0 0 1.05 1.07A4.25 4.25 0 0 1 21.25 14a4.252 4.252 0 0 1-2.975 4.056.75.75 0 1 0 .45 1.43A5.752 5.752 0 0 0 21.906 11a5.75 5.75 0 0 0-9.76-6.084Zm1.307.74a7.784 7.784 0 0 1 2.393 2.71A5.772 5.772 0 0 1 17 8.25a5.73 5.73 0 0 1 3.874 1.5 4.25 4.25 0 0 0-7.42-4.094Z" fill="#868686"/>
    <path d="M9.5 19A.75.75 0 1 1 8 19a.75.75 0 0 1 1.5 0ZM16 19a.75.75 0 1 1-1.5 0 .75.75 0 0 1 1.5 0ZM9.5 16A.75.75 0 1 1 8 16a.75.75 0 0 1 1.5 0ZM16 16a.75.75 0 1 1-1.5 0 .75.75 0 0 1 1.5 0Z" fill="#868686"/>
</svg>
