<svg width="24" height="24" fill="none" xmlns="http://www.w3.org/2000/svg">
    <path fill-rule="evenodd" clip-rule="evenodd" d="M1.25 6A3.75 3.75 0 0 1 5 2.25h14A3.75 3.75 0 0 1 22.75 6v10a3.751 3.751 0 0 1-3 3.675V21a.75.75 0 0 1-1.5 0v-1.25H5.75V21a.75.75 0 0 1-1.5 0v-1.325a3.751 3.751 0 0 1-3-3.675V6Zm1.5 1.75V16A2.25 2.25 0 0 0 5 18.25h6.25V7.75h-8.5Zm8.5-1.5h-8.5V6A2.25 2.25 0 0 1 5 3.75h6.25v2.5Zm1.5 1.5v10.5H19A2.25 2.25 0 0 0 21.25 16V7.75h-8.5Zm8.5-1.5h-8.5v-2.5H19A2.25 2.25 0 0 1 21.25 6v.25ZM9 11.25a.75.75 0 0 1 .75.75v2a.75.75 0 0 1-1.5 0v-2a.75.75 0 0 1 .75-.75Zm6 0a.75.75 0 0 1 .75.75v2a.75.75 0 0 1-1.5 0v-2a.75.75 0 0 1 .75-.75Z" fill="#868686"/>
</svg>
