<svg width="24" height="24" fill="none" xmlns="http://www.w3.org/2000/svg">
    <path fill-rule="evenodd" clip-rule="evenodd" d="M12 2.75a9.25 9.25 0 1 0 0 18.5 9.25 9.25 0 0 0 0-18.5ZM1.25 12C1.25 6.063 6.063 1.25 12 1.25S22.75 6.063 22.75 12 17.937 22.75 12 22.75 1.25 17.937 1.25 12ZM12 6.75A2.25 2.25 0 0 0 9.75 9a.75.75 0 0 1-1.5 0 3.75 3.75 0 1 1 4.977 3.544.92.92 0 0 0-.375.237c-.081.09-.102.163-.102.219v1a.75.75 0 0 1-1.5 0v-1c0-1.002.808-1.638 1.486-1.873A2.251 2.251 0 0 0 12 6.75Z" fill="#868686"/>
    <path d="M13 17a1 1 0 1 1-2 0 1 1 0 0 1 2 0Z" fill="#868686"/>
</svg>
