<svg width="24" height="24" fill="none" xmlns="http://www.w3.org/2000/svg">
    <path d="M2 10a6.995 6.995 0 0 0 3.25 5.911l.514-1.03A2.5 2.5 0 0 1 10 14.5a2.501 2.501 0 0 1 4 0 2.5 2.5 0 0 1 4.365 2.312 5 5 0 1 0-2.926-9.563A7.002 7.002 0 0 0 2 10Z" fill="#868686"/>
    <path d="M12.696 16.279a.75.75 0 1 0-1.392-.558l-2 5a.75.75 0 1 0 1.392.558l2-5ZM8.67 16.335a.75.75 0 0 0-1.34-.67l-1 2a.75.75 0 0 0 1.34.67l1-2ZM16.67 16.335a.75.75 0 0 0-1.34-.67l-1 2a.75.75 0 0 0 1.34.67l1-2Z" fill="#868686"/>
</svg>
