<svg width="24" height="24" fill="none" xmlns="http://www.w3.org/2000/svg">
    <path fill-rule="evenodd" clip-rule="evenodd" d="M1.25 6A4.75 4.75 0 0 1 6 1.25h2A4.75 4.75 0 0 1 12.75 6v16.75H6A4.75 4.75 0 0 1 1.25 18V6ZM6 2.75A3.25 3.25 0 0 0 2.75 6v12A3.25 3.25 0 0 0 6 21.25h5.25V6A3.25 3.25 0 0 0 8 2.75H6Z" fill="#868686"/>
    <path fill-rule="evenodd" clip-rule="evenodd" d="M11.25 7.25H18A4.75 4.75 0 0 1 22.75 12v6A4.75 4.75 0 0 1 18 22.75h-6.75V7.25Zm1.5 1.5v12.5H18A3.25 3.25 0 0 0 21.25 18v-6A3.25 3.25 0 0 0 18 8.75h-5.25Z" fill="#868686"/>
    <path fill-rule="evenodd" clip-rule="evenodd" d="M15.25 12a.75.75 0 0 1 .75-.75h2a.75.75 0 0 1 0 1.5h-2a.75.75 0 0 1-.75-.75ZM15.25 15a.75.75 0 0 1 .75-.75h2a.75.75 0 0 1 0 1.5h-2a.75.75 0 0 1-.75-.75ZM5.25 6A.75.75 0 0 1 6 5.25h2a.75.75 0 0 1 0 1.5H6A.75.75 0 0 1 5.25 6ZM5.25 9A.75.75 0 0 1 6 8.25h2a.75.75 0 0 1 0 1.5H6A.75.75 0 0 1 5.25 9Z" fill="#868686"/>
</svg>
