<svg width="24" height="24" fill="none" xmlns="http://www.w3.org/2000/svg">
    <path fill-rule="evenodd" clip-rule="evenodd" d="M4 6.75a1.25 1.25 0 1 0 0 2.5 1.25 1.25 0 0 0 0-2.5ZM1.25 8a2.75 2.75 0 1 1 5.5 0 2.75 2.75 0 0 1-5.5 0Zm8-2a.75.75 0 0 1 .75-.75h6a.75.75 0 0 1 0 1.5h-6A.75.75 0 0 1 9.25 6Zm0 4a.75.75 0 0 1 .75-.75h12a.75.75 0 0 1 0 1.5H10a.75.75 0 0 1-.75-.75ZM4 14.75a1.25 1.25 0 1 0 0 2.5 1.25 1.25 0 0 0 0-2.5ZM1.25 16a2.75 2.75 0 1 1 5.5 0 2.75 2.75 0 0 1-5.5 0Zm8-2a.75.75 0 0 1 .75-.75h6a.75.75 0 0 1 0 1.5h-6a.75.75 0 0 1-.75-.75Zm0 4a.75.75 0 0 1 .75-.75h12a.75.75 0 0 1 0 1.5H10a.75.75 0 0 1-.75-.75Z" fill="#868686"/>
</svg>
