<svg width="24" height="24" fill="none" xmlns="http://www.w3.org/2000/svg">
    <path fill-rule="evenodd" clip-rule="evenodd" d="M7.884 1.7a.75.75 0 0 1-.387.987c-1.99.87-3.681 2.301-4.872 4.093a.75.75 0 0 1-1.25-.83 12.797 12.797 0 0 1 5.521-4.637.75.75 0 0 1 .988.387Zm8.232 0a.75.75 0 0 1 .988-.387 12.797 12.797 0 0 1 5.52 4.636.75.75 0 1 1-1.248.83 11.296 11.296 0 0 0-4.873-4.092.75.75 0 0 1-.387-.987ZM12 4.75a8.25 8.25 0 1 0 0 16.5 8.25 8.25 0 0 0 0-16.5ZM2.25 13c0-5.385 4.365-9.75 9.75-9.75s9.75 4.365 9.75 9.75c0 2.26-.77 4.341-2.06 5.995l1.91 2.556a.75.75 0 0 1-1.2.898l-1.74-2.327A9.716 9.716 0 0 1 12 22.75a9.716 9.716 0 0 1-6.66-2.628L3.6 22.449a.75.75 0 0 1-1.2-.898l1.91-2.556A9.708 9.708 0 0 1 2.25 13ZM12 7.25a.75.75 0 0 1 .75.75V12.6l2.666 1.777a.75.75 0 1 1-.832 1.248l-3-2A.75.75 0 0 1 11.25 13V8a.75.75 0 0 1 .75-.75Z" fill="#868686"/>
</svg>
