<svg width="24" height="24" fill="none" xmlns="http://www.w3.org/2000/svg">
    <path fill-rule="evenodd" clip-rule="evenodd" d="M22 8.466v9.597a4 4 0 0 1-4 4H6a4 4 0 0 1-4-4V8.466a4 4 0 0 1 .054-.653h19.892c.036.214.054.433.054.653Zm-7 6.347a.75.75 0 0 0 0-1.5h-2.25v-2.25a.75.75 0 0 0-1.5 0v2.25H9a.75.75 0 0 0 0 1.5h2.25v2.25a.75.75 0 0 0 1.5 0v-2.25H15Z" fill="#868686"/>
    <path d="M21.371 6.313a4.02 4.02 0 0 0-.247-.346L19.2 3.564a4 4 0 0 0-3.123-1.502H7.923a4 4 0 0 0-3.124 1.502L2.877 5.967a4.003 4.003 0 0 0-.248.346H21.37Z" fill="#868686"/>
</svg>
