<svg width="24" height="24" fill="none" xmlns="http://www.w3.org/2000/svg">
    <path fill-rule="evenodd" clip-rule="evenodd" d="M14.053 3.488a3.225 3.225 0 0 0-4.106 0l-5 4.117A3.296 3.296 0 0 0 3.75 10.15v7.817c0 1.819 1.46 3.283 3.25 3.283h10c1.79 0 3.25-1.464 3.25-3.283V10.15c0-.988-.44-1.922-1.197-2.545l-5-4.117ZM8.993 2.33a4.725 4.725 0 0 1 6.014 0l5 4.118a4.796 4.796 0 0 1 1.743 3.702v7.817c0 2.636-2.12 4.783-4.75 4.783H7c-2.63 0-4.75-2.147-4.75-4.783V10.15c0-1.433.639-2.793 1.743-3.702l5-4.118Zm3.016 9.42c-1.25 0-2.259 1.01-2.259 2.25s1.01 2.25 2.26 2.25c.574 0 1.096-.212 1.495-.563a.75.75 0 1 1 .99 1.126 3.753 3.753 0 0 1-2.486.937A3.755 3.755 0 0 1 8.25 14a3.755 3.755 0 0 1 3.76-3.75c.952 0 1.823.354 2.485.937a.75.75 0 1 1-.99 1.126 2.253 2.253 0 0 0-1.496-.563Z" fill="#868686"/>
    <path d="M16.5 9.5a1 1 0 1 1-2 0 1 1 0 0 1 2 0Z" fill="#868686"/>
</svg>
