<svg width="24" height="24" fill="none" xmlns="http://www.w3.org/2000/svg">
    <g clip-path="url(#a)" fill="#868686">
        <path d="M12.281 8.75a1.75 1.75 0 1 0 0 3.5 1.75 1.75 0 0 0 0-3.5Z"/>
        <path fill-rule="evenodd" clip-rule="evenodd" d="M8.281.75a.75.75 0 0 1 .75.75V3h6.5V1.5a.75.75 0 0 1 1.5 0V3h.25a4 4 0 0 1 4 4v1.086a1 1 0 0 1-.293.707L8.574 21.207a1 1 0 0 1-.707.293h-.586a4 4 0 0 1-4-4V7a4 4 0 0 1 4-4h.25V1.5a.75.75 0 0 1 .75-.75Zm.75 9.75a3.25 3.25 0 1 1 1.544 2.767l-.763.763a.75.75 0 0 1-1.061-1.06l.764-.764A3.235 3.235 0 0 1 9.03 10.5Z"/>
        <path d="M20.791 12.99a1.674 1.674 0 0 0-2.367 0l-5.015 5.015c-.12.12-.208.27-.255.434l-.626 2.197a.5.5 0 0 0 .618.618l2.196-.627c.164-.046.314-.134.434-.255l5.015-5.015a1.674 1.674 0 0 0 0-2.367Z"/>
    </g>
    <defs>
        <clipPath id="a">
            <path fill="#fff" d="M0 0h24v24H0z"/>
        </clipPath>
    </defs>
</svg>
