<svg width="24" height="24" fill="none" xmlns="http://www.w3.org/2000/svg">
    <path d="M12.616 9.75a2.135 2.135 0 0 0-2.135 2.135v.57c0 .44-.053.874-.157 1.295H9a.75.75 0 0 0 0 1.5h.703c-.154.255-.33.499-.526.727-1.103 1.286-.19 3.273 1.504 3.273h3.32a.75.75 0 0 0 0-1.5h-3.32a.482.482 0 0 1-.366-.796 6.908 6.908 0 0 0 1.076-1.704H13a.75.75 0 0 0 0-1.5h-1.141c.08-.424.122-.858.122-1.295v-.57a.635.635 0 1 1 1.27 0v.497a.75.75 0 0 0 1.5 0v-.497a2.135 2.135 0 0 0-2.135-2.135Z" fill="#868686"/>
</svg>
