<svg width="24" height="24" fill="none" xmlns="http://www.w3.org/2000/svg">
    <path fill-rule="evenodd" clip-rule="evenodd" d="M4.171 18.421c-.37.292-.421.493-.421.579 0 .086.052.287.421.579.362.285.932.574 1.702.83 1.534.512 3.7.841 6.127.841 2.427 0 4.593-.329 6.127-.84.77-.257 1.34-.546 1.701-.831.37-.292.422-.493.422-.579 0-.086-.052-.287-.422-.579-.361-.285-.93-.574-1.701-.83-1.534-.512-3.7-.841-6.127-.841-2.427 0-4.593.329-6.127.84-.77.257-1.34.546-1.702.831ZM5.4 16.167c1.724-.575 4.058-.917 6.601-.917s4.877.342 6.601.917c.858.286 1.607.643 2.156 1.076.54.427.993 1.015.993 1.757s-.452 1.33-.993 1.757c-.55.433-1.298.79-2.156 1.076-1.724.575-4.057.917-6.601.917-2.543 0-4.877-.343-6.601-.917-.858-.286-1.607-.643-2.156-1.076-.54-.427-.993-1.015-.993-1.757s.452-1.33.993-1.757c.55-.433 1.298-.79 2.156-1.076Z" fill="#868686"/>
    <path fill-rule="evenodd" clip-rule="evenodd" d="M11.25 4A2.75 2.75 0 0 1 14 1.25h5.382a1.75 1.75 0 0 1 1.565 2.533l-1.053 2.105a.25.25 0 0 0 0 .224l1.053 2.105a1.75 1.75 0 0 1-1.565 2.533H12.75V19a.75.75 0 0 1-1.5 0V4Zm1.5 5.25h6.632a.25.25 0 0 0 .224-.362l-1.053-2.105a1.75 1.75 0 0 1 0-1.566l1.053-2.105a.25.25 0 0 0-.224-.362H14c-.69 0-1.25.56-1.25 1.25v5.25Z" fill="#868686"/>
</svg>
