<svg width="24" height="24" fill="none" xmlns="http://www.w3.org/2000/svg">
    <path fill-rule="evenodd" clip-rule="evenodd" d="M10.672 3.75c-1.398 0-2.232 1.558-1.456 2.72l1.408 2.114A.75.75 0 0 1 10 9.75H4.562a1.25 1.25 0 0 0-1.213 1.553l1.621 6.485a3.25 3.25 0 0 0 3.153 2.462h3.666a3.25 3.25 0 0 0 1.803-.546l1.547-1.031a.25.25 0 0 0 .111-.208v-8.2a.25.25 0 0 0-.033-.123L11.565 3.75h-.893Zm5.198 4.51-3.218-5.632A.75.75 0 0 0 12 2.25h-1.328c-2.596 0-4.144 2.893-2.705 5.053l.632.947H4.562a2.75 2.75 0 0 0-2.668 3.417l1.621 6.485a4.75 4.75 0 0 0 4.608 3.598h3.666a4.75 4.75 0 0 0 2.635-.798l1.108-.738A2.75 2.75 0 0 0 18 21.75h2A2.75 2.75 0 0 0 22.75 19v-9A2.75 2.75 0 0 0 20 7.25h-2c-.859 0-1.625.394-2.13 1.01ZM16.75 19c0 .69.56 1.25 1.25 1.25h2c.69 0 1.25-.56 1.25-1.25v-9c0-.69-.56-1.25-1.25-1.25h-2c-.69 0-1.25.56-1.25 1.25v9Z" fill="#868686"/>
</svg>
