<svg width="24" height="24" fill="none" xmlns="http://www.w3.org/2000/svg">
    <path d="M9.945 8.056a.75.75 0 0 1 0 1.06L9.06 10l.884.884a.75.75 0 0 1-1.061 1.06L8 11.062l-.884.884a.75.75 0 1 1-1.06-1.061L6.939 10l-.883-.884a.75.75 0 1 1 1.06-1.06L8 8.939l.884-.883a.75.75 0 0 1 1.06 0Z" fill="#868686"/>
    <path fill-rule="evenodd" clip-rule="evenodd" d="M6 2.25A4.75 4.75 0 0 0 1.25 7v8a4.751 4.751 0 0 0 3.033 4.43 2.75 2.75 0 0 0 5.363.32h5.707a2.751 2.751 0 0 0 5.315-.082A2.751 2.751 0 0 0 22.75 17v-5.383a2.75 2.75 0 0 0-.87-2.007l-2.79-2.616a2.75 2.75 0 0 0-1.88-.744H14.69a4.751 4.751 0 0 0-4.691-4H6Zm1 14a2.75 2.75 0 0 0-2.511 1.628A3.25 3.25 0 0 1 2.75 15V7A3.25 3.25 0 0 1 6 3.75h4A3.25 3.25 0 0 1 13.25 7v11.25H9.646a2.751 2.751 0 0 0-2.646-2Zm11 0c-1.259 0-2.32.846-2.646 2h-.604V7.75h2.46c.317 0 .622.12.854.338l2.79 2.617c.253.236.396.566.396.912V17c0 .474-.263.886-.651 1.098A2.751 2.751 0 0 0 18 16.25ZM5.752 18.921a1.25 1.25 0 1 1 2.496.158 1.25 1.25 0 0 1-2.496-.158ZM16.75 19a1.25 1.25 0 1 1 2.5 0 1.25 1.25 0 0 1-2.5 0Z" fill="#868686"/>
</svg>
