<svg width="24" height="24" fill="none" xmlns="http://www.w3.org/2000/svg">
    <path fill-rule="evenodd" clip-rule="evenodd" d="M18 2.25A4.75 4.75 0 0 1 22.75 7v6.5a.75.75 0 0 1-1.5 0V7A3.25 3.25 0 0 0 18 3.75H6A3.25 3.25 0 0 0 2.75 7v1.25H5a3.75 3.75 0 1 1 0 7.5H2.75V17A3.25 3.25 0 0 0 6 20.25h7a.75.75 0 0 1 0 1.5H6A4.75 4.75 0 0 1 1.25 17V7A4.75 4.75 0 0 1 6 2.25h12Zm-15.25 12H5a2.25 2.25 0 0 0 0-4.5H2.75v4.5Z" fill="#868686"/>
    <path d="M22.03 16.227a.75.75 0 0 1 0 1.061l-1.59 1.591 1.59 1.591a.75.75 0 1 1-1.06 1.06l-1.59-1.59-1.592 1.59a.75.75 0 1 1-1.06-1.06l1.59-1.59-1.59-1.592a.75.75 0 0 1 1.06-1.06l1.591 1.59 1.591-1.59a.75.75 0 0 1 1.06 0Z" fill="#868686"/>
</svg>
