<svg width="24" height="24" fill="none" xmlns="http://www.w3.org/2000/svg">
    <path fill-rule="evenodd" clip-rule="evenodd" d="M5.965 6.75c-2.028 0-3.56 1.883-3.147 3.908l1.635 8A3.222 3.222 0 0 0 7.6 21.25h8.8a3.222 3.222 0 0 0 3.147-2.592l1.635-8c.414-2.025-1.119-3.908-3.147-3.908H5.965Zm-4.617 4.208C.748 8.02 2.971 5.25 5.965 5.25h12.07c2.994 0 5.217 2.77 4.617 5.708l-1.635 8c-.45 2.203-2.375 3.792-4.617 3.792H7.6c-2.241 0-4.166-1.589-4.617-3.792l-1.635-8Z" fill="#868686"/>
    <path fill-rule="evenodd" clip-rule="evenodd" d="M15.494 13.436a.75.75 0 0 1 .07 1.058l-2.87 3.28a1.75 1.75 0 0 1-2.41.214l-1.752-1.402a.75.75 0 0 1 .937-1.172l1.752 1.403a.25.25 0 0 0 .345-.031l2.87-3.28a.75.75 0 0 1 1.058-.07ZM9.45 1.4a.75.75 0 0 1 .15 1.05l-3 4a.75.75 0 1 1-1.2-.9l3-4a.75.75 0 0 1 1.05-.15ZM14.55 1.4a.75.75 0 0 1 1.05.15l3 4a.75.75 0 1 1-1.2.9l-3-4a.75.75 0 0 1 .15-1.05Z" fill="#868686"/>
</svg>
