<svg width="24" height="24" fill="none" xmlns="http://www.w3.org/2000/svg">
    <path fill-rule="evenodd" clip-rule="evenodd" d="M12 3.75a1.25 1.25 0 1 0 0 2.5 1.25 1.25 0 0 0 0-2.5ZM9.25 5a2.75 2.75 0 1 1 5.5 0 2.75 2.75 0 0 1-5.5 0ZM8.712 9.75c-1.643 0-2.962 1.316-2.962 2.922v.173c0 .7.241 1.381.685 1.93l3.719 4.598a2.382 2.382 0 0 0 3.692 0l3.72-4.598c.443-.549.684-1.23.684-1.93v-.173c0-1.606-1.319-2.922-2.962-2.922-.789 0-1.543.31-2.098.859l-.663.655a.75.75 0 0 1-1.054 0l-.663-.655a2.983 2.983 0 0 0-2.098-.859ZM4.25 12.672c0-2.45 2.006-4.422 4.462-4.422 1.181 0 2.315.464 3.153 1.292l.135.134.135-.134a4.483 4.483 0 0 1 3.153-1.292c2.456 0 4.462 1.972 4.462 4.422v.173a4.57 4.57 0 0 1-1.018 2.873l-3.72 4.599c-1.545 1.91-4.479 1.91-6.025 0L5.27 15.718a4.569 4.569 0 0 1-1.019-2.873v-.173Z" fill="#868686"/>
</svg>
