<svg width="24" height="24" fill="none" xmlns="http://www.w3.org/2000/svg">
    <path fill-rule="evenodd" clip-rule="evenodd" d="M11.25 3.997c0-1.467 1.235-2.87 2.886-2.537a10.762 10.762 0 0 1 8.402 8.402c.332 1.65-1.071 2.885-2.538 2.885h-6a2.75 2.75 0 0 1-2.75-2.75v-6Zm2.589-1.067c-.515-.104-1.089.325-1.089 1.067v6c0 .69.56 1.25 1.25 1.25h6c.742 0 1.171-.573 1.067-1.089A9.262 9.262 0 0 0 13.84 2.93ZM9.731 4.054a.75.75 0 0 1-.565.898 8.25 8.25 0 1 0 9.88 9.88.75.75 0 1 1 1.462.331c-.985 4.342-4.867 7.584-9.508 7.584-5.385 0-9.75-4.365-9.75-9.75 0-4.64 3.242-8.523 7.584-9.508a.75.75 0 0 1 .897.565Z" fill="#868686"/>
</svg>
