<svg width="24" height="24" fill="none" xmlns="http://www.w3.org/2000/svg">
    <path fill-rule="evenodd" clip-rule="evenodd" d="M6 1.25A4.75 4.75 0 0 0 1.25 6v12A4.75 4.75 0 0 0 6 22.75h8a.75.75 0 0 0 0-1.5H6A3.25 3.25 0 0 1 2.75 18V6A3.25 3.25 0 0 1 6 2.75h1.25v6.836c0 1.559 1.885 2.34 2.987 1.237l1.586-1.586a.25.25 0 0 1 .354 0l1.586 1.586c1.102 1.103 2.987.322 2.987-1.237V2.75H18A3.25 3.25 0 0 1 21.25 6v5a.75.75 0 0 0 1.5 0V6A4.75 4.75 0 0 0 18 1.25H6Zm8.823 8.513a.25.25 0 0 0 .427-.177V2.75h-6.5v6.836c0 .223.27.334.427.177l1.586-1.586a1.75 1.75 0 0 1 2.474 0l1.586 1.586Z" fill="#868686"/>
    <path d="M20 17a1 1 0 1 1-2 0 1 1 0 0 1 2 0Z" fill="#868686"/>
    <path fill-rule="evenodd" clip-rule="evenodd" d="M19 13.25c-.935 0-1.887.222-2.614.857-.746.65-1.136 1.63-1.136 2.893 0 .985.457 1.975.957 2.782.512.827 1.134 1.564 1.591 2.062.652.709 1.752.709 2.404 0 .457-.498 1.08-1.235 1.591-2.062.5-.807.957-1.797.957-2.782 0-1.262-.39-2.242-1.136-2.893-.727-.635-1.68-.857-2.614-.857ZM16.75 17c0-.947.282-1.467.622-1.763.358-.313.906-.487 1.628-.487.722 0 1.27.174 1.628.487.34.296.622.816.622 1.763 0 .56-.277 1.258-.732 1.993-.443.715-.996 1.373-1.421 1.836a.13.13 0 0 1-.097.047.13.13 0 0 1-.097-.047c-.425-.463-.978-1.121-1.42-1.836-.456-.735-.733-1.432-.733-1.993Z" fill="#868686"/>
</svg>
