<svg width="24" height="24" fill="none" xmlns="http://www.w3.org/2000/svg">
    <path fill-rule="evenodd" clip-rule="evenodd" d="M6.25 14A2.75 2.75 0 0 1 9 11.25h6A2.75 2.75 0 0 1 17.75 14v6A2.75 2.75 0 0 1 15 22.75H9A2.75 2.75 0 0 1 6.25 20v-6ZM9 12.75c-.69 0-1.25.56-1.25 1.25v6c0 .69.56 1.25 1.25 1.25h6c.69 0 1.25-.56 1.25-1.25v-6c0-.69-.56-1.25-1.25-1.25H9ZM3.25 8c0-1.946 1.053-3.65 2.643-4.843C7.483 1.965 9.644 1.25 12 1.25c2.356 0 4.517.715 6.107 1.907C19.697 4.35 20.75 6.054 20.75 8a.75.75 0 0 1-1.5 0c0-.115-.113-.421-.757-.743-.6-.3-1.48-.507-2.493-.507s-1.894.207-2.493.507c-.644.322-.757.628-.757.743a.75.75 0 0 1-1.5 0c0-.115-.113-.421-.757-.743-.6-.3-1.48-.507-2.493-.507s-1.894.207-2.493.507c-.644.322-.757.628-.757.743a.75.75 0 0 1-1.5 0ZM12 6.473c.251-.225.542-.411.836-.558.849-.424 1.968-.665 3.164-.665.889 0 1.735.133 2.46.375a5.74 5.74 0 0 0-1.253-1.268C15.9 3.377 14.063 2.75 12 2.75c-2.063 0-3.901.628-5.207 1.607A5.74 5.74 0 0 0 5.54 5.625 7.844 7.844 0 0 1 8 5.25c1.196 0 2.315.24 3.164.665.294.147.585.333.836.558Z" fill="#868686"/>
    <path fill-rule="evenodd" clip-rule="evenodd" d="M13.75 14a.75.75 0 0 1-.75.75h-2a.75.75 0 0 1 0-1.5h2a.75.75 0 0 1 .75.75ZM3.414 7.532a.75.75 0 0 1 1.055-.118l5 4a.75.75 0 1 1-.937 1.172l-5-4a.75.75 0 0 1-.118-1.054Zm17.172 0a.75.75 0 0 1-.117 1.054l-5 4a.75.75 0 0 1-.938-1.172l5-4a.75.75 0 0 1 1.055.118ZM12 7.25a.75.75 0 0 1 .75.75v4a.75.75 0 0 1-1.5 0V8a.75.75 0 0 1 .75-.75Z" fill="#868686"/>
</svg>
