<svg width="24" height="24" fill="none" xmlns="http://www.w3.org/2000/svg">
    <path fill-rule="evenodd" clip-rule="evenodd" d="M15.44 2.744c-2.075 0-3.705 1.607-3.705 3.526 0 .994.489 2.458 1.274 3.689.387.606.823 1.117 1.263 1.469.444.355.84.506 1.167.506.328 0 .723-.151 1.168-.506.44-.352.875-.863 1.262-1.47.786-1.23 1.274-2.694 1.274-3.688 0-1.919-1.629-3.526-3.704-3.526ZM10.234 6.27c0-2.804 2.36-5.026 5.204-5.026 2.845 0 5.204 2.222 5.204 5.026 0 1.367-.625 3.11-1.51 4.496-.447.702-.986 1.352-1.59 1.834-.6.478-1.317.834-2.104.834-.786 0-1.504-.356-2.103-.834-.604-.482-1.143-1.132-1.59-1.834-.886-1.386-1.51-3.129-1.51-4.496Zm5.204-.853a.586.586 0 1 0 0 1.172.586.586 0 0 0 0-1.172Zm-2.086.586a2.086 2.086 0 1 1 4.173 0 2.086 2.086 0 0 1-4.173 0Z" fill="#868686"/>
    <path fill-rule="evenodd" clip-rule="evenodd" d="M8.75 6.777c.672.07 1.268.366 1.89.787l.84-1.243c-.952-.643-2.089-1.196-3.563-1.03-1.08.12-2.219.616-3.192 1.152-.986.545-1.87 1.17-2.455 1.612a2.61 2.61 0 0 0-1.02 2.093v9.67c0 1.517 1.752 2.269 2.905 1.494 1.204-.81 2.714-1.635 3.928-1.77 1.32-.148 2.26.53 3.463 1.446l.067.05c1.125.858 2.511 1.913 4.47 1.693 1.08-.12 2.219-.616 3.192-1.153a21.1 21.1 0 0 0 2.455-1.611 2.61 2.61 0 0 0 1.02-2.093H22h.75v-9.67c0-1.517-1.752-2.27-2.905-1.494a18.97 18.97 0 0 1-.693.444l.782 1.28c.263-.16.514-.322.748-.48a.38.38 0 0 1 .383-.012c.132.065.185.165.185.262v9.669H22h-.75c0 .37-.16.697-.424.897-.553.419-1.375.998-2.276 1.495-.608.336-1.224.617-1.8.794v-8.498h-1.5v8.684c-.993-.103-1.805-.697-2.796-1.45l-.067-.052c-.959-.73-2.107-1.604-3.637-1.71V6.776ZM7.25 18.17V6.962c-.576.177-1.192.46-1.8.795A19.604 19.604 0 0 0 3.174 9.25a1.11 1.11 0 0 0-.424.897v9.67c0 .097.053.197.185.262a.38.38 0 0 0 .383-.013c1.049-.705 2.516-1.561 3.932-1.898Z" fill="#868686"/>
</svg>
