<svg width="24" height="24" fill="none" xmlns="http://www.w3.org/2000/svg">
    <path fill-rule="evenodd" clip-rule="evenodd" d="M8 2.75A3.25 3.25 0 0 0 4.75 6v8c0 1.202.652 2.253 1.626 2.816a.75.75 0 1 1-.752 1.298A4.749 4.749 0 0 1 3.25 14V6A4.75 4.75 0 0 1 8 1.25h8A4.75 4.75 0 0 1 20.75 6v8c0 1.76-.957 3.294-2.375 4.114a.75.75 0 1 1-.75-1.298A3.249 3.249 0 0 0 19.25 14V6A3.25 3.25 0 0 0 16 2.75H8ZM7.25 6A.75.75 0 0 1 8 5.25h8a.75.75 0 0 1 0 1.5H8A.75.75 0 0 1 7.25 6Zm0 4A.75.75 0 0 1 8 9.25h4a.75.75 0 0 1 0 1.5H8a.75.75 0 0 1-.75-.75ZM12 13.75a2.25 2.25 0 1 0 0 4.5 2.25 2.25 0 0 0 0-4.5ZM8.25 16a3.75 3.75 0 1 1 7 1.872V22a.75.75 0 0 1-1.028.696L12 21.808l-2.221.888A.75.75 0 0 1 8.75 22v-4.128c-.318-.55-.5-1.19-.5-1.872Zm2 3.317v1.575l1.472-.588a.75.75 0 0 1 .556 0l1.472.588v-1.575a3.734 3.734 0 0 1-1.75.433 3.734 3.734 0 0 1-1.75-.433Z" fill="#868686"/>
</svg>
