<svg width="24" height="24" fill="none" xmlns="http://www.w3.org/2000/svg">
    <path fill-rule="evenodd" clip-rule="evenodd" d="M8.41 6.75a.75.75 0 0 0-.75.75V10a.75.75 0 0 0 .565.727l1.965.5a.75.75 0 1 0 .37-1.454l-.833-.212a3.25 3.25 0 1 1-1 3.252.75.75 0 1 0-1.452.374A4.752 4.752 0 0 0 16.625 12 4.75 4.75 0 0 0 9.16 8.102V7.5a.75.75 0 0 0-.75-.75Z" fill="#868686"/>
    <path fill-rule="evenodd" clip-rule="evenodd" d="M2.25 7A4.75 4.75 0 0 1 7 2.25h10A4.75 4.75 0 0 1 21.75 7v10A4.75 4.75 0 0 1 17 21.75H7A4.75 4.75 0 0 1 2.25 17V7ZM7 3.75A3.25 3.25 0 0 0 3.75 7v10A3.25 3.25 0 0 0 7 20.25h10A3.25 3.25 0 0 0 20.25 17V7A3.25 3.25 0 0 0 17 3.75H7Z" fill="#868686"/>
</svg>
