<svg width="24" height="24" fill="none" xmlns="http://www.w3.org/2000/svg">
    <path fill-rule="evenodd" clip-rule="evenodd" d="M9.99 1.25H6A4.75 4.75 0 0 0 1.25 6v12A4.75 4.75 0 0 0 6 22.75h12A4.75 4.75 0 0 0 22.75 18V6A4.75 4.75 0 0 0 18 1.25H9.99Zm-1.391 1.5H6A3.25 3.25 0 0 0 2.75 6v1.25h2.849l3-4.5ZM7.4 7.25l3-4.5H16.6l-3 4.5H7.4Zm-1.413 1.5H21.25V18A3.25 3.25 0 0 1 18 21.25H6A3.25 3.25 0 0 1 2.75 18V8.75h3.238Zm15.262-1.5V6a3.25 3.25 0 0 0-2.864-3.227L15.401 7.25h5.849ZM9.47 12.47a.75.75 0 0 1 1.06 0L12 13.94l1.47-1.47a.75.75 0 1 1 1.06 1.06L13.06 15l1.47 1.47a.75.75 0 1 1-1.06 1.06L12 16.06l-1.47 1.47a.75.75 0 1 1-1.06-1.06L10.94 15l-1.47-1.47a.75.75 0 0 1 0-1.06Z" fill="#868686"/>
</svg>
