<svg width="24" height="24" fill="none" xmlns="http://www.w3.org/2000/svg">
    <path d="M13 17a1 1 0 1 1-2 0 1 1 0 0 1 2 0Z" fill="#868686"/>
    <path fill-rule="evenodd" clip-rule="evenodd" d="M9.316 3.795c1.173-2.06 4.194-2.06 5.367 0l7.672 13.466c1.162 2.04-.368 4.489-2.683 4.489H4.328c-2.315 0-3.846-2.45-2.684-4.489L9.316 3.795Zm4.064.742c-.598-1.05-2.163-1.05-2.76 0L2.946 18.004c-.56.982.15 2.246 1.38 2.246h15.345c1.23 0 1.94-1.264 1.38-2.246L13.38 4.537ZM12 8.25a.75.75 0 0 1 .75.75v5a.75.75 0 0 1-1.5 0V9a.75.75 0 0 1 .75-.75Z" fill="#868686"/>
</svg>
