<svg width="24" height="24" fill="none" xmlns="http://www.w3.org/2000/svg">
    <path d="M12 2a2 2 0 0 0-2 2v2a2 2 0 1 0 4 0V4a2 2 0 0 0-2-2Z" fill="#868686"/>
    <path fill-rule="evenodd" clip-rule="evenodd" d="M8.5 6H6a4 4 0 0 0-4 4v8a4 4 0 0 0 4 4h12a4 4 0 0 0 4-4v-8a4 4 0 0 0-4-4h-2.5a3.5 3.5 0 1 1-7 0ZM8 10.25a.75.75 0 0 1 .75.75v2.25H11a.75.75 0 0 1 0 1.5H8.75V17a.75.75 0 0 1-1.5 0v-2.25H5a.75.75 0 0 1 0-1.5h2.25V11a.75.75 0 0 1 .75-.75Zm11 2.5a.75.75 0 0 0 0-1.5h-5a.75.75 0 0 0 0 1.5h5ZM17.75 16a.75.75 0 0 1-.75.75h-3a.75.75 0 0 1 0-1.5h3a.75.75 0 0 1 .75.75Z" fill="#868686"/>
</svg>
