<svg width="24" height="24" fill="none" xmlns="http://www.w3.org/2000/svg">
    <path fill-rule="evenodd" clip-rule="evenodd" d="M5.25 5A2.75 2.75 0 0 1 8 2.25h12A2.75 2.75 0 0 1 22.75 5v3A1.75 1.75 0 0 1 21 9.75a2.25 2.25 0 0 0 0 4.5c.966 0 1.75.784 1.75 1.75v3A2.75 2.75 0 0 1 20 21.75h-2A1.75 1.75 0 0 1 16.25 20a2.25 2.25 0 0 0-4.5 0A1.75 1.75 0 0 1 10 21.75H8A2.75 2.75 0 0 1 5.25 19v-3a.25.25 0 0 0-.25-.25 3.75 3.75 0 1 1 0-7.5.25.25 0 0 0 .25-.25V5ZM8 3.75c-.69 0-1.25.56-1.25 1.25v3A1.75 1.75 0 0 1 5 9.75a2.25 2.25 0 0 0 0 4.5c.966 0 1.75.784 1.75 1.75v3c0 .69.56 1.25 1.25 1.25h2a.25.25 0 0 0 .25-.25 3.75 3.75 0 1 1 7.5 0c0 .138.112.25.25.25h2c.69 0 1.25-.56 1.25-1.25v-3a.25.25 0 0 0-.25-.25 3.75 3.75 0 1 1 0-7.5.25.25 0 0 0 .25-.25V5c0-.69-.56-1.25-1.25-1.25H8Z" fill="#868686"/>
</svg>
