<svg width="24" height="24" fill="none" xmlns="http://www.w3.org/2000/svg">
    <path fill-rule="evenodd" clip-rule="evenodd" d="M1.25 4.5a2.25 2.25 0 0 1 4.5 0v13.167a4.75 4.75 0 0 1-.95 2.85l-.7.933a.75.75 0 0 1-1.2 0l-.7-.933a4.75 4.75 0 0 1-.95-2.85V4.5Zm1.5 3.25v9.917c0 .703.228 1.387.65 1.95l.1.133.1-.133a3.25 3.25 0 0 0 .65-1.95V7.75h-1.5Zm1.5-1.5h-1.5V4.5a.75.75 0 0 1 1.5 0v1.75Zm3 .75A4.75 4.75 0 0 1 12 2.25h6A4.75 4.75 0 0 1 22.75 7v7a.75.75 0 0 1-1.5 0V7A3.25 3.25 0 0 0 18 3.75h-6A3.25 3.25 0 0 0 8.75 7v10A3.25 3.25 0 0 0 12 20.25h2a.75.75 0 0 1 0 1.5h-2A4.75 4.75 0 0 1 7.25 17V7Zm4 0a.75.75 0 0 1 .75-.75h6a.75.75 0 0 1 0 1.5h-6a.75.75 0 0 1-.75-.75Zm0 4a.75.75 0 0 1 .75-.75h6a.75.75 0 0 1 0 1.5h-6a.75.75 0 0 1-.75-.75Zm0 4a.75.75 0 0 1 .75-.75h3a.75.75 0 0 1 0 1.5h-3a.75.75 0 0 1-.75-.75Zm11.244 1.436a.75.75 0 0 1 .07 1.058l-2.87 3.28a1.75 1.75 0 0 1-2.41.214l-1.752-1.402a.75.75 0 0 1 .936-1.172l1.753 1.403a.25.25 0 0 0 .345-.031l2.87-3.28a.75.75 0 0 1 1.058-.07Z" fill="#868686"/>
</svg>
