<svg width="24" height="24" fill="none" xmlns="http://www.w3.org/2000/svg">
    <path fill-rule="evenodd" clip-rule="evenodd" d="M8.25 5a3.75 3.75 0 1 1 7.5 0v1.01a4 4 0 0 1 3.689 3.494l1 8A4 4 0 0 1 16.469 22H7.533a4 4 0 0 1-3.97-4.496l1-8A4 4 0 0 1 8.252 6.01V5Zm6 0v1h-4.5V5a2.25 2.25 0 0 1 4.5 0Zm-3.84 6.348a.75.75 0 1 0-1.06 1.061L10.94 14l-1.59 1.591a.75.75 0 1 0 1.06 1.06l1.59-1.59 1.592 1.59a.75.75 0 0 0 1.06-1.06L13.062 14l1.59-1.591a.75.75 0 0 0-1.06-1.06L12 12.938l-1.591-1.59Z" fill="#868686"/>
</svg>
