<svg width="24" height="24" fill="none" xmlns="http://www.w3.org/2000/svg">
    <path fill-rule="evenodd" clip-rule="evenodd" d="M1.25 9A4.75 4.75 0 0 1 6 4.25h12A4.75 4.75 0 0 1 22.75 9v6A4.75 4.75 0 0 1 18 19.75H6A4.75 4.75 0 0 1 1.25 15V9ZM6 5.75A3.25 3.25 0 0 0 2.75 9v6A3.25 3.25 0 0 0 6 18.25h12A3.25 3.25 0 0 0 21.25 15V9A3.25 3.25 0 0 0 18 5.75H6Z" fill="#868686"/>
    <path fill-rule="evenodd" clip-rule="evenodd" d="M13.25 12a.75.75 0 0 0-.75-.75h-1a.75.75 0 0 0 0 1.5h1a.75.75 0 0 0 .75-.75ZM18.75 12a.75.75 0 0 0-.75-.75h-1a.75.75 0 0 0 0 1.5h1a.75.75 0 0 0 .75-.75ZM7.75 12a.75.75 0 0 0-.75-.75H6a.75.75 0 0 0 0 1.5h1a.75.75 0 0 0 .75-.75Z" fill="#868686"/>
</svg>
