<svg width="24" height="24" fill="none" xmlns="http://www.w3.org/2000/svg">
    <path fill-rule="evenodd" clip-rule="evenodd" d="M18.4 7.403a1.25 1.25 0 0 1 1.88 1.08v7.035a1.25 1.25 0 0 1-1.88 1.08l-4.62-2.695v-3.805l4.62-2.695Zm-4.622.96 3.867-2.256c1.833-1.07 4.136.253 4.136 2.376v7.035c0 2.123-2.303 3.445-4.136 2.376l-3.867-2.256c-.084 2.052-2.334 3.305-4.133 2.256l-6.03-3.518c-1.82-1.061-1.82-3.69 0-4.75l6.03-3.519c1.799-1.049 4.049.204 4.133 2.256Zm-3.377-.96a1.25 1.25 0 0 1 1.88 1.08v7.035a1.25 1.25 0 0 1-1.88 1.08L4.37 13.08a1.25 1.25 0 0 1 0-2.16l6.03-3.517Z" fill="#868686"/>
</svg>
