<svg width="24" height="24" fill="none" xmlns="http://www.w3.org/2000/svg">
    <path fill-rule="evenodd" clip-rule="evenodd" d="M13.566 1.734a2.776 2.776 0 0 0-3.132 0L2.039 7.45c-1.43.973-.801 3.299.994 3.299h.217v7.16a1.747 1.747 0 0 0-.197.307l-1 2A1.75 1.75 0 0 0 3.62 22.75h16.764a1.75 1.75 0 0 0 1.565-2.533l-1-2a1.75 1.75 0 0 0-.198-.31V10.75h.217c1.795 0 2.423-2.326.994-3.3l-8.395-5.716Zm5.816 17.016H4.62a.25.25 0 0 0-.224.138l-1 2a.25.25 0 0 0 .224.362h16.764a.25.25 0 0 0 .223-.362l-1-2a.25.25 0 0 0-.224-.138Zm-9.632-1.5h4.5v-6.5h-4.5v6.5Zm6 0h3.5v-6.5h-3.5v6.5Zm-11 0h3.5v-6.5h-3.5v6.5Zm-1.717-8a.251.251 0 0 1-.168-.053.32.32 0 0 1-.1-.158c-.042-.14-.001-.267.118-.348l8.395-5.717a1.276 1.276 0 0 1 1.443 0l8.396 5.716c.119.082.16.208.117.349a.32.32 0 0 1-.1.158.25.25 0 0 1-.167.053H3.033Z" fill="#868686"/>
</svg>
