<svg width="24" height="24" fill="none" xmlns="http://www.w3.org/2000/svg">
    <path fill-rule="evenodd" clip-rule="evenodd" d="M5.25 4a2.75 2.75 0 0 1 5.5 0v3.25H16a2.75 2.75 0 1 1 0 5.5h-5.25V16c0 .69.56 1.25 1.25 1.25h4a2.75 2.75 0 1 1 0 5.5h-5A5.75 5.75 0 0 1 5.25 17V4ZM8 2.75c-.69 0-1.25.56-1.25 1.25v13A4.25 4.25 0 0 0 11 21.25h5a1.25 1.25 0 1 0 0-2.5h-4A2.75 2.75 0 0 1 9.25 16v-4a.75.75 0 0 1 .75-.75h6a1.25 1.25 0 1 0 0-2.5h-6A.75.75 0 0 1 9.25 8V4c0-.69-.56-1.25-1.25-1.25Z" fill="#868686"/>
</svg>
