<svg width="24" height="24" fill="none" xmlns="http://www.w3.org/2000/svg">
    <path fill-rule="evenodd" clip-rule="evenodd" d="M12 3.75c-.69 0-1.25.56-1.25 1.25v14a1.25 1.25 0 1 0 2.5 0V5c0-.69-.56-1.25-1.25-1.25ZM9.25 5a2.75 2.75 0 1 1 5.5 0v14a2.75 2.75 0 1 1-5.5 0V5ZM20 8.75c-.69 0-1.25.56-1.25 1.25v9a1.25 1.25 0 1 0 2.5 0v-9c0-.69-.56-1.25-1.25-1.25ZM17.25 10a2.75 2.75 0 1 1 5.5 0v9a2.75 2.75 0 1 1-5.5 0v-9ZM4 12.75c-.69 0-1.25.56-1.25 1.25v5a1.25 1.25 0 1 0 2.5 0v-5c0-.69-.56-1.25-1.25-1.25ZM1.25 14a2.75 2.75 0 1 1 5.5 0v5a2.75 2.75 0 1 1-5.5 0v-5Z" fill="#868686"/>
</svg>
