<svg width="24" height="24" fill="none" xmlns="http://www.w3.org/2000/svg">
    <path fill-rule="evenodd" clip-rule="evenodd" d="M16.65 1.484a.75.75 0 0 1 .186.688 3.25 3.25 0 0 0 4.766 3.577.75.75 0 0 1 1.117.575 5.733 5.733 0 0 1-1.628 4.637 5.752 5.752 0 0 1-2.367 9.526.75.75 0 1 1-.449-1.431 4.252 4.252 0 1 0-2.602-8.095 4.25 4.25 0 0 0-1.648 1.004.75.75 0 0 1-1.05-1.071c.42-.412.903-.76 1.434-1.028a6.28 6.28 0 0 0-2.726-2.512 6.25 6.25 0 0 0-5.808 11.06.75.75 0 0 1-.75 1.299 7.75 7.75 0 0 1 6.271-14.085 5.757 5.757 0 0 1 4.577-4.366.75.75 0 0 1 .678.222Zm-3.847 4.762a7.784 7.784 0 0 1 3.044 3.12 5.772 5.772 0 0 1 4.049.665 4.24 4.24 0 0 0 1.313-2.516 4.75 4.75 0 0 1-5.957-4.47 4.256 4.256 0 0 0-2.449 3.2Z" fill="#868686"/>
    <path d="M12.75 22a.75.75 0 1 1-1.5 0 .75.75 0 0 1 1.5 0ZM12.75 19a.75.75 0 1 1-1.5 0 .75.75 0 0 1 1.5 0ZM9.5 20A.75.75 0 1 1 8 20a.75.75 0 0 1 1.5 0ZM16 20a.75.75 0 1 1-1.5 0 .75.75 0 0 1 1.5 0ZM9.5 17A.75.75 0 1 1 8 17a.75.75 0 0 1 1.5 0ZM16 17a.75.75 0 1 1-1.5 0 .75.75 0 0 1 1.5 0Z" fill="#868686"/>
</svg>
