<svg width="24" height="24" fill="none" xmlns="http://www.w3.org/2000/svg">
    <path fill-rule="evenodd" clip-rule="evenodd" d="M21.25 11.75H2.75V17A3.25 3.25 0 0 0 6 20.25h8a.75.75 0 0 1 0 1.5H6A4.75 4.75 0 0 1 1.25 17V7A4.75 4.75 0 0 1 6 2.25h12A4.75 4.75 0 0 1 22.75 7v6a.75.75 0 0 1-1.5 0v-1.25Zm-.087-5.5A3.251 3.251 0 0 0 18 3.75H6a3.251 3.251 0 0 0-3.163 2.5h18.326Zm.087 1.5H2.75v2.5h18.5v-2.5Z" fill="#868686"/>
    <path d="M7 17a1 1 0 1 1-2 0 1 1 0 0 1 2 0ZM19.75 15a.75.75 0 0 0-1.5 0v2.25H16a.75.75 0 0 0 0 1.5h2.25V21a.75.75 0 0 0 1.5 0v-2.25H22a.75.75 0 0 0 0-1.5h-2.25V15Z" fill="#868686"/>
</svg>
