<svg width="24" height="24" fill="none" xmlns="http://www.w3.org/2000/svg">
    <path fill-rule="evenodd" clip-rule="evenodd" d="M6 2.75A3.25 3.25 0 0 0 2.75 6v7.616l2.627 1.891a3.25 3.25 0 0 0 4.073-.221l4.096-3.687a4.75 4.75 0 0 1 5.953-.324l1.751 1.26V9a.75.75 0 1 1 1.5 0v9A4.75 4.75 0 0 1 18 22.75H6A4.75 4.75 0 0 1 1.25 18V6A4.75 4.75 0 0 1 6 1.25h9a.75.75 0 0 1 0 1.5H6ZM2.75 15.464V18A3.25 3.25 0 0 0 6 21.25h12A3.25 3.25 0 0 0 21.25 18v-3.616l-2.627-1.891a3.25 3.25 0 0 0-4.073.221l-4.096 3.687a4.75 4.75 0 0 1-5.953.324l-1.75-1.26ZM20.72 2.97a.75.75 0 0 0-1.06 0l-3.422 3.42a.25.25 0 0 0-.066.118l-.33 1.34 1.34-.33a.25.25 0 0 0 .117-.067l3.421-3.42a.75.75 0 0 0 0-1.061Zm-5.28 4.977ZM18.6 1.909a2.25 2.25 0 0 1 3.182 3.182L18.36 8.512a1.75 1.75 0 0 1-.819.462l-1.741.43a1.25 1.25 0 0 1-1.513-1.514l.43-1.741a1.75 1.75 0 0 1 .46-.819L18.6 1.91ZM8.5 6.75a1.75 1.75 0 1 0 0 3.5 1.75 1.75 0 0 0 0-3.5ZM5.25 8.5a3.25 3.25 0 1 1 6.5 0 3.25 3.25 0 0 1-6.5 0Z" fill="#868686"/>
</svg>
