<svg width="24" height="24" fill="none" xmlns="http://www.w3.org/2000/svg">
    <path fill-rule="evenodd" clip-rule="evenodd" d="M9.01 3.846a3.02 3.02 0 0 1 5.98 0c2.133.898 3.735 2.752 3.995 5.045l.447 3.94c.063.554.298 1.092.692 1.555.765.899.788 2.026.29 2.904-.49.864-1.463 1.46-2.637 1.46H6.223c-1.173 0-2.146-.596-2.637-1.46-.498-.878-.474-2.005.29-2.904a2.906 2.906 0 0 0 .692-1.555l.447-3.94c.26-2.293 1.862-4.147 3.995-5.045ZM12 2.75c-.84 0-1.52.68-1.52 1.52v.104a.75.75 0 0 1-.507.71C8.056 5.74 6.71 7.27 6.506 9.06L6.059 13a4.405 4.405 0 0 1-1.04 2.358c-.332.39-.335.827-.128 1.191.214.377.677.701 1.332.701h11.554c.655 0 1.119-.324 1.333-.7.206-.365.203-.802-.129-1.192A4.405 4.405 0 0 1 17.941 13l-.447-3.94c-.203-1.789-1.55-3.32-3.467-3.977a.75.75 0 0 1-.507-.71V4.27c0-.84-.68-1.52-1.52-1.52Zm-3.755-.529a.75.75 0 0 1-.418.975l-.167.067A5.25 5.25 0 0 0 4.77 6.107l-.077.183a.75.75 0 0 1-1.383-.58l.076-.183A6.75 6.75 0 0 1 7.103 1.87l.167-.067a.75.75 0 0 1 .975.417Zm7.559 0a.75.75 0 0 1 .975-.417l.167.067a6.75 6.75 0 0 1 3.718 3.656l.076.183a.75.75 0 0 1-1.383.58l-.077-.183a5.25 5.25 0 0 0-2.891-2.844l-.167-.067a.75.75 0 0 1-.418-.975ZM8.737 19.298a.75.75 0 0 1 .965.439c.323.86 1.214 1.513 2.298 1.513 1.085 0 1.975-.652 2.298-1.513a.75.75 0 1 1 1.405.526c-.551 1.47-2.017 2.487-3.703 2.487-1.685 0-3.151-1.017-3.702-2.487a.75.75 0 0 1 .439-.965Z" fill="#868686"/>
</svg>
