<svg width="24" height="24" fill="none" xmlns="http://www.w3.org/2000/svg">
    <path fill-rule="evenodd" clip-rule="evenodd" d="M6 2h12a4 4 0 0 1 4 4v12a4 4 0 0 1-4 4H6a4 4 0 0 1-4-4V6a4 4 0 0 1 4-4Zm7 4.25a.75.75 0 0 0-.75.75v4c0 .414.336.75.75.75h4a.75.75 0 0 0 0-1.5h-2.19l2.72-2.72a.75.75 0 0 0-1.06-1.06l-2.72 2.72V7a.75.75 0 0 0-.75-.75ZM6.25 13c0 .414.336.75.75.75h2.19l-2.72 2.72a.75.75 0 1 0 1.06 1.06l2.72-2.72V17a.75.75 0 0 0 1.5 0v-4a.75.75 0 0 0-.75-.75H7a.75.75 0 0 0-.75.75Z" fill="#868686"/>
</svg>
