<svg width="24" height="24" fill="none" xmlns="http://www.w3.org/2000/svg">
    <path fill-rule="evenodd" clip-rule="evenodd" d="M14.053 3.488a3.225 3.225 0 0 0-4.106 0l-5 4.117A3.296 3.296 0 0 0 3.75 10.15v7.817c0 1.819 1.46 3.283 3.25 3.283h10c1.79 0 3.25-1.464 3.25-3.283V10.15c0-.988-.44-1.922-1.197-2.545l-5-4.117ZM8.993 2.33a4.725 4.725 0 0 1 6.014 0l5 4.118a4.796 4.796 0 0 1 1.743 3.702v7.817c0 2.636-2.12 4.783-4.75 4.783H7c-2.63 0-4.75-2.147-4.75-4.783V10.15c0-1.433.639-2.793 1.743-3.702l5-4.118Zm3.487 6.094L12 9l-.48-.576a.75.75 0 0 1 .96 0ZM12 10.009l-.03.029c-.314.299-.731.72-1.146 1.213-.417.495-.819 1.047-1.114 1.606-.298.566-.46 1.09-.46 1.543 0 1.04.378 1.73.875 2.17.514.453 1.205.68 1.875.68.67 0 1.361-.227 1.875-.68.497-.44.875-1.13.875-2.17 0-.453-.162-.977-.46-1.543-.295-.559-.697-1.11-1.114-1.606A15.38 15.38 0 0 0 12 10.009Zm-.48-1.585L12 9l.48-.576.002.001.002.002.01.008.033.029.12.104a16.84 16.84 0 0 1 1.677 1.717c.458.544.931 1.187 1.293 1.873.358.68.633 1.452.633 2.242 0 1.445-.544 2.554-1.383 3.294-.822.726-1.88 1.056-2.867 1.056-.987 0-2.046-.33-2.868-1.056-.838-.74-1.382-1.849-1.382-3.294 0-.79.275-1.562.633-2.242.362-.686.835-1.329 1.293-1.873a16.848 16.848 0 0 1 1.797-1.821l.033-.029.01-.008.002-.002.002-.001Z" fill="#868686"/>
</svg>
