<svg width="24" height="24" fill="none" xmlns="http://www.w3.org/2000/svg">
    <path fill-rule="evenodd" clip-rule="evenodd" d="M12 2.75A5.25 5.25 0 0 0 6.75 8a.75.75 0 0 1-1.5 0 6.75 6.75 0 0 1 13.5 0 .75.75 0 0 1-1.5 0c0-2.9-2.35-5.25-5.25-5.25Zm0 3c-.69 0-1.25.56-1.25 1.25v6a.75.75 0 0 1-1.28.53l-1.414-1.414a1.25 1.25 0 0 0-.884-.366h-.065c-.91 0-1.514.94-1.138 1.767l2.649 5.828a3.25 3.25 0 0 0 2.958 1.905h4.103a3.25 3.25 0 0 0 2.822-1.638l.322-.562a3.25 3.25 0 0 0 .428-1.612V17A3.25 3.25 0 0 0 16 13.75h-2a.75.75 0 0 1-.75-.75V7c0-.69-.56-1.25-1.25-1.25ZM9.25 7a2.75 2.75 0 1 1 5.5 0v5.25H16A4.75 4.75 0 0 1 20.75 17v.438a4.75 4.75 0 0 1-.625 2.356l-.321.563a4.75 4.75 0 0 1-4.125 2.393h-4.103a4.75 4.75 0 0 1-4.324-2.784l-2.649-5.828c-.827-1.82.504-3.888 2.504-3.888h.065c.73 0 1.43.29 1.945.806l.134.133V7Z" fill="#868686"/>
</svg>
