<svg width="24" height="24" fill="none" xmlns="http://www.w3.org/2000/svg">
    <path d="M12 2a.75.75 0 0 1 .75.75v1a.75.75 0 0 1-1.5 0v-1A.75.75 0 0 1 12 2ZM18 12a6 6 0 1 1-12 0 6 6 0 0 1 12 0ZM12.75 20.25a.75.75 0 0 0-1.5 0v1a.75.75 0 0 0 1.5 0v-1ZM3.339 7a.75.75 0 0 1 1.024-.274l.866.5a.75.75 0 0 1-.75 1.299l-.866-.5A.75.75 0 0 1 3.34 7ZM19.519 15.476a.75.75 0 0 0-.75 1.298l.866.5a.75.75 0 1 0 .75-1.299l-.866-.5ZM20.66 7a.75.75 0 0 1-.275 1.024l-.866.5a.75.75 0 1 1-.75-1.299l.866-.5A.75.75 0 0 1 20.659 7ZM5.23 16.774a.75.75 0 1 0-.75-1.299l-.867.5a.75.75 0 1 0 .75 1.3l.866-.5Z" fill="#868686"/>
</svg>
