<svg width="24" height="24" fill="none" xmlns="http://www.w3.org/2000/svg">
    <path d="m16.312 5.875-1.913-2.55a.75.75 0 1 1 1.2-.9l2.596 3.46a4.005 4.005 0 0 1 3.634 3.24H2.169a4.005 4.005 0 0 1 3.635-3.24l2.595-3.46a.75.75 0 0 1 1.2.9l-1.912 2.55h8.625Z" fill="#868686"/>
    <path fill-rule="evenodd" clip-rule="evenodd" d="M2.172 10.625h19.654a4.078 4.078 0 0 1-.045.205l-1.966 8a4 4 0 0 1-3.885 3.045H8.068a4 4 0 0 1-3.884-3.045l-1.967-8a4.101 4.101 0 0 1-.045-.205Zm13.391 3.744a.75.75 0 0 0-1.128-.988l-2.87 3.28a.25.25 0 0 1-.345.03L9.468 15.29a.75.75 0 0 0-.938 1.172l1.753 1.402a1.75 1.75 0 0 0 2.41-.214l2.87-3.28Z" fill="#868686"/>
</svg>
