<svg width="24" height="24" fill="none" xmlns="http://www.w3.org/2000/svg">
    <path d="M14.75 3a.75.75 0 0 0-1.5 0v1.5a.75.75 0 0 0 1.5 0V3ZM9.53 4.47a.75.75 0 0 0-1.06 1.06l1 1a.75.75 0 1 0 1.06-1.06l-1-1ZM19.53 4.47a.75.75 0 0 1 0 1.06l-1 1a.75.75 0 1 1-1.06-1.06l1-1a.75.75 0 0 1 1.06 0Z" fill="#868686"/>
    <path fill-rule="evenodd" clip-rule="evenodd" d="M13.25 9H8a6 6 0 1 0 6 6h3.789a4 4 0 0 0 2.219-.672l1.101-.734A2 2 0 0 0 22 11.93V11a2 2 0 0 0-2-2h-5.25v2a.75.75 0 0 1-1.5 0V9ZM10 15a2 2 0 1 1-4 0 2 2 0 0 1 4 0Z" fill="#868686"/>
</svg>
