<svg width="24" height="24" fill="none" xmlns="http://www.w3.org/2000/svg">
    <path fill-rule="evenodd" clip-rule="evenodd" d="M11.038 11.465a2.25 2.25 0 1 0 2.992 3.006l1.353.648a3.75 3.75 0 1 1-4.987-5.01l.642 1.356Z" fill="#868686"/>
    <path d="M13 7a1 1 0 1 1-2 0 1 1 0 0 1 2 0Z" fill="#868686"/>
    <path fill-rule="evenodd" clip-rule="evenodd" d="M2.47 2.47a.75.75 0 0 1 1.06 0l18 18a.75.75 0 1 1-1.06 1.06l-18-18a.75.75 0 0 1 0-1.06Z" fill="#868686"/>
    <path d="M6.812 5.873A5.752 5.752 0 0 0 2.25 11.5v4A5.75 5.75 0 0 0 8 21.25h8c1.7 0 3.227-.737 4.28-1.91l-1.063-1.063A4.24 4.24 0 0 1 16 19.75H8a4.25 4.25 0 0 1-4.25-4.25v-4A4.25 4.25 0 0 1 8 7.25h.126c.02 0 .04 0 .06-.002L6.813 5.873ZM20 16.94c.162-.45.25-.935.25-1.44v-4A4.25 4.25 0 0 0 16 7.25h-.126a.75.75 0 0 1-.726-.563 3.252 3.252 0 0 0-6.05-.65L7.998 4.938a4.751 4.751 0 0 1 8.424.827A5.75 5.75 0 0 1 21.75 11.5v4c0 .928-.22 1.804-.61 2.58L20 16.94Z" fill="#868686"/>
</svg>
