<svg width="24" height="24" fill="none" xmlns="http://www.w3.org/2000/svg">
    <path fill-rule="evenodd" clip-rule="evenodd" d="M12 2.75a9.25 9.25 0 1 0 0 18.5 9.25 9.25 0 0 0 0-18.5ZM1.25 12C1.25 6.063 6.063 1.25 12 1.25S22.75 6.063 22.75 12 17.937 22.75 12 22.75 1.25 17.937 1.25 12ZM8 9.75a.25.25 0 1 0 0 .5.25.25 0 0 0 0-.5ZM6.25 10a1.75 1.75 0 1 1 3.5 0 1.75 1.75 0 0 1-3.5 0ZM16 9.75a.25.25 0 1 0 0 .5.25.25 0 0 0 0-.5Zm-1.75.25a1.75 1.75 0 1 1 3.5 0 1.75 1.75 0 0 1-3.5 0Zm-4.755 4.436Zm0 0a.75.75 0 0 0-.993 1.125L9 15l-.498.56.002.002.002.003.006.005.018.015.056.045c.046.037.11.085.19.142.163.113.396.258.694.403a5.79 5.79 0 0 0 2.53.575 5.79 5.79 0 0 0 2.53-.575 5.16 5.16 0 0 0 .885-.545l.055-.045.018-.015.006-.005.002-.003h.001S15.498 15.56 15 15l.498.56a.75.75 0 0 0-.993-1.124l-.003.003.001-.001m.002-.002Z" fill="#868686"/>
</svg>
