<svg width="24" height="24" fill="none" xmlns="http://www.w3.org/2000/svg">
    <path fill-rule="evenodd" clip-rule="evenodd" d="M11 2.75A2.25 2.25 0 0 0 8.75 5v.25h6.5V5A2.25 2.25 0 0 0 13 2.75h-2Zm5.75 2.5V5A3.75 3.75 0 0 0 13 1.25h-2A3.75 3.75 0 0 0 7.25 5v.25H6A4.75 4.75 0 0 0 1.25 10v8A4.75 4.75 0 0 0 6 22.75h12A4.75 4.75 0 0 0 22.75 18v-8A4.75 4.75 0 0 0 18 5.25h-1.25ZM6 6.75a3.25 3.25 0 0 0-3.228 2.872c.059.038.127.08.204.125.366.217.934.515 1.714.82 1.437.56 3.6 1.143 6.56 1.27v-.728a.75.75 0 0 1 1.5 0v.75c2.959-.044 5.119-.628 6.55-1.21.776-.315 1.34-.63 1.705-.86.086-.055.161-.105.225-.149A3.25 3.25 0 0 0 18 6.75H6Zm15.25 4.634a13.19 13.19 0 0 1-1.385.655c-1.603.651-3.954 1.276-7.115 1.32v.75a.75.75 0 0 1-1.5 0v-.77c-3.16-.13-5.507-.752-7.105-1.375a14.305 14.305 0 0 1-1.395-.628V18A3.25 3.25 0 0 0 6 21.25h12A3.25 3.25 0 0 0 21.25 18v-6.616Z" fill="#868686"/>
</svg>
