<svg width="24" height="24" fill="none" xmlns="http://www.w3.org/2000/svg">
    <path fill-rule="evenodd" clip-rule="evenodd" d="M20.28 8.482a1.25 1.25 0 0 0-1.88-1.08l-4.991 2.912a.75.75 0 0 1-1.128-.648V8.482a1.25 1.25 0 0 0-1.88-1.08L4.37 10.92a1.25 1.25 0 0 0 0 2.16l6.03 3.517a1.25 1.25 0 0 0 1.88-1.08v-1.184a.75.75 0 0 1 1.128-.648l4.992 2.912a1.25 1.25 0 0 0 1.88-1.08V8.482Zm-2.635-2.376c1.833-1.07 4.136.253 4.136 2.376v7.036c0 2.122-2.303 3.444-4.136 2.375l-3.867-2.256c-.084 2.052-2.334 3.305-4.133 2.256L3.75 14.454V17a.75.75 0 0 1-1.5 0V7a.75.75 0 0 1 1.5 0v2.545l5.895-3.439c1.799-1.049 4.049.204 4.133 2.256l3.867-2.256Z" fill="#868686"/>
</svg>
