<svg width="24" height="24" fill="none" xmlns="http://www.w3.org/2000/svg">
    <path d="M13 19a1 1 0 1 1-2 0 1 1 0 0 1 2 0Z" fill="#868686"/>
    <path fill-rule="evenodd" clip-rule="evenodd" d="M12 4.75a13.2 13.2 0 0 0-8.94 3.47.75.75 0 0 1-1.011-1.108 14.7 14.7 0 0 1 9.95-3.862 14.7 14.7 0 0 1 9.952 3.862.75.75 0 0 1-1.012 1.107 13.2 13.2 0 0 0-8.94-3.469Zm0 5a8.22 8.22 0 0 0-5.72 2.304.75.75 0 1 1-1.04-1.081A9.72 9.72 0 0 1 12 8.25a9.72 9.72 0 0 1 6.759 2.723.75.75 0 1 1-1.04 1.08 8.22 8.22 0 0 0-5.72-2.303Zm0 5a3.24 3.24 0 0 0-2.454 1.119.75.75 0 1 1-1.132-.985A4.74 4.74 0 0 1 12 13.25a4.74 4.74 0 0 1 3.585 1.634.75.75 0 0 1-1.132.985A3.24 3.24 0 0 0 12 14.75Z" fill="#868686"/>
</svg>
