<svg width="24" height="24" fill="none" xmlns="http://www.w3.org/2000/svg">
    <path fill-rule="evenodd" clip-rule="evenodd" d="M7 2.25a.75.75 0 0 1 .75.75v1.325c1.712.347 3 1.86 3 3.675v2a3.75 3.75 0 1 1-7.5 0V8a3.751 3.751 0 0 1 3-3.675V3A.75.75 0 0 1 7 2.25Zm10 0a.75.75 0 0 1 .75.75v5a.75.75 0 0 1-1.5 0V3a.75.75 0 0 1 .75-.75ZM7 5.75A2.25 2.25 0 0 0 4.75 8v2a2.25 2.25 0 0 0 4.5 0V8A2.25 2.25 0 0 0 7 5.75Zm10 6A2.25 2.25 0 0 0 14.75 14v2a2.25 2.25 0 0 0 4.5 0v-2A2.25 2.25 0 0 0 17 11.75ZM13.25 14a3.75 3.75 0 1 1 7.5 0v2a3.751 3.751 0 0 1-3 3.675V21a.75.75 0 0 1-1.5 0v-1.325a3.751 3.751 0 0 1-3-3.675v-2ZM7 15.25a.75.75 0 0 1 .75.75v5a.75.75 0 0 1-1.5 0v-5a.75.75 0 0 1 .75-.75Z" fill="#868686"/>
</svg>
