<svg width="24" height="24" fill="none" xmlns="http://www.w3.org/2000/svg">
    <path d="M6 3.25A4.75 4.75 0 0 0 1.25 8v8A4.75 4.75 0 0 0 6 20.75h8a.75.75 0 0 0 0-1.5H6A3.25 3.25 0 0 1 2.75 16V8A3.25 3.25 0 0 1 6 4.75h12A3.25 3.25 0 0 1 21.25 8v4.5a.75.75 0 0 0 1.5 0V8A4.75 4.75 0 0 0 18 3.25H6Z" fill="#868686"/>
    <path d="M6 7a1 1 0 1 1 0 2 1 1 0 0 1 0-2Z" fill="#868686"/>
    <path fill-rule="evenodd" clip-rule="evenodd" d="M9.25 12a2.75 2.75 0 1 0 5.5 0 2.75 2.75 0 0 0-5.5 0ZM12 13.25a1.25 1.25 0 1 1 0-2.5 1.25 1.25 0 0 1 0 2.5ZM21.96 15.25a2.313 2.313 0 0 0-2.96-.26 2.313 2.313 0 0 0-2.961 3.53l1.546 1.547a2 2 0 0 0 2.829 0l1.547-1.547a2.312 2.312 0 0 0 0-3.27Zm-2.209 1.06a.812.812 0 1 1 1.149 1.15l-1.547 1.546a.5.5 0 0 1-.707 0L17.1 17.46a.813.813 0 0 1 1.15-1.149l.22.221a.75.75 0 0 0 1.061 0l.221-.22Z" fill="#868686"/>
</svg>
