<svg width="24" height="24" fill="none" xmlns="http://www.w3.org/2000/svg">
    <path fill-rule="evenodd" clip-rule="evenodd" d="M1.25 3A.75.75 0 0 1 2 2.25h13a3.75 3.75 0 0 1 3 6h4a.75.75 0 0 1 0 1.5h-1.25v4.5H22a.75.75 0 0 1 0 1.5h-4a3.75 3.75 0 0 1-3 6H2a.75.75 0 0 1 0-1.5h1.25v-4.5H2a.75.75 0 0 1 0-1.5h4A3.733 3.733 0 0 1 5.25 12c0-.844.279-1.623.75-2.25H2a.75.75 0 0 1 0-1.5h1.25v-4.5H2A.75.75 0 0 1 1.25 3Zm3.5.75v4.5H15a2.25 2.25 0 0 0 0-4.5H4.75Zm4.25 6a2.25 2.25 0 0 0 0 4.5h10.25v-4.5H9Zm-4.25 6v4.5H15a2.25 2.25 0 0 0 0-4.5H4.75Z" fill="#868686"/>
</svg>
