<svg width="24" height="24" fill="none" xmlns="http://www.w3.org/2000/svg">
    <path fill-rule="evenodd" clip-rule="evenodd" d="M4.776 2.77a2.75 2.75 0 0 1 2.46-1.52h9.528a2.75 2.75 0 0 1 2.46 1.52l1.44 2.881a.89.89 0 0 1 .014.028l.546 1.091c.756 1.513-.024 3.248-1.474 3.8V16A2.75 2.75 0 0 1 17 18.75h-.5a.75.75 0 0 1 0-1.5h.5c.69 0 1.25-.56 1.25-1.25v-5.25H5.75V16c0 .69.56 1.25 1.25 1.25h.5a.75.75 0 0 1 0 1.5H7A2.75 2.75 0 0 1 4.25 16v-5.43c-1.45-.552-2.23-2.287-1.474-3.8l.546-1.09a.755.755 0 0 1 .014-.029l1.44-2.88Zm-.313 3.98-.345.691A1.25 1.25 0 0 0 5.236 9.25h3.118l.375-2.5H4.463Zm4.491-1.5h-3.74l.904-1.809a1.25 1.25 0 0 1 1.118-.691h2.093l-.375 2.5Zm1.292 1.5-.375 2.5h4.258l-.375-2.5h-3.508Zm3.283-1.5h-3.058l.375-2.5h2.308l.375 2.5Zm1.742 1.5.375 2.5h3.118a1.25 1.25 0 0 0 1.118-1.809l-.346-.691h-4.265Zm3.515-1.5h-3.74l-.375-2.5h2.093c.473 0 .906.268 1.118.691l.904 1.809ZM13.45 13.4a.75.75 0 0 1 .15 1.05l-2.1 2.8H14a.75.75 0 0 1 .6 1.2l-3 4a.75.75 0 1 1-1.2-.9l2.1-2.8H10a.75.75 0 0 1-.6-1.2l3-4a.75.75 0 0 1 1.05-.15Z" fill="#868686"/>
</svg>
