<svg width="24" height="24" fill="none" xmlns="http://www.w3.org/2000/svg">
    <path fill-rule="evenodd" clip-rule="evenodd" d="M12 3.75A5.25 5.25 0 0 0 6.75 9c0 1.407.88 3.242 2.09 4.778.593.753 1.236 1.393 1.829 1.838.623.466 1.083.634 1.332.634.249 0 .709-.168 1.332-.634.593-.445 1.235-1.085 1.829-1.838 1.21-1.536 2.089-3.37 2.089-4.778 0-2.9-2.35-5.25-5.25-5.25ZM5.25 9a6.75 6.75 0 1 1 13.5 0c0 1.906-1.12 4.071-2.41 5.707-.657.833-1.39 1.571-2.109 2.11-.69.515-1.48.933-2.23.933-.751 0-1.541-.418-2.23-.933-.72-.539-1.453-1.277-2.11-2.11-1.289-1.636-2.41-3.8-2.41-5.707ZM12 7.75a1.25 1.25 0 1 0 0 2.5 1.25 1.25 0 0 0 0-2.5ZM9.25 9a2.75 2.75 0 1 1 5.5 0 2.75 2.75 0 0 1-5.5 0Z" fill="#868686"/>
    <path fill-rule="evenodd" clip-rule="evenodd" d="M7.874 15.75a3.25 3.25 0 0 0-2.496 1.17L4.31 18.2c-.679.814-.1 2.05.96 2.05h13.46c1.06 0 1.638-1.236.96-2.05l-1.067-1.28a3.25 3.25 0 0 0-2.497-1.17h-1.126v-1.5h1.126a4.75 4.75 0 0 1 3.65 1.71l1.066 1.28c1.493 1.79.22 4.51-2.112 4.51H5.27c-2.332 0-3.605-2.72-2.113-4.51l1.067-1.28a4.75 4.75 0 0 1 3.65-1.71H9v1.5H7.874Z" fill="#868686"/>
</svg>
