<svg width="24" height="24" fill="none" xmlns="http://www.w3.org/2000/svg">
    <path fill-rule="evenodd" clip-rule="evenodd" d="M8.25 16a.75.75 0 0 1 .75-.75h6a.75.75 0 0 1 0 1.5H9a.75.75 0 0 1-.75-.75Z" fill="#868686"/>
    <path fill-rule="evenodd" clip-rule="evenodd" d="M1.49 11.134C.752 8.14 3.02 5.25 6.101 5.25h11.795c3.083 0 5.349 2.89 4.613 5.884l-1.967 8a4.75 4.75 0 0 1-4.612 3.616H8.068a4.75 4.75 0 0 1-4.612-3.616l-1.967-8ZM6.101 6.75a3.25 3.25 0 0 0-3.156 4.026l1.966 8a3.25 3.25 0 0 0 3.156 2.474h7.863a3.25 3.25 0 0 0 3.156-2.474l1.966-8a3.25 3.25 0 0 0-3.156-4.026H6.102Z" fill="#868686"/>
    <path fill-rule="evenodd" clip-rule="evenodd" d="M2.25 10A.75.75 0 0 1 3 9.25h18a.75.75 0 0 1 0 1.5H3a.75.75 0 0 1-.75-.75ZM9.45 1.4a.75.75 0 0 1 .15 1.05l-3 4a.75.75 0 1 1-1.2-.9l3-4a.75.75 0 0 1 1.05-.15ZM14.55 1.4a.75.75 0 0 1 1.05.15l3 4a.75.75 0 1 1-1.2.9l-3-4a.75.75 0 0 1 .15-1.05Z" fill="#868686"/>
</svg>
