<svg width="24" height="24" fill="none" xmlns="http://www.w3.org/2000/svg">
    <path fill-rule="evenodd" clip-rule="evenodd" d="M10.87 14.75c-1.072.003-2.137.296-3.563.934a.75.75 0 1 1-.613-1.368c1.52-.681 2.804-1.062 4.171-1.066 1.361-.004 2.73.367 4.419 1.056a.75.75 0 0 1-.567 1.388c-1.612-.657-2.77-.947-3.848-.944ZM11 10.25a2.25 2.25 0 1 1 0-4.5 2.25 2.25 0 0 1 0 4.5ZM7.25 8a3.75 3.75 0 1 0 7.5 0 3.75 3.75 0 0 0-7.5 0Z" fill="#868686"/>
    <path fill-rule="evenodd" clip-rule="evenodd" d="M1.25 11c0-5.385 4.365-9.75 9.75-9.75s9.75 4.365 9.75 9.75c0 .744-.083 1.469-.242 2.166a.75.75 0 1 1-1.462-.332 8.25 8.25 0 1 0-6.212 6.212.75.75 0 1 1 .332 1.462A9.782 9.782 0 0 1 11 20.75c-5.385 0-9.75-4.365-9.75-9.75Z" fill="#868686"/>
    <path fill-rule="evenodd" clip-rule="evenodd" d="M18 15.25a.75.75 0 0 1 .75.75v4a.75.75 0 0 1-1.5 0v-4a.75.75 0 0 1 .75-.75Z" fill="#868686"/>
    <path fill-rule="evenodd" clip-rule="evenodd" d="M20.75 18a.75.75 0 0 1-.75.75h-4a.75.75 0 0 1 0-1.5h4a.75.75 0 0 1 .75.75Z" fill="#868686"/>
</svg>
