<svg width="24" height="24" fill="none" xmlns="http://www.w3.org/2000/svg">
    <path fill-rule="evenodd" clip-rule="evenodd" d="M12.75 13.625h.018c4.342 0 7.247-4.47 5.483-8.437l-1.32-2.97a1 1 0 0 0-.914-.593H7.984a1 1 0 0 0-.914.594l-1.32 2.97c-1.763 3.967 1.141 8.436 5.483 8.436h.018v7.25H9a.75.75 0 0 0 0 1.5h6a.75.75 0 0 0 0-1.5h-2.25v-7.25Zm.086-9.67a.75.75 0 0 1 .336 1.005l-.958 1.915h.787a.75.75 0 0 1 .67 1.085l-1.5 3a.75.75 0 0 1-1.341-.67l.957-1.915h-.786a.75.75 0 0 1-.671-1.085l1.5-3a.75.75 0 0 1 1.006-.336Z" fill="#868686"/>
</svg>
