<svg width="24" height="24" fill="none" xmlns="http://www.w3.org/2000/svg">
    <path d="M8.25 12a.75.75 0 0 1 .75-.75h1.324c.104-.42.157-.856.157-1.295v-.57a2.135 2.135 0 1 1 4.27 0v.497a.75.75 0 1 1-1.5 0v-.497a.635.635 0 1 0-1.27 0v.57c0 .437-.041.87-.122 1.295H13a.75.75 0 0 1 0 1.5h-1.61a6.908 6.908 0 0 1-1.075 1.704.482.482 0 0 0 .366.796h3.32a.75.75 0 0 1 0 1.5h-3.32c-1.694 0-2.607-1.987-1.504-3.273a5.41 5.41 0 0 0 .526-.727H9a.75.75 0 0 1-.75-.75Z" fill="#868686"/>
    <path fill-rule="evenodd" clip-rule="evenodd" d="M1.25 8A4.75 4.75 0 0 1 6 3.25h12A4.75 4.75 0 0 1 22.75 8v8A4.75 4.75 0 0 1 18 20.75H6A4.75 4.75 0 0 1 1.25 16V8ZM6 4.75A3.25 3.25 0 0 0 2.75 8v8A3.25 3.25 0 0 0 6 19.25h12A3.25 3.25 0 0 0 21.25 16V8A3.25 3.25 0 0 0 18 4.75H6Z" fill="#868686"/>
</svg>
