<svg width="24" height="24" fill="none" xmlns="http://www.w3.org/2000/svg">
    <path fill-rule="evenodd" clip-rule="evenodd" d="M9.5 19.75a.75.75 0 1 0 0 1.5.75.75 0 0 0 0-1.5Zm-2.25.75a2.25 2.25 0 1 1 4.5 0 2.25 2.25 0 0 1-4.5 0ZM18.5 19.75a.75.75 0 1 0 0 1.5.75.75 0 0 0 0-1.5Zm-2.25.75a2.25 2.25 0 1 1 4.5 0 2.25 2.25 0 0 1-4.5 0ZM1.25 2A.75.75 0 0 1 2 1.25h2c1.259 0 2.32.846 2.646 2H18A4.75 4.75 0 0 1 22.75 8v5A4.75 4.75 0 0 1 18 17.75h-8A4.75 4.75 0 0 1 5.25 13V4c0-.69-.56-1.25-1.25-1.25H2A.75.75 0 0 1 1.25 2Zm5.5 6.75V13A3.25 3.25 0 0 0 10 16.25h8A3.25 3.25 0 0 0 21.25 13V8.75H6.75Zm14.413-1.5H6.75v-2.5H18a3.251 3.251 0 0 1 3.163 2.5Z" fill="#868686"/>
</svg>
