<svg width="24" height="24" fill="none" xmlns="http://www.w3.org/2000/svg">
    <path fill-rule="evenodd" clip-rule="evenodd" d="M9.25 2a.75.75 0 0 1 .75-.75h4a.75.75 0 0 1 0 1.5h-4A.75.75 0 0 1 9.25 2ZM2.47 2.47a.75.75 0 0 1 1.06 0l18 18a.75.75 0 1 1-1.06 1.06l-18-18a.75.75 0 0 1 0-1.06Z" fill="#868686"/>
    <path d="M5.598 4.66A2.737 2.737 0 0 0 5.25 6v14A2.75 2.75 0 0 0 8 22.75h8A2.75 2.75 0 0 0 18.75 20v-2.19l-1.5-1.5V20c0 .69-.56 1.25-1.25 1.25H8c-.69 0-1.25-.56-1.25-1.25V6c0-.06.004-.12.012-.177L5.598 4.66ZM17.25 14.19V6c0-.69-.56-1.25-1.25-1.25H8c-.06 0-.12.004-.177.012L6.66 3.598A2.737 2.737 0 0 1 8 3.25h8A2.75 2.75 0 0 1 18.75 6v9.69l-1.5-1.5Z" fill="#868686"/>
</svg>
