<svg width="24" height="24" fill="none" xmlns="http://www.w3.org/2000/svg">
    <path fill-rule="evenodd" clip-rule="evenodd" d="M15.782 7.07a1.25 1.25 0 0 0-1.768 0L8.83 12.255a1.25 1.25 0 0 0-.354.707l-.236 1.65a1.25 1.25 0 0 0 1.415 1.414l1.65-.236a1.25 1.25 0 0 0 .707-.353l5.185-5.185a1.25 1.25 0 0 0 0-1.768L15.782 7.07Zm-2.829-1.061a2.75 2.75 0 0 1 3.89 0l1.414 1.414a2.75 2.75 0 0 1 0 3.89l-5.186 5.185a2.75 2.75 0 0 1-1.555.777l-1.65.236A2.75 2.75 0 0 1 6.754 14.4l.236-1.65a2.75 2.75 0 0 1 .778-1.556l5.185-5.185Z" fill="#868686"/>
    <path fill-rule="evenodd" clip-rule="evenodd" d="M20.38 3.888a.75.75 0 0 1 0 1.06L17.55 7.777a.75.75 0 1 1-1.06-1.06l2.828-2.83a.75.75 0 0 1 1.06 0Z" fill="#868686"/>
    <path fill-rule="evenodd" clip-rule="evenodd" d="M17.905 2.47a.75.75 0 0 1 1.06 0l2.829 2.828a.75.75 0 0 1-1.06 1.06l-2.83-2.828a.75.75 0 0 1 0-1.06ZM17.048 12.343a.75.75 0 0 1-.883.588l-7.07-1.414a.75.75 0 0 1 .293-1.47l7.072 1.413a.75.75 0 0 1 .588.883ZM8.374 15.921a.75.75 0 0 1-.03 1.06l-4.829 4.566a.75.75 0 0 1-1.03-1.09l4.828-4.566a.75.75 0 0 1 1.06.03Z" fill="#868686"/>
</svg>
