<svg width="24" height="24" fill="none" xmlns="http://www.w3.org/2000/svg">
    <path fill-rule="evenodd" clip-rule="evenodd" d="M4.23 4.788a4.75 4.75 0 0 1 5.41.364l.33.264a3.25 3.25 0 0 0 4.06 0l.33-.264a4.75 4.75 0 0 1 5.41-.364l2.616 1.57a.75.75 0 1 1-.772 1.286L19 6.074a3.25 3.25 0 0 0-3.702.25l-.33.263a4.75 4.75 0 0 1-5.934 0l-.33-.263a3.25 3.25 0 0 0-3.702-.25l-2.615 1.57a.75.75 0 0 1-.772-1.287L4.23 4.788Zm0 6a4.75 4.75 0 0 1 5.41.364l.33.264a3.25 3.25 0 0 0 4.06 0l.33-.264a4.75 4.75 0 0 1 5.41-.364l2.616 1.57a.75.75 0 1 1-.772 1.285L19 12.075a3.25 3.25 0 0 0-3.702.25l-.33.263a4.75 4.75 0 0 1-5.934 0l-.33-.264a3.25 3.25 0 0 0-3.702-.248l-2.615 1.569a.75.75 0 1 1-.772-1.287l2.615-1.569Zm0 6a4.75 4.75 0 0 1 5.41.364l.33.264a3.25 3.25 0 0 0 4.06 0l.33-.264a4.75 4.75 0 0 1 5.41-.364l2.616 1.57a.75.75 0 1 1-.772 1.285L19 18.075a3.25 3.25 0 0 0-3.702.25l-.33.263a4.75 4.75 0 0 1-5.934 0l-.33-.264a3.25 3.25 0 0 0-3.702-.248l-2.615 1.569a.75.75 0 1 1-.772-1.287l2.615-1.569Z" fill="#868686"/>
</svg>
