<svg width="24" height="24" fill="none" xmlns="http://www.w3.org/2000/svg">
    <path d="M15.601 5.25H8.397c-1.162-1.57.404-3.768 2.35-3.14l.927.3c.211.067.44.067.65 0l.928-.3c1.946-.628 3.512 1.57 2.35 3.14Z" fill="#868686"/>
    <path fill-rule="evenodd" clip-rule="evenodd" d="M8.505 6.75h6.988c1.32.73 2.35 1.95 2.822 3.46l1.25 4c1.207 3.864-1.679 7.79-5.727 7.79H10.16c-4.047 0-6.934-3.926-5.726-7.79l1.25-4a5.997 5.997 0 0 1 2.821-3.46Zm2.118 3.834a.75.75 0 1 0-1.248.832l1.556 2.334H10a.75.75 0 0 0 0 1.5h1.25v.5H10a.75.75 0 0 0 0 1.5h1.25V19a.75.75 0 0 0 1.5 0v-1.75H14a.75.75 0 0 0 0-1.5h-1.25v-.5H14a.75.75 0 0 0 0-1.5h-.932l1.556-2.334a.75.75 0 1 0-1.248-.832L12 12.648l-1.376-2.064Z" fill="#868686"/>
</svg>
