<svg width="24" height="24" fill="none" xmlns="http://www.w3.org/2000/svg">
    <path fill-rule="evenodd" clip-rule="evenodd" d="M1.25 8A4.75 4.75 0 0 1 6 3.25h7a4.75 4.75 0 0 1 4.72 4.218l.274-.291c1.705-1.819 4.756-.612 4.756 1.88v5.885c0 2.493-3.051 3.7-4.756 1.881l-.273-.291A4.75 4.75 0 0 1 13 20.75H6A4.75 4.75 0 0 1 1.25 16V8Zm15 0A3.25 3.25 0 0 0 13 4.75H6A3.25 3.25 0 0 0 2.75 8v8A3.25 3.25 0 0 0 6 19.25h7A3.25 3.25 0 0 0 16.25 16V8Zm1.5 6.37 1.338 1.427c.775.827 2.162.279 2.162-.855V9.058c0-1.134-1.387-1.682-2.162-.855L17.75 9.63v4.74ZM11 8.75a1.25 1.25 0 1 0 0 2.5 1.25 1.25 0 0 0 0-2.5ZM8.25 10a2.75 2.75 0 1 1 5.5 0 2.75 2.75 0 0 1-5.5 0Z" fill="#868686"/>
</svg>
