<svg width="24" height="24" fill="none" xmlns="http://www.w3.org/2000/svg">
    <path fill-rule="evenodd" clip-rule="evenodd" d="M1.25 6A4.75 4.75 0 0 1 6 1.25h12A4.75 4.75 0 0 1 22.75 6v12A4.75 4.75 0 0 1 18 22.75H6A4.75 4.75 0 0 1 1.25 18V6ZM6 2.75A3.25 3.25 0 0 0 2.75 6v12A3.25 3.25 0 0 0 6 21.25h12A3.25 3.25 0 0 0 21.25 18V6A3.25 3.25 0 0 0 18 2.75H6Z" fill="#868686"/>
    <path fill-rule="evenodd" clip-rule="evenodd" d="M16.45 7.4a.75.75 0 0 1 .15 1.05l-2.1 2.8a1.25 1.25 0 0 0 0 1.5l2.1 2.8a.75.75 0 0 1-1.2.9l-2.1-2.8a2.75 2.75 0 0 1 0-3.3l2.1-2.8a.75.75 0 0 1 1.05-.15ZM11.45 7.4a.75.75 0 0 1 .15 1.05l-2.1 2.8a1.25 1.25 0 0 0 0 1.5l2.1 2.8a.75.75 0 0 1-1.2.9l-2.1-2.8a2.75 2.75 0 0 1 0-3.3l2.1-2.8a.75.75 0 0 1 1.05-.15Z" fill="#868686"/>
</svg>
