<svg width="24" height="24" fill="none" xmlns="http://www.w3.org/2000/svg">
    <path fill-rule="evenodd" clip-rule="evenodd" d="M4 13.5V19a3 3 0 0 0 3 3h10a3 3 0 0 0 3-3v-5.5h-4.5a2.5 2.5 0 0 1-2-1l-1.5-2-1.5 2a2.5 2.5 0 0 1-2 1H4ZM11.25 4.19l-.72-.72a.75.75 0 1 0-1.06 1.06l1.293 1.293a1.75 1.75 0 0 0 2.474 0L14.53 4.53a.75.75 0 0 0-1.06-1.06l-.72.72V2a.75.75 0 0 0-1.5 0v2.19Z" fill="#868686"/>
    <path d="M4.55 8.04h14.913a1 1 0 0 1 .797.397l1.456 1.923a1 1 0 0 1-.797 1.604h-5.39a1 1 0 0 1-.79-.388L12.005 8.04l-2.728 3.535a1 1 0 0 1-.791.389H3.043a1 1 0 0 1-.787-1.617l1.506-1.924a1 1 0 0 1 .788-.383Z" fill="#868686"/>
</svg>
