<svg width="24" height="24" fill="none" xmlns="http://www.w3.org/2000/svg">
    <path fill-rule="evenodd" clip-rule="evenodd" d="M2.25 9A4.75 4.75 0 0 1 7 4.25h10A4.75 4.75 0 0 1 21.75 9v9.25H22a.75.75 0 0 1 0 1.5H2a.75.75 0 0 1 0-1.5h.25V9Zm1.5 9.25h8.5V17c0-.966.784-1.75 1.75-1.75h2c.966 0 1.75.784 1.75 1.75v1.25h2.5V9A3.25 3.25 0 0 0 17 5.75H7A3.25 3.25 0 0 0 3.75 9v9.25Zm10 0h2.5V17a.25.25 0 0 0-.25-.25h-2a.25.25 0 0 0-.25.25v1.25ZM6.25 9A.75.75 0 0 1 7 8.25h5a.75.75 0 0 1 0 1.5H7A.75.75 0 0 1 6.25 9Z" fill="#868686"/>
</svg>
