<svg width="24" height="24" fill="none" xmlns="http://www.w3.org/2000/svg">
    <path fill-rule="evenodd" clip-rule="evenodd" d="M5.25 5v1.064C3.622 6.362 2.372 7.66 2.07 9.25h19.861c-.3-1.591-1.55-2.888-3.18-3.186V5A2.75 2.75 0 0 0 16 2.25H8A2.75 2.75 0 0 0 5.25 5ZM8 3.75c-.69 0-1.25.56-1.25 1.25v1h10.5V5c0-.69-.559-1.25-1.25-1.25H8ZM21.93 10.75H2.072l.011.058 1.635 8A3.972 3.972 0 0 0 7.6 22h8.8a3.973 3.973 0 0 0 3.882-3.192l1.635-8 .011-.058ZM9 13.25a.75.75 0 0 1 .75.75v4a.75.75 0 0 1-1.5 0v-4a.75.75 0 0 1 .75-.75Zm6.75.75a.75.75 0 0 0-1.5 0v4a.75.75 0 0 0 1.5 0v-4Z" fill="#868686"/>
</svg>
