<svg width="24" height="24" fill="none" xmlns="http://www.w3.org/2000/svg">
    <path fill-rule="evenodd" clip-rule="evenodd" d="M9 3.75c-.69 0-1.25.56-1.25 1.25v2a.75.75 0 0 1-1.5 0V5A2.75 2.75 0 0 1 9 2.25h11A2.75 2.75 0 0 1 22.75 5v9A2.75 2.75 0 0 1 20 16.75h-5a.75.75 0 0 1 0-1.5h5c.69 0 1.25-.56 1.25-1.25V5c0-.69-.56-1.25-1.25-1.25H9Zm1.25 3.75a.75.75 0 0 1 .75-.75h7a.75.75 0 0 1 0 1.5h-7a.75.75 0 0 1-.75-.75ZM7 10.75a1.25 1.25 0 1 0 0 2.5 1.25 1.25 0 0 0 0-2.5ZM4.25 12a2.75 2.75 0 1 1 5.5 0 2.75 2.75 0 0 1-5.5 0Zm9-.5a.75.75 0 0 1 .75-.75h4a.75.75 0 0 1 0 1.5h-4a.75.75 0 0 1-.75-.75ZM4 16.75c-.69 0-1.25.56-1.25 1.25v1c0 .69.56 1.25 1.25 1.25h6c.69 0 1.25-.56 1.25-1.25v-1c0-.69-.56-1.25-1.25-1.25h-.172c-.331 0-.649.132-.883.366a2.75 2.75 0 0 1-3.89 0 1.25 1.25 0 0 0-.883-.366H4ZM1.25 18A2.75 2.75 0 0 1 4 15.25h.172c.729 0 1.428.29 1.944.805a1.25 1.25 0 0 0 1.768 0 2.75 2.75 0 0 1 1.944-.805H10A2.75 2.75 0 0 1 12.75 18v1A2.75 2.75 0 0 1 10 21.75H4A2.75 2.75 0 0 1 1.25 19v-1Z" fill="#868686"/>
</svg>
