<svg width="24" height="24" fill="none" xmlns="http://www.w3.org/2000/svg">
    <path fill-rule="evenodd" clip-rule="evenodd" d="M19.613 4.387a2.175 2.175 0 0 0-3.076 0l-6.317 6.317a1.2 1.2 0 0 0-.34.679l-.16 1.126a2.7 2.7 0 0 1-.764 1.527l-4.997 4.998a.713.713 0 0 0 1.007 1.007l4.998-4.997a2.7 2.7 0 0 1 1.527-.764l1.126-.16a1.2 1.2 0 0 0 .679-.34l6.317-6.317c.85-.85.85-2.226 0-3.076Zm-4.137-1.06a3.675 3.675 0 0 1 5.198 5.197l-6.317 6.317a2.7 2.7 0 0 1-1.528.764l-1.126.16a1.2 1.2 0 0 0-.679.34l-4.997 4.997a2.213 2.213 0 1 1-3.129-3.13l4.997-4.996a1.2 1.2 0 0 0 .34-.68l.16-1.125a2.7 2.7 0 0 1 .764-1.528l6.317-6.317Z" fill="#868686"/>
    <path fill-rule="evenodd" clip-rule="evenodd" d="M5.47 15.47a.75.75 0 0 1 1.06 0l2 2a.75.75 0 1 1-1.06 1.06l-2-2a.75.75 0 0 1 0-1.06Z" fill="#868686"/>
</svg>
