<svg width="24" height="24" fill="none" xmlns="http://www.w3.org/2000/svg">
    <path fill-rule="evenodd" clip-rule="evenodd" d="M12 3.75c-2.795 0-5.621 1.038-8.23 3.168-.428.35-.513 1.018-.13 1.534l7.356 9.932c.5.675 1.51.675 2.009 0l.615-.83a.75.75 0 0 1 1.206.892l-.616.83a2.75 2.75 0 0 1-4.42 0L2.435 9.346c-.806-1.088-.729-2.677.388-3.589C5.662 3.436 8.816 2.25 12 2.25c3.184 0 6.338 1.187 9.178 3.506 1.117.912 1.194 2.501.388 3.589l-1.464 1.976a.75.75 0 1 1-1.205-.892l1.464-1.977c.382-.516.297-1.184-.132-1.534C17.622 4.788 14.796 3.75 12 3.75Z" fill="#868686"/>
    <path fill-rule="evenodd" clip-rule="evenodd" d="M17 9.25a.75.75 0 0 1 .75.75v4a.75.75 0 0 1-1.5 0v-4a.75.75 0 0 1 .75-.75ZM17 16.25a.75.75 0 0 1 .75.75v1a.75.75 0 0 1-1.5 0v-1a.75.75 0 0 1 .75-.75Z" fill="#868686"/>
</svg>
