<svg width="24" height="24" fill="none" xmlns="http://www.w3.org/2000/svg">
    <path fill-rule="evenodd" clip-rule="evenodd" d="M1.25 12c0-5.385 4.365-9.75 9.75-9.75h2c5.385 0 9.75 4.365 9.75 9.75s-4.365 9.75-9.75 9.75H6A4.75 4.75 0 0 1 1.25 17v-5ZM11 3.75A8.25 8.25 0 0 0 2.75 12v5A3.25 3.25 0 0 0 6 20.25h7a8.25 8.25 0 1 0 0-16.5h-2Zm1 5a1.25 1.25 0 1 0 0 2.5 1.25 1.25 0 0 0 0-2.5Zm2.122 3a2.75 2.75 0 1 0-4.244 0A4.75 4.75 0 0 0 7.25 16a.75.75 0 0 0 1.5 0 3.25 3.25 0 0 1 6.5 0 .75.75 0 0 0 1.5 0 4.75 4.75 0 0 0-2.628-4.25Z" fill="#868686"/>
</svg>
