<svg width="24" height="24" fill="none" xmlns="http://www.w3.org/2000/svg">
    <path fill-rule="evenodd" clip-rule="evenodd" d="M16.502 6.443a.75.75 0 0 1 .056 1.059L10.6 14.12l1.394 1.116a1.25 1.25 0 0 0 1.71-.14l7.738-8.598a.75.75 0 1 1 1.114 1.004l-7.737 8.597a2.75 2.75 0 0 1-3.762.308l-1.462-1.17-.776.862a2.75 2.75 0 0 1-3.762.308l-3.526-2.821a.75.75 0 0 1 .937-1.172l3.526 2.822a1.25 1.25 0 0 0 1.71-.14l.717-.798-.89-.712a.75.75 0 0 1 .937-1.172l.959.768 6.015-6.684a.75.75 0 0 1 1.059-.055Z" fill="#868686"/>
</svg>
