<svg width="24" height="24" fill="none" xmlns="http://www.w3.org/2000/svg">
    <path fill-rule="evenodd" clip-rule="evenodd" d="M6 2.75A2.25 2.25 0 0 0 3.75 5v14A2.25 2.25 0 0 0 6 21.25h4A2.25 2.25 0 0 0 12.25 19V5A2.25 2.25 0 0 0 10 2.75H6ZM2.25 5A3.75 3.75 0 0 1 6 1.25h4a3.751 3.751 0 0 1 3.675 3H14a7.75 7.75 0 0 1 0 15.5h-.325a3.751 3.751 0 0 1-3.675 3H6A3.75 3.75 0 0 1 2.25 19V5Zm11.5 13.25H14a6.25 6.25 0 1 0 0-12.5h-.25v2.5H14a3.75 3.75 0 1 1 0 7.5h-.25v2.5Zm0-4H14a2.25 2.25 0 0 0 0-4.5h-.25v4.5Z" fill="#868686"/>
</svg>
