<svg width="24" height="24" fill="none" xmlns="http://www.w3.org/2000/svg">
    <path fill-rule="evenodd" clip-rule="evenodd" d="M12 2.75A2.25 2.25 0 0 0 9.75 5v.25h4.5V5A2.25 2.25 0 0 0 12 2.75Zm3.75 2.5V5a3.75 3.75 0 1 0-7.5 0v.25H8A4.75 4.75 0 0 0 3.25 10v8A4.75 4.75 0 0 0 8 22.75h2.236a4.75 4.75 0 0 0 3.333-1.365l5.764-5.675a4.75 4.75 0 0 0 1.417-3.385V10A4.75 4.75 0 0 0 16 5.25h-.25Zm-1.5 1.5V8.5a.75.75 0 0 1-1.5 0V8a.75.75 0 0 0-1.5 0v.5a2.25 2.25 0 0 0 4.5 0V6.75H16A3.25 3.25 0 0 1 19.25 10v2.325c0 .316-.046.627-.134.925H16A4.75 4.75 0 0 0 11.25 18v3.088a3.251 3.251 0 0 1-1.014.162H8A3.25 3.25 0 0 1 4.75 18v-8A3.25 3.25 0 0 1 8 6.75h1c-.001 0 0 0 0 0h5.25Zm-1.5 13.336 5.42-5.336H16A3.25 3.25 0 0 0 12.75 18v2.086Z" fill="#868686"/>
</svg>
