<svg width="24" height="24" fill="none" xmlns="http://www.w3.org/2000/svg">
    <path fill-rule="evenodd" clip-rule="evenodd" d="M15.012 3.477a2.508 2.508 0 0 0-3.532 0 2.467 2.467 0 0 0 0 3.503l4.13 4.11a.553.553 0 0 0 .78 0l4.13-4.11a2.467 2.467 0 0 0 0-3.503 2.508 2.508 0 0 0-3.532 0l-.46.457a.75.75 0 0 1-1.057 0l-.459-.457ZM16 2.347a4.008 4.008 0 0 0-5.578.067 3.967 3.967 0 0 0 0 5.63l4.131 4.11c.8.795 2.094.795 2.894 0l4.131-4.11a3.967 3.967 0 0 0 0-5.63A4.008 4.008 0 0 0 16 2.346ZM1.25 10A.75.75 0 0 1 2 9.25h2a.75.75 0 0 1 .3.063l6.263 2.74a2.661 2.661 0 0 1-2.115 4.883l-1.743-.747a.75.75 0 0 1 .59-1.378l1.744.747a1.161 1.161 0 0 0 .923-2.131L3.843 10.75H2a.75.75 0 0 1-.75-.75Z" fill="#868686"/>
    <path fill-rule="evenodd" clip-rule="evenodd" d="m10.665 14.992 3.404 1.702a5.25 5.25 0 0 0 2.348.554H18a2.75 2.75 0 0 1 0 5.5H9.89a8.751 8.751 0 0 1-3.913-.923l-4.311-2.156a.75.75 0 1 1 .67-1.341l4.311 2.155a7.25 7.25 0 0 0 3.243.765H18a1.25 1.25 0 0 0 0-2.5h-1.583a6.75 6.75 0 0 1-3.02-.712l-3.403-1.702.67-1.342Z" fill="#868686"/>
</svg>
