<svg width="24" height="24" fill="none" xmlns="http://www.w3.org/2000/svg">
    <path fill-rule="evenodd" clip-rule="evenodd" d="M2.937 10.139h1.285a2.972 2.972 0 0 1 2.972 2.972c0 .813.66 1.472 1.473 1.472a2.972 2.972 0 1 1 0 5.945H8.41a9.22 9.22 0 0 0 3.59.722 9.24 9.24 0 0 0 7.655-4.056h-.988a2.972 2.972 0 0 1-2.973-2.972c0-.813-.659-1.472-1.472-1.472a2.972 2.972 0 0 1 0-5.944c.813 0 1.472-.66 1.472-1.473 0-.588.172-1.136.466-1.597A9.208 9.208 0 0 0 12 2.75c-4.471 0-8.202 3.173-9.063 7.389Zm14.503-5.62a1.464 1.464 0 0 0-.246.814 2.972 2.972 0 0 1-2.972 2.973 1.472 1.472 0 1 0 0 2.944 2.972 2.972 0 0 1 2.972 2.972c0 .813.66 1.472 1.473 1.472h1.816A9.217 9.217 0 0 0 21.25 12c0-3.074-1.5-5.799-3.81-7.482ZM5.985 19.027h2.682a1.472 1.472 0 0 0 0-2.945 2.972 2.972 0 0 1-2.973-2.972c0-.813-.659-1.472-1.472-1.472H2.757a9.228 9.228 0 0 0 3.228 7.389Zm-4.67-8.221C1.91 5.43 6.467 1.25 12 1.25A10.743 10.743 0 0 1 22.75 12c0 5.937-4.813 10.75-10.75 10.75-2.56 0-4.912-.895-6.758-2.39a10.73 10.73 0 0 1-3.926-9.553Z" fill="#868686"/>
</svg>
