<svg width="24" height="24" fill="none" xmlns="http://www.w3.org/2000/svg">
    <path fill-rule="evenodd" clip-rule="evenodd" d="M2.75 11.75h18.5V14a.75.75 0 0 0 1.5 0V7A4.75 4.75 0 0 0 18 2.25H6A4.75 4.75 0 0 0 1.25 7v10A4.75 4.75 0 0 0 6 21.75h7a.75.75 0 0 0 0-1.5H6A3.25 3.25 0 0 1 2.75 17v-5.25Zm15.25-8a3.251 3.251 0 0 1 3.163 2.5H2.837A3.251 3.251 0 0 1 6 3.75h12Zm-15.25 4h18.5v2.5H2.75v-2.5Z" fill="#868686"/>
    <path d="M6 18a1 1 0 1 0 0-2 1 1 0 0 0 0 2ZM22.564 17.494a.75.75 0 0 0-1.128-.988l-2.87 3.28a.25.25 0 0 1-.345.03l-1.753-1.402a.75.75 0 1 0-.937 1.172l1.753 1.402a1.75 1.75 0 0 0 2.41-.214l2.87-3.28Z" fill="#868686"/>
</svg>
