<svg width="24" height="24" fill="none" xmlns="http://www.w3.org/2000/svg">
    <path d="M16.314 6 14.4 3.45a.75.75 0 1 1 1.2-.9l2.596 3.46a4.005 4.005 0 0 1 3.634 3.24H2.17a4.005 4.005 0 0 1 3.635-3.24L8.4 2.55a.75.75 0 0 1 1.2.9L7.69 6h8.625Z" fill="#868686"/>
    <path fill-rule="evenodd" clip-rule="evenodd" d="M2.174 10.75h19.654a4.08 4.08 0 0 1-.045.205l-1.966 8A4 4 0 0 1 15.932 22H8.07a4 4 0 0 1-3.884-3.045l-1.967-8a4.101 4.101 0 0 1-.045-.205ZM12.001 14l.265-.265a1.875 1.875 0 0 1 2.652 2.651l-1.856 1.857a1.5 1.5 0 0 1-2.122 0l-1.856-1.857a1.875 1.875 0 0 1 2.652-2.651L12 14Z" fill="#868686"/>
</svg>
