<svg width="24" height="24" fill="none" xmlns="http://www.w3.org/2000/svg">
    <path fill-rule="evenodd" clip-rule="evenodd" d="M11.309 5.25c.36-2.267 2.323-4 4.691-4h2A4.75 4.75 0 0 1 22.75 6v2a4.751 4.751 0 0 1-4 4.691V18A4.75 4.75 0 0 1 14 22.75H6A4.75 4.75 0 0 1 1.25 18v-8A4.75 4.75 0 0 1 6 5.25h5.309Zm-.059 1.5H6A3.25 3.25 0 0 0 2.75 10v8A3.25 3.25 0 0 0 6 21.25h8A3.25 3.25 0 0 0 17.25 18v-5.25H16A4.75 4.75 0 0 1 11.25 8V6.75Zm4.75-4A3.25 3.25 0 0 0 12.75 6v2A3.25 3.25 0 0 0 16 11.25h2A3.25 3.25 0 0 0 21.25 8V6A3.25 3.25 0 0 0 18 2.75h-2Z" fill="#868686"/>
    <path fill-rule="evenodd" clip-rule="evenodd" d="M8.81 16.25H12a.75.75 0 0 1 0 1.5H7a.75.75 0 0 1-.75-.75v-5a.75.75 0 0 1 1.5 0v3.19l4.72-4.72a.75.75 0 1 1 1.06 1.06l-4.72 4.72Z" fill="#868686"/>
</svg>
