<svg width="24" height="24" fill="none" xmlns="http://www.w3.org/2000/svg">
    <path fill-rule="evenodd" clip-rule="evenodd" d="M12.47 9.846a1.2 1.2 0 0 0-.941 0l-8.011 3.41c-.702.298-.993 1.185-.576 1.867l3.129 5.126-1.28.782-3.13-5.126c-.881-1.445-.294-3.365 1.27-4.03l8.01-3.409a2.7 2.7 0 0 1 2.117 0l8.011 3.409c1.563.665 2.151 2.585 1.27 4.03l-3.13 5.126-1.28-.782 3.129-5.126c.416-.682.125-1.57-.576-1.868L12.47 9.846Z" fill="#868686"/>
    <path fill-rule="evenodd" clip-rule="evenodd" d="M5.25 4A2.75 2.75 0 0 1 8 1.25h8A2.75 2.75 0 0 1 18.75 4v7h-1.5V4c0-.69-.56-1.25-1.25-1.25H8c-.69 0-1.25.56-1.25 1.25v7h-1.5V4Z" fill="#868686"/>
    <path fill-rule="evenodd" clip-rule="evenodd" d="M13.75 5a.75.75 0 0 1-.75.75h-2a.75.75 0 0 1 0-1.5h2a.75.75 0 0 1 .75.75ZM2.376 22.416a.75.75 0 0 0 1.04.208l1.532-1.022a1.831 1.831 0 0 1 2.067.024 3.332 3.332 0 0 0 3.699.081l.185-.118a2 2 0 0 1 2.176.03 3.468 3.468 0 0 0 3.84.005 1.954 1.954 0 0 1 2.169 0l1.5 1a.75.75 0 1 0 .832-1.248l-1.5-1a3.454 3.454 0 0 0-3.832 0 1.968 1.968 0 0 1-2.177-.006 3.5 3.5 0 0 0-3.813-.046l-.185.118a1.832 1.832 0 0 1-2.034-.045 3.332 3.332 0 0 0-3.759-.043l-1.532 1.022a.75.75 0 0 0-.208 1.04Z" fill="#868686"/>
</svg>
