<svg width="24" height="24" fill="none" xmlns="http://www.w3.org/2000/svg">
    <path fill-rule="evenodd" clip-rule="evenodd" d="M18 11.25c2.02 0 3.25-1.611 3.25-3.195 0-.787-.339-1.629-.87-2.45-.526-.812-1.198-1.54-1.766-2.083a.872.872 0 0 0-1.228 0c-.568.544-1.24 1.271-1.766 2.084-.531.82-.87 1.662-.87 2.449 0 1.584 1.23 3.194 3.25 3.194Zm4.75-3.195c0 2.304-1.799 4.694-4.75 4.694s-4.75-2.39-4.75-4.694c0-1.197.504-2.327 1.11-3.264.613-.947 1.375-1.765 1.99-2.353a2.371 2.371 0 0 1 3.3 0c.615.588 1.377 1.406 1.99 2.353.606.937 1.11 2.067 1.11 3.264ZM1.25 10A.75.75 0 0 1 2 9.25h2a.75.75 0 0 1 .3.062l6.263 2.74a2.661 2.661 0 0 1-2.115 4.884l-1.743-.747a.75.75 0 0 1 .59-1.38l1.744.748a1.161 1.161 0 0 0 .923-2.131l-6.119-2.677H2a.75.75 0 0 1-.75-.75Z" fill="#868686"/>
    <path fill-rule="evenodd" clip-rule="evenodd" d="m10.665 14.991 3.404 1.702a5.25 5.25 0 0 0 2.348.555H18a2.75 2.75 0 0 1 0 5.5H9.89a8.75 8.75 0 0 1-3.913-.924l-4.311-2.156a.75.75 0 0 1 .67-1.341l4.311 2.155a7.25 7.25 0 0 0 3.243.766H18a1.25 1.25 0 0 0 0-2.5h-1.583a6.75 6.75 0 0 1-3.02-.713l-3.403-1.702.67-1.342Z" fill="#868686"/>
</svg>
