<svg width="24" height="24" fill="none" xmlns="http://www.w3.org/2000/svg">
    <path fill-rule="evenodd" clip-rule="evenodd" d="M12 2.75a9.25 9.25 0 1 0 2.056 18.27.75.75 0 1 1 .332 1.464A10.78 10.78 0 0 1 12 22.75C6.063 22.75 1.25 17.937 1.25 12S6.063 1.25 12 1.25 22.75 6.063 22.75 12c0 .82-.092 1.62-.266 2.388a.75.75 0 1 1-1.463-.332A9.25 9.25 0 0 0 12 2.75Zm-3.75 7.677c0-1.673 1.76-2.76 3.256-2.012l3.146 1.573c1.659.829 1.659 3.195 0 4.024l-3.146 1.573c-1.496.748-3.256-.34-3.256-2.012v-3.146Zm2.585-.67a.75.75 0 0 0-1.085.67v3.146a.75.75 0 0 0 1.085.67l3.146-1.572a.75.75 0 0 0 0-1.342l-3.146-1.573Zm6.635 7.713a.75.75 0 0 1 1.06 0L20 18.94l1.47-1.47a.75.75 0 1 1 1.06 1.06L21.06 20l1.47 1.47a.75.75 0 1 1-1.06 1.06L20 21.06l-1.47 1.47a.75.75 0 1 1-1.06-1.06L18.94 20l-1.47-1.47a.75.75 0 0 1 0-1.06Z" fill="#868686"/>
</svg>
