<svg width="24" height="24" fill="none" xmlns="http://www.w3.org/2000/svg">
    <path d="M11 17a1 1 0 1 1 2 0 1 1 0 0 1-2 0Z" fill="#868686"/>
    <path fill-rule="evenodd" clip-rule="evenodd" d="M13.33 3.044a3.114 3.114 0 0 0-2.643 0L5.65 5.391a3.287 3.287 0 0 0-1.894 3.145c.178 3.202.71 5.424 1.726 7.238 1.016 1.815 2.554 3.295 4.88 4.946.996.706 2.301.707 3.294.001 2.331-1.657 3.858-3.152 4.864-4.97 1.007-1.818 1.531-4.032 1.725-7.197a3.296 3.296 0 0 0-1.896-3.173L13.33 3.044Zm-3.276-1.36a4.614 4.614 0 0 1 3.909 0l5.018 2.338a4.796 4.796 0 0 1 2.76 4.624c-.2 3.277-.752 5.74-1.91 7.832-1.16 2.094-2.886 3.745-5.306 5.465a4.325 4.325 0 0 1-5.031 0c-2.41-1.71-4.151-3.344-5.322-5.436-1.17-2.092-1.73-4.567-1.915-7.888a4.787 4.787 0 0 1 2.759-4.588l5.038-2.347ZM12 6.25a.75.75 0 0 1 .75.75v7a.75.75 0 0 1-1.5 0V7a.75.75 0 0 1 .75-.75Z" fill="#868686"/>
</svg>
