<svg width="24" height="24" fill="none" xmlns="http://www.w3.org/2000/svg">
    <path fill-rule="evenodd" clip-rule="evenodd" d="M8 2.75A3.25 3.25 0 0 0 4.75 6v12A3.25 3.25 0 0 0 8 21.25h10A3.25 3.25 0 0 0 21.25 18V8.657a3.25 3.25 0 0 0-.952-2.298l-2.657-2.657a3.25 3.25 0 0 0-2.298-.952H8ZM3.25 6A4.75 4.75 0 0 1 8 1.25h7.343c1.26 0 2.468.5 3.359 1.391l2.657 2.657a4.75 4.75 0 0 1 1.391 3.359V18A4.75 4.75 0 0 1 18 22.75H8A4.75 4.75 0 0 1 3.25 18V6Z" fill="#868686"/>
    <path fill-rule="evenodd" clip-rule="evenodd" d="M8.25 7A.75.75 0 0 1 9 6.25h8a.75.75 0 0 1 0 1.5H9A.75.75 0 0 1 8.25 7ZM8.25 12a.75.75 0 0 1 .75-.75h8a.75.75 0 0 1 0 1.5H9a.75.75 0 0 1-.75-.75ZM8.25 17a.75.75 0 0 1 .75-.75h4a.75.75 0 0 1 0 1.5H9a.75.75 0 0 1-.75-.75Z" fill="#868686"/>
</svg>
