<svg width="24" height="24" fill="none" xmlns="http://www.w3.org/2000/svg">
    <path fill-rule="evenodd" clip-rule="evenodd" d="M18 3.25a4.75 4.75 0 1 0 0 9.5 4.75 4.75 0 0 0 0-9.5ZM14.75 8a3.25 3.25 0 1 1 6.5 0 3.25 3.25 0 0 1-6.5 0Z" fill="#868686"/>
    <path d="M1.25 8A.75.75 0 0 1 2 7.25h2a.75.75 0 0 1 .3.063l6.263 2.74a2.661 2.661 0 0 1 1.345 3.563l2.16 1.08a5.25 5.25 0 0 0 2.349.554H18a2.75 2.75 0 0 1 0 5.5H9.89a8.75 8.75 0 0 1-3.913-.923L1.665 17.67a.75.75 0 0 1 .67-1.341l4.311 2.155a7.25 7.25 0 0 0 3.243.765H18a1.25 1.25 0 0 0 0-2.5h-1.583a6.75 6.75 0 0 1-3.02-.712l-2.53-1.266a2.657 2.657 0 0 1-2.419.165l-1.743-.748a.75.75 0 0 1 .59-1.378l1.744.747a1.161 1.161 0 0 0 .923-2.131L3.843 8.75H2A.75.75 0 0 1 1.25 8Z" fill="#868686"/>
</svg>
