<svg width="24" height="24" fill="none" xmlns="http://www.w3.org/2000/svg">
    <path fill-rule="evenodd" clip-rule="evenodd" d="M7.25 5.25V5A3.75 3.75 0 0 1 11 1.25h2A3.75 3.75 0 0 1 16.75 5v.25H18A4.75 4.75 0 0 1 22.75 10v8A4.75 4.75 0 0 1 18 22.75H6A4.75 4.75 0 0 1 1.25 18v-8A4.75 4.75 0 0 1 6 5.25h1.25ZM8.75 5A2.25 2.25 0 0 1 11 2.75h2A2.25 2.25 0 0 1 15.25 5v.25h-6.5V5Zm12.5 5v2.25h-7.395a2 2 0 0 0-3.71 0H2.75V10A3.25 3.25 0 0 1 6 6.75h12A3.25 3.25 0 0 1 21.25 10Zm-11.105 3.75H2.75V18A3.25 3.25 0 0 0 6 21.25h12A3.25 3.25 0 0 0 21.25 18v-4.25h-7.395a2 2 0 0 1-3.71 0Z" fill="#868686"/>
</svg>
