<svg width="24" height="24" fill="none" xmlns="http://www.w3.org/2000/svg">
    <path d="M12.75 18a.75.75 0 1 1-1.5 0 .75.75 0 0 1 1.5 0Z" fill="#868686"/>
    <path fill-rule="evenodd" clip-rule="evenodd" d="M12 2.75A3.25 3.25 0 0 0 8.75 6v1.25h6.5V6A3.25 3.25 0 0 0 12 2.75Zm4.75 4.559V6a4.75 4.75 0 1 0-9.5 0v1.309c-2.267.36-4 2.323-4 4.691v6A4.75 4.75 0 0 0 8 22.75h8A4.75 4.75 0 0 0 20.75 18v-6a4.751 4.751 0 0 0-4-4.691ZM8 8.75A3.25 3.25 0 0 0 4.75 12v6A3.25 3.25 0 0 0 8 21.25h8A3.25 3.25 0 0 0 19.25 18v-6A3.25 3.25 0 0 0 16 8.75H8Zm4 4c-1.45 0-2.761.587-3.712 1.538a.75.75 0 1 1-1.061-1.061A6.731 6.731 0 0 1 12 11.25c1.864 0 3.552.756 4.773 1.977a.75.75 0 0 1-1.06 1.06A5.231 5.231 0 0 0 12 12.75Zm0 3a2.24 2.24 0 0 0-1.591.659.75.75 0 1 1-1.06-1.06A3.74 3.74 0 0 1 12 14.25a3.74 3.74 0 0 1 2.652 1.098.75.75 0 0 1-1.061 1.061A2.24 2.24 0 0 0 12 15.75Z" fill="#868686"/>
</svg>
