<svg width="24" height="24" fill="none" xmlns="http://www.w3.org/2000/svg">
    <path fill-rule="evenodd" clip-rule="evenodd" d="M6 2.75A3.25 3.25 0 0 0 2.75 6v7.616l2.627 1.891a3.25 3.25 0 0 0 4.073-.221l4.096-3.687a4.75 4.75 0 0 1 5.953-.324l1.751 1.26V10a.75.75 0 1 1 1.5 0v8A4.75 4.75 0 0 1 18 22.75H6A4.75 4.75 0 0 1 1.25 18V6A4.75 4.75 0 0 1 6 1.25h6a.75.75 0 0 1 0 1.5H6ZM2.75 15.464V18A3.25 3.25 0 0 0 6 21.25h12A3.25 3.25 0 0 0 21.25 18v-3.616l-2.627-1.891a3.25 3.25 0 0 0-4.073.221l-4.096 3.687a4.75 4.75 0 0 1-5.953.324l-1.75-1.26ZM17.682 3.11a1.045 1.045 0 0 0-1.577 0c-.473.512-.473 1.364 0 1.876L17.98 7.01a.686.686 0 0 0 1.04 0l1.875-2.026c.473-.512.473-1.364 0-1.876a1.045 1.045 0 0 0-1.577 0l-.267.29a.75.75 0 0 1-1.101 0l-.268-.29Zm.818-1.284c-1.043-.847-2.55-.758-3.496.265C14 3.177 14 4.917 15.004 6.003l1.874 2.027c.889.96 2.355.96 3.244 0l1.874-2.027c1.005-1.086 1.005-2.826 0-3.913-.947-1.023-2.453-1.112-3.496-.265ZM8.5 6.75a1.75 1.75 0 1 0 0 3.5 1.75 1.75 0 0 0 0-3.5ZM5.25 8.5a3.25 3.25 0 1 1 6.5 0 3.25 3.25 0 0 1-6.5 0Z" fill="#868686"/>
</svg>
