<svg width="24" height="24" fill="none" xmlns="http://www.w3.org/2000/svg">
    <path fill-rule="evenodd" clip-rule="evenodd" d="M11.25 5a.75.75 0 0 1 .75-.75h4a.75.75 0 0 1 0 1.5h-4a.75.75 0 0 1-.75-.75Z" fill="#868686"/>
    <path fill-rule="evenodd" clip-rule="evenodd" d="M14.206 4.279a.75.75 0 0 1 .515.927l-4 14a.75.75 0 0 1-1.442-.412l4-14a.75.75 0 0 1 .927-.515Z" fill="#868686"/>
    <path fill-rule="evenodd" clip-rule="evenodd" d="M7.25 19a.75.75 0 0 1 .75-.75h4a.75.75 0 0 1 0 1.5H8a.75.75 0 0 1-.75-.75Z" fill="#868686"/>
</svg>
