<svg width="24" height="24" fill="none" xmlns="http://www.w3.org/2000/svg">
    <path fill-rule="evenodd" clip-rule="evenodd" d="M7 1.25h4.343c1.26 0 2.468.5 3.359 1.391l5.657 5.657a4.75 4.75 0 0 1 1.391 3.359V18A4.75 4.75 0 0 1 17 22.75H7A4.75 4.75 0 0 1 2.25 18V6A4.75 4.75 0 0 1 7 1.25Zm4.343 1.5H7A3.25 3.25 0 0 0 3.75 6v12A3.25 3.25 0 0 0 7 21.25h10A3.25 3.25 0 0 0 20.25 18v-6.343c0-.31-.044-.615-.13-.907H17A4.75 4.75 0 0 1 12.25 6V2.88a3.249 3.249 0 0 0-.907-.13Zm2.407 1.06V6A3.25 3.25 0 0 0 17 9.25h2.19l-5.44-5.44Z" fill="#868686"/>
    <path d="M6.438 18v-4.295h1.391c.527 0 .871.022 1.031.065.246.064.453.205.619.421.166.215.249.494.249.835 0 .264-.048.486-.144.665-.096.18-.218.322-.366.425a1.255 1.255 0 0 1-.448.202 4.952 4.952 0 0 1-.9.062h-.565V18h-.867Zm.867-3.568v1.218h.474c.342 0 .57-.022.686-.067a.571.571 0 0 0 .37-.545.555.555 0 0 0-.139-.387.6.6 0 0 0-.348-.19 4.173 4.173 0 0 0-.624-.03h-.42ZM10.437 13.705h1.585c.357 0 .63.027.817.082.252.074.468.206.647.396.18.19.317.421.41.697.094.273.141.611.141 1.014 0 .353-.044.658-.132.914-.107.312-.26.565-.46.758-.15.147-.353.261-.61.343-.19.06-.446.091-.767.091h-1.631v-4.295Zm.867.727v2.844h.647c.242 0 .417-.013.525-.04a.79.79 0 0 0 .348-.18c.094-.083.17-.221.229-.412.058-.194.088-.456.088-.788 0-.333-.03-.587-.088-.765a.983.983 0 0 0-.246-.416.824.824 0 0 0-.402-.202c-.12-.028-.358-.041-.712-.041h-.39ZM14.781 18v-4.295h2.945v.727h-2.078v1.016h1.793v.727h-1.793V18h-.867Z" fill="#868686"/>
</svg>
