<svg width="24" height="24" fill="none" xmlns="http://www.w3.org/2000/svg">
    <path fill-rule="evenodd" clip-rule="evenodd" d="M7 2.75A3.25 3.25 0 0 0 3.75 6v12A3.25 3.25 0 0 0 7 21.25h10A3.25 3.25 0 0 0 20.25 18V9.361a.75.75 0 0 1 1.5 0V18A4.75 4.75 0 0 1 17 22.75H7A4.75 4.75 0 0 1 2.25 18V6A4.75 4.75 0 0 1 7 1.25h6.446a.75.75 0 0 1 0 1.5H7Z" fill="#868686"/>
    <path fill-rule="evenodd" clip-rule="evenodd" d="M7.25 7A.75.75 0 0 1 8 6.25h4a.75.75 0 0 1 0 1.5H8A.75.75 0 0 1 7.25 7ZM7.25 12a.75.75 0 0 1 .75-.75h8a.75.75 0 0 1 0 1.5H8a.75.75 0 0 1-.75-.75ZM7.25 17a.75.75 0 0 1 .75-.75h8a.75.75 0 0 1 0 1.5H8a.75.75 0 0 1-.75-.75ZM18 1.25a.75.75 0 0 1 .75.75v6a.75.75 0 0 1-1.5 0V2a.75.75 0 0 1 .75-.75Z" fill="#868686"/>
    <path fill-rule="evenodd" clip-rule="evenodd" d="M21.75 5a.75.75 0 0 1-.75.75h-6a.75.75 0 0 1 0-1.5h6a.75.75 0 0 1 .75.75Z" fill="#868686"/>
</svg>
