<svg width="24" height="24" fill="none" xmlns="http://www.w3.org/2000/svg">
    <path fill-rule="evenodd" clip-rule="evenodd" d="M2.75 1.25a.75.75 0 0 0 0 1.5h2C5.44 2.75 6 3.31 6 4v9a4 4 0 0 0 4 4h8a4 4 0 0 0 4-4V8a4 4 0 0 0-4-4H7.5a2.75 2.75 0 0 0-2.75-2.75h-2ZM11 7.75a.75.75 0 0 0 0 1.5h6a.75.75 0 0 0 0-1.5h-6Zm-.75 4.75a.75.75 0 0 1 .75-.75h6a.75.75 0 0 1 0 1.5h-6a.75.75 0 0 1-.75-.75Z" fill="#868686"/>
    <path d="M9.5 22a1.5 1.5 0 1 0 0-3 1.5 1.5 0 0 0 0 3ZM20 20.5a1.5 1.5 0 1 1-3 0 1.5 1.5 0 0 1 3 0Z" fill="#868686"/>
</svg>
