<svg width="24" height="24" fill="none" xmlns="http://www.w3.org/2000/svg">
    <path fill-rule="evenodd" clip-rule="evenodd" d="M8.703 4.14c1.46-2.52 5.135-2.52 6.595 0l6.945 11.984c1.461 2.52-.396 5.626-3.297 5.626H5.056c-2.902 0-4.759-3.105-3.298-5.626L8.703 4.139ZM14 4.891c-.882-1.523-3.117-1.523-3.999 0L8.055 8.25h7.891L14 4.892ZM4.578 14.25l2.607-4.5h9.63l2.608 4.5H4.579Zm-.87 1.5-.652 1.126c-.863 1.49.217 3.374 2 3.374h13.89c1.782 0 2.862-1.885 2-3.374l-.653-1.126H3.708Z" fill="#868686"/>
</svg>
