<svg width="24" height="24" fill="none" xmlns="http://www.w3.org/2000/svg">
    <path d="M12.75 2.75a.75.75 0 0 0-1.5 0v2a.75.75 0 0 0 1.5 0v-2ZM3.53 5.22a.75.75 0 0 0-1.06 1.06l1.5 1.5a.75.75 0 0 0 1.06-1.06l-1.5-1.5ZM21.53 6.28a.75.75 0 0 0-1.06-1.06l-1.5 1.5a.75.75 0 0 0 1.06 1.06l1.5-1.5Z" fill="#868686"/>
    <path fill-rule="evenodd" clip-rule="evenodd" d="M20.877 12.321c1.497 1.433 1.497 3.925 0 5.358C18.813 19.655 15.604 22 12 22c-3.604 0-6.813-2.345-8.877-4.321-1.497-1.433-1.497-3.925 0-5.358 2.064-1.975 5.273-4.32 8.877-4.32 3.604 0 6.813 2.345 8.877 4.32ZM15 15.001a3 3 0 1 1-6 0 3 3 0 0 1 6 0Z" fill="#868686"/>
</svg>
