<svg width="24" height="24" fill="none" xmlns="http://www.w3.org/2000/svg">
    <path fill-rule="evenodd" clip-rule="evenodd" d="M1.25 12c0-5.385 4.365-9.75 9.75-9.75h2c.286 0 .568.012.848.036a.75.75 0 0 1-.129 1.495A8.367 8.367 0 0 0 13 3.75h-2A8.25 8.25 0 0 0 2.75 12v5A3.25 3.25 0 0 0 6 20.25h7a8.25 8.25 0 0 0 8.22-8.969.75.75 0 1 1 1.494-.129c.024.28.036.563.036.848 0 5.385-4.365 9.75-9.75 9.75H6A4.75 4.75 0 0 1 1.25 17v-5ZM19 3.75a2.25 2.25 0 1 0 0 4.5 2.25 2.25 0 0 0 0-4.5ZM15.25 6a3.75 3.75 0 1 1 7.5 0 3.75 3.75 0 0 1-7.5 0Zm-8 4A.75.75 0 0 1 8 9.25h4a.75.75 0 0 1 0 1.5H8a.75.75 0 0 1-.75-.75Zm0 4a.75.75 0 0 1 .75-.75h8a.75.75 0 0 1 0 1.5H8a.75.75 0 0 1-.75-.75Z" fill="#868686"/>
</svg>
