<svg width="24" height="24" fill="none" xmlns="http://www.w3.org/2000/svg">
    <path fill-rule="evenodd" clip-rule="evenodd" d="M6.25 5A2.75 2.75 0 0 1 9 2.25h6A2.75 2.75 0 0 1 17.75 5v5.804a7.75 7.75 0 1 1-11.5 0V5Zm1.5 4.518A7.714 7.714 0 0 1 12 8.25c1.57 0 3.03.466 4.25 1.268V5c0-.69-.56-1.25-1.25-1.25H9c-.69 0-1.25.56-1.25 1.25v4.518ZM12 9.75a6.25 6.25 0 1 0 0 12.5 6.25 6.25 0 0 0 0-12.5Zm-10.53.72a.75.75 0 0 1 1.06 0l1 1a.75.75 0 1 1-1.06 1.06l-1-1a.75.75 0 0 1 0-1.06Zm20 0a.75.75 0 1 1 1.06 1.06l-1 1a.75.75 0 1 1-1.06-1.06l1-1Zm-9.076 1.892a.75.75 0 0 1 .356.638v5.25H13a.75.75 0 0 1 0 1.5h-2a.75.75 0 0 1 0-1.5h.25v-4.043a.75.75 0 0 1-.585-1.378l1-.5a.75.75 0 0 1 .73.033ZM3.53 19.47a.75.75 0 0 1 0 1.06l-1 1a.75.75 0 0 1-1.06-1.06l1-1a.75.75 0 0 1 1.06 0Zm16.94 0a.75.75 0 0 1 1.06 0l1 1a.75.75 0 1 1-1.06 1.06l-1-1a.75.75 0 0 1 0-1.06Z" fill="#868686"/>
</svg>
