<svg width="24" height="24" fill="none" xmlns="http://www.w3.org/2000/svg">
    <path fill-rule="evenodd" clip-rule="evenodd" d="M1.25 6A4.75 4.75 0 0 1 6 1.25h12A4.75 4.75 0 0 1 22.75 6v12A4.75 4.75 0 0 1 18 22.75H6A4.75 4.75 0 0 1 1.25 18V6ZM6 2.75A3.25 3.25 0 0 0 2.75 6v12A3.25 3.25 0 0 0 6 21.25h12A3.25 3.25 0 0 0 21.25 18V6A3.25 3.25 0 0 0 18 2.75H6Z" fill="#868686"/>
    <path fill-rule="evenodd" clip-rule="evenodd" d="M13.47 6.47a.75.75 0 0 1 1.06 0l2 2A.75.75 0 0 1 16 9.75h-6c-.69 0-1.25.56-1.25 1.25v1a.75.75 0 0 1-1.5 0v-1A2.75 2.75 0 0 1 10 8.25h4.19l-.72-.72a.75.75 0 0 1 0-1.06ZM10.53 17.53a.75.75 0 0 1-1.06 0l-2-2A.75.75 0 0 1 8 14.25h6c.69 0 1.25-.56 1.25-1.25v-1a.75.75 0 0 1 1.5 0v1A2.75 2.75 0 0 1 14 15.75H9.81l.72.72a.75.75 0 0 1 0 1.06Z" fill="#868686"/>
</svg>
