<svg width="24" height="24" fill="none" xmlns="http://www.w3.org/2000/svg">
    <path fill-rule="evenodd" clip-rule="evenodd" d="M3 18V6a4 4 0 0 1 4-4h4.343a4 4 0 0 1 .907.104V6A4.75 4.75 0 0 0 17 10.75h3.896c.069.295.104.6.104.907V18a4 4 0 0 1-4 4H7a4 4 0 0 1-4-4Zm7-4.197v2.394c0 1.198 1.335 1.913 2.332 1.248l1.796-1.197a1.5 1.5 0 0 0 0-2.496l-1.796-1.197c-.997-.665-2.332.05-2.332 1.248Z" fill="#868686"/>
    <path d="M13.75 6V2.805c.148.112.289.234.422.367l5.656 5.656c.133.133.255.274.367.422H17A3.25 3.25 0 0 1 13.75 6Z" fill="#868686"/>
</svg>
