<svg width="24" height="24" fill="none" xmlns="http://www.w3.org/2000/svg">
    <path fill-rule="evenodd" clip-rule="evenodd" d="M17 7.14a5 5 0 0 0-10 0c0 2.762 5 7 5 7s5-4.238 5-7Zm-3.5 0a1.5 1.5 0 1 1-3 0 1.5 1.5 0 0 1 3 0Z" fill="#868686"/>
    <path d="M5.56 6.25a6.469 6.469 0 0 0-.06.89c0 1.098.478 2.164.993 3.028.536.898 1.228 1.766 1.886 2.505a29.61 29.61 0 0 0 1.813 1.855l1.058.944v6.386c-1.901-1.259-4.505-1.835-6.455-2.053C3.807 19.695 3 18.879 3 17.874V7.86c0-1.006.807-1.82 1.795-1.71.246.027.502.06.766.1ZM12.75 21.858v-6.386l1.059-.944c.49-.46 1.148-1.11 1.812-1.855.658-.74 1.35-1.607 1.886-2.505.515-.864.993-1.93.993-3.027a6.55 6.55 0 0 0-.06-.89c.263-.04.52-.073.765-.1.988-.11 1.795.704 1.795 1.71v10.013c0 1.005-.807 1.82-1.795 1.93-1.95.219-4.554.795-6.455 2.055Z" fill="#868686"/>
</svg>
