<svg width="24" height="24" fill="none" xmlns="http://www.w3.org/2000/svg">
    <path d="M16.75 19.83c1.692-.456 3.539-1.724 4.528-2.471A1.86 1.86 0 0 0 22 15.863v-9.67c0-.853-1.028-1.348-1.736-.872-1 .672-2.297 1.42-3.514 1.747v12.76ZM12 18.38c-.986-.75-1.972-1.5-3.25-1.606V4.014c1.278.106 2.264.856 3.25 1.607.986.75 1.972 1.5 3.25 1.606v12.76c-1.278-.106-2.264-.856-3.25-1.606ZM2.722 6.643c.99-.748 2.836-2.015 4.528-2.471v12.76c-1.217.328-2.514 1.075-3.514 1.748-.708.476-1.736-.02-1.736-.873v-9.67c0-.584.255-1.141.722-1.494Z" fill="#868686"/>
</svg>
