<svg width="24" height="24" fill="none" xmlns="http://www.w3.org/2000/svg">
    <path fill-rule="evenodd" clip-rule="evenodd" d="M8 2.75c-.69 0-1.25.56-1.25 1.25v.5a.75.75 0 0 1-1.5 0V4A2.75 2.75 0 0 1 8 1.25h12A2.75 2.75 0 0 1 22.75 4v6A2.75 2.75 0 0 1 20 12.75h-1a.75.75 0 0 1 0-1.5h1c.69 0 1.25-.56 1.25-1.25V4c0-.69-.56-1.25-1.25-1.25H8ZM9.25 6a.75.75 0 0 1 .75-.75h8a.75.75 0 0 1 0 1.5h-8A.75.75 0 0 1 9.25 6ZM5 7.75a1.25 1.25 0 1 0 0 2.5 1.25 1.25 0 0 0 0-2.5ZM2.25 9a2.75 2.75 0 1 1 5.5 0 2.75 2.75 0 0 1-5.5 0Zm15.153-.633a.75.75 0 0 1 .23 1.036l-3.618 5.685c.47.997.128 2.207-.826 2.803l-.022.014-4.03 2.143a2.781 2.781 0 0 1-.387.197V22a.75.75 0 0 1-1.5 0v-1.586a2.743 2.743 0 0 1-1.933-1.348l-.968-1.694a.75.75 0 0 1 1.302-.744l.968 1.694a1.25 1.25 0 0 0 1.748.44l.022-.015 4.023-2.14a.701.701 0 0 0-.767-1.174l-.026.017-3.27 1.714A.75.75 0 0 1 7.25 16.5V16a2.25 2.25 0 0 0-4.5 0v6a.75.75 0 0 1-1.5 0v-6a3.75 3.75 0 0 1 7.434-.705l2.186-1.146a2.2 2.2 0 0 1 2.05-.135l3.447-5.417a.75.75 0 0 1 1.036-.23ZM9.25 9a.75.75 0 0 1 .75-.75h4a.75.75 0 0 1 0 1.5h-4A.75.75 0 0 1 9.25 9Z" fill="#868686"/>
</svg>
