<svg width="24" height="24" fill="none" xmlns="http://www.w3.org/2000/svg">
    <path fill-rule="evenodd" clip-rule="evenodd" d="M4 2.75a1.25 1.25 0 1 0 0 2.5 1.25 1.25 0 0 0 0-2.5ZM1.25 4a2.75 2.75 0 1 1 5.5 0 2.75 2.75 0 0 1-5.5 0ZM1.25 8.5A.75.75 0 0 1 2 7.75h4a.75.75 0 0 1 .75.75V22a.75.75 0 0 1-.75.75H2a.75.75 0 0 1-.75-.75V8.5Zm1.5.75v12h2.5v-12h-2.5ZM8.25 8.5A.75.75 0 0 1 9 7.75h4a.75.75 0 0 1 .738.618A6.75 6.75 0 0 1 21.75 15v7a.75.75 0 0 1-.75.75h-4a.75.75 0 0 1-.75-.75v-7a1.25 1.25 0 1 0-2.5 0v7a.75.75 0 0 1-.75.75H9a.75.75 0 0 1-.75-.75V8.5Zm1.5 12.75h2.5V15a2.75 2.75 0 1 1 5.5 0v6.25h2.5V15a5.25 5.25 0 0 0-7-4.951.75.75 0 0 1-1-.708V9.25h-2.5v12Z" fill="#868686"/>
</svg>
