<svg width="24" height="24" fill="none" xmlns="http://www.w3.org/2000/svg">
    <path fill-rule="evenodd" clip-rule="evenodd" d="M3.47 3.47a.75.75 0 0 1 1.06 0l16 16a.75.75 0 1 1-1.06 1.06l-16-16a.75.75 0 0 1 0-1.06Z" fill="#868686"/>
    <path fill-rule="evenodd" clip-rule="evenodd" d="M14.245 1.291A.75.75 0 0 1 14.75 2v7.75H19a.75.75 0 0 1 .59 1.212l-1.975 2.525a.75.75 0 1 1-1.181-.925l1.027-1.312H14a.75.75 0 0 1-.75-.75V4.175L11.078 6.95a.75.75 0 1 1-1.18-.924l3.511-4.488a.75.75 0 0 1 .835-.247Zm-5.051 6.85a.75.75 0 0 1 .128 1.053L6.54 12.75H10a.75.75 0 0 1 .75.75v6.325l3.928-5.019a.75.75 0 1 1 1.18.925l-5.267 6.731A.75.75 0 0 1 9.25 22v-7.75H5a.75.75 0 0 1-.59-1.212L8.14 8.27a.75.75 0 0 1 1.053-.129Z" fill="#868686"/>
</svg>
