<svg width="24" height="24" fill="none" xmlns="http://www.w3.org/2000/svg">
    <path fill-rule="evenodd" clip-rule="evenodd" d="M12 2.75c-1.45 0-2.761.587-3.712 1.538a.75.75 0 0 1-1.061-1.061A6.731 6.731 0 0 1 12 1.25c1.864 0 3.552.756 4.773 1.977a.75.75 0 0 1-1.06 1.06A5.231 5.231 0 0 0 12 2.75Zm0 3a2.24 2.24 0 0 0-1.591.659.75.75 0 0 1-1.06-1.06A3.74 3.74 0 0 1 12 4.25a3.74 3.74 0 0 1 2.652 1.098.75.75 0 0 1-1.061 1.061A2.24 2.24 0 0 0 12 5.75ZM4.25 11A3.75 3.75 0 0 1 8 7.25h8A3.75 3.75 0 0 1 19.75 11v8A3.75 3.75 0 0 1 16 22.75H8A3.75 3.75 0 0 1 4.25 19v-8ZM8 8.75A2.25 2.25 0 0 0 5.75 11v8A2.25 2.25 0 0 0 8 21.25h8A2.25 2.25 0 0 0 18.25 19v-8A2.25 2.25 0 0 0 16 8.75H8Zm4 3a3.25 3.25 0 1 0 0 6.5 3.25 3.25 0 0 0 0-6.5ZM7.25 15a4.75 4.75 0 1 1 9.5 0 4.75 4.75 0 0 1-9.5 0Z" fill="#868686"/>
    <path d="M11.25 15a.75.75 0 1 1-1.5 0 .75.75 0 0 1 1.5 0ZM14.25 15a.75.75 0 1 1-1.5 0 .75.75 0 0 1 1.5 0Z" fill="#868686"/>
</svg>
