<svg width="24" height="24" fill="none" xmlns="http://www.w3.org/2000/svg">
    <path fill-rule="evenodd" clip-rule="evenodd" d="M5.817 9.19a.75.75 0 0 1 .994-.373l5.19 2.36 5.189-2.36a.75.75 0 0 1 .62 1.366l-5.5 2.5a.75.75 0 0 1-.62 0l-5.5-2.5a.75.75 0 0 1-.373-.993Z" fill="#868686"/>
    <path fill-rule="evenodd" clip-rule="evenodd" d="M10.859 5.696a2.75 2.75 0 0 1 2.282 0l4 1.825a2.75 2.75 0 0 1 1.609 2.502v4.954a2.75 2.75 0 0 1-1.609 2.502l-4 1.825a2.75 2.75 0 0 1-2.282 0l-4-1.825a2.75 2.75 0 0 1-1.609-2.502v-4.954A2.75 2.75 0 0 1 6.859 7.52l4-1.825Zm1.66 1.365a1.25 1.25 0 0 0-1.038 0l-4 1.825a1.25 1.25 0 0 0-.731 1.137v4.954c0 .49.286.934.731 1.137l4 1.825c.33.15.708.15 1.038 0l4-1.825a1.25 1.25 0 0 0 .731-1.137v-4.954c0-.49-.286-.934-.731-1.137l-4-1.825Z" fill="#868686"/>
    <path fill-rule="evenodd" clip-rule="evenodd" d="M12 11.25a.75.75 0 0 1 .75.75v6a.75.75 0 0 1-1.5 0v-6a.75.75 0 0 1 .75-.75ZM12 1.25a.75.75 0 0 1 .75.75v1a.75.75 0 0 1-1.5 0V2a.75.75 0 0 1 .75-.75ZM12 20.25a.75.75 0 0 1 .75.75v1a.75.75 0 0 1-1.5 0v-1a.75.75 0 0 1 .75-.75ZM20.6 3.398a.75.75 0 0 1 0 1.061l-.706.707a.75.75 0 1 1-1.061-1.06l.707-.708a.75.75 0 0 1 1.06 0ZM5.167 18.834a.75.75 0 0 1 0 1.06l-.707.708A.75.75 0 1 1 3.4 19.54l.706-.707a.75.75 0 0 1 1.061 0ZM22.75 12a.75.75 0 0 1-.75.75h-1a.75.75 0 0 1 0-1.5h1a.75.75 0 0 1 .75.75ZM3.75 12a.75.75 0 0 1-.75.75H2a.75.75 0 0 1 0-1.5h1a.75.75 0 0 1 .75.75ZM20.6 20.602a.75.75 0 0 1-1.06 0l-.707-.707a.75.75 0 0 1 1.06-1.061l.708.707a.75.75 0 0 1 0 1.06ZM5.167 5.166a.75.75 0 0 1-1.06 0l-.708-.707a.75.75 0 1 1 1.061-1.06l.707.706a.75.75 0 0 1 0 1.061Z" fill="#868686"/>
</svg>
