<svg width="24" height="24" fill="none" xmlns="http://www.w3.org/2000/svg">
    <g clip-path="url(#a)">
        <path d="m3.89 19.436.639-.391-.64.391Zm1.12 1.36.48-.576-.48.577Zm1.98 0-.48-.576.48.577Zm1.12-1.36-.639-.391.64.391Zm1.28.784.639.392-.64-.392Zm-1.442 1.73-.48-.577.48.577Zm-3.896 0 .48-.577-.48.577ZM2.61 20.22l-.64.392.64-.392ZM17.4 3.315l.522.538-.522-.538Zm-.195 3.366.66-.357-.66.357Zm1.067 1.507.57-.488-.57.488Zm1.364-.047.588.466-.588-.466Zm1.126-1.665.66.357-.66-.357Zm-.15-3.174-.508.551.508-.551Zm-4.256-1.064.522.538-.522-.538Zm5.272-.04-.508.552.508-.552Zm.454 4.99-.66-.355.66.356Zm-1.27 1.885.587.466-.588-.466Zm-3.68.09.57-.487-.57.488Zm-1.245-1.766-.66.357.66-.357ZM11.97 15.47a.75.75 0 1 0 1.06 1.06l-1.06-1.06Zm5.56-3.44a.75.75 0 1 0-1.06-1.06l1.06 1.06Zm-4.339 4.34a.75.75 0 1 0-1.06-1.061l1.06 1.06Zm.868-2.99a.75.75 0 1 0 1.06 1.061l-1.06-1.06Zm1.382.74a.75.75 0 1 0-1.06-1.061l1.06 1.06Zm.868-2.99a.75.75 0 1 0 1.06 1.061l-1.06-1.06ZM8.236 15.75a.75.75 0 1 0-1.49.166l1.49-.166Zm-2.151-.494a.75.75 0 1 0 .166-1.491l-.166 1.49Zm-.336-1.491a.75.75 0 0 0 .166 1.49l-.166-1.49Zm-.494 2.151a.75.75 0 1 0-1.491-.166l1.49.166Zm-1.491.336a.75.75 0 1 0 1.49-.166l-1.49.166Zm2.151.494a.75.75 0 1 0-.166 1.491l.166-1.49Zm.336 1.491a.75.75 0 0 0-.166-1.49l.166 1.49Zm.494-2.151a.75.75 0 1 0 1.491.166l-1.49-.166ZM20.74 4.805a.75.75 0 0 0-1.49.166l1.49-.166Zm-1.71-.053a.75.75 0 1 0 .166-1.491l-.166 1.49Zm-.224-1.491a.75.75 0 1 0 .166 1.49l-.166-1.49Zm-.053 1.71a.75.75 0 1 0-1.491-.166l1.49.166Zm-1.491.224a.75.75 0 0 0 1.49-.166l-1.49.166Zm1.71.053a.75.75 0 1 0-.166 1.491l.166-1.49Zm.224 1.491a.75.75 0 1 0-.166-1.49l.166 1.49Zm.053-1.71a.75.75 0 1 0 1.491.166l-1.49-.166ZM5.553 12.025a.75.75 0 0 0 .166 1.49l-.166-1.49Zm-2.037 3.694a.75.75 0 0 0-1.491-.166l1.49.166Zm-1.503.6a.75.75 0 1 0 1.495-.116l-1.495.116Zm2.395 2.521a.75.75 0 0 0-1.303.743l1.303-.743Zm-1.085 1.106a.75.75 0 1 0 1.266-.804l-1.266.804Zm2.092.21a.75.75 0 1 0-1 1.117l1-1.118Zm-.808 1.279a.75.75 0 0 0 .93-1.177l-.93 1.177ZM5.99 20.5a.75.75 0 1 0-.138 1.493L5.99 20.5Zm.158 1.493A.75.75 0 1 0 6.01 20.5l.138 1.493Zm.314-1.735a.75.75 0 0 0 .93 1.177l-.93-1.177Zm1.123 1.015a.75.75 0 0 0-1-1.118l1 1.118Zm-.174-2.131a.75.75 0 1 0 1.266.804l-1.266-.804Zm1.484.44a.75.75 0 0 0-1.303-.742l1.303.743Zm-.403-3.379a.75.75 0 1 0 1.495.116l-1.495-.116Zm1.483-.65a.75.75 0 0 0-1.49.166l1.49-.166Zm-3.694-2.038a.75.75 0 1 0 .166-1.49l-.166 1.49ZM.513 16.37a.75.75 0 1 0 1.496-.1l-1.496.1ZM3.1 19.574a.75.75 0 0 0-1.304.74l1.304-.74ZM2.064 20.76a.75.75 0 1 0 1.265-.806l-1.265.806Zm2.363.524a.75.75 0 0 0-.996 1.121l.996-1.121Zm-.716 1.354a.75.75 0 1 0 .92-1.184l-.92 1.184Zm2.184-.641a.75.75 0 1 0-.097 1.496l.097-1.496Zm.307 1.496a.75.75 0 1 0-.097-1.496l.097 1.496Zm1.167-2.04a.75.75 0 1 0 .92 1.185l-.92-1.184Zm1.2.952a.75.75 0 0 0-.996-1.121l.996 1.121Zm.102-2.45a.75.75 0 1 0 1.265.805l-1.265-.806Zm1.533.36a.75.75 0 1 0-1.304-.74l1.304.74Zm-.213-4.045a.75.75 0 1 0 1.496.1l-1.496-.1Zm1.5-.578a.75.75 0 0 0-1.497.083l1.498-.083Zm-2.508-2.357a.75.75 0 1 0 1.118-1l-1.118 1Zm.682-1.436a.75.75 0 1 0-1 1.118l1-1.118Zm-3.44.107a.75.75 0 1 0 .083-1.498l-.083 1.498Zm-.533-1.498a.75.75 0 0 0 .083 1.498l-.083-1.498Zm-2.357 2.51a.75.75 0 1 0-1-1.119l1 1.118Zm-1.436-.683a.75.75 0 1 0 1.118 1l-1.118-1Zm.107 3.44a.75.75 0 1 0-1.498-.083l1.498.083ZM16.734 2.929a.75.75 0 0 0 1.13.985l-1.13-.985Zm.768 2.157a.75.75 0 0 0-1.5-.048l1.5.048Zm-1.497.28a.75.75 0 1 0 1.497-.093l-1.497.094Zm1.816.872a.75.75 0 0 0-1.333.69l1.332-.69Zm-1.202.93a.75.75 0 1 0 1.303-.743l-1.303.744Zm2.143.438a.75.75 0 0 0-1.15.963l1.15-.963Zm-.919 1.215a.75.75 0 0 0 1.015-1.105l-1.015 1.105Zm1.186-1.123a.75.75 0 1 0 1.068 1.053l-1.068-1.053Zm1.288.79a.75.75 0 1 0-1.183-.921l1.183.922Zm-.276-2.254a.75.75 0 1 0 1.306.737l-1.306-.737Zm1.44.489a.75.75 0 1 0-1.331-.691l1.331.69Zm-.983-1.67a.75.75 0 1 0 1.495.119l-1.495-.12Zm1.499-.214a.75.75 0 1 0-1.499.055l1.499-.055Zm-1.838-.932a.75.75 0 1 0 1.098-1.023l-1.098 1.023Zm.828-1.272a.75.75 0 0 0-.936 1.172l.936-1.172Zm-1.89.867a.75.75 0 0 0 .056-1.5l-.056 1.5Zm-.25-1.5a.75.75 0 1 0 .057 1.5l-.056-1.5Zm-.872 1.804a.75.75 0 1 0-.964-1.149l.964 1.149Zm-2.338-1.9a.75.75 0 1 0 1.117 1l-1.117-1Zm.367 3.1a.75.75 0 1 0-1.499-.059l1.499.059Zm-1.499.405a.75.75 0 0 0 1.498-.075l-1.498.075Zm1.973 1.498a.75.75 0 1 0-1.334.685l1.335-.685Zm-1.167.994a.75.75 0 0 0 1.304-.742l-1.304.742Zm2.297.661a.75.75 0 0 0-1.15.963l1.15-.963Zm-.773 1.37a.75.75 0 1 0 1.014-1.106l-1.014 1.105Zm3.249-1.17a.75.75 0 0 0 1.055 1.066l-1.055-1.066Zm1.42.642a.75.75 0 0 0-1.183-.922l1.183.922Zm-.153-2.443a.75.75 0 1 0 1.308.736l-1.308-.736Zm1.476.423a.75.75 0 0 0-1.334-.687l1.334.687Zm-.83-2.265a.75.75 0 0 0 1.497.087l-1.498-.087Zm1.497-.376a.75.75 0 1 0-1.498.066l1.498-.066Zm-2.25-1.875a.75.75 0 0 0 1.088-1.032L21.243 2.87Zm.704-1.387a.75.75 0 1 0-.946 1.164l.946-1.164Zm-2.776.52a.75.75 0 1 0 .064-1.498l-.064 1.499ZM18.761.506a.75.75 0 1 0 .065 1.499L18.761.505ZM16.997 2.67a.75.75 0 1 0-.974-1.141l.974 1.14ZM13.03 16.53l.161-.16-1.06-1.061-.161.16 1.06 1.061Zm2.09-2.089.321-.321-1.06-1.061-.322.321 1.06 1.061Zm2.25-2.25.16-.16-1.06-1.061-.161.16 1.06 1.061ZM8.25 16c0-.085-.005-.168-.014-.251l-1.49.166A.765.765 0 0 1 6.75 16h1.5Zm-1.999-2.236A2.27 2.27 0 0 0 6 13.75v1.5c.029 0 .057.002.085.005l.166-1.491ZM6 13.75a2.27 2.27 0 0 0-.251.014l.166 1.49A.762.762 0 0 1 6 15.25v-1.5Zm-2.236 1.999c-.01.083-.014.166-.014.251h1.5c0-.029.002-.057.005-.085l-1.491-.166ZM3.75 16c0 .085.005.168.014.251l1.49-.166A.765.765 0 0 1 5.25 16h-1.5Zm1.999 2.236c.083.01.166.014.251.014v-1.5a.762.762 0 0 1-.085-.005l-.166 1.491ZM6 18.25c.085 0 .168-.005.251-.014l-.166-1.49A.762.762 0 0 1 6 16.75v1.5Zm2.236-1.999c.01-.083.014-.166.014-.251h-1.5a.765.765 0 0 1-.005.085l1.491.166ZM20.75 5c0-.066-.004-.13-.01-.195l-1.492.166.002.029h1.5Zm-1.555-1.74A1.76 1.76 0 0 0 19 3.25v1.5c.01 0 .02 0 .029.002l.166-1.491ZM19 3.25c-.066 0-.13.004-.195.01l.166 1.492A.26.26 0 0 1 19 4.75v-1.5Zm-1.74 1.555c-.006.064-.01.13-.01.195h1.5c0-.01 0-.02.002-.029l-1.491-.166ZM17.25 5c0 .066.004.13.01.195l1.492-.166A.268.268 0 0 1 18.75 5h-1.5Zm1.555 1.74c.064.006.13.01.195.01v-1.5c-.01 0-.02 0-.029-.002l-.166 1.491Zm.195.01c.066 0 .13-.004.195-.01l-.166-1.492A.26.26 0 0 1 19 5.25v1.5Zm1.74-1.555c.006-.064.01-.13.01-.195h-1.5c0 .01 0 .02-.002.029l1.491.166ZM6 12c-.15 0-.3.008-.447.025l.166 1.49c.092-.01.186-.015.281-.015V12Zm-3.975 3.553A4.037 4.037 0 0 0 2 16h1.5c0-.095.005-.189.016-.281l-1.491-.166ZM2 16c0 .105.004.211.013.319l1.495-.116A2.635 2.635 0 0 1 3.5 16H2Zm1.105 3.583c.047.082.095.164.145.245l1.279-.783a7.438 7.438 0 0 1-.12-.205l-1.304.743Zm.145.245.073.118 1.266-.804a7.03 7.03 0 0 1-.06-.097l-1.279.783Zm1.165 1.445c.038.034.077.068.116.1l.96-1.153a3.064 3.064 0 0 1-.076-.065l-1 1.118Zm.116.1.076.062.93-1.177a2.657 2.657 0 0 1-.047-.038l-.959 1.153Zm1.32.62c.05.005.1.007.149.007v-1.5h-.01l-.138 1.493ZM6 22c.05 0 .099-.002.148-.007L6.01 20.5H6V22Zm1.393-.565.076-.062-.96-1.153a2.657 2.657 0 0 1-.047.038l.93 1.177Zm.076-.062c.039-.032.078-.066.116-.1l-1-1.118-.075.065.959 1.153Zm1.208-1.427.073-.118-1.279-.783a7.03 7.03 0 0 1-.06.097l1.266.804Zm.073-.118c.05-.08.098-.163.145-.245l-1.303-.743-.12.205 1.278.783Zm1.237-3.509c.009-.108.013-.214.013-.319H8.5c0 .062-.003.13-.008.203l1.495.116ZM10 16c0-.15-.008-.3-.025-.447l-1.49.166c.01.092.015.186.015.281H10Zm-3.553-3.975A4.034 4.034 0 0 0 6 12v1.5c.095 0 .189.005.281.015l.166-1.49ZM.5 16c0 .122.004.246.013.37l1.496-.1A4.044 4.044 0 0 1 2 16H.5Zm1.296 4.315c.057.1.115.2.175.297l1.279-.784a8.716 8.716 0 0 1-.15-.254l-1.304.74Zm.175.297c.03.05.061.1.093.148l1.265-.806a8.29 8.29 0 0 1-.079-.126l-1.279.784Zm1.46 1.793c.046.041.093.082.141.121l.96-1.153a4.208 4.208 0 0 1-.105-.09l-.996 1.122Zm.141.121c.045.038.092.076.14.112l.92-1.184a3.848 3.848 0 0 1-.1-.08l-.96 1.152Zm2.226.967c.067.005.134.007.202.007V22l-.105-.003-.097 1.496ZM6 23.5c.068 0 .135-.002.202-.007l-.097-1.496L6 22v1.5Zm2.289-.862c.047-.037.094-.074.139-.112l-.96-1.153a3.848 3.848 0 0 1-.1.08l.92 1.185Zm.139-.112c.048-.04.095-.08.14-.12l-.995-1.122-.104.09.959 1.152Zm1.508-1.766c.032-.049.063-.098.093-.148l-1.279-.784a8.211 8.211 0 0 1-.079.126l1.265.806Zm.093-.148c.06-.097.118-.197.175-.297l-1.304-.74a8.716 8.716 0 0 1-.15.253l1.279.784Zm1.458-4.242c.009-.124.013-.248.013-.37H10c0 .087-.003.177-.01.27l1.497.1ZM11.5 16c0-.103-.003-.206-.008-.308l-1.498.083c.004.074.006.15.006.225h1.5Zm-1.4-3.665a5.51 5.51 0 0 0-.435-.436l-1 1.118c.112.1.218.206.318.318l1.118-1Zm-3.792-1.827A5.615 5.615 0 0 0 6 10.5V12c.076 0 .15.002.225.006l.083-1.498ZM6 10.5c-.103 0-.206.003-.308.008l.083 1.498c.074-.004.15-.006.225-.006v-1.5Zm-3.665 1.4a5.512 5.512 0 0 0-.436.435l1.118 1c.1-.112.206-.218.318-.318l-1-1.118ZM.508 15.691A5.578 5.578 0 0 0 .5 16H2c0-.076.002-.15.006-.225l-1.498-.083Zm16.37-12.916c-.049.048-.097.099-.144.153l1.13.985a.974.974 0 0 1 .059-.06l-1.044-1.078Zm-.875 2.262a5.365 5.365 0 0 0-.003.171h1.5c0-.042 0-.083.002-.123l-1.5-.048ZM16 5.209c0 .053.002.105.005.158l1.497-.094a1.042 1.042 0 0 1-.002-.064H16Zm.488 1.719.06.111 1.318-.715a4.962 4.962 0 0 1-.046-.086l-1.332.69Zm.06.111.071.13 1.303-.744a5.767 5.767 0 0 1-.056-.101l-1.319.715Zm1.064 1.53.09.107 1.14-.976a10.437 10.437 0 0 1-.08-.094l-1.15.963Zm.09.107c.045.051.092.1.141.145l1.015-1.105a.198.198 0 0 1-.016-.016l-1.14.976Zm2.395.075c.044-.045.087-.093.128-.144l-1.176-.933a.292.292 0 0 1-.02.024l1.068 1.053Zm.128-.144.092-.118-1.183-.922-.085.107 1.176.933Zm1.122-1.636a8.02 8.02 0 0 0 .076-.138l-1.32-.713-.062.114 1.306.737Zm.076-.138.058-.11-1.331-.691c-.015.03-.03.059-.047.088l1.32.713Zm.57-1.661A2.13 2.13 0 0 0 22 5h-1.5a.66.66 0 0 1-.002.052l1.495.12ZM22 5c0-.054-.001-.108-.003-.161l-1.499.055L20.5 5H22Zm-.744-2.116a2.506 2.506 0 0 0-.135-.134l-1.016 1.103c.019.017.037.035.054.054l1.098-1.023Zm-.135-.134a2.536 2.536 0 0 0-.134-.115l-.936 1.172c.019.015.037.03.054.046l1.016-1.103Zm-1.968-.747A4.07 4.07 0 0 0 19 2v1.5c.033 0 .065 0 .096.002l.057-1.5ZM19 2c-.051 0-.102 0-.152.003l.056 1.499L19 3.5V2Zm-1.99.657c-.045.038-.089.078-.131.12l1.044 1.076a.971.971 0 0 1 .052-.047l-.964-1.149ZM15.836 1.7a4 4 0 0 0-.198.206l1.117 1c.04-.044.082-.087.125-.129L15.835 1.7Zm-1.33 3.248a6.679 6.679 0 0 0-.005.262H16c0-.069.001-.137.004-.203l-1.499-.059Zm-.005.262c0 .068.002.135.005.202l1.498-.075A2.56 2.56 0 0 1 16 5.209h-1.5Zm.644 2.385c.028.054.056.108.085.16l1.318-.715a6.52 6.52 0 0 1-.069-.13l-1.334.685Zm.085.16.082.149 1.304-.742a7.368 7.368 0 0 1-.068-.122l-1.318.715Zm1.23 1.773.105.125 1.139-.976a13.025 13.025 0 0 1-.095-.112l-1.15.963Zm.105.125c.086.1.176.194.271.281l1.014-1.105c-.05-.047-.099-.097-.146-.152l-1.14.976Zm4.575.178c.092-.09.179-.188.26-.29l-1.174-.933a1.777 1.777 0 0 1-.141.157l1.055 1.066Zm.26-.29.105-.134-1.183-.922-.096.123 1.175.932Zm1.26-1.841.085-.154-1.32-.712a7.807 7.807 0 0 1-.073.13l1.308.736Zm.085-.154.083-.16-1.334-.686c-.022.045-.046.09-.07.134l1.32.712Zm.75-2.337c.004-.069.006-.138.006-.208H22c0 .04-.001.08-.004.121l1.498.087ZM23.5 5c0-.086-.002-.17-.006-.255l-1.498.066c.003.062.004.125.004.189h1.5Zm-1.168-3.162a4.039 4.039 0 0 0-.195-.191L21.121 2.75c.042.039.083.079.122.12l1.089-1.032Zm-.195-.191a4.037 4.037 0 0 0-.19-.164l-.945 1.164c.04.033.08.067.12.103l1.015-1.103Zm-2.9-1.142A5.512 5.512 0 0 0 19 .5V2c.058 0 .115.001.172.004l.064-1.499ZM19 .5c-.08 0-.16.002-.24.005l.066 1.499C18.884 2 18.942 2 19 2V.5Zm-2.977 1.028a4.042 4.042 0 0 0-.188.171l1.044 1.077c.038-.037.077-.073.117-.107l-.973-1.141Z" fill="#868686"/>
    </g>
    <defs>
        <clipPath id="a">
            <path fill="#fff" d="M0 0h24v24H0z"/>
        </clipPath>
    </defs>
</svg>
