<svg width="24" height="24" fill="none" xmlns="http://www.w3.org/2000/svg">
    <path d="M17 4a3 3 0 0 1 2.958 2.5H4V5a3 3 0 0 1 3-3h2.569a3 3 0 0 1 1.844.634l.94.732A3 3 0 0 0 14.197 4H17ZM10.75 14.5a1.75 1.75 0 1 1 3.5 0 1.75 1.75 0 0 1-3.5 0Z" fill="#868686"/>
    <path fill-rule="evenodd" clip-rule="evenodd" d="M20.526 8H3.473a2 2 0 0 0-1.955 2.42l1.804 8.418A4 4 0 0 0 7.233 22h9.533a4 4 0 0 0 3.911-3.162l1.804-8.419A2 2 0 0 0 20.525 8Zm-8.027 3.25a3.25 3.25 0 0 0-2.766 4.956L8.469 17.47a.75.75 0 1 0 1.06 1.06l1.264-1.263A3.25 3.25 0 1 0 12.5 11.25Z" fill="#868686"/>
</svg>
