<svg width="24" height="24" fill="none" xmlns="http://www.w3.org/2000/svg">
    <path fill-rule="evenodd" clip-rule="evenodd" d="M5.479 4.418a9.957 9.957 0 0 1 5.77-2.39V3a.75.75 0 0 0 1.5 0v-.973a9.957 9.957 0 0 1 5.772 2.391l-.688.687a.75.75 0 0 0 1.06 1.061l.688-.687a9.956 9.956 0 0 1 2.39 5.77H21a.75.75 0 0 0 0 1.5h.972a9.957 9.957 0 0 1-2.39 5.772l-.688-.688a.75.75 0 0 0-1.06 1.06l.686.688a9.957 9.957 0 0 1-5.77 2.39V21a.75.75 0 1 0-1.5 0v.972a9.956 9.956 0 0 1-5.771-2.39l.687-.688a.75.75 0 0 0-1.06-1.06l-.688.687a9.957 9.957 0 0 1-2.39-5.771H3a.75.75 0 1 0 0-1.5h-.973a9.957 9.957 0 0 1 2.391-5.771l.687.687a.75.75 0 0 0 1.06-1.06l-.686-.688ZM11.999 6a6.002 6.002 0 0 1 5.66 4H6.34c.824-2.33 3.046-4 5.658-4Zm0 12a6.002 6.002 0 0 1-5.658-4h11.317A6.002 6.002 0 0 1 12 18Z" fill="#868686"/>
</svg>
