<svg width="24" height="24" fill="none" xmlns="http://www.w3.org/2000/svg">
    <path fill-rule="evenodd" clip-rule="evenodd" d="M5.25 6A2.75 2.75 0 0 1 8 3.25h8A2.75 2.75 0 0 1 18.75 6v14A2.75 2.75 0 0 1 16 22.75H8A2.75 2.75 0 0 1 5.25 20V6ZM8 4.75c-.69 0-1.25.56-1.25 1.25v14c0 .69.56 1.25 1.25 1.25h8c.69 0 1.25-.56 1.25-1.25V6c0-.69-.56-1.25-1.25-1.25H8Z" fill="#868686"/>
    <path d="m9.11 13.161 4.093-4.997c.318-.387.904-.029.751.46l-.878 2.813c-.095.305.118.62.419.62h1.063c.379 0 .582.477.332.782l-4.093 4.997c-.318.387-.904.029-.751-.46l.878-2.813c.095-.305-.118-.62-.419-.62H9.442c-.379 0-.582-.477-.332-.782Z" fill="#868686"/>
    <path fill-rule="evenodd" clip-rule="evenodd" d="M9.25 2a.75.75 0 0 1 .75-.75h4a.75.75 0 0 1 0 1.5h-4A.75.75 0 0 1 9.25 2Z" fill="#868686"/>
</svg>
