<svg width="24" height="24" fill="none" xmlns="http://www.w3.org/2000/svg">
    <path d="M21.021 9.893a6.478 6.478 0 0 0-4.781-1.349 8.53 8.53 0 0 0-3.925-3.373 5.014 5.014 0 0 1 3.054-2.978c.34-.118.65.202.634.562a4 4 0 0 0 5.502 3.873c.227-.092.495.047.495.293a4.978 4.978 0 0 1-.979 2.972ZM12.279 16.304a.75.75 0 0 1 .417.975l-2 5a.75.75 0 1 1-1.392-.557l2-5a.75.75 0 0 1 .975-.418ZM8.335 16.33a.75.75 0 0 1 .336 1.006l-1 2a.75.75 0 0 1-1.342-.67l1-2a.75.75 0 0 1 1.006-.336ZM16.335 16.33a.75.75 0 0 1 .336 1.006l-1 2a.75.75 0 0 1-1.342-.67l1-2a.75.75 0 0 1 1.006-.336Z" fill="#868686"/>
    <path d="M2 13a6.99 6.99 0 0 0 2.787 5.591c.037-.203.104-.403.2-.597l1-2A2.25 2.25 0 0 1 10 15.969a2.25 2.25 0 0 1 4 0 2.25 2.25 0 0 1 4.012 2.037L17.015 20a5 5 0 1 0-1.576-9.751 7.027 7.027 0 0 0-3.433-3.572A7 7 0 0 0 2 13Z" fill="#868686"/>
</svg>
