<svg width="24" height="24" fill="none" xmlns="http://www.w3.org/2000/svg">
    <g clip-path="url(#a)">
        <path fill-rule="evenodd" clip-rule="evenodd" d="M17.031 1.5a.75.75 0 1 0-1.5 0V3h-6.5V1.5a.75.75 0 0 0-1.5 0V3h-.25a4 4 0 0 0-4 4v10.5a4 4 0 0 0 4 4h10a4 4 0 0 0 4-4V7a4 4 0 0 0-4-4h-.25V1.5Zm-4.725 9.14.23-.24a1.568 1.568 0 0 1 2.295 0 1.768 1.768 0 0 1 0 2.411L13.224 14.5a1.254 1.254 0 0 1-1.836 0L9.78 12.811a1.768 1.768 0 0 1 0-2.412 1.568 1.568 0 0 1 2.295 0l.23.242Z" fill="#868686"/>
    </g>
    <defs>
        <clipPath id="a">
            <path fill="#fff" d="M0 0h24v24H0z"/>
        </clipPath>
    </defs>
</svg>
