<svg width="24" height="24" fill="none" xmlns="http://www.w3.org/2000/svg">
    <path fill-rule="evenodd" clip-rule="evenodd" d="M5 3.75c-.69 0-1.25.56-1.25 1.25 0 8.422 6.828 15.25 15.25 15.25.69 0 1.25-.56 1.25-1.25v-1.646c0-.511-.311-.97-.786-1.16l-2.034-.814a1.25 1.25 0 0 0-1.582.601l-.177.354a.75.75 0 0 1-.818.4L15 16l-.147.735h-.006l-.008-.002-.03-.007a7.586 7.586 0 0 1-.443-.116c-.29-.085-.693-.22-1.161-.42-.935-.401-2.149-1.073-3.235-2.16-1.087-1.086-1.759-2.3-2.16-3.235-.2-.468-.335-.872-.42-1.162a7.594 7.594 0 0 1-.116-.443l-.006-.028-.002-.01-.001-.003c0-.001 0-.002.735-.149l-.735.147a.75.75 0 0 1 .4-.818l.354-.177A1.25 1.25 0 0 0 8.62 6.57l-.813-2.034a1.25 1.25 0 0 0-1.161-.786H5Zm3.883 5.637a2.75 2.75 0 0 0 1.13-3.374l-.814-2.034A2.75 2.75 0 0 0 6.646 2.25H5A2.75 2.75 0 0 0 2.25 5c0 9.25 7.5 16.75 16.75 16.75A2.75 2.75 0 0 0 21.75 19v-1.646a2.75 2.75 0 0 0-1.729-2.553l-2.034-.814a2.75 2.75 0 0 0-3.374 1.13 9.195 9.195 0 0 1-.818-.306c-.815-.35-1.851-.928-2.765-1.841-.913-.914-1.491-1.95-1.84-2.765a9.212 9.212 0 0 1-.307-.818ZM18 3.75a1.25 1.25 0 1 0 0 2.5 1.25 1.25 0 0 0 0-2.5Zm2.035 3.1a2.75 2.75 0 1 0-4.07 0A3.747 3.747 0 0 0 14.25 10v.5a.75.75 0 0 0 1.5 0V10a2.25 2.25 0 0 1 4.5 0v.5a.75.75 0 0 0 1.5 0V10c0-1.32-.683-2.482-1.715-3.15Z" fill="#868686"/>
</svg>
