<svg width="24" height="24" fill="none" xmlns="http://www.w3.org/2000/svg">
    <path fill-rule="evenodd" clip-rule="evenodd" d="M5.25 7.01V18a.75.75 0 0 0 1.5 0V7.01c.066.05.127.106.184.17L8.44 8.873a.75.75 0 1 0 1.122-.996L8.055 6.183a2.737 2.737 0 0 0-1.909-.919.754.754 0 0 0-.292 0 2.737 2.737 0 0 0-1.91.92L2.44 7.876a.75.75 0 0 0 1.122.996L5.066 7.18c.057-.064.118-.12.184-.17Zm6-1.01a.75.75 0 0 1 .75-.75h9a.75.75 0 0 1 0 1.5h-9a.75.75 0 0 1-.75-.75Zm0 6a.75.75 0 0 1 .75-.75h6a.75.75 0 0 1 0 1.5h-6a.75.75 0 0 1-.75-.75Zm0 6a.75.75 0 0 1 .75-.75h3a.75.75 0 0 1 0 1.5h-3a.75.75 0 0 1-.75-.75Z" fill="#868686"/>
</svg>
