<svg width="24" height="24" fill="none" xmlns="http://www.w3.org/2000/svg">
    <path fill-rule="evenodd" clip-rule="evenodd" d="M4.25 6A4.75 4.75 0 0 1 9 1.25h6A4.75 4.75 0 0 1 19.75 6v12A4.75 4.75 0 0 1 15 22.75H9A4.75 4.75 0 0 1 4.25 18V6ZM9 2.75A3.25 3.25 0 0 0 5.75 6v12A3.25 3.25 0 0 0 9 21.25h6A3.25 3.25 0 0 0 18.25 18V6A3.25 3.25 0 0 0 15 2.75H9ZM9.25 8a2.75 2.75 0 1 1 5.5 0v4a.75.75 0 0 1-1.5 0v-1.25h-2.5V12a.75.75 0 0 1-1.5 0V8Zm1.5 1.25h2.5V8a1.25 1.25 0 1 0-2.5 0v1.25ZM8.25 15a.75.75 0 0 1 .75-.75h6a.75.75 0 0 1 0 1.5H9a.75.75 0 0 1-.75-.75Zm2 4a.75.75 0 0 1 .75-.75h2a.75.75 0 0 1 0 1.5h-2a.75.75 0 0 1-.75-.75Z" fill="#868686"/>
</svg>
