<svg width="24" height="24" fill="none" xmlns="http://www.w3.org/2000/svg">
    <path fill-rule="evenodd" clip-rule="evenodd" d="M9 3.75a6.25 6.25 0 0 0-5.649 8.928.75.75 0 1 1-1.355.644 7.75 7.75 0 0 1 13.85-6.956 5.75 5.75 0 0 1 4.029 10.614.75.75 0 1 1-.75-1.298 4.25 4.25 0 1 0-5.1-6.717.75.75 0 1 1-1.05-1.071c.42-.412.903-.76 1.434-1.028A6.248 6.248 0 0 0 9 3.75Zm.255 6.545A.75.75 0 0 1 9.75 11v3.25H12a.75.75 0 0 1 .576 1.23l-5 6A.75.75 0 0 1 6.25 21v-3.25H4a.75.75 0 0 1-.576-1.23l5-6a.75.75 0 0 1 .831-.225ZM5.601 16.25H7a.75.75 0 0 1 .75.75v1.928l2.649-3.178H9a.75.75 0 0 1-.75-.75v-1.928L5.601 16.25Zm10.91.2L16 17l-.51-.55a.75.75 0 0 1 1.02 0ZM16 18.1a6.533 6.533 0 0 0-.156.193 4.17 4.17 0 0 0-.436.681c-.115.234-.158.41-.158.526 0 .395.114.54.182.6.088.075.26.15.568.15.308 0 .48-.075.567-.15.069-.06.183-.205.183-.6 0-.116-.043-.292-.157-.526a4.17 4.17 0 0 0-.437-.68 6.533 6.533 0 0 0-.156-.195Zm-.51-1.65L16 17l.51-.55.004.003.005.005.016.016.055.053a8.54 8.54 0 0 1 .754.851c.206.267.425.589.595.935.166.338.311.75.311 1.187 0 .71-.222 1.315-.696 1.73-.456.397-1.034.52-1.554.52s-1.098-.123-1.554-.52c-.474-.415-.696-1.02-.696-1.73 0-.436.145-.849.311-1.187.17-.346.389-.668.595-.935a8.54 8.54 0 0 1 .754-.85c.023-.024.042-.042.055-.054l.016-.016.005-.005.003-.002Z" fill="#868686"/>
</svg>
