<svg width="24" height="24" fill="none" xmlns="http://www.w3.org/2000/svg">
    <path d="M8.25 11a.75.75 0 0 1 .75-.75h1.5l-2.1-2.8a.75.75 0 0 1 1.2-.9l2.4 3.2 2.4-3.2a.75.75 0 0 1 1.2.9l-2.1 2.8H15a.75.75 0 0 1 0 1.5h-2.25v1.5H15a.75.75 0 0 1 0 1.5h-2.25V17a.75.75 0 0 1-1.5 0v-2.25H9a.75.75 0 0 1 0-1.5h2.25v-1.5H9a.75.75 0 0 1-.75-.75Z" fill="#868686"/>
    <path fill-rule="evenodd" clip-rule="evenodd" d="M1.25 12C1.25 6.063 6.063 1.25 12 1.25S22.75 6.063 22.75 12 17.937 22.75 12 22.75 1.25 17.937 1.25 12ZM12 2.75a9.25 9.25 0 1 0 0 18.5 9.25 9.25 0 0 0 0-18.5Z" fill="#868686"/>
</svg>
