<svg width="24" height="24" fill="none" xmlns="http://www.w3.org/2000/svg">
    <path fill-rule="evenodd" clip-rule="evenodd" d="M6 3.063h3.5a4 4 0 0 1 4 4v12h-3a3.5 3.5 0 0 0-6.907-.805A3.994 3.994 0 0 1 2 15.063v-8a4 4 0 0 1 4-4Zm5.494 4.435a.75.75 0 0 1 .07 1.058l-2.87 3.28a1.75 1.75 0 0 1-2.41.214l-1.753-1.402a.75.75 0 0 1 .938-1.171l1.752 1.402a.25.25 0 0 0 .345-.03l2.87-3.28a.75.75 0 0 1 1.058-.07Z" fill="#868686"/>
    <path d="M21.446 18.445A3.5 3.5 0 0 0 15 17.259V7.062h2.21a2 2 0 0 1 1.367.541l2.79 2.617A2 2 0 0 1 22 11.679v5.383c0 .537-.21 1.023-.554 1.383ZM9 19.063a2 2 0 1 1-4 0 2 2 0 0 1 4 0Z" fill="#868686"/>
    <path d="M20 19.063a2 2 0 1 1-4 0 2 2 0 0 1 4 0Z" fill="#868686"/>
</svg>
