<svg width="24" height="24" fill="none" xmlns="http://www.w3.org/2000/svg">
    <path d="M3 8.242A3 3 0 0 1 7.242 4l2.829 2.828-4.243 4.243L3 8.242ZM12 15c.828 0 1.5-.396 1.5-1.5 0-1.105-1.5-2.5-1.5-2.5s-1.5 1.395-1.5 2.5c0 1.104.671 1.5 1.5 1.5ZM9.5 19.5c0 1.104-.672 1.5-1.5 1.5-.829 0-1.5-.396-1.5-1.5C6.5 18.395 8 17 8 17s1.5 1.395 1.5 2.5ZM17.5 19.5c0 1.104-.672 1.5-1.5 1.5-.829 0-1.5-.396-1.5-1.5 0-1.105 1.5-2.5 1.5-2.5s1.5 1.395 1.5 2.5ZM21 4a3 3 0 0 1 0 4.242l-2.83 2.829-4.242-4.243L16.757 4a3 3 0 0 1 4.242 0Z" fill="#868686"/>
</svg>
