<svg width="24" height="24" fill="none" xmlns="http://www.w3.org/2000/svg">
    <path fill-rule="evenodd" clip-rule="evenodd" d="M8.75 2.766V14.02a4.72 4.72 0 0 1 1.617.416l-.614 1.37a3.106 3.106 0 0 0-1.67-.277c-1.214.136-2.724.962-3.928 1.771-1.153.775-2.905.023-2.905-1.495v-9.67c0-.8.35-1.586 1.02-2.092a21.099 21.099 0 0 1 2.455-1.612C5.698 1.896 6.836 1.4 7.917 1.28c1.959-.219 3.345.836 4.47 1.693l.067.05c1.204.916 2.143 1.595 3.463 1.447 1.214-.136 2.724-.961 3.928-1.77 1.153-.775 2.905-.023 2.905 1.494v9.67c0 .8-.35 1.587-1.02 2.093-.641.485-1.646 1.192-2.752 1.77l-.695-1.328c1.003-.525 1.934-1.178 2.543-1.639.264-.2.424-.527.424-.896v-9.67c0-.097-.053-.197-.185-.262a.38.38 0 0 0-.383.013c-1.049.704-2.516 1.561-3.932 1.898v7.045h-1.5V5.979c-1.53-.108-2.678-.981-3.637-1.711l-.067-.051c-.991-.754-1.803-1.348-2.796-1.451Zm-1.5 11.392V2.95c-.576.177-1.192.46-1.8.795A19.604 19.604 0 0 0 3.174 5.24a1.11 1.11 0 0 0-.424.897v9.67c0 .097.053.197.185.262a.38.38 0 0 0 .383-.013c1.049-.705 2.516-1.561 3.932-1.898Z" fill="#868686"/>
    <path fill-rule="evenodd" clip-rule="evenodd" d="M18.234 11.346c1.43-.477 2.791.884 2.314 2.315l-2.612 7.838c-.556 1.668-2.916 1.668-3.473 0l-.964-2.895a.33.33 0 0 0-.21-.209l-2.893-.964c-1.44-.48-1.62-2.268-.623-3.123a1.85 1.85 0 0 1 .623-.35l7.838-2.612Zm.891 1.84a.33.33 0 0 0-.417-.417L10.87 15.38a.352.352 0 0 0-.12.066.335.335 0 0 0-.1.31c.019.113.084.205.22.25l2.894.965a1.83 1.83 0 0 1 1.158 1.158l.964 2.894c.1.301.527.301.627 0l2.612-7.838Z" fill="#868686"/>
</svg>
