<svg width="24" height="24" fill="none" xmlns="http://www.w3.org/2000/svg">
    <path fill-rule="evenodd" clip-rule="evenodd" d="M1.25 12c0-5.385 4.365-9.75 9.75-9.75h2c5.385 0 9.75 4.365 9.75 9.75s-4.365 9.75-9.75 9.75H6A4.75 4.75 0 0 1 1.25 17v-5ZM11 3.75A8.25 8.25 0 0 0 2.75 12v5A3.25 3.25 0 0 0 6 20.25h7a8.25 8.25 0 1 0 0-16.5h-2Zm.204 6.697a1.125 1.125 0 0 0-1.59 1.591l1.856 1.856a.75.75 0 0 0 1.06 0l1.857-1.856a1.125 1.125 0 0 0-1.591-1.59l-.266.264a.75.75 0 0 1-1.06 0l-.266-.265ZM12 9.154A2.626 2.626 0 0 0 8.553 13.1l1.856 1.856a2.25 2.25 0 0 0 3.182 0l1.856-1.856A2.625 2.625 0 0 0 12 9.154Z" fill="#868686"/>
</svg>
