<svg width="24" height="24" fill="none" xmlns="http://www.w3.org/2000/svg">
    <path fill-rule="evenodd" clip-rule="evenodd" d="M14.031 3.38a3.593 3.593 0 0 0-4.062 0L3.58 7.812c-1.006.698-1.11 2.061-.242 2.89a3.36 3.36 0 0 1 1.051 2.43v4.878c0 1.756 1.503 3.239 3.43 3.239h8.361c1.928 0 3.43-1.483 3.43-3.24v-4.877a3.36 3.36 0 0 1 1.053-2.43c.867-.829.763-2.192-.243-2.89L14.031 3.38ZM9.114 2.146a5.093 5.093 0 0 1 5.772 0l6.39 4.434c1.774 1.232 1.987 3.714.422 5.206a1.86 1.86 0 0 0-.587 1.346v4.878c0 2.65-2.241 4.739-4.93 4.739H7.82c-2.69 0-4.93-2.09-4.93-4.74v-4.877a1.86 1.86 0 0 0-.588-1.346C.738 10.295.95 7.813 2.725 6.581l6.389-4.434Zm.87 8.518c.07-.827.794-1.415 1.592-1.415h.848c.798 0 1.521.588 1.593 1.415.729-.35 1.647-.119 2.085.597l.424.693c.436.712.21 1.59-.434 2.045.644.455.87 1.333.434 2.045l-.424.693c-.438.716-1.356.948-2.085.597-.072.827-.795 1.415-1.593 1.415h-.848c-.798 0-1.521-.588-1.593-1.415-.729.35-1.646.119-2.084-.597l-.425-.693c-.436-.712-.21-1.59.434-2.045-.644-.455-.87-1.333-.434-2.045l.425-.693c.438-.716 1.355-.947 2.084-.597Zm.117 6.609Zm1.377-6.477v.003a1.416 1.416 0 0 1-2.094 1.244l-.045-.024a.14.14 0 0 0-.102-.012c-.036.01-.053.027-.06.037l-.423.693a.031.031 0 0 0-.004.006v.004l.007.012a.084.084 0 0 0 .026.02 1.388 1.388 0 0 1 0 2.44.084.084 0 0 0-.026.02.034.034 0 0 0-.006.012v.004s0 .003.003.006l.424.693c.006.01.023.028.06.037a.14.14 0 0 0 .1-.012l.046-.024a1.416 1.416 0 0 1 2.094 1.248.05.05 0 0 0 .012.016c.016.015.044.03.086.03h.848c.042 0 .07-.015.086-.03a.052.052 0 0 0 .012-.016 1.416 1.416 0 0 1 2.095-1.248l.045.024a.14.14 0 0 0 .101.012c.036-.01.053-.027.06-.037l.424-.693a.033.033 0 0 0 .003-.006v-.004a.034.034 0 0 0-.007-.012.085.085 0 0 0-.026-.02 1.388 1.388 0 0 1 0-2.44.085.085 0 0 0 .026-.02.046.046 0 0 0 .004-.006.03.03 0 0 0 .003-.006.01.01 0 0 0 0-.002v-.002l-.003-.006-.425-.693c-.006-.01-.023-.028-.059-.037a.14.14 0 0 0-.101.012l-.046.024a1.416 1.416 0 0 1-2.094-1.248.052.052 0 0 0-.012-.016.123.123 0 0 0-.086-.03h-.848a.123.123 0 0 0-.086.03.05.05 0 0 0-.012.018Z" fill="#868686"/>
    <path d="M12.75 14a.75.75 0 1 1-1.5 0 .75.75 0 0 1 1.5 0Z" fill="#868686"/>
</svg>
