<svg width="24" height="24" fill="none" xmlns="http://www.w3.org/2000/svg">
    <path d="M17 5v4.125A8.462 8.462 0 0 0 12 7.5a8.462 8.462 0 0 0-5 1.625V5a2 2 0 0 1 2-2h6a2 2 0 0 1 2 2ZM22.53 11.53a.75.75 0 1 0-1.06-1.06l-1 1a.75.75 0 1 0 1.06 1.06l1-1ZM20.47 19.47a.75.75 0 0 1 1.06 0l1 1a.75.75 0 1 1-1.06 1.06l-1-1a.75.75 0 0 1 0-1.06ZM1.47 11.53a.75.75 0 1 1 1.06-1.06l1 1a.75.75 0 1 1-1.06 1.06l-1-1ZM3.53 19.47a.75.75 0 0 0-1.06 0l-1 1a.75.75 0 1 0 1.06 1.06l1-1a.75.75 0 0 0 0-1.06Z" fill="#868686"/>
    <path fill-rule="evenodd" clip-rule="evenodd" d="M12 23a7 7 0 1 0 0-14 7 7 0 0 0 0 14Zm.75-10a.75.75 0 0 0-1.085-.67l-1 .5a.75.75 0 0 0 .585 1.377v4.043H11a.75.75 0 0 0 0 1.5h2a.75.75 0 0 0 0-1.5h-.25V13Z" fill="#868686"/>
</svg>
