<svg width="24" height="24" fill="none" xmlns="http://www.w3.org/2000/svg">
    <path fill-rule="evenodd" clip-rule="evenodd" d="M6 4a2 2 0 0 1 2-2h8a2 2 0 0 1 2 2v8a2 2 0 0 1-2 2H8a2 2 0 0 1-2-2V4Zm7.75 1a.75.75 0 0 1-.75.75h-2a.75.75 0 0 1 0-1.5h2a.75.75 0 0 1 .75.75Z" fill="#868686"/>
    <path d="m3.884 14.315 1.55 1.513A4.149 4.149 0 0 0 8.331 17h8.899c1.086 0 2.128.421 2.897 1.172l1.449 1.414c.271.265.424.625.424 1 0 .78-.649 1.414-1.449 1.414H7.425c-1.708 0-3.237-1.034-3.837-2.596l-1.517-3.949C1.801 14.751 2.334 14 3.104 14c.293 0 .573.114.78.315Z" fill="#868686"/>
</svg>
