<svg width="24" height="24" fill="none" xmlns="http://www.w3.org/2000/svg">
    <path fill-rule="evenodd" clip-rule="evenodd" d="M9.299 3.109a2.98 2.98 0 0 1 4.186 0l7.043 6.97a.75.75 0 0 1-.195 1.206l-3.022 1.495-6.174 6.111a2.98 2.98 0 0 1-4.186 0l-4.695-4.647a2.922 2.922 0 0 1 0-4.164l7.043-6.971Zm7.396 8.303 2.031-1.005-6.297-6.232a1.48 1.48 0 0 0-2.075 0l-7.043 6.97a1.454 1.454 0 0 0-.213.267h13.597Zm-13.597 1.5c.059.094.13.184.213.266l4.695 4.647a1.48 1.48 0 0 0 2.076 0l4.964-4.913H3.098Zm17.43 1.555-.542.518-.543-.518a.75.75 0 0 1 1.085 0Zm-.542 1.676c-.12.154-.251.33-.381.52-.493.719-.87 1.49-.87 2.072 0 .673.199 1.02.392 1.202.203.192.5.298.859.298s.656-.106.859-.298c.193-.182.39-.529.39-1.202 0-.581-.376-1.353-.868-2.072-.13-.19-.26-.366-.381-.52Zm0-1.158-.543-.518-.003.003-.006.007-.02.021-.07.077a12.135 12.135 0 0 0-.977 1.24c-.508.742-1.131 1.845-1.131 2.92 0 .985.302 1.763.859 2.291.547.519 1.25.71 1.89.71.642 0 1.345-.191 1.892-.71.557-.528.859-1.306.859-2.29 0-1.076-.624-2.18-1.131-2.92a12.184 12.184 0 0 0-1.048-1.318l-.02-.021-.006-.007-.002-.002h-.001l-.542.517Z" fill="#868686"/>
</svg>
