<svg width="24" height="24" fill="none" xmlns="http://www.w3.org/2000/svg">
    <path fill-rule="evenodd" clip-rule="evenodd" d="M12 2.75c-1.45 0-2.761.587-3.712 1.538a.75.75 0 0 1-1.061-1.061A6.731 6.731 0 0 1 12 1.25c1.864 0 3.552.756 4.773 1.977a.75.75 0 0 1-1.06 1.06A5.231 5.231 0 0 0 12 2.75Zm0 3a2.24 2.24 0 0 0-1.591.659.75.75 0 0 1-1.06-1.06A3.74 3.74 0 0 1 12 4.25a3.74 3.74 0 0 1 2.652 1.098.75.75 0 0 1-1.061 1.061A2.24 2.24 0 0 0 12 5.75Zm-6 3A3.25 3.25 0 0 0 2.75 12v2c0 .084.003.168.01.25h18.48c.007-.082.01-.166.01-.25v-2A3.25 3.25 0 0 0 18 8.75H6Zm14.74 7H3.26A3.247 3.247 0 0 0 6 17.25h12c1.15 0 2.162-.598 2.74-1.5ZM1.25 12A4.75 4.75 0 0 1 6 7.25h12A4.75 4.75 0 0 1 22.75 12v2A4.75 4.75 0 0 1 18 18.75H6A4.75 4.75 0 0 1 1.25 14v-2ZM8 19.75a.75.75 0 0 1 .75.75V22a.75.75 0 0 1-1.5 0v-1.5a.75.75 0 0 1 .75-.75Zm4 0a.75.75 0 0 1 .75.75V22a.75.75 0 0 1-1.5 0v-1.5a.75.75 0 0 1 .75-.75Zm4 0a.75.75 0 0 1 .75.75V22a.75.75 0 0 1-1.5 0v-1.5a.75.75 0 0 1 .75-.75Z" fill="#868686"/>
</svg>
