<svg width="24" height="24" fill="none" xmlns="http://www.w3.org/2000/svg">
    <path fill-rule="evenodd" clip-rule="evenodd" d="M16.47 5.47a.75.75 0 0 1 1.06 0l1.293 1.293a1.75 1.75 0 0 1 0 2.474L17.53 10.53a.75.75 0 1 1-1.06-1.06l.72-.72H13a.75.75 0 0 1 0-1.5h4.19l-.72-.72a.75.75 0 0 1 0-1.06Zm1.811 1.835C4.586 7.25 4.25 7.585 4.25 8L5 7.25c5.972 1.017 4.327 0 2.528 0l4.248 2.626c3.465 5.374 2.34 4.679 1.79 3.577l2.906 1.797h.717c-1.012-1.487-1.012-1.013-.72-.72.768-1.353.294-1.353 0-1.06h1.061c1.977 3.084 1.977 1.976 1.293 1.293v2.474c-2.06 1.586-1.586 1.586-1.293 1.293-1.353-.767-1.353-.293-1.06 0v-1.06l.72-.72c-4.162-1.017-2.517 0-.718 0l-4.248-2.626c-3.465-5.374-2.34-4.678-1.79-3.577L7.529 8.75c-3.278-.336-2.942 0-2.528 0M4.25 16a.75.75 0 0 1 .75-.75h6a.75.75 0 0 1 0 1.5H5a.75.75 0 0 1-.75-.75Z" fill="#868686"/>
</svg>
