<svg width="24" height="24" fill="none" xmlns="http://www.w3.org/2000/svg">
    <path fill-rule="evenodd" clip-rule="evenodd" d="m5.378 4.945 4.998-2.221a4 4 0 0 1 3.25 0l4.977 2.212c1.456.647 2.411 2.101 2.31 3.69-.392 6.099-2.135 8.855-6.848 12.053a3.685 3.685 0 0 1-4.129 0c-4.698-3.181-6.506-5.9-6.865-12.073-.092-1.58.862-3.019 2.307-3.661Zm10.187 5.55a.75.75 0 1 0-1.129-.987l-2.87 3.28a.25.25 0 0 1-.344.03l-1.753-1.402a.75.75 0 1 0-.937 1.171l1.753 1.402a1.75 1.75 0 0 0 2.41-.214l2.87-3.28Z" fill="#868686"/>
</svg>
