<svg width="24" height="24" fill="none" xmlns="http://www.w3.org/2000/svg">
    <g clip-path="url(#a)" fill="#868686">
        <path d="M7.47 11.53a.75.75 0 1 1 1.06-1.06l2.72 2.72V1a.75.75 0 0 1 1.5 0v12.19l2.72-2.72a.75.75 0 1 1 1.06 1.06l-4 4a.75.75 0 0 1-1.06 0l-4-4Z"/>
        <path d="M6.34 8.47a.75.75 0 1 0-1.17-.94 8.75 8.75 0 1 0 13.661 0 .75.75 0 0 0-1.17.94 7.25 7.25 0 1 1-11.32 0Z"/>
    </g>
    <defs>
        <clipPath id="a">
            <path fill="#fff" d="M0 0h24v24H0z"/>
        </clipPath>
    </defs>
</svg>
