<svg width="24" height="24" fill="none" xmlns="http://www.w3.org/2000/svg">
    <path fill-rule="evenodd" clip-rule="evenodd" d="M5.25 6A4.75 4.75 0 0 1 10 1.25h4A4.75 4.75 0 0 1 18.75 6v7a.75.75 0 0 1-1.5 0V6A3.25 3.25 0 0 0 14 2.75h-4A3.25 3.25 0 0 0 6.75 6v12A3.25 3.25 0 0 0 10 21.25h8a.75.75 0 0 1 0 1.5h-8A4.75 4.75 0 0 1 5.25 18V6Zm6 11.5a2.25 2.25 0 0 1 2.25-2.25h7a2.25 2.25 0 0 1 0 4.5h-7a2.25 2.25 0 0 1-2.25-2.25Zm2.25-.75a.75.75 0 0 0 0 1.5h7a.75.75 0 0 0 0-1.5h-7Z" fill="#868686"/>
    <path d="M12.75 5.75a.75.75 0 1 1-1.5 0 .75.75 0 0 1 1.5 0ZM10 5.75a.75.75 0 1 1-1.5 0 .75.75 0 0 1 1.5 0ZM15.5 5.75a.75.75 0 1 1-1.5 0 .75.75 0 0 1 1.5 0ZM12.75 8.75a.75.75 0 1 1-1.5 0 .75.75 0 0 1 1.5 0ZM12.75 11.75a.75.75 0 1 1-1.5 0 .75.75 0 0 1 1.5 0ZM10 8.75a.75.75 0 1 1-1.5 0 .75.75 0 0 1 1.5 0ZM10 11.75a.75.75 0 1 1-1.5 0 .75.75 0 0 1 1.5 0ZM15.5 8.75a.75.75 0 1 1-1.5 0 .75.75 0 0 1 1.5 0ZM15.5 11.75a.75.75 0 1 1-1.5 0 .75.75 0 0 1 1.5 0Z" fill="#868686"/>
</svg>
