<svg width="24" height="24" fill="none" xmlns="http://www.w3.org/2000/svg">
    <path fill-rule="evenodd" clip-rule="evenodd" d="M2.47 2.22a.75.75 0 0 0 0 1.06l18 18a.75.75 0 1 0 1.06-1.06l-18-18a.75.75 0 0 0-1.06 0Z" fill="#868686"/>
    <path fill-rule="evenodd" clip-rule="evenodd" d="M12 3.75c-1.169 0-2.261.37-3.168 1.012a.75.75 0 0 1-.866-1.225 6.965 6.965 0 0 1 4.033-1.287c3.628 0 6.65 2.795 7.066 6.46l.345 3.044c.069.61.316 1.182.705 1.64.635.747.761 1.686.52 2.489a.75.75 0 1 1-1.437-.43c.108-.36.051-.761-.226-1.087a4.566 4.566 0 0 1-1.053-2.443l-.345-3.045C17.241 5.937 14.83 3.75 12 3.75ZM6.87 5.6a.75.75 0 0 1 .283 1.022 5.918 5.918 0 0 0-.73 2.256l-.345 3.045a4.567 4.567 0 0 1-1.053 2.443c-.647.762-.083 1.884.803 1.884h11.42a.75.75 0 0 1 0 1.5H5.83c-2.251 0-3.365-2.685-1.946-4.356.39-.458.637-1.03.706-1.64l.345-3.044a7.418 7.418 0 0 1 .915-2.828A.75.75 0 0 1 6.87 5.6ZM8.737 18.298a.75.75 0 0 1 .966.439c.322.861 1.213 1.513 2.297 1.513 1.085 0 1.975-.652 2.298-1.513a.75.75 0 1 1 1.405.526c-.551 1.47-2.017 2.487-3.703 2.487-1.685 0-3.151-1.017-3.702-2.487a.75.75 0 0 1 .439-.965Z" fill="#868686"/>
</svg>
