<svg width="24" height="24" fill="none" xmlns="http://www.w3.org/2000/svg">
    <path fill-rule="evenodd" clip-rule="evenodd" d="M7.828 3.75c-1.114 0-1.672 1.346-.884 2.134a2.75 2.75 0 0 1 .805 1.944v2.344c0 .729-.29 1.428-.805 1.944-.788.788-.23 2.134.884 2.134h8.343c1.114 0 1.671-1.346.884-2.134a2.75 2.75 0 0 1-.806-1.944V7.828c0-.729.29-1.428.806-1.944.787-.788.23-2.134-.884-2.134H7.828Zm10.287 3.195c1.733-1.733.506-4.695-1.944-4.695H7.828c-2.45 0-3.677 2.962-1.945 4.695.235.234.366.552.366.883v2.344c0 .331-.131.649-.366.883-1.732 1.733-.505 4.695 1.945 4.695h8.343c2.45 0 3.677-2.962 1.945-4.694a1.25 1.25 0 0 1-.367-.884V7.828c0-.331.132-.649.367-.883Z" fill="#868686"/>
    <path fill-rule="evenodd" clip-rule="evenodd" d="M12 14.25a.75.75 0 0 1 .75.75v6a.75.75 0 0 1-1.5 0v-6a.75.75 0 0 1 .75-.75Z" fill="#868686"/>
</svg>
