<svg width="24" height="24" fill="none" xmlns="http://www.w3.org/2000/svg">
    <path fill-rule="evenodd" clip-rule="evenodd" d="M14.111 3.542a3.21 3.21 0 0 0-4.222 0l-3 2.607A3.328 3.328 0 0 0 5.75 8.66v9.285c0 1.834 1.465 3.304 3.25 3.304h6c1.785 0 3.25-1.47 3.25-3.304V8.66c0-.969-.418-1.886-1.139-2.512l-3-2.607ZM8.905 2.41a4.71 4.71 0 0 1 6.19 0l3 2.606a4.828 4.828 0 0 1 1.655 3.645v9.285c0 2.643-2.117 4.804-4.75 4.804H9c-2.633 0-4.75-2.16-4.75-4.804V8.66c0-1.399.603-2.73 1.655-3.645l3-2.606Z" fill="#868686"/>
    <path fill-rule="evenodd" clip-rule="evenodd" d="M12 6.75a1.25 1.25 0 1 0 0 2.5 1.25 1.25 0 0 0 0-2.5ZM9.25 8a2.75 2.75 0 1 1 5.5 0 2.75 2.75 0 0 1-5.5 0Z" fill="#868686"/>
</svg>
