<svg width="24" height="24" fill="none" xmlns="http://www.w3.org/2000/svg">
    <path fill-rule="evenodd" clip-rule="evenodd" d="M1.25 9A4.75 4.75 0 0 1 6 4.25h6A4.75 4.75 0 0 1 16.75 9v6A4.75 4.75 0 0 1 12 19.75H6A4.75 4.75 0 0 1 1.25 15V9ZM6 5.75A3.25 3.25 0 0 0 2.75 9v6A3.25 3.25 0 0 0 6 18.25h6A3.25 3.25 0 0 0 15.25 15V9A3.25 3.25 0 0 0 12 5.75H6Z" fill="#868686"/>
    <path fill-rule="evenodd" clip-rule="evenodd" d="M21.25 8.455c0-1.079-1.274-1.651-2.08-.935l-2.42 2.151v4.66l2.42 2.15c.806.717 2.08.145 2.08-.934V8.455Zm-3.077-2.056c1.774-1.576 4.577-.317 4.577 2.056v7.092c0 2.373-2.803 3.632-4.577 2.056l-2.923-2.599V8.997L18.173 6.4ZM11 8.75a1.25 1.25 0 1 0 0 2.5 1.25 1.25 0 0 0 0-2.5ZM8.25 10a2.75 2.75 0 1 1 5.5 0 2.75 2.75 0 0 1-5.5 0Z" fill="#868686"/>
</svg>
