<svg width="24" height="24" fill="none" xmlns="http://www.w3.org/2000/svg">
    <path fill-rule="evenodd" clip-rule="evenodd" d="M21.53 2.47a.75.75 0 0 1 0 1.06L20.461 4.6a3.227 3.227 0 0 1-.468 3.97l-.794.794.025.025a2.924 2.924 0 0 1 0 4.135l-1.538 1.538a.75.75 0 0 1-1.06-1.06l1.537-1.538a1.425 1.425 0 0 0 0-2.015l-.025-.025-9.178 9.178a5.099 5.099 0 0 1-2.463 1.364l-3.329.765a.75.75 0 0 1-.899-.899l.765-3.329a5.099 5.099 0 0 1 1.364-2.463L15.43 4.007a3.228 3.228 0 0 1 3.97-.468l1.07-1.07a.75.75 0 0 1 1.06 0Zm-3.392 5.833.794-.794a1.726 1.726 0 1 0-2.44-2.441l-.795.794 2.441 2.44Zm-3.502-1.38 2.442 2.44-8.483 8.483-2.441-2.44 8.482-8.484Zm-9.517 9.57c-.298.399-.51.857-.623 1.346l-.497 2.162 2.162-.497c.49-.112.947-.325 1.347-.623l-2.389-2.389Z" fill="#868686"/>
</svg>
