<svg width="24" height="24" fill="none" xmlns="http://www.w3.org/2000/svg">
    <path fill-rule="evenodd" clip-rule="evenodd" d="M10.686 5.213c-1.816-1.95-4.737-1.95-6.553 0-1.516 1.63-1.786 4.106-.808 6.037h4.274l1.777-2.666a.75.75 0 0 1 1.248 0L14 13.648l1.376-2.064A.75.75 0 0 1 16 11.25h4.675c.978-1.93.709-4.407-.809-6.037-1.816-1.95-4.736-1.95-6.552 0l-.765.822a.75.75 0 0 1-1.098 0l-.765-.822Zm8.865 7.537H16.4l-1.777 2.666a.75.75 0 0 1-1.248 0L10 10.352l-1.376 2.064A.75.75 0 0 1 8 12.75H4.45l6.569 7.058c.548.59 1.414.59 1.962 0l6.57-7.058ZM3.035 4.191c2.41-2.588 6.34-2.588 8.749 0l.216.232.216-.232c2.41-2.588 6.34-2.588 8.749 0 2.38 2.558 2.38 6.684 0 9.242l-6.886 7.397a2.81 2.81 0 0 1-4.158 0l-6.886-7.397c-2.38-2.558-2.38-6.684 0-9.242Z" fill="#868686"/>
</svg>
