<svg width="24" height="24" fill="none" xmlns="http://www.w3.org/2000/svg">
    <path d="M3 5.75h6.354a2.751 2.751 0 0 0 5.293 0H21a.75.75 0 0 0 0-1.5h-6.354a2.751 2.751 0 0 0-5.292 0H3a.75.75 0 0 0 0 1.5ZM17 9.25a2.75 2.75 0 1 0 2.646 3.5H21a.75.75 0 0 0 0-1.5h-1.354a2.751 2.751 0 0 0-2.646-2ZM2.25 12a.75.75 0 0 1 .75-.75h9a.75.75 0 0 1 0 1.5H3a.75.75 0 0 1-.75-.75ZM4.354 19.75H3a.75.75 0 0 1 0-1.5h1.354a2.751 2.751 0 1 1 0 1.5ZM11.25 19a.75.75 0 0 1 .75-.75h9a.75.75 0 0 1 0 1.5h-9a.75.75 0 0 1-.75-.75Z" fill="#868686"/>
</svg>
