<svg width="24" height="24" fill="none" xmlns="http://www.w3.org/2000/svg">
    <path fill-rule="evenodd" clip-rule="evenodd" d="M4.75 19.41V3.84h-1.5v16.32c0 .414.336.75.75.75h5a.75.75 0 0 0 .75-.75v-9.12h-1.5v8.37h-3.5ZM14.25 3.84a.75.75 0 0 1 .75-.75h5a.75.75 0 0 1 .75.75v16.32h-1.5V4.59h-3.5v7.89h-1.5V3.84Z" fill="#868686"/>
    <path fill-rule="evenodd" clip-rule="evenodd" d="M3.338 3.488A.75.75 0 0 1 4 3.09h5a.75.75 0 0 1 .622.33l11 16.32A.75.75 0 0 1 20 20.91h-5a.75.75 0 0 1-.622-.331l-11-16.32a.75.75 0 0 1-.04-.771ZM5.41 4.59l9.989 14.82h3.191L8.601 4.59H5.41Z" fill="#868686"/>
</svg>
