<svg width="24" height="24" fill="none" xmlns="http://www.w3.org/2000/svg">
    <path fill-rule="evenodd" clip-rule="evenodd" d="M9.25 8A5.75 5.75 0 0 1 15 2.25h3a.75.75 0 0 1 .75.75v4a.75.75 0 0 1-.75.75h-3a.25.25 0 0 0-.25.25v1.25H18a.75.75 0 0 1 .75.75v4a.75.75 0 0 1-.75.75h-3.25V21a.75.75 0 0 1-.75.75h-4a.75.75 0 0 1-.75-.75v-6.25H6a.75.75 0 0 1-.75-.75v-4A.75.75 0 0 1 6 9.25h3.25V8ZM15 3.75A4.25 4.25 0 0 0 10.75 8v2a.75.75 0 0 1-.75.75H6.75v2.5H10a.75.75 0 0 1 .75.75v6.25h2.5V14a.75.75 0 0 1 .75-.75h3.25v-2.5H14a.75.75 0 0 1-.75-.75V8c0-.966.784-1.75 1.75-1.75h2.25v-2.5H15Z" fill="#868686"/>
</svg>
