<svg width="24" height="24" fill="none" xmlns="http://www.w3.org/2000/svg">
    <path fill-rule="evenodd" clip-rule="evenodd" d="M12 15.25a.75.75 0 0 0-.75.75v1a.75.75 0 0 0 1.5 0v-1a.75.75 0 0 0-.75-.75ZM12 10.75a.75.75 0 0 0-.75.75v1a.75.75 0 0 0 1.5 0v-1a.75.75 0 0 0-.75-.75ZM12 6.25a.75.75 0 0 0-.75.75v1a.75.75 0 0 0 1.5 0V7a.75.75 0 0 0-.75-.75Z" fill="#868686"/>
    <path fill-rule="evenodd" clip-rule="evenodd" d="M5.81 5.034A2.75 2.75 0 0 1 8.385 3.25h2.782a.75.75 0 0 1 0 1.5H8.385a1.25 1.25 0 0 0-1.17.811l-4.5 12a1.25 1.25 0 0 0 1.17 1.689h16.228a1.25 1.25 0 0 0 1.17-1.689l-1.278-3.409a.75.75 0 0 1 1.405-.526l1.278 3.408a2.75 2.75 0 0 1-2.575 3.716H3.885a2.75 2.75 0 0 1-2.575-3.716l4.5-12Z" fill="#868686"/>
    <path fill-rule="evenodd" clip-rule="evenodd" d="M18.05 2.938a3.375 3.375 0 0 0-3.374 3.374c0 .89.566 2.1 1.385 3.14.399.505.826.93 1.214 1.22.418.313.683.39.775.39.093 0 .358-.077.775-.39.389-.29.816-.715 1.214-1.22.82-1.04 1.386-2.25 1.386-3.14a3.375 3.375 0 0 0-3.375-3.375Zm-4.874 3.374a4.875 4.875 0 1 1 9.749 0c0 1.389-.81 2.928-1.708 4.068-.46.585-.979 1.108-1.493 1.493-.484.363-1.079.688-1.674.688s-1.19-.325-1.674-.688c-.513-.385-1.032-.908-1.493-1.493-.898-1.14-1.707-2.68-1.707-4.068Zm4.874-.625a.625.625 0 1 0 0 1.25.625.625 0 0 0 0-1.25Zm-2.125.625a2.125 2.125 0 1 1 4.25 0 2.125 2.125 0 0 1-4.25 0Z" fill="#868686"/>
</svg>
