<svg width="24" height="24" fill="none" xmlns="http://www.w3.org/2000/svg">
    <path fill-rule="evenodd" clip-rule="evenodd" d="M9.922 2.571a4.067 4.067 0 0 1 4.156 0l4.844 2.868C20.208 6.201 21 7.61 21 9.132v5.736c0 1.523-.792 2.931-2.078 3.693l-4.844 2.868a4.067 4.067 0 0 1-4.156 0L5.078 18.56C3.792 17.799 3 16.39 3 14.868V9.132c0-1.523.792-2.931 2.078-3.693l4.844-2.868Zm6.173 12.633C15.023 14.457 13.583 14 12 14c-1.583 0-3.023.457-4.095 1.204-.515.359-.407 1.095.13 1.418l3.45 2.07a1 1 0 0 0 1.03 0l3.45-2.07c.537-.323.645-1.06.13-1.418ZM12 6a3 3 0 1 1 0 6 3 3 0 0 1 0-6Z" fill="#868686"/>
</svg>
