<svg width="24" height="24" fill="none" xmlns="http://www.w3.org/2000/svg">
    <path d="M13.25 9.25V8a1.25 1.25 0 1 0-2.5 0v1.25h2.5Z" fill="#868686"/>
    <path fill-rule="evenodd" clip-rule="evenodd" d="M3 6a4 4 0 0 1 4-4h10a4 4 0 0 1 4 4v12a4 4 0 0 1-4 4H7a4 4 0 0 1-4-4V6Zm6.25 2a2.75 2.75 0 1 1 5.5 0v4a.75.75 0 0 1-1.5 0v-1.25h-2.5V12a.75.75 0 0 1-1.5 0V8Zm-2 7a.75.75 0 0 1 .75-.75h8a.75.75 0 0 1 0 1.5H8a.75.75 0 0 1-.75-.75ZM8 17.25a.75.75 0 0 0 0 1.5h4a.75.75 0 0 0 0-1.5H8Z" fill="#868686"/>
</svg>
