<svg width="24" height="24" fill="none" xmlns="http://www.w3.org/2000/svg">
    <g clip-path="url(#a)" fill-rule="evenodd" clip-rule="evenodd" fill="#868686">
        <path d="M-46 11.25a.75.75 0 1 0 0 1.5.75.75 0 0 0 0-1.5Zm-2.25.75a2.25 2.25 0 1 1 4.5 0 2.25 2.25 0 0 1-4.5 0Z"/>
        <path d="M-46 5.25a.75.75 0 0 0-.75.75v4.5a.75.75 0 0 0 1.5 0V6a.75.75 0 0 0-.75-.75Zm.97 7.72a.75.75 0 0 0 0 1.06l1.5 1.5a.75.75 0 1 0 1.06-1.06l-1.5-1.5a.75.75 0 0 0-1.06 0Z"/>
        <path d="M-46 2.75A9.25 9.25 0 0 0-55.25 12a.75.75 0 0 1-1.5 0c0-5.937 4.813-10.75 10.75-10.75S-35.25 6.063-35.25 12-40.063 22.75-46 22.75h-10a.75.75 0 0 1 0-1.5h10a9.25 9.25 0 0 0 0-18.5Z"/>
        <path d="M-56.75 18a.75.75 0 0 1 .75-.75h6a.75.75 0 0 1 0 1.5h-6a.75.75 0 0 1-.75-.75ZM-56.75 15a.75.75 0 0 1 .75-.75h4a.75.75 0 0 1 0 1.5h-4a.75.75 0 0 1-.75-.75ZM12.25 5A2.75 2.75 0 0 1 15 2.25h5A2.75 2.75 0 0 1 22.75 5v5A2.75 2.75 0 0 1 20 12.75h-5A2.75 2.75 0 0 1 12.25 10V5ZM15 3.75c-.69 0-1.25.56-1.25 1.25v5c0 .69.56 1.25 1.25 1.25h5c.69 0 1.25-.56 1.25-1.25V5c0-.69-.56-1.25-1.25-1.25h-5Z"/>
        <path d="M19.25 6a.75.75 0 0 1-.75.75h-2a.75.75 0 0 1 0-1.5h2a.75.75 0 0 1 .75.75ZM1.25 9A.75.75 0 0 1 2 8.25h2a.75.75 0 0 1 .3.063l6.263 2.74a2.661 2.661 0 0 1-2.115 4.883l-1.743-.747a.75.75 0 0 1 .59-1.378l1.744.747a1.161 1.161 0 0 0 .923-2.131L3.843 9.75H2A.75.75 0 0 1 1.25 9Z"/>
        <path d="m10.665 13.994 3.404 1.702a5.25 5.25 0 0 0 2.348.554H18a2.75 2.75 0 1 1 0 5.5H9.89a8.75 8.75 0 0 1-3.913-.923L1.665 18.67a.75.75 0 1 1 .67-1.341l4.311 2.155a7.25 7.25 0 0 0 3.243.765H18a1.25 1.25 0 0 0 0-2.5h-1.583a6.75 6.75 0 0 1-3.02-.712l-3.403-1.702.67-1.342Z"/>
    </g>
    <defs>
        <clipPath id="a">
            <path fill="#fff" d="M0 0h24v24H0z"/>
        </clipPath>
    </defs>
</svg>
