<svg width="24" height="24" fill="none" xmlns="http://www.w3.org/2000/svg">
    <path fill-rule="evenodd" clip-rule="evenodd" d="M7.286 6.94c-1.504.453-3.165 1.585-4.112 2.3a1.11 1.11 0 0 0-.424.897v9.67c0 .097.053.197.185.262a.38.38 0 0 0 .383-.013c1.215-.816 2.99-1.836 4.599-2.016 1.959-.22 3.345.835 4.47 1.692l.067.051c1.204.916 2.143 1.595 3.463 1.447.786-.088 1.718-.471 2.633-.976a19.597 19.597 0 0 0 2.276-1.495c.264-.2.424-.527.424-.896v-9.67c0-.097-.053-.197-.185-.262a.38.38 0 0 0-.383.013c-1.062.714-2.523 1.561-3.921 1.896l-.35-1.46c1.129-.269 2.406-.99 3.434-1.681 1.153-.775 2.905-.023 2.905 1.495v9.669c0 .8-.35 1.587-1.02 2.093a21.087 21.087 0 0 1-2.455 1.611c-.973.537-2.111 1.033-3.192 1.154-1.959.219-3.345-.836-4.47-1.693l-.067-.05c-1.204-.916-2.143-1.595-3.463-1.448-1.214.136-2.724.962-3.928 1.771-1.153.775-2.905.023-2.905-1.494v-9.67c0-.8.35-1.587 1.02-2.093.961-.727 2.804-2.005 4.584-2.54l.432 1.437Z" fill="#868686"/>
    <path fill-rule="evenodd" clip-rule="evenodd" d="M12 2.75c-2.376 0-4.25 1.842-4.25 4.05 0 1.139.557 2.8 1.445 4.19.438.687.933 1.27 1.437 1.672.509.406.973.588 1.368.588.395 0 .86-.182 1.368-.588.504-.403 1-.985 1.437-1.671.888-1.392 1.445-3.052 1.445-4.191 0-2.208-1.874-4.05-4.25-4.05ZM6.25 6.8c0-3.094 2.604-5.55 5.75-5.55s5.75 2.456 5.75 5.55c0 1.512-.693 3.452-1.68 4.998-.5.782-1.098 1.503-1.766 2.036-.663.53-1.45.916-2.304.916-.855 0-1.64-.386-2.304-.916-.668-.533-1.266-1.254-1.766-2.036-.987-1.546-1.68-3.486-1.68-4.998ZM12 5.75a.75.75 0 1 0 0 1.5.75.75 0 0 0 0-1.5Zm-2.25.75a2.25 2.25 0 1 1 4.5 0 2.25 2.25 0 0 1-4.5 0Z" fill="#868686"/>
</svg>
