<svg width="24" height="24" fill="none" xmlns="http://www.w3.org/2000/svg">
    <path fill-rule="evenodd" clip-rule="evenodd" d="M8.75 18.172a1.27 1.27 0 0 0 .134-.116l1.586-1.586a.75.75 0 1 1 1.06 1.06l-1.585 1.586a2.75 2.75 0 0 1-3.89 0L4.47 17.531a.75.75 0 1 1 1.06-1.061l1.586 1.586c.043.042.087.081.134.116V10a.75.75 0 0 1 1.5 0v8.172ZM15.25 5.828a1.26 1.26 0 0 0-.134.116L13.53 7.53a.75.75 0 1 1-1.06-1.06l1.585-1.586a2.75 2.75 0 0 1 3.89 0l1.585 1.585a.75.75 0 0 1-1.06 1.061l-1.586-1.586a1.26 1.26 0 0 0-.134-.116V14a.75.75 0 0 1-1.5 0V5.828Z" fill="#868686"/>
</svg>
