<svg width="24" height="24" fill="none" xmlns="http://www.w3.org/2000/svg">
    <path fill-rule="evenodd" clip-rule="evenodd" d="M12 2.75a9.25 9.25 0 1 0 0 18.5 9.25 9.25 0 0 0 0-18.5ZM1.25 12C1.25 6.063 6.063 1.25 12 1.25S22.75 6.063 22.75 12 17.937 22.75 12 22.75 1.25 17.937 1.25 12Z" fill="#868686"/>
    <path fill-rule="evenodd" clip-rule="evenodd" d="M7.4 8.55a.75.75 0 0 1 1.05-.15l2.8 2.1a1.25 1.25 0 0 0 1.5 0l2.8-2.1a.75.75 0 0 1 .9 1.2l-2.8 2.1a2.75 2.75 0 0 1-3.3 0l-2.8-2.1a.75.75 0 0 1-.15-1.05ZM7.4 13.55a.75.75 0 0 1 1.05-.15l2.8 2.1a1.25 1.25 0 0 0 1.5 0l2.8-2.1a.75.75 0 0 1 .9 1.2l-2.8 2.1a2.75 2.75 0 0 1-3.3 0l-2.8-2.1a.75.75 0 0 1-.15-1.05Z" fill="#868686"/>
</svg>
