<svg width="24" height="24" fill="none" xmlns="http://www.w3.org/2000/svg">
    <path fill-rule="evenodd" clip-rule="evenodd" d="M13.16 4.942a.25.25 0 0 0-.41.192v5.464l3.72-2.48a.25.25 0 0 0 .021-.4l-3.33-2.776Zm-1.91 5.656V5.134c0-1.484 1.73-2.294 2.87-1.344l3.331 2.776a1.75 1.75 0 0 1-.15 2.8L13.353 12l3.95 2.633a1.75 1.75 0 0 1 .15 2.8L14.12 20.21c-1.14.95-2.87.139-2.87-1.345v-5.463l-4.834 3.222a.75.75 0 1 1-.832-1.248L10.648 12 5.584 8.623a.75.75 0 0 1 .832-1.248l4.834 3.223Zm1.5 2.803v5.463a.25.25 0 0 0 .41.192l3.331-2.776a.25.25 0 0 0-.021-.4l-3.72-2.48Z" fill="#868686"/>
    <path d="M18.414 10.586 19.828 12l-1.414 1.414L17 12l1.414-1.414ZM5.586 10.586 7 12l-1.414 1.414L4.172 12l1.414-1.414Z" fill="#868686"/>
</svg>
