<svg width="24" height="24" fill="none" xmlns="http://www.w3.org/2000/svg">
    <path fill-rule="evenodd" clip-rule="evenodd" d="M9 8.75a6.25 6.25 0 1 0 0 12.5 6.25 6.25 0 0 0 0-12.5ZM1.25 15a7.75 7.75 0 1 1 15.5 0 7.75 7.75 0 0 1-15.5 0Z" fill="#868686"/>
    <path fill-rule="evenodd" clip-rule="evenodd" d="M19.418 4.58a6.25 6.25 0 0 0-10.42 2.67h.001a7.75 7.75 0 0 1 7.75 7.75v.001a6.25 6.25 0 0 0 2.67-10.42Zm-9.9-1.06a7.75 7.75 0 1 1 6.519 13.16l-.974.131.13-.973a6.25 6.25 0 0 0-7.032-7.032l-.974.13.131-.974a7.72 7.72 0 0 1 2.2-4.442Z" fill="#868686"/>
    <path fill-rule="evenodd" clip-rule="evenodd" d="M1.25 15a.75.75 0 0 1 .75-.75h14a.75.75 0 0 1 0 1.5H2a.75.75 0 0 1-.75-.75ZM20.479 3.52a.75.75 0 0 1 0 1.061l-6 6a.75.75 0 1 1-1.06-1.06l6-6a.75.75 0 0 1 1.06-.001Z" fill="#868686"/>
</svg>
