<svg width="24" height="24" fill="none" xmlns="http://www.w3.org/2000/svg">
    <path fill-rule="evenodd" clip-rule="evenodd" d="M3.75 9A2.75 2.75 0 0 1 6.5 6.25h2A2.75 2.75 0 0 1 11.25 9v3.528c0 .427-.1.848-.29 1.23l-1.418 2.836A2.092 2.092 0 0 1 7.67 17.75c-1.555 0-2.566-1.636-1.871-3.027l.49-.98A2.75 2.75 0 0 1 3.75 11V9Zm3.92 7.25a.592.592 0 0 0 .53-.327l1.418-2.836a1.25 1.25 0 0 0 .132-.56V9c0-.69-.56-1.25-1.25-1.25h-2c-.69 0-1.25.56-1.25 1.25v2c0 .69.56 1.25 1.25 1.25h1a.75.75 0 0 1 .67 1.085l-1.028 2.059a.592.592 0 0 0 .529.856ZM12.75 9a2.75 2.75 0 0 1 2.75-2.75h2A2.75 2.75 0 0 1 20.25 9v3.528c0 .427-.1.848-.29 1.23l-1.418 2.836a2.092 2.092 0 0 1-1.871 1.156c-1.555 0-2.566-1.636-1.871-3.027l.49-.98A2.75 2.75 0 0 1 12.75 11V9Zm3.92 7.25a.592.592 0 0 0 .53-.327l1.418-2.836a1.25 1.25 0 0 0 .132-.56V9c0-.69-.56-1.25-1.25-1.25h-2c-.69 0-1.25.56-1.25 1.25v2c0 .69.56 1.25 1.25 1.25h1a.75.75 0 0 1 .67 1.085l-1.028 2.059a.592.592 0 0 0 .529.856Z" fill="#868686"/>
</svg>
