<svg width="24" height="24" fill="none" xmlns="http://www.w3.org/2000/svg">
    <path d="M8.288 4.288A5.231 5.231 0 0 1 12 2.75c1.45 0 2.762.587 3.713 1.538a.75.75 0 1 0 1.06-1.061A6.731 6.731 0 0 0 12 1.25a6.731 6.731 0 0 0-4.773 1.977.75.75 0 1 0 1.061 1.06Z" fill="#868686"/>
    <path d="M10.41 6.409A2.24 2.24 0 0 1 12 5.75a2.24 2.24 0 0 1 1.591.659.75.75 0 1 0 1.061-1.06A3.74 3.74 0 0 0 12 4.25 3.74 3.74 0 0 0 9.35 5.348a.75.75 0 1 0 1.06 1.061ZM7.873 9.029A2 2 0 0 1 9.622 8h4.757a2 2 0 0 1 1.748 1.029l2.223 4C19.09 14.362 18.126 16 16.6 16h-3.85v5.25H15a.75.75 0 0 1 0 1.5H9a.75.75 0 0 1 0-1.5h2.25V16H7.398c-1.525 0-2.489-1.638-1.748-2.971l2.222-4Z" fill="#868686"/>
</svg>
