<svg width="24" height="24" fill="none" xmlns="http://www.w3.org/2000/svg">
    <path d="M8.281 3.5a2 2 0 0 1 2-2h4a2 2 0 1 1 0 4h-4a2 2 0 0 1-2-2Z" fill="#868686"/>
    <path fill-rule="evenodd" clip-rule="evenodd" d="M6.781 3.531a4 4 0 0 0-3.5 3.97v10a4 4 0 0 0 4 4h10a4 4 0 0 0 4-4v-10a4 4 0 0 0-3.5-3.97 3.5 3.5 0 0 1-3.5 3.47h-4a3.5 3.5 0 0 1-3.5-3.47Zm8.152 8.378a.75.75 0 0 0-1.06-1.06l-1.592 1.59-1.59-1.59a.75.75 0 1 0-1.061 1.06l1.59 1.591-1.59 1.591a.75.75 0 1 0 1.06 1.06l1.591-1.59 1.591 1.59a.75.75 0 0 0 1.06-1.06l-1.59-1.591 1.59-1.591Z" fill="#868686"/>
</svg>
