<svg width="24" height="24" fill="none" xmlns="http://www.w3.org/2000/svg">
    <path fill-rule="evenodd" clip-rule="evenodd" d="M11.546 8.217C10.342 7.3 9.403 6.622 8.083 6.77c-.888.1-1.953.573-2.961 1.162a20.736 20.736 0 0 0-2.3 1.581.202.202 0 0 0-.072.163v10.13c0 .098.053.198.185.263a.38.38 0 0 0 .383-.013c1.215-.816 2.99-1.836 4.599-2.016 1.959-.22 3.345.835 4.47 1.692l.067.051c1.204.916 2.143 1.595 3.463 1.447.888-.1 1.953-.573 2.961-1.162a20.743 20.743 0 0 0 2.3-1.581.202.202 0 0 0 .072-.163V8.194c0-.098-.053-.198-.185-.263a.38.38 0 0 0-.383.013c-1.215.816-2.99 1.836-4.599 2.016-1.959.22-3.345-.835-4.47-1.692l-.067-.051Zm.908-1.194c1.204.915 2.143 1.594 3.463 1.447 1.214-.136 2.724-.962 3.928-1.771 1.153-.775 2.905-.023 2.905 1.495v10.13c0 .51-.222 1.008-.641 1.34-.484.382-1.4 1.071-2.474 1.699-1.055.617-2.343 1.222-3.552 1.358-1.959.219-3.345-.836-4.47-1.693l-.067-.05c-1.204-.916-2.143-1.595-3.463-1.448-1.214.136-2.724.962-3.928 1.771-1.153.775-2.905.023-2.905-1.494V9.675c0-.51.222-1.008.641-1.34a22.23 22.23 0 0 1 2.474-1.699C5.42 6.02 6.708 5.415 7.917 5.28c1.959-.219 3.345.836 4.47 1.693l.067.05Z" fill="#868686"/>
    <path fill-rule="evenodd" clip-rule="evenodd" d="M16 2.75a1.25 1.25 0 1 0 0 2.5 1.25 1.25 0 0 0 0-2.5ZM13.25 4a2.75 2.75 0 1 1 5.5 0 2.75 2.75 0 0 1-5.5 0Z" fill="#868686"/>
    <path fill-rule="evenodd" clip-rule="evenodd" d="M16 5.25a.75.75 0 0 1 .75.75v8a.75.75 0 0 1-1.5 0V6a.75.75 0 0 1 .75-.75Z" fill="#868686"/>
</svg>
