<svg width="24" height="24" fill="none" xmlns="http://www.w3.org/2000/svg">
    <path fill-rule="evenodd" clip-rule="evenodd" d="M2.151 7.778c-2.02-2.134-.43-5.528 2.46-5.528h14.778c2.759 0 4.39 3.128 2.643 5.317L11.725 20.482c-1.939 2.43-5.999 1.143-5.999-2.027v-6.208c0-.444-.171-.875-.485-1.207L2.15 7.778Zm2.46-4.028c-1.654 0-2.431 1.877-1.37 2.997l3.089 3.262c.574.606.896 1.405.896 2.238v6.208c0 1.667 2.22 2.48 3.327 1.092L20.86 6.63c.916-1.147.107-2.881-1.47-2.881H4.61Z" fill="#868686"/>
</svg>
