<svg width="24" height="24" fill="none" xmlns="http://www.w3.org/2000/svg">
    <path fill-rule="evenodd" clip-rule="evenodd" d="M18 2.75a3.25 3.25 0 1 0 0 6.5 3.25 3.25 0 0 0 0-6.5ZM13.25 6a4.75 4.75 0 1 1 9.5 0 4.75 4.75 0 0 1-9.5 0Z" fill="#868686"/>
    <path fill-rule="evenodd" clip-rule="evenodd" d="m20.469 9.53-6-6 1.06-1.061 6 6-1.06 1.06ZM5.15 12.55a.75.75 0 0 1 1.05-.15l2.2 1.65c.8.6 1.9.6 2.7 0l2.2-1.65a.75.75 0 0 1 .9 1.2L12 15.25a3.75 3.75 0 0 1-4.5 0L5.3 13.6a.75.75 0 0 1-.15-1.05Z" fill="#868686"/>
    <path d="M18.75 11.954V19A3.75 3.75 0 0 1 15 22.75H5A3.75 3.75 0 0 1 1.25 19v-8A3.75 3.75 0 0 1 5 7.25h7.13c.112.53.294 1.032.536 1.5H5A2.25 2.25 0 0 0 2.75 11v8A2.25 2.25 0 0 0 5 21.25h10A2.25 2.25 0 0 0 17.25 19v-7.046a6.067 6.067 0 0 0 1.5 0Z" fill="#868686"/>
</svg>
