<svg width="24" height="24" fill="none" xmlns="http://www.w3.org/2000/svg">
    <path fill-rule="evenodd" clip-rule="evenodd" d="M15 15.25a.75.75 0 0 1 .75.75v6a.75.75 0 0 1-1.5 0v-6a.75.75 0 0 1 .75-.75Z" fill="#868686"/>
    <path fill-rule="evenodd" clip-rule="evenodd" d="M1.25 6A4.75 4.75 0 0 1 6 1.25h12A4.75 4.75 0 0 1 22.75 6v6a.75.75 0 0 1-1.5 0V6A3.25 3.25 0 0 0 18 2.75H6A3.25 3.25 0 0 0 2.75 6v12A3.25 3.25 0 0 0 6 21.25h5.889a.75.75 0 0 1 0 1.5H6A4.75 4.75 0 0 1 1.25 18V6Z" fill="#868686"/>
    <path fill-rule="evenodd" clip-rule="evenodd" d="M12 6.25a.75.75 0 0 1 .75.75v5a.75.75 0 0 1-.513.711l-3 1a.75.75 0 0 1-.474-1.422l2.487-.83V7a.75.75 0 0 1 .75-.75ZM19.47 9.47a.75.75 0 0 1 1.06 0l2 2a.75.75 0 1 1-1.06 1.06l-2-2a.75.75 0 0 1 0-1.06Z" fill="#868686"/>
</svg>
