<svg width="24" height="24" fill="none" xmlns="http://www.w3.org/2000/svg">
    <path fill-rule="evenodd" clip-rule="evenodd" d="M13.45 7.4a.75.75 0 0 1 .15 1.05l-2.1 2.8H14a.75.75 0 0 1 .6 1.2l-3 4a.75.75 0 1 1-1.2-.9l2.1-2.8H10a.75.75 0 0 1-.6-1.2l3-4a.75.75 0 0 1 1.05-.15ZM5.46 4.4a.75.75 0 0 1 0 1.06A9.219 9.219 0 0 0 2.75 12a9.219 9.219 0 0 0 2.71 6.541.75.75 0 0 1-1.061 1.061 10.719 10.719 0 0 1-3.149-7.601c0-2.969 1.204-5.657 3.149-7.602a.75.75 0 0 1 1.06 0Zm13.08 0a.75.75 0 0 1 1.061 0A10.719 10.719 0 0 1 22.75 12c0 2.97-1.204 5.658-3.149 7.602a.75.75 0 0 1-1.06-1.06A9.218 9.218 0 0 0 21.25 12a9.219 9.219 0 0 0-2.71-6.541.75.75 0 0 1 0-1.06ZM8.289 7.227a.75.75 0 0 1 0 1.06 5.231 5.231 0 0 0-1.538 3.713c0 1.45.587 2.761 1.538 3.712a.75.75 0 1 1-1.061 1.06 6.731 6.731 0 0 1-1.977-4.772c0-1.864.756-3.553 1.977-4.773a.75.75 0 0 1 1.06 0Zm7.424 0a.75.75 0 0 1 1.061 0A6.731 6.731 0 0 1 18.75 12a6.731 6.731 0 0 1-1.977 4.773.75.75 0 0 1-1.06-1.06A5.231 5.231 0 0 0 17.25 12c0-1.45-.587-2.762-1.538-3.713a.75.75 0 0 1 0-1.06Z" fill="#868686"/>
</svg>
