<svg width="24" height="24" fill="none" xmlns="http://www.w3.org/2000/svg">
    <path fill-rule="evenodd" clip-rule="evenodd" d="M12 1a.75.75 0 0 1 .75.75v1.316a4.251 4.251 0 0 1 3.5 4.184.75.75 0 0 1-1.5 0c0-1.259-.846-2.32-2-2.646v5.462a4.251 4.251 0 0 1 0 8.368v1.316a.75.75 0 0 1-1.5 0v-1.316a4.251 4.251 0 0 1-3.5-4.184.75.75 0 0 1 1.5 0c0 1.259.846 2.32 2 2.646v-5.462a4.251 4.251 0 0 1 0-8.368V1.75A.75.75 0 0 1 12 1Zm-.75 3.604a2.751 2.751 0 0 0 0 5.292V4.604Zm1.5 7v5.293a2.751 2.751 0 0 0 0-5.293Z" fill="#868686"/>
</svg>
