<svg width="24" height="24" fill="none" xmlns="http://www.w3.org/2000/svg">
    <path fill-rule="evenodd" clip-rule="evenodd" d="M6 3.063h3.5a4 4 0 0 1 4 4v12h-3a3.5 3.5 0 0 0-6.907-.805A3.994 3.994 0 0 1 2 15.063v-8a4 4 0 0 1 4-4Zm3.945 5.055a.75.75 0 0 1 0 1.06l-.884.884.884.884a.75.75 0 0 1-1.061 1.061L8 11.123l-.884.884a.75.75 0 1 1-1.06-1.06l.883-.884-.883-.884a.75.75 0 1 1 1.06-1.061L8 9.002l.884-.884a.75.75 0 0 1 1.06 0Z" fill="#868686"/>
    <path d="M21.446 18.445A3.5 3.5 0 0 0 15 17.259V7.062h2.21a2 2 0 0 1 1.367.541l2.79 2.617A2 2 0 0 1 22 11.679v5.383c0 .537-.21 1.023-.554 1.383ZM9 19.063a2 2 0 1 1-4 0 2 2 0 0 1 4 0Z" fill="#868686"/>
    <path d="M20 19.063a2 2 0 1 1-4 0 2 2 0 0 1 4 0Z" fill="#868686"/>
</svg>
