<svg width="24" height="24" fill="none" xmlns="http://www.w3.org/2000/svg">
    <path fill-rule="evenodd" clip-rule="evenodd" d="M14.34 7.621a4.965 4.965 0 0 0-1.59-.53V2.028a10 10 0 0 1 9.222 9.222h-5.065a4.963 4.963 0 0 0-2.567-3.628ZM6.444 3.684a10 10 0 0 1 4.806-1.657v5.065A4.964 4.964 0 0 0 8 14.939L4.419 18.52A10 10 0 0 1 6.444 3.684ZM5.48 19.581a10 10 0 0 0 12.83.177L13.8 16.625A4.97 4.97 0 0 1 9.061 16l-3.582 3.58Zm11.108-5.682c.153-.37.26-.756.32-1.15h5.065a10 10 0 0 1-2.553 5.955l-4.204-2.923c.6-.51 1.07-1.154 1.372-1.882Z" fill="#868686"/>
</svg>
