<svg width="24" height="24" fill="none" xmlns="http://www.w3.org/2000/svg">
    <path d="M20.238 10.513v.986a2.22 2.22 0 1 1-4.44 0v-.986l1.543.686c.43.191.922.191 1.353 0l1.544-.686ZM14.41 9.896v2.436a.416.416 0 0 1-.833 0V9.525a.25.25 0 0 0 .016.008l.817.363Z" fill="#868686"/>
    <path d="M22.443 9.435 18.694 7.77a1.665 1.665 0 0 0-1.353 0l-3.748 1.666a.278.278 0 0 0 0 .508l3.748 1.666c.43.191.922.191 1.353 0l3.749-1.666a.278.278 0 0 0 0-.508ZM16.317 18.57h5.031a1.11 1.11 0 0 0 1.11-1.11c0-1.203-1.086-2.238-2.643-2.695a.526.526 0 0 0-.52.141l-.883.892a.555.555 0 0 1-.789 0l-.882-.892a.526.526 0 0 0-.52-.141 4.892 4.892 0 0 0-1.437.676c.96.88 1.529 1.96 1.533 3.13ZM11.782 8.205v1.506a3.387 3.387 0 0 1-6.774 0V8.205l2.355 1.047a2.54 2.54 0 0 0 2.063 0l2.356-1.047ZM2.89 7.264v3.717a.635.635 0 1 1-1.27 0V6.699a.452.452 0 0 0 .024.011l1.246.554Z" fill="#868686"/>
    <path d="M15.145 5.936 9.426 3.395a2.54 2.54 0 0 0-2.063 0L1.644 5.936a.423.423 0 0 0 0 .774l5.719 2.542a2.54 2.54 0 0 0 2.063 0l5.72-2.542a.423.423 0 0 0 0-.774ZM6.447 14.283l1.346 1.36a.847.847 0 0 0 1.204 0l1.345-1.36c.208-.21.511-.3.795-.216 2.375.698 4.032 2.277 4.032 4.112 0 .935-.758 1.693-1.693 1.693H3.314A1.694 1.694 0 0 1 1.62 18.18c0-1.835 1.657-3.414 4.033-4.112a.803.803 0 0 1 .794.216Z" fill="#868686"/>
</svg>
