<svg width="24" height="24" fill="none" xmlns="http://www.w3.org/2000/svg">
    <path fill-rule="evenodd" clip-rule="evenodd" d="M8 10.25a.75.75 0 0 1 .75.75v6a.75.75 0 0 1-1.5 0v-6a.75.75 0 0 1 .75-.75Z" fill="#868686"/>
    <path fill-rule="evenodd" clip-rule="evenodd" d="M11.75 14a.75.75 0 0 1-.75.75H5a.75.75 0 0 1 0-1.5h6a.75.75 0 0 1 .75.75ZM19.75 12a.75.75 0 0 1-.75.75h-5a.75.75 0 0 1 0-1.5h5a.75.75 0 0 1 .75.75ZM17.75 16a.75.75 0 0 1-.75.75h-3a.75.75 0 0 1 0-1.5h3a.75.75 0 0 1 .75.75Z" fill="#868686"/>
    <path fill-rule="evenodd" clip-rule="evenodd" d="M9.25 4a2.75 2.75 0 1 1 5.5 0v1.25H18A4.75 4.75 0 0 1 22.75 10v8A4.75 4.75 0 0 1 18 22.75H6A4.75 4.75 0 0 1 1.25 18v-8A4.75 4.75 0 0 1 6 5.25h3.25V4Zm.104 2.75H6A3.25 3.25 0 0 0 2.75 10v8A3.25 3.25 0 0 0 6 21.25h12A3.25 3.25 0 0 0 21.25 18v-8A3.25 3.25 0 0 0 18 6.75h-3.354a2.751 2.751 0 0 1-5.292 0Zm2.646-4c-.69 0-1.25.56-1.25 1.25v2a1.25 1.25 0 1 0 2.5 0V4c0-.69-.56-1.25-1.25-1.25Z" fill="#868686"/>
</svg>
