<svg width="24" height="24" fill="none" xmlns="http://www.w3.org/2000/svg">
    <path d="M9.204 4.136A10.258 10.258 0 0 1 12 3.75c.97 0 1.908.135 2.796.386a.75.75 0 1 0 .408-1.444A11.759 11.759 0 0 0 12 2.25c-1.11 0-2.185.154-3.204.442a.75.75 0 1 0 .408 1.444Z" fill="#868686"/>
    <path fill-rule="evenodd" clip-rule="evenodd" d="M12 22a8.5 8.5 0 1 1 8.126-6H18a4 4 0 0 0-4 4v.5h6.5a.75.75 0 0 1 0 1.5h-8a.752.752 0 0 1-.114-.009A8.67 8.67 0 0 1 12 22Zm0-13.75a.75.75 0 0 1 .75.75v3.7a1.5 1.5 0 1 1-1.5 0V9a.75.75 0 0 1 .75-.75Z" fill="#868686"/>
    <path d="M16.25 18.25a.75.75 0 0 1 .75-.75h3.5a.75.75 0 0 1 0 1.5H17a.75.75 0 0 1-.75-.75Z" fill="#868686"/>
</svg>
