<svg width="850" height="209" fill="none" xmlns="http://www.w3.org/2000/svg">
    <mask id="a" style="mask-type:luminance" maskUnits="userSpaceOnUse" x="0" y="4" width="28" height="29">
        <path fill-rule="evenodd" clip-rule="evenodd" d="M0 4.791h27.837v28.143H0V4.79Z" fill="#fff"/>
    </mask>
    <g mask="url(#a)">
        <path fill-rule="evenodd" clip-rule="evenodd" d="M13.92 4.791C5.961 4.791 0 10.993 0 18.756c0 7.976 5.962 14.178 13.92 14.178 7.957 0 13.919-6.202 13.919-14.178 0-7.763-5.962-13.965-13.92-13.965Z" fill="#463476"/>
    </g>
    <path fill-rule="evenodd" clip-rule="evenodd" d="M232.806 143.58c-20.208 0-35.593-16.646-35.593-39.137 0-22.49 15.385-39.358 35.593-39.358 20.222 0 35.607 16.868 35.607 39.358 0 22.491-15.385 39.137-35.607 39.137ZM290.581 0h-22.222v67.693c-9.074-12.946-23.641-21.01-41.025-21.01-30.843 0-53.221 24.71-53.221 57.779 0 30.999 19.703 54.673 47.201 57.484 1.933.148 3.857.296 5.79.296h.23c1.256 0 2.52-.074 3.791-.148.668-.074 1.337-.148 1.932-.222h.149c1.33-.148 2.675-.37 4.013-.665 1.627-.296 3.196-.74 4.749-1.184 1.568-.518 3.121-1.036 4.608-1.702 1.345-.592 2.683-1.183 4.013-1.849.156-.074.231-.148.379-.222 2.817-1.554 5.492-3.329 7.952-5.401 1.256-1.036 2.453-2.145 3.642-3.255 1.033-1.036 2.081-2.146 2.966-3.329a31.896 31.896 0 0 0 2.831-3.699c2.371-3.404 4.311-7.103 5.723-11.098l1.538 4.454-.007.015 9.015 26.115h22.17l-16.217-44.544V0ZM331.754 162.281h20.732V49.96h-20.732v112.321ZM342.106 4.15c-8.286 0-14.508 6.418-14.508 14.45 0 8.254 6.222 14.67 14.508 14.67 8.294 0 14.516-6.416 14.516-14.67 0-8.032-6.222-14.45-14.516-14.45ZM576.325 147.672c-19.994 0-35.253-16.795-35.253-39.484 0-22.681 15.259-39.7 35.253-39.7 19.995 0 35.261 17.019 35.261 39.7 0 22.689-15.266 39.484-35.261 39.484Zm.008-97.712c-33.32 0-58.05 24.868-58.05 58.241 0 33.373 24.73 58.241 58.05 58.241 33.326 0 58.049-24.868 58.049-58.241 0-33.373-24.723-58.241-58.049-58.241ZM665.495 133.083c-8.172 0-14.513 6.196-14.513 14.455 0 8.265 6.341 14.666 14.513 14.666s14.512-6.401 14.512-14.666c0-8.259-6.34-14.455-14.512-14.455ZM743.116 149.176c-11.764 0-20.116-4.581-20.116-15.922 0-10.251 8.133-17.667 29.318-17.667 8.345 0 17.766 1.089 26.112 2.618-1.926 14.609-15.41 30.971-35.314 30.971Zm9.436-99.216c-30.819 0-46.865 16.362-47.941 39.26h21.837c.856-13.96 10.482-21.592 26.104-21.592 15.841 0 25.9 9.81 25.9 24.867v9.155c-10.271-1.522-19.268-2.395-26.544-2.395-32.525 0-51.14 12.87-51.14 35.335 0 21.6 16.478 31.852 36.382 31.852 17.759 0 32.093-7.857 41.302-20.503v18.317h21.829V93.801c0-27.479-17.972-43.841-47.729-43.841ZM835.487 33.27c8.296 0 14.512-6.416 14.512-14.677 0-8.025-6.216-14.443-14.512-14.443s-14.512 6.418-14.512 14.443c0 8.26 6.216 14.678 14.512 14.678ZM825.143 162.281h20.731V49.96h-20.731v112.321ZM49.74 49.96v112.321h21.885V72.249h59.89v90.032H153.4V49.96H49.74ZM467.449 105.252c0 21.142-15.39 36.832-35.612 36.832s-35.686-15.69-35.686-36.832c0-21.067 15.464-36.979 35.686-36.979s35.612 15.912 35.612 36.979Zm38.435-53.134h-16.185v-.022l-.015.022h-5.963L473.64 81.134v-.014c-1.487-3.904-3.569-7.588-6.022-10.903a4.593 4.593 0 0 0-.669-.883c-.669-.885-1.338-1.695-2.156-2.505-.52-.737-1.197-1.326-1.859-1.989a4.53 4.53 0 0 0-1.197-1.179 39.027 39.027 0 0 0-2.594-2.357c-.223-.147-.372-.294-.595-.442a28.997 28.997 0 0 0-3.494-2.578c-1.346-.884-2.677-1.694-4.164-2.43-1.264-.738-2.602-1.327-3.94-1.916-1.494-.59-2.974-1.179-4.535-1.62-1.123-.37-2.305-.664-3.494-.958-.149 0-.379-.074-.595-.148-.521-.073-1.048-.22-1.569-.294a65.346 65.346 0 0 0-4.007-.59c-2.082-.22-4.163-.368-6.327-.368-30.846 0-53.224 23.72-53.224 55.321 0 31.676 22.378 55.395 52.786 55.395 17.166 0 31.968-7.734 41.484-20.699v16.353c0 20.258-14.72 33.591-36.065 33.591-17.835 0-31.069-10.534-33.225-24.972h-22.378c3.048 25.193 26.237 43.093 55.603 43.093 33.456 0 58.295-21.952 58.295-54.953V96.383l16.185-44.265ZM4.133 162.281h20.732V49.96H4.133v112.321Z" fill="#463476"/>
</svg>
